<svg width="679" height="679" viewBox="0 0 679 679" fill="none" xmlns="http://www.w3.org/2000/svg">
<path d="M257.814 113.049L263.967 114.538L281.924 99.0722L284.895 86.7891C284.895 86.7891 294.547 88.5048 289.539 104.319C284.527 120.132 286.729 116.33 286.729 116.33C286.729 116.33 306.907 121.294 308.161 123.455C309.073 125.026 304.771 145.221 302.35 156.152C301.131 161.655 296.539 165.936 291.132 165.999C290.364 166.008 289.607 165.939 288.888 165.765C283.851 164.546 259.104 154.225 259.104 154.225L248.475 151.652L257.814 113.049Z" fill="#EBEBEB"/>
<path d="M241.012 105.414L234.613 148.419L245.152 150.968L255.13 109.727L241.012 105.414Z" fill="#EBEBEB"/>
<path d="M332.857 76.6853L336.874 75.3156L341.476 60.1114L338.742 52.0932C338.742 52.0932 344.82 49.5956 347.669 60.3435C350.517 71.0928 350.396 68.1486 350.396 68.1486C350.396 68.1486 363.597 63.7058 365.083 64.4768C366.164 65.0374 370.988 78.0101 373.547 85.0659C374.835 88.6182 373.775 92.6904 370.738 94.6681C370.307 94.9504 369.853 95.1826 369.385 95.3427C366.097 96.4639 348.385 99.5167 348.385 99.5167L341.446 101.881L332.857 76.6853Z" fill="#E0E0E0"/>
<path d="M320.607 78.4029L332.443 105.035L339.322 102.689L330.146 75.7695L320.607 78.4029Z" fill="#E0E0E0"/>
<path d="M462.125 558.184L439.861 622.025H450.993L489.955 558.184H462.125Z" fill="#EBEBEB"/>
<path d="M589.833 558.184L612.096 622.025H600.965L562.004 558.184H589.833Z" fill="#EBEBEB"/>
<path d="M642.775 381.926H464.908V559.793H642.775V381.926Z" fill="#EBEBEB"/>
<path d="M587.049 381.926H409.182V559.793H587.049V381.926Z" fill="#F5F5F5"/>
<path d="M574.83 548.359H421.4V394.928H574.83V548.359ZM422.758 547.001H573.473V396.285H422.758V547.001Z" fill="#E0E0E0"/>
<path d="M422.965 443.24C448.12 443.973 473.391 443.317 498.559 443.325C523.747 443.334 548.969 443.701 574.152 443.278C574.611 443.27 574.611 442.573 574.152 442.565C548.969 442.142 523.747 442.51 498.559 442.518C473.391 442.526 448.12 441.87 422.965 442.603C422.557 442.616 422.555 443.228 422.965 443.24Z" fill="#E0E0E0"/>
<path d="M502.445 420.546C502.445 422.936 500.506 424.874 498.116 424.874C495.726 424.874 493.787 422.936 493.787 420.546C493.787 418.155 495.726 416.217 498.116 416.217C500.506 416.217 502.445 418.155 502.445 420.546Z" fill="#EBEBEB"/>
<path d="M440.081 490.02C440.081 492.411 438.143 494.349 435.753 494.349C433.362 494.349 431.424 492.411 431.424 490.02C431.424 487.63 433.362 485.691 435.753 485.691C438.143 485.69 440.081 487.628 440.081 490.02Z" fill="#EBEBEB"/>
<path d="M579.481 335.738L598.069 383.292L586.513 383.239L577.252 354.016L579.481 335.738Z" fill="#E0E0E0"/>
<path d="M516.005 291.799L509.615 382.914L575.582 384.292L583.006 291.799H516.005Z" fill="#EBEBEB"/>
<path d="M522.605 299.137L517.285 374.977L566.325 377.274L573.177 298.688L522.605 299.137Z" fill="#FAFAFA"/>
<path d="M533.365 309.861L529.387 363.17H556.438L561.211 309.861H533.365Z" fill="#E0E0E0"/>
<path d="M180.456 65.6758H63.9648V187.107H180.456V65.6758Z" fill="#E0E0E0"/>
<path d="M172.567 65.6758H56.0762V187.107H172.567V65.6758Z" fill="#EBEBEB"/>
<path d="M156.907 82H71.7344V170.785H156.907V82Z" fill="#FAFAFA"/>
<path d="M71.735 171.373C71.792 171.441 70.9735 172.358 69.6066 173.786C68.2397 175.214 66.3231 177.153 64.1797 179.264C62.0364 181.376 60.0709 183.261 58.6253 184.604C57.1796 185.946 56.2539 186.746 56.1928 186.683C56.1304 186.621 56.9448 185.707 58.3117 184.279C59.6786 182.851 61.5993 180.909 63.7481 178.793C65.8969 176.676 67.8651 174.788 69.3107 173.446C70.7563 172.102 71.6794 171.306 71.735 171.373Z" fill="#E0E0E0"/>
<path d="M156.908 171.157C156.976 171.1 157.894 171.919 159.322 173.285C160.75 174.652 162.688 176.569 164.799 178.712C166.911 180.856 168.796 182.821 170.139 184.267C171.481 185.712 172.281 186.638 172.218 186.699C172.156 186.762 171.242 185.949 169.814 184.58C168.386 183.214 166.444 181.293 164.328 179.144C162.212 176.995 160.324 175.027 158.981 173.581C157.636 172.136 156.84 171.214 156.908 171.157Z" fill="#E0E0E0"/>
<path d="M156.675 82.236C156.618 82.1681 157.436 81.2505 158.803 79.8225C160.17 78.3946 162.087 76.4562 164.23 74.3454C166.373 72.2333 168.339 70.3479 169.784 69.0068C171.23 67.6643 172.156 66.8648 172.217 66.9272C172.279 66.9897 171.466 67.9032 170.098 69.3312C168.731 70.7592 166.81 72.7016 164.662 74.8178C162.513 76.934 160.545 78.8221 159.099 80.1646C157.653 81.5084 156.732 82.3039 156.675 82.236Z" fill="#E0E0E0"/>
<path d="M71.5036 82.4551C71.4357 82.5122 70.5181 81.6936 69.0901 80.3267C67.6621 78.9598 65.7238 77.0432 63.613 74.8998C61.5009 72.7565 59.6155 70.791 58.2744 69.3454C56.9319 67.8997 56.1324 66.974 56.1948 66.9116C56.2573 66.8491 57.1708 67.6636 58.5988 69.0305C60.0268 70.3974 61.9678 72.3181 64.0854 74.4668C66.2016 76.6156 68.0897 78.5838 69.4322 80.0295C70.7747 81.4765 71.5701 82.3981 71.5036 82.4551Z" fill="#E0E0E0"/>
<path d="M156.674 170.784C156.674 170.784 156.663 170.634 156.658 170.355C156.654 170.059 156.649 169.65 156.642 169.118C156.634 168.013 156.623 166.413 156.609 164.331C156.592 160.134 156.567 154.016 156.536 146.242C156.502 130.696 156.453 108.536 156.395 82.0002L156.673 82.2785C131.88 82.2907 102.761 82.3043 71.7418 82.3192H71.7336L72.0526 81.9988C72.0363 114.587 72.0201 145.075 72.0078 170.784L71.7336 170.509C97.1971 170.568 118.397 170.615 133.25 170.651C140.677 170.682 146.514 170.705 150.519 170.723C152.504 170.736 154.03 170.747 155.085 170.754C155.591 170.761 155.981 170.766 156.263 170.769C156.532 170.774 156.674 170.784 156.674 170.784C156.674 170.784 156.552 170.795 156.296 170.799C156.02 170.803 155.64 170.808 155.147 170.814C154.106 170.82 152.597 170.831 150.634 170.845C146.643 170.861 140.828 170.885 133.426 170.917C118.53 170.951 97.2704 170.999 71.735 171.057H71.4608V170.781C71.4472 145.072 71.4323 114.585 71.416 81.9961V81.6758H71.7364H71.7445C102.762 81.6907 131.883 81.7043 156.676 81.7165H156.955V81.9948C156.897 108.604 156.848 130.826 156.814 146.416C156.783 154.164 156.758 160.258 156.741 164.442C156.727 166.501 156.716 168.084 156.708 169.177C156.701 169.695 156.696 170.094 156.692 170.383C156.685 170.656 156.674 170.784 156.674 170.784Z" fill="#E0E0E0"/>
<path d="M94.2158 119.09C94.2158 119.09 92.3915 141.072 116.198 141.072C116.198 129.341 106.519 120.081 94.2158 119.09Z" fill="#EBEBEB"/>
<path d="M137.777 119.106C137.777 119.106 115.795 117.282 115.795 141.088C127.526 141.088 136.786 131.41 137.777 119.106Z" fill="#EBEBEB"/>
<path d="M115.141 107.074C115.141 107.074 97.1831 123.195 116.124 141.072C124.934 131.738 124.187 117.103 115.141 107.074Z" fill="#E0E0E0"/>
<path d="M644.018 624.722C644.018 624.918 511.944 625.075 349.06 625.075C186.119 625.075 54.0742 624.916 54.0742 624.722C54.0742 624.527 186.119 624.369 349.06 624.369C511.944 624.369 644.018 624.528 644.018 624.722Z" fill="black"/>
<path d="M143.202 343.529C123.836 313.908 126.661 271.59 149.79 244.804C156.969 236.49 167.001 229.263 177.946 230.201C189.153 231.161 198.181 240.771 201.591 251.489C205.001 262.207 203.818 273.819 201.815 284.887C199.01 300.383 194.314 316.239 183.566 327.747C172.817 339.254 157.022 351.079 143.202 343.529Z" fill="#EC8305"/>
<path d="M153.912 486.101C146.619 469.084 151.909 447.538 166.253 435.833C170.705 432.201 176.528 429.386 182.083 430.861C187.769 432.371 191.55 438.141 192.335 443.972C193.121 449.804 191.46 455.679 189.425 461.199C186.576 468.93 182.719 476.672 176.139 481.628C169.556 486.581 160.348 491.243 153.912 486.101Z" fill="#EC8305"/>
<path d="M107.211 475.934C112.536 449.673 98.6959 420.697 74.9238 408.334C67.545 404.496 58.464 402.224 51.0281 405.949C43.4145 409.763 39.7563 419.052 40.359 427.546C40.963 436.041 45.0474 443.877 49.5554 451.101C55.8686 461.215 63.6126 471.054 74.3971 476.137C85.183 481.222 99.6054 485.116 107.211 475.934Z" fill="#EC8305"/>
<path d="M110.567 404.925C119.839 375.004 104.118 338.726 77.9159 321.559C69.7837 316.231 59.4865 312.523 50.4001 315.983C41.0964 319.527 35.7524 329.903 35.4592 339.854C35.166 349.805 38.9979 359.399 43.3959 368.33C49.553 380.834 57.4083 393.185 69.3575 400.363C81.3067 407.541 100.644 414.713 110.567 404.925Z" fill="#EC8305"/>
<path d="M129.188 551.17C129.145 551.174 129.042 550.675 128.885 549.72C128.723 548.63 128.518 547.249 128.264 545.547C128.136 544.625 127.996 543.619 127.844 542.53C127.631 541.425 127.403 540.239 127.159 538.973C126.673 536.419 126.169 533.504 125.332 530.34C124.946 528.747 124.545 527.082 124.125 525.351C123.621 523.635 123.1 521.854 122.56 520.012C121.562 516.299 120.088 512.458 118.706 508.365C115.64 500.284 111.831 491.567 107.156 482.753C102.393 473.983 97.2336 465.988 92.1936 458.966C89.5467 455.552 87.1604 452.199 84.6166 449.315C83.38 447.848 82.1841 446.428 81.0331 445.06C79.8223 443.754 78.6576 442.498 77.5432 441.297C75.3686 438.851 73.2172 436.819 71.3575 435.003C70.4372 434.099 69.5739 433.252 68.7717 432.464C67.9477 431.737 67.1876 431.063 66.4899 430.447C65.2126 429.295 64.1742 428.359 63.3557 427.622C62.6484 426.965 62.2887 426.603 62.3159 426.569C62.343 426.535 62.7557 426.83 63.5172 427.424C64.3778 428.115 65.4691 428.993 66.8116 430.074C67.5337 430.667 68.3224 431.315 69.1748 432.015C70.0028 432.782 70.8919 433.606 71.8421 434.487C73.756 436.262 75.9618 438.259 78.1893 440.678C79.3295 441.868 80.52 443.112 81.7579 444.405C82.9334 445.765 84.1551 447.177 85.4175 448.636C88.0115 451.51 90.4426 454.856 93.1316 458.272C98.2544 465.298 103.478 473.327 108.271 482.153C112.975 491.022 116.776 499.812 119.8 507.963C121.162 512.092 122.606 515.967 123.566 519.717C124.084 521.575 124.587 523.373 125.07 525.104C125.463 526.851 125.841 528.53 126.203 530.139C126.988 533.333 127.433 536.275 127.854 538.85C128.063 540.129 128.257 541.326 128.439 542.439C128.552 543.538 128.655 544.553 128.75 545.483C128.907 547.2 129.035 548.595 129.137 549.695C129.214 550.658 129.232 551.166 129.188 551.17Z" fill="black"/>
<path d="M128.504 556.548C128.482 556.546 128.484 556.343 128.505 555.951C128.539 555.485 128.581 554.915 128.633 554.216C128.782 552.593 128.987 550.373 129.247 547.568C129.389 546.115 129.548 544.515 129.72 542.769C129.853 541.013 129.901 539.096 130.008 537.042C130.161 532.931 130.554 528.257 130.41 523.077C130.398 520.486 130.384 517.775 130.37 514.952C130.342 512.127 130.075 509.195 129.932 506.158C129.728 500.07 128.9 493.615 128.169 486.815C126.31 473.261 123.408 458.471 118.99 443.306C114.425 428.178 108.796 414.192 102.965 401.816C99.8697 395.714 97.0449 389.85 93.8971 384.636C92.3605 382.01 90.9868 379.406 89.4706 377.023C87.9435 374.649 86.4762 372.368 85.074 370.189C82.3714 365.767 79.4937 362.064 77.1251 358.7C75.9156 357.038 74.8311 355.456 73.7614 354.055C72.666 352.687 71.6615 351.43 70.7494 350.291C69.0037 348.081 67.6233 346.333 66.612 345.053C66.1885 344.495 65.8424 344.04 65.56 343.669C65.3279 343.352 65.2166 343.183 65.2342 343.169C65.2505 343.154 65.3944 343.295 65.6591 343.584C65.9672 343.935 66.3446 344.362 66.8075 344.888C67.8649 346.132 69.3092 347.833 71.1349 349.982C72.0742 351.103 73.1112 352.338 74.2406 353.685C75.3401 355.067 76.4559 356.629 77.6952 358.277C80.1249 361.608 83.0623 365.288 85.8219 369.693C87.2513 371.864 88.7458 374.139 90.3027 376.505C91.8461 378.885 93.2469 381.484 94.8093 384.11C98.0087 389.322 100.881 395.19 104.017 401.305C109.932 413.706 115.621 427.746 120.206 442.943C124.645 458.179 127.527 473.046 129.328 486.665C130.031 493.5 130.824 499.984 130.983 506.099C131.103 509.151 131.346 512.095 131.35 514.93C131.336 517.763 131.322 520.485 131.308 523.084C131.395 528.282 130.939 532.968 130.718 537.086C130.577 539.144 130.494 541.062 130.324 542.821C130.111 544.565 129.917 546.167 129.739 547.619C129.381 550.417 129.096 552.629 128.888 554.25C128.786 554.942 128.704 555.507 128.636 555.969C128.569 556.354 128.526 556.551 128.504 556.548Z" fill="black"/>
<path d="M178.922 265.969C178.941 265.98 178.857 266.167 178.675 266.522C178.451 266.938 178.177 267.449 177.84 268.076C177.033 269.518 175.928 271.49 174.53 273.985C173.82 275.272 172.966 276.666 172.145 278.254C171.345 279.861 170.481 281.6 169.554 283.465C168.618 285.337 167.622 287.332 166.567 289.445C165.559 291.586 164.599 293.899 163.531 296.298C162.494 298.711 161.329 301.206 160.257 303.864C159.225 306.542 158.151 309.325 157.042 312.205C156.487 313.647 155.924 315.113 155.351 316.602C154.839 318.114 154.319 319.65 153.793 321.209C152.742 324.328 151.66 327.537 150.551 330.826C146.447 344.1 142.558 358.882 139.273 374.578C136.094 390.303 133.861 405.429 132.214 419.229C130.802 433.054 129.757 445.537 129.472 456.049C129.206 461.3 129.152 466.054 129.134 470.232C129.066 474.409 129.051 478.006 129.149 480.946C129.19 483.806 129.221 486.068 129.244 487.72C129.241 488.431 129.239 489.01 129.237 489.483C129.229 489.881 129.213 490.086 129.191 490.086C129.17 490.087 129.141 489.885 129.107 489.488C129.076 489.017 129.036 488.439 128.988 487.729C128.906 486.077 128.795 483.816 128.655 480.957C128.481 478.016 128.424 474.414 128.424 470.231C128.374 466.047 128.366 461.283 128.575 456.019C128.746 445.483 129.699 432.966 131.051 419.102C132.638 405.262 134.841 390.091 138.029 374.322C141.322 358.583 145.259 343.766 149.437 330.472C150.566 327.177 151.668 323.964 152.739 320.839C153.278 319.28 153.809 317.743 154.332 316.23C154.917 314.739 155.492 313.273 156.058 311.83C157.196 308.95 158.294 306.167 159.351 303.489C160.451 300.831 161.645 298.339 162.711 295.93C163.809 293.535 164.799 291.228 165.84 289.095C166.928 286.991 167.959 285.004 168.922 283.14C169.885 281.289 170.783 279.562 171.613 277.965C172.468 276.39 173.357 275.01 174.101 273.739C175.589 271.292 176.764 269.355 177.622 267.942C178.002 267.34 178.311 266.85 178.564 266.451C178.782 266.123 178.903 265.958 178.922 265.969Z" fill="black"/>
<path d="M172.341 447.726C172.413 447.775 171.676 449.062 170.282 451.341C168.866 453.605 166.921 456.948 164.642 461.137C162.342 465.318 159.842 470.422 157.305 476.191C154.83 481.987 152.357 488.464 150.187 495.407C148.062 502.367 146.45 509.112 145.224 515.295C144.063 521.49 143.25 527.116 142.79 531.864C142.308 536.609 142.029 540.466 141.922 543.135C141.787 545.804 141.67 547.28 141.582 547.28C141.495 547.28 141.444 545.801 141.427 543.121C141.384 540.442 141.528 536.562 141.897 531.783C142.245 527 142.971 521.328 144.076 515.08C145.247 508.844 146.835 502.041 148.976 495.034C151.161 488.044 153.687 481.531 156.237 475.722C158.848 469.941 161.449 464.848 163.86 460.703C166.25 456.548 168.32 453.263 169.868 451.075C171.392 448.869 172.269 447.677 172.341 447.726Z" fill="black"/>
<path d="M91.1523 537.838H176.222L165.929 624.722H101.748L91.1523 537.838Z" fill="#904F00"/>
<path d="M94.2598 615.344L101.485 624.721H165.93L173.362 615.642L94.2598 615.344Z" fill="black"/>
<path d="M172.909 563.392C172.909 563.742 155.256 564.026 133.483 564.026C111.704 564.026 94.0547 563.742 94.0547 563.392C94.0547 563.042 111.705 562.758 133.483 562.758C155.254 562.758 172.909 563.042 172.909 563.392Z" fill="#FAFAFA"/>
<path d="M172.909 569.175C172.909 569.525 155.256 569.809 133.483 569.809C111.704 569.809 94.0547 569.525 94.0547 569.175C94.0547 568.825 111.705 568.541 133.483 568.541C155.254 568.541 172.909 568.825 172.909 569.175Z" fill="#FAFAFA"/>
<path d="M171.847 574.776C171.847 575.127 154.812 575.41 133.802 575.41C112.785 575.41 95.7539 575.127 95.7539 574.776C95.7539 574.426 112.785 574.143 133.802 574.143C154.812 574.143 171.847 574.426 171.847 574.776Z" fill="#FAFAFA"/>
<path d="M412.344 236.738C408.776 245.621 408.886 263.998 414.818 271.511C417.919 275.438 422.127 278.563 424.33 283.057C427.217 288.948 425.985 296.285 422.368 301.758C418.75 307.231 413.069 311.048 407.087 313.742C400.418 316.746 392.264 318.405 386.043 314.558C381.293 311.622 378.777 306.127 377.256 300.755C372.996 285.705 374.541 269.487 378.969 254.485C383.397 239.484 390.587 225.471 397.735 211.559" fill="black"/>
<path d="M432.143 361.389L463.962 341.963C463.962 341.963 439.846 295.408 436.162 293.733C432.478 292.058 383.753 284.861 383.753 284.861C368.915 308.184 350.344 302.434 331.63 286.876C329.955 287.211 300.505 293.926 292.802 294.931C285.098 295.935 263.004 331.245 263.004 331.245L288.152 375.218L290.05 420.776C290.05 420.776 291.425 453.174 286.105 469.894L419.416 474.219C419.416 474.219 417.411 465.493 416.34 453.172C415.847 447.516 414.301 441.865 415.46 434.593C419.142 411.484 432.143 361.389 432.143 361.389Z" fill="#024CAA"/>
<path d="M278.568 308.686C280.566 315.397 297.599 325.325 303.536 321.614C305.423 320.434 307.051 318.666 309.236 318.24C311.978 317.706 314.577 319.444 317.23 320.322C323.436 322.376 331.415 320.08 335.893 324.842C338.094 327.183 339.501 331.18 342.714 331.09C343.873 331.057 344.924 330.432 346.049 330.155C349.653 329.268 353.145 332.016 356.847 332.276C358.781 332.412 360.69 331.861 362.549 331.315C371.415 328.716 380.28 326.117 389.146 323.517C391.079 322.95 393.243 322.19 394.052 320.343C390.9 321.353 387.39 321.205 384.334 319.935C382.59 319.209 380.971 318.127 379.119 317.749C374.421 316.791 370.149 320.529 365.481 321.625C360.568 322.779 355.499 320.938 350.787 319.127C342.749 316.038 334.709 312.948 326.671 309.858C320.022 307.302 313.208 304.648 307.918 299.878C306.242 298.367 299.932 301.546 297.957 300.453C295.982 299.362 291.423 295.386 291.423 295.386C291.006 295.086 287.33 298.388 285.734 300.124C284.017 301.993 278.568 308.686 278.568 308.686Z" fill="#FAFAFA"/>
<path d="M290.049 420.776C295.96 418.268 306.116 414.341 312.428 413.151C317.096 412.273 321.893 411.767 326.593 412.451C328.942 412.793 331.368 413.426 333.644 412.752C335.798 412.116 337.457 410.41 339.473 409.417C345.241 406.579 352.142 410.119 358.515 409.283C360.089 409.077 361.717 408.539 362.729 407.316C363.742 406.093 363.863 404.047 362.648 403.024C361.953 402.438 360.997 402.29 360.092 402.207C357.058 401.93 354.003 402.124 350.962 402.319C349.329 402.424 347.696 402.528 346.063 402.634C344.026 402.765 341.945 402.892 339.974 402.363C338.01 401.836 336.276 400.691 334.414 399.871C327.878 396.99 320.365 398.277 313.293 399.275C309.765 399.772 306.139 400.18 302.67 399.374C301.468 399.096 300.271 398.671 299.041 398.748C296.969 398.88 295.222 400.404 293.173 400.749C291.125 401.094 290.996 397.159 289.047 396.75L290.049 420.776Z" fill="#FAFAFA"/>
<path d="M419.857 359.729C419.094 360.138 418.341 360.625 417.484 360.745C413.64 361.278 411.284 354.512 407.604 355.745C406.17 356.226 405.254 357.868 403.751 358.039C402.072 358.231 400.849 356.519 399.305 355.832C396.546 354.605 393.517 356.808 390.509 357.047C387.115 357.316 383.146 355.197 380.616 357.472C379.626 358.361 379.055 359.833 377.771 360.181C376.555 360.513 375.371 359.653 374.163 359.294C370.482 358.197 367.089 361.748 363.304 362.401C358.995 363.145 353.847 360.232 350.564 363.12C349.401 364.144 348.684 365.8 347.195 366.227C345.809 366.626 344.379 365.762 342.937 365.758C339.626 365.749 336.58 370.118 333.791 368.334C334.094 369.914 335.743 370.92 337.339 371.117C338.936 371.312 340.535 370.906 342.131 370.709C351.513 369.556 361.038 375.658 370.137 373.09C372.64 372.383 374.992 371.034 377.586 370.846C382.442 370.495 386.844 374.263 391.707 374.083C395.496 373.943 399.013 371.406 402.78 371.835C406.658 372.276 409.463 375.672 412.989 377.35C417.213 379.359 422.158 378.774 426.793 378.144L428.121 377.829C430.183 371.79 432.011 365.69 432.781 359.386C428.734 357.486 423.795 357.617 419.857 359.729Z" fill="#FAFAFA"/>
<path d="M408.937 440.967C407.09 440.967 405.435 442.034 403.873 443.021C402.31 444.007 400.57 444.987 398.733 444.788C395.401 444.424 392.408 440.329 389.492 441.983C388.69 442.44 388.165 443.254 387.449 443.836C385.408 445.498 382.165 445.036 380.224 446.814C379.222 447.732 378.674 449.17 377.443 449.745C375.12 450.831 372.917 448.15 370.578 447.1C366.909 445.453 362.746 448.004 358.725 447.929C356.685 447.891 354.534 447.184 352.677 448.028C351.674 448.484 350.914 449.335 349.997 449.949C346.93 452.002 342.8 451.048 339.37 449.685C335.939 448.323 332.348 446.584 328.728 447.306C327.722 447.507 326.58 448.139 326.6 449.166C326.608 449.563 326.799 449.932 327.007 450.272C329.163 453.802 333.263 455.621 337.238 456.768C341.594 458.025 346.194 458.768 350.071 461.12C352.529 462.612 355.113 464.819 357.887 464.06C360.073 463.462 361.421 461.178 363.536 460.361C366.526 459.208 370.069 461.302 373.028 460.069C374.018 459.657 374.842 458.901 375.85 458.534C378.468 457.581 381.389 459.494 384.106 458.878C385.079 458.656 385.992 458.115 386.991 458.12C389.576 458.132 391.26 461.689 393.822 461.348C395.408 461.138 396.473 459.468 398.047 459.178C400.119 458.796 402.474 460.892 404.151 459.616C404.531 459.327 404.842 458.874 405.317 458.827C405.982 458.762 406.392 459.499 406.794 460.033C408.617 462.453 414.213 460.891 417.037 459.794L415.199 443.559C415.229 441.436 410.784 440.967 408.937 440.967Z" fill="#FAFAFA"/>
<g opacity="0.3">
<path d="M294.568 309.259C292.043 317.243 291.047 325.98 293.568 333.966C294.734 337.662 296.614 341.084 298.224 344.611C303.711 356.63 306.072 370.061 305.013 383.231C304.977 383.682 304.944 384.167 305.18 384.554C305.716 385.434 307.053 385.113 307.991 384.685C309.999 383.769 312.005 382.853 314.011 381.936C316.611 384.058 316.999 388.254 319.885 389.964C322.938 391.774 326.772 389.752 329.636 387.659C335.951 383.043 341.943 377.657 345.602 370.743C348.115 365.996 349.427 360.723 350.716 355.509C351.853 350.912 352.991 346.306 353.702 341.623C356.489 323.255 352.374 303.923 342.35 288.281" fill="black"/>
</g>
<path d="M422.027 316.412C422.05 316.404 422.151 316.648 422.32 317.121C422.508 317.669 422.742 318.356 423.03 319.195C423.648 321.101 424.491 323.697 425.518 326.866C426.554 330.141 427.773 334.001 429.122 338.272C430.421 342.573 431.871 347.346 432.547 352.545C433.197 357.752 432.775 362.796 431.829 367.214C430.922 371.653 429.588 375.509 428.415 378.707C427.214 381.899 426.129 384.434 425.366 386.18C425.003 386.989 424.704 387.651 424.466 388.179C424.253 388.633 424.13 388.868 424.107 388.858C424.084 388.849 424.164 388.596 424.335 388.125C424.54 387.583 424.798 386.905 425.111 386.075C425.795 384.3 426.807 381.739 427.944 378.538C429.052 375.33 430.329 371.482 431.19 367.087C432.091 362.706 432.483 357.752 431.845 352.636C431.181 347.52 429.763 342.769 428.496 338.458C427.203 334.174 426.033 330.303 425.041 327.016C424.103 323.822 423.333 321.203 422.768 319.282C422.532 318.425 422.339 317.726 422.185 317.167C422.058 316.678 422.003 316.419 422.027 316.412Z" fill="black"/>
<g opacity="0.3">
<path d="M433.77 356.556C435.888 350.119 435.248 343.014 433.11 336.586C430.973 330.156 427.418 324.299 423.674 318.65C425.54 331.498 431.426 343.578 432.589 356.508" fill="black"/>
</g>
<g opacity="0.3">
<path d="M325.395 438.789C330.912 431.025 338.954 425.286 347.672 421.448C356.391 417.611 365.798 415.575 375.225 414.208C378.962 413.666 383.02 413.284 386.288 415.177C389.553 417.071 391.108 422.183 388.263 424.664C386.829 425.914 384.793 426.131 382.897 426.268C369.836 427.215 356.041 427.263 344.754 433.902C340.291 436.528 336.32 440.141 331.392 441.724C329.155 442.442 325.841 442.039 325.619 439.701" fill="black"/>
</g>
<path d="M391.97 412.459C391.969 412.484 391.696 412.505 391.179 412.526C390.584 412.539 389.836 412.557 388.918 412.577C388.419 412.583 387.876 412.59 387.287 412.598C386.686 412.637 386.039 412.681 385.35 412.725C383.961 412.834 382.376 412.881 380.641 413.143C379.77 413.252 378.86 413.366 377.914 413.484C376.968 413.617 375.995 413.825 374.981 414C372.945 414.316 370.816 414.884 368.563 415.409C364.094 416.614 359.259 418.231 354.344 420.331C349.437 422.457 344.943 424.87 340.949 427.216C338.976 428.429 337.089 429.565 335.395 430.741C333.664 431.862 332.111 432.993 330.693 434.023C329.253 435.026 328.024 436.031 326.914 436.873C325.799 437.711 324.87 438.471 324.115 439.098C323.398 439.674 322.814 440.142 322.352 440.515C321.943 440.833 321.72 440.992 321.704 440.973C321.688 440.955 321.879 440.761 322.258 440.407C322.699 440.008 323.256 439.504 323.937 438.888C324.667 438.227 325.573 437.435 326.667 436.565C327.757 435.69 328.968 434.654 330.394 433.621C331.799 432.561 333.342 431.403 335.066 430.255C336.755 429.054 338.639 427.893 340.614 426.658C344.61 424.267 349.125 421.821 354.064 419.682C359.012 417.567 363.891 415.957 368.4 414.778C370.675 414.266 372.822 413.716 374.878 413.423C375.901 413.259 376.884 413.065 377.838 412.944C378.792 412.841 379.71 412.742 380.588 412.647C382.336 412.416 383.934 412.401 385.331 412.33C386.03 412.305 386.68 412.265 387.279 412.26C387.869 412.275 388.416 412.288 388.917 412.302C389.837 412.334 390.587 412.362 391.183 412.383C391.7 412.409 391.971 412.435 391.97 412.459Z" fill="black"/>
<g opacity="0.3">
<path d="M281.858 340.171C278.402 344.956 278.005 351.423 279.429 357.151C280.853 362.879 283.892 368.053 286.894 373.137C287.302 368.062 286.909 362.921 285.729 357.968C284.312 352.017 281.759 346.229 281.768 340.111" fill="black"/>
</g>
<path d="M378.558 156.638C378.631 152.308 383.579 149.239 387.849 149.961C392.119 150.683 395.46 154.159 397.461 157.999C399.462 161.841 400.419 166.125 401.925 170.185C405.98 181.112 414.001 190.397 416.914 201.681C418.959 209.605 418.317 218.049 416.177 225.95C414.035 233.85 410.446 241.277 406.583 248.495C404.244 252.863 401.783 257.209 400.265 261.926C398.748 266.643 398.229 271.839 399.825 276.53C400.041 277.164 400.294 277.87 400.014 278.48C399.588 279.412 398.275 279.449 397.283 279.194C392.3 277.916 388.851 273.016 387.994 267.943C387.139 262.871 388.445 257.676 390.261 252.863C392.077 248.049 394.418 243.419 395.76 238.454C398.7 227.583 396.657 216.089 396.148 204.839C395.86 198.5 396.064 192.092 394.802 185.874C393.541 179.654 390.583 173.471 385.324 169.917C383.277 168.534 380.914 167.565 379.189 165.796C377.464 164.028 376.596 161.025 378.156 159.11" fill="black"/>
<path d="M383.014 282.526C383.014 282.526 382.869 275.961 382.876 276.033C382.876 276.033 402.318 272.331 405.76 246.768C407.472 234.056 406.344 213.306 404.874 196.357C403.551 181.103 392.985 162.596 377.799 164.567L330.548 177.705C325.936 178.304 324.417 182.25 324.618 186.897L324.285 189.084L328.224 261.964L329.572 274.134C330.267 287.982 342.309 302.623 357.165 303.016C371.497 303.771 383.211 297.869 383.014 282.526Z" fill="#FFBE9D"/>
<path d="M396.181 212.804C396.282 214.528 394.906 216.035 393.109 216.173C391.314 216.312 389.775 215.032 389.673 213.308C389.573 211.585 390.946 210.076 392.741 209.936C394.538 209.798 396.079 211.08 396.181 212.804Z" fill="black"/>
<path d="M400.494 207.965C400.099 208.4 397.581 206.628 394.066 206.72C390.555 206.762 388.018 208.631 387.627 208.209C387.434 208.023 387.83 207.245 388.933 206.4C390.019 205.559 391.886 204.723 394.076 204.681C396.265 204.642 398.125 205.405 399.204 206.204C400.305 207.008 400.689 207.769 400.494 207.965Z" fill="black"/>
<path d="M366.294 214.543C365.897 214.979 363.378 213.206 359.865 213.298C356.354 213.34 353.817 215.209 353.426 214.787C353.234 214.601 353.624 213.823 354.733 212.979C355.819 212.138 357.685 211.303 359.875 211.259C362.064 211.22 363.924 211.983 365.003 212.782C366.101 213.586 366.488 214.347 366.294 214.543Z" fill="black"/>
<path d="M379.463 234.501C379.442 234.301 381.618 233.872 385.148 233.336C386.044 233.222 386.888 233.024 387.025 232.409C387.222 231.755 386.823 230.796 386.364 229.763C385.468 227.612 384.532 225.356 383.549 222.993C379.634 213.35 376.776 205.413 377.167 205.258C377.556 205.103 381.046 212.794 384.962 222.436C385.906 224.814 386.808 227.081 387.667 229.25C388.031 230.263 388.643 231.404 388.216 232.762C387.991 233.438 387.343 233.94 386.772 234.11C386.2 234.298 385.695 234.32 385.253 234.358C381.692 234.632 379.481 234.702 379.463 234.501Z" fill="black"/>
<path d="M382.875 276.031C382.875 276.031 365.769 277.541 348.555 267.74C348.555 267.74 357.583 285.511 383.015 282.526L382.875 276.031Z" fill="#EB996E"/>
<path d="M366.166 205.649C365.762 206.582 362.286 205.913 358.139 206.154C353.986 206.313 350.592 207.312 350.099 206.422C349.88 205.997 350.514 205.136 351.914 204.296C353.301 203.456 355.478 202.712 357.968 202.588C360.456 202.472 362.694 203.004 364.156 203.707C365.629 204.41 366.343 205.207 366.166 205.649Z" fill="black"/>
<path d="M399.963 197.129C399.251 197.945 396.366 197.183 392.921 197.227C389.475 197.167 386.572 197.914 385.882 197.095C385.577 196.696 386.019 195.886 387.276 195.101C388.514 194.318 390.6 193.653 392.967 193.658C395.334 193.666 397.403 194.341 398.621 195.13C399.857 195.918 400.275 196.731 399.963 197.129Z" fill="black"/>
<path d="M376.84 241.874C375.86 240.499 374.144 239.791 372.458 239.674C370.877 239.564 368.712 240.596 367.417 242.093C367.387 242.121 367.361 242.15 367.332 242.18C367.276 242.246 367.197 242.299 367.146 242.368L367.217 242.336C366.748 242.867 366.407 243.529 366.354 244.234C366.233 245.822 367.175 247.347 368.446 248.307C370.466 249.833 373.475 250.057 375.534 248.585C377.595 247.115 378.309 243.936 376.84 241.874Z" fill="#EB996E"/>
<path d="M367.72 238.471C367.923 238.455 368.085 239.284 368.648 240.436C369.195 241.582 370.243 243.06 371.868 244.035C373.498 245.004 375.295 245.224 376.564 245.162C377.847 245.111 378.654 244.859 378.735 245.046C378.811 245.191 378.109 245.785 376.689 246.105C375.301 246.431 373.144 246.359 371.178 245.19C369.218 244.015 368.13 242.151 367.758 240.773C367.368 239.372 367.555 238.472 367.72 238.471Z" fill="black"/>
<path d="M383.601 164.975C383.138 167.511 384.499 170.081 386.368 171.855C388.238 173.629 390.582 174.8 392.767 176.164C399.556 180.404 402.903 189.654 406.085 196.998C411.673 186.353 403.073 172.546 395.971 164.228C394.689 162.728 393.289 161.274 391.536 160.367C389.785 159.459 387.616 159.168 385.84 160.026" fill="black"/>
<path d="M406.097 249.965C406.074 249.956 406.177 249.631 406.395 249.025C406.64 248.354 406.962 247.476 407.364 246.379C408.143 244.061 409.289 240.709 410.301 236.457C412.36 227.996 413.875 215.824 412.159 202.585C411.312 195.987 409.899 189.746 407.764 184.402C405.629 179.059 402.586 174.721 399.275 171.907C396.001 169.032 392.667 167.636 390.338 166.997C387.983 166.374 386.609 166.381 386.617 166.298C386.619 166.274 386.957 166.276 387.604 166.303C388.25 166.343 389.202 166.457 390.406 166.73C392.789 167.296 396.221 168.644 399.599 171.525C403.017 174.345 406.171 178.751 408.365 184.155C410.564 189.565 412.003 195.845 412.858 202.494C414.589 215.839 412.979 228.1 410.784 236.575C409.704 240.834 408.481 244.177 407.62 246.473C407.164 247.612 406.78 248.485 406.525 249.076C406.267 249.668 406.12 249.975 406.097 249.965Z" fill="#EC8305"/>
<path d="M408.389 268.289C408.377 268.293 408.336 268.193 408.265 267.991C408.185 267.748 408.089 267.452 407.971 267.091C407.748 266.29 407.475 265.082 407.388 263.496C407.148 260.334 407.934 255.655 410.438 250.559C412.844 245.387 417.234 240.197 421.431 234.097C423.506 231.033 425.496 227.656 426.756 223.847C428.002 220.041 428.527 215.845 428.195 211.608C427.865 207.369 426.687 203.308 424.845 199.752C422.997 196.186 420.565 193.117 418.096 190.356C413.118 184.862 408.125 180.286 404.864 175.632C401.512 171.056 399.779 166.689 399.211 163.574C398.622 160.449 398.895 158.688 398.895 158.688C398.996 158.682 398.815 160.451 399.48 163.518C400.125 166.578 401.9 170.847 405.267 175.339C408.545 179.908 413.536 184.412 418.58 189.923C421.08 192.692 423.563 195.795 425.459 199.434C427.353 203.069 428.562 207.223 428.899 211.556C429.24 215.887 428.698 220.175 427.414 224.067C426.114 227.966 424.075 231.388 421.97 234.466C417.705 240.594 413.315 245.706 410.886 250.782C408.358 255.788 407.511 260.366 407.663 263.487C407.763 266.624 408.501 268.265 408.389 268.289Z" fill="black"/>
<path d="M379.505 151.629C375.146 148.537 369.53 147.842 364.186 147.918C349.798 148.124 335.195 153.624 325.568 164.318C317.461 173.323 305.473 190.67 303.204 202.573C297.678 231.552 315.995 239.672 301.074 284.909C298.385 293.062 294.992 301.027 293.337 309.451C292.753 312.422 292.446 315.509 292.505 318.566C290.756 323.865 291.827 329.979 293.987 335.247C296.521 341.43 300.397 347.002 302.824 353.228C305.252 359.455 310.596 369.68 307.033 375.332C312.066 373.987 312.247 368.733 316.236 365.381C317.41 369.851 317.372 374.633 316.126 379.084C322.328 378.673 328.373 376.16 333.039 372.053C342.355 363.853 345.283 350.679 346.708 338.351C349.825 311.397 346.779 285.563 339.636 259.387L339.533 259.515C334.34 242.777 324.503 227.321 333.338 223.636C348.723 217.218 334.672 210.453 340.531 194.274C342.361 189.223 344.402 183.876 348.713 180.67C353.847 176.852 360.789 177.045 367.178 176.692C373.566 176.339 380.821 174.665 383.821 169.014L384.209 165.628C386.467 160.782 383.863 154.721 379.505 151.629Z" fill="black"/>
<path d="M310.081 258.76C310.042 258.716 310.605 258.49 311.205 257.62C311.817 256.765 312.237 255.192 312.065 253.191C311.637 249.181 309.609 243.639 306.966 236.906C305.699 233.516 304.274 229.77 303.519 225.534C302.742 221.337 302.765 216.539 304.51 211.979C306.2 207.434 309.36 203.149 313.739 200.157C318.071 197.029 323.983 196.558 327.608 192.316C331.335 188.284 332.999 183.005 334.608 178.093C335.422 175.617 336.249 173.171 337.328 170.88C338.392 168.582 339.693 166.46 341.122 164.513C344.009 160.635 347.483 157.52 351.115 155.233C352.931 154.09 354.811 153.152 356.736 152.57C358.658 151.972 360.613 151.796 362.441 151.895C366.123 152.091 369.28 153.223 371.958 154.261C374.628 155.355 376.91 156.32 378.704 157.3C380.495 158.286 381.677 159.412 382.276 160.308C382.874 161.21 382.994 161.774 382.994 161.774C382.954 161.793 382.782 161.246 382.159 160.391C381.535 159.54 380.356 158.476 378.571 157.54C376.789 156.613 374.481 155.68 371.814 154.628C369.14 153.63 366.003 152.549 362.418 152.393C360.635 152.313 358.752 152.498 356.895 153.09C355.035 153.668 353.206 154.592 351.427 155.727C347.868 157.998 344.467 161.079 341.645 164.9C340.248 166.818 338.976 168.906 337.939 171.165C336.886 173.415 336.072 175.834 335.263 178.309C333.662 183.213 331.992 188.605 328.122 192.798C326.235 194.914 323.705 196.324 321.202 197.31C318.688 198.314 316.244 199.262 314.125 200.73C309.868 203.626 306.777 207.79 305.117 212.207C303.403 216.636 303.354 221.294 304.093 225.432C304.809 229.602 306.195 233.335 307.43 236.729C310.01 243.483 311.984 249.075 312.336 253.172C312.469 255.218 311.991 256.842 311.316 257.702C310.993 258.139 310.666 258.402 310.439 258.557C310.21 258.703 310.088 258.771 310.081 258.76Z" fill="#EC8305"/>
<path d="M332.505 225.844C332.118 220.432 326.139 216.941 321.499 219.756C318.953 221.302 317.044 224.341 317.405 230.088C318.366 245.416 333.556 241.29 333.556 240.849C333.554 240.576 332.957 232.182 332.505 225.844Z" fill="#FFBE9D"/>
<path d="M328.509 235.336C328.438 235.291 328.254 235.539 327.815 235.774C327.388 236.004 326.64 236.19 325.821 235.94C324.165 235.447 322.641 232.962 322.394 230.204C322.268 228.811 322.477 227.464 322.902 226.334C323.299 225.183 323.974 224.354 324.782 224.158C325.581 223.919 326.189 224.371 326.404 224.79C326.636 225.206 326.557 225.518 326.641 225.539C326.686 225.575 326.953 225.263 326.791 224.637C326.708 224.337 326.505 223.987 326.128 223.714C325.741 223.438 325.192 223.319 324.627 223.417C323.45 223.573 322.454 224.726 321.987 225.967C321.455 227.219 321.187 228.733 321.328 230.297C321.62 233.38 323.382 236.171 325.638 236.672C326.734 236.886 327.613 236.505 328.054 236.114C328.505 235.708 328.563 235.36 328.509 235.336Z" fill="#EB996E"/>
<path d="M334.349 245.795C334.387 245.793 334.457 246.101 334.322 246.647C334.181 247.179 333.777 247.945 332.932 248.523C332.113 249.119 330.765 249.389 329.488 248.918C328.212 248.492 327.018 247.391 326.469 245.944C325.904 244.504 325.911 242.998 326.215 241.727C326.522 240.447 327.142 239.405 327.802 238.674C329.172 237.183 330.536 237.091 330.513 237.155C330.573 237.278 329.337 237.547 328.184 238.998C327.623 239.712 327.099 240.694 326.852 241.87C326.606 243.034 326.627 244.414 327.127 245.682C327.613 246.957 328.618 247.899 329.711 248.305C330.805 248.735 331.914 248.565 332.664 248.101C333.434 247.649 333.859 247.014 334.062 246.556C334.262 246.089 334.29 245.792 334.349 245.795Z" fill="white"/>
<path d="M380.613 167.321C380.538 167.397 379.664 166.079 377.372 164.572C375.087 163.118 371.155 161.734 366.264 162.241C363.837 162.463 361.22 163.207 358.683 164.521C356.154 165.877 353.696 167.769 351.471 170.116C349.229 172.449 347.22 175.218 345.351 178.214C343.485 181.217 341.798 184.477 340.043 187.809C338.288 191.143 336.537 194.397 334.566 197.379C332.615 200.369 330.397 203.057 328.04 205.335C325.705 207.636 323.378 209.684 321.375 211.763C319.366 213.832 317.67 215.939 316.515 218.086C314.182 222.404 313.921 226.597 314.571 229.226C315.208 231.906 316.362 233.056 316.255 233.109C316.236 233.124 316.002 232.822 315.572 232.229C315.207 231.602 314.638 230.656 314.305 229.293C313.555 226.616 313.742 222.302 316.074 217.853C317.233 215.631 318.941 213.467 320.953 211.359C322.96 209.239 325.279 207.167 327.581 204.873C329.905 202.6 332.062 199.964 333.988 196.999C335.929 194.047 337.665 190.812 339.419 187.481C341.172 184.153 342.873 180.877 344.764 177.849C346.659 174.829 348.706 172.028 351.003 169.665C353.282 167.287 355.809 165.368 358.411 164.002C361.038 162.669 363.731 161.939 366.219 161.743C371.233 161.287 375.243 162.786 377.525 164.341C378.668 165.141 379.457 165.891 379.932 166.445C380.397 167.006 380.632 167.306 380.613 167.321Z" fill="#EC8305"/>
<path d="M265.114 333.243L267.96 319.478L241.739 307.514C241.739 307.514 241.498 308.317 241.063 309.763C237.316 322.239 218.631 382.357 217.498 386.843C213.281 403.527 214.215 436.537 220.878 442.722C226.192 447.656 236.418 451.302 243.178 450.551C249.937 449.8 268.567 425.823 268.567 425.823L285.668 371.064L265.114 333.243Z" fill="#FFBE9D"/>
<path d="M266.27 325.057C266.294 325.061 266.248 325.429 266.141 326.122C266.015 326.881 265.845 327.89 265.634 329.153C265.149 331.852 264.467 335.634 263.631 340.275C262.793 344.97 261.801 350.562 260.951 356.804C260.114 363.044 259.4 369.945 259.367 377.203C259.367 384.463 260.138 391.36 261.66 397.469C263.145 403.575 264.509 409.188 264.367 414.03C264.297 418.858 262.955 422.662 261.549 424.945C260.155 427.262 258.915 428.154 258.915 428.154C258.839 428.09 260.015 427.128 261.31 424.808C262.62 422.521 263.86 418.773 263.866 414.025C263.943 409.27 262.55 403.737 261.026 397.621C259.46 391.486 258.659 384.504 258.66 377.201C258.694 369.894 259.431 362.966 260.307 356.714C261.194 350.459 262.24 344.869 263.141 340.182C264.069 335.558 264.825 331.789 265.364 329.1C265.63 327.846 265.842 326.846 266.001 326.094C266.153 325.41 266.245 325.051 266.27 325.057Z" fill="#EB996E"/>
<path d="M293.377 296.714L288.298 291.098V284.414L283.024 276.848L272.524 278.533L269.315 278.8L271.45 263.459C271.45 263.459 272.434 259.581 276.176 252.095C279.92 244.609 273.892 241.176 273.892 241.176L262.63 260.885L258.886 273.987L257.281 263.292C257.281 263.292 259.182 252.897 258.914 247.55C258.647 242.203 253.27 242.972 253.27 242.972L248.992 266.501V278.265L245.248 271.314C245.248 271.314 244.446 265.433 243.911 260.084C243.376 254.738 239.098 256.341 239.098 256.341V273.719L243.911 289.761C243.911 289.761 240.75 310.463 240.215 311.265L264.975 328.615C264.975 328.615 270.382 324.52 271.451 324.253C272.521 323.985 285.89 314.093 285.89 314.093L295.248 304.2C295.248 304.2 296.852 303.13 296.852 302.061C296.852 300.991 293.377 296.714 293.377 296.714ZM280.543 303.13L275.195 300.724L272.254 293.505L274.432 289.543L275.194 288.157L276.174 287.473L279.74 288.157C279.74 288.157 281.344 293.238 281.077 295.643C280.809 298.049 284.018 300.456 284.018 300.456L280.543 303.13Z" fill="#FFBE9D"/>
<path d="M276.176 287.474C276.167 287.559 275.683 287.603 274.948 287.371C274.215 287.146 273.26 286.583 272.507 285.668C271.756 284.749 271.39 283.702 271.313 282.941C271.23 282.172 271.368 281.708 271.452 281.715C271.656 281.704 271.66 283.569 273.054 285.218C274.397 286.907 276.225 287.276 276.176 287.474Z" fill="#EB996E"/>
<path d="M289.938 301.338C289.74 301.307 289.858 299.57 289.95 297.436C290.049 295.302 290.087 293.561 290.287 293.547C290.477 293.532 290.758 295.287 290.656 297.467C290.562 299.646 290.127 301.37 289.938 301.338Z" fill="#EB996E"/>
<path d="M281.692 311.442C281.628 311.499 281.014 311.007 280.247 309.976C279.516 308.949 278.6 307.26 278.859 305.156C278.942 304.636 279.177 304.126 279.519 303.739C279.831 303.392 280.152 303.085 280.464 302.801C281.09 302.238 281.687 301.778 282.203 301.413C283.229 300.68 283.969 300.347 284.019 300.456C284.05 300.525 283.447 300.981 282.511 301.806C282.042 302.214 281.49 302.705 280.909 303.275C280.62 303.561 280.323 303.865 280.039 304.194C279.793 304.489 279.622 304.856 279.553 305.279C279.409 306.126 279.586 307.009 279.805 307.768C280.025 308.528 280.357 309.172 280.663 309.701C281.292 310.756 281.775 311.372 281.692 311.442Z" fill="#EB996E"/>
<path d="M288.314 290.419C288.482 290.396 288.466 293.187 286.53 295.93C286.036 296.598 285.401 297.154 284.709 297.456C284.004 297.766 283.291 297.769 282.743 297.639C281.596 297.347 281.293 296.561 281.379 296.552C281.462 296.476 281.87 297.036 282.833 297.147C283.3 297.199 283.886 297.143 284.43 296.866C284.988 296.588 285.515 296.11 285.964 295.506C287.75 292.996 288.102 290.364 288.314 290.419Z" fill="#EB996E"/>
<path d="M281.101 295.26C280.937 295.258 280.55 292.909 279.801 290.006C279.456 288.548 279.19 287.204 279.099 286.212C279.001 285.22 279.068 284.598 279.16 284.594C279.263 284.59 279.373 285.184 279.593 286.132C279.913 287.457 280.192 288.612 280.489 289.843C281.242 292.753 281.332 295.259 281.101 295.26Z" fill="#EB996E"/>
<path d="M289.938 302.929C289.933 303.083 286.95 302.718 283.884 300.787C283.108 300.318 282.414 299.752 281.91 299.113C281.408 298.472 281.115 297.775 281.004 297.176C280.782 295.968 281.032 295.244 281.103 295.258C281.223 295.261 281.168 295.998 281.488 297.051C281.777 298.119 282.76 299.325 284.253 300.183C287.196 302.045 290 302.699 289.938 302.929Z" fill="#EB996E"/>
<path d="M267.898 308.876C267.699 308.998 265.972 304.966 261.968 301.575C258.011 298.126 253.768 297.027 253.859 296.811C253.878 296.734 254.953 296.894 256.59 297.518C258.223 298.136 260.389 299.294 262.429 301.039C264.462 302.792 265.932 304.76 266.788 306.282C267.651 307.806 267.972 308.846 267.898 308.876Z" fill="#EB996E"/>
<path d="M258.938 283.91C258.946 284.119 256.979 284.285 254.72 285.078C252.453 285.849 250.804 286.933 250.68 286.764C250.56 286.629 252.099 285.226 254.489 284.41C256.873 283.576 258.95 283.729 258.938 283.91Z" fill="#EB996E"/>
<path d="M301.908 582.014C301.908 582.014 222.601 603.964 219.419 605.084C214.642 606.766 215.445 624.27 222.879 623.997C226.396 623.868 283.795 626.135 291.048 625.681C298.3 625.228 317.817 617.518 317.817 617.518L301.908 582.014Z" fill="#EC8305"/>
<path d="M268.87 612.274C268.47 612.33 267.936 608.134 265.374 603.759C262.877 599.346 259.52 596.777 259.767 596.459C259.905 596.154 263.844 598.388 266.524 603.098C269.251 607.779 269.205 612.308 268.87 612.274Z" fill="black"/>
<path d="M277.137 608.525C276.749 608.593 275.946 604.842 273.834 600.701C271.762 596.536 269.229 593.657 269.514 593.387C269.733 593.126 272.83 595.72 275.019 600.105C277.238 604.47 277.477 608.504 277.137 608.525Z" fill="black"/>
<path d="M284.894 606.448C284.494 606.423 284.799 602.463 283.039 598.069C281.353 593.645 278.443 590.942 278.72 590.652C278.878 590.35 282.435 592.802 284.275 597.585C286.166 602.347 285.216 606.562 284.894 606.448Z" fill="black"/>
<path d="M283.488 596.204C283.347 596.24 282.644 594.026 282.637 590.304C282.642 588.451 282.855 586.232 283.44 583.837C283.731 582.64 284.123 581.403 284.621 580.156C284.878 579.526 285.171 578.801 285.892 578.212C286.632 577.548 287.977 577.685 288.615 578.347C289.342 578.98 289.572 579.874 289.672 580.589C289.752 581.318 289.793 581.997 289.775 582.683C289.756 584.049 289.58 585.357 289.285 586.566C288.699 588.987 287.754 591.018 286.845 592.628C284.996 595.846 283.396 597.491 283.283 597.403C283.101 597.275 284.43 595.429 286.014 592.195C286.793 590.577 287.606 588.591 288.093 586.298C288.338 585.155 288.475 583.935 288.475 582.675C288.44 581.456 288.457 579.933 287.745 579.347C287.366 579.033 287.025 579.013 286.695 579.259C286.345 579.526 286.052 580.069 285.827 580.645C285.335 581.83 284.936 583.004 284.625 584.144C284.001 586.423 283.7 588.546 283.576 590.336C283.343 593.928 283.704 596.173 283.488 596.204Z" fill="black"/>
<path d="M283.586 595.398C283.55 595.252 285.464 594.594 288.701 594.572C290.312 594.57 292.247 594.739 294.328 595.262C295.355 595.539 296.459 595.805 297.569 596.456C298.655 597.007 299.791 598.516 299.361 600.081C299.021 601.555 297.758 602.588 296.503 602.911C295.241 603.264 294.018 603.138 292.946 602.901C290.77 602.402 289.077 601.331 287.793 600.368C285.252 598.374 284.01 596.849 284.105 596.737C284.245 596.569 285.746 597.873 288.329 599.599C289.63 600.429 291.256 601.327 293.194 601.704C294.158 601.889 295.196 601.946 296.136 601.663C297.07 601.405 297.845 600.694 298.067 599.778C298.295 598.892 297.756 598.08 296.889 597.565C296.039 597.039 294.989 596.736 294.011 596.443C292.048 595.882 290.215 595.624 288.667 595.51C285.566 595.293 283.619 595.611 283.586 595.398Z" fill="black"/>
<path d="M256.683 613.124C256.291 613.08 256.679 609.69 255.119 605.971C253.634 602.22 250.987 600.069 251.237 599.762C251.368 599.439 254.684 601.318 256.349 605.469C258.059 609.602 257.003 613.264 256.683 613.124Z" fill="black"/>
<path d="M312.022 616.785C312.058 616.869 310.966 617.378 308.954 618.228C306.917 618.997 303.935 620.075 300.129 620.963C292.544 622.874 281.73 623.959 269.851 623.832C257.965 623.702 247.255 623.16 239.49 622.85C235.814 622.654 232.732 622.491 230.299 622.362C228.129 622.217 226.932 622.094 226.934 622.003C226.936 621.91 228.14 621.86 230.314 621.845C232.75 621.863 235.835 621.885 239.517 621.91C247.55 622.068 258.143 622.275 269.857 622.504C281.683 622.627 292.367 621.701 299.922 620.047C307.503 618.49 311.93 616.539 312.022 616.785Z" fill="black"/>
<path d="M314.367 618.594C314.26 618.777 312.089 617.51 308.426 615.902C304.805 614.348 299.377 612.487 293.418 613.408C287.441 614.322 283.205 618.338 280.447 621.124C277.665 624.01 276.037 625.928 275.876 625.793C275.757 625.693 277.11 623.587 279.757 620.488C281.096 618.955 282.794 617.18 285.016 615.571C287.213 613.956 290.041 612.582 293.209 612.098C299.602 611.119 305.236 613.256 308.821 615.051C312.46 616.912 314.448 618.464 314.367 618.594Z" fill="black"/>
<path d="M234.809 622.024C234.665 621.928 235.342 620.878 235.966 619.027C236.598 617.194 237.082 614.475 236.549 611.573C236.011 608.671 234.587 606.305 233.344 604.817C232.099 603.311 231.092 602.572 231.192 602.431C231.255 602.325 232.44 602.848 233.909 604.304C235.368 605.735 237.027 608.226 237.609 611.376C238.188 614.526 237.529 617.445 236.678 619.302C235.825 621.189 234.904 622.1 234.809 622.024Z" fill="black"/>
<path d="M294.185 469.994L279.936 505.098C279.936 505.098 209.111 479.182 167.652 486.732C151.888 489.603 135.017 525.369 157.986 548.336C180.395 570.746 220.474 602.425 295.657 612.679C297.533 612.935 328.327 619.547 326.431 619.323C324.535 619.099 369.606 626.232 369.606 626.232L380.187 586.222L464.162 599.399C513.652 596.019 537.873 543.1 508.07 526.064C480.268 510.173 427.992 508.899 427.992 508.899L415.153 473.891L294.185 469.994Z" fill="black"/>
<path d="M371.279 627.683C371.5 626.33 372.097 622.686 373.321 615.21C373.989 611.22 374.813 606.356 375.873 600.759C376.406 597.962 377.001 594.981 377.71 591.843C378.071 590.275 378.455 588.666 378.914 587.029C379.149 586.212 379.393 585.386 379.692 584.558C380.004 583.729 380.271 582.897 380.965 582.088L381.091 582.695C363.214 576.349 340.873 567.966 317.055 557.924C302.411 551.695 288.595 545.403 276.44 538.855C270.384 535.562 264.681 532.245 259.78 528.524C254.838 524.874 250.439 521.231 246.314 518.056C238.141 511.609 230.733 507.444 225.188 505.674C223.83 505.151 222.571 504.865 221.489 504.581C220.414 504.266 219.482 504.102 218.726 503.982C218.01 503.852 217.443 503.749 217.01 503.67C216.623 503.594 216.426 503.548 216.428 503.533C216.429 503.518 216.63 503.533 217.021 503.579C217.458 503.636 218.031 503.711 218.754 503.804C219.519 503.895 220.462 504.032 221.551 504.32C222.646 504.578 223.921 504.84 225.298 505.341C228.105 506.172 231.392 507.65 235.02 509.667C238.648 511.696 242.551 514.388 246.7 517.549C250.861 520.7 255.282 524.313 260.22 527.92C265.112 531.593 270.779 534.856 276.833 538.124C288.971 544.609 302.777 550.871 317.406 557.092C341.199 567.123 363.51 575.566 381.332 582.012L381.83 582.193L381.459 582.619C380.991 583.158 380.639 584.017 380.357 584.802C380.062 585.601 379.815 586.416 379.579 587.221C379.115 588.836 378.721 590.434 378.351 591.992C377.622 595.113 377.003 598.083 376.446 600.872C375.336 606.451 374.456 611.304 373.727 615.282C372.997 619.217 372.422 622.311 372.02 624.48C371.811 625.535 371.644 626.34 371.512 626.877C371.386 627.416 371.279 627.683 371.279 627.683Z" fill="#EC8305"/>
<path d="M491.78 530.892C491.776 530.907 491.624 530.893 491.328 530.851C490.982 530.796 490.551 530.728 490.021 530.644C488.867 530.492 487.201 530.061 485.004 529.85C480.642 529.206 474.245 528.785 466.377 529.19C458.504 529.566 449.199 531.083 439.11 533.688C434.075 535.038 428.836 536.623 423.473 538.48C418.11 540.342 412.642 542.482 407.039 544.713C401.426 546.98 395.776 548.732 390.283 550.242C384.788 551.759 379.418 552.943 374.282 553.937C364.008 555.937 354.665 557.173 346.818 558.13C338.969 559.076 332.607 559.731 328.21 560.182C326.067 560.392 324.374 560.558 323.146 560.679C322.61 560.722 322.177 560.758 321.826 560.786C321.529 560.805 321.374 560.808 321.373 560.791C321.372 560.777 321.521 560.744 321.816 560.694C322.163 560.642 322.593 560.577 323.125 560.498C324.35 560.337 326.036 560.114 328.171 559.833C332.629 559.273 338.953 558.476 346.737 557.497C354.567 556.46 363.885 555.161 374.12 553.121C379.238 552.108 384.583 550.91 390.048 549.388C395.513 547.874 401.128 546.126 406.703 543.873C412.301 541.643 417.8 539.499 423.182 537.642C428.568 535.791 433.836 534.215 438.899 532.882C449.05 530.31 458.422 528.849 466.345 528.552C474.264 528.226 480.691 528.749 485.054 529.501C487.253 529.767 488.914 530.254 490.057 530.464C490.581 530.585 491.006 530.683 491.348 530.76C491.637 530.832 491.784 530.876 491.78 530.892Z" fill="#EC8305"/>
<path d="M362.408 516.493C362.461 517.087 358.649 518.042 352.359 518.632C346.079 519.227 337.312 519.338 327.714 518.317C318.115 517.281 309.571 515.315 303.558 513.403C297.537 511.495 294.014 509.755 294.192 509.185C294.59 507.918 309.464 511.876 328.196 513.825C346.909 515.887 362.287 515.171 362.408 516.493Z" fill="black"/>
<path d="M428.789 509.467C428.8 509.528 427.809 509.789 426.017 510.205C425.116 510.393 424.027 510.674 422.774 511.051C421.516 511.403 420.083 511.792 418.534 512.35C415.394 513.326 411.78 514.844 407.813 516.608C403.886 518.468 399.655 520.694 395.345 523.265C386.748 528.456 379.465 533.939 374.322 538.05C371.746 540.102 369.689 541.8 368.276 542.985C366.859 544.165 366.056 544.796 366.013 544.75C365.971 544.704 366.696 543.984 368.044 542.721C369.388 541.453 371.385 539.676 373.918 537.554C378.971 533.306 386.228 527.712 394.88 522.488C399.215 519.901 403.49 517.681 407.466 515.849C411.482 514.112 415.151 512.646 418.34 511.741C419.912 511.219 421.37 510.869 422.648 510.562C423.92 510.23 425.028 509.996 425.945 509.862C427.768 509.55 428.778 509.406 428.789 509.467Z" fill="#EC8305"/>
<path d="M350.061 544.75C350.034 544.853 348.09 544.436 345.086 543.332C342.077 542.245 338.051 540.417 333.721 538.201C329.549 536.016 325.777 534.041 322.704 532.431C319.887 530.961 318.121 530.092 318.173 529.97C318.218 529.863 320.083 530.527 322.984 531.857C325.89 533.176 329.811 535.184 334.129 537.397C338.448 539.606 342.396 541.509 345.32 542.739C348.237 543.984 350.1 544.614 350.061 544.75Z" fill="#EC8305"/>
<path d="M357.721 472.047C357.858 472.069 357.616 475.282 357.351 480.478C357.084 485.674 356.852 492.86 356.971 500.795C357.099 508.733 357.555 515.905 357.983 521.083C358.409 526.263 358.749 529.461 358.614 529.488C358.553 529.5 358.395 528.716 358.162 527.282C357.924 525.85 357.642 523.765 357.347 521.177C356.754 516.002 356.195 508.8 356.066 500.816C355.945 492.834 356.28 485.61 356.712 480.411C356.926 477.812 357.142 475.713 357.335 474.272C357.525 472.829 357.658 472.037 357.721 472.047Z" fill="#EC8305"/>
<path d="M365.603 485.82C365.648 485.893 365.306 486.095 364.865 486.608C364.421 487.112 363.925 487.987 363.759 489.166C363.612 490.321 363.821 491.849 364.847 492.964C365.838 494.105 367.714 494.44 369.373 493.82C371.037 493.211 372.241 491.732 372.248 490.22C372.299 488.705 371.462 487.41 370.597 486.63C369.701 485.845 368.755 485.503 368.09 485.411C367.421 485.309 367.03 485.378 367.016 485.294C367.004 485.259 367.377 485.065 368.118 485.061C368.85 485.05 369.946 485.323 371.007 486.14C372.026 486.952 373.081 488.373 373.08 490.242C373.119 492.133 371.63 493.974 369.686 494.669C367.76 495.408 365.432 494.982 364.23 493.523C363.011 492.107 362.884 490.341 363.127 489.061C363.4 487.75 364.052 486.828 364.615 486.36C365.18 485.882 365.59 485.786 365.603 485.82Z" fill="#EC8305"/>
<path d="M380.683 585.127C380.683 585.127 461.172 597.361 464.428 598.087C469.319 599.177 470.59 616.467 463.254 617.073C459.783 617.361 403.666 626.338 396.488 626.746C389.31 627.153 366.803 621.257 366.803 621.257L380.683 585.127Z" fill="#EC8305"/>
<path d="M416.697 610.967C417.095 610.974 417.127 606.79 419.13 602.191C421.064 597.563 424.06 594.643 423.779 594.361C423.606 594.076 420 596.735 417.921 601.677C415.794 606.595 416.373 611.04 416.697 610.967Z" fill="black"/>
<path d="M408.134 608.257C408.524 608.277 408.871 604.5 410.459 600.182C412.004 595.847 414.154 592.723 413.842 592.489C413.596 592.26 410.859 595.171 409.224 599.735C407.559 604.286 407.799 608.277 408.134 608.257Z" fill="black"/>
<path d="M400.271 607.128C400.66 607.058 399.896 603.202 401.108 598.68C402.243 594.137 404.786 591.138 404.479 590.886C404.287 590.609 401.083 593.435 399.836 598.35C398.539 603.25 399.968 607.278 400.271 607.128Z" fill="black"/>
<path d="M400.449 596.9C400.593 596.918 401.022 594.661 400.591 591.004C400.368 589.184 399.897 587.029 399.04 584.746C398.614 583.605 398.083 582.436 397.448 581.269C397.122 580.681 396.749 580.004 395.971 579.509C395.166 578.945 393.861 579.237 393.311 579.962C392.671 580.67 392.551 581.574 392.537 582.288C392.544 583.013 392.585 583.685 392.682 584.358C392.862 585.697 393.189 586.962 393.62 588.114C394.481 590.424 395.648 592.308 396.731 593.783C398.926 596.727 400.692 598.153 400.793 598.053C400.956 597.908 399.433 596.249 397.497 593.257C396.541 591.76 395.508 589.903 394.761 587.71C394.386 586.615 394.108 585.433 393.958 584.195C393.85 582.994 393.653 581.499 394.284 580.841C394.618 580.49 394.951 580.428 395.303 580.631C395.678 580.852 396.031 581.351 396.32 581.889C396.942 582.995 397.473 584.103 397.912 585.185C398.793 587.35 399.339 589.399 399.672 591.145C400.323 594.647 400.232 596.895 400.449 596.9Z" fill="black"/>
<path d="M400.256 596.12C400.275 595.973 398.318 595.551 395.134 595.911C393.552 596.098 391.672 596.492 389.689 597.251C388.713 597.644 387.659 598.035 386.645 598.805C385.643 599.474 384.704 601.089 385.311 602.576C385.819 603.985 387.181 604.851 388.451 605.021C389.732 605.219 390.918 604.951 391.945 604.593C394.023 603.846 395.559 602.595 396.708 601.498C398.97 599.241 400.01 597.596 399.903 597.498C399.746 597.348 398.423 598.806 396.089 600.806C394.909 601.774 393.417 602.847 391.558 603.446C390.632 603.741 389.619 603.92 388.664 603.751C387.716 603.609 386.871 603.001 386.545 602.127C386.218 601.282 386.649 600.422 387.442 599.814C388.214 599.196 389.212 598.775 390.136 598.373C391.997 597.591 393.77 597.123 395.277 596.829C398.3 596.249 400.249 596.332 400.256 596.12Z" fill="black"/>
<path d="M428.768 610.369C429.148 610.279 428.367 606.994 429.463 603.158C430.48 599.299 432.828 596.875 432.547 596.603C432.381 596.301 429.343 598.538 428.196 602.811C427.001 607.07 428.469 610.544 428.768 610.369Z" fill="black"/>
<path d="M374.838 620.472C374.814 620.559 375.945 620.931 378.021 621.53C380.113 622.045 383.17 622.754 387.013 623.179C394.688 624.164 405.438 623.958 417.093 622.436C428.753 620.911 439.21 619.119 446.802 617.9C450.391 617.276 453.398 616.753 455.773 616.34C457.887 615.943 459.049 615.681 459.035 615.592C459.022 615.503 457.834 615.594 455.696 615.835C453.306 616.139 450.277 616.524 446.664 616.982C438.791 618.082 428.409 619.532 416.93 621.135C405.327 622.648 394.724 622.994 387.108 622.257C379.478 621.617 374.899 620.22 374.838 620.472Z" fill="black"/>
<path d="M372.748 622.524C372.874 622.691 374.857 621.19 378.267 619.181C381.641 617.229 386.755 614.761 392.716 614.965C398.696 615.16 403.329 618.607 406.366 621.02C409.438 623.529 411.264 625.22 411.405 625.068C411.511 624.957 409.934 623.046 406.969 620.313C405.475 618.965 403.597 617.421 401.225 616.103C398.876 614.775 395.936 613.757 392.768 613.654C386.373 613.445 381.09 616.206 377.78 618.392C374.423 620.65 372.653 622.408 372.748 622.524Z" fill="black"/>
<path d="M426.789 382.99C426.479 384.976 425.433 438.606 428.637 443.521C433.679 451.251 449.916 465.097 460.008 461.312C476.387 455.171 480.092 420.517 479.805 426.948L466.831 317.441H441.875L439.798 356.714L432.524 361.155C432.046 365.674 431.098 370.16 429.737 374.618L426.789 382.99Z" fill="#FFBE9D"/>
<path d="M441.877 317.442C441.877 317.442 431.908 307.596 431.908 305.408C431.908 303.219 428.017 302.003 428.017 302.003L421.696 298.842C421.696 298.842 417.563 294.952 418.535 292.763C419.507 290.575 421.209 289.845 421.209 289.845C421.209 289.845 421.53 284.495 425.504 283.036C425.504 283.036 421.775 278.903 425.504 275.985C429.232 273.066 430.131 274.282 430.131 274.282C430.131 274.282 429.718 271.121 431.908 270.878C434.096 270.635 449.729 266.745 449.729 266.745C449.729 266.745 454.035 268.933 455.98 270.878C457.925 272.823 458.898 274.039 458.898 274.039C458.898 274.039 461.815 270.392 462.789 266.745C463.761 263.097 465.22 252.155 476.162 252.643V255.317C476.162 255.317 473.243 259.207 471.786 266.016C470.326 272.825 467.652 287.879 467.652 287.879L466.834 317.441L441.877 317.442Z" fill="#FFBE9D"/>
<path d="M432.264 426.675C432.24 426.679 432.167 426.301 432.049 425.575C431.944 424.847 431.73 423.78 431.624 422.386C431.32 419.609 431.126 415.55 431.454 410.558C431.766 405.566 432.57 399.658 433.793 393.173C434.977 386.681 436.584 379.605 437.78 372.109C440.105 357.083 440.407 343.273 440.789 333.317C440.964 328.386 441.107 324.372 441.208 321.514C441.275 320.171 441.329 319.103 441.369 318.305C441.413 317.572 441.449 317.188 441.473 317.188C441.497 317.189 441.51 317.574 441.511 318.309C441.504 319.107 441.495 320.176 441.483 321.52C441.435 324.38 441.369 328.397 441.287 333.331C441.032 343.29 440.809 357.128 438.476 372.218C437.275 379.753 435.647 386.819 434.431 393.293C433.174 399.758 432.324 405.63 431.95 410.59C431.559 415.552 431.675 419.588 431.894 422.36C431.958 423.752 432.127 424.821 432.186 425.553C432.262 426.286 432.289 426.671 432.264 426.675Z" fill="#EB996E"/>
<path d="M449.679 272.687C449.667 272.783 448.593 272.753 446.861 272.982C445.121 273.202 442.705 273.463 440.036 273.705C434.696 274.191 430.354 274.425 430.336 274.231C430.318 274.037 434.632 273.486 439.972 273C442.642 272.759 445.06 272.575 446.819 272.483C448.59 272.38 449.695 272.589 449.679 272.687Z" fill="#EB996E"/>
<path d="M445.087 284.366C445.069 284.47 443.998 284.36 442.269 284.265C440.54 284.162 438.148 284.118 435.491 284.058C432.835 283.998 430.416 283.83 428.685 283.549C426.952 283.276 425.915 282.945 425.934 282.859C425.956 282.753 427.021 282.908 428.744 283.052C430.468 283.204 432.855 283.291 435.509 283.351C438.161 283.41 440.578 283.534 442.314 283.767C444.052 283.993 445.103 284.279 445.087 284.366Z" fill="#EB996E"/>
<path d="M441.493 293.796C441.475 293.892 440.379 293.755 438.618 293.457C436.857 293.158 434.434 292.698 431.767 292.147C429.099 291.596 426.69 291.057 424.957 290.633C423.222 290.21 422.162 289.9 422.184 289.805C422.206 289.71 423.305 289.847 425.066 290.146C426.826 290.445 429.246 290.905 431.911 291.454C434.574 292.006 436.978 292.542 438.713 292.965C440.446 293.39 441.512 293.701 441.493 293.796Z" fill="#EB996E"/>
</svg>
