<svg width="679" height="679" viewBox="0 0 679 679" fill="none" xmlns="http://www.w3.org/2000/svg">
<path d="M451.322 203.221L463.3 182.112C458.001 173.512 454.938 163.385 454.938 152.542C454.938 121.359 480.217 96.0801 511.401 96.0801C542.584 96.0801 567.863 121.359 567.863 152.542C567.863 183.725 542.584 209.005 511.401 209.005C498.381 209.005 486.398 204.585 476.847 197.181L476.866 197.206L451.322 203.221Z" fill="#FAFAFA"/>
<path d="M451.322 203.221C452.547 202.924 460.599 200.971 476.825 197.036L476.726 197.314L476.707 197.29L475.889 196.228L476.954 197.043C480.171 199.502 484.017 201.922 488.527 203.933C493.043 205.909 498.21 207.519 503.907 208.255C506.75 208.606 509.72 208.832 512.772 208.671C514.296 208.579 515.848 208.538 517.411 208.403C518.964 208.164 520.54 207.921 522.135 207.674C528.463 206.406 534.929 203.986 540.954 200.23C546.977 196.486 552.548 191.411 557.012 185.183C561.467 178.967 564.843 171.604 566.419 163.606C567.98 155.62 567.841 147.06 565.742 138.783C563.627 130.534 559.684 122.474 553.779 115.843L551.501 113.336C550.753 112.493 549.859 111.798 549.047 111.024C548.197 110.292 547.432 109.463 546.518 108.817L543.841 106.815C542.975 106.113 542.02 105.548 541.069 104.981C540.123 104.407 539.181 103.833 538.241 103.261C537.251 102.781 536.263 102.3 535.279 101.822C534.285 101.363 533.331 100.821 532.288 100.491C524.186 97.2709 515.545 96.0384 507.278 96.6289C499.01 97.2153 491.097 99.5758 484.302 103.387C477.486 107.168 471.729 112.22 467.281 117.869C462.819 123.52 459.666 129.759 457.705 135.976C455.757 142.223 455.214 148.423 455.213 154.172C455.356 159.933 456.383 165.248 457.888 169.918C459.397 174.595 461.387 178.625 463.445 182.023L463.498 182.11L463.449 182.195C455.705 195.621 451.925 202.178 451.322 203.221C451.91 202.169 455.598 195.56 463.152 182.028L463.155 182.201C461.062 178.796 459.034 174.751 457.489 170.047C455.948 165.349 454.891 159.996 454.723 154.185C454.701 148.389 455.228 142.128 457.177 135.813C459.138 129.528 462.308 123.218 466.805 117.495C471.288 111.775 477.098 106.655 483.987 102.82C490.854 98.9541 498.86 96.5529 507.227 95.9515C515.591 95.3448 524.342 96.5841 532.548 99.8419C533.602 100.176 534.57 100.724 535.577 101.188C536.575 101.673 537.574 102.159 538.577 102.645C539.53 103.223 540.486 103.804 541.443 104.385C542.404 104.961 543.372 105.532 544.25 106.242L546.961 108.269C547.885 108.923 548.661 109.762 549.522 110.502C550.343 111.285 551.249 111.989 552.006 112.842L554.314 115.38C560.29 122.095 564.284 130.257 566.422 138.612C568.545 146.995 568.676 155.658 567.088 163.74C565.485 171.833 562.058 179.281 557.542 185.562C553.017 191.853 547.372 196.975 541.277 200.747C535.178 204.531 528.638 206.96 522.242 208.222C520.63 208.466 519.039 208.707 517.47 208.943C515.89 209.075 514.323 209.113 512.785 209.199C509.707 209.35 506.71 209.113 503.841 208.746C498.097 207.982 492.894 206.337 488.354 204.322C483.817 202.274 479.959 199.814 476.738 197.319L476.985 197.072L477.004 197.097L477.17 197.315L476.905 197.376C460.627 201.097 452.551 202.942 451.322 203.221Z" fill="black"/>
<path d="M486.916 150.812C486.916 144.595 491.758 139.992 498.364 139.992C504.94 139.992 509.811 144.565 509.811 150.812C509.811 157.059 504.94 161.632 498.364 161.632C491.758 161.632 486.916 157.029 486.916 150.812ZM504.908 150.812C504.908 146.838 502.099 144.117 498.363 144.117C494.626 144.117 491.818 146.838 491.818 150.812C491.818 154.788 494.626 157.507 498.363 157.507C502.099 157.507 504.908 154.788 504.908 150.812Z" fill="black"/>
<path d="M521.085 153.052L518.275 155.981V161.271H513.463V140.35H518.275V150.123L527.54 140.35H532.92L524.253 149.675L533.429 161.271H527.779L521.085 153.052Z" fill="black"/>
</svg>
