<svg width="680" height="596" viewBox="0 0 680 596" fill="none" xmlns="http://www.w3.org/2000/svg">
<g clip-path="url(#clip0_71_374)">
<path d="M175.568 154.754C197.211 133.399 197.333 100.586 191.474 72.1131C190.488 67.3626 190.154 62.2327 187.164 58.4535C184.174 54.6743 178.376 52.6861 174.445 55.418C171.182 57.6946 170.332 62.0961 168.936 65.8449C167.058 70.8517 163.807 75.2281 159.556 78.4725C156.779 80.5669 153.182 82.1757 149.888 81.0374C145.335 79.5197 143.908 73.8585 143.134 69.0928L138.763 42.4869C138.227 37.6818 136.926 32.9933 134.908 28.5996C132.662 24.3499 128.67 20.7074 123.935 20.2217C119.199 19.736 114.054 23.2572 113.887 28.0987C114.045 30.0997 114.339 32.0875 114.768 34.0483C114.965 36.0517 114.419 38.389 112.643 39.2541C110.867 40.1192 108.712 39.1175 107.042 37.964C101.32 34.0027 96.9342 28.3871 92.7756 22.7867C88.617 17.1862 84.5039 11.3885 79.116 6.91113C73.728 2.43381 66.9741 -0.677555 60.0228 0.126845C53.0716 0.931246 46.6212 6.33439 46.0445 13.316C45.4677 20.2976 50.5977 26.4444 55.7125 31.1494C63.4197 38.1076 72.089 43.9195 81.4533 48.4061C83.2291 49.0246 84.7606 50.1945 85.8244 51.7451C87.3421 54.7806 84.9441 58.408 81.9845 59.9712C78.6455 61.7622 74.7449 62.0505 71.1023 63.1281C67.4598 64.2057 63.7413 66.5127 62.9369 70.2615C61.8138 75.4521 66.7464 79.8536 71.3148 82.4945C80.4678 87.8143 90.4695 91.5161 100.88 93.4373C104.599 94.1203 108.469 94.606 111.702 96.5791C114.935 98.5521 117.378 102.544 116.255 106.186C115.132 109.829 110.928 111.65 107.149 111.589C103.369 111.529 99.742 110.072 96.0388 109.389C89.0723 108.038 80.7248 109.935 77.492 116.294C76.5484 118.457 76.1189 120.81 76.2374 123.167C76.3559 125.523 77.0191 127.821 78.175 129.878C80.4959 133.962 83.6132 137.539 87.3421 140.396C99.8259 151.061 114.914 158.225 131.068 161.159C147.111 163.815 161.423 162.843 175.523 154.754" fill="#DF7C04"/>
<path d="M51.842 5.59082C52.005 5.73602 52.1831 5.86324 52.3732 5.97025L53.9972 6.98713C55.4391 7.86742 57.5487 9.18785 60.2199 10.9484C67.7993 15.8974 74.9936 21.4124 81.7415 27.4462C86.0215 31.2406 90.5595 35.5965 95.4011 40.3773C100.243 45.1582 105.236 50.2882 110.366 55.8886C115.75 61.7185 120.816 67.8337 125.543 74.2077C127.987 77.5315 130.279 81.0527 132.601 84.6497L139.658 95.5774C148.697 109.415 156.952 123.75 164.382 138.514C170.415 150.58 175.299 163.187 178.968 176.169C181.419 184.931 183.105 193.889 184.007 202.942C184.295 206.145 184.477 208.649 184.538 210.349C184.538 211.153 184.614 211.791 184.644 212.276C184.628 212.493 184.628 212.712 184.644 212.929C184.667 212.712 184.667 212.493 184.644 212.276C184.644 211.791 184.644 211.153 184.644 210.333C184.644 208.634 184.507 206.129 184.28 202.912C183.504 193.816 181.904 184.809 179.499 176.002C175.901 162.951 171.057 150.275 165.035 138.15C157.616 123.359 149.351 109.008 140.281 95.1677L133.223 84.24C130.886 80.6581 128.579 77.1066 126.105 73.7676C121.385 67.3413 116.303 61.1896 110.882 55.3422C105.737 49.7266 100.637 44.5966 95.8412 39.8613C91.0452 35.126 86.4768 30.7549 82.1816 26.9757C75.3668 20.9692 68.0895 15.5087 60.4173 10.6449C57.7005 8.92984 55.5605 7.60941 54.0883 6.83536L52.434 5.89437C52.2449 5.77788 52.047 5.67638 51.842 5.59082Z" fill="black"/>
<path d="M125.938 73.6916C126.047 72.9992 126.083 72.2971 126.044 71.5971C126.044 70.2312 126.044 68.2733 126.044 65.8449C125.908 61.0033 125.498 54.3101 125.012 46.9339C124.527 39.5577 124.193 32.8796 124.132 28.0381C124.132 25.6249 124.132 23.667 124.132 22.3162C124.179 21.6118 124.148 20.9043 124.041 20.2065C123.878 20.8931 123.792 21.5955 123.783 22.301C123.661 23.6518 123.586 25.6097 123.54 28.0381C123.449 32.8948 123.661 39.6032 124.162 46.9946C124.663 54.386 125.103 60.8364 125.452 65.8753C125.604 68.1519 125.71 70.0642 125.817 71.5971C125.763 72.2976 125.804 73.002 125.938 73.6916Z" fill="black"/>
<path d="M62.8457 72.7202C63.6774 72.7575 64.5107 72.7169 65.3348 72.5988C66.8525 72.4622 69.2354 72.2649 72.0887 72.1131C77.7954 71.7641 85.7484 71.5516 94.3995 71.7033C103.051 71.8551 111.003 72.3408 116.71 72.8568C119.548 73.0997 121.855 73.3577 123.449 73.5246C124.272 73.6587 125.105 73.7146 125.938 73.6916C125.141 73.4453 124.323 73.2726 123.494 73.1755C121.977 72.9024 119.609 72.5533 116.771 72.2346C111.064 71.5516 103.111 70.9597 94.4146 70.8079C86.951 70.6476 79.484 70.8705 72.0432 71.4757C69.1898 71.7185 66.8829 72.0069 65.3044 72.2497C64.472 72.3293 63.6488 72.4869 62.8457 72.7202Z" fill="black"/>
<path d="M164.17 137.072C164.302 136.813 164.399 136.537 164.458 136.253C164.64 135.615 164.853 134.826 165.126 133.87C165.703 131.791 166.447 128.755 167.312 125.006C169.072 117.493 171.167 107.051 173.383 95.5014C175.598 83.9515 177.526 73.4791 179.12 65.9511C179.909 62.2933 180.561 59.273 181.032 57.042C181.244 56.0706 181.411 55.2662 181.548 54.5984C181.627 54.3223 181.663 54.0356 181.654 53.7485C181.531 54.0114 181.435 54.286 181.366 54.5681C181.184 55.2055 180.971 55.9947 180.698 56.9509C180.137 59.0302 179.393 62.0505 178.513 65.8145C176.752 73.3121 174.658 83.7693 172.442 95.3193C170.226 106.869 168.298 117.266 166.705 124.854C165.915 128.512 165.278 131.533 164.792 133.764L164.291 136.192C164.212 136.479 164.172 136.775 164.17 137.072Z" fill="black"/>
<path d="M78.4634 124.854C78.7436 124.952 79.0337 125.018 79.3285 125.052L81.8176 125.431L90.924 126.767C98.6796 127.89 109.365 129.575 121.173 131.441C132.98 133.308 143.696 134.902 151.527 135.858C155.413 136.344 158.554 136.708 160.74 136.905L163.229 136.996C163.521 137.039 163.817 137.039 164.109 136.996C163.829 136.899 163.539 136.833 163.244 136.799L160.755 136.42L151.649 135.084C143.893 133.961 133.208 132.276 121.4 130.409C109.592 128.543 98.8769 126.949 91.0454 125.978C87.1448 125.507 84.0031 125.143 81.8176 124.93L79.3437 124.854C79.0518 124.812 78.7552 124.812 78.4634 124.854Z" fill="black"/>
<path d="M653.321 73.8435C653.321 73.8435 637.825 66.2548 624.742 102.68C611.66 139.106 607.562 159.626 607.562 159.626C607.562 159.626 603.874 167.366 598.349 163.314C592.824 159.262 584.416 146.831 576.357 150.277C567.994 153.858 566.37 163.936 569.831 177.915C573.291 191.893 579.742 222.9 580.318 225.708C580.895 228.516 579.802 232.75 575.598 230.595C571.394 228.44 546.048 206.509 536.365 219.167C526.681 231.825 542.724 269.252 544.409 273.395C546.093 277.539 545.471 279.466 543.574 280.772C541.677 282.077 533.86 273.911 526.393 267.977C518.926 262.043 509.212 256.458 504.249 264.228C499.286 271.999 501.092 301.398 534.862 345.245L551.77 364.46L577.161 359.8C630.874 346.505 650.605 324.634 651.531 315.452C652.456 306.27 641.407 304.6 631.876 304.6C622.344 304.6 611.113 306.118 610.445 303.917C609.778 301.716 610.521 299.819 614.392 297.634C618.262 295.448 654.156 276.127 654.46 260.191C654.763 244.255 621.267 245.636 616.638 244.71C612.009 243.784 613.83 239.762 615.985 237.956C618.14 236.15 642.515 215.888 653.929 207.07C665.342 198.252 670.335 189.389 666.07 181.39C661.912 173.665 647.584 178.142 640.755 177.884C633.925 177.626 635.837 169.263 635.837 169.263C635.837 169.263 645.429 150.641 657.844 114.003C670.259 77.3646 652.942 73.7069 652.942 73.7069" fill="#DF7C04"/>
<path d="M641.544 106.414C641.544 106.414 641.544 106.687 641.316 107.188C641.089 107.689 640.906 108.493 640.588 109.465C639.935 111.468 638.964 114.397 637.719 118.146C635.23 125.735 631.527 136.556 626.913 150.019C617.685 176.883 604.617 213.885 590.077 254.742C575.537 295.6 562.394 332.466 553.014 359.284C548.355 372.671 544.576 383.568 541.965 391.05L538.93 399.686C538.581 400.643 538.323 401.386 538.125 401.917C537.928 402.449 537.837 402.676 537.837 402.676C537.837 402.676 537.837 402.403 538.049 401.902C538.262 401.401 538.474 400.597 538.778 399.626C539.446 397.607 540.417 394.693 541.646 390.944C544.151 383.356 547.839 372.534 552.468 359.072C561.696 332.208 574.748 295.205 589.303 254.348C603.858 213.49 617.002 176.564 626.367 149.745C631.026 136.359 634.79 125.462 637.416 117.979C638.721 114.261 639.723 111.347 640.451 109.343C640.8 108.387 641.073 107.643 641.256 107.112C641.438 106.581 641.544 106.414 641.544 106.414Z" fill="black"/>
<path d="M587.437 168.064C587.797 168.57 588.088 169.121 588.302 169.704C588.818 170.781 589.516 172.375 590.351 174.257C592.02 178.188 594.19 183.667 596.422 189.768L602.219 205.401C602.917 207.268 603.525 208.846 603.995 210.121C604.254 210.685 604.453 211.275 604.587 211.882C604.236 211.368 603.941 210.819 603.707 210.242C603.206 209.165 602.508 207.571 601.688 205.598C600.049 201.652 597.954 196.143 595.617 190.041C593.28 183.94 591.292 178.613 589.713 174.469L587.907 169.749C587.699 169.203 587.542 168.639 587.437 168.064Z" fill="black"/>
<path d="M607.045 212.109C606.954 211.912 618.064 206.934 631.86 200.999C645.657 195.065 656.903 190.375 656.994 190.633C657.085 190.891 645.975 195.809 632.179 201.743C618.383 207.677 607.137 212.307 607.045 212.109Z" fill="black"/>
<path d="M581.866 273.79C582.476 273.622 583.102 273.516 583.733 273.471L588.863 272.834C593.173 272.303 599.138 271.529 605.68 270.436C612.221 269.343 618.125 268.19 622.375 267.294L627.429 266.247C628.04 266.086 628.665 265.985 629.296 265.943C628.726 266.22 628.125 266.424 627.505 266.55C626.321 266.884 624.621 267.34 622.496 267.841C618.262 268.873 612.373 270.147 605.801 271.225C599.229 272.303 593.249 273.001 588.893 273.395C586.723 273.593 584.962 273.729 583.748 273.775C583.124 273.851 582.492 273.856 581.866 273.79Z" fill="black"/>
<path d="M555.367 237.85C555.806 238.242 556.203 238.68 556.551 239.155L559.586 242.874C562.075 246.046 564.488 251.707 569.178 255.334C572.881 260.237 576.205 264.699 578.573 267.947L581.35 271.832C581.723 272.296 582.034 272.806 582.276 273.35C581.84 272.959 581.448 272.521 581.108 272.045C580.288 271.028 579.301 269.783 578.072 268.326C575.583 265.154 572.198 260.738 568.495 255.85C564.792 250.963 561.453 246.501 559.085 243.253L556.323 239.337C555.946 238.881 555.625 238.382 555.367 237.85Z" fill="black"/>
<path d="M526.226 289.484C526.777 290.003 527.284 290.566 527.744 291.168L531.584 295.919C534.786 299.956 539.172 305.572 543.999 311.794C548.825 318.017 553.105 323.693 556.217 327.822L559.859 332.739C560.328 333.324 560.744 333.948 561.104 334.606C560.543 334.097 560.034 333.532 559.586 332.921L555.746 328.231C552.528 324.194 548.157 318.579 543.331 312.341C538.505 306.103 534.225 300.457 531.098 296.329L527.486 291.35C527.005 290.771 526.583 290.146 526.226 289.484Z" fill="black"/>
<path d="M560.542 333.285C561.314 333.072 562.1 332.915 562.894 332.815L569.36 331.783C574.809 330.903 582.337 329.658 590.608 328.049C598.88 326.44 606.332 324.816 611.72 323.587L618.11 322.145C618.879 321.926 619.666 321.778 620.462 321.705C619.722 322.006 618.961 322.255 618.186 322.449C616.668 322.874 614.528 323.466 611.857 324.133C606.499 325.499 599.047 327.245 590.76 328.838C582.473 330.432 574.93 331.601 569.512 332.344C566.765 332.709 564.549 332.967 563.001 333.134C562.188 333.263 561.365 333.314 560.542 333.285Z" fill="black"/>
<path d="M660.622 595.353C660.622 595.581 512.916 595.748 330.742 595.748C148.568 595.748 0.831055 595.596 0.831055 595.353C0.831055 595.11 148.522 594.958 330.757 594.958C512.991 594.958 660.622 595.156 660.622 595.353Z" fill="black"/>
<path d="M637.173 566.774C636.156 562.767 638.812 558.745 641.726 555.846C644.64 552.948 648.237 550.367 649.8 546.527C652.32 540.305 649.026 532.2 653.291 527.025C655.811 523.989 660.288 522.987 662.519 519.724C663.55 517.918 664.239 515.937 664.553 513.881C666.97 503.533 672.123 494.025 679.472 486.349C679.915 495.586 677.859 504.772 673.523 512.94C671.792 516.203 669.668 519.375 669.076 523.033C668.119 528.952 671.383 535.084 669.895 540.897C668.195 547.544 660.698 551.961 660.303 558.806C659.969 564.604 664.993 569.719 664.583 575.501C664.264 577.964 663.364 580.315 661.957 582.361C657.404 589.783 650.832 594.883 640.846 594.655L628.628 595.019L637.173 566.774Z" fill="#DF7C04"/>
<g opacity="0.3">
<path d="M637.173 566.774C636.156 562.767 638.812 558.745 641.726 555.846C644.64 552.948 648.237 550.367 649.8 546.527C652.32 540.305 649.026 532.2 653.291 527.025C655.811 523.989 660.288 522.987 662.519 519.724C663.55 517.918 664.239 515.937 664.553 513.881C666.97 503.533 672.123 494.025 679.472 486.349C679.915 495.586 677.859 504.772 673.523 512.94C671.792 516.203 669.668 519.375 669.076 523.033C668.119 528.952 671.383 535.084 669.895 540.897C668.195 547.544 660.698 551.961 660.303 558.806C659.969 564.604 664.993 569.719 664.583 575.501C664.264 577.964 663.364 580.315 661.957 582.361C657.404 589.783 650.832 594.883 640.846 594.655L628.628 595.019L637.173 566.774Z" fill="black"/>
</g>
<path d="M626.139 595.353C625.019 595.514 623.88 595.483 622.77 595.262C621.42 595.052 620.093 594.711 618.808 594.245C617.04 593.617 615.388 592.699 613.921 591.528C613.036 590.811 612.347 589.882 611.918 588.827C611.551 587.642 611.362 586.409 611.356 585.169C611.344 583.85 611.258 582.532 611.098 581.223C610.85 579.822 610.335 578.483 609.581 577.277C608.154 574.742 605.771 572.329 605.027 568.884C604.284 565.438 604.83 561.841 605.407 558.184C605.983 554.526 606.575 550.519 605.194 546.694C603.813 542.87 601.248 539.409 599.928 535.084C598.607 530.758 599.26 526.053 599.017 521.424C598.952 519.081 598.436 516.773 597.499 514.625C596.528 512.454 595.162 510.405 594.115 508.129C591.96 503.575 591.611 498.294 591.079 493.164C590.806 490.599 590.533 487.988 590.245 485.363C590.078 482.714 589.64 480.09 588.939 477.531C588.124 474.949 587.161 472.415 586.056 469.942C585.475 468.665 585.008 467.34 584.659 465.981C584.432 464.539 584.371 463.188 584.28 461.777C584.164 458.953 584.291 456.125 584.659 453.323C585.008 450.5 585.54 447.708 585.858 444.885V444.399L585.934 443.837L586.435 444.08C589.043 445.398 591.309 447.305 593.052 449.65C594.739 451.934 596.089 454.449 597.059 457.118C598.772 462.339 600.016 467.703 600.778 473.145C601.511 478.336 603.183 483.35 605.71 487.943C607.031 490.128 608.64 492.132 610.051 494.257C611.562 496.333 612.598 498.717 613.087 501.238C613.785 506.414 610.901 510.937 611.478 515.52C611.749 517.77 612.494 519.938 613.663 521.879C614.771 523.837 616.061 525.659 617.291 527.48C618.544 529.264 619.631 531.159 620.539 533.141C621.397 535.06 621.91 537.115 622.056 539.212C622.345 543.34 621.738 547.241 622.056 550.929C622.397 554.45 623.428 557.87 625.092 560.991C626.61 564.027 628.127 566.729 629.539 569.385C630.222 570.705 630.859 571.995 631.375 573.285C631.861 574.534 632.212 575.832 632.423 577.155C632.763 579.465 632.763 581.812 632.423 584.122C632.09 587.352 630.866 590.426 628.886 593.001C628.587 593.386 628.252 593.742 627.884 594.063C627.642 594.319 627.372 594.548 627.08 594.746C626.625 595.08 626.382 595.232 626.382 595.232C627.252 594.539 628.05 593.761 628.765 592.91C630.656 590.326 631.815 587.279 632.119 584.091C632.407 581.806 632.372 579.491 632.013 577.216C631.784 575.924 631.428 574.659 630.95 573.437C630.399 572.121 629.781 570.835 629.099 569.582C627.733 566.956 626.063 564.239 624.545 561.204C622.878 558.024 621.847 554.549 621.51 550.974C621.222 547.195 621.798 543.28 621.51 539.258C621.387 537.211 620.904 535.202 620.083 533.323C619.184 531.381 618.107 529.527 616.866 527.783C615.636 525.962 614.331 524.141 613.193 522.137C611.972 520.123 611.191 517.873 610.901 515.535C610.339 510.648 613.193 506.095 612.419 501.284C611.955 498.872 610.966 496.591 609.52 494.606C608.139 492.511 606.484 490.523 605.149 488.277C602.57 483.604 600.858 478.503 600.095 473.221C599.093 467.939 598.395 462.49 596.407 457.33C595.466 454.733 594.158 452.285 592.521 450.06C590.869 447.818 588.724 445.986 586.253 444.702L586.814 444.384C586.814 444.551 586.814 444.718 586.814 444.885C586.496 447.738 585.965 450.546 585.631 453.323C585.224 456.127 585.067 458.961 585.16 461.792C585.236 463.158 585.312 464.585 585.509 465.875C585.862 467.177 586.314 468.451 586.86 469.684C587.981 472.18 588.954 474.739 589.774 477.349C590.494 479.946 590.936 482.612 591.095 485.302C591.368 487.928 591.656 490.538 591.914 493.118C592.476 498.263 592.825 503.393 594.95 507.856C595.966 510.071 597.332 512.12 598.334 514.367C599.288 516.595 599.803 518.986 599.852 521.409C600.095 526.129 599.457 530.728 600.702 534.917C601.946 539.106 604.602 542.505 605.923 546.512C607.243 550.519 606.727 554.632 606.12 558.275C605.513 561.917 604.891 565.53 605.665 568.793C606.439 572.056 608.7 574.469 610.112 577.079C610.878 578.329 611.393 579.716 611.629 581.162C611.777 582.493 611.853 583.83 611.857 585.169C611.853 586.371 612.022 587.567 612.358 588.721C612.761 589.724 613.408 590.61 614.24 591.301C615.667 592.468 617.277 593.391 619.006 594.033C620.274 594.518 621.585 594.884 622.921 595.125C623.738 595.273 624.566 595.354 625.395 595.368L626.139 595.353Z" fill="black"/>
<path d="M588.408 451.168C588.45 451.292 588.486 451.419 588.514 451.547L588.787 452.64C589.015 453.612 589.288 455.053 589.743 456.875C590.199 458.696 591.261 460.745 592.248 463.28C593.346 466.123 594.298 469.021 595.101 471.961C596.012 475.224 596.816 478.852 597.666 482.722C598.38 486.869 599.672 490.894 601.506 494.682C602.492 496.67 603.616 498.688 604.541 500.889C605.413 503.148 605.989 505.51 606.256 507.916C606.85 512.89 607.701 517.829 608.806 522.714L615.515 550.959C617.64 559.626 619.567 567.442 621.176 574.029C622.785 580.616 624.029 585.852 624.925 589.586C625.334 591.377 625.668 592.803 625.911 593.835L626.139 594.943C626.153 595.069 626.153 595.197 626.139 595.323C626.076 595.208 626.03 595.086 626.002 594.958L625.684 593.866C625.41 592.849 625.046 591.437 624.56 589.662C623.604 585.943 622.253 580.661 620.569 574.165C618.884 567.67 616.941 559.792 614.756 551.141C612.57 542.49 610.354 532.929 607.941 522.851C606.821 517.948 605.97 512.988 605.391 507.992C605.124 505.651 604.569 503.352 603.737 501.147C602.887 498.992 601.779 496.989 600.793 494.985C598.958 491.136 597.671 487.049 596.968 482.843C596.148 478.943 595.374 475.33 594.509 472.082C593.644 468.834 592.703 465.92 591.777 463.401C590.851 460.882 589.835 458.848 589.394 456.92C588.954 454.993 588.757 453.627 588.56 452.64L588.378 451.532C588.373 451.41 588.383 451.288 588.408 451.168Z" fill="black"/>
<path d="M624.045 595.353C616.076 590.557 613.876 576.139 617.26 567.487C620.645 558.836 626.503 550.959 627.459 541.686C628.188 534.598 625.942 527.283 627.596 520.347C629.888 510.997 639.07 503.788 639.025 494.15C639.025 488.747 635.989 483.648 636.217 478.244C636.566 471.627 641.681 466.406 644.853 460.578C649.725 451.684 650.104 441.121 651.804 431.119C653.504 421.117 657.389 410.417 666.298 405.545C667.558 414.059 669.759 419.887 668.985 431.346C668.712 435.475 663.87 443.367 663.157 452.428C662.732 457.846 662.443 463.264 662.079 468.683C661.715 474.101 661.351 479.307 659.438 484.255C657.92 488.034 655.613 491.449 654.521 495.349C652.441 502.68 655.067 510.663 653.382 518.115C651.971 524.414 647.569 529.802 646.644 536.207C645.338 545.177 651.106 554.541 648.07 563.101C646.553 567.336 643.062 570.69 641.999 575.122C641.21 578.521 641.999 582.134 641.301 585.549C640.148 591.058 629.615 595.292 623.999 594.913" fill="#DF7C04"/>
<path d="M664.083 413.999C664.1 414.16 664.1 414.323 664.083 414.484L663.901 415.881C663.703 417.11 663.491 418.916 663.066 421.238C662.641 423.56 661.381 426.216 660.395 429.388C659.408 432.561 658.331 436.203 657.359 440.301C656.388 444.399 655.644 448.922 654.809 453.794C654.131 459.022 652.726 464.131 650.636 468.971C649.497 471.506 648.222 474.055 647.266 476.772C646.334 479.563 645.753 482.459 645.536 485.393C645.062 491.625 644.246 497.827 643.092 503.97C640.573 516.552 638.175 528.527 636.005 539.44C633.834 550.352 631.634 560.096 629.934 568.277C628.234 576.457 626.746 583.09 625.76 587.734C625.264 590.001 624.869 591.761 624.576 593.016C624.439 593.592 624.333 594.048 624.257 594.397C624.221 594.551 624.175 594.703 624.121 594.852C624.1 594.696 624.1 594.538 624.121 594.382C624.197 594.017 624.272 593.562 624.379 592.985L625.411 587.673L629.342 568.155C631.042 559.914 633.045 550.109 635.291 539.227C637.538 528.345 639.844 516.34 642.318 503.773C643.458 497.648 644.273 491.467 644.762 485.256C644.998 482.26 645.599 479.304 646.553 476.454C647.539 473.691 648.829 471.126 649.968 468.607C652.056 463.801 653.471 458.729 654.172 453.536C655.022 448.679 655.841 444.141 656.813 440.043C657.667 436.351 658.705 432.704 659.924 429.115C660.956 425.928 662.216 423.318 662.717 421.026C663.218 418.734 663.445 416.928 663.688 415.714C663.794 415.137 663.885 414.682 663.961 414.333C664.037 413.983 664.083 413.999 664.083 413.999Z" fill="black"/>
</g>
<defs>
<clipPath id="clip0_71_374">
<rect width="680" height="596" fill="white"/>
</clipPath>
</defs>
</svg>
