<svg width="388" height="486" viewBox="0 0 388 486" fill="none" xmlns="http://www.w3.org/2000/svg">
<g clip-path="url(#clip0_71_196)">
<path d="M387.183 0.333862H0.479004V485.464H387.183V0.333862Z" fill="#DBD3D3"/>
<path d="M0.539711 0.333892L387.244 0H387.563V0.333892C387.563 138.903 387.563 305.824 387.563 485.403V485.843H387.168H0.463819H0.114746V485.494C0.327229 197.215 0.463819 3.47562 0.463819 0.379434C0.463819 3.41491 0.615601 197.215 0.828084 485.494L0.463819 485.145H387.168L386.773 485.539C386.773 305.961 386.773 139.04 386.773 0.470495L387.107 0.789218L0.539711 0.333892Z" fill="#263238"/>
<path d="M149.46 38.7935H153.346V56.4144H164.273V59.6927H149.46V38.7935Z" fill="black"/>
<path d="M165.518 51.7245C165.454 50.0308 165.898 48.3567 166.794 46.9173C167.689 45.478 168.994 44.3391 170.541 43.6471C172.088 42.9551 173.807 42.7415 175.477 43.0338C177.146 43.3261 178.69 44.1109 179.911 45.2874C181.131 46.4639 181.971 47.9784 182.324 49.6362C182.677 51.2941 182.526 53.0195 181.891 54.591C181.256 56.1625 180.165 57.5081 178.759 58.455C177.354 59.402 175.697 59.907 174.002 59.9051C172.897 59.9681 171.791 59.802 170.753 59.4172C169.716 59.0324 168.769 58.4372 167.972 57.669C167.175 56.9008 166.546 55.9762 166.124 54.9533C165.701 53.9303 165.495 52.831 165.518 51.7245ZM178.752 51.7245C178.702 50.8013 178.382 49.913 177.833 49.1693C177.284 48.4255 176.529 47.8589 175.661 47.5392C174.793 47.2196 173.851 47.1609 172.951 47.3705C172.05 47.5801 171.231 48.0488 170.593 48.7187C169.956 49.3886 169.529 50.2304 169.364 51.1403C169.2 52.0502 169.305 52.9883 169.668 53.8389C170.03 54.6895 170.634 55.4154 171.404 55.927C172.174 56.4386 173.077 56.7136 174.002 56.7179C174.652 56.737 175.298 56.619 175.9 56.3715C176.501 56.124 177.043 55.7526 177.492 55.2815C177.94 54.8104 178.284 54.2502 178.501 53.6373C178.718 53.0245 178.804 52.3727 178.752 51.7245Z" fill="black"/>
<path d="M201.913 43.7565V57.2189C201.913 63.0014 198.878 65.6422 193.308 65.6422C190.543 65.748 187.82 64.9487 185.552 63.3657L187.221 60.5579C188.92 61.8267 190.99 62.499 193.11 62.4702C196.631 62.4702 198.179 60.8614 198.179 57.6286V56.7939C197.49 57.5055 196.657 58.0628 195.736 58.429C194.815 58.7953 193.827 58.9622 192.837 58.9187C191.797 58.9649 190.758 58.7999 189.783 58.4336C188.808 58.0674 187.918 57.5075 187.165 56.7877C186.413 56.0679 185.814 55.2031 185.405 54.2456C184.996 53.288 184.785 52.2575 184.785 51.2162C184.785 50.1749 184.996 49.1444 185.405 48.1868C185.814 47.2293 186.413 46.3645 187.165 45.6447C187.918 44.9249 188.808 44.365 189.783 43.9988C190.758 43.6325 191.797 43.4675 192.837 43.5137C193.872 43.4579 194.906 43.6364 195.863 44.0358C196.819 44.4352 197.674 45.0453 198.362 45.8206V43.6958L201.913 43.7565ZM198.24 51.2541C198.301 50.2823 198.068 49.3146 197.572 48.4766C197.076 47.6387 196.34 46.9692 195.459 46.555C194.577 46.1409 193.592 46.0012 192.63 46.1541C191.668 46.307 190.775 46.7455 190.066 47.4126C189.356 48.0797 188.864 48.9446 188.652 49.8951C188.441 50.8456 188.52 51.8377 188.879 52.7428C189.238 53.6478 189.861 54.4239 190.667 54.9704C191.473 55.5169 192.425 55.8085 193.399 55.8074C194.02 55.8468 194.644 55.7583 195.23 55.5472C195.816 55.3361 196.352 55.007 196.806 54.5802C197.26 54.1534 197.622 53.638 197.868 53.0659C198.115 52.4938 198.241 51.8771 198.24 51.2541Z" fill="black"/>
<path d="M206.299 38.8845C206.305 38.5802 206.372 38.2802 206.495 38.0021C206.619 37.7241 206.797 37.4737 207.02 37.2657C207.242 37.0577 207.503 36.8963 207.789 36.7912C208.074 36.686 208.378 36.6392 208.682 36.6534C208.981 36.6307 209.282 36.6687 209.566 36.7649C209.85 36.8611 210.112 37.0137 210.336 37.2135C210.56 37.4133 210.741 37.6562 210.869 37.9276C210.997 38.1991 211.069 38.4936 211.08 38.7934C211.045 39.3964 210.784 39.9638 210.348 40.3824C209.913 40.801 209.336 41.04 208.732 41.0515C208.128 41.063 207.542 40.8462 207.091 40.4445C206.64 40.0427 206.357 39.4856 206.299 38.8845ZM206.8 43.7564H210.534V59.6927H206.8V43.7564Z" fill="black"/>
<path d="M231.129 50.5559V59.6623H227.396V51.0112C227.396 48.1731 226 46.8071 223.617 46.8071C220.961 46.8071 219.155 48.4159 219.155 51.6031V59.6623H215.436V43.7564H218.988V45.8205C219.676 45.0568 220.527 44.4571 221.478 44.0657C222.429 43.6744 223.455 43.5012 224.482 43.5591C228.291 43.5591 231.129 45.7598 231.129 50.5559Z" fill="black"/>
<path d="M258.221 28.0327C258.716 28.9556 259.021 29.9685 259.117 31.0112C259.213 32.054 259.1 33.1055 258.783 34.1036C258.123 36.122 257.007 37.9608 255.52 39.4764C252.478 42.4144 248.721 44.5071 244.622 45.5473C243.621 41.1459 246.049 36.4409 247.43 34.225C249.6 30.628 255.732 25.4525 258.206 28.0327" fill="#EC8305"/>
<path d="M243.894 53.2575C244.391 52.1778 245.169 51.2509 246.146 50.573C247.123 49.8951 248.263 49.491 249.449 49.4025C250.621 49.3277 251.797 49.4849 252.91 49.8651C254.022 50.2454 255.048 50.8411 255.929 51.6183C256.363 51.9384 256.723 52.348 256.985 52.8194C257.247 53.2907 257.404 53.8128 257.447 54.3503C257.399 54.8562 257.22 55.341 256.927 55.7563C256.634 56.1716 256.238 56.5031 255.778 56.7179C254.82 57.1221 253.775 57.2736 252.742 57.1581C249.266 56.9001 245.958 56.035 243.863 53.2575" fill="#EC8305"/>
<path d="M235.136 58.4177C235.708 57.7261 236.354 57.1 237.064 56.5508C237.812 55.9199 238.632 55.3799 239.508 54.942C240.559 54.362 241.649 53.8549 242.771 53.4243C244.827 52.649 247.043 52.3935 249.221 52.6806C249.875 52.776 250.517 52.944 251.133 53.1815C251.368 53.2547 251.589 53.3676 251.786 53.5154C251.786 53.5154 250.8 53.1815 249.176 52.9993C247.054 52.8169 244.918 53.1072 242.922 53.8493C241.824 54.2652 240.75 54.7415 239.705 55.2759C238.838 55.6921 238.019 56.201 237.261 56.7937C236.591 57.3829 235.881 57.9255 235.136 58.4177Z" fill="#263238"/>
<path d="M253.911 32.3885C253.709 32.8008 253.476 33.1966 253.213 33.5724C252.742 34.3009 252.059 35.3633 251.194 36.6079C249.464 39.2032 247.02 42.7548 244.243 46.625C241.465 50.4953 238.824 53.9253 236.882 56.3689C235.91 57.5983 235.106 58.5696 234.544 59.2374C234.268 59.5949 233.963 59.9298 233.634 60.239C233.854 59.8446 234.113 59.4734 234.408 59.1311L236.624 56.0956C238.506 53.6065 241.086 50.1614 243.863 46.291L250.966 36.4865L253.122 33.451C253.354 33.0748 253.618 32.7193 253.911 32.3885Z" fill="#263238"/>
<path d="M238.825 51.4818C239.619 49.1315 239.844 46.6259 239.48 44.1717C239.116 41.7175 238.173 39.385 236.73 37.3668C235.986 36.3499 234.848 35.3331 233.695 35.6366C232.541 35.9402 231.934 37.382 231.782 38.6721C231.503 41.2927 232.007 43.9374 233.231 46.2715C234.455 48.6056 236.343 50.5244 238.658 51.7853" fill="#EC8305"/>
<path d="M235.789 40.9183C235.789 40.9183 235.956 41.1156 236.199 41.5102C236.442 41.9048 236.745 42.4815 237.109 43.2252C238.054 45.1622 238.635 47.2559 238.824 49.4024C238.903 50.5965 238.79 51.7954 238.491 52.9539C238.234 53.923 237.835 54.8487 237.307 55.701C236.968 56.2402 236.582 56.7481 236.153 57.2188C236.006 57.4047 235.838 57.5728 235.652 57.7196C235.576 57.7196 236.244 56.8849 237.034 55.4734C237.478 54.6482 237.82 53.7714 238.05 52.8629C238.319 51.7458 238.417 50.5943 238.339 49.448C238.128 47.3518 237.585 45.3026 236.73 43.377C236.375 42.5736 236.061 41.753 235.789 40.9183Z" fill="#263238"/>
<path d="M40.3954 108.822V109.93H31.7595V97.712H40.1374V98.8351H33.0496V103.176H39.3634V104.269H33.0496V108.822H40.3954Z" fill="#263238"/>
<path d="M58.3199 104.572V109.899H57.0905V104.694C57.0905 102.766 56.104 101.764 54.4497 101.764C54.0256 101.762 53.6058 101.849 53.2174 102.02C52.8289 102.19 52.4805 102.44 52.1945 102.753C51.9085 103.066 51.6913 103.436 51.5569 103.838C51.4225 104.24 51.3739 104.666 51.4142 105.088V109.899H50.1848V104.694C50.1848 102.766 49.1983 101.764 47.5288 101.764C47.1047 101.762 46.6849 101.849 46.2964 102.02C45.908 102.19 45.5596 102.44 45.2736 102.753C44.9876 103.066 44.7704 103.436 44.636 103.838C44.5016 104.24 44.453 104.666 44.4933 105.088V109.899H43.2639V100.717H44.4477V102.402C44.7985 101.833 45.2973 101.37 45.8908 101.063C46.4842 100.755 47.1501 100.615 47.8171 100.656C48.4933 100.603 49.1697 100.759 49.7537 101.104C50.3378 101.449 50.8011 101.966 51.0803 102.584C51.4547 101.965 51.9895 101.459 52.6282 101.12C53.2668 100.781 53.9854 100.62 54.7077 100.656C55.2157 100.63 55.7233 100.715 56.1945 100.907C56.6656 101.099 57.0888 101.392 57.4337 101.766C57.7786 102.14 58.0368 102.585 58.19 103.07C58.3432 103.555 58.3875 104.068 58.3199 104.572Z" fill="#263238"/>
<path d="M68.6254 104.269V109.96H67.4264V108.534C67.0839 109.046 66.6104 109.457 66.0552 109.723C65.5 109.99 64.8833 110.104 64.2695 110.051C62.1902 110.051 60.9153 108.974 60.9153 107.38C60.9153 105.786 61.8259 104.785 64.4668 104.785H67.3201V104.223C67.3201 102.705 66.4247 101.795 64.7096 101.795C63.6032 101.789 62.5296 102.171 61.6742 102.872L61.1126 101.947C62.1802 101.122 63.4978 100.688 64.8462 100.717C65.3412 100.635 65.8484 100.668 66.3284 100.814C66.8084 100.96 67.2483 101.215 67.6139 101.559C67.9795 101.902 68.2609 102.325 68.4363 102.795C68.6118 103.265 68.6765 103.77 68.6254 104.269ZM67.3201 107.152V105.635H64.4364C62.6607 105.635 62.0839 106.333 62.0839 107.274C62.0839 108.215 62.9339 109.004 64.4061 109.004C65.0249 109.041 65.6397 108.883 66.163 108.55C66.6862 108.218 67.0912 107.728 67.3201 107.152Z" fill="#263238"/>
<path d="M71.7065 97.8183C71.7085 97.7014 71.7337 97.586 71.7807 97.479C71.8277 97.3719 71.8956 97.2753 71.9804 97.1948C72.0652 97.1142 72.1652 97.0514 72.2745 97.0099C72.3838 96.9685 72.5003 96.9492 72.6172 96.9532C72.7321 96.9492 72.8466 96.9681 72.9541 97.0088C73.0616 97.0495 73.1599 97.1112 73.2432 97.1903C73.3266 97.2695 73.3934 97.3644 73.4396 97.4696C73.4859 97.5749 73.5107 97.6882 73.5127 97.8032C73.5147 97.922 73.493 98.0401 73.4489 98.1505C73.4048 98.2609 73.3392 98.3614 73.2558 98.4462C73.1724 98.5309 73.0731 98.5983 72.9634 98.6442C72.8538 98.6902 72.7361 98.7138 72.6172 98.7138C72.4983 98.7158 72.3802 98.6941 72.2698 98.65C72.1594 98.6059 72.0589 98.5403 71.9742 98.4569C71.8894 98.3736 71.8221 98.2742 71.7761 98.1646C71.7302 98.0549 71.7065 97.9372 71.7065 97.8183ZM71.9797 100.717H73.2243V109.899H71.9797V100.717Z" fill="#263238"/>
<path d="M76.6846 96.9531H77.9443V109.899H76.7149L76.6846 96.9531Z" fill="#263238"/>
<path d="M92.879 104.269V109.96H91.6952V108.533C91.3503 109.047 90.8742 109.458 90.3163 109.725C89.7584 109.992 89.1392 110.105 88.5231 110.051C86.459 110.051 85.1841 108.974 85.1841 107.38C85.1841 105.786 86.0795 104.785 88.7204 104.785H91.6041V104.223C91.6041 102.705 90.7238 101.795 89.0088 101.795C87.9019 101.787 86.8275 102.168 85.9733 102.872L85.4117 101.946C86.4782 101.12 87.7966 100.686 89.1454 100.717C89.6369 100.643 90.1389 100.682 90.613 100.832C91.0872 100.981 91.5209 101.237 91.8811 101.579C92.2413 101.922 92.5184 102.342 92.6914 102.808C92.8643 103.275 92.9285 103.774 92.879 104.269ZM91.6041 107.152V105.635H88.7204C86.9447 105.635 86.3679 106.333 86.3679 107.274C86.3679 108.215 87.2178 109.004 88.6901 109.004C89.3089 109.041 89.9237 108.883 90.4469 108.55C90.9702 108.218 91.3752 107.728 91.6041 107.152Z" fill="#263238"/>
<path d="M104.657 96.9531V109.899H103.473V108.093C103.103 108.697 102.579 109.191 101.955 109.525C101.331 109.858 100.629 110.019 99.9213 109.991C98.7296 109.923 97.609 109.401 96.7893 108.533C95.9696 107.666 95.5129 106.517 95.5129 105.323C95.5129 104.13 95.9696 102.981 96.7893 102.114C97.609 101.246 98.7296 100.724 99.9213 100.656C100.611 100.633 101.296 100.786 101.91 101.102C102.524 101.418 103.046 101.887 103.427 102.463V96.9531H104.657ZM103.442 105.316C103.41 104.649 103.182 104.005 102.788 103.466C102.393 102.927 101.849 102.515 101.223 102.282C100.597 102.049 99.9159 102.005 99.2649 102.155C98.6138 102.305 98.021 102.643 97.56 103.126C97.099 103.61 96.79 104.218 96.6712 104.876C96.5524 105.533 96.629 106.211 96.8917 106.825C97.1544 107.44 97.5914 107.963 98.1488 108.332C98.7062 108.7 99.3594 108.897 100.028 108.898C100.492 108.905 100.954 108.816 101.382 108.636C101.811 108.457 102.198 108.19 102.518 107.854C102.839 107.517 103.087 107.118 103.246 106.681C103.405 106.245 103.472 105.78 103.442 105.316Z" fill="#263238"/>
<path d="M116.495 96.9531V109.899H115.311V108.093C114.938 108.694 114.413 109.185 113.79 109.518C113.166 109.851 112.466 110.014 111.759 109.991C110.568 109.923 109.447 109.401 108.627 108.533C107.808 107.666 107.351 106.517 107.351 105.323C107.351 104.13 107.808 102.981 108.627 102.114C109.447 101.246 110.568 100.724 111.759 100.656C112.448 100.631 113.131 100.784 113.743 101.1C114.354 101.417 114.874 101.886 115.25 102.463V96.9531H116.495ZM115.265 105.316C115.233 104.648 115.005 104.004 114.609 103.465C114.214 102.925 113.669 102.514 113.042 102.281C112.415 102.049 111.734 102.005 111.082 102.156C110.431 102.308 109.838 102.647 109.378 103.132C108.917 103.617 108.61 104.227 108.492 104.885C108.375 105.543 108.454 106.222 108.719 106.836C108.984 107.45 109.424 107.973 109.983 108.339C110.542 108.706 111.197 108.9 111.866 108.898C112.33 108.905 112.79 108.816 113.218 108.636C113.646 108.456 114.032 108.19 114.352 107.853C114.671 107.516 114.918 107.117 115.075 106.68C115.232 106.244 115.297 105.779 115.265 105.316Z" fill="#263238"/>
<path d="M124.569 100.656V101.855H124.281C123.851 101.853 123.426 101.941 123.033 102.115C122.64 102.289 122.288 102.544 122.001 102.864C121.714 103.184 121.498 103.561 121.368 103.971C121.238 104.38 121.196 104.813 121.246 105.24V109.915H120.001V100.732H121.2V102.538C121.51 101.924 121.996 101.417 122.596 101.081C123.197 100.746 123.884 100.598 124.569 100.656Z" fill="#263238"/>
<path d="M134.708 105.695H127.028C127.053 106.143 127.167 106.582 127.362 106.986C127.558 107.39 127.831 107.751 128.167 108.049C128.503 108.347 128.894 108.575 129.319 108.721C129.743 108.866 130.192 108.926 130.64 108.898C131.171 108.913 131.698 108.813 132.186 108.603C132.674 108.393 133.11 108.079 133.463 107.684L134.161 108.488C133.502 109.177 132.654 109.657 131.724 109.868C130.793 110.078 129.821 110.01 128.929 109.672C128.037 109.333 127.265 108.74 126.708 107.965C126.151 107.191 125.835 106.269 125.799 105.316C125.763 104.707 125.852 104.097 126.061 103.524C126.27 102.951 126.593 102.426 127.012 101.983C127.43 101.539 127.935 101.186 128.495 100.944C129.055 100.703 129.658 100.578 130.268 100.578C130.878 100.578 131.482 100.703 132.042 100.944C132.602 101.186 133.107 101.539 133.525 101.983C133.944 102.426 134.267 102.951 134.476 103.524C134.684 104.097 134.774 104.707 134.738 105.316C134.738 105.422 134.708 105.559 134.708 105.695ZM127.028 104.769H133.539C133.483 103.944 133.115 103.172 132.511 102.607C131.907 102.043 131.11 101.729 130.284 101.729C129.457 101.729 128.66 102.043 128.056 102.607C127.452 103.172 127.084 103.944 127.028 104.769Z" fill="#263238"/>
<path d="M135.983 108.822L136.544 107.85C137.495 108.531 138.638 108.893 139.807 108.883C141.553 108.883 142.266 108.291 142.266 107.365C142.266 104.967 136.317 106.849 136.317 103.221C136.317 101.704 137.607 100.611 139.944 100.611C141.085 100.583 142.211 100.878 143.192 101.461L142.661 102.462C141.857 101.929 140.909 101.653 139.944 101.673C138.29 101.673 137.561 102.311 137.561 103.191C137.561 105.665 143.511 103.798 143.511 107.334C143.511 108.852 142.114 109.945 139.716 109.945C138.382 109.991 137.07 109.597 135.983 108.822Z" fill="#263238"/>
<path d="M144.512 108.822L145.074 107.851C146.026 108.528 147.168 108.89 148.337 108.883C150.082 108.883 150.811 108.291 150.811 107.365C150.811 104.967 144.846 106.849 144.846 103.221C144.846 101.704 146.136 100.611 148.489 100.611C149.629 100.589 150.753 100.883 151.737 101.461L151.19 102.463C150.392 101.928 149.449 101.653 148.489 101.673C146.819 101.673 146.091 102.311 146.091 103.191C146.091 105.665 152.04 103.798 152.04 107.334C152.04 108.852 150.644 109.945 148.261 109.945C146.922 109.989 145.606 109.595 144.512 108.822Z" fill="#263238"/>
<path d="M54.4801 142.607H46.8004C46.8274 143.053 46.9424 143.49 47.1388 143.893C47.3351 144.295 47.6089 144.654 47.9446 144.95C48.2802 145.247 48.671 145.474 49.0945 145.618C49.518 145.763 49.9659 145.823 50.4126 145.794C50.9399 145.812 51.4648 145.714 51.95 145.507C52.4352 145.3 52.869 144.988 53.2204 144.595L53.9186 145.399C53.2591 146.089 52.4113 146.568 51.4808 146.779C50.5504 146.99 49.5785 146.921 48.6866 146.583C47.7946 146.245 47.0221 145.651 46.4653 144.877C45.9085 144.102 45.5922 143.18 45.5558 142.227C45.522 141.615 45.6156 141.002 45.8308 140.428C46.046 139.853 46.3782 139.33 46.8062 138.89C47.2341 138.451 47.7487 138.105 48.3172 137.875C48.8858 137.645 49.4959 137.535 50.109 137.553C50.7152 137.543 51.3169 137.659 51.8759 137.893C52.435 138.128 52.9394 138.476 53.3573 138.915C53.7751 139.354 54.0974 139.875 54.3037 140.446C54.51 141.016 54.5959 141.622 54.556 142.227C54.4953 142.333 54.4801 142.47 54.4801 142.607ZM46.8004 141.681H53.3115C53.2551 140.856 52.8876 140.083 52.2833 139.519C51.679 138.954 50.8829 138.64 50.0559 138.64C49.229 138.64 48.4329 138.954 47.8285 139.519C47.2242 140.083 46.8567 140.856 46.8004 141.681Z" fill="#33372C"/>
<path d="M62.6153 146.765L59.7316 142.971L56.772 146.765H55.3757L59.0031 142.06L55.5427 137.507H56.939L59.7013 141.104L62.4636 137.659H63.8143L60.3691 142.212L64.0268 146.917L62.6153 146.765Z" fill="#33372C"/>
<path d="M72.8448 141.119V146.765H71.661V145.339C71.315 145.851 70.8386 146.261 70.2811 146.528C69.7235 146.795 69.1048 146.908 68.4889 146.856C66.4096 146.856 65.1499 145.779 65.1499 144.185C65.1499 142.591 66.0453 141.59 68.6862 141.59H71.6003V141.028C71.6003 139.51 70.7048 138.6 69.0049 138.6C67.8978 138.591 66.823 138.972 65.9695 139.677L65.4231 138.752C66.4845 137.914 67.8051 137.474 69.1567 137.507C69.6499 137.442 70.1514 137.49 70.6233 137.647C71.0952 137.804 71.5251 138.067 71.8805 138.415C72.2359 138.763 72.5074 139.187 72.6744 139.656C72.8415 140.124 72.8998 140.625 72.8448 141.119ZM71.6003 144.049V142.531H68.7166C66.9408 142.531 66.3641 143.229 66.3641 144.185C66.3641 145.141 67.214 145.915 68.6862 145.915C69.3072 145.954 69.9245 145.794 70.4484 145.458C70.9724 145.123 71.3758 144.629 71.6003 144.049Z" fill="#33372C"/>
<path d="M91.3612 141.484V146.765H90.0864V141.605C90.0864 139.677 89.0998 138.676 87.4455 138.676C87.0214 138.674 86.6016 138.761 86.2132 138.931C85.8248 139.101 85.4763 139.351 85.1903 139.664C84.9043 139.977 84.6871 140.347 84.5527 140.749C84.4183 141.151 84.3697 141.577 84.41 142V146.765H83.1806V141.605C83.1806 139.677 82.1941 138.676 80.5246 138.676C80.1005 138.674 79.6807 138.761 79.2923 138.931C78.9039 139.101 78.5554 139.351 78.2694 139.664C77.9835 139.977 77.7663 140.347 77.6319 140.749C77.4975 141.151 77.4488 141.577 77.4891 142V146.765H76.2598V137.659H77.4436V139.328C77.7968 138.762 78.296 138.301 78.8889 137.993C79.4818 137.686 80.1464 137.545 80.813 137.583C81.4905 137.533 82.1672 137.692 82.751 138.039C83.3348 138.387 83.7975 138.906 84.0761 139.526C84.4486 138.904 84.9826 138.395 85.6214 138.053C86.2601 137.711 86.9797 137.548 87.7035 137.583C88.213 137.552 88.7231 137.634 89.1974 137.823C89.6717 138.012 90.0986 138.302 90.4478 138.675C90.7969 139.047 91.0598 139.492 91.2177 139.977C91.3756 140.463 91.4246 140.977 91.3612 141.484Z" fill="#33372C"/>
<path d="M104.034 142.212C104.066 142.824 103.97 143.436 103.754 144.009C103.538 144.582 103.206 145.105 102.779 145.544C102.351 145.983 101.838 146.329 101.27 146.56C100.703 146.791 100.093 146.902 99.4809 146.887C98.7915 146.909 98.1079 146.753 97.4964 146.434C96.8848 146.115 96.366 145.644 95.9901 145.065V150.18H94.7607V137.659H95.9446V139.48C96.3129 138.879 96.8344 138.386 97.4559 138.053C98.0773 137.719 98.7762 137.557 99.4809 137.583C100.089 137.57 100.693 137.682 101.256 137.911C101.819 138.14 102.33 138.482 102.756 138.915C103.183 139.349 103.516 139.865 103.736 140.432C103.955 140.999 104.057 141.604 104.034 142.212ZM102.79 142.212C102.763 141.539 102.539 140.89 102.145 140.343C101.752 139.797 101.206 139.379 100.577 139.141C99.9472 138.902 99.2614 138.855 98.6049 139.003C97.9484 139.152 97.3501 139.49 96.8846 139.976C96.4191 140.463 96.1069 141.075 95.987 141.737C95.8671 142.4 95.9447 143.083 96.2101 143.701C96.4756 144.32 96.9172 144.847 97.4799 145.216C98.0426 145.585 98.7015 145.781 99.3747 145.779C99.8374 145.784 100.296 145.693 100.723 145.514C101.149 145.334 101.535 145.069 101.855 144.735C102.175 144.401 102.423 144.004 102.584 143.57C102.744 143.136 102.814 142.674 102.79 142.212Z" fill="#33372C"/>
<path d="M106.554 133.865H107.798V146.765H106.554V133.865Z" fill="#33372C"/>
<path d="M119.257 142.607H111.562C111.621 143.51 112.036 144.354 112.716 144.951C113.396 145.549 114.286 145.852 115.19 145.794C115.717 145.811 116.241 145.713 116.726 145.506C117.211 145.298 117.645 144.988 117.997 144.595L118.696 145.399C118.036 146.089 117.188 146.568 116.258 146.779C115.327 146.99 114.355 146.921 113.464 146.583C112.572 146.245 111.799 145.651 111.242 144.877C110.685 144.102 110.369 143.18 110.333 142.227C110.297 141.618 110.387 141.009 110.595 140.435C110.804 139.862 111.127 139.338 111.546 138.894C111.964 138.451 112.469 138.097 113.029 137.856C113.589 137.614 114.193 137.489 114.803 137.489C115.412 137.489 116.016 137.614 116.576 137.856C117.136 138.097 117.641 138.451 118.059 138.894C118.478 139.338 118.801 139.862 119.01 140.435C119.218 141.009 119.308 141.618 119.272 142.227C119.272 142.333 119.257 142.47 119.257 142.607ZM111.562 141.681H118.088C118.088 140.815 117.745 139.985 117.133 139.373C116.521 138.761 115.691 138.418 114.825 138.418C113.96 138.418 113.13 138.761 112.518 139.373C111.906 139.985 111.562 140.815 111.562 141.681Z" fill="#33372C"/>
<path d="M137.212 142.212C137.212 145.247 136.119 146.932 134.313 146.932C134.057 146.947 133.8 146.908 133.559 146.819C133.318 146.73 133.098 146.592 132.913 146.414C132.727 146.236 132.581 146.022 132.482 145.784C132.384 145.547 132.335 145.292 132.34 145.035C131.983 145.636 131.47 146.13 130.855 146.464C130.241 146.797 129.548 146.959 128.849 146.932C127.764 146.778 126.771 146.236 126.052 145.408C125.334 144.58 124.938 143.521 124.938 142.424C124.938 141.328 125.334 140.269 126.052 139.441C126.771 138.613 127.764 138.071 128.849 137.917C129.537 137.892 130.218 138.049 130.826 138.371C131.433 138.694 131.945 139.17 132.31 139.753V137.962H133.448V144.58C133.448 145.551 133.934 145.9 134.526 145.9C135.603 145.9 136.301 144.565 136.301 142.197C136.328 141.265 136.157 140.338 135.802 139.475C135.447 138.613 134.914 137.836 134.238 137.193C133.562 136.55 132.759 136.057 131.881 135.745C131.002 135.433 130.067 135.309 129.138 135.382C128.188 135.338 127.24 135.487 126.35 135.82C125.46 136.153 124.646 136.663 123.959 137.319C123.272 137.975 122.724 138.764 122.351 139.637C121.977 140.511 121.784 141.451 121.784 142.402C121.784 143.352 121.977 144.292 122.351 145.166C122.724 146.04 123.272 146.829 123.959 147.485C124.646 148.141 125.46 148.651 126.35 148.984C127.24 149.317 128.188 149.465 129.138 149.421C130.3 149.424 131.448 149.159 132.492 148.647L132.78 149.497C131.642 150.035 130.397 150.31 129.138 150.302C128.099 150.302 127.071 150.097 126.112 149.7C125.152 149.302 124.281 148.72 123.546 147.986C122.812 147.251 122.23 146.38 121.832 145.42C121.435 144.461 121.23 143.433 121.23 142.394C121.23 141.356 121.435 140.327 121.832 139.368C122.23 138.409 122.812 137.537 123.546 136.803C124.281 136.068 125.152 135.486 126.112 135.089C127.071 134.691 128.099 134.487 129.138 134.487C130.186 134.419 131.237 134.57 132.224 134.93C133.211 135.29 134.112 135.85 134.871 136.577C135.63 137.303 136.23 138.179 136.633 139.149C137.036 140.119 137.233 141.162 137.212 142.212ZM132.325 142.409C132.289 141.761 132.065 141.137 131.678 140.615C131.292 140.093 130.761 139.695 130.152 139.471C129.542 139.247 128.88 139.207 128.248 139.355C127.616 139.503 127.041 139.833 126.594 140.305C126.147 140.776 125.848 141.368 125.734 142.007C125.62 142.646 125.695 143.305 125.951 143.902C126.207 144.499 126.633 145.008 127.175 145.365C127.717 145.723 128.352 145.914 129.001 145.915C129.459 145.928 129.915 145.843 130.338 145.667C130.761 145.491 131.143 145.227 131.457 144.893C131.77 144.559 132.01 144.162 132.16 143.729C132.309 143.296 132.366 142.836 132.325 142.379V142.409Z" fill="#33372C"/>
<path d="M148.337 137.659V145.733C148.337 148.89 146.819 150.286 143.784 150.286C142.233 150.35 140.712 149.848 139.504 148.875L140.126 147.934C141.144 148.778 142.432 149.225 143.754 149.194C146.076 149.194 147.138 148.116 147.138 145.855V144.686C146.739 145.26 146.202 145.724 145.576 146.034C144.949 146.345 144.255 146.492 143.556 146.462C142.949 146.497 142.342 146.408 141.77 146.2C141.199 145.993 140.676 145.67 140.234 145.253C139.792 144.836 139.44 144.333 139.199 143.775C138.958 143.216 138.834 142.615 138.834 142.007C138.834 141.399 138.958 140.798 139.199 140.24C139.44 139.681 139.792 139.178 140.234 138.761C140.676 138.344 141.199 138.022 141.77 137.814C142.342 137.606 142.949 137.517 143.556 137.553C144.268 137.521 144.975 137.674 145.611 137.995C146.246 138.317 146.788 138.797 147.184 139.389V137.659H148.337ZM147.123 142.03C147.147 141.335 146.963 140.648 146.595 140.059C146.226 139.469 145.69 139.002 145.054 138.72C144.419 138.437 143.714 138.35 143.029 138.471C142.344 138.591 141.71 138.914 141.21 139.397C140.71 139.88 140.365 140.501 140.22 141.182C140.075 141.862 140.137 142.57 140.397 143.215C140.657 143.86 141.104 144.412 141.681 144.801C142.257 145.191 142.937 145.399 143.632 145.399C144.091 145.429 144.55 145.363 144.981 145.204C145.412 145.045 145.805 144.797 146.134 144.477C146.464 144.156 146.722 143.77 146.892 143.343C147.062 142.916 147.141 142.459 147.123 142V142.03Z" fill="#33372C"/>
<path d="M166.96 141.484V146.765H165.715V141.605C165.715 139.677 164.744 138.676 163.074 138.676C162.65 138.674 162.23 138.761 161.842 138.931C161.454 139.101 161.105 139.351 160.819 139.664C160.533 139.977 160.316 140.347 160.181 140.749C160.047 141.151 159.998 141.577 160.039 142V146.765H158.794V141.605C158.794 139.677 157.823 138.676 156.138 138.676C155.714 138.674 155.294 138.761 154.906 138.931C154.517 139.101 154.169 139.351 153.883 139.664C153.597 139.977 153.38 140.347 153.245 140.749C153.111 141.151 153.062 141.577 153.103 142V146.765H151.858V137.659H153.042V139.328C153.396 138.763 153.896 138.303 154.488 137.996C155.081 137.689 155.745 137.546 156.411 137.583C157.091 137.532 157.77 137.69 158.357 138.038C158.943 138.385 159.408 138.905 159.69 139.526C160.061 138.903 160.595 138.393 161.234 138.051C161.873 137.709 162.593 137.547 163.317 137.583C163.825 137.555 164.334 137.638 164.806 137.828C165.279 138.018 165.704 138.309 166.051 138.681C166.398 139.053 166.66 139.497 166.817 139.981C166.974 140.466 167.023 140.978 166.96 141.484Z" fill="#33372C"/>
<path d="M177.25 141.119V146.765H176.066V145.339C175.724 145.851 175.25 146.262 174.695 146.529C174.14 146.796 173.523 146.909 172.909 146.856C170.83 146.856 169.555 145.779 169.555 144.185C169.555 142.591 170.45 141.59 173.091 141.59H176.005V141.028C176.005 139.51 175.125 138.6 173.41 138.6C172.302 138.584 171.225 138.966 170.374 139.677L169.813 138.752C170.874 137.914 172.195 137.474 173.547 137.507C174.041 137.439 174.544 137.485 175.018 137.641C175.492 137.798 175.924 138.06 176.281 138.408C176.638 138.757 176.911 139.182 177.079 139.652C177.247 140.122 177.305 140.623 177.25 141.119ZM176.005 144.049V142.531H173.122C171.346 142.531 170.769 143.229 170.769 144.185C170.769 145.141 171.634 145.915 173.091 145.915C173.712 145.954 174.329 145.794 174.853 145.458C175.377 145.123 175.781 144.629 176.005 144.049Z" fill="#33372C"/>
<path d="M180.331 134.73C180.339 134.495 180.439 134.272 180.609 134.111C180.779 133.949 181.007 133.86 181.241 133.864C181.357 133.86 181.472 133.879 181.581 133.92C181.689 133.96 181.788 134.022 181.873 134.101C181.958 134.18 182.026 134.274 182.074 134.38C182.122 134.485 182.148 134.599 182.152 134.714C182.154 134.835 182.132 134.954 182.087 135.065C182.042 135.177 181.975 135.278 181.89 135.363C181.805 135.448 181.704 135.515 181.592 135.56C181.481 135.605 181.362 135.627 181.241 135.625C181.003 135.625 180.773 135.531 180.603 135.364C180.432 135.196 180.335 134.968 180.331 134.73ZM180.619 137.628H181.849V146.765H180.619V137.628Z" fill="#33372C"/>
<path d="M185.309 133.865H186.554V146.765H185.309V133.865Z" fill="#33372C"/>
<path d="M189.194 145.946C189.192 145.823 189.215 145.701 189.261 145.587C189.306 145.473 189.374 145.369 189.46 145.281C189.546 145.194 189.649 145.124 189.762 145.077C189.876 145.029 189.997 145.005 190.12 145.005C190.245 145.003 190.369 145.025 190.485 145.072C190.601 145.118 190.707 145.187 190.796 145.275C190.885 145.362 190.955 145.467 191.003 145.582C191.052 145.697 191.077 145.821 191.076 145.946C191.076 146.199 190.976 146.442 190.796 146.622C190.617 146.801 190.374 146.902 190.12 146.902C189.997 146.9 189.875 146.874 189.761 146.824C189.648 146.775 189.545 146.704 189.459 146.615C189.373 146.527 189.306 146.422 189.26 146.307C189.215 146.192 189.192 146.069 189.194 145.946Z" fill="#33372C"/>
<path d="M192.518 142.212C192.501 141.588 192.612 140.968 192.845 140.389C193.078 139.81 193.427 139.285 193.871 138.847C194.315 138.408 194.844 138.066 195.426 137.841C196.008 137.615 196.63 137.512 197.254 137.537C197.96 137.501 198.664 137.649 199.295 137.969C199.926 138.288 200.462 138.768 200.851 139.359L199.925 139.996C199.629 139.564 199.229 139.212 198.763 138.974C198.296 138.735 197.777 138.617 197.254 138.63C196.346 138.689 195.495 139.092 194.873 139.755C194.251 140.419 193.905 141.295 193.905 142.204C193.905 143.114 194.251 143.99 194.873 144.653C195.495 145.317 196.346 145.72 197.254 145.779C197.776 145.805 198.297 145.696 198.765 145.462C199.233 145.228 199.633 144.877 199.925 144.443L200.851 145.065C200.462 145.656 199.926 146.136 199.295 146.455C198.664 146.775 197.96 146.923 197.254 146.887C196.63 146.912 196.008 146.809 195.426 146.583C194.844 146.358 194.315 146.016 193.871 145.577C193.427 145.139 193.078 144.614 192.845 144.035C192.612 143.456 192.501 142.836 192.518 142.212Z" fill="#33372C"/>
<path d="M202.186 142.212C202.186 141.287 202.46 140.384 202.974 139.615C203.488 138.846 204.218 138.247 205.072 137.893C205.926 137.539 206.866 137.447 207.773 137.627C208.68 137.808 209.513 138.253 210.166 138.907C210.82 139.56 211.265 140.393 211.446 141.3C211.626 142.207 211.534 143.147 211.18 144.001C210.826 144.855 210.227 145.585 209.458 146.099C208.689 146.613 207.785 146.887 206.861 146.887C206.242 146.903 205.627 146.794 205.052 146.565C204.478 146.336 203.956 145.992 203.518 145.555C203.081 145.117 202.737 144.595 202.508 144.021C202.279 143.446 202.17 142.83 202.186 142.212ZM210.276 142.212C210.246 141.544 210.021 140.899 209.628 140.358C209.235 139.817 208.692 139.403 208.066 139.167C207.44 138.932 206.759 138.886 206.106 139.034C205.454 139.182 204.86 139.519 204.398 140.002C203.935 140.485 203.625 141.094 203.505 141.751C203.385 142.409 203.461 143.088 203.723 143.703C203.985 144.319 204.423 144.843 204.98 145.212C205.538 145.581 206.192 145.778 206.861 145.779C207.325 145.788 207.786 145.701 208.214 145.523C208.643 145.345 209.03 145.08 209.351 144.745C209.672 144.41 209.92 144.011 210.079 143.575C210.238 143.139 210.305 142.675 210.276 142.212Z" fill="#33372C"/>
<path d="M229.217 141.484V146.765H227.973V141.605C227.973 139.677 227.001 138.676 225.332 138.676C224.908 138.674 224.488 138.761 224.099 138.931C223.711 139.101 223.363 139.351 223.077 139.664C222.791 139.977 222.573 140.347 222.439 140.749C222.305 141.151 222.256 141.577 222.296 142V146.765H221.052V141.605C221.052 139.677 220.08 138.676 218.396 138.676C217.972 138.674 217.552 138.761 217.163 138.931C216.775 139.101 216.427 139.351 216.141 139.664C215.855 139.977 215.637 140.347 215.503 140.749C215.369 141.151 215.32 141.577 215.36 142V146.765H214.116V137.659H215.3V139.328C215.654 138.763 216.153 138.303 216.746 137.996C217.339 137.689 218.003 137.546 218.669 137.583C219.347 137.53 220.024 137.689 220.609 138.037C221.193 138.384 221.655 138.905 221.932 139.526C222.308 138.904 222.845 138.395 223.486 138.054C224.127 137.712 224.849 137.549 225.575 137.583C226.083 137.555 226.591 137.638 227.064 137.828C227.536 138.018 227.961 138.309 228.309 138.681C228.656 139.053 228.918 139.497 229.075 139.981C229.232 140.466 229.28 140.978 229.217 141.484Z" fill="#33372C"/>
<path d="M355.417 162.535C356.045 162.501 356.641 162.249 357.102 161.821C358.21 160.956 357.739 158.907 357.83 156.509C357.83 151.622 357.83 144.367 357.754 135.17C357.754 132.848 357.754 130.404 357.754 127.824V125.881C357.792 125.231 357.751 124.579 357.633 123.939C357.532 123.639 357.371 123.364 357.159 123.129C356.948 122.894 356.691 122.705 356.404 122.573C355.766 122.352 355.086 122.279 354.415 122.36H336.066H291.338L32.2908 122.466C31.9571 122.466 31.6279 122.544 31.33 122.694C31.032 122.844 30.7736 123.063 30.5758 123.331C30.197 123.937 30.0513 124.66 30.166 125.365V158.103C30.166 158.831 30.166 159.712 30.166 160.334C30.219 160.658 30.3485 160.965 30.5438 161.229C30.7392 161.493 30.9947 161.706 31.2891 161.852C31.5747 162.001 31.8924 162.08 32.2149 162.079H62.8429H131.627L248.083 162.17L326.595 162.292L347.935 162.368L326.595 162.444L248.083 162.565L131.627 162.656H32.2149C31.5421 162.653 30.8916 162.414 30.376 161.982C29.8605 161.549 29.5123 160.95 29.3919 160.288C29.2857 159.393 29.3919 158.771 29.3919 157.921V125.517C29.3708 125.102 29.3708 124.687 29.3919 124.272C29.4574 123.821 29.6348 123.393 29.908 123.028C30.1772 122.656 30.5308 122.353 30.9398 122.145C31.3488 121.937 31.8014 121.828 32.2605 121.829L291.308 121.95H336.036H354.385C355.109 121.871 355.841 121.959 356.525 122.208C356.85 122.354 357.142 122.563 357.385 122.824C357.627 123.085 357.815 123.391 357.937 123.726C358.071 124.4 358.117 125.089 358.073 125.775C358.073 126.428 358.073 127.08 358.073 127.718C358.073 130.298 358.073 132.741 358.073 135.064C358.073 144.322 358.073 151.516 357.997 156.403C357.997 157.632 357.997 158.695 357.997 159.636C358.062 160.055 358.024 160.485 357.887 160.886C357.749 161.288 357.516 161.651 357.208 161.943C356.968 162.162 356.684 162.328 356.376 162.43C356.067 162.532 355.74 162.568 355.417 162.535Z" fill="#33372C"/>
<path d="M41.3212 193.572C41.3212 196.168 39.4393 197.746 36.3279 197.746H33.0496V201.601H31.7595V189.459H36.3127C39.4393 189.383 41.3212 190.947 41.3212 193.572ZM40.0312 193.572C40.0312 191.614 38.7411 190.537 36.2975 190.537H33.0496V196.608H36.2975C38.7411 196.608 40.0008 195.485 40.0008 193.572H40.0312Z" fill="#263238"/>
<path d="M50.7011 195.91V201.601H49.502V200.174C49.1596 200.687 48.6861 201.097 48.1309 201.364C47.5757 201.631 46.959 201.745 46.3452 201.692C44.2659 201.692 42.991 200.599 42.991 199.021C42.991 197.443 43.9016 196.41 46.5425 196.41H49.4565V195.849C49.4565 194.331 48.5611 193.436 46.846 193.436C45.7383 193.423 44.6621 193.805 43.8105 194.513L43.249 193.587C44.3116 192.752 45.6314 192.312 46.9826 192.343C47.4744 192.271 47.9762 192.312 48.4496 192.464C48.923 192.615 49.3556 192.873 49.7143 193.217C50.073 193.561 50.3484 193.982 50.5194 194.449C50.6904 194.916 50.7526 195.415 50.7011 195.91ZM49.4565 198.839V197.321H46.5728C44.7971 197.321 44.2203 198.019 44.2203 198.96C44.2203 199.901 45.0703 200.69 46.5425 200.69C47.1621 200.733 47.779 200.576 48.3032 200.243C48.8274 199.91 49.2315 199.418 49.4565 198.839Z" fill="#263238"/>
<path d="M52.7803 200.554L53.3418 199.583C54.2979 200.251 55.4382 200.607 56.605 200.599C58.3504 200.599 59.0637 200.008 59.0637 199.082C59.0637 196.699 53.1142 198.581 53.1142 194.953C53.1142 193.436 54.4043 192.328 56.7416 192.328C57.8841 192.305 59.0099 192.605 59.9895 193.193L59.4583 194.179C58.6556 193.643 57.7068 193.367 56.7416 193.39C55.0872 193.39 54.3587 194.043 54.3587 194.908C54.3587 197.397 60.3083 195.53 60.3083 199.051C60.3083 200.569 58.9119 201.677 56.5139 201.677C55.1797 201.723 53.8675 201.329 52.7803 200.554Z" fill="#263238"/>
<path d="M61.3252 200.554L61.8716 199.583C62.8337 200.251 63.9785 200.606 65.1499 200.599C66.8953 200.599 67.6086 200.007 67.6086 199.082C67.6086 196.699 61.6439 198.581 61.6439 194.953C61.6439 193.436 62.9492 192.328 65.2865 192.328C66.4283 192.31 67.5526 192.61 68.5344 193.193L67.9881 194.179C67.19 193.645 66.2467 193.369 65.2865 193.39C63.617 193.39 62.8885 194.043 62.8885 194.908C62.8885 197.397 68.838 195.53 68.838 199.051C68.838 200.569 67.4417 201.677 65.0588 201.677C63.7246 201.723 62.4124 201.329 61.3252 200.554Z" fill="#263238"/>
<path d="M84.4403 192.419L80.9647 201.525H79.796L76.8971 193.937L73.9982 201.525H72.8296L69.3691 192.419H70.553L73.4367 200.22L76.3811 192.419H77.4435L80.3879 200.22L83.302 192.419H84.4403Z" fill="#263238"/>
<path d="M85.1081 197.002C85.1111 196.078 85.3878 195.176 85.9032 194.409C86.4187 193.643 87.1498 193.046 88.0043 192.694C88.8587 192.343 89.7981 192.252 90.7039 192.435C91.6097 192.617 92.4412 193.063 93.0935 193.717C93.7457 194.372 94.1894 195.205 94.3686 196.111C94.5477 197.017 94.4543 197.957 94.1 198.81C93.7458 199.663 93.1466 200.392 92.3782 200.905C91.6098 201.418 90.7066 201.692 89.7827 201.692C89.1629 201.709 88.5463 201.599 87.9705 201.369C87.3948 201.139 86.872 200.794 86.4343 200.355C85.9967 199.916 85.6533 199.392 85.4252 198.816C85.1972 198.239 85.0892 197.622 85.1081 197.002ZM93.1976 197.002C93.1649 196.335 92.9372 195.692 92.5427 195.153C92.1482 194.614 91.6041 194.202 90.978 193.969C90.3518 193.736 89.6711 193.692 89.02 193.842C88.3689 193.992 87.7762 194.329 87.3151 194.813C86.8541 195.296 86.5451 195.905 86.4263 196.562C86.3075 197.22 86.3842 197.897 86.6468 198.512C86.9095 199.126 87.3466 199.65 87.904 200.018C88.4613 200.387 89.1146 200.583 89.7827 200.584C90.2481 200.594 90.7104 200.506 91.1401 200.327C91.5698 200.148 91.9577 199.882 92.2789 199.545C92.6001 199.208 92.8476 198.808 93.0058 198.37C93.164 197.933 93.2293 197.467 93.1976 197.002Z" fill="#263238"/>
<path d="M101.606 192.297V193.512H101.302C100.871 193.508 100.444 193.597 100.05 193.772C99.6557 193.947 99.3032 194.204 99.016 194.525C98.7288 194.847 98.5134 195.226 98.3842 195.638C98.255 196.049 98.215 196.483 98.2667 196.911V201.586H97.0222V192.479H98.2061V194.27C98.5074 193.637 98.9934 193.109 99.6002 192.757C100.207 192.405 100.906 192.245 101.606 192.297Z" fill="#263238"/>
<path d="M112.124 188.64V201.601H110.94V199.78C110.575 200.385 110.054 200.882 109.432 201.218C108.811 201.554 108.11 201.718 107.404 201.692C106.164 201.692 104.975 201.2 104.098 200.323C103.222 199.446 102.729 198.257 102.729 197.018C102.729 195.778 103.222 194.589 104.098 193.712C104.975 192.835 106.164 192.343 107.404 192.343C108.093 192.323 108.775 192.48 109.386 192.799C109.997 193.118 110.516 193.588 110.894 194.164V188.64H112.124ZM110.91 197.002C110.877 196.334 110.649 195.691 110.254 195.151C109.858 194.612 109.313 194.2 108.686 193.968C108.059 193.735 107.378 193.692 106.726 193.843C106.075 193.994 105.482 194.333 105.022 194.818C104.562 195.304 104.254 195.913 104.137 196.572C104.02 197.23 104.098 197.908 104.363 198.522C104.628 199.136 105.068 199.659 105.627 200.026C106.186 200.392 106.841 200.586 107.51 200.584C107.974 200.592 108.435 200.503 108.863 200.323C109.29 200.143 109.676 199.876 109.996 199.54C110.316 199.203 110.562 198.804 110.719 198.367C110.876 197.93 110.941 197.466 110.91 197.002Z" fill="#263238"/>
<path d="M55.3908 238.543V239.666H46.7397V227.433H55.1784V228.556H48.045V232.912H54.3588V234.005H48.045V238.558L55.3908 238.543Z" fill="#33372C"/>
<path d="M66.607 234.339V239.666H65.3776V234.46C65.4341 234.077 65.403 233.686 65.2868 233.316C65.1705 232.947 64.972 232.608 64.7061 232.326C64.4403 232.044 64.1141 231.826 63.752 231.689C63.3899 231.551 63.0012 231.497 62.6153 231.531C62.1776 231.503 61.739 231.57 61.3296 231.727C60.9203 231.885 60.5499 232.129 60.2441 232.444C59.9383 232.758 59.7043 233.135 59.5582 233.549C59.4121 233.962 59.3573 234.403 59.3977 234.84V239.666H58.2139V230.484H59.3977V232.168C59.7697 231.59 60.2896 231.122 60.9033 230.813C61.5171 230.503 62.2025 230.363 62.8885 230.408C63.4045 230.372 63.9219 230.452 64.4036 230.64C64.8853 230.828 65.3194 231.121 65.6748 231.496C66.0302 231.872 66.2981 232.322 66.4592 232.813C66.6204 233.305 66.6708 233.825 66.607 234.339Z" fill="#33372C"/>
<path d="M74.8178 239.104C74.2693 239.548 73.5799 239.779 72.8751 239.757C72.5138 239.798 72.1479 239.757 71.8045 239.637C71.4611 239.517 71.149 239.322 70.8911 239.066C70.6332 238.809 70.4362 238.498 70.3147 238.156C70.1931 237.813 70.1501 237.447 70.1887 237.086V231.531H68.5496V230.484H70.1887V228.465H71.4333V230.484H74.2259V231.531H71.4333V237.01C71.412 237.222 71.4355 237.435 71.5021 237.637C71.5688 237.839 71.6772 238.025 71.8204 238.183C71.9635 238.34 72.1381 238.466 72.3329 238.551C72.5276 238.637 72.7383 238.68 72.951 238.679C73.4488 238.696 73.9353 238.529 74.317 238.209L74.8178 239.104Z" fill="#33372C"/>
<path d="M84.7287 235.447H77.049C77.0741 235.895 77.1877 236.333 77.3832 236.737C77.5787 237.141 77.8522 237.503 78.188 237.8C78.5238 238.098 78.9153 238.326 79.3397 238.472C79.7642 238.618 80.2133 238.678 80.6612 238.649C81.1885 238.667 81.7134 238.569 82.1986 238.362C82.6839 238.155 83.1176 237.844 83.469 237.45L84.1672 238.254C83.5068 238.945 82.6576 239.425 81.7258 239.635C80.794 239.845 79.821 239.775 78.9285 239.435C78.036 239.095 77.2636 238.499 76.7079 237.722C76.1522 236.945 75.838 236.022 75.8044 235.067C75.7704 234.455 75.8641 233.843 76.0794 233.27C76.2948 232.696 76.6272 232.174 77.0554 231.735C77.4836 231.297 77.9984 230.953 78.5669 230.724C79.1354 230.496 79.7452 230.388 80.3576 230.408C80.9631 230.396 81.5644 230.51 82.1235 230.743C82.6825 230.976 83.1871 231.322 83.6052 231.76C84.0233 232.198 84.3458 232.718 84.5523 233.288C84.7587 233.857 84.8447 234.463 84.8046 235.067C84.7439 235.173 84.7287 235.31 84.7287 235.447ZM77.049 234.536H83.5601C83.5037 233.711 83.1362 232.938 82.5319 232.374C81.9275 231.809 81.1314 231.495 80.3045 231.495C79.4776 231.495 78.6815 231.809 78.0772 232.374C77.4728 232.938 77.1053 233.711 77.049 234.536Z" fill="#33372C"/>
<path d="M91.9075 230.408V231.607H91.6039C91.1742 231.604 90.7487 231.692 90.3556 231.866C89.9626 232.04 89.611 232.296 89.324 232.615C89.0371 232.935 88.8213 233.313 88.6911 233.722C88.5608 234.132 88.519 234.564 88.5685 234.991V239.681H87.3391V230.499H88.5229V232.29C88.8367 231.676 89.3261 231.169 89.9288 230.834C90.5315 230.499 91.2203 230.35 91.9075 230.408Z" fill="#33372C"/>
<path d="M108.147 235.067C108.179 235.68 108.084 236.292 107.868 236.866C107.652 237.441 107.32 237.964 106.893 238.404C106.465 238.844 105.952 239.192 105.384 239.424C104.817 239.657 104.207 239.77 103.594 239.757C102.905 239.78 102.221 239.624 101.61 239.305C100.998 238.986 100.479 238.514 100.103 237.936V243.051H98.8589V230.484H100.043V232.29C100.419 231.693 100.945 231.206 101.568 230.875C102.191 230.545 102.889 230.384 103.594 230.408C104.205 230.392 104.813 230.503 105.38 230.733C105.946 230.964 106.459 231.308 106.886 231.745C107.313 232.183 107.646 232.703 107.863 233.275C108.08 233.846 108.177 234.457 108.147 235.067ZM106.918 235.067C106.949 234.599 106.884 234.129 106.726 233.686C106.568 233.244 106.321 232.839 106 232.496C105.679 232.153 105.292 231.879 104.861 231.692C104.43 231.506 103.965 231.409 103.496 231.409C103.026 231.409 102.561 231.506 102.13 231.692C101.7 231.879 101.312 232.153 100.991 232.496C100.67 232.839 100.423 233.244 100.265 233.686C100.107 234.129 100.042 234.599 100.073 235.067C100.042 235.536 100.107 236.006 100.265 236.448C100.423 236.891 100.67 237.296 100.991 237.639C101.312 237.982 101.7 238.255 102.13 238.442C102.561 238.629 103.026 238.725 103.496 238.725C103.965 238.725 104.43 238.629 104.861 238.442C105.292 238.255 105.679 237.982 106 237.639C106.321 237.296 106.568 236.891 106.726 236.448C106.884 236.006 106.949 235.536 106.918 235.067Z" fill="#33372C"/>
<path d="M117.557 233.975V239.666H116.373V238.148C116.032 238.662 115.559 239.073 115.003 239.34C114.448 239.608 113.831 239.72 113.217 239.666C111.137 239.666 109.862 238.573 109.862 236.995C109.862 235.416 110.773 234.384 113.399 234.384H116.313V233.823C116.313 232.305 115.432 231.394 113.717 231.394C112.607 231.384 111.531 231.772 110.682 232.487L110.12 231.561C111.182 230.724 112.502 230.284 113.854 230.317C114.353 230.244 114.862 230.289 115.341 230.446C115.82 230.604 116.257 230.87 116.615 231.224C116.974 231.579 117.246 232.012 117.409 232.489C117.573 232.966 117.623 233.475 117.557 233.975ZM116.313 236.904V235.386H113.444C111.653 235.386 111.076 236.084 111.076 237.025C111.076 237.966 111.942 238.755 113.399 238.755C114.017 238.793 114.632 238.634 115.156 238.301C115.679 237.969 116.084 237.48 116.313 236.904Z" fill="#33372C"/>
<path d="M119.652 238.619L120.213 237.632C121.164 238.313 122.307 238.674 123.477 238.664C125.222 238.664 125.935 238.072 125.935 237.147C125.935 234.764 119.986 236.646 119.986 233.018C119.986 231.501 121.276 230.393 123.613 230.393C124.753 230.378 125.875 230.672 126.861 231.243L126.315 232.244C125.517 231.71 124.573 231.434 123.613 231.455C121.959 231.455 121.215 232.108 121.215 232.973C121.215 235.462 127.18 233.595 127.18 237.116C127.18 238.71 125.784 239.742 123.385 239.742C122.052 239.78 120.743 239.386 119.652 238.619Z" fill="#33372C"/>
<path d="M128.181 238.619L128.743 237.632C129.694 238.313 130.837 238.674 132.006 238.664C133.751 238.664 134.465 238.072 134.465 237.147C134.465 234.764 128.515 236.646 128.515 233.018C128.515 231.501 129.805 230.393 132.143 230.393C133.283 230.374 134.406 230.668 135.391 231.243L134.859 232.244C134.055 231.71 133.108 231.435 132.143 231.455C130.488 231.455 129.76 232.108 129.76 232.973C129.76 235.462 135.709 233.595 135.709 237.116C135.709 238.71 134.313 239.742 131.915 239.742C130.582 239.778 129.273 239.384 128.181 238.619Z" fill="#33372C"/>
<path d="M151.297 230.484L147.76 239.666H146.592L143.693 232.077L140.794 239.666H139.625L136.165 230.484H137.364L140.232 238.285L143.192 230.484H144.254L147.184 238.285L150.098 230.484H151.297Z" fill="#33372C"/>
<path d="M151.98 235.067C151.983 234.143 152.259 233.241 152.775 232.474C153.29 231.708 154.021 231.111 154.876 230.759C155.73 230.408 156.67 230.317 157.576 230.499C158.481 230.682 159.313 231.128 159.965 231.782C160.617 232.437 161.061 233.27 161.24 234.176C161.419 235.082 161.326 236.021 160.972 236.875C160.617 237.728 160.018 238.457 159.25 238.97C158.481 239.483 157.578 239.757 156.654 239.757C156.035 239.774 155.418 239.664 154.842 239.434C154.266 239.204 153.744 238.859 153.306 238.42C152.868 237.981 152.525 237.457 152.297 236.88C152.069 236.304 151.961 235.687 151.98 235.067ZM160.054 235.067C160.021 234.399 159.793 233.756 159.398 233.216C159.003 232.677 158.458 232.265 157.831 232.032C157.204 231.8 156.522 231.757 155.871 231.908C155.219 232.059 154.627 232.398 154.166 232.883C153.706 233.368 153.398 233.978 153.281 234.636C153.164 235.295 153.243 235.973 153.508 236.587C153.773 237.201 154.212 237.724 154.771 238.09C155.331 238.457 155.986 238.651 156.654 238.649C157.118 238.656 157.579 238.567 158.007 238.388C158.435 238.208 158.821 237.941 159.14 237.604C159.46 237.268 159.706 236.868 159.863 236.432C160.021 235.995 160.086 235.53 160.054 235.067Z" fill="#33372C"/>
<path d="M168.477 230.408V231.607H168.174C167.744 231.604 167.319 231.692 166.925 231.866C166.532 232.04 166.181 232.296 165.894 232.615C165.607 232.935 165.391 233.313 165.261 233.722C165.131 234.132 165.089 234.564 165.138 234.991V239.681H163.909V230.499H165.093V232.29C165.407 231.676 165.896 231.169 166.499 230.834C167.101 230.499 167.79 230.35 168.477 230.408Z" fill="#33372C"/>
<path d="M178.995 226.705V239.666H177.812V237.83C177.443 238.435 176.919 238.931 176.295 239.267C175.671 239.603 174.969 239.767 174.26 239.742C173.02 239.742 171.831 239.249 170.955 238.373C170.078 237.496 169.585 236.307 169.585 235.067C169.585 233.827 170.078 232.638 170.955 231.762C171.831 230.885 173.02 230.393 174.26 230.393C174.95 230.367 175.635 230.522 176.247 230.841C176.859 231.16 177.377 231.633 177.751 232.214V226.689L178.995 226.705ZM177.781 235.067C177.749 234.4 177.521 233.757 177.126 233.218C176.732 232.678 176.188 232.267 175.562 232.034C174.935 231.801 174.255 231.756 173.604 231.906C172.953 232.057 172.36 232.394 171.899 232.878C171.438 233.361 171.129 233.97 171.01 234.627C170.891 235.284 170.968 235.962 171.23 236.577C171.493 237.191 171.93 237.715 172.488 238.083C173.045 238.452 173.698 238.648 174.366 238.649C174.831 238.656 175.292 238.567 175.721 238.388C176.15 238.208 176.536 237.942 176.857 237.605C177.178 237.269 177.426 236.87 177.585 236.433C177.744 235.996 177.811 235.531 177.781 235.067Z" fill="#33372C"/>
<path d="M281.321 228.556V233.352H287.635V234.475H281.321V239.666H280.016V227.433H288.409V228.556H281.321Z" fill="#EC8305"/>
<path d="M289.593 235.067C289.596 234.144 289.872 233.242 290.387 232.476C290.902 231.709 291.632 231.113 292.486 230.761C293.339 230.409 294.278 230.317 295.183 230.498C296.089 230.679 296.92 231.124 297.573 231.777C298.226 232.43 298.671 233.261 298.852 234.167C299.032 235.072 298.941 236.011 298.589 236.864C298.237 237.718 297.64 238.448 296.874 238.963C296.108 239.478 295.206 239.754 294.283 239.757C293.662 239.776 293.043 239.668 292.466 239.439C291.888 239.21 291.364 238.865 290.924 238.426C290.485 237.986 290.14 237.462 289.911 236.884C289.682 236.307 289.574 235.688 289.593 235.067ZM297.682 235.067C297.65 234.399 297.422 233.756 297.026 233.216C296.631 232.677 296.086 232.265 295.459 232.032C294.832 231.8 294.151 231.756 293.499 231.908C292.848 232.059 292.255 232.398 291.795 232.883C291.334 233.368 291.027 233.978 290.909 234.636C290.792 235.295 290.871 235.973 291.136 236.587C291.401 237.201 291.841 237.724 292.4 238.09C292.959 238.457 293.614 238.651 294.283 238.649C294.747 238.656 295.207 238.567 295.635 238.388C296.063 238.208 296.449 237.941 296.769 237.604C297.088 237.268 297.335 236.868 297.492 236.432C297.649 235.995 297.714 235.53 297.682 235.067Z" fill="#EC8305"/>
<path d="M306.091 230.408V231.607H305.802C305.373 231.604 304.947 231.692 304.554 231.866C304.161 232.04 303.81 232.296 303.523 232.615C303.236 232.935 303.02 233.313 302.89 233.722C302.759 234.132 302.718 234.564 302.767 234.991V239.681H301.522V230.499H302.721V232.29C303.034 231.678 303.521 231.173 304.121 230.838C304.721 230.503 305.406 230.353 306.091 230.408Z" fill="#EC8305"/>
<path d="M316.745 230.484V238.543C316.745 241.7 315.228 243.096 312.192 243.096C310.643 243.15 309.125 242.65 307.912 241.685L308.55 240.728C309.561 241.572 310.845 242.02 312.162 241.988C314.484 241.988 315.546 240.926 315.546 238.664V237.48C315.152 238.06 314.616 238.53 313.989 238.843C313.362 239.157 312.665 239.304 311.964 239.271C311.358 239.307 310.75 239.218 310.179 239.01C309.607 238.802 309.085 238.48 308.642 238.063C308.2 237.646 307.848 237.143 307.607 236.584C307.366 236.026 307.242 235.425 307.242 234.817C307.242 234.209 307.366 233.607 307.607 233.049C307.848 232.491 308.2 231.988 308.642 231.571C309.085 231.154 309.607 230.831 310.179 230.624C310.75 230.416 311.358 230.327 311.964 230.362C312.678 230.328 313.389 230.479 314.027 230.801C314.666 231.123 315.21 231.604 315.607 232.199V230.438L316.745 230.484ZM315.546 234.84C315.57 234.145 315.387 233.459 315.019 232.87C314.651 232.28 314.116 231.814 313.481 231.531C312.847 231.247 312.142 231.16 311.458 231.279C310.773 231.399 310.14 231.72 309.639 232.201C309.138 232.683 308.792 233.303 308.645 233.982C308.499 234.661 308.558 235.369 308.816 236.014C309.074 236.659 309.519 237.213 310.093 237.604C310.668 237.995 311.345 238.206 312.04 238.209C312.501 238.239 312.962 238.172 313.395 238.012C313.828 237.853 314.223 237.604 314.553 237.282C314.884 236.96 315.143 236.572 315.314 236.143C315.485 235.715 315.564 235.255 315.546 234.794V234.84Z" fill="#EC8305"/>
<path d="M319.265 235.067C319.268 234.143 319.545 233.241 320.06 232.474C320.575 231.708 321.307 231.111 322.161 230.759C323.015 230.408 323.955 230.317 324.861 230.499C325.766 230.682 326.598 231.128 327.25 231.782C327.902 232.437 328.346 233.27 328.525 234.176C328.704 235.082 328.611 236.021 328.257 236.875C327.903 237.728 327.303 238.457 326.535 238.97C325.767 239.483 324.863 239.757 323.939 239.757C323.32 239.774 322.703 239.664 322.127 239.434C321.552 239.204 321.029 238.859 320.591 238.42C320.153 237.981 319.81 237.457 319.582 236.88C319.354 236.304 319.246 235.687 319.265 235.067ZM327.339 235.067C327.306 234.399 327.078 233.756 326.683 233.216C326.288 232.677 325.743 232.265 325.116 232.032C324.489 231.8 323.807 231.757 323.156 231.908C322.505 232.059 321.912 232.398 321.451 232.883C320.991 233.368 320.683 233.978 320.566 234.636C320.449 235.295 320.528 235.973 320.793 236.587C321.058 237.201 321.497 237.724 322.057 238.09C322.616 238.457 323.271 238.651 323.939 238.649C324.406 238.661 324.87 238.575 325.302 238.397C325.733 238.219 326.123 237.953 326.446 237.616C326.769 237.279 327.017 236.878 327.177 236.439C327.336 236 327.401 235.533 327.37 235.067H327.339Z" fill="#EC8305"/>
<path d="M335.96 239.104C335.412 239.55 334.722 239.782 334.017 239.757C333.656 239.795 333.292 239.752 332.949 239.631C332.607 239.511 332.296 239.315 332.039 239.059C331.782 238.804 331.585 238.494 331.462 238.153C331.34 237.811 331.295 237.447 331.331 237.086V231.531H329.691V230.484H331.406V228.465H332.651V230.484H335.444V231.531H332.651V237.01C332.63 237.222 332.653 237.435 332.72 237.637C332.787 237.839 332.895 238.025 333.038 238.183C333.181 238.34 333.356 238.466 333.551 238.551C333.745 238.637 333.956 238.68 334.169 238.679C334.662 238.694 335.142 238.527 335.52 238.209L335.96 239.104Z" fill="#EC8305"/>
<path d="M343.548 230.56C343.548 229.315 342.516 228.435 340.725 228.435C340.1 228.396 339.474 228.503 338.897 228.748C338.32 228.993 337.808 229.369 337.401 229.846L336.476 229.148C337.012 228.534 337.683 228.052 338.435 227.739C339.188 227.425 340.003 227.29 340.816 227.342C343.26 227.342 344.838 228.511 344.838 230.377C344.838 233.413 341.636 233.504 341.636 235.993H340.346C340.3 233.109 343.548 232.851 343.548 230.56ZM340.088 238.846C340.086 238.727 340.108 238.608 340.153 238.498C340.198 238.387 340.266 238.287 340.351 238.203C340.436 238.119 340.537 238.054 340.649 238.01C340.76 237.967 340.879 237.947 340.998 237.951C341.119 237.947 341.238 237.967 341.35 238.01C341.463 238.053 341.565 238.119 341.651 238.202C341.738 238.286 341.806 238.386 341.853 238.497C341.9 238.607 341.924 238.726 341.924 238.846C341.92 239.089 341.821 239.321 341.648 239.491C341.475 239.662 341.241 239.757 340.998 239.757C340.875 239.763 340.752 239.744 340.636 239.701C340.52 239.658 340.414 239.592 340.325 239.507C340.235 239.422 340.164 239.319 340.116 239.206C340.067 239.092 340.042 238.97 340.042 238.846H340.088Z" fill="#EC8305"/>
<path d="M355.417 255.39C356.047 255.353 356.644 255.095 357.102 254.661C358.21 253.811 357.739 251.747 357.83 249.364C357.83 244.462 357.83 237.222 357.754 228.01C357.754 225.703 357.754 223.244 357.754 220.679V218.721C357.792 218.076 357.751 217.429 357.633 216.794C357.53 216.493 357.368 216.217 357.157 215.98C356.946 215.743 356.69 215.55 356.404 215.412C355.764 215.199 355.086 215.127 354.415 215.2H336.066H291.338L32.2908 215.321C31.9565 215.317 31.626 215.393 31.3274 215.544C31.0289 215.695 30.771 215.915 30.5758 216.187C30.1956 216.792 30.0499 217.515 30.166 218.22V251.034C30.166 251.777 30.166 252.658 30.166 253.28C30.2225 253.603 30.3533 253.908 30.5483 254.172C30.7432 254.435 30.9969 254.649 31.2891 254.798C31.5772 254.941 31.8933 255.019 32.2149 255.025H62.8429H131.627H248.083L326.595 255.147L248.083 255.268L131.627 255.359H32.2149C31.5442 255.357 30.8954 255.12 30.3802 254.691C29.865 254.262 29.5155 253.666 29.3919 253.007C29.2857 252.096 29.3919 251.489 29.3919 250.624V218.311C29.3707 217.897 29.3707 217.481 29.3919 217.067C29.4568 216.611 29.6341 216.178 29.908 215.807C30.1779 215.437 30.5321 215.137 30.9412 214.931C31.3503 214.725 31.8025 214.62 32.2605 214.623L291.308 214.729H336.036H354.385C355.109 214.658 355.839 214.746 356.525 214.988C356.858 215.145 357.155 215.369 357.398 215.645C357.641 215.922 357.824 216.246 357.937 216.596C358.071 217.265 358.117 217.949 358.073 218.63C358.073 219.298 358.073 219.935 358.073 220.588C358.073 223.153 358.073 225.612 358.073 227.919C358.073 237.177 358.073 244.371 357.997 249.273C357.997 250.487 357.997 251.565 357.997 252.491C358.032 252.886 357.977 253.285 357.835 253.656C357.693 254.026 357.468 254.36 357.178 254.631C356.953 254.873 356.681 255.066 356.378 255.196C356.074 255.327 355.747 255.393 355.417 255.39Z" fill="#33372C"/>
<path d="M160.949 401.745L161.465 400.743C162.569 401.734 164.004 402.276 165.487 402.261C167.779 402.261 168.781 401.305 168.781 400.106C168.781 396.752 161.192 398.801 161.192 394.278C161.192 392.487 162.589 390.939 165.746 390.939C167.084 390.92 168.398 391.295 169.525 392.016L169.1 393.048C168.099 392.401 166.937 392.049 165.746 392.032C163.499 392.032 162.513 393.033 162.513 394.247C162.513 397.602 170.101 395.583 170.101 400.03C170.101 401.821 168.66 403.369 165.548 403.369C163.865 403.428 162.222 402.848 160.949 401.745Z" fill="#263238"/>
<path d="M172.317 391.121C172.319 391.003 172.344 390.887 172.391 390.779C172.438 390.672 172.506 390.574 172.59 390.492C172.675 390.41 172.775 390.346 172.884 390.303C172.994 390.26 173.11 390.239 173.228 390.241C173.401 390.247 173.568 390.303 173.709 390.404C173.849 390.504 173.957 390.643 174.019 390.805C174.081 390.966 174.095 391.142 174.057 391.311C174.02 391.479 173.934 391.633 173.81 391.753C173.685 391.873 173.528 391.954 173.359 391.986C173.189 392.018 173.013 391.998 172.854 391.931C172.695 391.864 172.559 391.751 172.464 391.607C172.368 391.463 172.317 391.294 172.317 391.121ZM172.591 394.02H173.835V403.126H172.591V394.02Z" fill="#263238"/>
<path d="M197.026 397.875V403.263H195.782V398.057C195.841 397.675 195.812 397.284 195.698 396.914C195.583 396.544 195.386 396.205 195.121 395.923C194.857 395.641 194.531 395.423 194.17 395.285C193.808 395.147 193.42 395.093 193.034 395.128C192.597 395.1 192.158 395.167 191.749 395.324C191.339 395.482 190.969 395.726 190.663 396.041C190.357 396.355 190.123 396.732 189.977 397.146C189.831 397.559 189.776 398 189.817 398.436V403.263H188.572V394.156H189.756V395.674C190.133 395.097 190.656 394.63 191.272 394.321C191.887 394.012 192.574 393.871 193.262 393.914C193.785 393.87 194.31 393.945 194.8 394.132C195.29 394.318 195.732 394.612 196.093 394.993C196.454 395.373 196.725 395.829 196.887 396.328C197.048 396.827 197.096 397.355 197.026 397.875Z" fill="#263238"/>
<path d="M185.78 394.02V402.079C185.78 405.236 184.262 406.632 181.226 406.632C179.676 406.692 178.157 406.19 176.946 405.221L177.569 404.265C178.582 405.106 179.864 405.553 181.181 405.524C183.503 405.524 184.565 404.462 184.565 402.2V401.032C184.171 401.607 183.636 402.072 183.012 402.382C182.388 402.693 181.695 402.839 180.999 402.807C180.392 402.843 179.784 402.754 179.213 402.546C178.642 402.338 178.119 402.016 177.677 401.599C177.234 401.182 176.882 400.679 176.641 400.12C176.401 399.562 176.276 398.961 176.276 398.353C176.276 397.745 176.401 397.144 176.641 396.585C176.882 396.027 177.234 395.524 177.677 395.107C178.119 394.69 178.642 394.368 179.213 394.16C179.784 393.952 180.392 393.863 180.999 393.898C181.71 393.865 182.418 394.017 183.054 394.339C183.69 394.661 184.231 395.142 184.626 395.735V393.974L185.78 394.02ZM184.581 398.376C184.605 397.678 184.419 396.989 184.048 396.398C183.677 395.807 183.137 395.341 182.498 395.06C181.859 394.778 181.15 394.695 180.463 394.821C179.777 394.947 179.144 395.275 178.646 395.764C178.148 396.254 177.808 396.881 177.67 397.565C177.532 398.249 177.602 398.959 177.872 399.603C178.142 400.247 178.598 400.795 179.183 401.177C179.767 401.559 180.452 401.757 181.15 401.745C181.601 401.764 182.05 401.69 182.471 401.528C182.891 401.366 183.274 401.12 183.596 400.804C183.917 400.488 184.171 400.11 184.34 399.692C184.509 399.274 184.591 398.826 184.581 398.376Z" fill="#263238"/>
<path d="M213.964 394.02V403.126H212.78V401.442C212.439 402.008 211.952 402.472 211.37 402.784C210.788 403.097 210.132 403.246 209.471 403.217C208.945 403.266 208.413 403.196 207.917 403.014C207.42 402.831 206.97 402.541 206.6 402.163C206.229 401.785 205.947 401.33 205.775 400.83C205.602 400.329 205.543 399.797 205.601 399.271V393.944H206.846V399.15C206.846 401.093 207.847 402.094 209.593 402.094C210.026 402.109 210.457 402.032 210.858 401.866C211.258 401.701 211.619 401.452 211.915 401.135C212.211 400.819 212.436 400.443 212.575 400.032C212.714 399.622 212.763 399.186 212.719 398.755V393.944L213.964 394.02Z" fill="#263238"/>
<path d="M226.683 398.603C226.714 399.216 226.619 399.829 226.403 400.403C226.187 400.977 225.855 401.5 225.428 401.94C225.001 402.38 224.487 402.728 223.92 402.961C223.352 403.193 222.743 403.307 222.129 403.293C221.44 403.313 220.758 403.156 220.147 402.837C219.536 402.518 219.017 402.048 218.639 401.472V406.587H217.394V394.02H218.593V395.826C218.964 395.228 219.487 394.74 220.108 394.409C220.729 394.079 221.426 393.918 222.129 393.944C222.741 393.929 223.348 394.04 223.915 394.27C224.481 394.5 224.994 394.844 225.421 395.282C225.849 395.719 226.181 396.239 226.398 396.811C226.615 397.383 226.712 397.993 226.683 398.603ZM225.438 398.603C225.408 397.932 225.182 397.283 224.787 396.739C224.391 396.195 223.845 395.779 223.215 395.543C222.586 395.307 221.9 395.262 221.245 395.412C220.59 395.562 219.993 395.902 219.529 396.388C219.065 396.875 218.754 397.487 218.635 398.149C218.516 398.811 218.595 399.493 218.861 400.111C219.126 400.729 219.568 401.255 220.13 401.623C220.692 401.992 221.351 402.188 222.023 402.185C222.492 402.199 222.959 402.114 223.394 401.938C223.829 401.761 224.222 401.496 224.549 401.159C224.876 400.822 225.129 400.421 225.293 399.981C225.456 399.541 225.526 399.072 225.499 398.603H225.438Z" fill="#263238"/>
<path d="M355.417 418.258C356.045 418.225 356.641 417.972 357.102 417.545C358.21 416.68 357.739 414.616 357.83 412.233C357.83 407.33 357.83 400.091 357.754 390.878C357.754 388.571 357.754 386.112 357.754 383.547V381.59C357.792 380.945 357.751 380.297 357.633 379.662C357.53 379.362 357.368 379.085 357.157 378.848C356.946 378.611 356.69 378.418 356.404 378.281C355.764 378.068 355.086 377.995 354.415 378.068H336.066H291.338L32.2907 378.19C31.957 378.189 31.6278 378.267 31.3299 378.418C31.0319 378.568 30.7735 378.786 30.5757 379.055C30.1956 379.66 30.0498 380.384 30.1659 381.089V413.887C30.1659 414.631 30.1659 415.511 30.1659 416.133C30.2201 416.457 30.3501 416.763 30.5453 417.027C30.7405 417.291 30.9953 417.505 31.289 417.651C31.5746 417.801 31.8923 417.879 32.2148 417.879H62.8428H131.627L248.083 417.955L326.595 418.091H347.935L326.595 418.167L248.083 418.288L131.627 418.38H32.2148C31.7717 418.368 31.3366 418.259 30.94 418.061C30.544 417.862 30.2002 417.573 29.9366 417.217C29.6729 416.862 29.4967 416.449 29.4222 416.012C29.316 415.101 29.4222 414.494 29.4222 413.629V381.18C29.4009 380.765 29.4009 380.35 29.4222 379.935C29.4871 379.479 29.6644 379.046 29.9382 378.676C30.2082 378.306 30.5624 378.005 30.9715 377.799C31.3805 377.593 31.8328 377.488 32.2907 377.492L291.338 377.598H336.066H354.415C355.139 377.527 355.869 377.615 356.555 377.856C356.888 378.013 357.185 378.237 357.428 378.514C357.671 378.79 357.854 379.114 357.967 379.465C358.101 380.134 358.147 380.818 358.103 381.499C358.103 382.166 358.103 382.819 358.103 383.456C358.103 386.021 358.103 388.48 358.103 390.787C358.103 400.045 358.103 407.239 358.028 412.142C358.028 413.356 358.028 414.433 358.028 415.359C358.064 415.755 358.009 416.154 357.867 416.525C357.725 416.896 357.499 417.229 357.208 417.499C356.98 417.745 356.703 417.94 356.394 418.071C356.085 418.202 355.752 418.266 355.417 418.258Z" fill="#263238"/>
<path d="M341.105 302.667H46.5575C37.2783 302.667 29.7561 310.189 29.7561 319.469V326.238C29.7561 335.517 37.2783 343.039 46.5575 343.039H341.105C350.384 343.039 357.906 335.517 357.906 326.238V319.469C357.906 310.189 350.384 302.667 341.105 302.667Z" fill="#091057"/>
<path d="M168.75 315.674H170.041V326.784H176.886V327.907H168.75V315.674Z" fill="white"/>
<path d="M177.705 323.308C177.705 322.385 177.979 321.481 178.492 320.713C179.005 319.945 179.734 319.345 180.587 318.991C181.441 318.637 182.38 318.543 183.286 318.723C184.193 318.902 185.026 319.345 185.68 319.998C186.334 320.65 186.781 321.481 186.963 322.387C187.145 323.293 187.055 324.232 186.703 325.087C186.352 325.941 185.755 326.672 184.988 327.188C184.221 327.703 183.319 327.98 182.395 327.983C181.775 328.002 181.158 327.894 180.582 327.666C180.005 327.438 179.482 327.095 179.042 326.657C178.603 326.219 178.258 325.696 178.028 325.121C177.798 324.545 177.688 323.928 177.705 323.308ZM185.795 323.308C185.762 322.641 185.534 321.997 185.139 321.457C184.744 320.918 184.199 320.506 183.572 320.274C182.945 320.041 182.263 319.998 181.612 320.149C180.96 320.3 180.368 320.639 179.907 321.125C179.447 321.61 179.139 322.219 179.022 322.878C178.905 323.536 178.984 324.214 179.249 324.828C179.514 325.442 179.953 325.965 180.512 326.332C181.072 326.698 181.726 326.892 182.395 326.89C182.859 326.898 183.32 326.809 183.748 326.629C184.176 326.449 184.562 326.182 184.881 325.846C185.201 325.509 185.447 325.11 185.604 324.673C185.761 324.236 185.826 323.772 185.795 323.308Z" fill="white"/>
<path d="M198.088 318.71V326.784C198.088 329.941 196.571 331.337 193.535 331.337C191.985 331.401 190.464 330.899 189.255 329.926L189.893 328.985C190.903 329.831 192.188 330.279 193.505 330.245C195.827 330.245 196.889 329.182 196.889 326.906V325.737C196.491 326.311 195.953 326.775 195.327 327.085C194.701 327.396 194.006 327.543 193.308 327.513C192.128 327.513 190.997 327.044 190.163 326.21C189.329 325.376 188.861 324.245 188.861 323.066C188.861 321.886 189.329 320.755 190.163 319.921C190.997 319.087 192.128 318.619 193.308 318.619C194.02 318.584 194.728 318.735 195.364 319.057C196 319.379 196.541 319.861 196.935 320.455V318.679L198.088 318.71ZM196.874 323.081C196.898 322.386 196.714 321.699 196.346 321.109C195.977 320.52 195.441 320.053 194.806 319.77C194.17 319.488 193.465 319.401 192.78 319.522C192.095 319.642 191.462 319.965 190.961 320.448C190.461 320.931 190.116 321.552 189.971 322.232C189.826 322.913 189.888 323.621 190.148 324.266C190.409 324.911 190.856 325.463 191.432 325.852C192.008 326.242 192.688 326.45 193.383 326.45C193.839 326.48 194.296 326.414 194.725 326.257C195.154 326.1 195.545 325.855 195.874 325.538C196.203 325.22 196.462 324.838 196.634 324.415C196.806 323.992 196.888 323.537 196.874 323.081Z" fill="white"/>
<path d="M205.844 315.811C205.844 315.569 205.94 315.338 206.111 315.167C206.282 314.996 206.513 314.9 206.755 314.9C206.996 314.9 207.228 314.996 207.399 315.167C207.569 315.338 207.665 315.569 207.665 315.811C207.665 316.052 207.569 316.284 207.399 316.455C207.228 316.626 206.996 316.722 206.755 316.722C206.513 316.722 206.282 316.626 206.111 316.455C205.94 316.284 205.844 316.052 205.844 315.811ZM206.117 318.71H207.362V327.907H206.117V318.71Z" fill="white"/>
<path d="M219.276 322.58V327.907H218.032V322.701C218.088 322.318 218.056 321.926 217.94 321.556C217.824 321.185 217.626 320.846 217.36 320.563C217.095 320.28 216.769 320.061 216.407 319.921C216.045 319.782 215.656 319.726 215.269 319.757C214.83 319.729 214.39 319.796 213.98 319.954C213.569 320.113 213.198 320.359 212.892 320.675C212.586 320.991 212.352 321.37 212.207 321.785C212.062 322.201 212.009 322.643 212.052 323.081V327.907H210.822V318.71H212.006V320.41C212.377 319.83 212.897 319.361 213.511 319.052C214.125 318.742 214.811 318.603 215.497 318.649C216.017 318.607 216.54 318.681 217.028 318.866C217.516 319.051 217.957 319.342 218.319 319.718C218.68 320.095 218.954 320.547 219.119 321.041C219.285 321.536 219.338 322.062 219.276 322.58Z" fill="white"/>
</g>
<defs>
<clipPath id="clip0_71_196">
<rect width="388" height="486" fill="white"/>
</clipPath>
</defs>
</svg>
