<svg width="660" height="496" viewBox="0 0 660 496" fill="none" xmlns="http://www.w3.org/2000/svg">
<g clip-path="url(#clip0_71_282)">
<path d="M659.791 492.782C659.791 493.009 512.085 493.176 329.911 493.176C147.737 493.176 0 493.024 0 492.782C0 492.539 147.691 492.387 329.926 492.387C512.16 492.387 659.791 492.584 659.791 492.782Z" fill="black"/>
<path d="M32.7831 474.311L30.8252 485.466L32.4795 485.83C39.8861 487.348 70.2257 493.282 75.4467 492.539C81.2748 491.704 59.0855 482.977 59.0855 482.977L59.7836 478.257L32.7831 474.311Z" fill="#091057"/>
<g opacity="0.5">
<path d="M40.6601 486.711C40.6159 484.366 39.7017 482.121 38.0951 480.412C36.5231 478.689 34.3502 477.636 32.0242 477.468L30.8403 485.056L40.6601 486.711Z" fill="white"/>
</g>
<g opacity="0.5">
<path d="M69.816 487.637C69.816 487.637 77.5109 491.218 76.3119 492.387C75.1129 493.556 44.2118 488.775 30.7798 485.466L30.9164 484.874L66.8868 490.763C66.8868 490.763 68.2983 487.47 69.816 487.637Z" fill="white"/>
</g>
<path d="M30.5369 484.783C30.6821 484.845 30.8354 484.886 30.9922 484.905L32.3126 485.193L37.1997 486.164C41.328 486.969 47.0498 487.986 53.3788 488.972C59.7078 489.959 65.5207 490.718 69.6641 491.218L74.612 491.78L75.9627 491.917H76.4332L75.9627 491.825L74.6271 491.643L69.6945 490.976C65.5207 490.414 59.7685 489.61 53.4395 488.623C47.1106 487.637 41.2976 486.65 37.2453 485.922L32.343 485.056L31.0074 484.829L30.5369 484.783Z" fill="black"/>
<path d="M66.8564 491.173C67.2061 490.395 67.6386 489.657 68.1465 488.972C68.7357 488.359 69.3925 487.814 70.1044 487.348C69.2153 487.525 68.4248 488.029 67.8885 488.76C67.2661 489.414 66.8998 490.271 66.8564 491.173Z" fill="black"/>
<path d="M59.5104 485.891C59.5104 485.891 60.0264 485.542 60.5273 484.98C61.0281 484.419 61.3468 483.918 61.2861 483.857C61.2254 483.797 60.7549 484.206 60.2692 484.768C59.7836 485.33 59.4345 485.83 59.5104 485.891Z" fill="black"/>
<path d="M57.4919 484.389C57.4919 484.389 58.0231 484.252 58.5543 483.903C59.0855 483.554 59.4649 483.22 59.4194 483.144C59.3739 483.068 58.9033 483.281 58.3721 483.63C57.8409 483.979 57.4463 484.313 57.4919 484.389Z" fill="black"/>
<path d="M56.3081 479.744C56.7295 480.131 57.2591 480.38 57.8258 480.458C58.369 480.63 58.9522 480.63 59.4954 480.458C58.9996 480.297 58.4922 480.175 57.9776 480.093C57.4321 479.93 56.8735 479.813 56.3081 479.744Z" fill="black"/>
<path d="M60.7854 483.675C61.3503 483.851 61.9391 483.939 62.5308 483.933C63.1706 483.948 63.8104 483.908 64.4431 483.812C64.8261 483.761 65.2026 483.669 65.5663 483.539C65.7907 483.451 65.9746 483.284 66.0823 483.068C66.1314 482.943 66.1432 482.806 66.1163 482.674C66.0894 482.542 66.0249 482.421 65.9305 482.324C65.3178 481.898 64.5765 481.697 63.8323 481.755C63.0881 481.813 62.3869 482.127 61.8478 482.643C61.5245 482.947 61.2663 483.314 61.0889 483.721C60.9827 484.009 60.9523 484.176 60.9827 484.191C61.2375 483.679 61.5819 483.216 61.9996 482.825C62.4659 482.432 63.0343 482.179 63.6387 482.097C63.9933 482.03 64.3577 482.037 64.7098 482.115C65.0619 482.193 65.3946 482.342 65.6877 482.552C65.9305 482.795 65.6877 483.114 65.4297 483.235C65.0971 483.365 64.7509 483.457 64.3976 483.508C63.7815 483.621 63.1571 483.682 62.5308 483.69C61.4684 483.675 60.8006 483.675 60.7854 483.675Z" fill="black"/>
<path d="M61.2256 483.827C61.2256 483.827 61.5747 483.448 61.6202 482.658C61.6344 482.191 61.5354 481.728 61.3319 481.308C61.2266 481.027 61.0514 480.778 60.823 480.584C60.5946 480.39 60.3205 480.258 60.0266 480.2C59.9369 480.203 59.8488 480.225 59.7675 480.263C59.6861 480.301 59.613 480.355 59.5524 480.421C59.4917 480.487 59.4448 480.565 59.4142 480.649C59.3836 480.734 59.3699 480.823 59.374 480.913C59.3706 481.2 59.4275 481.484 59.5409 481.748C59.7103 482.162 59.9295 482.555 60.1936 482.916C60.6641 483.539 61.0587 483.812 61.089 483.781C61.1194 483.751 60.7855 483.417 60.3909 482.795C60.165 482.425 59.9769 482.034 59.8293 481.626C59.6472 481.232 59.5865 480.549 60.0266 480.533C60.4668 480.518 60.8462 481.065 61.0587 481.444C61.2484 481.822 61.3569 482.236 61.3774 482.658C61.3654 483.052 61.3146 483.443 61.2256 483.827Z" fill="black"/>
<path d="M32.2368 477.468C32.2368 477.468 33.0109 477.468 34.225 477.847C35.7872 478.281 37.1997 479.137 38.3078 480.321C39.3907 481.529 40.1251 483.008 40.4326 484.601C40.6603 485.815 40.5844 486.604 40.6451 486.604C40.7043 486.428 40.7351 486.244 40.7361 486.058C40.7586 485.551 40.7332 485.043 40.6603 484.54C40.4166 482.876 39.682 481.323 38.5506 480.078C37.3972 478.852 35.9088 477.992 34.2706 477.604C33.7726 477.49 33.2638 477.429 32.7528 477.422C32.5795 477.408 32.4049 477.423 32.2368 477.468Z" fill="black"/>
<path d="M44.4697 484.662C45.7195 485.152 47.0242 485.488 48.3551 485.663C49.6721 485.937 51.0195 486.034 52.362 485.952C52.362 485.861 50.5862 485.694 48.4158 485.33C46.2455 484.965 44.5001 484.571 44.4697 484.662Z" fill="black"/>
<path d="M39.1727 483.827C39.0968 483.827 39.2638 484.222 39.37 484.662C39.4763 485.102 39.537 485.466 39.628 485.481C39.7191 485.496 39.8405 485.072 39.628 484.571C39.4156 484.07 39.2334 483.766 39.1727 483.827Z" fill="black"/>
<path d="M37.564 481.034C37.564 481.034 37.564 481.399 37.8523 481.717C38.1407 482.036 38.338 482.264 38.4139 482.218C38.4898 482.173 38.4139 481.854 38.1255 481.52C37.8372 481.186 37.6399 480.974 37.564 481.034Z" fill="black"/>
<path d="M34.908 479.456C34.908 479.547 35.2722 479.593 35.6517 479.805C36.0311 480.017 36.2739 480.26 36.3498 480.215C36.4257 480.169 36.3498 479.744 35.8034 479.501C35.257 479.259 34.908 479.365 34.908 479.456Z" fill="black"/>
<path d="M32.9197 478.606C32.9197 478.606 33.0107 478.849 33.2232 478.97C33.4357 479.092 33.6482 479.122 33.6937 479.046C33.7393 478.97 33.6027 478.803 33.3902 478.682C33.1777 478.56 32.9652 478.515 32.9197 478.606Z" fill="black"/>
<path d="M175.147 483.842L176.164 495.134L177.864 495.058C185.452 494.633 216.232 492.387 221.089 490.308C226.492 487.986 202.876 485.36 202.876 485.36L202.314 480.625L175.147 483.842Z" fill="#091057"/>
<g opacity="0.5">
<path d="M185.999 493.829C185.344 491.577 183.879 489.647 181.886 488.411C179.927 487.176 177.577 486.721 175.299 487.136L176.149 494.724L185.999 493.829Z" fill="white"/>
</g>
<g opacity="0.5">
<path d="M214.426 487.045C214.426 487.045 222.789 488.471 221.924 489.928C221.058 491.385 190.051 494.815 176.164 495.134V494.527L212.483 490.809C212.483 490.809 212.848 487.287 214.426 487.045Z" fill="white"/>
</g>
<path d="M175.708 494.557H176.179L177.53 494.482L182.508 494.148C186.697 493.829 192.479 493.328 198.869 492.63C205.259 491.932 211.011 491.112 215.17 490.551L220.072 489.746L221.408 489.519C221.561 489.498 221.713 489.467 221.863 489.427H221.392L220.072 489.746L215.124 490.399C210.966 490.945 205.198 491.674 198.824 492.372C192.449 493.07 186.682 493.616 182.478 493.996L177.575 494.299L176.225 494.421L175.708 494.557Z" fill="black"/>
<path d="M212.483 491.264C212.602 490.421 212.821 489.596 213.136 488.805C213.563 488.058 214.072 487.36 214.654 486.726C213.846 487.138 213.216 487.828 212.878 488.669C212.42 489.452 212.279 490.38 212.483 491.264Z" fill="black"/>
<path d="M203.969 488.062C204.045 488.062 204.379 487.591 204.712 486.908C204.953 486.521 205.103 486.086 205.153 485.633C205.153 485.633 204.743 486.104 204.409 486.771C204.075 487.439 203.878 488.016 203.969 488.062Z" fill="black"/>
<path d="M201.631 487.136C201.707 487.136 202.102 486.862 202.527 486.392C202.952 485.921 203.225 485.481 203.164 485.421C203.104 485.36 202.694 485.694 202.269 486.164C201.844 486.635 201.571 487.075 201.631 487.136Z" fill="black"/>
<path d="M199.962 484.722C200.436 484.838 200.93 484.838 201.404 484.722C201.886 484.729 202.364 484.625 202.8 484.419C202.302 484.29 201.78 484.29 201.282 484.419C200.825 484.424 200.375 484.527 199.962 484.722Z" fill="black"/>
<path d="M199.279 482.962C199.783 483.224 200.355 483.325 200.918 483.25C201.484 483.288 202.048 483.145 202.527 482.841C201.984 482.817 201.441 482.843 200.903 482.916C200.361 482.881 199.818 482.896 199.279 482.962Z" fill="black"/>
<path d="M204.621 485.572C205.21 485.613 205.802 485.546 206.367 485.375C206.993 485.229 207.603 485.021 208.188 484.753C208.546 484.609 208.887 484.426 209.205 484.206C209.401 484.063 209.536 483.852 209.584 483.614C209.594 483.48 209.566 483.345 209.505 483.225C209.443 483.104 209.35 483.003 209.235 482.932C208.532 482.684 207.765 482.687 207.063 482.938C206.361 483.19 205.767 483.675 205.38 484.313C205.141 484.683 204.99 485.104 204.94 485.542C204.901 485.702 204.901 485.868 204.94 486.028C205.066 485.49 205.281 484.976 205.577 484.51C205.913 484 206.394 483.604 206.959 483.372C207.284 483.218 207.637 483.132 207.997 483.116C208.356 483.1 208.715 483.156 209.053 483.281C209.357 483.448 209.281 483.797 209.053 484.009C208.764 484.218 208.454 484.396 208.127 484.54C207.559 484.809 206.97 485.032 206.367 485.208C205.289 485.451 204.621 485.527 204.621 485.572Z" fill="black"/>
<path d="M205.092 485.618C205.243 485.217 205.243 484.774 205.092 484.373C204.994 483.921 204.779 483.503 204.47 483.159C204.301 482.918 204.072 482.724 203.806 482.596C203.54 482.468 203.246 482.411 202.952 482.431C202.78 482.49 202.637 482.612 202.553 482.773C202.468 482.934 202.448 483.121 202.497 483.296C202.575 483.569 202.709 483.822 202.891 484.039C203.162 484.402 203.478 484.729 203.832 485.011C204.139 485.291 204.509 485.494 204.91 485.603C204.91 485.603 204.53 485.33 203.984 484.829C203.667 484.536 203.383 484.21 203.134 483.857C202.846 483.523 202.618 482.871 203.043 482.749C203.468 482.628 203.969 483.038 204.272 483.357C204.554 483.667 204.766 484.035 204.895 484.434C204.994 484.822 205.06 485.218 205.092 485.618Z" fill="black"/>
<path d="M175.435 487.045C175.435 487.045 176.209 486.893 177.454 486.893C179.077 486.89 180.667 487.348 182.04 488.213C183.412 489.078 184.512 490.315 185.21 491.78C185.756 492.903 185.877 493.692 185.938 493.677C185.999 493.662 185.938 493.465 185.938 493.116C185.842 492.624 185.69 492.145 185.483 491.689C184.818 490.144 183.701 488.837 182.278 487.94C180.856 487.043 179.195 486.599 177.515 486.665C177.003 486.67 176.493 486.736 175.997 486.862C175.802 486.895 175.612 486.956 175.435 487.045Z" fill="black"/>
<path d="M189.125 490.793C190.461 490.961 191.812 490.961 193.147 490.793C194.489 490.703 195.814 490.448 197.093 490.035C197.093 489.928 195.302 490.247 193.117 490.459C190.931 490.672 189.125 490.687 189.125 490.793Z" fill="black"/>
<path d="M183.798 491.37C183.798 491.446 183.98 491.734 184.208 492.114C184.436 492.493 184.572 492.858 184.678 492.842C184.785 492.827 184.769 492.402 184.496 491.947C184.223 491.492 183.844 491.264 183.798 491.37Z" fill="black"/>
<path d="M181.506 489.094C181.506 489.169 181.658 489.427 181.977 489.685C182.295 489.943 182.584 490.08 182.644 490.019C182.705 489.959 182.493 489.685 182.189 489.427C181.886 489.169 181.567 489.018 181.506 489.094Z" fill="black"/>
<path d="M178.516 488.228C178.516 488.32 178.896 488.228 179.321 488.365C179.746 488.502 180.049 488.653 180.11 488.578C180.171 488.502 179.897 488.153 179.381 488.046C178.865 487.94 178.471 488.228 178.516 488.228Z" fill="black"/>
<path d="M176.407 487.955C176.407 488.046 176.559 488.168 176.786 488.228C177.014 488.289 177.226 488.228 177.257 488.228C177.287 488.228 177.105 488.016 176.877 487.955C176.65 487.895 176.422 487.864 176.407 487.955Z" fill="black"/>
<path d="M183.07 55.6732C180.899 44.0625 168.074 37.6121 163.066 26.8362C161.108 22.6776 160.41 17.9878 158.27 13.9203C155.827 9.62972 151.936 6.34923 147.294 4.66665C142.653 2.98406 137.563 3.00935 132.939 4.73798L132.134 5.98251C137.325 16.8798 142.5 24.3623 147.676 35.2444C149.689 38.9658 151.083 42.9897 151.804 47.1587C152.275 51.3628 151.152 55.9767 147.904 58.6783C145.293 60.8335 141.833 61.4861 138.949 63.3681C136.878 64.9199 135.258 66.9941 134.252 69.3782C133.247 71.7624 132.893 74.3709 133.227 76.9367C133.974 82.0906 136.339 86.8738 139.981 90.5963C143.32 94.2541 148.602 97.3806 153.003 95.1495C155.234 93.9961 156.615 91.7498 158.255 89.8526C161.624 85.9824 166.268 83.5237 170.396 80.4882C178.319 74.736 184.876 65.3412 183.07 55.6732Z" fill="black"/>
<path d="M294.684 109.644C291.77 112.3 275.909 125.626 275.909 125.626L260.17 111.298C260.58 110.13 264.435 103.512 264.875 101.858C265.264 100.43 265.397 98.9456 265.27 97.4717C265.195 95.6347 264.868 93.8167 264.299 92.0686C263.6 90.5508 265.149 88.942 266.484 89.7009C267.82 90.4598 269.823 94.6791 269.763 100.113C269.702 105.546 291.011 93.0703 294.046 96.1209L294.684 109.644Z" fill="#FFBE9D"/>
<path d="M159.363 88.2592L211.573 150.744L259.533 107.398L280.448 127.796C280.448 127.796 220.269 194.015 211.087 193.545C201.905 193.074 170.715 172.448 170.715 172.448L159.363 88.2592Z" fill="#091057"/>
<path d="M277.883 78.9554C277.675 78.8861 277.449 78.8995 277.251 78.9928C277.053 79.0861 276.899 79.2521 276.82 79.4562L262.569 115.244C262.439 115.565 262.438 115.924 262.565 116.246C262.692 116.568 262.938 116.829 263.252 116.975L280.098 125.019C280.264 125.097 280.444 125.14 280.627 125.147C280.811 125.154 280.993 125.124 281.165 125.059C281.336 124.994 281.493 124.895 281.625 124.768C281.757 124.641 281.863 124.489 281.935 124.321L297.886 87.2271C297.959 87.0553 297.996 86.8704 297.994 86.6839C297.993 86.4973 297.953 86.3131 297.878 86.1424C297.803 85.9718 297.693 85.8184 297.556 85.6917C297.419 85.565 297.258 85.4677 297.082 85.4058L277.883 78.9554Z" fill="black"/>
<path d="M277.427 81.5355L264.375 113.469L282.026 121.467L295.397 87.6065L277.427 81.5355Z" fill="#F5F5F5"/>
<path d="M272.343 137.1C271.021 136.347 269.776 135.468 268.624 134.474C266.424 132.729 263.479 130.209 260.398 127.219C257.317 124.229 254.737 121.331 252.931 119.175C251.9 118.065 250.989 116.85 250.214 115.548C251.334 116.563 252.384 117.653 253.356 118.811C255.253 120.86 257.909 123.668 260.945 126.643C263.98 129.617 266.864 132.198 268.973 134.034C270.166 134.977 271.292 136.001 272.343 137.1Z" fill="black"/>
<path d="M257.332 113.499C257.439 113.59 256.786 114.106 256.862 115.214C256.881 115.506 256.959 115.792 257.093 116.053C257.226 116.314 257.411 116.545 257.636 116.732C257.938 116.925 258.287 117.032 258.645 117.042C259.003 117.052 259.358 116.964 259.67 116.788C259.982 116.611 260.24 116.353 260.416 116.041C260.593 115.729 260.681 115.375 260.671 115.017C260.628 114.711 260.521 114.417 260.356 114.155C260.191 113.894 259.973 113.67 259.715 113.499C259.188 113.2 258.591 113.043 257.985 113.044C257.985 113.044 258.122 112.862 258.486 112.786C259.003 112.677 259.541 112.758 260.004 113.013C260.361 113.192 260.674 113.451 260.916 113.769C261.158 114.087 261.323 114.457 261.4 114.85C261.448 115.352 261.35 115.856 261.119 116.304C260.887 116.752 260.532 117.123 260.095 117.375C259.658 117.626 259.158 117.746 258.655 117.721C258.152 117.696 257.666 117.526 257.256 117.233C256.952 116.973 256.712 116.646 256.557 116.277C256.401 115.908 256.334 115.507 256.361 115.108C256.378 114.582 256.576 114.078 256.923 113.681C257.105 113.529 257.317 113.469 257.332 113.499Z" fill="black"/>
<path d="M209.539 169.003C209.119 168.151 208.857 167.231 208.765 166.286C208.026 161.774 208.551 157.146 210.283 152.915C210.579 152.012 211.042 151.173 211.649 150.441C210.635 153.406 209.878 156.453 209.387 159.547C209.168 162.698 209.218 165.861 209.539 169.003Z" fill="black"/>
<path d="M217.037 168.517C216.337 167.847 215.766 167.055 215.352 166.18C213.015 162.123 211.692 157.562 211.497 152.884C211.382 151.921 211.439 150.945 211.664 150.001C212.04 153.215 212.613 156.403 213.379 159.547C214.41 162.611 215.631 165.606 217.037 168.517Z" fill="black"/>
<path d="M277.731 87.4851L269.095 108.961L282.026 114.258L291.041 92.3115L277.731 87.4851Z" fill="#EBEBEB"/>
<path d="M281.359 108.659L273.713 105.464C273.149 105.228 272.5 105.494 272.264 106.059L272.118 106.409C271.882 106.973 272.148 107.622 272.713 107.858L280.359 111.054C280.923 111.29 281.572 111.023 281.808 110.459L281.955 110.108C282.19 109.544 281.924 108.895 281.359 108.659Z" fill="#091057"/>
<path d="M288.278 94.6077L278.69 90.9982L278.166 92.3902L287.754 95.9997L288.278 94.6077Z" fill="black"/>
<path d="M286.969 99.4491L276.372 95.4598L275.34 98.2012L285.937 102.19L286.969 99.4491Z" fill="#E0E0E0"/>
<path d="M285.212 103.843L274.616 99.8542L273.584 102.596L284.18 106.585L285.212 103.843Z" fill="#E0E0E0"/>
<path d="M294.122 96.121C291.679 96.5156 288.704 96.7584 286.26 97.1682C285.561 97.2307 284.886 97.4541 284.287 97.8209C284.005 98.0296 283.804 98.3297 283.718 98.6701C283.633 99.0105 283.667 99.3701 283.817 99.6877C284.196 100.371 285.168 100.431 285.957 100.416L291.345 100.234C289.046 100.338 286.768 100.72 284.561 101.372C283.559 101.706 282.436 102.389 282.405 103.452C282.449 103.912 282.652 104.342 282.979 104.669C283.306 104.996 283.736 105.199 284.196 105.243C285.136 105.302 286.079 105.302 287.019 105.243C287.019 105.243 290.707 105.243 290.859 105.789C288.567 105.789 285.517 106.259 283.271 106.472C282.633 106.472 282.345 107.383 282.193 107.99C282.111 108.294 282.132 108.617 282.253 108.908C282.374 109.199 282.587 109.442 282.861 109.598C283.154 109.697 283.465 109.728 283.771 109.69L292.696 109.416" fill="#FFBE9D"/>
<path d="M140.907 84.5103C140.907 84.5103 151.759 83.2354 159.378 88.244C166.253 92.7972 190.385 161.915 189.444 182.435C188.503 202.955 191.129 239.137 195.348 254.042C199.567 268.946 202.755 398.227 169.547 459.816L107.699 451.135L127.035 285.049L125.062 134.383L140.907 84.5103Z" fill="#091057"/>
<g opacity="0.3">
<path d="M137.34 84.5103C137.34 84.5103 148.207 83.2354 155.826 88.244C162.701 92.7972 186.818 161.915 185.892 182.435C184.967 202.955 187.562 239.137 191.796 254.042C196.031 268.946 199.203 398.227 165.995 459.816L109.459 451.135L123.483 285.049L121.419 134.398L137.34 84.5103Z" fill="black"/>
</g>
<path d="M114.604 81.3383C114.604 81.3383 80.5919 77.6805 89.6831 126.294L98.4253 177.441L153.959 211.044C161.457 213.063 155.082 176.136 166.374 159.046C170.609 152.657 170.928 147.876 170.609 144.931C171.687 133.776 162.747 126.825 161.502 115.548C160.106 99.2172 160.167 90.1715 153.064 88.335L114.635 81.3383" fill="#024CAA"/>
<path d="M162.125 111.663C161.543 114.015 161.543 116.474 162.125 118.826C162.801 121.372 163.822 123.813 165.16 126.081C166.833 128.888 168.284 131.821 169.501 134.854C171.476 140.549 171.555 146.73 169.729 152.475C169.188 154.191 168.465 155.844 167.573 157.407C167.267 157.997 166.89 158.548 166.45 159.046C167.544 156.877 168.462 154.623 169.197 152.308C170.81 146.67 170.657 140.674 168.757 135.127C167.553 132.131 166.138 129.225 164.523 126.43C163.202 124.09 162.23 121.569 161.639 118.948C161.246 117.171 161.215 115.333 161.548 113.545C161.641 113.058 161.778 112.58 161.958 112.118C162.019 111.83 162.094 111.647 162.125 111.663Z" fill="black"/>
<path d="M145.096 84.8443C144.291 76.4816 143.578 67.6635 143.578 67.6635C143.578 67.6635 154.202 64.8102 155.022 50.5283C155.826 36.8686 151.713 13.1919 151.713 13.1919V11.9929C135.579 7.19683 116.486 7.43967 106.651 20.8869L114.24 88.7297C115.136 96.6068 122.603 102.131 131.026 101.114C139.632 100.097 145.855 92.8124 145.096 84.8443Z" fill="#FFBE9D"/>
<path d="M151.774 30.4182C151.822 30.8807 151.692 31.3444 151.41 31.7141C151.128 32.0837 150.715 32.3315 150.256 32.4064C150.028 32.4476 149.795 32.4427 149.569 32.3921C149.344 32.3415 149.13 32.2462 148.942 32.1118C148.754 31.9774 148.595 31.8066 148.474 31.6095C148.352 31.4125 148.272 31.1932 148.237 30.9646C148.189 30.502 148.319 30.0384 148.601 29.6687C148.883 29.299 149.296 29.0513 149.755 28.9763C149.983 28.9351 150.216 28.94 150.442 28.9906C150.667 29.0412 150.881 29.1365 151.069 29.271C151.257 29.4054 151.416 29.5762 151.537 29.7732C151.658 29.9702 151.739 30.1896 151.774 30.4182Z" fill="black"/>
<path d="M151.774 28.4299C151.561 28.6879 150.104 27.8228 148.161 28.005C146.219 28.1871 144.898 29.3254 144.656 29.0977C144.413 28.8701 144.656 28.5665 145.308 28.0505C146.09 27.3825 147.061 26.9741 148.086 26.8818C149.095 26.7782 150.111 27.0016 150.984 27.5193C151.576 27.9139 151.774 28.354 151.774 28.4299Z" fill="black"/>
<path d="M131.558 33.0438C131.606 33.5063 131.476 33.9699 131.194 34.3396C130.912 34.7093 130.499 34.957 130.04 35.032C129.807 35.0728 129.568 35.0654 129.337 35.0101C129.107 34.9548 128.891 34.8529 128.702 34.7106C128.512 34.5684 128.354 34.3888 128.237 34.183C128.12 33.9772 128.047 33.7496 128.021 33.5143C127.973 33.0517 128.103 32.5881 128.385 32.2184C128.667 31.8487 129.08 31.601 129.539 31.526C129.772 31.4852 130.011 31.4926 130.241 31.5479C130.472 31.6032 130.688 31.7051 130.877 31.8474C131.066 31.9896 131.224 32.1692 131.341 32.375C131.459 32.5808 131.532 32.8084 131.558 33.0438Z" fill="black"/>
<path d="M131.542 31.1315C131.345 31.3895 129.873 30.5092 127.945 30.7065C126.018 30.9038 124.682 32.0118 124.439 31.7993C124.196 31.5868 124.515 31.2529 125.092 30.7369C125.876 30.0744 126.847 29.6714 127.869 29.5834C128.877 29.4773 129.893 29.6953 130.768 30.2057C131.406 30.6154 131.649 31.0101 131.542 31.1315Z" fill="black"/>
<path d="M140.011 44.8215C140.984 44.4106 142.003 44.12 143.047 43.9564C143.532 43.8502 143.988 43.6984 144.033 43.3645C144.038 42.8454 143.872 42.3392 143.563 41.9226L141.726 38.2952C140.057 35.2296 138.631 32.0376 137.461 28.7487C139.382 31.668 141.062 34.739 142.485 37.931L144.261 41.5887C144.633 42.1526 144.794 42.8299 144.716 43.5011C144.663 43.6835 144.568 43.8511 144.439 43.9907C144.31 44.1303 144.15 44.238 143.973 44.3055C143.706 44.4129 143.424 44.4794 143.138 44.5028C142.114 44.7482 141.063 44.8554 140.011 44.8215Z" fill="black"/>
<path d="M143.608 67.6634C136.999 68.4105 130.311 67.3126 124.288 64.4913C124.288 64.4913 129.797 73.6888 143.745 70.9872L143.608 67.6634Z" fill="#EB996E"/>
<path d="M139.632 49.6024C139.217 49.1739 138.699 48.8584 138.128 48.6858C137.557 48.5131 136.952 48.4891 136.369 48.6158C135.943 48.6942 135.538 48.8584 135.178 49.0984C134.818 49.3385 134.51 49.6494 134.274 50.0121C134.037 50.353 133.91 50.7581 133.91 51.1732C133.91 51.5883 134.037 51.9935 134.274 52.3343C134.622 52.65 135.055 52.856 135.52 52.9262C135.984 52.9964 136.459 52.9277 136.885 52.7289C137.771 52.313 138.565 51.7248 139.222 50.9987C139.425 50.8235 139.595 50.6126 139.723 50.3764C139.783 50.2608 139.807 50.1302 139.794 50.0008C139.78 49.8714 139.729 49.7487 139.647 49.6479" fill="#F0997A"/>
<path d="M134.426 46.7338C134.745 46.7338 134.957 48.7828 136.9 50.1032C138.843 51.4236 141.074 50.9683 141.119 51.2567C141.165 51.545 140.664 51.7272 139.708 51.8334C138.477 51.9828 137.233 51.6867 136.202 50.9987C135.215 50.3291 134.52 49.3088 134.259 48.1453C134.092 47.2802 134.289 46.7338 134.426 46.7338Z" fill="black"/>
<path d="M78.4821 276.003L56.9151 364.882C56.9151 364.882 31.2046 471.306 30.3547 474.113L29.5503 477.422L65.7787 480.154L128.552 282.742L78.4821 276.003Z" fill="#EC8305"/>
<path d="M143.699 338.397C149.558 366.734 171.019 485.618 171.019 485.618L207.763 481.839L186.864 330.202C186.531 326.245 185.726 322.342 184.466 318.576L150.119 215.597L85.5244 174.512C84.8869 174.512 75.0672 201.057 76.418 219.452C77.1302 227.682 79.9932 235.58 84.72 242.355C88.833 248.35 94.5549 256.713 95.8298 258.655C97.8788 261.752 143.699 338.397 143.699 338.397Z" fill="#EC8305"/>
<path d="M70.2258 210.209C68.4652 216.614 66.993 223.095 65.8547 229.636C61.7265 253.45 51.2237 311.397 44.4091 326.772C35.7731 346.199 21.7493 419.581 26.0596 433.013C30.37 446.445 124.272 459.999 124.272 459.999C124.272 459.999 129.66 372.046 135.064 349.932C140.467 327.819 151.759 279.236 153.398 250.642C155.037 222.048 154.475 172.402 145.308 141.653C136.141 110.904 115.045 78.5911 115.045 78.5911C115.045 78.5911 97.0139 83.5693 90.867 90.733C90.867 90.733 83.3694 99.9305 83.2783 108.688C83.1873 117.445 79.1197 159.077 76.403 183.269C75.553 190.175 72.5024 201.998 70.2258 210.209Z" fill="#091057"/>
<path d="M153.489 249.185C153.464 249.039 153.464 248.89 153.489 248.745C153.489 248.411 153.489 247.986 153.489 247.455C153.489 246.271 153.352 244.616 153.246 242.507C153.013 236.407 152.431 230.326 151.501 224.294C150.825 220.144 149.721 216.075 148.207 212.152C146.444 207.686 144.002 203.519 140.967 199.798C137.856 195.806 134.168 191.936 130.586 187.656C128.741 185.502 127.023 183.241 125.441 180.887C123.821 178.439 122.482 175.817 121.449 173.07C119.181 167.657 118.849 161.626 120.508 155.996C121.535 153.447 122.865 151.032 124.47 148.802C125.135 147.714 125.646 146.539 125.987 145.311C126.138 144.721 126.184 144.11 126.124 143.505C126.055 142.922 125.847 142.365 125.517 141.881C124.823 140.913 123.832 140.198 122.694 139.847C121.556 139.422 120.357 139.103 119.218 138.572C118.071 138.062 117.088 137.242 116.38 136.204C115.741 135.185 115.328 134.042 115.166 132.85C114.892 130.643 114.949 128.408 115.333 126.218C115.636 124.138 115.925 122.135 116.198 120.238C117.321 112.649 118.217 106.487 118.854 102.177C119.188 100.082 119.431 98.4431 119.613 97.2593L119.841 95.9996C119.862 95.8512 119.892 95.7042 119.932 95.5594C119.955 95.7052 119.955 95.8538 119.932 95.9996C119.932 96.3335 119.932 96.7585 119.795 97.2897C119.643 98.4735 119.446 100.113 119.173 102.207C118.596 106.548 117.776 112.71 116.775 120.314C116.517 122.226 116.244 124.229 115.955 126.309C115.598 128.436 115.552 130.604 115.819 132.744C115.982 133.824 116.369 134.858 116.957 135.779C117.596 136.72 118.491 137.458 119.537 137.904C120.584 138.39 121.768 138.694 122.967 139.134C124.252 139.536 125.371 140.346 126.154 141.441C126.536 142.02 126.78 142.68 126.868 143.368C126.939 144.06 126.888 144.759 126.716 145.432C126.359 146.742 125.806 147.991 125.077 149.136C123.507 151.332 122.203 153.706 121.191 156.208C119.608 161.67 119.945 167.509 122.148 172.752C124.271 178.031 127.313 182.892 131.133 187.109C134.684 191.359 138.372 195.244 141.499 199.251C144.553 203.103 146.995 207.404 148.738 212C150.24 215.954 151.323 220.054 151.971 224.233C152.867 230.265 153.374 236.349 153.489 242.446C153.489 244.561 153.519 246.215 153.58 247.409V248.699C153.504 249.033 153.489 249.185 153.489 249.185Z" fill="black"/>
<path d="M141.514 261.205C141.514 261.205 141.59 260.962 141.954 260.72C142.489 260.404 143.121 260.296 143.73 260.416C144.206 260.486 144.651 260.693 145.012 261.01C145.373 261.328 145.634 261.744 145.764 262.207C145.95 262.782 145.939 263.403 145.731 263.971C145.523 264.539 145.13 265.02 144.616 265.339C144.102 265.657 143.496 265.793 142.895 265.726C142.294 265.66 141.733 265.393 141.301 264.969C140.947 264.644 140.695 264.222 140.576 263.756C140.457 263.29 140.477 262.799 140.634 262.344C140.821 261.747 141.221 261.24 141.757 260.917C142.136 260.72 142.379 260.72 142.394 260.765C141.807 261.19 141.379 261.799 141.18 262.495C141.087 262.841 141.095 263.206 141.203 263.548C141.31 263.889 141.513 264.193 141.787 264.423C142.107 264.724 142.517 264.911 142.954 264.954C143.391 264.998 143.83 264.895 144.202 264.663C144.575 264.431 144.86 264.082 145.013 263.67C145.167 263.259 145.18 262.809 145.05 262.389C144.968 262.04 144.789 261.721 144.534 261.469C144.279 261.217 143.958 261.041 143.608 260.962C142.902 260.827 142.171 260.911 141.514 261.205Z" fill="black"/>
<path d="M131.451 313.507C131.451 313.507 131.542 313.264 131.907 313.036C132.436 312.707 133.072 312.593 133.682 312.717C134.157 312.791 134.6 312.999 134.961 313.316C135.321 313.633 135.583 314.047 135.716 314.508C135.903 315.083 135.891 315.705 135.683 316.272C135.475 316.84 135.083 317.322 134.569 317.64C134.055 317.958 133.449 318.095 132.848 318.028C132.247 317.961 131.686 317.694 131.254 317.271C130.971 316.999 130.755 316.666 130.621 316.297C130.487 315.928 130.44 315.534 130.482 315.144C130.525 314.754 130.656 314.379 130.866 314.048C131.076 313.717 131.36 313.438 131.694 313.233C132.074 313.021 132.332 313.021 132.332 313.066C131.755 313.501 131.33 314.106 131.117 314.797C131.03 315.144 131.042 315.509 131.152 315.85C131.262 316.19 131.466 316.493 131.74 316.724C132.071 317.002 132.479 317.174 132.909 317.217C133.339 317.261 133.773 317.173 134.153 316.967C134.506 316.716 134.775 316.364 134.926 315.959C135.078 315.553 135.104 315.111 135.003 314.69C134.915 314.331 134.725 314.005 134.455 313.752C134.186 313.499 133.849 313.329 133.485 313.264C132.798 313.146 132.091 313.23 131.451 313.507Z" fill="black"/>
<path d="M131.132 248.077C131.158 248.243 131.158 248.412 131.132 248.578C131.132 248.962 131.087 249.468 130.996 250.095C130.859 251.446 130.647 253.359 130.374 255.802C129.797 260.765 128.856 267.944 127.596 276.777C126.928 281.194 126.078 286.02 125.062 291.165C124.564 293.855 123.833 296.496 122.876 299.058C122.741 299.401 122.584 299.736 122.405 300.059C122.198 300.385 121.942 300.676 121.647 300.924C121.079 301.416 120.446 301.824 119.765 302.139C118.418 302.752 117.015 303.235 115.576 303.581C109.507 304.841 103.333 305.532 97.1352 305.645C90.4982 305.916 83.8515 305.84 77.2224 305.417L76.3725 305.311C76.1799 305.282 75.9969 305.208 75.8385 305.094C75.6802 304.981 75.5511 304.831 75.4619 304.658C75.197 304.116 75.0373 303.529 74.9914 302.928C74.8781 301.824 74.8476 300.713 74.9003 299.604C74.9003 297.419 75.1735 295.279 75.4163 293.169C75.9172 288.934 76.5698 284.821 77.2528 280.83C78.6188 272.846 80.1213 265.334 81.6087 258.458V258.2H81.9578C94.0884 257.147 106.107 255.06 117.883 251.962C122.147 250.839 125.471 249.822 127.733 249.139L130.358 248.335C130.636 248.236 130.92 248.155 131.208 248.092L130.981 248.183L130.313 248.426C129.721 248.654 128.917 248.957 127.793 249.337C125.562 250.095 122.239 251.158 117.989 252.372C106.199 255.618 94.1392 257.792 81.9578 258.868L82.2613 258.595C80.7436 265.47 79.3321 272.983 77.9813 280.951C77.3135 284.943 76.6761 289.056 76.1904 293.26C75.9475 295.354 75.7351 297.494 75.6744 299.634C75.621 300.703 75.6515 301.773 75.7654 302.837C75.8086 303.329 75.9317 303.811 76.1297 304.264C76.2663 304.446 76.3118 304.506 76.4788 304.537L77.2832 304.628C83.8816 305.056 90.4979 305.137 97.1048 304.871C103.225 304.765 109.323 304.089 115.318 302.852C116.716 302.527 118.078 302.064 119.385 301.471C120.016 301.244 120.59 300.883 121.07 300.415C121.549 299.946 121.922 299.38 122.163 298.754C123.114 296.242 123.845 293.652 124.348 291.014C125.441 285.899 126.261 281.072 126.959 276.671C128.37 267.853 129.326 260.704 129.994 255.757C130.328 253.313 130.586 251.401 130.768 250.05C130.859 249.443 130.92 248.942 130.981 248.532C131.041 248.122 131.132 248.077 131.132 248.077Z" fill="black"/>
<path d="M130.161 259.141C129.596 259.521 128.99 259.837 128.355 260.082C127.171 260.644 125.411 261.372 123.225 262.192C111.721 266.439 99.5142 268.463 87.2546 268.157C84.9021 268.157 83.0049 267.959 81.7149 267.807C81.0345 267.774 80.3588 267.678 79.6963 267.519C80.3721 267.443 81.0543 267.443 81.7301 267.519C83.0353 267.519 84.9173 267.61 87.2546 267.61C99.4248 267.605 111.511 265.595 123.028 261.661C125.244 260.902 127.019 260.249 128.234 259.779C128.853 259.503 129.499 259.289 130.161 259.141Z" fill="black"/>
<path d="M44.9858 216.341L45.1224 215.628C45.2287 215.112 45.3805 214.429 45.5778 213.533C46.0179 211.682 46.6554 208.98 47.4598 205.55C49.1293 198.629 51.6639 188.642 54.9574 176.349L60.4061 156.254C62.3791 149.029 64.4584 141.304 66.9323 133.245C69.4644 124.792 72.5937 116.53 76.2968 108.521C78.2852 104.295 80.5306 100.194 83.0203 96.2423C84.2612 94.184 85.6672 92.2298 87.2245 90.399C88.7965 88.502 90.7448 86.9517 92.9463 85.8458C95.229 84.7136 97.8608 84.5069 100.292 85.2691C102.624 86.0961 104.661 87.5896 106.151 89.5643C109.186 93.48 109.945 98.3975 110.385 102.905C111.159 112.012 111.903 120.845 112.616 129.238C114.013 146.009 115.272 161.111 116.335 173.799C117.397 186.487 118.201 196.717 118.778 203.85C119.051 207.371 119.264 210.118 119.4 212.031C119.4 212.941 119.507 213.639 119.552 214.155C119.566 214.398 119.566 214.641 119.552 214.884C119.552 214.884 119.552 214.641 119.446 214.171C119.34 213.7 119.325 212.941 119.234 212.046L118.46 203.88C117.822 196.747 116.942 186.502 115.773 173.844C114.604 161.186 113.345 146.055 111.873 129.299C111.144 120.906 110.355 112.103 109.596 102.981C109.156 98.5037 108.397 93.7229 105.528 90.0499C104.133 88.2038 102.229 86.8058 100.049 86.0279C97.8148 85.3186 95.3916 85.5092 93.2954 86.5592C91.1863 87.6346 89.3212 89.1328 87.8164 90.9606C86.2863 92.7412 84.9056 94.6448 83.6881 96.6521C81.213 100.56 78.9778 104.615 76.9949 108.794C73.301 116.765 70.1718 124.987 67.6305 133.397C65.1414 141.425 63.0773 149.151 61.0435 156.36C59.0097 163.569 57.1884 170.293 55.5038 176.424C52.1344 188.703 49.5239 198.675 47.7633 205.565C46.883 208.995 46.2456 211.636 45.7447 213.518C45.5019 214.398 45.3349 215.036 45.1983 215.582C45.0617 216.128 44.9858 216.341 44.9858 216.341Z" fill="black"/>
<path d="M41.2672 211.105C40.6753 213.472 29.6414 276.261 29.6414 276.261L111.736 278.917L123.043 213.806L41.2672 211.105Z" fill="#DBD3D3"/>
<path d="M122.193 215.036C121.963 215.246 121.714 215.434 121.449 215.597C120.964 215.946 120.205 216.432 119.233 217.115C117.306 218.36 114.453 220.15 110.871 222.139C107.289 224.127 102.963 226.51 98.0307 228.847C95.5567 230.001 92.9918 231.23 90.1536 232.247C87.2155 233.204 84.1364 233.655 81.0472 233.582C75.0267 233.303 69.1321 231.762 63.745 229.06C59.4061 226.883 55.332 224.215 51.6031 221.107C48.4007 218.496 45.9723 216.204 44.3179 214.611C43.4984 213.806 42.8002 213.169 42.4359 212.729C42.2133 212.514 42.0102 212.281 41.8289 212.031C42.0907 212.197 42.3348 212.391 42.5574 212.607C43.0582 213.078 43.726 213.655 44.5304 214.383C46.2455 215.901 48.7194 218.132 51.9522 220.667C55.7012 223.67 59.7737 226.246 64.0941 228.346C69.3668 230.919 75.1104 232.386 80.9713 232.657C83.9915 232.734 87.0032 232.303 89.8804 231.382C92.6123 230.395 95.238 229.181 97.6968 228.058C102.614 225.751 106.955 223.505 110.567 221.516C114.179 219.528 117.063 217.874 119.051 216.72L121.343 215.385C121.609 215.229 121.895 215.112 122.193 215.036Z" fill="black"/>
<path d="M117.169 217.798C117.382 217.798 115.181 231.458 112.252 248.35C109.323 265.243 106.773 278.781 106.56 278.781C106.348 278.781 108.549 265.121 111.478 248.244C114.407 231.367 116.957 217.768 117.169 217.798Z" fill="black"/>
<path d="M78.5582 231.033C78.3305 233.066 78.118 235.115 77.8904 237.104C77.7765 237.741 77.7765 238.394 77.8904 239.031C77.9621 239.35 78.1184 239.644 78.3427 239.881C78.567 240.119 78.8511 240.292 79.1653 240.382C79.5401 240.419 79.9173 240.338 80.2438 240.15C80.5704 239.963 80.8301 239.677 80.9865 239.335C81.2865 238.64 81.4365 237.89 81.4267 237.134C81.5329 234.948 81.6543 232.763 81.7758 230.593H79.1046" fill="#091057"/>
<path d="M95.4657 86.878C102.144 84.6317 107.714 93.2828 108.473 100.28C109.28 108.349 109.433 116.47 108.928 124.563C107.729 148.483 96.9075 171.355 96.9075 171.355L165.57 181.645L163.051 208.054L76.2208 198.735C73.2028 198.414 70.2933 197.43 67.7005 195.852C65.1076 194.275 62.8958 192.144 61.2234 189.611C59.551 187.079 58.4593 184.207 58.0268 181.203C57.5942 178.2 57.8314 175.137 58.7213 172.236C66.4769 146.935 79.15 110.555 81.9578 104.529C85.8432 96.4094 86.2834 89.9438 95.4657 86.878Z" fill="#091057"/>
<path d="M72.9424 198.037H73.3977L74.703 198.219L79.7267 198.978C84.1281 199.585 90.5178 200.496 98.5466 201.422C114.604 203.319 137.158 205.565 163.066 207.493L162.656 207.842C163.46 199.449 164.31 190.585 165.175 181.479L165.509 181.904L96.8619 171.568H96.4825L96.6039 171.219C101.066 157.407 104.481 145.979 106.515 137.935C107.547 133.928 108.26 130.756 108.7 128.601L109.201 126.142C109.323 125.595 109.398 125.307 109.398 125.307C109.398 125.307 109.398 125.595 109.307 126.157C109.216 126.719 109.095 127.553 108.882 128.646C108.503 130.817 107.835 133.989 106.864 138.026C104.936 146.1 101.612 157.574 97.211 171.416L96.9378 171.006L165.631 181.19H165.995V181.57C165.13 190.676 164.28 199.524 163.475 207.933V208.312H163.111C137.188 206.278 114.635 203.926 98.577 201.892C90.5633 200.89 84.1736 199.919 79.7874 199.221L74.6726 198.341L73.3825 198.098L72.9424 198.037Z" fill="black"/>
<path d="M149.528 206.87C149.546 202.304 149.835 197.743 150.393 193.211C150.677 188.628 151.235 184.067 152.062 179.551C152.024 184.117 151.73 188.677 151.182 193.211C150.891 197.792 150.339 202.352 149.528 206.87Z" fill="black"/>
<path d="M158.254 184.028C158.254 184.028 158.437 183.922 158.77 184.028C159.254 184.135 159.678 184.423 159.954 184.833C160.185 185.143 160.319 185.514 160.341 185.9C160.362 186.286 160.27 186.669 160.076 187.003C159.84 187.417 159.481 187.746 159.048 187.945C158.616 188.144 158.132 188.203 157.665 188.112C157.197 188.022 156.77 187.787 156.443 187.441C156.116 187.095 155.905 186.655 155.841 186.184C155.776 185.812 155.807 185.429 155.932 185.073C156.057 184.717 156.271 184.399 156.555 184.15C157.541 183.315 158.406 183.603 158.361 183.679C158.315 183.755 157.617 183.801 156.949 184.544C156.763 184.745 156.629 184.989 156.561 185.253C156.492 185.518 156.49 185.796 156.555 186.062C156.625 186.374 156.779 186.661 157.002 186.891C157.224 187.121 157.505 187.286 157.814 187.367C158.128 187.411 158.448 187.366 158.738 187.237C159.027 187.108 159.275 186.901 159.453 186.639C159.587 186.408 159.657 186.146 159.657 185.88C159.657 185.614 159.587 185.352 159.453 185.121C158.998 184.195 158.239 184.15 158.254 184.028Z" fill="black"/>
<path d="M180.368 173.859L183.494 206.385H199.355L203.149 173.859H180.368Z" fill="#EBEBEB"/>
<path d="M180.368 169.655C179.383 170.87 178.847 172.387 178.85 173.951H204.652C204.776 173.165 204.702 172.361 204.437 171.611C204.172 170.861 203.724 170.189 203.134 169.655H180.368Z" fill="black"/>
<path d="M183.297 166.665L182.432 169.883L201.874 170.035L200.584 166.635L183.297 166.665Z" fill="black"/>
<path d="M180.034 181.995C180.034 182.298 181.931 198.371 181.931 198.371H201.313L203.149 181.995H180.034Z" fill="black"/>
<path d="M181.248 179.126L180.747 184.575L199.507 185.015C199.507 185.015 199.507 191.344 197.609 193.241C197.609 193.241 199.507 197.035 197.397 199.145C195.287 201.255 194.028 200.663 194.028 200.663C194.028 200.663 194.878 204.882 192.768 205.945C190.658 207.007 163.293 205.368 163.293 205.368L164.978 187.716L171.049 187.185C171.307 181.342 177.348 178.443 181.248 179.126Z" fill="#FFBE9D"/>
<path d="M157.496 13.3284C156.474 10.1696 154.359 7.47881 151.531 5.73973C149.603 4.64201 147.376 4.18496 145.172 4.43447V3.97915C143.138 0.321401 139.101 -0.467824 134.942 0.230335C130.784 0.928494 126.686 3.96396 122.982 5.93702C117.974 8.60824 113.193 11.6589 108.397 14.7095C104.42 17.2442 100.353 19.885 97.6058 23.7097C96.1728 25.7368 95.1571 28.0286 94.6178 30.4518C94.0784 32.8749 94.0262 35.3812 94.4641 37.8247C95.4506 43.152 98.7289 48.5399 96.7862 53.594C95.481 56.9482 92.233 59.0578 90.0171 61.9415C88.3314 64.2034 87.397 66.9366 87.3453 69.7571C87.2936 72.5775 88.1271 75.3432 89.7288 77.6653C91.9447 80.7008 95.3292 82.431 98.4254 84.4648C103.328 87.6975 107.714 91.7651 112.996 94.3604C118.277 96.9557 124.971 97.7905 129.827 94.4818C134.684 91.1732 136.445 84.2371 135.549 78.242C134.654 72.247 131.77 66.7831 129.478 61.1827C126.455 53.8848 124.359 46.2364 123.24 38.4166C122.8 35.2901 122.557 31.951 124.03 29.1736C125.365 26.6845 127.869 25.0909 130.101 23.391C135.419 19.3821 139.852 14.3185 143.123 8.51717C144.252 11.3258 146.037 13.8237 148.329 15.8023C151.397 18.6536 154.832 21.0831 158.543 23.0268C158.873 19.7563 158.516 16.4531 157.496 13.3284Z" fill="black"/>
</g>
<defs>
<clipPath id="clip0_71_282">
<rect width="660" height="496" fill="white"/>
</clipPath>
</defs>
</svg>
