<svg width="679" height="679" viewBox="0 0 679 679" fill="none" xmlns="http://www.w3.org/2000/svg">
<path d="M174.431 430.614C83.3522 483.2 83.3535 568.457 174.436 621.041C265.518 673.625 413.19 673.625 504.268 621.041C595.347 568.457 595.346 483.2 504.263 430.614C413.181 378.03 265.51 378.03 174.431 430.614Z" fill="#F5F5F5"/>
<path d="M502.895 610.458C540.61 610.458 571.184 592.805 571.184 571.031C571.184 549.256 540.61 531.604 502.895 531.604C465.18 531.604 434.605 549.256 434.605 571.031C434.605 592.805 465.18 610.458 502.895 610.458Z" fill="#E0E0E0"/>
<path d="M175.803 610.458C213.518 610.458 244.093 592.805 244.093 571.031C244.093 549.256 213.518 531.604 175.803 531.604C138.088 531.604 107.514 549.256 107.514 571.031C107.514 592.805 138.088 610.458 175.803 610.458Z" fill="#E0E0E0"/>
<path d="M343.037 640.21C380.753 640.21 411.327 622.557 411.327 600.782C411.327 579.008 380.753 561.355 343.037 561.355C305.322 561.355 274.748 579.008 274.748 600.782C274.748 622.557 305.322 640.21 343.037 640.21Z" fill="#E0E0E0"/>
<path d="M484.067 563.87L480.514 561.946L484.126 561.076L484.067 563.87Z" fill="black"/>
<path d="M447.88 569.26C447.88 569.26 491.356 551.424 491.782 554.342C491.876 554.986 491.834 555.561 491.696 556.084C491.734 556.032 491.781 555.983 491.816 555.932L490.827 561.311C490.827 561.311 487.671 563.822 484.067 563.868C484.072 563.608 484.106 561.997 484.125 561.076C482.947 561.523 481.73 562.059 480.28 562.95C477.471 564.673 475.591 567.799 472.544 571.399C470.323 574.022 466.498 575.144 460.869 575.738C454.811 576.377 449.544 575.018 448.108 573.335C446.964 571.995 447.648 569.629 447.88 569.26Z" fill="black"/>
<path d="M449.097 568.301C449.525 567.883 451.112 566.249 453.244 564.483C455.109 562.938 457.287 560.981 459.61 559.421C460.538 558.798 461.963 557.8 462.769 556.99C463.546 556.212 464.291 555.404 464.986 554.553C466.912 552.198 468.543 549.615 469.963 546.926C471.185 544.612 471.505 542.968 471.492 540.349C471.461 533.942 471.175 527.525 470.341 521.168L490.947 521.505C490.232 524.757 489.811 530.314 489.361 534.024C488.676 539.665 488.48 540.918 490.464 546.644C491.049 548.33 491.955 549.962 491.972 551.746C492.001 554.645 489.648 557.063 487.068 558.385C484.93 559.482 482.499 559.897 480.421 561.073C478.234 562.309 476.499 564.231 474.903 566.137C473.395 567.936 472.16 570.082 470.092 571.309C467.801 572.67 465.651 573.041 463.037 573.475C460.031 573.975 456.202 573.899 453.661 573.606C449.232 573.091 445.986 571.346 449.097 568.301Z" fill="#FFBDA7"/>
<path d="M466.117 560.058C463.069 558.299 460.225 558.871 459.507 559.207C456.261 561.602 453.567 563.738 451.668 565.23C449.362 567.041 447.339 568.697 447.342 570.866C447.345 574.272 460.442 575.78 467.901 572.825C471.771 571.619 473.255 568.453 473.255 568.453C473.255 568.453 472.346 563.653 466.117 560.058ZM491.531 548.759C490.491 546.531 490.104 545.398 490.104 545.398C487.503 546.699 482.828 552.95 484.628 559.473C486.968 558.947 489.273 558.14 491.225 555.314C492.699 553.178 492.57 550.988 491.531 548.759Z" fill="#091057"/>
<path d="M530.031 557.428C528.901 559.423 530.775 566.692 530.714 571.925C530.66 576.678 529.738 585 531.389 589.626C533.346 595.109 537.125 601.409 543.437 595.934C547.35 592.542 549.496 588.277 549.765 581.425C549.953 576.663 547.786 570.178 545.918 564.422C543.737 557.7 542.863 554.094 542.863 554.094L530.031 557.428Z" fill="black"/>
<path d="M541.983 521.879C542.908 532.925 541.942 540.748 542.162 547.839C542.373 551.136 542.707 553.914 543.567 557.367C544.684 561.849 546.522 568.07 547.307 570.973C548.404 575.029 549.213 577.581 547.987 582.232C547.892 582.594 547.74 582.943 547.568 583.288C545.749 587.155 540.843 590.221 539.214 589.83C538.796 590.595 537.675 591.093 536.427 590.935C536.25 590.914 536.069 590.877 535.887 590.827C535.705 590.776 535.523 590.713 535.341 590.633C534.251 590.152 533.19 589.11 532.522 587.265C532.411 586.957 532.31 586.628 532.222 586.274C530.816 580.622 531.512 576.902 531.53 574.67C531.55 572.09 531.265 568.821 530.866 564.679C530.468 560.538 528.94 547.542 527.238 541.37C525.986 537.064 524.425 531.663 522.777 525.904L541.983 521.879Z" fill="#FFBDA7"/>
<path d="M548.506 576.261C544.471 574.677 532.973 574.909 531.373 580.577C531.544 585.844 531.659 589.415 535.175 593.86C539.846 599.764 545.343 593.071 547.384 588.882C549.425 584.692 549.163 579.075 548.506 576.261Z" fill="#091057"/>
<path d="M498.129 444.468L495.064 469.707C495.064 469.707 497.051 479.518 495.25 495.144C493.449 510.771 490.107 540.665 490.107 540.665C490.107 540.665 486.161 543.441 480.821 544.038C474.757 544.715 470.669 541.847 470.669 541.847C470.669 541.847 464.588 479.909 464.459 462.212C464.33 444.516 461.855 400.357 467.233 374.117L521.734 373.432C527.335 383.472 532.048 391.041 533.762 418.463C535.477 445.884 535.869 459.065 536.192 462.667C536.515 466.268 539.17 472.77 542.029 490.441C544.887 508.111 544.951 551.293 544.951 551.293C544.951 551.293 543.698 554.264 536.936 555.262C530.697 556.182 526.907 554.164 526.907 554.164C526.907 554.164 512.118 500.864 509.188 490.277C505.045 475.314 498.129 444.468 498.129 444.468Z" fill="#EC8305"/>
<path d="M474.638 399.499C477.36 406.788 484.56 410.072 488.834 411.062L495.762 444.102L495.062 469.705L498.127 444.467L491.182 407.283C491.182 407.283 481.265 406.329 474.638 399.499ZM515.09 395.64C515.811 398.507 516.464 401.392 517.16 404.274C517.842 407.161 518.529 410.046 519.264 412.952C519.309 409.949 519.023 406.96 518.607 404.003C518.201 401.039 517.619 398.103 516.921 395.193C516.191 392.291 515.358 389.409 514.299 386.601C513.25 383.795 512.023 381.031 510.398 378.504C511.313 381.359 512.128 384.197 512.902 387.05C513.661 389.906 514.405 392.763 515.09 395.64ZM520.081 390.073C521.057 391.797 521.983 393.544 522.92 395.292L525.681 400.632C525.493 398.595 524.957 396.61 524.266 394.698C523.584 392.778 522.7 390.939 521.729 389.157C520.728 387.391 519.636 385.676 518.4 384.068C517.174 382.454 515.84 380.92 514.318 379.556C515.217 381.391 516.198 383.134 517.174 384.873C518.139 386.618 519.135 388.333 520.081 390.073ZM527.857 517.051C528.636 519.988 529.429 522.924 530.232 525.856C528.469 516.659 526.589 507.484 524.587 498.337C522.614 489.192 520.524 480.032 518.429 470.948C516.383 461.851 514.823 452.633 513.277 443.409C511.763 434.179 510.257 424.938 508.621 415.713C509.534 425.036 510.557 434.345 511.826 443.628C513.076 452.912 514.562 462.181 516.588 471.36C518.731 480.51 520.884 489.585 523.152 498.675C524.668 504.811 526.235 510.936 527.857 517.051ZM473.407 440.078L474.757 415.656C473.558 423.73 472.639 431.844 471.944 439.976C471.273 448.12 470.634 456.23 470.669 464.48C471.005 472.688 471.689 480.791 472.415 488.923C473.137 497.048 474.014 505.159 475.032 513.257C474.746 505.1 474.36 496.953 473.884 488.814L473.179 476.609C472.944 472.547 472.667 468.466 472.555 464.435C472.458 460.422 472.67 456.339 472.826 452.279C472.98 448.213 473.212 444.146 473.407 440.078Z" fill="#693900"/>
<path d="M443.335 226.018C442.953 223.973 442.485 216.412 442.181 213.88C441.991 212.293 443.906 212.779 444.521 213.669C444.401 212.773 444.392 211.869 444.255 210.989C444.156 210.352 444.379 209.701 445.125 209.554C445.196 209.541 445.272 209.531 445.329 209.485C445.42 209.409 445.419 209.272 445.419 209.154C445.429 208.062 446.426 207.999 447.204 208.47C448.289 209.128 448.777 210.203 449.098 211.387C449.667 213.477 450.236 215.568 450.805 217.658C450.642 217.059 450.605 216.138 450.556 215.506C450.495 214.716 450.422 213.905 450.372 213.107C450.297 211.928 450.248 210.749 450.222 209.568C450.216 209.233 450.239 208.838 450.518 208.65C450.744 208.5 451.059 208.555 451.28 208.711C452.413 209.509 452.956 211.156 453.285 212.431C453.798 214.415 454.121 216.443 454.609 218.433C455.025 220.128 455.29 221.936 456.506 223.268C457.29 224.127 457.179 222.54 457.152 222.181C457.083 221.27 456.982 220.346 457.099 219.435C457.231 218.405 457.926 217.323 458.615 216.569C458.824 216.341 459.096 216.115 459.401 216.153C459.7 216.189 459.906 216.463 460.047 216.729C460.473 217.534 460.423 218.493 460.575 219.391C461.041 222.137 461.84 224 462.613 226.676C463.344 229.212 464.267 231.844 464.261 234.509C464.254 237.185 462.404 239.013 462.518 241.738C462.639 244.625 462.74 280.127 462.74 280.127C462.74 280.127 467.203 290.584 470.839 299.004C472.781 303.503 474.375 306.846 476.317 308.917C479.493 312.305 481.88 312.856 485.513 314.674L473.97 351.438C471.9 347.265 466.739 336.887 462.432 327.257C454.462 309.44 450.231 298.756 447.289 290.493C444.626 283.015 444.566 281.953 445.378 274.063C446.248 263.877 450.848 243.584 450.247 240.343C449.644 237.099 443.716 228.064 443.335 226.018Z" fill="#FFBDA7"/>
<path d="M480.317 312.144C480.317 312.144 477.713 310.487 475.949 307.349C474.956 305.584 469.728 296.426 469.728 296.426C469.728 296.426 463.873 297.428 459.334 302.898C454.795 308.368 455.77 313.164 455.77 313.164L466.26 336.766C475.723 333.293 481.562 326.53 480.317 312.144Z" fill="#E0E0E0"/>
<path d="M456.371 226.471C453.37 230.981 456.724 235.818 456.724 235.818C456.724 235.818 450.331 231.642 456.371 226.471Z" fill="#F0997A"/>
<path d="M494.255 395.007C481.521 395.007 470.681 391.244 465.962 385.186C464.422 383.006 466.664 376.518 468.145 372.224C468.817 370.278 469.399 368.596 469.573 367.551C470.074 364.54 469.673 359.546 469.32 355.14L469.149 352.971C469.139 352.827 469.079 352.691 468.981 352.587C461.237 344.3 463.549 335.087 465.852 331.373C472.652 320.411 479.152 314.094 480.486 312.848C481.863 313.207 487.163 314.443 495.354 314.5C499.772 314.531 506.133 314.825 511.344 316.044C511.583 316.078 511.818 316.092 512.092 316.092C513.611 316.092 516.471 315.738 518.067 315.522C516.7 318.91 516.491 323.414 517.398 329.55C519.047 340.712 524.302 344.574 525.989 345.543C525.148 348.201 521.407 360.089 520.933 363.093C520.163 367.989 522.415 372.362 524.225 375.873C525.636 378.615 526.857 380.982 526.248 382.712C521.652 390.133 509.071 395.007 494.255 395.007Z" fill="#FAFAFA"/>
<path d="M480.669 313.545C482.484 313.992 487.668 315.078 495.351 315.132C499.735 315.163 506.046 315.454 511.203 316.661C511.242 316.67 511.283 316.677 511.322 316.682C511.531 316.711 511.783 316.724 512.093 316.724C513.351 316.724 515.496 316.488 517.122 316.285C516.042 319.648 515.936 323.97 516.773 329.644C518.333 340.203 523.118 344.432 525.241 345.82C524.177 349.189 520.767 360.101 520.311 362.995C519.508 368.097 521.813 372.569 523.663 376.164C524.973 378.707 526.109 380.912 525.69 382.385C521.083 389.674 508.77 394.376 494.253 394.376C481.71 394.376 471.06 390.705 466.495 384.846C465.126 382.907 467.39 376.35 468.743 372.432C469.453 370.377 470.014 368.752 470.197 367.655C470.711 364.57 470.324 359.755 469.951 355.099C469.891 354.358 469.833 353.631 469.78 352.925C469.758 352.637 469.639 352.367 469.442 352.157C461.96 344.151 464.173 335.28 466.388 331.709C472.798 321.378 478.932 315.203 480.669 313.545ZM480.318 312.145C480.318 312.145 473.054 318.562 465.314 331.04C462.768 335.144 460.667 344.616 468.519 353.019C468.892 357.965 469.519 364.026 468.949 367.448C468.379 370.87 463.007 382.098 465.464 385.576C470.717 392.321 482.354 395.641 494.254 395.641C507.781 395.641 521.646 391.35 526.848 382.922C528.401 378.506 520.22 371.721 521.561 363.192C522.081 359.886 526.756 345.227 526.756 345.227C526.756 345.227 519.928 342.339 518.025 329.458C517.225 324.045 517.085 318.693 519.123 314.736C519.123 314.736 514.204 315.458 512.093 315.458C511.851 315.458 511.646 315.448 511.49 315.428C505.876 314.114 499.058 313.893 495.359 313.867C485.951 313.799 480.318 312.145 480.318 312.145Z" fill="#E0E0E0"/>
<path d="M488.623 353.018C488.623 353.018 493.545 358.799 502.762 356.057C511.977 353.315 513.087 345.035 513.087 345.035C513.087 345.035 514.59 355.392 503.569 358.623C492.716 361.802 488.623 353.018 488.623 353.018Z" fill="#E0E0E0"/>
<path d="M509.871 306.892C514.406 300.75 515.819 301.176 521.068 294.684C523.726 291.396 526.782 287.202 527.101 282.928C527.396 278.96 525.432 275.513 521.751 272.887C521.678 270.002 520.756 268.002 519.61 266.617C516.6 262.978 512.355 260.488 507.857 259.159C502.876 257.688 497.348 257.928 492.328 259.275C488.321 260.35 484.492 262.495 482.029 265.832C479.567 269.17 478.67 273.794 480.338 277.592C480.638 276.359 481.106 275.167 481.727 274.06C481.11 275.159 481.934 277.867 482.29 278.967C482.817 280.598 483.668 282.127 484.784 283.428C485.795 284.607 487.063 285.71 488.333 286.58C489.931 287.674 491.062 289.182 492.43 290.526C495.12 293.168 497.82 295.801 500.523 298.429C501.104 298.992 510.028 306.679 509.871 306.892Z" fill="#693900"/>
<path d="M509.753 310.504C510.561 304.744 511.399 299.566 511.399 299.566C511.875 301.64 515.435 302.682 518.828 299.74C521.975 297.008 523.076 291.679 521.431 289.704C520.512 288.602 519.219 287.771 517.761 287.678C516.041 287.566 514.598 288.641 513.314 289.67C512.943 289.968 512.575 290.288 512.132 290.458C509.562 291.438 510.758 287.938 511.313 286.918C511.38 286.795 511.449 286.664 511.439 286.524C511.427 286.339 511.283 286.194 511.154 286.06C509.565 284.41 509.121 281.884 509.603 279.645C510.086 277.405 511.385 275.419 512.894 273.696C508.629 274.548 504.101 274.015 500.15 272.198C497.983 271.202 495.878 269.803 493.496 269.748C492.292 269.719 491.101 270.046 489.996 270.524C487.469 271.616 485.608 273.483 484.597 276.041C484.43 276.463 484.293 276.901 484.192 277.357C484.005 278.206 483.78 278.939 483.623 279.794C483.299 281.56 482.931 282.323 482.392 284.02C481.982 285.313 481.096 288.409 480.792 290.562C480.486 292.725 480.188 295.27 480.799 297.883C481.443 300.634 482.79 303.143 485.058 304.668C486.759 305.811 488.479 306.736 490.007 307.057C490.007 307.057 489.884 308.108 489.733 308.952C488.887 313.692 486.365 313.276 486.365 313.276C484.477 317.733 483.695 321.864 484.613 329.783C498.152 326.119 505.951 320.297 511.492 315.426C509.482 314.938 509.476 312.476 509.753 310.504Z" fill="#FFBDA7"/>
<path d="M500.891 281.038L504.598 283.727C505.327 282.656 505.088 281.186 504.063 280.445C503.039 279.702 501.62 279.967 500.891 281.038Z" fill="#693900"/>
<path d="M490.381 278.887L486.015 280.023C485.732 278.78 486.478 277.517 487.684 277.204C488.89 276.89 490.097 277.644 490.381 278.887Z" fill="#693900"/>
<path d="M490.748 295.517L497.507 294.67C497.688 296.587 496.323 298.331 494.456 298.566C492.59 298.799 490.93 297.435 490.748 295.517Z" fill="#B16668"/>
<path d="M497.451 295.645C497.183 297.144 495.998 298.373 494.457 298.566C493.862 298.64 493.295 298.539 492.783 298.321C493.861 296.847 495.532 295.833 497.451 295.645Z" fill="#F28F8F"/>
<path d="M495.543 281.109L492.381 292.46L486.826 288.834L495.543 281.109Z" fill="#F0997A"/>
<path d="M490.006 307.058C494.652 307.977 500.343 307.328 503.116 305.857C507.219 303.681 508.73 299.994 508.73 299.994C507.907 303.532 505.865 305.927 503.136 307.501C500.409 309.074 495.548 309.811 489.73 308.953L490.006 307.058Z" fill="#F0997A"/>
<path d="M485.556 283.461C485.379 284.425 486.381 283.365 487.343 283.543C488.307 283.719 488.866 285.066 489.043 284.102C489.219 283.138 488.583 282.215 487.619 282.037C486.656 281.861 485.732 282.497 485.556 283.461Z" fill="black"/>
<path d="M498.601 285.464C498.326 286.403 499.432 285.454 500.372 285.73C501.311 286.005 501.728 287.402 502.004 286.463C502.28 285.523 501.742 284.538 500.803 284.261C499.864 283.987 498.878 284.524 498.601 285.464Z" fill="black"/>
<path d="M534.059 248.306C533.809 247.786 533.525 247.209 533.341 246.67C532.547 244.35 533.364 241.831 533.984 239.458C534.348 238.067 534.642 236.658 534.869 235.238C535.078 233.928 535.496 232.631 535.583 231.304C535.698 229.538 535.092 227.817 534.724 226.085C534.356 224.353 534.268 222.407 535.283 220.957C535.464 220.7 535.741 220.441 536.047 220.509C536.273 220.559 536.421 220.77 536.544 220.967C537.577 222.621 538.401 224.408 538.989 226.267C539.26 224.964 539.21 223.622 539.015 222.312C538.834 221.101 538.294 219.866 538.192 218.662C538.128 217.904 538.442 216.635 539.069 216.148C539.202 216.045 540.057 215.685 540.626 216.142C540.664 214.196 540.874 212.48 542.871 212.272C543.337 212.224 543.51 214.209 543.567 214.446C544.089 216.558 544.56 218.705 545.158 220.791C545.097 219.643 545.07 218.492 545.075 217.342C545.081 216.35 545.018 215.36 545.394 214.418C545.635 213.816 546.126 213.273 546.764 213.151C546.855 213.133 546.954 213.126 547.034 213.172C547.103 213.213 547.144 213.286 547.181 213.358C547.574 214.131 547.752 214.991 547.919 215.841C548.43 218.427 548.891 221.048 548.795 223.681C548.753 224.831 549.089 227.083 548.941 228.225C548.514 231.518 547.996 236.35 547.439 239.619C547.135 241.401 547.361 243.878 548.218 248.343C549.145 253.175 552.902 271.152 554.622 284.49C555.457 290.964 553.52 294.402 547.458 305.644C543.751 312.518 539.498 319.356 536.583 324.691C530.55 335.735 529.054 337.597 525.776 343.974C522.776 342.713 520.409 340.534 516.976 330.324C515.652 326.389 514.421 318.285 516.198 314.916C517.695 313.94 519.159 312.546 520.778 310.25C523.908 305.807 526.102 303.357 527.938 300.343C529.712 297.433 533.937 292.15 536.746 287.057C536.372 278.481 536.464 259.868 536.252 256.241C536.19 255.173 536.069 253.411 535.796 251.862C535.572 250.571 534.627 249.492 534.059 248.306Z" fill="#FFBDA7"/>
<path d="M515.24 315.194C517.118 314.647 527.941 300.344 527.941 300.344C527.941 300.344 525.745 306.895 532.308 313.931C536.306 318.219 541.125 317.068 541.125 317.068C535.174 328.522 528.645 340.113 526.422 346.277C526.422 346.277 521.455 345.521 517.559 335.81C514.243 327.541 514.758 318.333 515.24 315.194Z" fill="#E0E0E0"/>
<path d="M539.085 228.26C539.114 227.852 539.08 227.052 539.012 226.11C539.156 225.344 539.19 224.568 539.153 223.793C539.454 225.26 539.7 226.946 539.566 228.138C539.274 230.708 538.709 232.038 538.709 232.038C538.709 232.038 539.002 229.467 539.085 228.26Z" fill="#F0997A"/>
<path d="M540.881 216.348C541.227 218.529 542.313 222.734 542.336 224.283C542.359 225.832 542.041 229.35 541.622 231.256C541.622 231.256 543.03 228.028 542.817 224.161C542.681 221.724 541.741 219.251 540.881 216.348Z" fill="#F0997A"/>
<path d="M543.521 214.393C544.082 217.376 545.152 222.631 545.294 223.843C545.437 225.055 544.609 230.685 544.609 230.685C544.609 230.685 545.792 226.949 545.893 224.836C545.993 222.726 543.521 214.393 543.521 214.393Z" fill="#F0997A"/>
<path d="M194.224 560.497L197.779 558.573L194.166 557.703L194.224 560.497Z" fill="black"/>
<path d="M230.412 565.887C230.412 565.887 186.935 548.051 186.509 550.969C186.416 551.613 186.458 552.188 186.596 552.711C186.557 552.659 186.511 552.61 186.475 552.559L187.465 557.938C187.465 557.938 190.621 560.449 194.225 560.495C194.219 560.235 194.185 558.624 194.166 557.703C195.345 558.15 196.561 558.686 198.012 559.576C200.82 561.3 202.7 564.426 205.748 568.026C207.967 570.649 211.793 571.771 217.423 572.365C223.481 573.004 228.747 571.645 230.184 569.962C231.328 568.622 230.642 566.256 230.412 565.887Z" fill="black"/>
<path d="M229.194 564.928C228.766 564.51 227.18 562.876 225.047 561.11C223.182 559.565 221.005 557.607 218.681 556.048C217.754 555.425 216.329 554.427 215.522 553.617C214.747 552.839 214.001 552.03 213.306 551.18C211.38 548.825 209.748 546.242 208.329 543.553C207.108 541.239 206.787 539.595 206.801 536.976C206.832 530.569 207.117 524.152 207.952 517.795L187.345 518.132C188.061 521.384 188.482 526.941 188.932 530.651C189.616 536.292 189.813 537.545 187.829 543.271C187.245 544.955 186.338 546.589 186.321 548.373C186.292 551.272 188.644 553.69 191.225 555.012C193.363 556.109 195.794 556.524 197.872 557.7C200.059 558.936 201.794 560.858 203.39 562.764C204.897 564.563 206.133 566.709 208.201 567.936C210.492 569.297 212.642 569.668 215.256 570.102C218.262 570.602 222.091 570.527 224.632 570.233C229.058 569.718 232.304 567.973 229.194 564.928Z" fill="#FFBDA7"/>
<path d="M226.625 561.858C224.725 560.367 222.032 558.23 218.786 555.836C218.068 555.499 215.224 554.929 212.175 556.687C205.946 560.28 205.04 565.079 205.04 565.079C205.04 565.079 206.523 568.246 210.393 569.452C217.852 572.407 230.95 570.899 230.952 567.493C230.954 565.325 228.931 563.669 226.625 561.858ZM188.189 542.025C188.189 542.025 187.802 543.157 186.762 545.386C185.722 547.615 185.592 549.805 187.069 551.941C189.021 554.767 191.324 555.574 193.666 556.1C195.465 549.577 190.79 543.327 188.189 542.025Z" fill="#091057"/>
<path d="M148.262 554.054C149.391 556.05 147.518 563.319 147.578 568.552C147.632 573.305 148.554 581.627 146.903 586.253C144.946 591.736 141.167 598.036 134.855 592.561C130.943 589.169 128.796 584.904 128.527 578.052C128.341 573.29 130.506 566.805 132.374 561.049C134.555 554.327 135.429 550.721 135.429 550.721L148.262 554.054Z" fill="black"/>
<path d="M136.309 518.506C135.384 529.552 136.349 537.375 136.13 544.466C135.92 547.763 135.585 550.541 134.725 553.994C133.608 558.476 131.77 564.697 130.986 567.6C129.889 571.656 129.08 574.208 130.306 578.859C130.401 579.221 130.553 579.57 130.725 579.915C132.544 583.782 137.45 586.848 139.079 586.457C139.497 587.222 140.619 587.72 141.867 587.562C142.044 587.541 142.226 587.504 142.407 587.454C142.589 587.403 142.771 587.34 142.953 587.26C144.043 586.779 145.104 585.737 145.772 583.892C145.883 583.584 145.984 583.255 146.072 582.901C147.478 577.249 146.782 573.529 146.764 571.297C146.744 568.719 147.029 565.447 147.428 561.306C147.826 557.165 149.354 544.169 151.056 537.995C152.308 533.69 153.869 528.289 155.517 522.529L136.309 518.506Z" fill="#FFBDA7"/>
<path d="M129.786 572.89C133.821 571.306 145.318 571.538 146.919 577.206C146.748 582.473 146.632 586.044 143.117 590.488C138.446 596.393 132.948 589.7 130.908 585.511C128.868 581.319 129.129 575.704 129.786 572.89Z" fill="#091057"/>
<path d="M180.163 441.095L183.228 466.334C183.228 466.334 181.241 476.145 183.042 491.771C184.844 507.398 188.184 537.292 188.184 537.292C188.184 537.292 192.13 540.068 197.47 540.665C203.534 541.342 207.622 538.474 207.622 538.474C207.622 538.474 213.703 476.536 213.832 458.839C213.961 441.143 216.436 396.984 211.058 370.744L156.557 370.059C150.955 380.099 146.243 387.668 144.529 415.09C142.814 442.511 142.422 455.692 142.099 459.294C141.776 462.895 139.121 469.397 136.262 487.068C133.404 504.738 133.34 547.92 133.34 547.92C133.34 547.92 134.593 550.891 141.355 551.889C147.594 552.809 151.384 550.791 151.384 550.791C151.384 550.791 166.173 497.491 169.103 486.904C173.246 471.941 180.163 441.095 180.163 441.095Z" fill="#091057"/>
<path d="M187.109 403.912L180.165 441.095L183.23 466.333L182.529 440.73L189.457 407.691C193.732 406.699 200.933 403.415 203.653 396.127C197.026 402.958 187.109 403.912 187.109 403.912ZM165.388 383.677C166.163 380.824 166.977 377.985 167.892 375.131C166.268 377.658 165.04 380.422 163.991 383.228C162.934 386.036 162.1 388.918 161.369 391.82C160.672 394.73 160.09 397.666 159.683 400.63C159.267 403.589 158.982 406.578 159.026 409.579C159.762 406.673 160.447 403.788 161.13 400.901C161.826 398.019 162.48 395.133 163.2 392.267C163.887 389.392 164.631 386.534 165.388 383.677ZM161.118 381.501C162.094 379.762 163.075 378.019 163.974 376.184C162.452 377.548 161.118 379.082 159.892 380.696C158.655 382.305 157.565 384.019 156.562 385.785C155.59 387.567 154.708 389.405 154.025 391.326C153.333 393.239 152.798 395.224 152.611 397.261L155.373 391.921C156.31 390.171 157.235 388.424 158.211 386.701C159.157 384.96 160.152 383.245 161.118 381.501ZM150.435 513.678C152.057 507.564 153.625 501.438 155.137 495.3C157.405 486.211 159.558 477.135 161.701 467.985C163.728 458.808 165.213 449.538 166.463 440.255C167.734 430.972 168.754 421.664 169.668 412.34C168.032 421.563 166.525 430.805 165.012 440.036C163.466 449.261 161.908 458.478 159.859 467.575C157.766 476.66 155.676 485.819 153.702 494.965C151.701 504.112 149.82 513.287 148.057 522.485C148.864 519.55 149.656 516.615 150.435 513.678ZM205.468 448.907C205.624 452.967 205.836 457.05 205.739 461.064C205.627 465.095 205.35 469.176 205.115 473.237L204.41 485.443C203.934 493.582 203.549 501.729 203.262 509.885C204.28 501.787 205.157 493.677 205.879 485.551C206.605 477.419 207.288 469.317 207.625 461.109C207.659 452.858 207.019 444.748 206.35 436.605C205.655 428.473 204.736 420.358 203.538 412.284L204.887 436.707C205.081 440.773 205.313 444.84 205.468 448.907Z" fill="black"/>
<path d="M233.633 274.47C233.317 283.145 233.732 281.413 230.247 288.819C222.914 304.399 212.927 324.017 212.927 324.017C209.412 320.728 204.03 313.055 196.559 307.108C196.559 307.108 201.157 301.99 206.61 292.44C210.048 286.417 215.777 276.47 215.777 276.47C215.777 276.47 217.528 267.013 218.844 258.444C220.506 247.635 221.361 245.985 219.039 241.342C217.916 239.099 217.111 236.014 216.683 234.576C215.688 231.223 215.179 227.759 214.324 224.375C214.263 224.135 214.202 223.882 214.259 223.642C214.478 222.713 215.686 223.108 216.25 223.406C217.017 223.809 217.499 224.652 217.878 225.438C218.38 226.477 218.834 227.531 219.328 228.58C219.458 228.857 219.82 229.856 220.219 229.779C220.644 229.697 220.408 228.61 220.378 228.329C220.259 227.186 220.025 226.059 219.795 224.935C219.215 222.124 218.637 219.314 218.057 216.503C217.977 216.116 217.897 215.721 217.931 215.328C218.067 213.756 219.763 213.657 220.699 215.161C220.948 215.561 221.16 215.985 221.331 216.427C221.858 217.798 222.308 219.2 222.68 220.624C222.835 221.215 222.965 221.79 223.196 222.354C223.241 222.465 223.552 223.252 223.713 222.88C223.753 222.789 223.739 222.685 223.724 222.587C223.436 220.657 222.97 218.763 222.553 216.862C222.341 215.898 222.142 214.93 221.983 213.955C221.877 213.304 221.501 212.132 221.905 211.538C222.04 211.34 222.253 211.212 222.473 211.133C223.158 210.886 223.985 211.09 224.497 211.63C224.784 211.933 225.042 212.324 225.25 212.69C225.394 212.945 225.593 213.45 225.752 213.923C226.002 212.747 227.461 212.784 228.144 213.574C229.188 214.781 229.47 216.289 229.876 218.157C230.336 220.269 230.555 221.3 231.117 224.487C231.225 225.108 231.569 225.447 231.562 224.728C231.555 224.116 231.512 223.554 231.44 222.944C231.351 222.195 231.309 221.957 231.223 221.16C231.107 220.108 230.669 218.158 230.942 217.669C231.199 217.206 231.919 217.288 232.33 217.532C232.644 217.718 232.864 218.034 233.054 218.353C234.271 220.406 234.552 222.89 234.779 225.287C234.961 227.204 235.125 229.123 235.291 231.042C235.595 234.569 235.881 238.238 234.676 241.543C234.263 242.677 233.92 244.158 233.826 245.368C233.483 249.8 233.659 254.729 233.67 259.893C233.679 263.715 233.875 267.881 233.633 274.47Z" fill="#FFBDA7"/>
<path d="M223.365 230.929C226.35 230.145 228.363 234.123 229.308 236.456C229.495 236.92 229.57 238.42 228.901 237.433C228.667 237.089 228.441 236.738 228.203 236.396C227.746 235.741 227.265 235.101 226.73 234.512C225.81 233.498 224.712 232.627 223.448 232.165C223.106 232.04 222.675 231.833 222.711 231.458C222.734 231.219 222.958 231.055 223.179 230.983C223.241 230.963 223.303 230.944 223.365 230.929Z" fill="#F0997A"/>
<path d="M225.756 213.922C226.365 217.705 227.134 221.442 228.416 225.054C228.004 221.237 227.214 217.467 225.756 213.922Z" fill="#F0997A"/>
<path d="M195.201 306.886C199.006 302.315 204.11 295.072 207.285 290.017C210.46 284.962 215.281 276.425 215.281 276.425L219.736 252.895C219.736 252.895 221.22 255.102 226.428 255.706C231.637 256.31 233.625 254.187 233.625 254.187C233.625 254.187 234.289 265.461 234.135 273.792C233.982 282.121 234.129 281.648 230.503 289.861C226.876 298.073 217.177 318.547 214.559 323.478C211.941 328.411 209.596 337.894 209.556 337.652C209.516 337.41 195.201 306.886 195.201 306.886Z" fill="#091057"/>
<path d="M181.754 283.451C181.687 281.24 180.775 278.979 178.998 277.662C177.462 276.523 175.483 276.199 173.753 275.38C171.611 274.366 169.859 272.554 168.918 270.378C167.824 267.848 166.939 265.558 164.428 264.191C159.583 261.552 152.16 263.256 150.382 268.95C149.794 270.833 149.806 273.047 148.419 274.449C147.478 275.398 146.107 275.737 144.873 276.248C141.244 277.749 138.37 281.369 138.48 285.295C138.58 288.923 141.07 292.326 140.494 295.91C140.239 297.5 139.397 298.927 138.871 300.449C137.568 304.209 138.613 309.011 142.081 310.963C143.794 311.927 145.777 312.114 147.614 312.735C149.892 313.503 150.832 314.95 152.437 316.59C153.861 318.045 155.966 318.804 157.991 318.592C161.339 318.242 164.032 315.486 167.361 314.992C169.658 314.651 172.012 315.429 174.31 315.095C175.61 314.906 176.835 314.366 177.979 313.721C179.628 312.79 181.22 311.525 181.868 309.744C182.905 306.891 181.239 303.859 180.481 300.918C179.915 298.723 179.862 296.398 180.329 294.179C180.62 292.79 180.1 291.46 180.562 290.027C181.337 287.62 181.831 286.013 181.754 283.451Z" fill="black"/>
<path d="M158.552 265.305C157.071 266.31 156.281 268.05 155.718 269.748C155.096 271.619 154.657 273.632 155.09 275.555C155.523 277.478 157.031 279.273 158.989 279.494C161.202 279.744 163.172 277.993 164.263 276.053C165.711 273.477 166.112 270.12 164.814 267.402C163.709 265.088 160.92 263.701 158.552 265.305Z" fill="#EC8305"/>
<path d="M200.716 262.48C200.711 262.308 200.7 262.135 200.68 261.964C200.478 260.196 199.367 258.587 197.866 257.63C196.143 256.532 194.573 256.763 192.683 256.514C191.015 256.295 189.242 255.118 188.152 253.884C186.366 251.864 182.977 250.778 180.015 251.597C175.338 252.89 176.454 254.841 172.503 256.24C168.98 257.488 166.333 256.364 163.153 259.486C161.243 261.36 160.419 264.552 160.87 267.216C158.473 268.746 155.367 277.691 160.475 287.383C163.1 292.365 166.2 294.663 170.085 298.764L173.784 298.716C174.946 295.56 178.099 296.102 180.974 295.342C182.568 294.595 183.392 292.619 184.956 291.96C185.678 291.656 186.405 291.834 187.138 291.378C187.832 290.948 188.382 290.281 188.752 289.56C189.392 288.317 189.591 286.904 189.899 285.54C189.997 285.107 190.112 284.664 190.372 284.303C190.742 283.786 191.356 283.506 191.95 283.281C193.908 282.543 195.983 282.154 197.941 281.419C199.899 280.683 201.809 279.52 202.827 277.694C203.51 276.47 203.739 275.039 203.756 273.638C203.767 272.653 203.673 271.643 203.253 270.751C202.632 269.427 201.35 268.476 200.847 267.102C200.315 265.644 200.764 264.036 200.716 262.48Z" fill="black"/>
<path d="M191.83 309.37C191.83 309.37 190.716 308.371 189.409 308.223C188.48 308.118 188.358 307.114 188.18 305.501L187.989 302.986C191.252 303.062 193.95 302.256 196.171 300.251C199.525 297.222 201.248 291.293 200.813 284.954C200.524 280.743 199.404 278.79 199.448 277.84C199.711 272.185 199.257 271.189 197.891 268.292C195.449 263.682 189.459 262.087 186.979 267.123C179.521 261.508 171.506 269.191 171.965 277.897C173.082 285.07 170.873 285.464 169.474 285.534C167.329 281.087 162.685 281.232 160.781 284.163C159.057 286.814 159.175 290.849 162.649 294.471C166.033 297.999 169.692 295.629 169.726 294.903C169.726 294.903 170.434 304.586 170.542 306.519C170.651 308.451 170.3 310.601 167.911 311.436C167.92 311.433 167.903 311.438 167.911 311.436C165.474 312.285 164.905 312.82 164.905 312.82C164.905 312.82 165.45 313.203 165.835 313.607C166.718 314.604 168.019 315.473 171.297 319.216C179.531 322.147 189.372 326.254 195.207 329.603C197.06 324.765 198.716 316.898 198.716 316.898C195.586 312.532 191.83 309.37 191.83 309.37Z" fill="#FFBDA7"/>
<path d="M164.592 292.839C164.6 293.783 165.372 294.542 166.317 294.534C167.262 294.526 168.021 293.753 168.013 292.809C168.004 291.864 167.232 291.105 166.287 291.113C165.343 291.123 164.582 291.894 164.592 292.839Z" fill="#EC8305"/>
<path d="M184.656 290.281L190.174 291.655C189.825 293.231 188.307 294.201 186.784 293.821C185.26 293.444 184.307 291.859 184.656 290.281Z" fill="#B16668"/>
<path d="M185.081 291.509C186.592 291.373 187.947 292.337 188.359 293.739C187.869 293.914 187.329 293.958 186.785 293.822C185.691 293.55 184.902 292.653 184.666 291.589C184.802 291.556 184.937 291.521 185.081 291.509Z" fill="#F0997A"/>
<path d="M197.193 275.979L192.957 274.908C193.211 273.718 194.366 272.993 195.535 273.289C196.705 273.586 197.447 274.79 197.193 275.979Z" fill="black"/>
<path d="M177.771 277.785L181.791 275.937C181.319 274.798 180.036 274.289 178.926 274.8C177.815 275.31 177.298 276.647 177.771 277.785Z" fill="black"/>
<path d="M193.32 279.599C193.428 280.569 194.024 278.955 195.008 278.872C195.993 278.788 196.993 280.263 196.883 279.294C196.773 278.323 195.887 277.608 194.904 277.692C193.92 277.775 193.21 278.63 193.32 279.599Z" fill="black"/>
<path d="M180.001 280.986C180.199 281.962 180.677 280.352 181.671 280.178C182.664 280.005 183.795 281.331 183.597 280.356C183.399 279.38 182.434 278.731 181.441 278.905C180.446 279.079 179.802 280.011 180.001 280.986Z" fill="black"/>
<path d="M187.99 302.987C181.035 302.737 174.777 299.898 172.818 295.779C172.818 295.779 173.526 300.385 177.63 302.274C183.559 305.003 188.145 305.015 188.145 305.015L187.99 302.987Z" fill="#F0997A"/>
<path d="M194.806 285.775L188.586 288.519L187.008 276.621L194.806 285.775Z" fill="#F0997A"/>
<path d="M210.953 358.38C210.703 355.414 210.383 352.644 210.885 348.876C210.885 348.876 214.979 343.27 215.264 337.213C215.563 330.864 212.981 326.397 206.629 319.795C200.113 313.02 194.57 309.388 194.57 309.388L189.511 309.127C189.511 309.127 192.536 315.576 190.4 319.439C180.024 318.17 171.306 313.27 167.792 309.985L159.046 311.285C159.046 311.285 153.244 322.138 154.938 331.421C155.855 336.446 157.745 344.97 159.287 351.736C160.781 358.288 159.828 365.158 156.605 371.054C156.311 371.593 156.016 372.133 155.727 372.667C152.984 377.72 149.23 387.073 149.23 387.073C149.23 387.073 163.475 394.271 187.512 392.489C211.549 390.707 213.722 386.58 213.722 386.58C213.722 386.58 212.097 370.063 211.8 366.603C211.5 363.145 211.209 361.428 210.953 358.38Z" fill="white"/>
<path d="M170.404 346.08C170.404 346.08 172.543 353.846 181.839 355.035C190.342 356.123 194.85 349.499 194.85 349.499C194.85 349.499 192.953 359.159 181.47 357.36C170.001 355.564 170.404 346.08 170.404 346.08Z" fill="#E0E0E0"/>
<path d="M170.46 308.35C170.46 308.35 178.58 326.323 181.382 335.971C184.182 345.62 182.625 353.303 181.391 370.711C180.441 384.117 178.804 404.335 178.804 404.335C178.804 404.335 153.369 403.754 145.652 392.347C147.785 385.697 154.443 370.208 156.161 365.97C157.881 361.732 157.087 357.969 154.452 348.109C151.818 338.249 147.492 332.833 147.682 325.556C147.872 318.279 152.995 312.452 154.858 311.212L170.46 308.35Z" fill="#091057"/>
<path d="M189.256 309.106C189.256 309.106 206.37 325.851 207.426 343.048C208.484 360.244 209.238 397.907 209.238 397.907C209.238 397.907 211.124 397.057 214.802 393.096C214.099 385.286 211.665 354.428 212.424 350.9C213.183 347.371 221.667 339.404 214.052 327.864C206.437 316.322 195.216 306.877 195.216 306.877C193.24 308.203 190.081 307.799 188.42 307.12C188.511 307.766 188.618 308.143 189.256 309.106Z" fill="#091057"/>
<path d="M196.648 312.367C197.736 313.365 198.816 314.37 199.864 315.41C201.964 317.484 204.052 319.572 206.065 321.733C207.064 322.822 208.063 323.909 209.028 325.034C209.515 325.593 209.99 326.161 210.455 326.753C210.901 327.331 211.424 327.962 211.65 328.81C211.873 329.621 211.845 330.416 211.77 331.182C211.702 331.953 211.522 332.693 211.33 333.423C210.953 334.788 210.461 336.094 209.88 337.382C211.004 338.857 212.083 340.343 212.75 342.175C212.833 342.417 212.894 342.684 212.925 342.955C212.928 343.229 212.935 343.517 212.897 343.75C212.85 344.248 212.762 344.721 212.685 345.2C212.51 346.147 212.314 347.088 212.105 348.022C211.273 351.761 210.275 355.453 209.203 359.125C209.974 355.38 210.756 351.638 211.464 347.891C211.638 346.955 211.796 346.015 211.933 345.079C211.99 344.612 212.059 344.141 212.083 343.686C212.124 343.222 212.096 342.868 211.94 342.439C211.317 340.768 210.145 339.193 208.995 337.742L208.816 337.515L208.934 337.249C209.519 335.941 210.019 334.558 210.383 333.169C210.562 332.474 210.706 331.77 210.78 331.075C210.86 330.382 210.882 329.674 210.715 329.056C210.575 328.464 210.156 327.908 209.711 327.325C209.272 326.753 208.808 326.184 208.334 325.626C207.394 324.503 206.412 323.407 205.432 322.311C203.471 320.119 201.496 317.935 199.472 315.797C197.447 313.659 195.453 311.49 193.293 309.482C194.467 310.377 195.558 311.373 196.648 312.367Z" fill="#091057"/>
<path d="M166.142 334.919L166.165 332.579L166.211 327.899C166.322 321.66 166.45 315.42 166.717 309.172C166.933 315.419 167.008 321.675 167.067 327.93L167.075 332.621L167.079 334.967L167.082 335.545C167.079 335.691 167.1 335.837 167.135 335.983C167.218 336.275 167.389 336.56 167.605 336.826C168.516 337.892 169.931 338.61 171.298 339.252C172.691 339.878 174.161 340.397 175.628 340.812L176.136 340.954L175.942 341.436C175.183 343.323 174.471 345.253 173.936 347.203C173.807 347.691 173.683 348.182 173.598 348.667C173.504 349.142 173.451 349.664 173.527 350.021L173.553 350.15L173.637 350.324L174.817 352.75C175.71 354.601 176.626 356.441 177.495 358.304L180.111 363.893L177.138 358.484C176.143 356.682 175.197 354.855 174.226 353.04L173.503 351.677L173.142 350.996L172.87 350.484L172.793 350.241C172.637 349.598 172.717 349.069 172.787 348.538C172.858 348.006 172.979 347.495 173.108 346.989C173.594 345.131 174.221 343.342 174.902 341.561C173.535 341.173 172.204 340.721 170.898 340.152C169.451 339.496 167.984 338.765 166.851 337.434C166.581 337.094 166.34 336.697 166.215 336.233C166.158 335.998 166.128 335.758 166.136 335.512L166.142 334.919Z" fill="#091057"/>
<path d="M142.691 244.703C142.915 244.209 143.169 243.659 143.332 243.146C144.03 240.943 143.203 238.588 142.566 236.367C142.193 235.066 141.884 233.745 141.641 232.412C141.415 231.182 140.992 229.97 140.88 228.723C140.732 227.061 141.266 225.427 141.574 223.787C141.882 222.149 141.922 220.312 140.933 218.968C140.758 218.731 140.491 218.492 140.204 218.564C139.993 218.615 139.858 218.818 139.747 219.005C138.81 220.586 138.075 222.287 137.562 224.052C137.278 222.83 137.296 221.565 137.45 220.327C137.594 219.183 138.076 218.007 138.144 216.87C138.187 216.156 137.863 214.967 137.263 214.521C137.135 214.426 136.322 214.106 135.796 214.551C135.717 212.719 135.481 211.108 133.595 210.956C133.157 210.92 133.036 212.793 132.987 213.019C132.542 215.02 132.147 217.053 131.628 219.032C131.661 217.949 131.661 216.864 131.63 215.781C131.603 214.847 131.639 213.913 131.265 213.034C131.024 212.47 130.549 211.97 129.947 211.869C129.861 211.854 129.767 211.85 129.693 211.896C129.629 211.936 129.592 212.006 129.56 212.074C129.207 212.81 129.059 213.624 128.919 214.429C128.496 216.877 128.118 219.355 128.267 221.834C128.333 222.916 128.065 225.044 128.229 226.116C128.705 229.209 129.299 233.749 129.896 236.815C130.222 238.488 130.063 240.825 129.355 245.049C128.588 249.622 125.445 266.639 124.119 279.24C123.476 285.356 123.447 288.598 129.405 299.052C133.048 305.446 138.81 313.939 141.675 318.9C147.601 329.169 147.506 328.622 150.856 335.52C153.654 334.266 159.147 331.061 161.471 319.374C162.033 316.548 162.368 314.351 161.609 309.898C160.177 309.013 157.787 305.5 156.211 303.371C153.164 299.256 151.399 296.381 149.603 293.585C147.868 290.883 143.772 285.999 141.012 281.265C141.175 273.179 140.678 255.648 140.798 252.227C140.833 251.22 140.908 249.557 141.13 248.093C141.315 246.87 142.181 245.833 142.691 244.703Z" fill="#FFBDA7"/>
<path d="M137.003 312.63C144.112 323.807 150.333 336.649 150.333 336.649C150.333 336.649 157.153 335.661 160.609 326.428C163.551 318.566 163.188 312.726 162.665 309.781C159.783 308.27 150.246 293.208 150.246 293.208C145.3 286.838 141.666 281.209 141.666 281.209L140.81 254.16C140.81 254.16 139.007 255.266 134.621 254.51C130.235 253.754 127.869 250.639 127.869 250.639C127.869 250.639 124.7 271.273 123.8 277.61C122.899 283.947 122.881 286.56 125.261 291.916C127.637 297.269 129.895 301.453 137.003 312.63Z" fill="#091057"/>
<path d="M137.514 225.932C137.479 225.548 137.492 224.794 137.536 223.905C137.384 223.187 137.335 222.457 137.351 221.727C137.098 223.117 136.904 224.709 137.059 225.829C137.39 228.243 137.952 229.483 137.952 229.483C137.952 229.483 137.618 227.067 137.514 225.932Z" fill="#F0997A"/>
<path d="M135.558 214.75C135.281 216.813 134.35 220.797 134.362 222.258C134.374 223.717 134.752 227.024 135.189 228.81C135.189 228.81 133.791 225.801 133.907 222.153C133.981 219.852 134.811 217.503 135.558 214.75Z" fill="#F0997A"/>
<path d="M133.028 212.967C132.567 215.79 131.675 220.762 131.568 221.908C131.461 223.052 132.365 228.339 132.365 228.339C132.365 228.339 131.168 224.845 131.026 222.858C130.884 220.871 133.028 212.967 133.028 212.967Z" fill="#F0997A"/>
<path d="M325.466 606.237C325.318 611.269 324.618 614.626 322.878 617.631C321.138 620.636 317.321 621.52 314.363 621.361C310.204 621.139 305.819 619.004 303.417 613.617C301.972 610.376 302.017 606.41 302.67 601.727L325.466 606.237Z" fill="#263238"/>
<path d="M308.502 570.291C307.065 570.448 306.845 577.206 306.219 583.986C305.549 591.252 303.397 595.374 302.805 600.279C301.984 607.075 302.56 610.105 305.124 614.124C307.687 618.143 318.395 621.917 322.471 615.906C325.794 611.006 325.777 605.695 325.255 598.935C324.717 591.948 324.279 587.035 324.412 581.715C324.54 576.63 324.749 571.697 323.481 571.175C323.407 571.924 323.343 572.873 323.263 573.607C323.202 574.172 323.141 576.925 322.336 576.978C322.241 576.331 322.237 575.727 322.261 575.065C322.283 574.489 322.213 573.865 321.817 573.44C321.417 573.013 320.786 572.89 320.198 572.797C318.772 572.57 317.339 572.372 315.895 572.293C315.177 572.254 314.455 572.244 313.735 572.276C313.151 572.301 310.511 572.335 309.966 572.552C309.629 572.685 309.322 572.932 309.207 573.266C309.121 573.513 309.147 573.782 309.155 574.043C309.169 574.511 309.123 574.982 309.017 575.441C308.971 575.643 308.836 575.892 308.629 575.85C308.46 575.816 308.388 575.615 308.382 575.448C308.35 574.631 308.44 574.032 308.449 573.079C308.455 572.639 308.509 572.037 308.502 571.595C308.494 571.16 308.485 570.725 308.502 570.291Z" fill="#37474F"/>
<path opacity="0.15" d="M308.138 601.781C308.118 602.051 308.327 602.286 308.605 602.303C308.883 602.321 309.124 602.116 309.144 601.846C309.163 601.576 308.954 601.341 308.677 601.323C308.399 601.306 308.157 601.511 308.138 601.781Z" fill="black"/>
<path opacity="0.15" d="M308.478 597.085C308.458 597.356 308.668 597.59 308.945 597.608C309.222 597.626 309.463 597.421 309.482 597.151C309.503 596.881 309.292 596.647 309.015 596.628C308.739 596.61 308.497 596.815 308.478 597.085Z" fill="black"/>
<path opacity="0.15" d="M308.8 592.656C308.781 592.926 308.99 593.159 309.267 593.178C309.545 593.196 309.785 592.991 309.804 592.721C309.825 592.451 309.616 592.216 309.338 592.198C309.061 592.181 308.82 592.386 308.8 592.656Z" fill="black"/>
<path opacity="0.15" d="M309.119 588.287C309.098 588.557 309.307 588.792 309.586 588.809C309.864 588.827 310.104 588.622 310.124 588.352C310.143 588.082 309.936 587.848 309.657 587.829C309.379 587.812 309.139 588.017 309.119 588.287Z" fill="black"/>
<path opacity="0.15" d="M320.537 588.605C320.516 588.875 320.725 589.11 321.003 589.128C321.28 589.145 321.522 588.94 321.541 588.67C321.56 588.4 321.351 588.165 321.074 588.148C320.797 588.13 320.557 588.335 320.537 588.605Z" fill="black"/>
<path opacity="0.15" d="M320.218 593.003C320.199 593.274 320.408 593.508 320.685 593.526C320.962 593.544 321.203 593.339 321.224 593.069C321.243 592.798 321.035 592.565 320.757 592.546C320.479 592.528 320.237 592.733 320.218 593.003Z" fill="black"/>
<path opacity="0.15" d="M319.896 597.435C319.876 597.705 320.085 597.939 320.363 597.958C320.64 597.975 320.881 597.77 320.9 597.5C320.921 597.23 320.71 596.997 320.433 596.978C320.157 596.96 319.915 597.165 319.896 597.435Z" fill="black"/>
<path opacity="0.15" d="M319.554 602.132C319.535 602.402 319.744 602.637 320.021 602.655C320.299 602.673 320.539 602.468 320.56 602.197C320.579 601.927 320.371 601.693 320.093 601.675C319.815 601.657 319.573 601.862 319.554 602.132Z" fill="black"/>
<path opacity="0.15" d="M315.383 604.477L318.265 571.701L316.405 571.726L315.383 604.477Z" fill="black"/>
<path d="M308.625 602.063C308.649 602.064 308.677 602.062 308.702 602.055C312.008 601.227 317.696 601.372 319.954 602.359C320.083 602.419 320.233 602.359 320.292 602.233C320.35 602.106 320.293 601.96 320.164 601.904C317.772 600.859 312.036 600.705 308.579 601.573C308.442 601.607 308.358 601.743 308.393 601.876C308.42 601.984 308.516 602.056 308.625 602.063Z" fill="#263238"/>
<path d="M308.967 597.366C309.011 597.369 309.055 597.361 309.097 597.339C311.601 596.085 317.716 596.538 320.295 597.664C320.424 597.722 320.575 597.664 320.633 597.539C320.692 597.414 320.635 597.266 320.506 597.209C317.817 596.033 311.505 595.573 308.865 596.897C308.737 596.96 308.688 597.11 308.753 597.232C308.797 597.313 308.88 597.361 308.967 597.366Z" fill="#263238"/>
<path d="M309.289 592.936C309.334 592.939 309.378 592.931 309.419 592.909C311.923 591.656 318.039 592.108 320.616 593.234C320.745 593.293 320.896 593.234 320.954 593.109C321.014 592.984 320.956 592.836 320.827 592.78C318.14 591.603 311.828 591.143 309.187 592.468C309.059 592.53 309.011 592.681 309.076 592.803C309.119 592.885 309.201 592.932 309.289 592.936Z" fill="#263238"/>
<path d="M309.604 588.568C309.649 588.571 309.694 588.563 309.735 588.541C312.239 587.288 318.354 587.741 320.933 588.865C321.061 588.925 321.213 588.865 321.271 588.739C321.331 588.614 321.273 588.466 321.144 588.411C318.456 587.235 312.144 586.774 309.503 588.098C309.376 588.162 309.327 588.312 309.391 588.434C309.435 588.515 309.517 588.564 309.604 588.568Z" fill="#263238"/>
<path d="M361.023 591.944L366.821 589.77L364.889 585.951L361.336 589.221L361.023 591.944Z" fill="black"/>
<path d="M354.929 581.775C354.929 581.775 354.728 585.463 354.686 586.625C354.644 587.787 359.757 591.359 361.024 591.944L361.336 589.221C362.431 590.277 363.096 591.621 364.284 593.598C365.275 595.248 366.549 598.37 369.257 600.484C373.278 603.624 379.517 605.184 385.868 605.36C392.221 605.537 395.844 603.989 397.638 602.635C399.433 601.28 399.992 599.707 399.529 598.139C399.066 596.571 354.929 581.775 354.929 581.775Z" fill="#263238"/>
<path d="M371.814 569.063L371.873 566.922C373.043 566.88 373.208 569.976 374.939 572.68C377.265 576.317 380.681 580.868 383.967 583.741C390.453 589.405 396.228 592.948 399.122 595.5C402.995 598.912 396.284 604.435 385.915 603.949C380.768 603.708 371.609 601.26 369.017 598.319C366.425 595.377 364.809 590.777 362.736 588.642C360.663 586.507 356.23 584.374 354.927 581.774C354.211 580.344 354.556 576.994 354.953 574.146C355.318 571.533 355.365 567.53 356.879 567.844L356.997 569.186C357.624 570.324 359.071 572.197 363.225 572.847C365.301 573.17 371.48 573.303 371.814 569.063Z" fill="#37474F"/>
<path opacity="0.15" d="M366.557 572.927C368.536 572.745 370.662 572.091 371.478 570.347C371.487 570.326 371.503 570.311 371.513 570.291C371.513 570.291 371.013 572.295 372.884 574.392C374.754 576.489 386.584 591.291 386.584 591.291C386.584 591.291 375.586 579.091 373.478 576.794C370.36 573.398 369.376 573.006 366.549 572.933C366.552 572.93 366.554 572.928 366.557 572.927Z" fill="black"/>
<path opacity="0.15" d="M369.176 576.852C369.141 577.192 368.829 577.437 368.481 577.403C368.133 577.368 367.88 577.065 367.915 576.726C367.952 576.387 368.263 576.141 368.612 576.175C368.959 576.21 369.213 576.514 369.176 576.852Z" fill="black"/>
<path opacity="0.15" d="M372.262 580.122C372.227 580.461 371.916 580.709 371.567 580.673C371.219 580.638 370.966 580.335 371.001 579.996C371.037 579.657 371.349 579.409 371.696 579.445C372.044 579.479 372.298 579.783 372.262 580.122Z" fill="black"/>
<path opacity="0.15" d="M375.348 583.391C375.313 583.731 375.001 583.978 374.653 583.943C374.304 583.907 374.052 583.605 374.087 583.265C374.123 582.926 374.435 582.68 374.782 582.714C375.131 582.749 375.384 583.052 375.348 583.391Z" fill="black"/>
<path opacity="0.15" d="M378.434 586.659C378.399 586.998 378.087 587.244 377.739 587.21C377.39 587.175 377.138 586.872 377.173 586.533C377.209 586.193 377.521 585.948 377.87 585.982C378.217 586.017 378.471 586.32 378.434 586.659Z" fill="black"/>
<path opacity="0.15" d="M381.52 589.929C381.485 590.268 381.173 590.514 380.825 590.48C380.476 590.446 380.224 590.142 380.259 589.803C380.294 589.463 380.607 589.216 380.954 589.251C381.303 589.287 381.557 589.591 381.52 589.929Z" fill="black"/>
<path d="M368.528 577.038C368.468 577.034 368.41 577.009 368.365 576.965C368.266 576.867 368.266 576.709 368.367 576.613C368.493 576.49 371.52 573.602 375.511 573.796C375.511 573.796 375.513 573.796 375.516 573.796C375.654 573.806 375.759 573.921 375.752 574.057C375.745 574.193 375.626 574.299 375.483 574.292C371.717 574.11 368.755 576.936 368.726 576.965C368.672 577.019 368.6 577.043 368.528 577.038Z" fill="#263238"/>
<path d="M371.617 580.296C371.557 580.292 371.499 580.268 371.454 580.224C371.353 580.127 371.355 579.969 371.454 579.873C371.58 579.749 374.606 576.862 378.598 577.056H378.602C378.74 577.066 378.846 577.181 378.838 577.317C378.831 577.453 378.712 577.559 378.571 577.552C374.809 577.368 371.842 580.196 371.813 580.223C371.759 580.277 371.687 580.302 371.617 580.296Z" fill="#263238"/>
<path d="M374.7 583.577C374.64 583.573 374.582 583.548 374.537 583.504C374.438 583.406 374.438 583.248 374.537 583.152C374.665 583.029 377.689 580.141 381.681 580.336C381.681 580.336 381.684 580.336 381.687 580.336C381.825 580.345 381.93 580.46 381.923 580.596C381.916 580.733 381.797 580.839 381.655 580.831C377.895 580.648 374.927 583.475 374.898 583.504C374.844 583.558 374.771 583.582 374.7 583.577Z" fill="#263238"/>
<path d="M377.786 586.845C377.726 586.841 377.668 586.816 377.623 586.773C377.524 586.675 377.524 586.519 377.623 586.421C377.751 586.298 380.775 583.409 384.767 583.603C384.767 583.603 384.77 583.603 384.773 583.603C384.911 583.613 385.016 583.728 385.009 583.864C385.002 584.001 384.883 584.105 384.741 584.099C380.981 583.915 378.013 586.744 377.984 586.771C377.93 586.826 377.857 586.85 377.786 586.845Z" fill="#263238"/>
<path d="M380.872 590.113C380.812 590.109 380.754 590.084 380.709 590.041C380.61 589.943 380.61 589.786 380.709 589.689C380.837 589.566 383.861 586.679 387.853 586.873C387.853 586.873 387.856 586.873 387.859 586.873C387.997 586.882 388.103 586.998 388.095 587.133C388.088 587.27 387.968 587.375 387.827 587.368C384.066 587.185 381.099 590.012 381.069 590.041C381.014 590.094 380.943 590.118 380.872 590.113Z" fill="#263238"/>
<path d="M342.188 467.996L348.841 506.219C348.841 506.219 348.447 517.67 348.964 525.665C349.566 534.963 354.413 574.458 354.413 574.458C354.413 574.458 366.951 581.314 376.385 573.972C376.385 573.972 378.366 512.87 378.398 501.668C378.463 479.694 376.871 436.878 375.451 408.539L373.339 408.652L309.68 411.891C304.667 451.854 305.404 508.1 305.404 508.1C304.979 511.133 303.482 517.115 303.627 540.939C303.725 556.878 305.255 581.807 305.255 581.807C305.255 581.807 316.813 585.932 326.167 583.327C326.167 583.327 334.505 536.101 336.251 516.9C338.397 493.294 342.188 467.996 342.188 467.996Z" fill="#263238"/>
<path d="M370.672 452.619C371.895 461.571 372.632 470.58 373.218 479.587C373.768 488.581 374.357 497.635 374.2 506.656C374.169 515.68 374.243 530.803 374.084 539.827C373.951 548.851 373.7 557.873 373.335 566.895C373 557.873 372.78 548.853 372.678 539.835C372.551 530.816 372.4 515.698 372.398 506.679L372.431 499.914L372.438 498.225L372.384 496.55L372.274 493.171L371.819 479.654L371.307 466.137C371.161 461.628 370.916 457.127 370.672 452.619Z" fill="black"/>
<path d="M327.443 449.617C327.101 459.271 326.652 468.921 326.117 478.566C325.858 483.389 325.575 488.212 325.274 493.032L324.823 500.263L324.584 503.878C324.512 505.083 324.326 506.279 324.203 507.48C323.091 517.079 321.523 534.487 320.262 544.072C319.011 553.657 317.63 563.228 316.125 572.781C316.892 563.147 317.784 553.532 318.805 543.931C319.817 534.328 321.274 516.917 322.436 507.33C322.566 506.13 322.761 504.935 322.839 503.731L323.097 500.121L323.641 492.902C324.003 488.09 324.385 483.278 324.788 478.469C325.581 468.847 326.458 459.23 327.443 449.617Z" fill="black"/>
<path d="M344.85 452.682L346.124 445.409C346.124 445.409 357.305 443.772 363.014 438.73C363.014 438.73 359.348 445.376 348.809 448.022L344.901 467.46L349.132 506.248L342.148 468.082L344.85 452.682Z" fill="black"/>
<path d="M390.967 243.077C391.128 241.003 390.785 233.435 390.816 230.885C390.835 229.286 388.982 229.975 388.466 230.924C388.491 230.021 388.402 229.12 388.445 228.231C388.474 227.588 388.184 226.965 387.426 226.897C387.355 226.89 387.277 226.889 387.217 226.849C387.118 226.784 387.106 226.647 387.093 226.53C386.965 225.446 385.967 225.489 385.245 226.04C384.235 226.811 383.866 227.931 383.672 229.143C383.33 231.282 382.988 233.422 382.647 235.561C382.745 234.947 382.684 234.027 382.665 233.396C382.64 232.605 382.627 231.789 382.591 230.991C382.54 229.811 382.462 228.633 382.362 227.456C382.333 227.121 382.268 226.731 381.97 226.575C381.729 226.449 381.423 226.538 381.219 226.717C380.178 227.632 379.814 229.328 379.623 230.63C379.326 232.657 379.221 234.709 378.948 236.739C378.716 238.469 378.647 240.296 377.58 241.749C376.892 242.687 376.833 241.098 376.822 240.738C376.793 239.825 376.795 238.896 376.582 238.002C376.341 236.99 375.534 235.99 374.767 235.314C374.535 235.11 374.242 234.913 373.941 234.984C373.649 235.053 373.471 235.348 373.36 235.626C373.022 236.472 373.174 237.419 373.119 238.329C372.95 241.11 372.354 243.046 371.872 245.79C371.416 248.39 370.779 251.105 371.071 253.754C371.364 256.415 373.399 258.034 373.577 260.756C373.766 263.639 377.459 298.949 377.459 298.949C377.459 298.949 374.14 309.823 371.424 318.584C369.973 323.264 368.746 326.758 367.037 329.026C364.242 332.735 361.928 333.537 358.51 335.733L373.918 371.053C375.53 366.683 379.551 355.812 382.805 345.776C388.825 327.209 391.888 316.134 393.931 307.605C395.78 299.885 395.726 298.821 394.074 291.065C392.12 281.03 385.375 261.346 385.628 258.059C385.878 254.77 390.805 245.152 390.967 243.077Z" fill="#C8856A"/>
<path d="M387.919 331.051L377.674 361.854C367.891 359.415 363.007 344.995 362.707 330.558C362.707 330.558 364.358 329.962 366.145 327.067C367.21 325.344 371.098 315.234 371.098 315.234L376.643 298.838L373.873 268.893C373.873 268.893 377.922 270.598 382.399 269.745C386.874 268.893 388.367 266.975 388.367 266.975C388.367 266.975 393.949 286.797 395.314 292.019C396.68 297.241 397.359 297.922 395.314 306.214C393.269 314.507 387.919 331.051 387.919 331.051Z" fill="#E0E0E0"/>
<path d="M378.053 244.922C381.518 249.086 378.7 254.254 378.7 254.254C378.7 254.254 384.61 249.418 378.053 244.922Z" fill="#AF6152"/>
<path d="M340.7 430.003C326.696 430.003 316.229 426.853 308.716 420.375C309.039 417.47 309.465 414.73 309.878 412.076C311.068 404.408 312.194 397.164 310.734 387.326C310.027 382.559 309.046 378.248 308.181 374.445C306.696 367.92 305.523 362.766 306.259 358.297C307.206 352.554 314.251 334.283 316.993 334.283C318.063 334.735 319.126 334.951 320.276 334.951C322.202 334.951 323.833 334.359 324.635 334.006C325.068 333.815 325.552 333.61 326.059 333.396C328.351 332.426 330.928 331.335 332.288 330.158C332.747 330.259 333.359 330.407 334.094 330.584C338.139 331.566 345.668 333.39 352.59 333.39C356.817 333.39 360.202 332.692 362.662 331.317C368.223 335.595 377.122 344.995 377.042 361.285C376.867 396.414 376.002 415.498 375.929 417.067C375.524 418.032 371.021 427.595 351.222 429.475C347.524 429.825 343.985 430.003 340.7 430.003Z" fill="#FAFAFA"/>
<path d="M332.45 330.844C332.858 330.937 333.363 331.059 333.945 331.201C338.016 332.187 345.593 334.024 352.589 334.024C356.719 334.024 360.08 333.367 362.598 332.069C368.078 336.383 376.487 345.574 376.409 361.282C376.237 395.714 375.403 414.724 375.301 416.926C374.74 418.188 370.145 427.043 351.159 428.845C347.485 429.194 343.967 429.37 340.702 429.37C327.013 429.37 316.758 426.341 309.383 420.112C309.7 417.344 310.109 414.72 310.504 412.175C311.703 404.457 312.836 397.166 311.362 387.234C310.652 382.444 309.668 378.121 308.799 374.306C307.329 367.848 306.168 362.747 306.885 358.402C307.852 352.535 314.472 335.713 316.953 334.929C317.958 335.365 319.076 335.585 320.277 335.585C322.319 335.585 324.044 334.959 324.891 334.587C325.321 334.397 325.802 334.195 326.307 333.981C328.507 333.048 330.97 332.006 332.45 330.844ZM332.099 329.473C330.655 330.917 326.775 332.373 324.381 333.427C323.359 333.876 321.863 334.317 320.277 334.317C319.314 334.317 318.319 334.154 317.378 333.732C317.256 333.677 317.128 333.651 316.995 333.651C313.39 333.651 306.41 353.497 305.636 358.195C304.431 365.508 308.221 374.681 310.11 387.419C312.081 400.708 309.286 409.242 308.051 420.634C315.638 427.309 326.296 430.636 340.702 430.636C344.025 430.636 347.55 430.458 351.28 430.105C370.592 428.271 375.887 419.073 376.555 417.203C376.555 417.203 377.49 398.248 377.674 361.289C377.747 346.615 370.665 336.534 362.707 330.559C360.052 332.185 356.429 332.759 352.589 332.759C344.143 332.759 334.648 329.979 332.099 329.473Z" fill="#E0E0E0"/>
<path d="M319.7 292.458C315.061 299.978 318.251 307.305 321.661 314.642C325.598 322.983 326.234 325.793 331.647 327.116C325.752 299.802 340.374 331.985 358.728 306.784C362.045 302.227 360.228 290.219 354.452 285.627C346.29 279.137 328.847 278.206 319.7 292.458Z" fill="black"/>
<path d="M323.778 323.179C328.087 324.155 329.43 321.076 329.43 321.076L330.895 334.167C330.895 334.167 334.101 337.878 338.864 341.7C345.76 347.236 346.904 349.623 351.895 353.673C353.182 351.342 353.243 341.62 353.076 339.153L351.939 328.878C351.939 328.878 355.021 328.421 357.096 327.317C361.479 324.985 362.532 321.356 362.708 318.008C362.898 314.418 362.27 311.191 361.31 306.735C360.674 303.78 359.869 300.863 358.966 297.978C358.088 295.173 357.294 292.363 355.453 290.023C353.79 287.908 351.346 286.4 348.686 285.949C348.813 287.791 348.84 289.899 347.496 291.166C346.602 292.009 345.301 292.253 344.073 292.3C339.901 292.463 335.85 290.805 331.677 290.701C330.656 290.677 329.467 290.84 328.943 291.715C328.613 292.269 328.649 292.96 328.731 293.6C328.991 295.588 329.662 297.469 329.961 299.455C330.189 300.972 330.299 302.504 330.211 304.037C330.104 305.899 329.584 307.76 329.905 309.626C330.542 313.301 330.434 314.185 329.401 314.874C328.368 315.564 327.062 314.018 326.42 313.016C325.341 311.331 324.481 310.275 322.609 310.131C320.686 309.982 318.791 310.636 317.564 313.336C315.665 317.522 320.651 322.47 323.778 323.179Z" fill="#C8856A"/>
<path d="M351.939 328.877C349.021 329.473 342.681 330.513 337.027 327.715C333.176 325.808 331.553 321.17 331.553 321.17C331.553 321.17 332.145 326.139 336.019 329.339C342.158 334.41 352.067 332.682 352.067 332.682L351.939 328.877Z" fill="#AF6152"/>
<path d="M341.222 300.948L337.204 304.31C336.287 303.146 336.445 301.449 337.554 300.522C338.664 299.593 340.305 299.785 341.222 300.948Z" fill="black"/>
<path d="M352.24 298.875L357.313 299.828C357.54 298.386 356.587 297.004 355.186 296.741C353.785 296.478 352.467 297.433 352.24 298.875Z" fill="black"/>
<path d="M352.856 316.169L345.074 315.734C345.018 317.937 346.713 319.82 348.862 319.94C351.012 320.06 352.8 318.372 352.856 316.169Z" fill="#AF6152"/>
<path d="M345.215 316.842C345.64 318.533 347.089 319.84 348.864 319.939C349.549 319.977 350.187 319.816 350.754 319.528C349.406 317.929 347.418 316.904 345.215 316.842Z" fill="#F28F8F"/>
<path d="M345.723 300.635L350.228 313.34L356.28 308.763L345.723 300.635Z" fill="#AF6152"/>
<path d="M343.038 306.063C343.038 307.006 342.274 307.771 341.331 307.771C340.387 307.771 339.623 307.006 339.623 306.063C339.623 305.12 340.387 304.355 341.331 304.355C342.274 304.355 343.038 305.12 343.038 306.063Z" fill="black"/>
<path d="M356.87 303.262C356.87 304.206 356.106 304.97 355.163 304.97C354.219 304.97 353.455 304.206 353.455 303.262C353.455 302.319 354.219 301.555 355.163 301.555C356.106 301.555 356.87 302.319 356.87 303.262Z" fill="black"/>
<path d="M350.407 354.669C345.659 352.124 338.15 346.924 329.032 330.561L326.547 332.72C326.547 332.72 334.53 349.618 350.102 357.802L350.407 354.669Z" fill="#EC8305"/>
<path d="M354.557 353.796C355.627 351.928 357.489 342.345 353.131 330.068L355.483 333.326C359.354 345.368 358.003 353.409 356.105 357.113L354.557 353.796Z" fill="#EC8305"/>
<path d="M355.092 360.188C355.092 360.188 361.167 396.079 361.783 399.609C362.399 403.14 357.8 412.458 357.091 412.975C356.381 413.493 350.403 405.659 350.016 402.841C349.629 400.023 352.097 360.492 352.097 360.492L355.092 360.188Z" fill="#EC8305"/>
<path d="M354.559 353.795C354.559 353.795 352.335 353.576 350.408 354.668C349.778 356.171 349.753 358.396 350.484 359.357C351.214 360.318 352.571 361.78 353.987 361.549C355.402 361.318 356.394 359.368 356.376 357.617C356.357 355.72 354.559 353.795 354.559 353.795Z" fill="#EC8305"/>
<path opacity="0.2" d="M354.559 353.795C354.559 353.795 352.335 353.576 350.408 354.668C349.778 356.171 349.753 358.396 350.484 359.357C351.214 360.318 352.571 361.78 353.987 361.549C355.402 361.318 356.394 359.368 356.376 357.617C356.357 355.72 354.559 353.795 354.559 353.795Z" fill="white"/>
<path d="M351.894 353.673C348.988 351.155 346.926 342.647 344.867 341.458C342.807 340.269 332.129 335.285 330.469 330.688L330.163 327.38C328.792 326.968 328.217 328.564 323.914 333.618C323.914 333.618 323.403 341.033 327.933 346.212C333.276 352.32 337.461 354.041 337.461 354.041C337.461 354.041 341.907 346.328 342.753 345.936C343.601 345.54 348.747 353.062 351.894 353.673Z" fill="#F0F0F0"/>
<path d="M351.893 353.674C352.918 351.141 351.369 341.491 351.576 340.161C352.01 337.356 351.938 328.878 351.938 328.878C351.938 328.878 353.311 328.727 354.775 328.23C360.03 333.395 360.892 344.489 360.02 347.218C358.353 344.659 354.804 341.553 354.354 342.334C353.906 343.114 354.046 352.213 351.893 353.674Z" fill="#F0F0F0"/>
<path d="M298.488 269.813C298.728 269.289 299.003 268.708 299.178 268.165C299.932 265.832 299.07 263.327 298.408 260.965C298.02 259.581 297.701 258.177 297.45 256.761C297.219 255.454 296.776 254.165 296.667 252.84C296.52 251.077 297.097 249.345 297.435 247.607C297.771 245.87 297.826 243.922 296.786 242.49C296.601 242.236 296.319 241.982 296.015 242.055C295.79 242.11 295.646 242.323 295.526 242.521C294.522 244.193 293.73 245.993 293.174 247.864C292.881 246.565 292.907 245.222 293.079 243.91C293.239 242.696 293.758 241.451 293.838 240.245C293.888 239.487 293.553 238.222 292.917 237.746C292.783 237.645 291.921 237.299 291.36 237.767C291.289 235.822 291.048 234.109 289.047 233.938C288.582 233.897 288.442 235.886 288.389 236.124C287.905 238.245 287.472 240.401 286.908 242.497C286.949 241.347 286.957 240.196 286.931 239.046C286.908 238.054 286.953 237.064 286.561 236.128C286.31 235.529 285.809 234.994 285.169 234.884C285.078 234.868 284.978 234.863 284.899 234.911C284.831 234.953 284.792 235.028 284.757 235.099C284.377 235.878 284.215 236.741 284.062 237.594C283.596 240.188 283.181 242.817 283.323 245.448C283.386 246.596 283.087 248.855 283.255 249.992C283.74 253.277 284.341 258.101 284.956 261.359C285.292 263.136 285.108 265.616 284.329 270.095C283.486 274.944 280.042 292.984 278.555 306.349C277.833 312.836 277.781 316.275 284.039 327.41C287.864 334.217 293.926 343.27 296.934 348.553C303.159 359.489 303.061 358.908 306.573 366.251C309.55 364.937 315.401 361.57 317.942 349.183C318.557 346.187 318.602 341.466 317.824 336.734C316.309 335.785 314.501 333.783 312.843 331.515C309.635 327.128 307.4 324.716 305.511 321.735C303.687 318.856 299.37 313.647 296.472 308.603C296.698 300.022 296.282 281.413 296.43 277.784C296.474 276.714 296.563 274.951 296.809 273.398C297.013 272.105 297.938 271.009 298.488 269.813Z" fill="#C8856A"/>
<path d="M292.017 341.87C299.491 353.777 306.01 367.446 306.01 367.446C306.01 367.446 313.253 366.44 316.981 356.663C320.154 348.337 317.913 336.861 317.378 333.731C314.33 332.109 306.195 321.339 306.195 321.339C300.985 314.545 297.165 308.548 297.165 308.548L296.428 279.835C296.428 279.835 294.508 280.997 289.857 280.168C285.207 279.337 282.716 276.016 282.716 276.016C282.716 276.016 279.221 297.896 278.224 304.615C277.228 311.334 277.193 314.107 279.683 319.807C282.174 325.509 284.543 329.963 292.017 341.87Z" fill="#E0E0E0"/>
<path d="M293.112 249.856C293.077 249.449 293.096 248.65 293.147 247.705C292.99 246.942 292.942 246.167 292.965 245.391C292.688 246.863 292.473 248.553 292.629 249.742C292.965 252.307 293.553 253.626 293.553 253.626C293.553 253.626 293.216 251.063 293.112 249.856Z" fill="#AF6152"/>
<path d="M291.109 237.979C290.801 240.167 289.788 244.39 289.792 245.938C289.796 247.487 290.177 251 290.627 252.898C290.627 252.898 289.163 249.696 289.309 245.824C289.401 243.385 290.299 240.896 291.109 237.979Z" fill="#AF6152"/>
<path d="M288.436 236.07C287.928 239.063 286.949 244.336 286.828 245.55C286.706 246.765 287.632 252.381 287.632 252.381C287.632 252.381 286.383 248.666 286.246 246.555C286.109 244.444 288.436 236.07 288.436 236.07Z" fill="#AF6152"/>
<path d="M154.483 58.9238L161.385 64.2068L169.648 61.5164C170.485 61.2436 171.27 62.0485 170.977 62.8792L168.086 71.0752L173.198 78.1038C173.715 78.8151 173.193 79.8114 172.313 79.7884L163.624 79.5712L158.519 86.6052C158.002 87.3179 156.894 87.1278 156.643 86.2849L154.165 77.9545L145.898 75.2737C145.062 75.0022 144.899 73.8891 145.624 73.3896L152.781 68.4581L152.776 59.7667C152.777 58.8871 153.786 58.3889 154.483 58.9238Z" fill="#F5F5F5"/>
<path d="M69.6496 208.574L69.1989 217.253L76.0932 222.545C76.7909 223.081 76.5723 224.183 75.7226 224.411L67.3284 226.664L64.4263 234.856C64.1331 235.686 63.016 235.817 62.5355 235.08L57.7981 227.794L49.1094 227.566C48.2298 227.542 47.7588 226.52 48.3126 225.838L53.7789 219.08L51.3111 210.747C51.0614 209.904 51.8867 209.14 52.7092 209.455L60.8251 212.565L67.9881 207.643C68.7143 207.146 69.6957 207.696 69.6496 208.574Z" fill="#F5F5F5"/>
<path d="M513.456 60.047L513.006 68.7262L519.9 74.0174C520.597 74.5535 520.379 75.6558 519.529 75.8838L511.135 78.1371L508.233 86.329C507.938 87.1584 506.823 87.29 506.342 86.553L501.605 79.2664L492.916 79.0384C492.036 79.0153 491.565 77.9932 492.119 77.3104L497.585 70.5533L495.118 62.2202C494.868 61.3759 495.693 60.613 496.516 60.928L504.632 64.0378L511.795 59.1158C512.521 58.619 513.502 59.1674 513.456 60.047Z" fill="#F5F5F5"/>
<path d="M74.9468 379.029L83.231 381.658L90.094 376.325C90.789 375.785 91.8003 376.276 91.8071 377.156L91.8668 385.847L99.0597 390.726C99.7872 391.22 99.6338 392.334 98.799 392.611L90.5515 395.353L88.1353 403.701C87.891 404.545 86.7833 404.744 86.2607 404.035L81.104 397.039L72.418 397.32C71.5384 397.348 71.009 396.356 71.5207 395.641L76.5811 388.574L73.6288 380.4C73.3288 379.573 74.1079 378.763 74.9468 379.029Z" fill="#F5F5F5"/>
<path d="M594.423 250.732L602.708 253.361L609.571 248.028C610.266 247.488 611.277 247.979 611.284 248.859L611.343 257.55L618.536 262.429C619.264 262.923 619.11 264.037 618.276 264.314L610.028 267.056L607.612 275.404C607.368 276.25 606.26 276.447 605.737 275.739L600.581 268.743L591.895 269.024C591.015 269.053 590.486 268.061 590.997 267.345L596.058 260.279L593.105 252.104C592.805 251.276 593.584 250.466 594.423 250.732Z" fill="#F5F5F5"/>
<path d="M595.73 396.236L595.28 404.915L602.174 410.206C602.872 410.742 602.653 411.845 601.803 412.074L593.409 414.327L590.507 422.519C590.214 423.349 589.097 423.48 588.617 422.743L583.88 415.457L575.191 415.229C574.312 415.206 573.841 414.183 574.395 413.501L579.861 406.744L577.393 398.41C577.143 397.568 577.969 396.803 578.791 397.118L586.907 400.228L594.07 395.306C594.794 394.808 595.775 395.356 595.73 396.236Z" fill="#F5F5F5"/>
<path d="M78.0899 300.632C78.0899 302.261 76.7692 303.58 75.1416 303.58C73.5127 303.58 72.1934 302.259 72.1934 300.632C72.1934 299.003 73.5141 297.684 75.1416 297.684C76.7692 297.682 78.0899 299.003 78.0899 300.632Z" fill="#F5F5F5"/>
<path d="M78.0909 126.428C79.7191 126.428 81.0391 125.108 81.0391 123.48C81.0391 121.851 79.7191 120.531 78.0909 120.531C76.4626 120.531 75.1426 121.851 75.1426 123.48C75.1426 125.108 76.4626 126.428 78.0909 126.428Z" fill="#F5F5F5"/>
<path d="M260.461 364.817C260.461 366.446 259.14 367.766 257.513 367.766C255.884 367.766 254.564 366.445 254.564 364.817C254.564 363.189 255.885 361.869 257.513 361.869C259.14 361.869 260.461 363.19 260.461 364.817Z" fill="#F5F5F5"/>
<path d="M420.932 326.616C420.932 328.245 419.611 329.566 417.983 329.566C416.356 329.566 415.035 328.245 415.035 326.616C415.035 324.987 416.356 323.668 417.983 323.668C419.611 323.668 420.932 324.987 420.932 326.616Z" fill="#F5F5F5"/>
<path d="M621.949 346.616C621.949 348.245 620.629 349.565 619.001 349.565C617.374 349.565 616.053 348.244 616.053 346.616C616.053 344.987 617.374 343.668 619.001 343.668C620.629 343.668 621.949 344.987 621.949 346.616Z" fill="#F5F5F5"/>
<path d="M555.05 154.473C556.678 154.473 557.998 153.153 557.998 151.524C557.998 149.896 556.678 148.576 555.05 148.576C553.422 148.576 552.102 149.896 552.102 151.524C552.102 153.153 553.422 154.473 555.05 154.473Z" fill="#F5F5F5"/>
<path d="M625.646 146.35C627.274 146.35 628.594 145.03 628.594 143.401C628.594 141.773 627.274 140.453 625.646 140.453C624.017 140.453 622.697 141.773 622.697 143.401C622.697 145.03 624.017 146.35 625.646 146.35Z" fill="#F5F5F5"/>
<path d="M398.445 75.4229C398.445 77.0518 397.125 78.3712 395.497 78.3712C393.868 78.3712 392.549 77.0504 392.549 75.4229C392.549 73.794 393.87 72.4746 395.497 72.4746C397.126 72.4746 398.445 73.794 398.445 75.4229Z" fill="#F5F5F5"/>
<path d="M240.345 78.9219C241.973 78.9219 243.293 77.602 243.293 75.9737C243.293 74.3454 241.973 73.0254 240.345 73.0254C238.716 73.0254 237.396 74.3454 237.396 75.9737C237.396 77.602 238.716 78.9219 240.345 78.9219Z" fill="#F5F5F5"/>
</svg>
