<svg width="679" height="679" viewBox="0 0 679 679" fill="none" xmlns="http://www.w3.org/2000/svg">
<path d="M434.871 140.859C441.574 147.33 449.673 156.106 455.551 158.241C461.677 160.467 463.28 162.599 470.374 163.608C471.918 163.828 475.111 163.954 476.368 164.125C477.486 164.279 478.222 164.94 478.089 166.397C477.826 169.27 471.383 172.21 465.21 172.663C459.038 173.115 445.658 172.346 444.109 172.08C442.616 171.823 440.972 170.8 440.011 169.897C438.325 168.313 438.133 167.968 438.133 167.968C435.695 166.248 424.267 159.437 420.932 157.597L434.871 140.859Z" fill="#FFBDA7"/>
<path d="M448.174 179.094C448.174 179.094 449.209 180.156 449.994 180.439C451.217 180.882 456.162 179.325 457.988 178.679C459.814 178.033 462.007 177.525 465.682 178.811C469.609 180.183 473.97 179.594 478.031 178.026C482.093 176.458 487.04 173.097 491.057 167.155C495.073 161.212 492.492 157.897 492.492 157.897C492.492 157.897 489.946 154.899 488.277 155.727C486.61 156.553 448.174 179.094 448.174 179.094Z" fill="#263238"/>
<path d="M438.133 167.968C438.065 168.167 437.901 168.501 438.364 169.204C438.539 169.47 441.124 171.564 442.37 173.029C443.703 174.597 445.761 177.993 448.174 179.094C453.498 179.057 458.272 175.528 463.07 176.24C467.869 176.954 473.221 178.5 480.988 173.158C488.755 167.815 491.546 160.739 490.853 157.679C490.161 154.62 487.296 154.006 480.87 156.019C474.049 158.156 461.024 157.026 461.018 157.025C459.215 156.869 457.372 156.511 455.607 156.121C453.891 155.742 452.25 154.709 450.606 154.065C449.829 153.761 448.982 153.469 448.174 153.683C447.366 153.899 446.777 154.574 446.241 155.214C445.383 156.239 444.519 157.275 443.909 158.464C443.3 159.653 442.96 161.027 443.224 162.337C443.414 163.284 443.908 164.161 444.001 165.123C444.126 166.413 443.445 167.746 442.326 168.399C440.678 169.362 439.622 168.824 438.857 168.366C438.826 168.382 438.133 167.968 438.133 167.968Z" fill="#37474F"/>
<path d="M475.229 175.91C475.229 175.91 470.506 171.484 472.816 164.002C475.128 156.52 479.729 155.089 482.318 154.633C485.4 154.09 490.67 154.15 491.116 157.664C491.598 161.46 489.956 165.185 485.053 170.339C480.149 175.495 475.229 175.91 475.229 175.91Z" fill="#FAFAFA"/>
<path d="M453.082 167.669C453.248 167.487 453.332 167.236 453.287 166.985C453.05 165.648 453.635 159.137 458.03 156.579C457.801 156.005 457.095 155.893 455.96 156.193C452.038 159.558 451.455 165.713 451.743 167.327C451.817 167.751 452.224 168.015 452.649 167.922C452.823 167.881 452.97 167.792 453.082 167.669Z" fill="#FAFAFA"/>
<path d="M462.63 157.137C462.045 156.678 460.924 156.688 460.441 156.943C456.954 160.378 456.43 166.101 456.702 167.65C456.777 168.072 457.184 168.337 457.609 168.243C457.782 168.205 457.93 168.116 458.041 167.992C458.206 167.81 458.291 167.559 458.246 167.308C458.016 166.009 458.577 159.834 462.63 157.137Z" fill="#FAFAFA"/>
<path d="M473.682 157.167C472.775 156.856 471.767 156.906 470.679 157.299C466.906 160.692 466.338 166.706 466.621 168.298C466.695 168.721 467.103 168.986 467.527 168.892C467.7 168.854 467.848 168.763 467.959 168.641C468.125 168.459 468.209 168.208 468.164 167.957C467.916 166.545 468.585 159.373 473.682 157.167Z" fill="#FAFAFA"/>
<path d="M463.002 168.316C463.167 168.136 463.251 167.883 463.207 167.632C462.972 166.31 463.55 159.934 467.808 157.317C467.164 156.943 466.357 156.912 465.4 157.267C461.912 160.704 461.388 166.427 461.662 167.974C461.737 168.396 462.144 168.663 462.569 168.569C462.742 168.53 462.889 168.439 463.002 168.316Z" fill="#FAFAFA"/>
<path d="M342.639 163.234C358.02 140.648 370.337 129.3 382.198 117.955C388.109 112.302 392.016 111.419 397.743 111.364C401.279 111.33 409.248 114.612 416.387 121.532C429.929 134.658 433.73 138.494 442.897 147.761C442.897 147.761 438.03 161.35 427.653 162.163L403.718 148.252L367.143 203.564L333.779 193.809L342.639 163.234Z" fill="#455A64"/>
<path d="M395.184 133.774C393.398 134.021 392.053 135.559 389.886 138.696C386.014 144.309 371.188 169.664 367.899 175.302C366.122 172.536 363.008 168.661 358.729 167.035C366.699 175.225 366.501 182.955 366.501 182.955L383.616 178.655L386.157 174.812L369.618 178.365C369.618 178.365 369.322 177.716 368.765 176.733C370.975 172.941 387.064 145.373 391.097 139.532C392.973 136.813 394.153 135.402 395.388 135.231C397.003 135.007 399.453 136.919 403.295 140.097C406.414 142.676 416.843 148.748 424.457 153.18C427.936 155.205 431.222 157.119 431.587 157.428L431.907 157.051L432.71 156.49C432.503 156.193 431.926 155.826 425.196 151.909C418.054 147.751 407.258 141.465 404.233 138.962C399.589 135.127 397.332 133.477 395.184 133.774ZM402.211 150.533L403.72 148.252C397.03 143.982 395.232 140.053 395.232 140.053C395.232 140.053 395.981 145.235 402.211 150.533Z" fill="#37474F"/>
<path d="M437.382 141.34L443.702 147.93C443.702 147.93 442.146 154.892 437 159.249C431.854 163.607 428.037 162.993 427.854 162.924C427.671 162.855 420.111 158.31 420.111 158.31C420.111 158.31 432.817 158.317 437.382 141.34Z" fill="#37474F"/>
<path d="M459.481 200.982C467.746 205.281 478.007 211.39 484.249 211.767C490.755 212.159 492.9 213.747 499.986 212.698C501.529 212.469 504.627 211.683 505.88 211.49C506.995 211.319 507.888 211.744 508.175 213.179C508.74 216.007 503.398 220.658 497.609 222.847C491.82 225.036 478.774 228.102 477.213 228.288C475.707 228.467 473.841 227.953 472.664 227.359C470.597 226.32 470.314 226.044 470.314 226.044C467.488 225.088 454.596 221.808 450.875 220.992L459.481 200.982Z" fill="#FFBDA7"/>
<path d="M483.105 233.855C483.105 233.855 484.4 234.579 485.232 234.628C486.53 234.705 490.829 231.806 492.396 230.667C493.962 229.528 495.921 228.417 499.81 228.605C503.965 228.804 507.978 226.999 511.426 224.341C514.874 221.683 518.661 217.055 520.822 210.215C522.983 203.375 519.567 200.931 519.567 200.931C519.567 200.931 516.274 198.78 514.909 200.049C513.545 201.316 483.105 233.855 483.105 233.855Z" fill="#263238"/>
<path d="M470.316 226.043C470.307 226.252 470.246 226.619 470.889 227.162C471.132 227.367 474.207 228.641 475.818 229.691C477.542 230.814 480.481 233.486 483.107 233.855C488.201 232.306 491.774 227.565 496.578 226.885C501.382 226.205 506.951 226.165 512.879 218.835C518.807 211.504 519.469 203.927 517.935 201.191C516.401 198.454 513.48 198.681 507.891 202.438C501.959 206.426 489.15 209.046 489.145 209.047C487.372 209.41 485.503 209.59 483.7 209.719C481.948 209.844 480.082 209.32 478.321 209.171C477.489 209.1 476.593 209.061 475.88 209.497C475.168 209.932 474.796 210.748 474.463 211.515C473.932 212.741 473.398 213.98 473.152 215.293C472.906 216.605 472.971 218.018 473.596 219.201C474.047 220.054 474.77 220.755 475.132 221.651C475.618 222.851 475.344 224.323 474.458 225.267C473.152 226.659 471.987 226.444 471.123 226.222C471.098 226.244 470.316 226.043 470.316 226.043Z" fill="#37474F"/>
<path d="M508.138 223.109C508.138 223.109 502.35 220.208 502.438 212.379C502.527 204.549 506.532 201.869 508.883 200.696C511.684 199.298 516.754 197.857 518.18 201.1C519.722 204.602 519.208 208.641 515.972 214.977C512.737 221.312 508.138 223.109 508.138 223.109Z" fill="#FAFAFA"/>
<path d="M484.564 221.506C484.671 221.285 484.68 221.02 484.565 220.791C483.957 219.576 482.666 213.168 486.153 209.465C485.769 208.979 485.06 209.072 484.059 209.682C481.256 214.024 482.447 220.09 483.182 221.556C483.374 221.941 483.84 222.079 484.22 221.867C484.375 221.784 484.49 221.656 484.564 221.506Z" fill="#FAFAFA"/>
<path d="M490.722 208.695C490.031 208.421 488.959 208.751 488.568 209.131C486.2 213.416 487.326 219.052 488.029 220.458C488.222 220.842 488.686 220.981 489.067 220.769C489.222 220.683 489.337 220.554 489.411 220.407C489.518 220.185 489.527 219.921 489.412 219.691C488.822 218.513 487.604 212.433 490.722 208.695Z" fill="#FAFAFA"/>
<path d="M501.327 205.581C500.37 205.541 499.417 205.876 498.486 206.561C495.833 210.888 496.999 216.814 497.723 218.261C497.916 218.645 498.381 218.784 498.761 218.572C498.916 218.486 499.031 218.357 499.105 218.208C499.212 217.987 499.221 217.722 499.106 217.494C498.465 216.211 497.067 209.145 501.327 205.581Z" fill="#FAFAFA"/>
<path d="M494.256 219.308C494.364 219.086 494.373 218.822 494.258 218.594C493.656 217.392 492.398 211.116 495.737 207.395C495.012 207.22 494.232 207.418 493.413 208.032C491.046 212.318 492.171 217.954 492.874 219.359C493.067 219.743 493.533 219.882 493.913 219.67C494.069 219.586 494.184 219.457 494.256 219.308Z" fill="#FAFAFA"/>
<path d="M463.641 202.733C463.641 202.733 432.858 182.887 424.214 178.018C419.386 175.299 414.996 172.918 406.157 173.83C398.578 174.612 366.499 182.955 366.499 182.955C366.499 182.955 356.593 175.728 342.639 163.234L326.092 228.274C342.142 231.056 357.262 228.457 370.348 223.134C385.876 216.818 401.297 208.428 405.128 207.046C410.651 205.055 410.761 203.344 420.488 210.533C426.716 215.135 434.32 217.104 441.312 219.017C449.88 221.36 455.926 222.823 455.926 222.823C462.622 217.138 464.872 209.056 463.641 202.733Z" fill="#455A64"/>
<path d="M378.755 206.478C373.186 208.987 367.43 211.581 361.706 213.918C359.845 214.678 358.114 215.305 356.486 215.818C356.163 213.594 354.644 208.965 347.787 205.605C337.807 200.716 334.133 197.244 328.966 191.982L327.887 193.03C333.189 198.429 337.131 202.06 347.134 206.963C353.67 210.165 354.814 214.561 355.008 216.262C341.111 220.18 335.458 214.884 326.82 206.788C325.786 205.82 324.704 204.811 323.578 203.784L322.824 205.133C323.849 206.07 324.841 206.994 325.789 207.882C335.789 217.259 342.398 223.452 362.303 215.32C368.05 212.972 373.819 210.374 379.401 207.861C394.215 201.187 408.21 194.885 412.782 197.773C414.751 199.018 416.998 200.67 419.601 202.582C425.864 207.188 425.826 207.033 436.13 211.925C444.459 215.881 459.228 220.124 459.228 220.124L460.188 218.673C460.188 218.673 445.388 214.655 436.766 210.561C426.596 205.733 426.701 205.936 420.491 201.373C417.864 199.441 415.597 197.774 413.58 196.501C408.309 193.166 395.266 199.04 378.755 206.478Z" fill="#37474F"/>
<path d="M462.141 201.594C464.256 205.386 460.327 218.265 453.574 222.741L460.926 224.336C466.866 221.442 471.231 212.423 469.054 205.161L462.141 201.594Z" fill="#37474F"/>
<path d="M339.993 67.893C339.993 67.893 339.755 66.8369 339.611 66.4514C339.134 65.1754 338.295 64.7438 337.089 64.7316C337.089 64.7316 336.931 64.2022 336.666 63.3267C336.345 62.2665 335.674 61.4317 334.469 62.0521C333.277 62.6656 333.277 63.7719 333.277 63.7719C333.277 63.7719 333.099 63.3009 332.777 63.0077C332.183 62.4661 331.25 62.7756 330.668 63.6375C329.441 65.4551 329.342 67.9948 329.813 71.0734C330.634 76.4432 330.384 81.3407 329.643 80.5928L326.312 89.5815C326.946 90.7909 327.2 92.1673 326.88 93.4949C324.968 101.445 318.225 119.492 315.545 124.754C305.469 132.61 299.06 135.758 294.048 138.487C287.762 141.912 281.096 144.977 279.417 147.575C277.315 150.826 277.288 175.119 284.804 178.035C289.695 170.693 297.325 164.673 319.901 147.466C327.113 141.97 333.265 137.161 334.74 133.537C337.485 126.793 338.28 114.222 339.277 102.596C339.907 95.2419 341.686 95.1129 343.667 89.7444C344.386 87.7938 344.519 85.6844 344.713 83.6198C344.963 80.9579 344.96 80.1666 344.747 77.5061C344.523 74.722 343.405 71.8756 342.951 70.2467C342.327 67.9975 340.929 67.8495 339.993 67.893Z" fill="#FFBDA7"/>
<path d="M323.398 103.829L324.927 99.1621C324.927 99.1621 326.489 101.833 331.168 103.112C335.846 104.391 339.494 102.819 339.494 102.819L339.205 107.79C339.205 107.79 336.341 109.744 330.656 107.997C324.972 106.25 323.398 103.829 323.398 103.829Z" fill="#E0E0E0"/>
<path d="M278.289 147.017C282.143 143.518 295.248 136.818 301.135 133.594C307.024 130.369 315.13 124.133 315.13 124.133L323.735 101.957C323.735 101.957 325.106 105.186 330.915 106.636C336.838 108.114 339.664 106.365 339.664 106.365C339.664 106.365 338.008 123.164 336.788 129.791C335.567 136.419 333.524 137.123 328.002 141.958C322.481 146.793 295.1 167.902 295.1 167.902L278.289 147.017Z" fill="#091057"/>
<path d="M332.275 81.7051C335.676 85.0796 336.11 90.7644 334.094 93.9163C337.641 90.7291 337.814 85.1732 332.275 81.7051Z" fill="#F0997A"/>
<path d="M325.703 53.3403L327.837 52.7363C330.002 44.1901 324.831 25.8367 318.519 19.6836L316.385 20.2876L312.723 34.6951C312.723 34.6951 313.373 35.3141 314.445 36.5072L315.018 34.2499C315.271 34.501 315.815 35.0534 316.579 35.9032L318.968 26.4977C319.993 28.1606 320.972 30.1953 321.836 32.5083C323.259 36.3443 324.252 40.6188 324.559 44.2552C324.683 45.7185 324.699 47.0474 324.609 48.2161C324.521 49.3116 324.379 50.1599 324.296 50.6554C324.764 51.5092 325.237 52.4119 325.703 53.3403Z" fill="#EC8305"/>
<path d="M314.855 34.0916C314.855 34.0916 315.506 34.7106 316.578 35.9038L319.646 23.8243C321.193 25.7015 322.703 28.5154 323.968 31.9049C325.39 35.7409 326.384 40.0153 326.691 43.6518C326.814 45.1151 326.83 46.444 326.741 47.6127C326.653 48.7081 326.51 49.5565 326.426 50.0519C326.894 50.9071 327.367 51.8098 327.834 52.7382C329.999 44.192 324.827 25.8386 318.515 19.6855L314.855 34.0916Z" fill="#EC8305"/>
<path opacity="0.4" d="M314.855 34.0916C314.855 34.0916 315.506 34.7106 316.578 35.9038L319.646 23.8243C321.193 25.7015 322.703 28.5154 323.968 31.9049C325.39 35.7409 326.384 40.0153 326.691 43.6518C326.814 45.1151 326.83 46.444 326.741 47.6127C326.653 48.7081 326.51 49.5565 326.426 50.0519C326.894 50.9071 327.367 51.8098 327.834 52.7382C329.999 44.192 324.827 25.8386 318.515 19.6855L314.855 34.0916Z" fill="white"/>
<path d="M318.52 19.6855L314.855 34.0984L312.721 34.6997L316.387 20.2869L318.52 19.6855Z" fill="#EC8305"/>
<path opacity="0.6" d="M318.52 19.6855L314.855 34.0984L312.721 34.6997L316.387 20.2869L318.52 19.6855Z" fill="white"/>
<path d="M333.533 91.6744C332.318 90.4907 331.883 88.5062 332.521 85.995C333.796 80.9713 338.874 75.763 343.86 74.3635C346.2 73.7051 348.1 73.9983 349.329 75.0137C349.355 75.0327 349.373 75.0517 349.397 75.0734C349.455 75.1236 349.509 75.1766 349.564 75.2295C349.618 75.2824 351.085 76.7118 351.139 76.7661C351.194 76.819 351.249 76.872 351.3 76.929C351.323 76.9507 351.342 76.9697 351.361 76.9955C352.407 78.1968 352.749 80.0903 352.151 82.4468C350.876 87.4637 345.798 92.6721 340.812 94.0784C338.317 94.7801 336.323 94.396 335.109 93.2123C334.845 92.9544 333.795 91.931 333.533 91.6744Z" fill="#EC8305"/>
<path opacity="0.3" d="M333.533 91.6744C332.318 90.4907 331.883 88.5062 332.521 85.995C333.796 80.9713 338.874 75.763 343.86 74.3635C346.2 73.7051 348.1 73.9983 349.329 75.0137C349.355 75.0327 349.373 75.0517 349.397 75.0734C349.455 75.1236 349.509 75.1766 349.564 75.2295C349.618 75.2824 351.085 76.7118 351.139 76.7661C351.194 76.819 351.249 76.872 351.3 76.929C351.323 76.9507 351.342 76.9697 351.361 76.9955C352.407 78.1968 352.749 80.0903 352.151 82.4468C350.876 87.4637 345.798 92.6721 340.812 94.0784C338.317 94.7801 336.323 94.396 335.109 93.2123C334.845 92.9544 333.795 91.931 333.533 91.6744Z" fill="black"/>
<path opacity="0.7" d="M346.787 90.6369C344.964 92.2467 342.882 93.4915 340.81 94.0765C339.973 94.3127 339.196 94.4159 338.481 94.4172L332.238 88.332C332.222 87.618 332.305 86.8389 332.519 85.9946C333.049 83.9082 334.24 81.7934 335.803 79.9297L346.787 90.6369Z" fill="#EC8305"/>
<path opacity="0.2" d="M342.172 74.9838C342.732 74.734 343.296 74.5209 343.859 74.3635C346.199 73.7051 348.1 73.9983 349.328 75.0137C349.354 75.0327 349.373 75.0517 349.396 75.0734C349.454 75.1236 349.509 75.1766 349.563 75.2295C349.617 75.2824 351.085 76.7118 351.139 76.7661C351.193 76.819 351.249 76.872 351.299 76.929C351.322 76.9507 351.341 76.9697 351.36 76.9955C352.407 78.1968 352.749 80.0903 352.15 82.4468C352.006 83.0142 351.807 83.5829 351.572 84.149L342.172 74.9838Z" fill="black"/>
<path d="M350.536 77.3146C350.497 77.1137 350.447 76.9223 350.387 76.7363C350.371 76.6861 350.353 76.6372 350.335 76.587C350.28 76.4309 350.216 76.2816 350.147 76.1377C350.125 76.0929 350.105 76.0467 350.082 76.0033C349.988 75.8282 349.888 75.6599 349.774 75.5038C349.771 75.5011 349.769 75.497 349.767 75.4943C349.65 75.3355 349.521 75.1902 349.383 75.0531C349.342 75.0124 349.297 74.9758 349.255 74.9364C349.155 74.8454 349.05 74.7572 348.94 74.6771C348.883 74.635 348.826 74.5943 348.766 74.5563C348.656 74.483 348.54 74.4179 348.422 74.3554C348.362 74.3242 348.305 74.2903 348.244 74.2618C348.069 74.1803 347.887 74.1084 347.695 74.0473C347.636 74.0283 347.57 74.0161 347.508 73.9998C347.367 73.9618 347.224 73.9265 347.075 73.8993C346.985 73.8831 346.895 73.8722 346.802 73.86C346.734 73.8505 346.669 73.8369 346.6 73.8301C346.508 73.826 346.406 73.8179 346.305 73.8125C346.252 73.8098 346.2 73.8084 346.147 73.807C342.406 73.5939 339.208 75.5269 336.385 78.4222C333.559 81.3216 331.709 84.5726 332.023 88.3122C332.026 88.3556 332.028 88.3991 332.031 88.4412C332.04 88.5484 332.051 88.6529 332.058 88.7507C332.068 88.824 332.084 88.8918 332.095 88.9638C332.108 89.0479 332.121 89.1334 332.138 89.2149C332.171 89.3751 332.213 89.5284 332.258 89.6778C332.274 89.7293 332.285 89.7836 332.302 89.8339C332.369 90.0266 332.448 90.2099 332.535 90.3863C332.562 90.4406 332.593 90.4895 332.621 90.5424C332.691 90.6673 332.765 90.7895 332.845 90.9048C332.882 90.9578 332.92 91.0094 332.959 91.0596C333.048 91.175 333.144 91.2836 333.244 91.3867C333.28 91.422 333.312 91.46 333.348 91.494C333.633 91.7668 333.961 91.9948 334.328 92.1767C334.367 92.1957 334.406 92.2134 334.447 92.231C334.601 92.3016 334.759 92.3627 334.924 92.417C334.967 92.4306 335.009 92.4455 335.054 92.4591C335.251 92.5174 335.454 92.5663 335.667 92.6016C335.677 92.603 335.685 92.6057 335.693 92.607C335.929 92.645 336.174 92.6681 336.429 92.6776C336.445 92.6776 336.463 92.6776 336.479 92.6776C336.704 92.6844 336.938 92.6776 337.177 92.66C337.231 92.6559 337.287 92.6505 337.342 92.6464C337.557 92.6274 337.777 92.5975 338.002 92.5582C338.058 92.5487 338.111 92.5405 338.166 92.531C338.446 92.4781 338.731 92.4143 339.026 92.3315C344.006 90.932 349.087 85.7196 350.359 80.7053C350.433 80.4121 350.49 80.1271 350.536 79.8488C350.547 79.785 350.554 79.7239 350.564 79.6615C350.595 79.4443 350.618 79.2326 350.631 79.0249C350.635 78.9624 350.64 78.9014 350.642 78.8389C350.652 78.6095 350.653 78.3869 350.641 78.1697C350.64 78.1453 350.641 78.1195 350.638 78.0937C350.622 77.8439 350.593 77.6037 350.55 77.3729C350.545 77.3498 350.539 77.3322 350.536 77.3146Z" fill="#EC8305"/>
<g opacity="0.8">
<path d="M350.536 77.3146C350.497 77.1137 350.447 76.9223 350.387 76.7363C350.371 76.6861 350.353 76.6372 350.335 76.587C350.28 76.4309 350.216 76.2816 350.147 76.1377C350.125 76.0929 350.105 76.0467 350.082 76.0033C349.988 75.8282 349.888 75.6599 349.774 75.5038C349.771 75.5011 349.769 75.497 349.767 75.4943C349.65 75.3355 349.521 75.1902 349.383 75.0531C349.342 75.0124 349.297 74.9758 349.255 74.9364C349.155 74.8454 349.05 74.7572 348.94 74.6771C348.883 74.635 348.826 74.5943 348.766 74.5563C348.656 74.483 348.54 74.4179 348.422 74.3554C348.362 74.3242 348.305 74.2903 348.244 74.2618C348.069 74.1803 347.887 74.1084 347.695 74.0473C347.636 74.0283 347.57 74.0161 347.508 73.9998C347.367 73.9618 347.224 73.9265 347.075 73.8993C346.985 73.8831 346.895 73.8722 346.802 73.86C346.734 73.8505 346.669 73.8369 346.6 73.8301C346.508 73.826 346.406 73.8179 346.305 73.8125C346.252 73.8098 346.2 73.8084 346.147 73.807C342.406 73.5939 339.208 75.5269 336.385 78.4222C333.559 81.3216 331.709 84.5726 332.023 88.3122C332.026 88.3556 332.028 88.3991 332.031 88.4412C332.04 88.5484 332.051 88.6529 332.058 88.7507C332.068 88.824 332.084 88.8918 332.095 88.9638C332.108 89.0479 332.121 89.1334 332.138 89.2149C332.171 89.3751 332.213 89.5284 332.258 89.6778C332.274 89.7293 332.285 89.7836 332.302 89.8339C332.369 90.0266 332.448 90.2099 332.535 90.3863C332.562 90.4406 332.593 90.4895 332.621 90.5424C332.691 90.6673 332.765 90.7895 332.845 90.9048C332.882 90.9578 332.92 91.0094 332.959 91.0596C333.048 91.175 333.144 91.2836 333.244 91.3867C333.28 91.422 333.312 91.46 333.348 91.494C333.633 91.7668 333.961 91.9948 334.328 92.1767C334.367 92.1957 334.406 92.2134 334.447 92.231C334.601 92.3016 334.759 92.3627 334.924 92.417C334.967 92.4306 335.009 92.4455 335.054 92.4591C335.251 92.5174 335.454 92.5663 335.667 92.6016C335.677 92.603 335.685 92.6057 335.693 92.607C335.929 92.645 336.174 92.6681 336.429 92.6776C336.445 92.6776 336.463 92.6776 336.479 92.6776C336.704 92.6844 336.938 92.6776 337.177 92.66C337.231 92.6559 337.287 92.6505 337.342 92.6464C337.557 92.6274 337.777 92.5975 338.002 92.5582C338.058 92.5487 338.111 92.5405 338.166 92.531C338.446 92.4781 338.731 92.4143 339.026 92.3315C344.006 90.932 349.087 85.7196 350.359 80.7053C350.433 80.4121 350.49 80.1271 350.536 79.8488C350.547 79.785 350.554 79.7239 350.564 79.6615C350.595 79.4443 350.618 79.2326 350.631 79.0249C350.635 78.9624 350.64 78.9014 350.642 78.8389C350.652 78.6095 350.653 78.3869 350.641 78.1697C350.64 78.1453 350.641 78.1195 350.638 78.0937C350.622 77.8439 350.593 77.6037 350.55 77.3729C350.545 77.3498 350.539 77.3322 350.536 77.3146Z" fill="white"/>
</g>
<path opacity="0.3" d="M335.689 84.9018L333.275 82.5494C333.935 81.2979 334.816 80.1088 335.857 78.9727L339.95 82.9621L344.999 88.8871C343.175 90.4983 341.091 91.7458 339.021 92.3268C338.727 92.4096 338.443 92.4734 338.162 92.5263C338.106 92.5372 338.052 92.5453 337.998 92.5534C337.772 92.5928 337.553 92.6213 337.338 92.6417C337.282 92.6471 337.227 92.6525 337.172 92.6553C337.01 92.6661 336.852 92.6715 336.695 92.6729L335.689 84.9018Z" fill="white"/>
<path opacity="0.15" d="M342.406 79.6325L338.893 76.2092C341.074 74.6007 343.47 73.6518 346.144 73.8052C346.197 73.8066 346.25 73.8093 346.303 73.812C346.404 73.8174 346.505 73.8256 346.597 73.8297C346.666 73.8364 346.732 73.85 346.799 73.8595C346.892 73.8717 346.983 73.8826 347.072 73.8989C347.222 73.926 347.364 73.9613 347.505 73.9993C347.568 74.0156 347.633 74.0278 347.693 74.0468C347.884 74.1066 348.066 74.1799 348.241 74.2613C348.302 74.2898 348.359 74.3237 348.419 74.355C348.538 74.4174 348.654 74.4839 348.764 74.5559C348.823 74.5952 348.88 74.6346 348.937 74.6767C349.047 74.7581 349.152 74.845 349.252 74.9359C349.294 74.9753 349.339 75.012 349.38 75.0527C349.518 75.1898 349.647 75.3364 349.764 75.4938C349.767 75.4965 349.768 75.5006 349.771 75.5047C349.885 75.6608 349.987 75.8291 350.079 76.0042C350.102 76.0476 350.122 76.0938 350.144 76.1386C350.215 76.2825 350.277 76.4331 350.333 76.5879C350.35 76.6368 350.368 76.687 350.384 76.7372C350.444 76.9232 350.494 77.1146 350.534 77.3155C350.538 77.3345 350.543 77.3508 350.546 77.3698C350.589 77.6005 350.618 77.8408 350.634 78.0905C350.635 78.115 350.635 78.1408 350.637 78.1665C350.648 78.3837 350.648 78.6063 350.638 78.8357C350.635 78.8968 350.631 78.9593 350.627 79.0217C350.614 79.2294 350.591 79.4411 350.559 79.6583C350.55 79.7208 350.543 79.7819 350.532 79.8457C350.486 80.1239 350.43 80.409 350.354 80.7022C350.211 81.2682 350.012 81.837 349.778 82.403L342.406 79.6325Z" fill="#EC8305"/>
<path d="M332.531 83.5988C331.854 82.9391 331.612 81.8328 331.968 80.4333C332.678 77.6344 335.508 74.7309 338.287 73.9517C339.59 73.5852 340.65 73.7481 341.334 74.3142C341.348 74.325 341.359 74.3345 341.372 74.3467C341.405 74.3753 341.435 74.4038 341.466 74.4336C341.496 74.4635 342.799 75.734 342.83 75.7625C342.86 75.7924 342.891 75.8222 342.92 75.8535C342.932 75.8657 342.943 75.8765 342.953 75.8901C343.537 76.5593 343.727 77.6154 343.393 78.928C342.683 81.7242 339.853 84.6263 337.075 85.4096C335.685 85.8005 334.573 85.586 333.897 84.9263C333.749 84.7852 332.678 83.7413 332.531 83.5988Z" fill="#EC8305"/>
<path opacity="0.3" d="M332.531 83.5988C331.854 82.9391 331.612 81.8328 331.968 80.4333C332.678 77.6344 335.508 74.7309 338.287 73.9517C339.59 73.5852 340.65 73.7481 341.334 74.3142C341.348 74.325 341.359 74.3345 341.372 74.3467C341.405 74.3753 341.435 74.4038 341.466 74.4336C341.496 74.4635 342.799 75.734 342.83 75.7625C342.86 75.7924 342.891 75.8222 342.92 75.8535C342.932 75.8657 342.943 75.8765 342.953 75.8901C343.537 76.5593 343.727 77.6154 343.393 78.928C342.683 81.7242 339.853 84.6263 337.075 85.4096C335.685 85.8005 334.573 85.586 333.897 84.9263C333.749 84.7852 332.678 83.7413 332.531 83.5988Z" fill="black"/>
<path opacity="0.7" d="M340.403 83.4942C339.388 84.3914 338.228 85.0851 337.072 85.4108C336.605 85.5425 336.179 85.6049 335.78 85.6063L331.81 81.7364C331.8 81.3386 331.846 80.9043 331.966 80.4346C332.26 79.2713 332.924 78.0931 333.796 77.0547L340.403 83.4942Z" fill="#EC8305"/>
<path opacity="0.2" d="M337.344 74.2979C337.656 74.1581 337.971 74.04 338.284 73.9517C339.588 73.5852 340.648 73.7481 341.332 74.3142C341.345 74.325 341.356 74.3345 341.37 74.3467C341.402 74.3753 341.432 74.4038 341.463 74.4336C341.493 74.4635 342.796 75.734 342.828 75.7639C342.858 75.7937 342.889 75.8236 342.917 75.8548C342.929 75.867 342.94 75.8779 342.951 75.8915C343.535 76.5607 343.725 77.6167 343.391 78.9293C343.311 79.2456 343.202 79.5646 343.071 79.8809L337.344 74.2979Z" fill="black"/>
<path d="M332.407 83.472L332.402 83.4666C330.755 81.6694 332.034 74.1779 332.034 74.1779C332.034 74.1779 339.49 72.7092 341.328 74.3096L341.333 74.315C341.411 74.3788 341.485 74.4494 341.553 74.5268C341.565 74.539 341.576 74.5499 341.587 74.5634C342.171 75.2326 342.361 76.2887 342.027 77.6013C341.314 80.3989 338.487 83.2997 335.708 84.0829C334.404 84.4494 333.345 84.2865 332.661 83.7205C332.646 83.7096 332.636 83.7001 332.623 83.6879C332.545 83.62 332.474 83.5467 332.407 83.472Z" fill="#EC8305"/>
<path opacity="0.8" d="M332.407 83.472L332.402 83.4666C330.755 81.6694 332.034 74.1779 332.034 74.1779C332.034 74.1779 339.49 72.7092 341.328 74.3096L341.333 74.315C341.411 74.3788 341.485 74.4494 341.553 74.5268C341.565 74.539 341.576 74.5499 341.587 74.5634C342.171 75.2326 342.361 76.2887 342.027 77.6013C341.314 80.3989 338.487 83.2997 335.708 84.0829C334.404 84.4494 333.345 84.2865 332.661 83.7205C332.646 83.7096 332.636 83.7001 332.623 83.6879C332.545 83.62 332.474 83.5467 332.407 83.472Z" fill="white"/>
<path opacity="0.3" d="M335.709 84.0833C335.298 84.1987 334.914 84.2557 334.555 84.2706C332.4 82.1585 332.033 74.1797 332.033 74.1797C332.033 74.1797 337.402 80.5703 339.04 82.1666C338.023 83.0639 336.863 83.7575 335.709 84.0833Z" fill="white"/>
<path opacity="0.15" d="M341.329 74.3106L341.334 74.316C341.411 74.3798 341.486 74.4504 341.554 74.5277C341.566 74.54 341.577 74.5508 341.588 74.5644C342.172 75.2336 342.362 76.2896 342.028 77.6023C341.94 77.9497 341.817 78.2986 341.668 78.6447C340.222 77.2358 332.033 74.1802 332.033 74.1802C332.033 74.1802 339.491 72.7115 341.329 74.3106Z" fill="#EC8305"/>
<path d="M289.42 63.2936C287.097 61.0295 286.271 57.2315 287.491 52.4344C289.93 42.8403 299.633 32.8879 309.16 30.2029C313.925 28.8605 317.743 29.5907 320.066 31.8549C320.53 32.3069 322.377 34.1082 322.842 34.5615C325.164 36.8257 325.991 40.6237 324.772 45.4207C322.333 55.0148 312.63 64.9673 303.102 67.6522C298.338 68.9947 294.519 68.2644 292.197 66.0003C291.731 65.5469 289.884 63.7456 289.42 63.2936Z" fill="#EC8305"/>
<path opacity="0.3" d="M289.42 63.2936C287.097 61.0295 286.271 57.2315 287.491 52.4344C289.93 42.8403 299.633 32.8879 309.16 30.2029C313.925 28.8605 317.743 29.5907 320.066 31.8549C320.53 32.3069 322.377 34.1082 322.842 34.5615C325.164 36.8257 325.991 40.6237 324.772 45.4207C322.333 55.0148 312.63 64.9673 303.102 67.6522C298.338 68.9947 294.519 68.2644 292.197 66.0003C291.731 65.5469 289.884 63.7456 289.42 63.2936Z" fill="black"/>
<path opacity="0.7" d="M287.125 54.2031L301.343 68.0608C297.397 68.783 294.226 67.9767 292.196 65.9989C291.732 65.5469 289.885 63.7457 289.421 63.2923C287.39 61.3159 286.504 58.1654 287.125 54.2031Z" fill="#EC8305"/>
<path opacity="0.7" d="M316.595 59.1269C313.543 62.2571 309.956 64.8592 306.269 66.4949L288.564 49.2369C290.105 45.5108 292.615 41.8567 295.666 38.7266L316.595 59.1269Z" fill="#EC8305"/>
<path opacity="0.2" d="M307.775 30.6482C308.237 30.4853 308.7 30.3319 309.161 30.2029C313.926 28.8605 317.744 29.5907 320.067 31.8549C320.531 32.3069 322.378 34.1082 322.843 34.5615C325.165 36.8257 325.992 40.6237 324.773 45.4207C324.655 45.8863 324.513 46.3519 324.363 46.8175L307.775 30.6482Z" fill="black"/>
<path d="M313.816 56.4166C322.278 47.7348 325.075 36.7361 320.063 31.8504C315.05 26.9646 304.127 30.0418 295.664 38.7236C287.202 47.4054 284.405 58.4041 289.418 63.2898C294.43 68.1756 305.354 65.0983 313.816 56.4166Z" fill="#EC8305"/>
<path opacity="0.15" d="M313.816 56.4166C322.278 47.7348 325.075 36.7361 320.063 31.8504C315.05 26.9646 304.127 30.0418 295.664 38.7236C287.202 47.4054 284.405 58.4041 289.418 63.2898C294.43 68.1756 305.354 65.0983 313.816 56.4166Z" fill="black"/>
<path d="M290.986 61.6841C291.453 62.1388 292.008 62.504 292.631 62.7795C291.795 60.9837 291.722 58.5404 292.445 55.6925C293.528 51.4317 296.227 46.9237 300.049 43.0022C303.872 39.0807 308.312 36.2641 312.544 35.0723C315.373 34.2768 317.812 34.2863 319.631 35.0804C319.341 34.4642 318.962 33.9185 318.495 33.4638C316.669 31.6842 313.572 31.2946 309.77 32.367C305.537 33.5588 301.097 36.3754 297.275 40.2969C293.452 44.2184 290.754 48.725 289.671 52.9872C288.695 56.8137 289.16 59.9046 290.986 61.6841Z" fill="#EC8305"/>
<path opacity="0.1" d="M304.527 34.6135C306.272 33.6171 308.038 32.8543 309.768 32.367C313.569 31.2946 316.668 31.6842 318.494 33.4638C318.961 33.9185 319.339 34.4642 319.63 35.0804C317.811 34.2863 315.372 34.2768 312.543 35.0723C310.812 35.5596 309.046 36.3238 307.302 37.3188L304.527 34.6135Z" fill="black"/>
<path opacity="0.2" d="M299.66 43.4143C296.452 46.8078 294.081 50.6099 292.858 54.2993L290.082 51.594C291.306 47.9046 293.676 44.1038 296.884 40.709L299.66 43.4143Z" fill="white"/>
<path d="M322.84 34.5605C325.162 36.8247 325.989 40.6227 324.77 45.4197C322.331 55.0139 312.628 64.9663 303.101 67.6512C298.336 68.9937 294.518 68.2634 292.195 65.9993C306.785 80.2208 326.096 84.5767 334.188 76.2762C342.278 67.9757 337.429 48.7807 322.84 34.5605Z" fill="#EC8305"/>
<path opacity="0.7" d="M322.84 34.5605C325.162 36.8247 325.989 40.6227 324.77 45.4197C322.331 55.0139 312.628 64.9663 303.101 67.6512C298.336 68.9937 294.518 68.2634 292.195 65.9993C306.785 80.2208 326.096 84.5767 334.188 76.2762C342.278 67.9757 337.429 48.7807 322.84 34.5605Z" fill="white"/>
<path opacity="0.2" d="M334.187 76.2762C330.598 79.9574 324.799 81.1438 318.188 80.0891C326.711 81.1085 333.088 73.1501 329.769 64.0107C328.779 61.2878 325.915 56.0618 322.147 51.7873C323.327 49.7023 324.229 47.5522 324.771 45.4197C325.991 40.6227 325.165 36.8233 322.841 34.5605C337.43 48.7807 342.279 67.9757 334.187 76.2762Z" fill="#EC8305"/>
<path opacity="0.35" d="M332.465 53.4026C330.409 50.058 328.024 47.0242 325.107 43.8058C325.776 39.7702 324.895 36.5641 322.84 34.5605C337.145 48.5051 342.076 67.225 334.634 75.7726C338.731 70.7855 336.97 60.7312 332.465 53.4026Z" fill="#EC8305"/>
<path opacity="0.3" d="M303.101 67.6507C308.538 66.1195 314.029 62.2184 318.198 57.3711C326.567 67.0209 327.298 72.5835 320.923 74.777C315.605 76.6082 308.04 72.5889 301.701 67.986C302.159 67.8923 302.623 67.7851 303.101 67.6507Z" fill="white"/>
<path d="M292.632 62.7797C294.448 63.5643 296.89 63.5779 299.719 62.7811C303.951 61.5893 308.384 58.7727 312.207 54.8512C316.029 50.9296 318.734 46.4217 319.818 42.1608C320.541 39.313 320.465 36.8724 319.632 35.0806C317.813 34.2865 315.373 34.277 312.545 35.0725C308.312 36.2643 303.872 39.0809 300.05 43.0024C296.227 46.9239 293.529 51.4319 292.446 55.6927C291.722 58.5406 291.794 60.9839 292.632 62.7797Z" fill="#EC8305"/>
<path opacity="0.7" d="M292.632 62.7797C294.448 63.5643 296.89 63.5779 299.719 62.7811C303.951 61.5893 308.384 58.7727 312.207 54.8512C316.029 50.9296 318.734 46.4217 319.818 42.1608C320.541 39.313 320.465 36.8724 319.632 35.0806C317.813 34.2865 315.373 34.277 312.545 35.0725C308.312 36.2643 303.872 39.0809 300.05 43.0024C296.227 46.9239 293.529 51.4319 292.446 55.6927C291.722 58.5406 291.794 60.9839 292.632 62.7797Z" fill="white"/>
<path opacity="0.1" d="M304.629 60.7206C302.994 61.626 301.34 62.3237 299.718 62.7811C296.889 63.5765 294.447 63.5643 292.631 62.7797C291.795 60.9839 291.722 58.5406 292.445 55.6928C292.78 54.372 293.273 53.0255 293.906 51.6816C296.945 54.858 300.671 58.0058 304.629 60.7206Z" fill="#EC8305"/>
<path opacity="0.15" d="M292.108 57.3887C294.221 59.289 296.635 61.1663 299.219 62.9051C296.604 63.5635 294.338 63.516 292.63 62.7789C291.967 61.3523 291.792 59.5116 292.108 57.3887Z" fill="#EC8305"/>
<path d="M300.501 82.7427C300.499 82.7414 300.499 82.7414 300.498 82.74L304.163 68.3353L304.164 68.3366L304.166 68.3298L306.298 67.7285C306.298 67.7285 306.942 68.3719 308.075 69.3289L305.001 81.4016C306.699 82.6884 308.755 83.3495 310.9 83.2843C311.293 83.2694 311.683 83.2219 312.07 83.1581C313.24 82.6735 314.311 81.969 315.193 81.065C315.865 80.3768 316.415 79.599 316.838 78.756C317.232 77.9592 317.491 77.2235 317.643 76.7946L319.78 76.1892C320.41 76.405 321.063 76.5991 321.722 76.7702C320.634 81.0365 317.437 83.9019 313.726 84.9431C313.381 85.0394 311.953 85.4494 311.581 85.5539C307.874 86.5964 303.655 85.8145 300.501 82.7427Z" fill="#EC8305"/>
<path d="M306.299 67.7285L302.634 82.1414L300.5 82.7427L304.166 68.3298L306.299 67.7285Z" fill="#EC8305"/>
<path opacity="0.6" d="M306.299 67.7285L302.634 82.1414L300.5 82.7427L304.166 68.3298L306.299 67.7285Z" fill="white"/>
<path d="M302.635 82.1352C308.947 88.2883 319.544 85.3047 321.723 76.7721C321.063 76.6011 320.41 76.4083 319.78 76.1911C319.628 76.6187 319.369 77.3544 318.975 78.1526C318.553 78.9955 318.002 79.772 317.33 80.4602C315.663 82.1705 313.322 83.194 310.901 83.2849C308.757 83.3501 306.7 82.689 305.002 81.4022L308.077 69.3295C306.943 68.3725 306.3 67.7305 306.3 67.7305L302.635 82.1352Z" fill="#EC8305"/>
<path opacity="0.4" d="M302.635 82.1352C308.947 88.2883 319.544 85.3047 321.723 76.7721C321.063 76.6011 320.41 76.4083 319.78 76.1911C319.628 76.6187 319.369 77.3544 318.975 78.1526C318.553 78.9955 318.002 79.772 317.33 80.4602C315.663 82.1705 313.322 83.194 310.901 83.2849C308.757 83.3501 306.7 82.689 305.002 81.4022L308.077 69.3295C306.943 68.3725 306.3 67.7305 306.3 67.7305L302.635 82.1352Z" fill="white"/>
<path d="M326.313 89.5841C324.479 86.0848 324.397 82.4429 323.571 78.9041C322.926 76.1459 321.749 74.8604 322.302 74.4301C323.012 73.8763 324.904 73.4175 326.598 75.2649C327.45 76.1948 328.904 79.8475 329.644 80.5941" fill="#FFBDA7"/>
<path d="M278.858 255.062C299.899 247.224 329.568 229.55 336.329 200.691L312.07 157.465L278.584 203.302C278.584 203.302 290.59 223.287 278.858 255.062Z" fill="black"/>
<path d="M328.829 228.828C316.5 227.001 306.489 224.248 297.344 220.175C284.401 214.41 274.637 209.977 266.846 205.442C257.298 199.882 249.968 195.23 248.391 194.223L252.459 173.655L257.629 168.425L272.183 154.716L279.675 147.247C281.438 146.613 283.213 146.053 285.438 146.053C290.296 146.053 296.96 148.823 307.047 155.037C311.556 157.816 324.801 165.848 324.801 165.848C324.888 165.901 324.987 165.928 325.088 165.928C325.115 165.928 325.142 165.926 325.171 165.922L342.695 163.273C344.23 165.438 354.4 180.798 347.652 198.509C339.035 221.122 330.112 227.939 328.829 228.828Z" fill="#FAFAFA"/>
<path d="M285.438 146.605C290.189 146.605 296.762 149.351 306.757 155.508C311.217 158.257 324.383 166.241 324.516 166.321C324.69 166.426 324.886 166.481 325.087 166.481C325.142 166.481 325.197 166.477 325.252 166.469L342.439 163.871C344.433 166.774 353.561 181.449 347.136 198.315C338.887 219.97 330.381 227.016 328.691 228.252C316.513 226.432 306.613 223.702 297.569 219.672C284.642 213.914 274.891 209.488 267.125 204.966C258.117 199.721 251.087 195.287 249.006 193.962L252.969 173.927L257.994 168.842L272.584 155.095L279.978 147.726C281.71 147.106 283.345 146.605 285.438 146.605ZM285.438 145.504C283.092 145.504 281.262 146.089 279.373 146.773L271.805 154.316L257.238 168.041L251.951 173.388L247.779 194.486C247.779 194.486 255.681 199.579 266.57 205.919C274.118 210.314 283.21 214.483 297.121 220.679C306.909 225.039 317.189 227.674 328.959 229.406C328.959 229.406 338.701 223.552 348.166 198.707C355.613 179.159 342.943 162.68 342.943 162.68L325.087 165.38C325.087 165.38 311.843 157.35 307.335 154.571C295.862 147.502 289.77 145.504 285.438 145.504Z" fill="#E6E6E6"/>
<path d="M281.969 162.666C283.036 160.447 281.604 157.602 281.604 157.602L278.4 157.965L279.197 159.963L281.969 162.666Z" fill="#EC8305"/>
<path opacity="0.3" d="M281.969 162.666C283.036 160.447 281.604 157.602 281.604 157.602L278.4 157.965L279.197 159.963L281.969 162.666Z" fill="black"/>
<path d="M279.469 165.818C279.469 165.818 276.864 168.221 273.489 169L271.352 165.323L275.98 164.152C277.279 164.112 278.441 164.672 279.469 165.818Z" fill="#EC8305"/>
<path opacity="0.3" d="M279.469 165.818C279.469 165.818 276.864 168.221 273.489 169L271.352 165.323L275.98 164.152C277.279 164.112 278.441 164.672 279.469 165.818Z" fill="black"/>
<path d="M252.618 113.372C251.942 111.789 250.593 110.538 248.868 110.216C247.153 109.896 245.283 110.752 244.406 112.259C243.396 110.471 241.424 109.266 239.371 109.182C239.212 109.175 239.035 109.182 238.919 109.291C238.813 109.393 238.792 109.552 238.771 109.699C238.334 112.849 235.796 115.223 233.487 117.411C229.155 121.516 223.965 126.521 223.575 132.89C223.389 135.929 224.619 139.025 226.838 141.109C225.352 143.642 226.236 147.007 228.071 149.301C230.564 152.42 234.756 154.557 238.24 156.344C242.204 158.378 246.333 160.089 250.575 161.455C252.568 162.096 251.888 160.126 251.873 158.852C251.854 157.213 251.881 155.573 251.957 153.936C252.152 149.69 252.664 145.459 253.491 141.291C254.395 136.73 255.672 132.256 256.89 127.772C257.467 125.65 257.977 123.489 258.698 121.438C259.337 119.621 259.157 117.475 258.092 115.85C256.943 114.097 254.717 113.054 252.666 113.486C252.649 113.448 252.633 113.41 252.618 113.372Z" fill="black"/>
<path d="M242.703 161.705C247.099 160.5 246.366 156.829 246.366 156.829L257.585 168.688C262.863 168.523 276.445 161.552 279.144 162.738C278.458 160.494 275.2 155.388 272.047 154.457L269.65 151.526C269.65 151.526 270.982 150.059 272.012 148.5C274.036 145.437 275.525 141.792 272.775 136.934C269.343 130.874 264.105 126.076 255.931 120.08C252.602 117.638 247.9 117.167 244.962 120.471C243.376 122.254 242.517 124.546 241.55 126.728C239.609 131.107 236.949 135.397 232.854 137.881C233.171 137.689 234.124 138.137 234.402 138.264C237.716 139.772 241.985 142.883 241.639 146.942C241.782 147.182 243.376 149.042 242.814 150.507C242.184 152.149 239.312 150.669 237.704 150.527C236.094 150.399 232.262 152.374 233.437 156.447C234.643 160.583 238.631 162.822 242.703 161.705Z" fill="#FFBDA7"/>
<path d="M279.145 162.738C276.121 161.137 274.95 162.52 268.297 164.397C261.699 166.26 254.719 165.66 254.719 165.66L253.881 164.758C253.881 164.758 253.283 164.863 253.697 166.197C254.111 167.531 254.823 169.857 254.823 169.857C254.823 169.857 258.194 173.021 266.221 173.44C274.142 173.854 278.302 171.567 278.302 171.567C278.302 171.567 274.655 167.253 276.033 163.807C277.064 162.667 279.145 162.738 279.145 162.738Z" fill="#E0E0E0"/>
<path d="M269.651 151.525C266.054 154.645 262.19 156.831 259.19 157.387C254.725 158.213 250.982 157.309 247.883 155.013C249.884 157.294 255.775 160.791 260.45 159.662C265.126 158.532 268.766 155.364 271.153 153.361L269.651 151.525Z" fill="#F0997A"/>
<path d="M245.378 134.754L244.315 138.99C243.128 138.653 242.403 137.433 242.696 136.263C242.989 135.094 244.19 134.418 245.378 134.754Z" fill="black"/>
<path d="M257.175 124.295L253.029 125.772C252.574 124.633 253.135 123.38 254.279 122.973C255.425 122.564 256.721 123.156 257.175 124.295Z" fill="black"/>
<path d="M251.164 130.533L260.174 139.333L263.056 133.502L251.164 130.533Z" fill="#F0997A"/>
<path d="M257.175 130.13C257.986 130.688 257.361 129.29 257.919 128.48C258.477 127.669 260.006 127.755 259.195 127.195C258.385 126.638 257.276 126.841 256.718 127.652C256.161 128.462 256.365 129.571 257.175 130.13Z" fill="black"/>
<path d="M249.026 139.505C249.837 140.063 249.212 138.665 249.77 137.855C250.328 137.044 251.856 137.13 251.047 136.57C250.237 136.013 249.128 136.216 248.57 137.027C248.012 137.837 248.217 138.947 249.026 139.505Z" fill="black"/>
<path d="M256.926 144.737L262.909 142.201C263.673 143.88 262.954 145.809 261.302 146.51C259.65 147.21 257.69 146.416 256.926 144.737Z" fill="#B16668"/>
<path d="M258.15 145.144C257.912 145.276 257.704 145.435 257.512 145.606C258.456 146.659 259.974 147.075 261.303 146.511C261.635 146.37 261.921 146.168 262.173 145.94C261.412 144.684 259.639 144.322 258.15 145.144Z" fill="#F0997A"/>
<path d="M254.117 167.553C273.135 175.059 284.825 190.692 293.544 210.962C303.055 233.076 305.135 259.681 305.135 259.681C305.135 259.681 286.875 261.55 276.917 254.721C276.917 254.721 285.021 225.945 280.134 217.468C278.182 214.082 273.415 210.733 262.93 205.134C252.444 199.533 245.967 194.561 245.967 194.561L248.853 173.538C251.714 172.152 253.868 169.775 254.117 167.553Z" fill="#091057"/>
<path d="M161.509 158.505C165.038 162.196 169.839 164.451 173.881 167.49C175.358 168.6 176.558 169.715 177.697 171.169C180.865 175.215 183.002 177.7 186.256 181.682C186.497 181.978 186.771 182.317 187.071 182.69L205.077 175.687C199.997 171.587 190.248 163.692 187.722 161.467C184.263 158.423 184.122 158.389 181.733 155.383C181.004 153.421 181.084 149.628 180.086 147.323C179.154 145.17 178.178 143.393 176.687 141.561C175.736 140.39 175.162 139.186 174.559 137.842C173.811 136.173 172.257 137.413 171.848 138.543C171.501 139.505 171.407 140.677 171.693 141.655C172.098 143.032 173.614 145.295 172.839 146.749C172.238 147.877 170.705 146.008 170.164 145.522C169.216 144.675 168.369 143.642 167.59 142.629C166.705 141.48 165.24 139.825 163.534 137.958C161.802 136.065 159.982 134.885 159.329 134.569C158.389 134.116 157.426 133.748 156.416 134.234C155.288 134.777 155.977 135.994 156.587 136.866C156.587 136.866 155.893 137.81 155.743 138.223C155.33 139.357 155.501 139.94 155.971 140.823C154.824 142.297 154.41 144.139 155.39 145.739C155.782 146.38 155.694 146.4 155.406 147.08C154.878 148.325 155.633 149.306 156.191 150.389C157.937 153.78 158.866 155.742 161.509 158.505Z" fill="#FFBDA7"/>
<path d="M176.993 171.76L174.203 168.415C174.203 168.415 177.525 167.631 180.658 164.344C183.79 161.058 184.344 158.035 184.344 158.035L188.201 161.334C188.201 161.334 188.157 163.576 183.982 167.735C179.42 172.281 176.993 171.76 176.993 171.76Z" fill="#E0E0E0"/>
<path d="M170.991 149.227C169.959 153.904 172.67 158.92 176.07 160.479C171.364 159.718 168.212 155.139 170.991 149.227Z" fill="#F0997A"/>
<path d="M249.755 173.054C246.933 174.397 243.544 174.962 234.144 175.385C224.744 175.809 211.121 176.137 211.121 176.137L187.026 159.881C187.026 159.881 186.663 163.382 182.981 166.956C179.298 170.53 175.879 171.077 175.879 171.077C175.879 171.077 188.535 185.407 194.929 191.632C199.681 196.259 203.262 197.659 207.972 198.176C216.925 199.159 232.948 200.129 239.496 200.577C246.044 201.025 258.216 202.357 264.82 206.153C268.68 190.752 260.95 178.737 249.755 173.054Z" fill="#091057"/>
<path d="M287.438 144.489C282.078 144.268 279.656 145.837 276.495 148.389C273.334 150.941 271.152 153.36 271.152 153.36L272.048 154.455C283.619 150.113 300.74 149.861 312.07 157.466C301.353 147.993 292.799 144.711 287.438 144.489Z" fill="#091057"/>
<path d="M279.143 162.737C277.983 160.143 275.113 156.128 272.047 154.456L270.133 152.116C270.133 152.116 270.247 151.658 271.209 151.73C272.17 151.802 272.652 151.828 272.652 151.828C272.652 151.828 276.667 151.998 279.451 154.1C282.234 156.204 284.119 157.978 285.682 160.348C280.964 158.163 278.186 159.191 279.143 162.737Z" fill="#E0E0E0"/>
<path d="M323.077 156.24C321.883 157.487 321.051 159.023 320.656 160.704C319.923 163.827 317.948 169.314 312.799 172.622C304.096 178.214 292.771 176.483 283.344 163.55C282.175 163.545 280.03 165.148 280.237 166.455C282.046 170.501 290.522 183.889 303.139 185.249C316.229 186.66 330.194 178.487 333.252 164.333C333.627 162.597 333.426 160.789 332.795 159.129C332.028 157.113 330.957 154.251 330.201 152.223C329.776 151.082 328.307 150.785 327.466 151.663L323.077 156.24Z" fill="#EC8305"/>
<path opacity="0.1" d="M283.344 163.551C282.175 163.545 280.03 165.148 280.237 166.456C280.315 166.632 280.413 166.833 280.516 167.045C282.722 166.096 283.63 164.399 283.344 163.551Z" fill="black"/>
<path d="M279.199 159.963C277.065 160.867 275.869 164.221 275.869 164.221C275.869 164.221 277.35 164.748 280.237 166.454C281.282 166.011 283.248 164.611 283.344 163.549C283.344 163.549 281.382 160.373 279.199 159.963Z" fill="#EC8305"/>
</svg>
