<svg width="679" height="680" viewBox="0 0 679 680" fill="none" xmlns="http://www.w3.org/2000/svg">
<path d="M55.1522 120.495C57.2914 119.141 59.5773 118.102 61.9405 117.377L63.2124 110.567L74.6648 110.131L76.4525 116.823C78.8659 117.364 81.2237 118.228 83.4594 119.415L89.1713 115.501L97.5777 123.289L94.1109 129.282C95.4642 131.422 96.504 133.709 97.2288 136.073L104.038 137.345L104.475 148.798L97.7827 150.585C97.2411 152.998 96.3777 155.355 95.1914 157.592L99.1048 163.304L91.316 171.711L85.3231 168.243C83.1838 169.596 80.898 170.636 78.5334 171.36L77.2615 178.171L65.8105 178.606L64.0228 171.914C61.6107 171.371 59.2529 170.509 57.0159 169.322L51.3039 173.236L42.8975 165.448L46.3643 159.455C45.011 157.315 43.9699 155.03 43.2464 152.665L36.4377 151.393L36.002 139.942L42.6939 138.154C43.2355 135.742 44.1002 133.384 45.2852 131.147L41.3718 125.436L49.1606 117.029L55.1522 120.495ZM61.5727 135.631C56.9575 140.611 57.2548 148.391 62.2351 153.004C67.2154 157.619 74.9946 157.322 79.6084 152.342C84.2222 147.362 83.9263 139.582 78.946 134.969C73.9657 130.353 66.1865 130.651 61.5727 135.631Z" fill="#F5F5F5"/>
<path d="M580.273 362.868C582.413 361.514 584.698 360.475 587.062 359.75L588.333 352.94L599.786 352.504L601.574 359.196C603.987 359.738 606.345 360.601 608.58 361.789L614.292 357.874L622.699 365.664L619.232 371.657C620.587 373.796 621.626 376.083 622.35 378.448L629.159 379.72L629.596 391.171L622.904 392.959C622.362 395.371 621.499 397.728 620.312 399.965L624.226 405.677L616.437 414.084L610.444 410.616C608.305 411.969 606.019 413.009 603.654 413.734L602.383 420.544L590.932 420.979L589.144 414.286C586.732 413.743 584.374 412.881 582.137 411.695L576.425 415.609L568.019 407.821L571.487 401.828C570.133 399.688 569.092 397.403 568.369 395.038L561.56 393.766L561.123 382.315L567.816 380.527C568.358 378.115 569.223 375.758 570.408 373.521L566.494 367.809L574.283 359.402L580.273 362.868ZM586.694 378.004C582.079 382.984 582.376 390.764 587.356 395.377C592.336 399.993 600.116 399.695 604.73 394.715C609.343 389.735 609.047 381.955 604.067 377.342C599.087 372.726 591.309 373.024 586.694 378.004Z" fill="#F5F5F5"/>
<path d="M70.3758 59.2451C71.3695 58.6153 72.4323 58.1334 73.5318 57.7954L74.1236 54.63L79.446 54.4277L80.2767 57.5389C81.3979 57.7914 82.4947 58.1918 83.5331 58.7443L86.1882 56.9254L90.0948 60.5455L88.4836 63.3309C89.1134 64.3259 89.5966 65.3887 89.9333 66.4869L93.0974 67.0787L93.2996 72.4011L90.1885 73.2318C89.936 74.353 89.5355 75.4484 88.9844 76.4882L90.8034 79.1433L87.1832 83.0499L84.3978 81.4386C83.4028 82.0671 82.3413 82.5503 81.2418 82.887L80.6514 86.0524L75.329 86.2547L74.4983 83.1435C73.3771 82.8911 72.2816 82.4906 71.2419 81.9395L68.5868 83.7584L64.6788 80.1382L66.2901 77.3529C65.6602 76.3592 65.177 75.2964 64.8404 74.1969L61.6749 73.6051L61.4727 68.2827L64.5838 67.452C64.8363 66.3308 65.2367 65.234 65.7892 64.1956L63.9703 61.5405L67.5905 57.6339L70.3758 59.2451ZM73.3608 66.2805C71.2161 68.5963 71.3532 72.211 73.6689 74.3557C75.9833 76.5004 79.5994 76.362 81.7441 74.0476C83.8888 71.7332 83.7517 68.1171 81.4359 65.9724C79.1202 63.8277 75.5055 63.9662 73.3608 66.2805Z" fill="#F5F5F5"/>
<path d="M105.187 537.363L91.0295 543.157C91.0295 543.157 95.893 555.044 83.6276 560.312C77.2573 563.047 72.2118 560.206 69.5432 557.54C66.4443 554.444 65.1751 549.989 65.8592 545.661C66.6397 540.72 70.4296 534.968 80.6589 532.746L67.598 500.822L53.5992 506.55L61.2508 525.249C61.2508 525.249 43.6942 538.357 52.5472 559.994C61.0187 580.696 81.5508 577.908 89.497 574.657C95.5741 572.17 115.674 562.23 105.187 537.363Z" fill="#EBEBEB"/>
<path d="M50.7459 500.052L64.9531 494.238L59.5238 480.97L45.3165 486.783L50.7459 500.052Z" fill="#EBEBEB"/>
<path d="M599.959 181.535L613.061 187.028C613.061 187.028 617.673 176.028 629.188 180.624C635.169 183.01 636.616 188.19 636.617 191.695C636.618 195.764 634.527 199.523 631.235 201.915C627.476 204.647 621.21 205.935 613.033 200.678L600.647 230.219L613.602 235.65L620.858 218.346C620.858 218.346 640.997 221.267 649.393 201.243C657.425 182.085 642.11 170.431 634.755 167.347C629.131 164.989 609.402 158.317 599.959 181.535Z" fill="#EBEBEB"/>
<path d="M611.204 241.766L598.057 236.254L592.909 248.533L606.057 254.044L611.204 241.766Z" fill="#EBEBEB"/>
<path d="M614.857 114.01L586.655 126.053L590.023 130.244L567.584 143.602L600.244 130.709L596.769 126.385L614.857 114.01Z" fill="#EC8305"/>
<path d="M517.286 31.2539L511.664 82.7116L520.617 81.2266L521.699 125.292L529.758 66.5735L520.524 68.106L517.286 31.2539Z" fill="#EC8305"/>
<path d="M571.996 44.6793L556.041 89.726C554.736 93.41 556.383 97.4876 559.878 99.2332C563.566 101.074 568.05 99.7015 570.075 96.1126L593.77 54.1105C595.564 50.9301 594.165 46.8973 590.788 45.51L580.025 41.0903C576.816 39.7709 573.155 41.408 571.996 44.6793Z" fill="#E0E0E0"/>
<path d="M560.97 128.867C556.711 133.683 549.355 134.134 544.54 129.874C539.724 125.616 539.274 118.259 543.532 113.444C547.79 108.628 555.147 108.178 559.963 112.437C564.778 116.695 565.23 124.051 560.97 128.867Z" fill="#E0E0E0"/>
<path d="M555.763 658.645C555.763 658.645 556.045 658.628 556.6 658.618C557.17 658.613 557.994 658.603 559.075 658.592C561.273 658.581 564.504 658.564 568.707 658.542C577.147 658.52 589.477 658.491 605.1 658.451V658.841C552.115 658.875 460.871 658.933 357.246 659C275.164 658.959 200.865 658.922 147.07 658.896C120.188 658.849 98.4317 658.811 83.3795 658.784C75.8703 658.755 70.0376 658.732 66.0631 658.717C64.0949 658.702 62.5895 658.69 61.5593 658.682C60.5453 658.67 60.0254 658.645 60.0254 658.645C60.0254 658.645 60.5453 658.621 61.5593 658.609C62.5882 658.601 64.0935 658.588 66.0631 658.573C70.0362 658.558 75.8703 658.535 83.3795 658.507C98.4317 658.48 120.188 658.442 147.07 658.394C200.865 658.367 275.164 658.332 357.246 658.291C460.871 658.358 552.115 658.417 605.1 658.451V658.839C589.477 658.8 577.147 658.769 568.707 658.748C564.504 658.727 561.273 658.709 559.075 658.698C557.994 658.687 557.17 658.678 556.6 658.672C556.045 658.663 555.763 658.645 555.763 658.645Z" fill="black"/>
<path d="M574.504 260.947C584.566 244.24 588.009 223.833 584.71 204.642C584.579 203.875 584.421 203.108 584.235 202.345C582.825 195.685 581.743 190.275 578.523 184.618C578.196 183.91 577.86 183.209 577.511 182.511C577.162 181.813 576.803 181.121 576.433 180.434C563.111 155.709 536.193 138.892 508.131 137.763C503.357 92.5235 471.742 51.1499 429.346 34.6602C386.949 18.1705 335.689 27.3085 301.602 57.4333C265.586 30.4564 215.823 22.9662 173.463 38.1447C131.103 53.3231 97.42 90.7127 86.7332 134.424C83.4646 147.79 82.1031 161.954 75.2822 173.905C70.1349 182.925 62.2498 189.997 55.509 197.898C33.9969 223.113 24.3132 258.016 29.7564 290.711C35.1995 323.405 55.6705 353.287 84.1922 370.172C61.4069 401.466 69.4019 450.756 100.91 473.244C119.005 486.16 143.141 491.104 156.93 508.542C162.795 515.96 166.193 525.005 171.283 532.974C188.587 560.069 227.04 571.162 256.116 557.448L410.56 518.191C462.471 522.355 515.769 505.382 555.712 471.966C570.52 459.577 583.831 444.547 590.244 426.338C596.66 408.127 595.131 386.323 582.815 371.454C611.894 341.509 607.735 286.207 574.504 260.947Z" fill="#E7E7E7"/>
<path d="M203.367 333.169C205.597 331.758 207.98 330.674 210.445 329.919L211.771 322.82L223.709 322.365L225.572 329.342C228.087 329.907 230.545 330.807 232.877 332.045L238.832 327.965L247.595 336.086L243.981 342.333C245.392 344.563 246.477 346.946 247.232 349.411L254.329 350.738L254.784 362.676L247.807 364.54C247.241 367.055 246.342 369.513 245.104 371.844L249.185 377.799L241.065 386.562L234.817 382.947C232.587 384.359 230.203 385.442 227.738 386.197L226.412 393.296L214.473 393.751L212.611 386.774C210.096 386.208 207.638 385.309 205.307 384.071L199.352 388.152L190.589 380.032L194.203 373.784C192.792 371.553 191.707 369.171 190.952 366.705L183.853 365.379L183.398 353.44L190.375 351.576C190.94 349.061 191.841 346.603 193.077 344.272L188.996 338.317L197.116 329.554L203.367 333.169ZM210.06 348.949C205.25 354.141 205.558 362.25 210.751 367.062C215.943 371.872 224.053 371.563 228.863 366.371C233.674 361.179 233.364 353.07 228.172 348.259C222.98 343.447 214.871 343.755 210.06 348.949Z" fill="#091057"/>
<path d="M423.232 141.823C424.436 141.06 425.724 140.475 427.056 140.067L427.772 136.232L434.221 135.986L435.227 139.756C436.586 140.061 437.915 140.547 439.173 141.215L442.39 139.011L447.125 143.398L445.173 146.772C445.936 147.978 446.521 149.264 446.928 150.596L450.763 151.313L451.008 157.762L447.239 158.768C446.933 160.126 446.447 161.454 445.78 162.714L447.984 165.931L443.598 170.665L440.224 168.712C439.018 169.475 437.732 170.06 436.4 170.468L435.683 174.303L429.234 174.549L428.228 170.779C426.87 170.474 425.542 169.988 424.282 169.32L421.065 171.524L416.331 167.137L418.284 163.763C417.521 162.557 416.936 161.271 416.528 159.939L412.693 159.222L412.447 152.773L416.217 151.766C416.522 150.407 417.008 149.08 417.676 147.82L415.472 144.603L419.857 139.868L423.232 141.823ZM426.848 150.348C424.249 153.153 424.415 157.534 427.221 160.132C430.026 162.731 434.407 162.563 437.005 159.758C439.603 156.954 439.436 152.572 436.632 149.974C433.826 147.375 429.446 147.543 426.848 150.348Z" fill="#091057"/>
<path d="M111.541 410.3C113.099 409.313 114.765 408.556 116.487 408.029L117.414 403.068L125.758 402.75L127.06 407.626C128.818 408.021 130.536 408.649 132.165 409.514L136.327 406.662L142.451 412.337L139.925 416.704C140.912 418.264 141.67 419.929 142.198 421.652L147.159 422.579L147.477 430.923L142.601 432.225C142.206 433.982 141.577 435.701 140.713 437.33L143.565 441.492L137.889 447.616L133.523 445.09C131.963 446.077 130.297 446.834 128.575 447.361L127.648 452.322L119.304 452.64L118.002 447.764C116.244 447.369 114.526 446.741 112.897 445.876L108.735 448.728L102.609 443.053L105.135 438.686C104.148 437.128 103.391 435.462 102.863 433.738L97.9016 432.811L97.584 424.467L102.46 423.164C102.855 421.406 103.485 419.688 104.348 418.059L101.496 413.897L107.171 407.772L111.541 410.3ZM116.22 421.329C112.857 424.958 113.073 430.626 116.703 433.988C120.331 437.35 126 437.134 129.362 433.505C132.724 429.875 132.509 424.208 128.879 420.845C125.249 417.483 119.582 417.699 116.22 421.329Z" fill="#091057"/>
<path d="M490.387 422.549C491.945 421.562 493.611 420.805 495.333 420.277L496.261 415.316L504.604 414.998L505.906 419.874C507.664 420.269 509.383 420.897 511.011 421.762L515.173 418.91L521.298 424.585L518.772 428.952C519.758 430.512 520.516 432.177 521.044 433.9L526.005 434.827L526.323 443.171L521.447 444.473C521.052 446.23 520.424 447.949 519.559 449.578L522.411 453.74L516.736 459.866L512.369 457.339C510.809 458.326 509.144 459.084 507.421 459.61L506.494 464.572L498.15 464.889L496.848 460.013C495.09 459.618 493.372 458.99 491.743 458.125L487.581 460.977L481.457 455.302L483.983 450.935C482.996 449.377 482.239 447.711 481.711 445.988L476.749 445.06L476.432 436.716L481.307 435.413C481.702 433.656 482.332 431.937 483.196 430.308L480.344 426.146L486.019 420.022L490.387 422.549ZM495.066 433.577C491.704 437.206 491.92 442.874 495.549 446.236C499.178 449.598 504.846 449.382 508.208 445.753C511.571 442.123 511.355 436.456 507.725 433.094C504.095 429.733 498.428 429.948 495.066 433.577Z" fill="#091057"/>
<path d="M147.987 270.184C146.033 265.329 141.893 261.318 136.861 259.882C132.539 258.648 127.453 259.131 124.084 256.158C122.482 254.745 121.534 252.74 120.123 251.137C117.599 248.273 113.759 246.891 109.976 246.382C97.2939 244.672 85.6624 253.351 81.0391 263.506C75.8538 266.933 70.5817 270.438 66.6669 275.268C62.7522 280.098 60.3387 286.548 61.7884 292.592C62.854 297.031 65.8565 300.813 66.9506 305.246C67.9497 309.291 67.2832 313.547 67.6049 317.702C67.9266 321.857 69.6926 326.413 73.5734 327.932C78.3582 329.804 84.2873 326.28 88.707 328.901C91.7109 330.684 92.6761 334.582 95.1289 337.069C99.3843 341.383 106.554 340.274 112.28 338.292C118.897 336.001 125.254 332.956 131.188 329.237C135.069 326.804 138.826 324.027 141.571 320.359C144.316 316.692 145.962 312.013 145.205 307.497C144.743 304.741 143.421 302.15 143.25 299.362C142.947 294.451 146.181 290.126 147.928 285.526C149.786 280.631 149.942 275.039 147.987 270.184Z" fill="#C8C8C8"/>
<path d="M138.509 323.473L126.128 332.005L126.109 332.02L138.782 336.51L138.509 323.473Z" fill="#C8C8C8"/>
<path d="M98.124 292.716C98.124 295.537 95.8368 297.824 93.0161 297.824C90.1954 297.824 87.9082 295.537 87.9082 292.716C87.9082 289.895 90.1954 287.609 93.0161 287.609C95.8368 287.609 98.124 289.897 98.124 292.716Z" fill="black"/>
<path d="M113.984 292.716C113.984 295.537 111.697 297.824 108.876 297.824C106.055 297.824 103.77 295.537 103.77 292.716C103.77 289.895 106.057 287.609 108.876 287.609C111.698 287.609 113.984 289.897 113.984 292.716Z" fill="black"/>
<path d="M129.845 292.716C129.845 295.537 127.557 297.824 124.737 297.824C121.916 297.824 119.629 295.537 119.629 292.716C119.629 289.895 121.916 287.609 124.737 287.609C127.557 287.609 129.845 289.897 129.845 292.716Z" fill="black"/>
<path d="M536.551 183.947C535.398 182.091 532.932 181.64 530.755 181.443C522.864 180.732 514.885 181.01 507.064 182.27C504.299 182.715 500.361 182.461 500.092 179.674C499.933 178.028 501.418 176.654 502.963 176.065C505.64 175.044 508.618 175.529 511.484 175.462C514.348 175.396 517.601 174.444 518.754 171.82C520.503 167.841 515.958 163.717 511.656 163.091C507.353 162.464 502.834 163.649 498.682 162.359L489.629 162.553C482.946 162.668 476.278 163.635 469.839 165.427C468.035 165.929 465.914 166.893 465.783 168.76C465.654 170.588 467.536 171.842 468.408 173.456C470.163 176.704 467.304 180.801 463.84 182.078C460.376 183.356 456.547 182.841 452.866 183.121C449.184 183.402 445.081 184.947 443.863 188.431C442.902 191.184 444.057 194.313 443.212 197.102C442.139 200.641 438.231 202.499 434.592 203.149C430.952 203.801 427.105 203.7 423.741 205.234C418.857 207.462 415.902 213.273 416.979 218.531C418.055 223.79 423.054 227.973 428.42 228.104C431.026 228.167 433.581 227.383 436.184 227.247C438.085 227.148 440.152 227.516 441.662 228.583C441.986 234.083 445.791 239.477 451.189 240.924C454.788 241.889 458.643 241.283 462.289 242.052C465.935 242.821 469.68 245.918 468.986 249.578C468.492 252.188 465.897 254.103 465.69 256.752C465.438 259.992 468.953 262.36 472.191 262.656C475.428 262.951 478.667 261.955 481.913 262.14C485.158 262.326 488.78 264.396 488.856 267.646C488.938 271.259 484.686 273.81 484.608 277.423C484.545 280.45 487.443 282.69 490.266 283.782C493.089 284.873 496.258 285.433 498.48 287.49C500.702 289.546 501.079 293.923 498.31 295.147C502.784 294.99 505.415 288.497 502.312 285.269C500.391 283.272 497.159 282.73 495.675 280.389C494.021 277.782 495.466 274.168 497.846 272.202C500.227 270.235 503.305 269.385 506.122 268.12C508.938 266.855 511.762 264.847 512.492 261.847C513.588 257.35 509.274 253.096 504.756 252.088C500.24 251.079 495.56 252.217 490.939 252.491C486.319 252.765 481.068 251.826 478.461 248.002C483.493 245.609 488.524 243.216 493.558 240.823C494.934 240.168 496.444 239.367 496.912 237.918C497.751 235.324 494.792 233.21 492.309 232.081C489.031 230.59 485.754 229.101 482.476 227.611C482.439 227.019 482.314 226.433 482.089 225.867C488.055 223.411 494.801 224.353 501.194 225.219C507.588 226.085 514.428 226.767 520.199 223.885C525.971 221.003 529.689 213.132 525.978 207.854C523.976 205.006 520.102 203.056 520.018 199.574C519.948 196.695 522.693 194.512 525.421 193.592C528.151 192.671 531.147 192.488 533.672 191.101C536.195 189.714 538.07 186.393 536.551 183.947Z" fill="#C8C8C8"/>
<path d="M464.858 205.349C467.556 205.349 469.743 203.161 469.743 200.463C469.743 197.765 467.556 195.578 464.858 195.578C462.16 195.578 459.973 197.765 459.973 200.463C459.973 203.161 462.16 205.349 464.858 205.349Z" fill="black"/>
<path d="M484.915 200.463C484.915 203.162 482.728 205.349 480.03 205.349C477.331 205.349 475.145 203.162 475.145 200.463C475.145 197.765 477.331 195.578 480.03 195.578C482.727 195.578 484.915 197.765 484.915 200.463Z" fill="black"/>
<path d="M495.2 205.349C497.898 205.349 500.085 203.161 500.085 200.463C500.085 197.765 497.898 195.578 495.2 195.578C492.502 195.578 490.314 197.765 490.314 200.463C490.314 203.161 492.502 205.349 495.2 205.349Z" fill="black"/>
<path d="M153.138 87.8983C142.285 87.8508 131.718 94.7803 127.434 104.752C123.15 114.723 125.399 127.157 132.904 134.997C119.566 137.879 111 153.496 114.581 166.663C118.16 179.831 132.228 188.837 145.84 187.891C159.452 186.945 171.646 176.99 176.648 164.294C180.339 174.803 190.877 182.524 202.011 182.874C213.143 183.224 224.147 176.181 228.49 165.924C234.496 177.112 251.633 178.984 261.438 170.916C271.242 162.847 273.5 147.868 268.794 136.074C264.087 124.281 253.622 115.525 242.102 110.187C249.442 103.56 250.363 91.4262 245.13 83.0334C239.899 74.6419 229.576 70.1462 219.699 70.6525C209.823 71.1589 200.526 76.1744 193.539 83.1732C190.366 74.8211 181.196 69.1825 172.311 70.1191C163.425 71.0557 155.633 78.4807 154.27 87.3106" fill="#C8C8C8"/>
<path d="M168.234 112.139L180.984 134.602C182.026 136.439 184.274 137.211 186.225 136.401C188.282 135.547 189.309 133.23 188.559 131.131L179.793 106.584C179.13 104.726 176.988 103.868 175.224 104.757L169.609 107.589C167.935 108.433 167.307 110.507 168.234 112.139Z" fill="black"/>
<path d="M198.715 146.448C199.173 149.893 196.753 153.057 193.309 153.516C189.864 153.974 186.7 151.554 186.241 148.11C185.783 144.667 188.203 141.501 191.647 141.042C195.092 140.582 198.256 143.003 198.715 146.448Z" fill="black"/>
<path d="M209.487 98.7745L209.897 121.066C209.931 122.889 211.318 124.4 213.13 124.59C215.043 124.789 216.776 123.456 217.073 121.556L220.544 99.327C220.808 97.6438 219.536 96.1113 217.832 96.0584L212.407 95.8901C210.789 95.8398 209.458 97.1552 209.487 98.7745Z" fill="#091057"/>
<path d="M218.461 137.357C217.389 140.159 214.251 141.561 211.449 140.489C208.647 139.418 207.245 136.278 208.317 133.476C209.388 130.675 212.529 129.272 215.33 130.345C218.131 131.416 219.532 134.555 218.461 137.357Z" fill="#091057"/>
<path d="M413.993 322.149L402.442 354.766C401.497 357.433 402.689 360.385 405.22 361.649C407.89 362.982 411.137 361.989 412.603 359.389L429.759 328.977C431.058 326.674 430.046 323.753 427.6 322.749L419.807 319.549C417.483 318.595 414.832 319.78 413.993 322.149Z" fill="#F5F5F5"/>
<path d="M406.009 383.107C402.925 386.594 397.599 386.92 394.113 383.836C390.626 380.752 390.299 375.425 393.383 371.938C396.467 368.451 401.793 368.125 405.28 371.209C408.767 374.293 409.093 379.62 406.009 383.107Z" fill="#F5F5F5"/>
<path d="M279.252 100.828H290.256C290.256 100.828 290.256 90.6896 299.859 90.5077C304.846 90.414 307.432 93.9976 308.482 96.7436C309.703 99.9321 309.333 103.566 307.698 106.524C305.831 109.901 301.741 112.97 294.325 111.535V138.761H305.207V122.814C305.207 122.814 320.468 118.485 320.468 100.031C320.468 82.3741 306.038 78.2748 299.86 78.2734C295.136 78.2734 279.044 79.5263 279.252 100.828Z" fill="#F5F5F5"/>
<path d="M305.339 144.369H294.295V155.686H305.339V144.369Z" fill="#F5F5F5"/>
<path d="M568.874 296.247C568.874 296.247 569.014 296.09 569.334 295.83C569.657 295.575 570.193 295.239 570.98 295.009C571.762 294.782 572.814 294.684 574.001 294.961C575.179 295.223 576.509 295.915 577.501 297.191C578.506 298.441 579.176 300.198 579.265 302.173C579.369 304.155 578.811 306.316 577.751 308.393C575.577 312.537 571.818 316.55 567.011 320.196C564.605 322.026 561.927 323.765 559.058 325.496C556.186 327.218 553.143 328.983 549.858 330.634C546.568 332.264 543.044 333.827 539.204 334.947C537.291 335.524 535.298 335.979 533.242 336.271C531.19 336.587 529.065 336.707 526.914 336.617C524.785 336.567 522.479 336.288 520.563 334.987C519.627 334.328 518.879 333.321 518.643 332.157C518.388 330.995 518.616 329.781 519.069 328.707C519.983 326.526 521.661 324.797 523.352 323.16C525.062 321.516 526.953 320.019 528.93 318.596C532.911 315.782 537.161 313.162 541.53 310.461C545.923 307.814 550.617 305.294 555.803 303.677C558.392 302.872 561.097 302.302 563.873 302.096C566.637 301.895 569.514 302.007 572.255 302.88C574.948 303.737 577.671 305.292 579.163 307.919C580.716 310.513 580.565 313.861 579.319 316.571C578.1 319.355 575.768 321.513 573.193 323.085C570.589 324.657 567.724 325.774 564.774 326.644C558.847 328.348 552.509 328.801 546.163 328.439C539.804 328.082 533.423 326.943 526.998 325.659C523.784 325.017 520.538 324.323 517.347 323.302C515.755 322.788 514.175 322.199 512.641 321.485C511.115 320.784 509.557 319.94 508.395 318.588C507.822 317.919 507.375 317.08 507.256 316.169C507.109 315.26 507.318 314.322 507.711 313.518C508.522 311.901 509.945 310.727 511.439 309.854C514.462 308.05 517.982 307.345 521.442 307C528.393 306.431 535.467 306.407 542.592 307.061C546.151 307.402 549.719 307.907 553.261 308.668C555.035 309.033 556.796 309.484 558.552 309.968C560.294 310.457 562.118 311.008 563.644 312.18C565.13 313.327 566.284 315.242 565.919 317.264C565.541 319.286 563.889 320.639 562.315 321.589C559.048 323.442 555.421 324.607 551.677 325.099C549.805 325.338 547.906 325.398 546.012 325.285C544.128 325.159 542.21 324.904 540.391 324.231C538.598 323.572 536.812 322.482 535.795 320.714C534.75 318.952 534.902 316.678 535.817 314.931C537.624 311.349 541.76 309.292 545.719 309.663C547.694 309.848 549.681 310.707 550.999 312.279C552.303 313.83 552.97 315.889 552.795 317.923C552.704 318.937 552.384 319.947 551.809 320.81C551.236 321.68 550.416 322.353 549.509 322.83C547.668 323.769 545.524 323.868 543.561 323.416C541.617 322.968 539.627 321.867 538.725 319.88C538.283 318.889 538.389 317.634 539.034 316.739C539.662 315.837 540.637 315.273 541.661 315.017C543.766 314.55 545.767 315.226 547.662 315.736C549.576 316.305 551.483 317.051 553.165 318.221C554.848 319.377 556.247 321.015 556.995 322.96C557.774 324.889 557.682 327.206 556.664 329.049C555.673 330.902 554.067 332.334 552.275 333.337C550.489 334.366 548.475 334.981 546.43 335.216C542.338 335.694 538.069 334.661 534.65 332.307C531.214 329.978 528.606 326.536 527.05 322.695C525.503 318.88 524.891 314.476 526.231 310.427C526.883 308.414 528.163 306.58 529.878 305.322C531.591 304.057 533.603 303.336 535.605 302.838C539.635 301.85 543.786 301.726 547.854 301.878C551.916 302.087 555.999 302.25 559.981 303.241C563.923 304.208 567.778 306.29 570.154 309.704C571.333 311.395 572.045 313.419 572.175 315.471C572.304 317.524 571.95 319.579 571.23 321.478C569.808 325.321 566.91 328.387 563.707 330.715C562.099 331.895 560.395 332.919 558.662 333.865C556.931 334.812 555.159 335.691 553.321 336.421C549.676 337.902 545.597 338.641 541.693 337.873C537.797 337.157 534.226 335.402 530.967 333.331C527.711 331.24 524.724 328.667 522.483 325.508C520.215 322.366 518.923 318.587 518.579 314.786C518.211 310.972 518.824 307.129 520.082 303.575C521.357 300.021 523.379 296.747 525.968 294.056C528.554 291.361 531.614 289.155 534.95 287.577C538.292 286.013 541.879 285.029 545.512 284.688C549.148 284.354 552.816 284.764 556.277 285.781C559.706 286.834 563.012 288.709 565.171 291.639C567.326 294.566 568.199 298.166 568.464 301.642C568.894 308.642 567.579 315.6 564.906 321.851C563.562 324.972 561.916 327.949 559.869 330.616C557.82 333.272 555.332 335.607 552.413 337.222C549.494 338.809 546.17 339.666 542.878 339.447C539.57 339.26 536.473 337.757 534.037 335.688C531.56 333.635 529.544 331.183 527.53 328.809C525.532 326.42 523.609 323.917 522.407 321.033C521.824 319.591 521.448 318.059 521.376 316.507C521.312 314.954 521.563 313.409 522.03 311.956C522.976 309.039 524.673 306.489 526.562 304.217C530.351 299.671 535.361 296.177 540.922 294.785C546.437 293.388 552.437 294.054 557.087 296.986C561.775 299.873 564.909 304.527 566.724 309.328C568.559 314.159 569.161 319.307 568.528 324.163C567.9 329.007 565.814 333.608 562.38 336.757C558.95 339.915 554.605 341.554 550.416 342.421C546.198 343.248 541.997 343.537 538.021 342.948C534.044 342.399 530.393 340.648 527.707 338.098C524.994 335.57 523.143 332.427 522.091 329.233C521.031 326.028 520.807 322.751 521.18 319.746C521.909 313.69 524.673 308.782 527.677 305.268C530.731 301.734 534.031 299.461 536.79 297.904C539.57 296.352 541.845 295.484 543.382 294.952C544.922 294.422 545.736 294.228 545.736 294.228C545.736 294.228 545.54 294.301 545.148 294.428C544.754 294.548 544.172 294.745 543.406 295.019C541.88 295.573 539.618 296.462 536.861 298.027C534.123 299.598 530.853 301.88 527.838 305.404C524.872 308.907 522.153 313.788 521.456 319.777C521.097 322.75 521.329 325.98 522.384 329.135C523.429 332.281 525.265 335.372 527.937 337.849C530.587 340.347 534.156 342.051 538.078 342.584C541.992 343.156 546.167 342.86 550.337 342.032C554.48 341.166 558.752 339.537 562.094 336.443C565.438 333.365 567.474 328.868 568.082 324.1C568.699 319.325 568.096 314.248 566.28 309.493C564.485 304.766 561.394 300.211 556.825 297.408C552.3 294.562 546.443 293.914 541.05 295.288C535.619 296.656 530.702 300.087 526.98 304.563C525.121 306.802 523.466 309.306 522.559 312.121C522.11 313.525 521.874 315.002 521.936 316.48C522.007 317.958 522.366 319.423 522.931 320.814C524.093 323.599 525.983 326.062 527.973 328.436C529.986 330.803 531.993 333.234 534.409 335.232C536.796 337.249 539.745 338.669 542.918 338.849C546.076 339.056 549.296 338.228 552.121 336.688C554.947 335.121 557.375 332.845 559.381 330.237C561.386 327.62 563.01 324.681 564.333 321.603C566.964 315.442 568.255 308.558 567.827 301.686C567.568 298.28 566.707 294.801 564.651 292.018C562.601 289.236 559.428 287.423 556.083 286.399C552.708 285.41 549.125 285.01 545.57 285.338C542.018 285.674 538.505 286.64 535.235 288.171C528.727 291.257 523.174 296.799 520.717 303.798C519.492 307.265 518.897 311.012 519.257 314.718C519.595 318.414 520.841 322.057 523.042 325.106C525.218 328.173 528.137 330.692 531.339 332.746C534.548 334.784 538.053 336.497 541.817 337.186C545.581 337.923 549.485 337.22 553.065 335.77C554.865 335.055 556.612 334.187 558.328 333.249C560.043 332.313 561.722 331.303 563.295 330.148C566.435 327.863 569.216 324.903 570.575 321.228C571.264 319.411 571.598 317.452 571.476 315.516C571.351 313.581 570.689 311.698 569.577 310.1C567.332 306.875 563.649 304.859 559.809 303.92C555.939 302.955 551.868 302.785 547.83 302.58C543.793 302.428 539.709 302.554 535.775 303.521C533.824 304.007 531.9 304.704 530.299 305.888C528.703 307.064 527.519 308.751 526.9 310.653C525.631 314.475 526.2 318.728 527.704 322.428C529.213 326.15 531.742 329.481 535.045 331.721C538.325 333.981 542.426 334.972 546.348 334.513C548.305 334.289 550.227 333.701 551.925 332.723C553.627 331.772 555.134 330.412 556.04 328.718C556.963 327.031 557.047 324.989 556.337 323.207C555.647 321.415 554.351 319.886 552.763 318.794C551.172 317.687 549.335 316.962 547.461 316.405C545.586 315.888 543.636 315.276 541.823 315.694C540.945 315.911 540.106 316.408 539.607 317.134C539.098 317.852 539.012 318.801 539.367 319.613C540.109 321.269 541.908 322.336 543.717 322.738C545.545 323.162 547.539 323.057 549.189 322.212C550.857 321.392 551.977 319.705 552.103 317.858C552.265 316.025 551.651 314.125 550.47 312.724C549.293 311.315 547.482 310.52 545.651 310.347C541.969 309.994 538.077 311.939 536.426 315.237C535.593 316.849 535.471 318.823 536.387 320.378C537.278 321.937 538.913 322.967 540.624 323.593C542.349 324.233 544.202 324.485 546.052 324.609C547.902 324.721 549.757 324.662 551.587 324.43C555.24 323.954 558.81 322.804 561.969 321.015C563.485 320.108 564.958 318.842 565.259 317.146C565.578 315.467 564.587 313.749 563.234 312.706C561.842 311.633 560.102 311.09 558.37 310.606C556.629 310.125 554.883 309.677 553.122 309.313C549.608 308.554 546.064 308.05 542.528 307.711C535.456 307.057 528.393 307.077 521.502 307.636C518.085 307.972 514.656 308.668 511.758 310.397C510.314 311.236 508.997 312.348 508.27 313.795C507.506 315.232 507.787 316.992 508.869 318.19C509.921 319.419 511.397 320.24 512.899 320.927C514.404 321.63 515.96 322.211 517.531 322.72C520.682 323.731 523.906 324.425 527.113 325.068C533.53 326.356 539.881 327.495 546.193 327.856C552.49 328.221 558.761 327.776 564.614 326.103C567.524 325.249 570.359 324.145 572.9 322.614C575.416 321.08 577.655 319.001 578.818 316.351C580.011 313.757 580.146 310.613 578.696 308.188C577.307 305.725 574.711 304.217 572.095 303.384C569.438 302.534 566.633 302.417 563.907 302.61C561.176 302.81 558.507 303.367 555.949 304.159C550.819 305.748 546.155 308.242 541.772 310.873C537.413 313.557 533.146 316.179 529.187 318.965C527.221 320.376 525.345 321.857 523.649 323.479C521.967 325.098 520.326 326.796 519.456 328.873C519.022 329.895 518.816 331.019 519.046 332.071C519.259 333.13 519.93 334.041 520.797 334.655C522.582 335.877 524.822 336.174 526.927 336.223C529.053 336.317 531.153 336.203 533.185 335.895C535.221 335.611 537.197 335.165 539.098 334.597C542.911 333.495 546.421 331.95 549.705 330.334C552.983 328.698 556.025 326.945 558.898 325.235C561.766 323.517 564.442 321.791 566.843 319.978C571.639 316.369 575.392 312.387 577.561 308.298C578.618 306.251 579.176 304.126 579.084 302.182C579.008 300.241 578.359 298.512 577.385 297.281C576.422 296.024 575.13 295.337 573.971 295.067C572.807 294.783 571.769 294.866 570.994 295.079C569.426 295.534 568.9 296.304 568.874 296.247Z" fill="#F5F5F5"/>
<path d="M425.394 65.0165C425.394 65.0165 425.624 64.7722 426.138 64.3568C426.658 63.9523 427.515 63.4189 428.776 63.0537C430.026 62.694 431.708 62.5433 433.601 62.9872C435.484 63.4094 437.604 64.517 439.183 66.5545C440.782 68.5512 441.852 71.3583 441.99 74.5129C442.153 77.677 441.26 81.1289 439.563 84.4463C436.081 91.0705 430.06 97.491 422.363 103.321C418.51 106.248 414.218 109.03 409.623 111.799C405.02 114.555 400.145 117.378 394.884 120.018C389.613 122.627 383.972 125.125 377.828 126.914C374.768 127.836 371.58 128.562 368.291 129.026C365.009 129.531 361.613 129.721 358.173 129.576C354.772 129.494 351.096 129.044 348.063 126.983C346.587 125.941 345.41 124.357 345.039 122.523C344.637 120.694 344.997 118.776 345.718 117.073C347.169 113.61 349.846 110.848 352.551 108.231C355.287 105.603 358.312 103.21 361.475 100.933C364.641 98.6583 367.962 96.5136 371.337 94.3649C374.715 92.2202 378.135 90.0361 381.658 87.9118C388.693 83.6753 396.202 79.6452 404.497 77.0634C408.635 75.778 412.959 74.8685 417.393 74.5387C421.808 74.2183 426.398 74.4002 430.763 75.7916C432.938 76.4771 435.054 77.434 436.966 78.7439C438.875 80.047 440.586 81.7302 441.738 83.7934C444.194 87.8996 443.958 93.2016 441.978 97.5073C440.041 101.927 436.334 105.361 432.226 107.87C428.074 110.377 423.493 112.16 418.777 113.55C409.301 116.271 399.168 116.994 389.016 116.413C378.841 115.84 368.627 114.015 358.336 111.957C353.189 110.928 347.994 109.816 342.896 108.183C340.351 107.359 337.827 106.419 335.379 105.278C332.941 104.159 330.469 102.815 328.64 100.685C327.739 99.6316 327.043 98.3231 326.858 96.9046C326.63 95.4888 326.956 94.0296 327.569 92.7658C328.844 90.2262 331.093 88.3638 333.471 86.9752C338.277 84.1056 343.888 82.979 349.418 82.4306C360.537 81.5225 371.867 81.4845 383.266 82.5324C388.96 83.0767 394.672 83.8857 400.338 85.106C403.177 85.6897 405.993 86.4119 408.803 87.1883C411.59 87.9702 414.489 88.8511 416.892 90.6972C418.084 91.6216 419.088 92.7998 419.764 94.1667C420.437 95.5255 420.758 97.119 420.46 98.6488C420.19 100.181 419.369 101.559 418.333 102.661C417.302 103.783 416.064 104.668 414.781 105.44C409.579 108.39 403.786 110.251 397.815 111.035C394.829 111.415 391.799 111.512 388.777 111.331C385.768 111.129 382.716 110.722 379.831 109.652C376.983 108.607 374.166 106.879 372.575 104.108C371.779 102.744 371.409 101.145 371.434 99.5664C371.47 97.9851 371.917 96.4349 372.616 95.0368C375.464 89.3846 382.016 86.1227 388.278 86.7105C391.398 87.0023 394.529 88.3597 396.599 90.8288C398.65 93.2681 399.704 96.5204 399.427 99.7171C399.285 101.311 398.78 102.895 397.881 104.247C396.987 105.607 395.7 106.664 394.276 107.414C391.385 108.889 387.994 109.051 384.89 108.334C381.817 107.629 378.685 105.876 377.287 102.792C376.605 101.258 376.771 99.3384 377.762 97.9593C378.73 96.5652 380.25 95.6829 381.846 95.2838C383.46 94.897 385.12 95.0069 386.7 95.2825C388.287 95.5702 389.817 95.9924 391.352 96.4349C394.406 97.343 397.442 98.5321 400.109 100.388C402.776 102.22 404.989 104.811 406.168 107.881C406.748 109.414 407.059 111.066 406.976 112.724C406.903 114.381 406.41 116.003 405.647 117.464C404.085 120.384 401.542 122.657 398.698 124.249C397.281 125.064 395.773 125.726 394.21 126.208C392.655 126.723 391.04 127.043 389.415 127.234C382.911 127.994 376.121 126.351 370.684 122.61C365.221 118.904 361.066 113.423 358.585 107.305C357.355 104.241 356.479 101.004 356.217 97.6851C355.932 94.3784 356.2 90.9822 357.279 87.7991C358.313 84.6079 360.336 81.7139 363.048 79.7226C365.758 77.7191 368.955 76.5721 372.146 75.7766C378.574 74.1993 385.206 74.0012 391.713 74.2455C398.214 74.5794 404.751 74.8414 411.097 76.4214C417.383 77.962 423.506 81.2782 427.274 86.6915C429.144 89.3724 430.269 92.5731 430.477 95.8254C430.682 99.0778 430.12 102.342 428.975 105.36C426.715 111.467 422.107 116.347 416.995 120.063C414.429 121.947 411.705 123.583 408.935 125.096C406.166 126.61 403.334 128.016 400.401 129.182C397.473 130.351 394.421 131.243 391.297 131.692C388.172 132.155 384.975 132.053 381.886 131.497C375.684 130.359 369.981 127.56 364.776 124.251C359.574 120.913 354.811 116.807 351.24 111.772C347.626 106.766 345.57 100.753 345.021 94.6947C344.435 88.6163 345.41 82.489 347.416 76.8205C348.418 73.9781 349.749 71.2633 351.329 68.7182C352.083 67.4218 353.034 66.2572 353.876 65.0233C354.846 63.8899 355.756 62.6994 356.802 61.6393C360.926 57.3404 365.81 53.822 371.131 51.3014C376.464 48.8065 382.188 47.2346 387.985 46.6903C393.786 46.1568 399.638 46.8097 405.156 48.4318C410.625 50.1096 415.88 53.0945 419.307 57.7463C422.73 62.3927 424.125 68.1236 424.547 73.6713C425.236 84.8481 423.136 95.9734 418.868 105.961C416.721 110.95 414.09 115.706 410.823 119.964C407.554 124.206 403.585 127.929 398.936 130.502C394.288 133.029 388.993 134.393 383.76 134.047C381.155 133.865 378.574 133.254 376.208 132.187C373.832 131.138 371.667 129.697 369.695 128.068C365.745 124.794 362.517 120.872 359.29 117.071C356.092 113.249 353.019 109.251 351.107 104.659C350.178 102.365 349.58 99.9302 349.464 97.4665C349.362 95.0001 349.76 92.546 350.503 90.2329C352.007 85.5906 354.712 81.5184 357.731 77.8887C363.779 70.6267 371.78 65.0477 380.649 62.8243C389.448 60.5941 399.017 61.657 406.432 66.3278C410.158 68.5987 413.277 71.6596 415.845 75.0273C418.362 78.4399 420.373 82.1551 421.816 86.0236C424.751 93.7418 425.716 101.968 424.705 109.724C424.201 113.602 423.107 117.351 421.493 120.795C419.877 124.243 417.583 127.291 414.903 129.826C409.434 134.867 402.494 137.489 395.798 138.878C389.056 140.203 382.331 140.667 375.981 139.731C372.816 139.254 369.753 138.395 366.968 137.067C364.176 135.755 361.67 134.006 359.508 131.995C355.175 127.959 352.213 122.939 350.53 117.837C348.833 112.718 348.472 107.481 349.065 102.678C349.624 97.8561 351.054 93.4459 352.894 89.5719C354.746 85.6938 357.018 82.3451 359.44 79.5122C364.321 73.8546 369.599 70.2086 374.013 67.711C378.46 65.2215 382.102 63.8234 384.56 62.9641C387.025 62.1103 388.323 61.7859 388.323 61.7859C388.323 61.7859 388.008 61.8959 387.378 62.0954C386.747 62.2868 385.811 62.599 384.583 63.032C382.135 63.913 378.506 65.3314 374.082 67.8345C369.688 70.3457 364.44 73.9998 359.599 79.6479C357.197 82.474 354.945 85.8133 353.113 89.6751C351.291 93.5328 349.882 97.9199 349.338 102.709C348.758 107.481 349.129 112.671 350.82 117.741C352.498 122.796 355.444 127.765 359.736 131.748C363.992 135.766 369.734 138.509 376.035 139.367C382.324 140.287 389.022 139.816 395.718 138.49C402.369 137.101 409.235 134.488 414.615 129.515C417.251 127.013 419.507 124.01 421.1 120.606C422.688 117.207 423.766 113.503 424.26 109.664C425.252 101.988 424.287 93.8341 421.372 86.1933C419.94 82.3627 417.945 78.6896 415.457 75.3205C412.917 71.9976 409.839 68.9828 406.171 66.7526C398.882 62.1673 389.456 61.1249 380.778 63.3306C372.038 65.5296 364.132 71.0434 358.15 78.2376C355.161 81.8347 352.499 85.8608 351.033 90.4013C350.309 92.664 349.926 95.0517 350.026 97.4421C350.14 99.8325 350.721 102.2 351.632 104.445C353.505 108.938 356.543 112.895 359.733 116.702C362.958 120.498 366.177 124.397 370.067 127.616C373.906 130.863 378.675 133.162 383.8 133.453C388.901 133.789 394.09 132.454 398.644 129.972C403.2 127.449 407.109 123.782 410.335 119.591C413.561 115.383 416.17 110.665 418.295 105.718C422.522 95.82 424.598 84.7694 423.912 73.7202C423.494 68.2431 422.112 62.6329 418.788 58.1304C415.471 53.6266 410.348 50.7055 404.963 49.0549C399.531 47.4626 393.764 46.8179 388.043 47.3472C382.327 47.8861 376.677 49.4404 371.416 51.904C366.166 54.3922 361.351 57.8671 357.288 62.1022C356.257 63.146 355.362 64.3188 354.407 65.436C353.58 66.6522 352.642 67.7978 351.901 69.0752C350.348 71.5809 349.037 74.2536 348.051 77.0526C346.079 82.6342 345.121 88.6665 345.699 94.6364C346.242 100.59 348.253 106.467 351.799 111.38C355.305 116.321 360 120.374 365.148 123.674C370.304 126.951 375.94 129.707 382.009 130.818C385.035 131.361 388.143 131.46 391.2 131.008C394.257 130.568 397.254 129.694 400.145 128.539C403.041 127.388 405.848 125.995 408.601 124.488C411.354 122.984 414.051 121.362 416.582 119.504C421.63 115.831 426.123 111.057 428.318 105.117C429.431 102.181 429.973 99.0126 429.775 95.877C429.573 92.7414 428.497 89.6818 426.695 87.0946C424.9 84.4979 422.469 82.36 419.759 80.7054C417.045 79.0385 414.029 77.8955 410.922 77.1082C404.689 75.554 398.162 75.2853 391.685 74.9554C385.209 74.7111 378.643 74.9133 372.313 76.4675C369.172 77.2494 366.063 78.3747 363.466 80.2954C360.873 82.2039 358.947 84.9513 357.947 88.0312C356.906 91.099 356.642 94.4029 356.92 97.6308C357.174 100.868 358.031 104.038 359.239 107.046C361.671 113.045 365.746 118.415 371.079 122.03C376.377 125.679 382.997 127.279 389.334 126.539C390.915 126.355 392.486 126.043 393.995 125.543C395.514 125.076 396.976 124.433 398.35 123.644C401.104 122.106 403.548 119.904 405.024 117.142C406.532 114.391 406.668 111.038 405.51 108.137C404.389 105.22 402.281 102.737 399.707 100.97C397.131 99.1769 394.166 98.0081 391.153 97.1122C388.143 96.2856 385.004 95.2852 382.011 95.9693C380.56 96.3304 379.175 97.1462 378.336 98.3624C377.48 99.5651 377.336 101.178 377.93 102.532C378.506 103.901 379.615 105.025 380.858 105.886C382.117 106.746 383.553 107.317 385.048 107.662C388.018 108.35 391.259 108.183 393.958 106.801C395.287 106.102 396.485 105.117 397.306 103.867C398.135 102.621 398.606 101.153 398.739 99.6587C399.003 96.6629 398.002 93.5694 396.073 91.2795C394.146 88.9733 391.191 87.6783 388.214 87.4001C382.23 86.8299 375.921 89.9805 373.231 95.3463C372.57 96.6697 372.155 98.1222 372.121 99.5854C372.099 101.043 372.436 102.513 373.174 103.777C374.637 106.337 377.304 108.005 380.07 109.018C382.863 110.055 385.851 110.458 388.825 110.659C391.802 110.838 394.788 110.745 397.733 110.37C403.614 109.602 409.349 107.756 414.443 104.868C415.688 104.119 416.878 103.265 417.847 102.211C418.823 101.172 419.566 99.9112 419.809 98.5334C420.333 95.7399 418.696 92.9274 416.489 91.2252C414.22 89.4755 411.405 88.6041 408.627 87.8263C405.832 87.0539 403.03 86.3345 400.205 85.7522C394.568 84.5359 388.882 83.7283 383.209 83.184C371.863 82.136 360.543 82.1686 349.486 83.0672C343.998 83.6075 338.479 84.7246 333.797 87.5181C331.468 88.8728 329.326 90.6714 328.135 93.0414C327.565 94.2183 327.273 95.5377 327.48 96.8177C327.645 98.1004 328.274 99.2949 329.121 100.287C330.839 102.293 333.23 103.614 335.643 104.72C338.063 105.85 340.564 106.782 343.089 107.601C348.148 109.224 353.319 110.335 358.461 111.365C368.743 113.427 378.929 115.253 389.056 115.829C399.159 116.414 409.227 115.698 418.626 113.007C423.301 111.634 427.851 109.862 431.941 107.397C435.99 104.928 439.605 101.573 441.485 97.2874C443.413 93.0957 443.633 87.9973 441.279 84.0608C440.177 82.0777 438.526 80.4502 436.672 79.1823C434.813 77.9078 432.743 76.9684 430.611 76.2938C426.328 74.9242 421.812 74.7396 417.435 75.0518C413.046 75.3748 408.76 76.2721 404.649 77.544C396.413 80.0986 388.932 84.1016 381.907 88.3217C378.39 90.4379 374.97 92.6165 371.591 94.7585C368.214 96.9019 364.899 99.0398 361.742 101.301C358.587 103.564 355.577 105.942 352.856 108.548C350.159 111.148 347.519 113.879 346.111 117.237C345.411 118.89 345.073 120.717 345.449 122.437C345.798 124.165 346.896 125.653 348.305 126.652C351.206 128.634 354.814 129.103 358.192 129.184C361.606 129.331 364.977 129.148 368.24 128.651C371.508 128.194 374.681 127.477 377.728 126.564C383.846 124.794 389.474 122.312 394.736 119.718C399.991 117.093 404.864 114.282 409.468 111.537C414.063 108.78 418.351 106.013 422.201 103.102C429.887 97.3077 435.902 90.9198 439.38 84.3513C441.075 81.0637 441.967 77.6485 441.818 74.5224C441.693 71.4017 440.646 68.6231 439.076 66.644C437.524 64.6242 435.443 63.5234 433.581 63.0931C431.709 62.6411 430.042 62.7782 428.799 63.1243C426.27 63.8641 425.432 65.1034 425.394 65.0165Z" fill="black"/>
<path d="M163.44 241.638C163.44 241.638 163.183 241.62 162.688 241.551C162.167 241.469 161.438 241.355 160.494 241.208C158.587 240.846 155.693 240.408 152.29 238.854C150.607 238.066 148.814 236.924 147.287 235.22C145.775 233.538 144.463 231.266 144.235 228.565C144.132 227.23 144.344 225.792 144.998 224.497C145.646 223.204 146.679 222.07 147.953 221.222C149.24 220.409 150.831 219.872 152.479 220.084C154.102 220.295 155.686 221.265 156.593 222.736C157.535 224.199 157.822 226.009 157.708 227.769C157.595 229.541 157.053 231.305 156.194 232.938C155.737 233.738 155.217 234.532 154.563 235.204C153.969 235.935 153.239 236.542 152.525 237.177C151.016 238.352 149.305 239.311 147.457 240.013C145.602 240.708 143.607 241.085 141.572 241.21C139.535 241.339 137.439 241.148 135.406 240.584C133.372 240.035 131.39 239.139 129.626 237.864C127.845 236.606 126.363 234.904 125.222 232.994C122.945 229.155 122.077 224.412 122.805 219.807C123.175 217.506 123.971 215.238 125.203 213.195C125.829 212.179 126.546 211.213 127.382 210.34C128.183 209.436 129.171 208.671 130.284 208.114C131.386 207.572 132.74 207.256 134.017 207.672C134.647 207.872 135.203 208.238 135.689 208.691C136.139 209.182 136.478 209.77 136.657 210.4C137.018 211.661 136.899 212.959 136.654 214.183C136.399 215.414 135.959 216.594 135.419 217.726C134.256 219.949 132.995 222.052 131.628 224.171C130.247 226.267 128.692 228.297 126.819 230.054C124.939 231.803 122.742 233.214 120.334 234.069C117.939 234.932 115.281 235.158 112.818 234.513C110.353 233.887 108.165 232.483 106.43 230.73C104.688 228.972 103.338 226.88 102.395 224.647C100.524 220.154 100.123 215.361 99.8851 210.795C99.7616 208.512 99.6706 206.2 100.009 203.939C100.344 201.715 101.103 199.374 102.904 197.856C103.782 197.112 104.865 196.606 106.002 196.458C107.134 196.302 108.283 196.459 109.323 196.846C111.401 197.631 113.125 199.191 114.074 201.134C115.015 203.075 115.221 205.247 115.026 207.281C114.818 209.324 114.246 211.28 113.433 213.073C112.675 214.897 111.612 216.533 110.507 218.073C109.339 219.572 108.074 220.95 106.687 222.139C103.934 224.544 100.804 226.248 97.6644 227.376C94.5084 228.481 91.2982 228.912 88.2929 228.8C85.2808 228.684 82.4846 227.997 80.0317 227.005C75.1125 224.989 71.5439 221.917 69.2051 219.045C66.8378 216.162 65.5958 213.502 64.932 211.672C64.5628 210.765 64.4026 210.033 64.2683 209.552C64.1393 209.068 64.0918 208.816 64.0918 208.816C64.1488 208.798 64.3497 209.812 65.0651 211.62C65.7682 213.423 67.0401 216.041 69.4155 218.869C71.7625 221.685 75.3189 224.687 80.1783 226.637C82.6027 227.597 85.3555 228.254 88.3105 228.349C91.2602 228.443 94.408 228.003 97.5001 226.902C100.577 225.781 103.642 224.093 106.33 221.726C107.685 220.555 108.917 219.2 110.055 217.731C111.13 216.22 112.163 214.62 112.897 212.838C113.686 211.087 114.231 209.185 114.424 207.222C114.607 205.269 114.398 203.213 113.515 201.403C112.641 199.618 111.021 198.159 109.105 197.444C107.193 196.713 104.909 196.954 103.326 198.353C101.715 199.706 100.985 201.885 100.667 204.035C100.345 206.222 100.433 208.471 100.561 210.76C100.801 215.308 101.214 220.024 103.034 224.378C103.946 226.533 105.252 228.551 106.926 230.234C108.591 231.917 110.674 233.244 112.993 233.83C115.308 234.434 117.81 234.228 120.101 233.402C122.4 232.587 124.522 231.227 126.337 229.537C129.96 226.105 132.445 221.668 134.787 217.42C135.794 215.276 136.547 212.808 135.986 210.597C135.833 210.057 135.551 209.58 135.19 209.177C134.795 208.815 134.326 208.5 133.807 208.334C132.764 207.991 131.598 208.24 130.588 208.736C129.571 209.243 128.642 209.952 127.881 210.814C127.081 211.647 126.392 212.575 125.791 213.548C124.605 215.508 123.834 217.692 123.473 219.915C122.761 224.365 123.598 228.962 125.783 232.661C127.922 236.423 131.64 238.949 135.568 239.984C139.51 241.085 143.656 240.734 147.256 239.463C149.05 238.787 150.709 237.864 152.172 236.735C153.584 235.553 154.856 234.217 155.715 232.676C156.543 231.119 157.072 229.423 157.185 227.734C157.303 226.053 157.032 224.35 156.171 223.005C155.348 221.65 153.897 220.757 152.418 220.556C150.912 220.352 149.419 220.84 148.196 221.603C146.986 222.398 145.995 223.472 145.376 224.689C144.753 225.908 144.542 227.253 144.63 228.539C144.829 231.123 146.076 233.344 147.539 234.999C149.016 236.676 150.756 237.811 152.41 238.609C155.749 240.181 158.627 240.667 160.52 241.072C161.457 241.25 162.182 241.387 162.699 241.484C163.191 241.573 163.44 241.638 163.44 241.638Z" fill="black"/>
<path d="M68.9414 620.861C68.9414 628.867 72.4435 633.166 75.3836 635.359C79.3391 638.312 84.3696 639.174 88.8843 639.174C92.9321 639.174 96.5346 638.485 98.606 637.991C104.957 648.928 116.058 657.618 135.451 656.725C178.781 654.724 176.088 598.137 176.088 598.137H90.3815C90.3815 598.137 90.2458 600.005 90.2689 603.03C86.1437 602.888 79.4518 603.416 74.5556 607.554C71.9942 609.721 68.9414 613.782 68.9414 620.861ZM77.3871 620.861C77.3871 617.738 78.2423 615.498 80.0042 614.009C82.867 611.589 87.8052 611.346 90.7372 611.525C91.3005 617.064 92.4923 623.68 94.9085 630.136C90.6408 630.904 84.0846 631.328 80.4264 628.585C78.3821 627.049 77.3871 624.526 77.3871 620.861Z" fill="#455A64"/>
<path d="M156.968 637.381C156.878 637.319 157.675 636.078 158.855 634.019C160.037 631.962 161.56 629.059 162.944 625.721C164.322 622.378 165.291 619.246 165.908 616.955C166.525 614.664 166.837 613.223 166.945 613.242C167.029 613.256 166.892 614.731 166.394 617.073C165.898 619.413 164.993 622.608 163.599 625.991C162.199 629.37 160.584 632.272 159.284 634.279C157.982 636.288 157.037 637.431 156.968 637.381Z" fill="#F5F5F5"/>
<path d="M150.161 638.28C149.971 638.237 151.008 632.817 152.478 626.174C153.948 619.53 155.295 614.179 155.485 614.221C155.675 614.263 154.638 619.682 153.168 626.328C151.698 632.971 150.351 638.323 150.161 638.28Z" fill="#F5F5F5"/>
<path d="M139.873 637.332C139.774 637.31 139.976 635.99 140.315 633.863C140.655 631.738 141.115 628.802 141.544 625.548C141.969 622.293 142.281 619.337 142.501 617.195C142.721 615.053 142.866 613.725 142.968 613.73C143.061 613.735 143.093 615.073 142.999 617.231C142.907 619.389 142.672 622.368 142.244 625.639C141.814 628.909 141.274 631.846 140.807 633.956C140.34 636.066 139.964 637.351 139.873 637.332Z" fill="#F5F5F5"/>
<path d="M131.418 614.936C131.521 614.942 131.518 616.175 131.528 618.161C131.536 620.147 131.578 622.889 131.754 625.909C131.934 628.93 132.215 631.657 132.44 633.631C132.664 635.605 132.811 636.829 132.71 636.847C132.619 636.863 132.299 635.668 131.946 633.703C131.593 631.737 131.231 628.996 131.05 625.951C130.872 622.906 130.909 620.141 131.03 618.147C131.146 616.153 131.326 614.929 131.418 614.936Z" fill="#F5F5F5"/>
<path d="M118.072 611.568C118.18 611.571 118.202 612.969 118.351 615.213C118.499 617.457 118.824 620.546 119.5 623.904C120.182 627.263 121.084 630.237 121.819 632.361C122.554 634.487 123.076 635.783 122.977 635.828C122.9 635.864 122.213 634.637 121.351 632.536C120.489 630.438 119.497 627.446 118.806 624.044C118.122 620.643 117.872 617.5 117.852 615.232C117.83 612.962 117.986 611.564 118.072 611.568Z" fill="#F5F5F5"/>
<path d="M104.003 616.842C104.223 616.796 105.072 621.563 107.439 626.983C109.768 632.422 112.662 636.303 112.478 636.432C112.408 636.485 111.595 635.582 110.481 633.97C109.365 632.36 107.983 630.014 106.791 627.264C105.604 624.513 104.841 621.9 104.431 619.985C104.018 618.068 103.916 616.857 104.003 616.842Z" fill="#F5F5F5"/>
<path d="M138.141 511.898C138.155 511.878 138.411 512.053 138.891 512.407C139.351 512.78 140.009 513.378 140.673 514.301C142.033 516.103 143.287 519.352 143.105 523.432C143.009 527.543 141.047 532.13 138.346 536.68C135.706 541.255 132.271 546.119 131.019 552.07C130.389 555.015 130.532 558.027 131.502 560.687C132.462 563.356 134.011 565.676 135.585 567.781C137.169 569.888 138.802 571.819 140.175 573.756C141.552 575.686 142.678 577.623 143.392 579.529C144.854 583.368 144.43 586.885 143.536 588.95C143.096 590 142.576 590.726 142.192 591.178C141.794 591.622 141.557 591.826 141.543 591.811C141.462 591.755 142.482 590.929 143.28 588.848C144.072 586.813 144.4 583.401 142.926 579.708C142.201 577.866 141.081 575.988 139.7 574.097C138.325 572.198 136.683 570.291 135.065 568.172C133.46 566.054 131.859 563.694 130.849 560.918C129.823 558.146 129.671 554.966 130.325 551.928C131.624 545.782 135.137 540.876 137.784 536.349C140.502 531.841 142.45 527.391 142.606 523.405C142.846 519.434 141.703 516.261 140.448 514.455C139.206 512.608 138.068 511.975 138.141 511.898Z" fill="black"/>
<path d="M128.437 518.897C128.456 518.882 128.635 519.094 128.96 519.518C129.264 519.953 129.684 520.628 130.032 521.586C130.768 523.476 131.076 526.553 130.096 530.066C129.192 533.629 126.759 537.282 124.172 541.221C122.892 543.208 121.598 545.326 120.643 547.688C119.703 550.055 119.067 552.641 118.805 555.331C118.311 560.728 119.414 565.954 121.521 570.135C122.558 572.238 123.841 574.095 124.924 575.915C126.019 577.727 126.938 579.508 127.471 581.258C128.532 584.792 127.84 587.929 126.761 589.648C126.227 590.525 125.629 591.066 125.212 591.395C124.772 591.699 124.525 591.83 124.515 591.813C124.445 591.741 125.539 591.24 126.524 589.511C127.49 587.821 128.073 584.785 126.995 581.41C126.451 579.73 125.531 578.004 124.425 576.222C123.329 574.431 122.022 572.578 120.94 570.43C118.748 566.156 117.595 560.8 118.103 555.267C118.372 552.508 119.029 549.855 120.003 547.428C120.997 545.001 122.327 542.854 123.628 540.867C126.26 536.926 128.68 533.374 129.617 529.93C130.631 526.522 130.409 523.541 129.774 521.676C129.161 519.781 128.351 518.949 128.437 518.897Z" fill="black"/>
<path d="M115.31 658.643H151.766V651.69H115.31V658.643Z" fill="#455A64"/>
<path d="M566.261 516.997C566.115 517.18 564.886 516.442 563.519 515.348C562.151 514.252 561.162 513.216 561.31 513.032C561.456 512.849 562.685 513.587 564.052 514.681C565.418 515.778 566.408 516.814 566.261 516.997Z" fill="black"/>
<path d="M603.568 461.236C603.793 456.024 603.94 450.682 602.296 445.734C600.652 440.786 596.835 436.234 591.729 435.176C585.9 433.969 579.929 437.648 576.663 442.624C573.397 447.6 572.275 453.641 571.309 459.514C564.662 499.985 562.208 541.143 563.999 582.116L587.848 585.461C598.323 542.662 601.665 505.255 603.568 461.236Z" fill="#455A64"/>
<path d="M588.419 434.99C588.432 434.996 588.396 435.125 588.311 435.37C588.206 435.662 588.075 436.017 587.918 436.452C587.53 437.461 586.999 438.836 586.328 440.572C585.996 441.471 585.553 442.443 585.198 443.553C584.841 444.667 584.454 445.873 584.04 447.165C583.622 448.463 583.175 449.847 582.703 451.312C582.313 452.808 581.902 454.385 581.471 456.041C579.672 462.65 578.18 470.685 576.864 479.643C575.574 488.612 574.728 498.547 574.061 508.984C572.842 529.879 572.651 548.848 572.114 562.563C571.858 569.422 571.624 574.971 571.362 578.802C571.235 580.661 571.136 582.133 571.063 583.212C571.024 583.672 570.991 584.048 570.964 584.357C570.937 584.615 570.916 584.747 570.901 584.746C570.886 584.744 570.878 584.611 570.877 584.352C570.881 584.042 570.885 583.665 570.892 583.202C570.926 582.122 570.972 580.648 571.03 578.785C571.191 574.952 571.334 569.403 571.511 562.544C571.894 548.83 571.989 529.862 573.21 508.932C573.877 498.477 574.75 488.522 576.087 479.532C577.448 470.553 579.006 462.502 580.888 455.886C581.341 454.232 581.773 452.653 582.181 451.157C582.677 449.694 583.147 448.311 583.586 447.014C584.025 445.726 584.435 444.525 584.813 443.413C585.193 442.307 585.659 441.342 586.016 440.45C586.75 438.735 587.331 437.378 587.756 436.383C587.946 435.962 588.101 435.618 588.229 435.335C588.343 435.102 588.405 434.985 588.419 434.99Z" fill="black"/>
<path d="M590.628 435.004C590.628 435.004 592.09 436.505 593.542 439.938C595.042 443.342 595.984 448.757 595.717 455.366C595.083 468.544 593.903 486.703 592.334 506.753C590.757 526.806 589.01 544.933 587.602 558.036C586.899 564.588 586.29 569.885 585.84 573.543C585.612 575.313 585.433 576.716 585.3 577.752C585.235 578.189 585.182 578.548 585.139 578.843C585.098 579.089 585.069 579.214 585.055 579.213C585.04 579.211 585.04 579.082 585.052 578.834C585.074 578.535 585.098 578.173 585.129 577.733C585.223 576.695 585.35 575.284 585.511 573.508C585.87 569.761 586.378 564.475 587.002 557.976C588.257 544.861 589.909 526.733 591.485 506.687C593.052 486.65 594.328 468.483 595.114 455.346C595.455 448.784 594.617 443.459 593.234 440.062C591.899 436.64 590.524 435.065 590.628 435.004Z" fill="black"/>
<path d="M607.163 496.729C607.084 496.951 605.061 496.428 602.643 495.561C600.225 494.693 598.331 493.811 598.411 493.59C598.491 493.369 600.513 493.891 602.931 494.759C605.348 495.625 607.243 496.507 607.163 496.729Z" fill="black"/>
<path d="M610.037 472.423C610.134 472.637 608.208 473.708 605.737 474.813C603.265 475.92 601.186 476.642 601.089 476.426C600.993 476.211 602.918 475.14 605.39 474.034C607.86 472.929 609.941 472.207 610.037 472.423Z" fill="black"/>
<path d="M608.548 452.586C608.532 452.821 606.939 452.902 604.993 452.768C603.045 452.634 601.48 452.335 601.496 452.1C601.513 451.865 603.105 451.784 605.051 451.918C606.998 452.051 608.564 452.351 608.548 452.586Z" fill="black"/>
<path d="M583.937 439.875C583.738 440 582.694 438.7 581.605 436.969C580.517 435.238 579.795 433.734 579.994 433.608C580.194 433.483 581.237 434.783 582.326 436.514C583.415 438.245 584.136 439.75 583.937 439.875Z" fill="black"/>
<path d="M575.805 451.869C575.799 452.104 574.283 452.263 572.418 452.224C570.551 452.184 569.043 451.962 569.049 451.726C569.054 451.491 570.57 451.332 572.437 451.371C574.301 451.411 575.809 451.635 575.805 451.869Z" fill="black"/>
<path d="M569.964 475.871C569.876 476.089 568.28 475.651 566.4 474.893C564.518 474.134 563.066 473.343 563.154 473.125C563.242 472.906 564.837 473.344 566.719 474.103C568.599 474.861 570.053 475.653 569.964 475.871Z" fill="black"/>
<path d="M569.34 496.055C569.389 496.285 568.03 496.765 566.306 497.127C564.582 497.49 563.144 497.595 563.097 497.365C563.048 497.134 564.407 496.655 566.132 496.292C567.855 495.931 569.291 495.825 569.34 496.055Z" fill="black"/>
<path d="M566.594 529.071C566.636 529.304 565.193 529.756 563.373 530.081C561.552 530.407 560.042 530.485 560.001 530.252C559.959 530.02 561.402 529.568 563.223 529.243C565.044 528.917 566.553 528.839 566.594 529.071Z" fill="black"/>
<path d="M564.769 547.298C564.879 547.506 563.676 548.359 562.083 549.202C560.489 550.044 559.107 550.559 558.997 550.351C558.887 550.144 560.09 549.291 561.684 548.448C563.277 547.605 564.659 547.089 564.769 547.298Z" fill="black"/>
<path d="M579.652 567.984C579.447 568.101 578.399 566.654 577.31 564.754C576.222 562.852 575.504 561.215 575.709 561.098C575.912 560.982 576.96 562.429 578.05 564.33C579.139 566.231 579.857 567.868 579.652 567.984Z" fill="black"/>
<path d="M583.945 533.606C584.109 533.775 582.942 535.186 581.337 536.76C579.732 538.333 578.298 539.473 578.133 539.305C577.968 539.136 579.136 537.726 580.74 536.151C582.346 534.578 583.781 533.438 583.945 533.606Z" fill="black"/>
<path d="M582.996 515.569C582.824 515.729 581.741 514.84 580.578 513.585C579.414 512.329 578.611 511.181 578.783 511.021C578.955 510.86 580.039 511.75 581.202 513.005C582.365 514.262 583.169 515.409 582.996 515.569Z" fill="black"/>
<path d="M585.947 492.522C586.122 492.68 585.149 494.051 583.774 495.586C582.398 497.121 581.141 498.238 580.966 498.082C580.791 497.925 581.764 496.554 583.139 495.017C584.515 493.483 585.772 492.366 585.947 492.522Z" fill="black"/>
<path d="M587.609 475.798C587.444 475.966 586.086 474.899 584.577 473.414C583.066 471.93 581.976 470.591 582.142 470.424C582.306 470.255 583.665 471.322 585.174 472.807C586.684 474.291 587.775 475.631 587.609 475.798Z" fill="black"/>
<path d="M590.874 453.187C591.076 453.308 590.395 454.823 589.351 456.573C588.307 458.322 587.298 459.642 587.096 459.521C586.894 459.4 587.575 457.885 588.619 456.135C589.663 454.387 590.672 453.068 590.874 453.187Z" fill="black"/>
<path d="M597.016 432.235C597.224 432.346 596.62 433.864 595.669 435.623C594.718 437.382 593.78 438.718 593.572 438.607C593.364 438.495 593.969 436.978 594.919 435.219C595.87 433.458 596.81 432.122 597.016 432.235Z" fill="black"/>
<path d="M603.985 441.751C604.087 441.963 603.133 442.632 601.854 443.243C600.575 443.855 599.457 444.178 599.355 443.966C599.253 443.755 600.208 443.087 601.486 442.475C602.765 441.862 603.885 441.538 603.985 441.751Z" fill="black"/>
<path d="M604.153 517C604.107 517.221 601.943 516.924 599.489 515.871C597.028 514.827 595.317 513.472 595.444 513.285C595.577 513.08 597.441 514.078 599.823 515.086C602.199 516.107 604.209 516.762 604.153 517Z" fill="black"/>
<path d="M601.306 532.939C601.35 533.169 599.914 533.642 598.098 533.992C596.282 534.342 594.772 534.439 594.728 534.208C594.683 533.977 596.119 533.506 597.936 533.154C599.753 532.804 601.262 532.706 601.306 532.939Z" fill="black"/>
<path d="M597.804 560.266C597.665 560.443 595.843 559.195 594.171 557.077C592.489 554.966 591.69 552.907 591.895 552.813C592.113 552.702 593.22 554.517 594.839 556.548C596.446 558.586 597.962 560.077 597.804 560.266Z" fill="black"/>
<path d="M559.469 572.762C559.316 572.583 560.285 571.504 561.633 570.351C562.981 569.199 564.198 568.409 564.35 568.588C564.504 568.767 563.535 569.846 562.185 570.999C560.839 572.151 559.621 572.941 559.469 572.762Z" fill="black"/>
<path d="M548.448 513.118C546.896 508.27 543.983 502.619 538.894 502.548C535.874 502.504 533.158 504.671 531.74 507.336C530.32 510.001 529.717 513.092 529.805 516.111C530.388 536.054 533.842 558.861 540.743 579.636H559.364C559.124 556.557 555.483 535.097 548.448 513.118Z" fill="#455A64"/>
<path d="M514.772 482.608C512.17 472.198 504.405 466.574 495.387 466.053C487.157 467.496 483.965 475.599 482.987 483.898C482.01 492.196 484.586 500.457 487.132 508.417C495.302 533.972 503.472 559.527 511.643 585.082C519.366 584.239 527.087 583.396 534.809 582.552C527.476 548.313 523.266 516.577 514.772 482.608Z" fill="#455A64"/>
<path d="M538.893 502.547C538.973 502.609 538.13 503.383 537.316 505.182C536.51 506.988 536.121 509.873 536.444 513.414C536.806 516.953 537.211 521.217 537.803 525.886C538.41 530.566 539.253 535.689 540.3 541.037C542.405 551.735 544.776 561.334 546.283 568.331C547.046 571.827 547.621 574.667 547.984 576.635C548.139 577.541 548.267 578.291 548.373 578.907C548.453 579.429 548.481 579.706 548.452 579.711C548.424 579.716 548.339 579.452 548.205 578.941C548.057 578.333 547.878 577.595 547.661 576.703C547.167 574.629 546.503 571.846 545.697 568.465C544.042 561.508 541.577 551.93 539.465 541.199C538.415 535.834 537.593 530.687 537.025 525.982C536.728 523.631 536.533 521.388 536.341 519.289C536.17 517.203 535.942 515.252 535.843 513.454C535.591 509.862 536.082 506.865 537.015 505.042C537.954 503.226 538.893 502.547 538.893 502.547Z" fill="black"/>
<path d="M495.722 465.393C495.802 465.462 494.488 466.568 492.923 469.154C491.361 471.711 489.703 475.883 489.397 481.276C489.042 486.666 490.244 493.063 492.262 499.925C494.297 506.82 496.528 514.384 498.873 522.326C503.492 538.205 507.673 552.574 510.729 563.082C512.187 568.241 513.378 572.447 514.229 575.46C514.608 576.862 514.909 577.985 515.14 578.837C515.339 579.612 515.43 580.022 515.402 580.03C515.373 580.039 515.228 579.644 514.975 578.885C514.707 578.045 514.354 576.937 513.913 575.552C512.998 572.558 511.72 568.379 510.153 563.25C507.033 552.76 502.768 538.417 498.055 522.565C495.733 514.613 493.523 507.04 491.507 500.137C489.521 493.236 488.357 486.724 488.795 481.232C489.185 475.743 490.966 471.519 492.641 468.975C494.321 466.404 495.722 465.393 495.722 465.393Z" fill="black"/>
<path d="M529.756 580.074C529.729 580.085 529.55 579.704 529.234 578.964C528.93 578.222 528.437 577.14 527.914 575.705C526.809 572.858 525.394 568.665 523.93 563.403C522.458 558.143 521.011 551.798 519.612 544.721C518.27 537.628 516.797 529.847 515.25 521.676C513.639 513.521 511.845 505.806 509.763 498.918C507.686 492.032 505.357 485.973 503.009 481.07C500.673 476.16 498.44 472.355 496.763 469.816C495.967 468.518 495.243 467.581 494.811 466.903C494.363 466.236 494.139 465.878 494.164 465.86C494.187 465.842 494.457 466.167 494.95 466.801C495.426 467.447 496.196 468.355 497.039 469.63C498.806 472.122 501.131 475.902 503.552 480.806C505.984 485.707 508.385 491.781 510.514 498.689C512.648 505.597 514.471 513.338 516.086 521.511C517.609 529.686 519.06 537.472 520.383 544.57C521.737 551.645 523.12 557.983 524.513 563.247C525.897 568.512 527.221 572.717 528.227 575.592C528.7 577.041 529.141 578.139 529.394 578.902C529.657 579.659 529.783 580.062 529.756 580.074Z" fill="black"/>
<path d="M487.543 504.589C487.599 504.819 486.339 505.321 484.729 505.711C483.12 506.102 481.769 506.233 481.715 506.004C481.659 505.776 482.919 505.274 484.53 504.883C486.138 504.492 487.489 504.36 487.543 504.589Z" fill="black"/>
<path d="M485.089 488.778C485.077 489.017 483.326 489.115 481.183 489.202C479.038 489.283 477.286 489.324 477.254 489.087C477.223 488.857 478.959 488.434 481.149 488.351C483.338 488.261 485.103 488.548 485.089 488.778Z" fill="black"/>
<path d="M487.7 474.34C487.548 474.519 486.289 473.702 484.888 472.514C483.488 471.326 482.476 470.219 482.628 470.038C482.78 469.859 484.039 470.676 485.44 471.864C486.84 473.052 487.852 474.161 487.7 474.34Z" fill="black"/>
<path d="M494.765 460.971C495 461.024 494.936 462.149 494.901 463.512C494.858 464.875 494.856 466.001 494.619 466.041C494.393 466.083 494.004 464.945 494.048 463.487C494.086 462.031 494.541 460.916 494.765 460.971Z" fill="black"/>
<path d="M509.208 467.269C509.4 467.405 508.834 468.545 507.944 469.818C507.052 471.091 506.174 472.013 505.981 471.879C505.788 471.744 506.354 470.603 507.245 469.329C508.137 468.056 509.015 467.134 509.208 467.269Z" fill="black"/>
<path d="M518.578 483.55C518.666 483.768 517.468 484.463 515.898 485.103C514.329 485.742 512.987 486.084 512.897 485.866C512.808 485.648 514.008 484.953 515.577 484.314C517.146 483.673 518.49 483.333 518.578 483.55Z" fill="black"/>
<path d="M524.265 500.301C524.36 500.507 522.772 501.414 520.592 501.904C518.414 502.402 516.59 502.269 516.586 502.043C516.576 501.8 518.314 501.553 520.403 501.074C522.495 500.605 524.17 500.077 524.265 500.301Z" fill="black"/>
<path d="M498.161 495.543C497.937 495.473 498.099 494.315 498.525 492.959C498.95 491.601 499.477 490.559 499.702 490.628C499.926 490.699 499.764 491.855 499.338 493.213C498.913 494.57 498.387 495.614 498.161 495.543Z" fill="black"/>
<path d="M501.802 516.572C501.587 516.478 502.056 514.919 502.85 513.09C503.644 511.26 504.464 509.854 504.68 509.948C504.896 510.041 504.428 511.6 503.632 513.43C502.837 515.259 502.018 516.666 501.802 516.572Z" fill="black"/>
<path d="M492.808 522.33C492.717 522.552 491.249 522.15 489.472 521.597C487.696 521.039 486.262 520.532 486.312 520.298C486.361 520.072 487.91 520.213 489.726 520.784C491.545 521.35 492.898 522.116 492.808 522.33Z" fill="black"/>
<path d="M497.994 539.476C498.131 539.667 497.139 540.609 495.777 541.581C494.416 542.553 493.202 543.184 493.065 542.993C492.928 542.801 493.921 541.859 495.282 540.887C496.642 539.917 497.857 539.284 497.994 539.476Z" fill="black"/>
<path d="M502.151 556.569C502.207 556.797 500.98 557.293 499.41 557.674C497.839 558.056 496.522 558.181 496.467 557.951C496.411 557.723 497.638 557.228 499.209 556.846C500.779 556.465 502.096 556.341 502.151 556.569Z" fill="black"/>
<path d="M524.721 514.581C524.839 514.778 523.79 515.615 522.262 516.188C520.735 516.766 519.394 516.83 519.353 516.604C519.307 516.367 520.511 515.941 521.962 515.39C523.416 514.848 524.601 514.373 524.721 514.581Z" fill="black"/>
<path d="M527.946 541.178C527.846 541.391 526.596 541.014 525.153 540.335C523.71 539.656 522.623 538.933 522.723 538.72C522.824 538.507 524.074 538.884 525.517 539.563C526.958 540.241 528.047 540.965 527.946 541.178Z" fill="black"/>
<path d="M533.639 560.208C533.554 560.426 531.902 559.985 529.951 559.22C527.999 558.455 526.488 557.657 526.574 557.439C526.659 557.22 528.311 557.661 530.262 558.427C532.212 559.191 533.725 559.989 533.639 560.208Z" fill="black"/>
<path d="M503.065 575.118C502.949 574.903 504.468 573.882 506.223 572.496C507.985 571.119 509.337 569.885 509.518 570.048C509.69 570.196 508.579 571.735 506.75 573.166C504.927 574.604 503.168 575.321 503.065 575.118Z" fill="black"/>
<path d="M518.111 565.441C517.87 565.469 517.543 564.191 516.962 562.704C516.393 561.213 515.775 560.046 515.973 559.905C516.153 559.765 517.139 560.789 517.757 562.397C518.381 564.002 518.338 565.423 518.111 565.441Z" fill="black"/>
<path d="M514.122 542.552C513.985 542.744 513.013 542.281 511.952 541.518C510.89 540.755 510.141 539.983 510.278 539.791C510.415 539.6 511.387 540.063 512.448 540.826C513.51 541.587 514.259 542.361 514.122 542.552Z" fill="black"/>
<path d="M549.201 506.682C549.341 506.872 548.393 507.807 547.086 508.771C545.779 509.736 544.605 510.363 544.465 510.174C544.325 509.986 545.271 509.051 546.58 508.085C547.887 507.122 549.061 506.493 549.201 506.682Z" fill="black"/>
<path d="M554.486 521.136C554.508 521.364 553.026 521.676 551.192 521.474C549.357 521.279 547.975 520.658 548.046 520.441C548.115 520.208 549.537 520.443 551.283 520.627C553.029 520.819 554.469 520.894 554.486 521.136Z" fill="black"/>
<path d="M531.764 524.375C531.815 524.599 530.442 525.091 528.669 525.207C526.895 525.328 525.47 525.022 525.49 524.793C525.509 524.553 526.908 524.474 528.612 524.356C530.316 524.247 531.714 524.14 531.764 524.375Z" fill="black"/>
<path d="M533.716 510.713C533.7 510.94 532.312 510.975 530.795 510.273C529.273 509.58 528.398 508.503 528.558 508.343C528.722 508.163 529.766 508.871 531.15 509.498C532.528 510.14 533.746 510.47 533.716 510.713Z" fill="black"/>
<path d="M556.437 536.65C556.312 536.849 554.891 536.18 553.265 535.157C551.637 534.132 550.421 533.141 550.546 532.941C550.671 532.742 552.092 533.411 553.718 534.435C555.346 535.459 556.563 536.45 556.437 536.65Z" fill="black"/>
<path d="M611.883 577.207H490.646V598.695H611.883V577.207Z" fill="#EC8305"/>
<path d="M499.701 594.432L514.444 658.643H586.701L602.83 594.432H499.701Z" fill="#EC8305"/>
<path d="M611.817 598.721C611.817 598.956 584.471 599.147 550.745 599.147C517.007 599.147 489.666 598.956 489.666 598.721C489.666 598.486 517.007 598.295 550.745 598.295C584.471 598.295 611.817 598.486 611.817 598.721Z" fill="black"/>
<path d="M544.395 524.845C544.195 524.97 543.367 524.003 542.545 522.688C541.722 521.371 541.217 520.204 541.417 520.079C541.616 519.954 542.444 520.919 543.267 522.236C544.089 523.553 544.594 524.72 544.395 524.845Z" fill="black"/>
<path d="M544.44 542.134C544.216 542.059 544.501 540.598 545.074 538.87C545.648 537.142 546.294 535.803 546.517 535.876C546.739 535.951 546.455 537.411 545.881 539.139C545.31 540.868 544.662 542.208 544.44 542.134Z" fill="black"/>
<path d="M550.356 560.282C550.145 560.384 549.238 558.933 548.333 557.042C547.427 555.15 546.865 553.535 547.078 553.433C547.29 553.331 548.197 554.782 549.102 556.674C550.006 558.565 550.568 560.18 550.356 560.282Z" fill="black"/>
<path d="M537.552 574.886C537.374 574.732 538.098 573.608 539.168 572.375C540.239 571.143 541.25 570.268 541.428 570.422C541.605 570.577 540.882 571.7 539.812 572.933C538.741 574.165 537.729 575.04 537.552 574.886Z" fill="black"/>
<path d="M534.863 548.372C534.822 548.604 533.655 548.592 532.258 548.345C530.86 548.098 529.759 547.711 529.8 547.479C529.841 547.247 531.007 547.259 532.406 547.506C533.804 547.753 534.905 548.14 534.863 548.372Z" fill="black"/>
</svg>
