<svg width="679" height="679" viewBox="0 0 679 679" fill="none" xmlns="http://www.w3.org/2000/svg">
<path d="M355.801 464.646L389.861 644.585L420.986 587.077L479.981 621.701L417.358 446.482L355.801 464.646Z" fill="#EC8305"/>
<g opacity="0.3">
<path d="M367.256 525.164C373.552 526.461 380.901 524.234 385.368 519.612C388.471 516.402 390.541 512.041 394.454 509.891C397.967 507.961 402.299 508.236 406.162 509.303C410.025 510.37 413.663 512.16 417.542 513.166C425.146 515.14 433.532 513.894 440.237 509.797L430.412 482.513L384.799 476.816L363.051 502.941L367.256 525.164Z" fill="black"/>
</g>
<path d="M418.767 579.931C418.578 579.98 413.505 561.292 407.439 538.195C401.37 515.089 396.606 496.324 396.794 496.275C396.983 496.227 402.054 514.91 408.123 538.016C414.19 561.112 418.955 579.88 418.767 579.931Z" fill="black"/>
<path d="M360.787 474.007L326.726 653.945L295.601 596.436L236.605 631.062L299.229 455.844L360.787 474.007Z" fill="#EC8305"/>
<g opacity="0.3">
<path d="M280.498 508.25C280.498 508.25 290.184 516.225 301.743 512.551C313.3 508.876 320.475 508.104 326.727 512.551C332.979 516.997 349.906 531.495 349.906 531.495L353.836 510.734L331.105 479.516L307.365 484.309L290.459 485.997L284.174 497.893L280.498 508.25Z" fill="black"/>
</g>
<path d="M560.477 311.573C560.477 324.483 543.975 335.605 541.562 347.806C539.075 360.379 550.02 376.951 545.223 388.519C540.343 400.289 520.837 404.246 513.833 414.707C506.776 425.249 510.54 444.775 501.601 453.712C492.664 462.649 473.138 458.885 462.596 465.942C452.135 472.946 448.178 492.451 436.408 497.332C424.84 502.129 408.268 491.184 395.696 493.671C383.494 496.085 372.373 512.587 359.463 512.587C346.552 512.587 335.431 496.085 323.229 493.671C310.657 491.184 294.085 502.128 282.517 497.332C270.747 492.452 266.79 472.946 256.329 465.942C245.787 458.885 226.261 462.649 217.324 453.711C208.387 444.774 212.151 425.247 205.094 414.706C198.091 404.244 178.585 400.287 173.704 388.517C168.907 376.95 179.851 360.377 177.365 347.805C174.951 335.603 158.449 324.482 158.449 311.572C158.449 298.662 174.951 287.54 177.365 275.339C179.851 262.767 168.907 246.194 173.704 234.626C178.584 222.856 198.089 218.899 205.094 208.438C212.151 197.896 208.387 178.37 217.325 169.433C226.262 160.496 245.788 164.26 256.33 157.203C266.791 150.199 270.748 130.694 282.518 125.813C294.086 121.016 310.659 131.961 323.231 129.474C335.432 127.061 346.554 110.559 359.464 110.559C372.374 110.559 383.495 127.061 395.697 129.474C408.269 131.961 424.842 121.017 436.409 125.813C448.179 130.693 452.136 150.199 462.598 157.203C473.139 164.26 492.666 160.496 501.603 169.433C510.54 178.37 506.776 197.896 513.833 208.438C520.836 218.899 540.341 222.856 545.223 234.626C550.02 246.194 539.075 262.767 541.562 275.339C543.975 287.542 560.477 298.663 560.477 311.573Z" fill="#EC8305"/>
<path d="M312.431 198.901C312.409 198.912 312.284 198.72 312.066 198.346C311.815 197.895 311.509 197.349 311.14 196.691C310.345 195.249 309.247 193.135 307.938 190.499C305.316 185.228 301.925 177.826 298.655 169.455C295.392 161.078 292.872 153.334 291.234 147.681C290.413 144.855 289.788 142.555 289.397 140.956C289.222 140.222 289.077 139.614 288.958 139.113C288.865 138.689 288.827 138.464 288.85 138.457C288.873 138.45 288.958 138.664 289.095 139.075C289.249 139.566 289.437 140.162 289.662 140.883C290.179 142.559 290.872 144.807 291.712 147.537C293.471 153.144 296.058 160.843 299.313 169.2C302.575 177.55 305.884 184.966 308.387 190.284C309.617 192.862 310.63 194.985 311.385 196.567C311.705 197.25 311.972 197.816 312.191 198.282C312.369 198.676 312.453 198.889 312.431 198.901Z" fill="black"/>
<path d="M330.318 192.097C330.27 192.109 330.089 191.576 329.799 190.6C329.508 189.625 329.123 188.204 328.676 186.442C327.78 182.917 326.669 178.014 325.665 172.556C324.663 167.095 323.959 162.116 323.545 158.503C323.337 156.696 323.192 155.232 323.118 154.218C323.042 153.204 323.023 152.64 323.071 152.635C323.12 152.629 323.231 153.182 323.391 154.185C323.568 155.337 323.783 156.759 324.04 158.436C324.58 162.027 325.361 166.98 326.36 172.427C327.362 177.873 328.392 182.78 329.161 186.327C329.518 187.987 329.821 189.392 330.066 190.532C330.273 191.528 330.365 192.085 330.318 192.097Z" fill="black"/>
<path d="M361.877 188.963C361.682 188.967 361.18 173.741 360.755 154.959C360.33 136.17 360.144 120.94 360.339 120.936C360.535 120.931 361.037 136.155 361.462 154.944C361.886 173.725 362.071 188.959 361.877 188.963Z" fill="black"/>
<path d="M393.632 157.676C393.818 157.734 391.627 165.348 388.739 174.679C385.849 184.014 383.355 191.532 383.169 191.475C382.983 191.418 385.174 183.806 388.064 174.47C390.953 165.138 393.445 157.618 393.632 157.676Z" fill="black"/>
<path d="M406.597 197.023C406.574 197.015 406.633 196.793 406.768 196.381C406.936 195.893 407.141 195.303 407.387 194.59C407.932 193.037 408.777 190.813 409.831 188.067C411.953 182.58 415.004 175.049 418.477 166.776C421.949 158.498 425.175 151.042 427.555 145.664C428.728 143.059 429.693 140.913 430.414 139.313C430.737 138.632 431.005 138.067 431.227 137.603C431.419 137.214 431.532 137.016 431.555 137.026C431.578 137.035 431.509 137.254 431.357 137.66C431.17 138.139 430.942 138.721 430.666 139.423C429.998 141.046 429.102 143.221 428.015 145.862C425.702 151.379 422.58 158.823 419.13 167.05C415.699 175.281 412.596 182.731 410.297 188.253C409.21 190.893 408.314 193.067 407.645 194.689C407.349 195.383 407.104 195.959 406.902 196.432C406.723 196.827 406.618 197.031 406.597 197.023Z" fill="black"/>
<path d="M423.564 205.871C423.524 205.844 423.802 205.354 424.338 204.489C424.873 203.623 425.679 202.392 426.699 200.887C428.738 197.875 431.664 193.788 435.077 189.41C438.493 185.032 441.746 181.199 444.17 178.488C445.382 177.132 446.38 176.052 447.09 175.322C447.797 174.59 448.205 174.202 448.242 174.234C448.279 174.267 447.939 174.718 447.296 175.504C446.552 176.401 445.634 177.507 444.55 178.814C442.226 181.604 439.043 185.478 435.635 189.844C432.23 194.211 429.248 198.241 427.107 201.175C426.104 202.544 425.254 203.705 424.565 204.644C423.96 205.46 423.605 205.898 423.564 205.871Z" fill="black"/>
<path d="M448.243 226.104C448.11 225.962 458.85 215.753 472.229 203.307C485.611 190.857 496.565 180.882 496.699 181.025C496.832 181.167 486.093 191.374 472.711 203.824C459.332 216.271 448.376 226.247 448.243 226.104Z" fill="black"/>
<path d="M491.359 230.32C491.402 230.418 489.811 231.215 487.267 232.549C484.721 233.88 481.25 235.799 477.423 237.948C473.594 240.098 470.068 241.957 467.455 243.176C466.149 243.786 465.082 244.26 464.331 244.556C463.583 244.857 463.16 245.002 463.14 244.957C463.096 244.861 464.687 244.063 467.231 242.728C469.777 241.398 473.248 239.479 477.077 237.329C480.905 235.18 484.432 233.32 487.043 232.1C488.349 231.491 489.416 231.017 490.167 230.721C490.916 230.421 491.338 230.276 491.359 230.32Z" fill="black"/>
<path d="M531.271 246.877C531.336 247.061 518.55 251.729 502.719 257.303C486.882 262.878 473.995 267.247 473.93 267.064C473.865 266.879 486.647 262.213 502.484 256.636C518.317 251.063 531.205 246.692 531.271 246.877Z" fill="black"/>
<path d="M543.974 319.451C543.955 319.645 530.062 318.482 512.946 316.853C495.823 315.223 481.963 313.745 481.98 313.55C481.999 313.356 495.89 314.52 513.012 316.15C530.129 317.779 543.992 319.257 543.974 319.451Z" fill="black"/>
<path d="M533.758 384.548C533.675 384.724 520.685 378.763 504.748 371.233C488.805 363.701 475.953 357.456 476.038 357.279C476.12 357.103 489.108 363.063 505.051 370.595C520.986 378.123 533.841 384.372 533.758 384.548Z" fill="black"/>
<path d="M491.026 446.483C490.877 446.609 481.508 435.742 470.102 422.214C458.693 408.682 449.567 397.614 449.717 397.487C449.866 397.361 459.233 408.226 470.642 421.758C482.049 435.287 491.176 446.358 491.026 446.483Z" fill="black"/>
<path d="M455.362 454.665C455.321 454.691 454.919 454.147 454.23 453.139C453.537 452.132 452.565 450.657 451.386 448.819C449.027 445.144 445.863 440.004 442.531 434.232C439.2 428.458 436.335 423.146 434.334 419.264C433.334 417.323 432.542 415.743 432.017 414.639C431.49 413.537 431.219 412.918 431.262 412.895C431.306 412.873 431.659 413.45 432.26 414.512C432.92 415.697 433.764 417.213 434.774 419.028C436.886 422.846 439.818 428.112 443.144 433.879C446.471 439.643 449.561 444.816 451.811 448.555C452.876 450.339 453.767 451.828 454.462 452.991C455.079 454.045 455.402 454.639 455.362 454.665Z" fill="black"/>
<path d="M433.202 485.815C433.18 485.825 433.059 485.634 432.849 485.258C432.607 484.806 432.314 484.259 431.961 483.599C431.198 482.155 430.148 480.036 428.899 477.396C426.397 472.117 423.183 464.702 420.125 456.324C417.075 447.939 414.764 440.194 413.283 434.543C412.541 431.717 411.982 429.42 411.637 427.824C411.484 427.092 411.356 426.484 411.25 425.983C411.169 425.561 411.139 425.336 411.162 425.33C411.186 425.325 411.262 425.538 411.389 425.949C411.53 426.442 411.699 427.038 411.904 427.757C412.374 429.435 413.002 431.683 413.765 434.41C415.367 440.017 417.745 447.719 420.789 456.081C423.839 464.438 426.971 471.863 429.352 477.187C430.524 479.766 431.488 481.892 432.208 483.478C432.514 484.161 432.768 484.727 432.977 485.194C433.145 485.591 433.224 485.804 433.202 485.815Z" fill="black"/>
<path d="M388.324 463.977C388.219 463.983 388.052 462.171 387.737 459.251C387.424 456.331 386.931 452.306 386.194 447.891C385.453 443.474 384.609 439.507 383.956 436.645C383.303 433.782 382.871 432.013 382.972 431.985C383.019 431.971 383.185 432.397 383.445 433.179C383.709 433.961 384.051 435.103 384.44 436.524C385.221 439.365 386.146 443.337 386.892 447.774C387.631 452.211 388.048 456.267 388.236 459.207C388.331 460.677 388.379 461.869 388.383 462.693C388.39 463.518 388.373 463.975 388.324 463.977Z" fill="black"/>
<path d="M358.966 503.05C358.941 503.05 358.921 502.81 358.906 502.354C358.898 501.816 358.887 501.158 358.875 500.359C358.857 498.625 358.868 496.118 358.925 493.02C359.028 486.824 359.312 478.267 359.809 468.826C360.299 459.381 360.907 450.842 361.406 444.666C361.659 441.578 361.884 439.081 362.061 437.358C362.15 436.563 362.224 435.908 362.283 435.374C362.342 434.921 362.387 434.685 362.411 434.688C362.435 434.689 362.439 434.931 362.426 435.387C362.401 435.923 362.372 436.581 362.335 437.381C362.228 439.216 362.081 441.692 361.905 444.704C361.544 450.984 361.055 459.478 360.515 468.866C360.019 478.301 359.657 486.848 359.425 493.037C359.312 496.051 359.218 498.529 359.15 500.367C359.11 501.165 359.077 501.823 359.05 502.359C359.019 502.811 358.99 503.05 358.966 503.05Z" fill="black"/>
<path d="M335.101 434.686C335.195 434.703 335.048 436.027 334.694 438.15C334.341 440.271 333.77 443.19 333.022 446.385C332.272 449.582 331.488 452.45 330.861 454.508C330.235 456.567 329.777 457.817 329.686 457.791C329.59 457.764 329.878 456.464 330.379 454.378C330.938 452.047 331.6 449.282 332.333 446.225C333.035 443.161 333.669 440.391 334.204 438.053C334.682 435.96 335.002 434.668 335.101 434.686Z" fill="black"/>
<path d="M291.953 413.954C292.109 414.072 289.45 417.84 286.014 422.37C282.579 426.901 279.667 430.476 279.512 430.358C279.356 430.24 282.015 426.473 285.452 421.942C288.885 417.413 291.797 413.836 291.953 413.954Z" fill="black"/>
<path d="M269.317 398.745C269.464 398.874 261.041 408.766 250.505 420.836C239.966 432.911 231.305 442.592 231.158 442.463C231.012 442.334 239.433 432.446 249.973 420.372C260.508 408.3 269.169 398.616 269.317 398.745Z" fill="black"/>
<path d="M257.988 381.911C258.112 382.061 253.426 386.128 247.522 390.994C241.615 395.862 236.729 399.684 236.604 399.534C236.48 399.383 241.165 395.316 247.071 390.449C252.976 385.582 257.864 381.76 257.988 381.911Z" fill="black"/>
<path d="M244.737 356.51C244.823 356.686 233.089 362.515 218.535 369.529C203.976 376.545 192.108 382.089 192.024 381.912C191.94 381.736 203.669 375.909 218.228 368.892C232.783 361.878 244.653 356.335 244.737 356.51Z" fill="black"/>
<path d="M239.413 343.839C239.422 343.886 238.988 344.012 238.194 344.2C237.401 344.39 236.246 344.627 234.812 344.892C231.947 345.424 227.962 346.028 223.535 346.473C219.106 346.914 215.08 347.111 212.166 347.159C210.708 347.183 209.53 347.179 208.714 347.149C207.899 347.123 207.449 347.085 207.447 347.037C207.446 346.933 209.244 346.834 212.145 346.659C215.047 346.484 219.052 346.21 223.463 345.77C227.873 345.328 231.852 344.802 234.731 344.399C237.611 343.996 239.394 343.737 239.413 343.839Z" fill="black"/>
<path d="M235.115 314.595C235.111 314.644 234.265 314.622 232.74 314.543C231.098 314.459 228.921 314.346 226.284 314.212C220.834 313.947 213.299 313.699 204.975 313.74C196.649 313.787 189.117 314.117 183.67 314.44C181.035 314.604 178.859 314.739 177.218 314.84C175.695 314.937 174.849 314.967 174.844 314.918C174.84 314.869 175.676 314.747 177.193 314.566C178.711 314.382 180.911 314.164 183.634 313.94C189.08 313.49 196.626 313.08 204.97 313.031C213.311 312.989 220.861 313.319 226.311 313.711C229.037 313.905 231.24 314.099 232.759 314.268C234.282 314.433 235.119 314.546 235.115 314.595Z" fill="black"/>
<path d="M237.781 288.908C237.728 289.096 228.939 286.808 218.151 283.797C207.36 280.786 198.658 278.194 198.709 278.005C198.762 277.816 207.55 280.105 218.341 283.116C229.129 286.126 237.834 288.72 237.781 288.908Z" fill="black"/>
<path d="M243.46 267.373C243.452 267.396 243.232 267.346 242.82 267.229C242.33 267.081 241.738 266.901 241.024 266.685C239.467 266.204 237.235 265.444 234.497 264.448C229.022 262.459 221.557 259.415 213.574 255.489C205.594 251.553 198.63 247.491 193.714 244.363C191.256 242.8 189.293 241.494 187.963 240.554C187.356 240.119 186.854 239.76 186.437 239.462C186.093 239.207 185.919 239.062 185.932 239.042C185.946 239.021 186.147 239.126 186.516 239.344C186.952 239.612 187.478 239.935 188.114 240.324C189.489 241.194 191.49 242.434 193.976 243.938C198.948 246.951 205.93 250.931 213.885 254.854C221.844 258.767 229.254 261.876 234.673 263.98C237.382 265.034 239.584 265.865 241.112 266.424C241.808 266.69 242.385 266.912 242.863 267.094C243.264 267.255 243.468 267.35 243.46 267.373Z" fill="black"/>
<path d="M256.238 245.723C256.126 245.884 249.254 241.237 240.892 235.349C232.526 229.458 225.838 224.555 225.951 224.395C226.063 224.234 232.933 228.879 241.299 234.771C249.662 240.66 256.351 245.565 256.238 245.723Z" fill="black"/>
<path d="M229.234 179.744C229.25 179.726 229.426 179.856 229.748 180.12C230.127 180.444 230.582 180.834 231.129 181.302C232.395 182.425 234.082 183.92 236.128 185.733C240.416 189.559 246.189 194.709 252.57 200.402C258.978 206.068 264.774 211.195 269.08 215.001C271.122 216.818 272.806 218.317 274.07 219.442C274.599 219.93 275.039 220.335 275.406 220.673C275.706 220.961 275.856 221.121 275.84 221.139C275.824 221.158 275.643 221.035 275.312 220.782C274.922 220.471 274.453 220.099 273.889 219.651C272.662 218.658 270.907 217.2 268.752 215.38C264.441 211.74 258.537 206.649 252.099 200.931C245.664 195.214 239.911 189.955 235.789 186.103C233.728 184.177 232.071 182.605 230.94 181.506C230.428 180.999 230.003 180.577 229.649 180.226C229.361 179.927 229.217 179.761 229.234 179.744Z" fill="black"/>
<path d="M271.576 180.977C271.614 180.945 271.941 181.282 272.499 181.916C273.059 182.548 273.84 183.488 274.785 184.666C276.675 187.021 279.189 190.355 281.791 194.158C284.393 197.964 286.588 201.517 288.097 204.132C288.853 205.44 289.444 206.509 289.831 207.26C290.219 208.011 290.414 208.437 290.372 208.46C290.283 208.511 289.286 206.933 287.671 204.392C286.056 201.848 283.801 198.351 281.208 194.557C278.614 190.766 276.174 187.397 274.389 184.97C272.605 182.542 271.496 181.042 271.576 180.977Z" fill="black"/>
<g opacity="0.2">
<path d="M217.326 169.434L276.377 221.139L291.056 209.393L256.788 156.885C256.788 156.885 254.163 158.816 247.34 160.766C240.73 162.655 221.268 163.16 217.326 169.434Z" fill="black"/>
</g>
<g opacity="0.2">
<path d="M283.057 125.697L311.895 197.873L330.319 192.1L324.179 129.501C324.179 129.501 321.005 130.243 313.966 129.348C307.146 128.481 290.593 122.009 283.057 125.697Z" fill="black"/>
</g>
<g opacity="0.3">
<path d="M359.943 110.583L361.878 188.962L379.151 189.791L396.638 129.635C396.305 129.605 391.792 128.825 386.47 125.423C380.488 121.602 368.309 109.96 359.943 110.583Z" fill="black"/>
</g>
<g opacity="0.2">
<path d="M435.252 125.391L406.596 197.648L422.198 205.107L461.632 156.429C461.336 156.273 457.599 153.16 454.143 147.623C450.385 141.601 443.981 127.803 435.252 125.391Z" fill="black"/>
</g>
<g opacity="0.2">
<path d="M502.549 170.48L449.174 226.103L461.07 242.134L513.221 207.326C513.221 207.326 511.031 203.854 509.791 197.171C508.536 190.411 508.354 178.094 502.549 170.48Z" fill="black"/>
</g>
<g opacity="0.2">
<path d="M544.681 233.271L472.807 262.853L478.77 281.216L541.302 274.431C541.302 274.431 540.911 272.498 541.733 265.449C542.53 258.62 549.701 243.368 544.681 233.271Z" fill="black"/>
</g>
<g opacity="0.2">
<path d="M560.588 311.574L482.234 314.318L481.582 331.597L541.355 349.085C541.381 348.751 541.914 345.375 543.725 341.95C548.126 333.628 560.588 321.895 560.588 311.574Z" fill="black"/>
</g>
<g opacity="0.2">
<path d="M546.154 385.667L474.008 357.547L466.711 373.225L515.793 412.154C515.947 411.856 518.813 409.2 524.314 405.687C530.298 401.867 544.494 395.697 546.154 385.667Z" fill="black"/>
</g>
<g opacity="0.2">
<path d="M440.038 384.547L422.182 399.534C423.534 400.948 447.334 441.396 461.997 466.402C462.199 466.254 462.388 466.082 462.594 465.942C472.253 459.475 489.435 462.068 499.123 455.673L440.038 384.547Z" fill="black"/>
<path d="M407.225 412.895L380.562 421.985L393.186 494.367C394.018 494.077 394.855 493.838 395.696 493.671C408.268 491.184 424.841 502.129 436.409 497.332C438 496.672 439.437 495.729 440.778 494.602L407.225 412.895Z" fill="black"/>
<path d="M358.538 512.55L362.799 417.992L339.748 412.152L322.596 493.566C322.807 493.6 323.021 493.629 323.231 493.67C335.139 496.026 346.02 511.795 358.538 512.55Z" fill="black"/>
<path d="M300.576 401.939C300.576 401.939 270.114 442.739 254.189 464.712C254.935 465.083 255.651 465.489 256.329 465.942C266.79 472.946 270.747 492.452 282.517 497.332C283.057 497.556 283.611 497.735 284.172 497.894L326.725 417.347L300.576 401.939Z" fill="black"/>
<path d="M269.317 369.088L204.352 413.74C204.6 414.061 204.871 414.371 205.095 414.706C212.153 425.248 208.388 444.774 217.326 453.711C218.148 454.534 219.085 455.218 220.072 455.843C243.028 429.967 284.239 383.525 285.732 381.911L269.317 369.088Z" fill="black"/>
<path d="M254.43 337.209L177.622 349.614C178.845 361.934 169.134 377.497 173.704 388.517C173.984 389.192 174.323 389.833 174.694 390.458C201.573 377.076 257.734 349.237 260.07 349.084L254.43 337.209Z" fill="black"/>
<path d="M250.237 294.425L177.628 273.471C177.567 274.102 177.487 274.728 177.365 275.341C174.951 287.543 158.449 298.664 158.449 311.574C158.449 312.44 158.529 313.298 158.668 314.149H247.296L250.237 294.425Z" fill="black"/>
<path d="M173.998 234.05C201.13 248.592 254.191 278.006 254.191 278.006L267.249 253.207L205.912 207.027C205.65 207.507 205.395 207.992 205.093 208.44C198.21 218.723 179.277 222.739 173.998 234.05Z" fill="black"/>
</g>
<path d="M560.476 311.574C560.476 311.574 560.442 311.284 560.391 310.714C560.318 310.147 560.343 309.282 560.032 308.19C559.606 305.974 558.366 302.791 555.964 299.09C553.634 295.339 550.1 291.154 546.416 285.843C544.621 283.173 542.753 280.158 541.755 276.539C540.76 272.915 540.95 268.835 541.731 264.72C542.48 260.582 543.714 256.319 544.793 251.798C545.791 247.301 546.866 242.388 545.863 237.389C545.329 234.92 544.156 232.565 542.49 230.519C540.805 228.48 538.689 226.767 536.453 225.162C531.948 221.965 526.772 219.405 521.814 216.07C519.348 214.395 516.9 212.53 514.887 210.149C512.852 207.775 511.534 204.814 510.645 201.752C508.899 195.58 508.515 188.973 507.189 182.375C506.513 179.091 505.599 175.754 503.846 172.794C502.13 169.811 499.354 167.503 496.114 166.105C492.881 164.67 489.327 163.926 485.734 163.331C482.131 162.739 478.449 162.319 474.746 161.662C471.059 161 467.279 160.126 463.865 158.236C460.431 156.36 457.747 153.344 455.498 150.133C453.245 146.895 451.308 143.42 449.244 139.99C447.178 136.571 445.006 133.133 442.188 130.21C439.375 127.315 435.621 125.231 431.483 124.96C427.362 124.653 423.186 125.441 419.071 126.417C414.944 127.408 410.814 128.614 406.534 129.417C402.29 130.245 397.727 130.537 393.425 129.172C389.187 127.7 385.451 125.131 381.843 122.484C378.229 119.825 374.699 116.992 370.827 114.641C366.976 112.366 362.58 110.469 358.007 110.982L357.158 111.048C356.879 111.095 356.602 111.168 356.323 111.227C355.77 111.358 355.206 111.46 354.658 111.615C353.583 112.011 352.479 112.333 351.453 112.869C349.345 113.806 347.382 115.075 345.436 116.362C341.57 118.998 337.925 122.025 333.966 124.714C332.007 126.086 329.91 127.29 327.719 128.326C325.502 129.325 323.094 129.928 320.65 130.112C315.736 130.353 310.905 129.244 306.17 128.049C301.423 126.86 296.675 125.497 291.778 125.027C289.334 124.823 286.86 124.926 284.49 125.517C282.102 126.092 279.985 127.448 278.106 129.025C274.362 132.292 271.745 136.688 269.143 141.01C266.548 145.356 264.083 149.888 260.635 153.789C258.896 155.705 256.884 157.452 254.528 158.634C252.173 159.79 249.662 160.564 247.121 161.164C242.018 162.284 236.806 162.763 231.669 163.693C226.59 164.616 221.304 166.06 217.537 169.71C215.725 171.571 214.456 173.901 213.525 176.348C212.573 178.8 212.028 181.407 211.546 184.02C210.594 189.257 210.156 194.635 208.887 199.922C208.283 202.565 207.375 205.182 205.998 207.57C204.619 209.956 202.708 212.026 200.558 213.725C196.268 217.173 191.39 219.725 186.73 222.578C184.406 224.016 182.111 225.512 179.999 227.24C177.919 228.992 176.03 231.004 174.735 233.379C173.422 235.741 172.822 238.467 172.844 241.202C172.834 243.938 173.244 246.679 173.797 249.392C174.945 254.818 176.667 260.162 177.586 265.741C178.066 268.52 178.238 271.395 177.866 274.234C177.501 277.083 176.4 279.791 175.03 282.282C172.203 287.244 168.511 291.593 165.238 296.212C163.585 298.51 162.059 300.906 160.861 303.455C159.67 305.996 158.827 308.735 158.807 311.542C158.824 314.349 159.648 317.093 160.835 319.638C162.025 322.193 163.555 324.587 165.206 326.888C168.476 331.511 172.173 335.857 175.005 340.819C176.378 343.308 177.486 346.012 177.862 348.863C178.243 351.702 178.074 354.58 177.595 357.36C176.682 362.942 174.956 368.288 173.807 373.715C173.255 376.429 172.84 379.169 172.844 381.907C172.814 384.644 173.418 387.369 174.72 389.737C176.008 392.116 177.896 394.132 179.974 395.887C182.088 397.614 184.379 399.115 186.704 400.553C191.367 403.407 196.245 405.96 200.539 409.404C202.687 411.105 204.604 413.17 205.987 415.555C207.369 417.941 208.276 420.559 208.883 423.201C210.156 428.488 210.593 433.869 211.543 439.105C212.024 441.72 212.571 444.327 213.521 446.78C214.452 449.228 215.714 451.562 217.529 453.423C221.292 457.08 226.579 458.526 231.658 459.45C236.796 460.381 242.01 460.86 247.114 461.979C249.656 462.578 252.166 463.351 254.523 464.506C256.879 465.69 258.892 467.436 260.632 469.351C264.081 473.252 266.546 477.786 269.143 482.132C271.747 486.454 274.364 490.851 278.107 494.119C279.986 495.697 282.104 497.053 284.493 497.628C286.863 498.22 289.338 498.323 291.782 498.118C296.679 497.647 301.429 496.285 306.176 495.095C310.912 493.901 315.743 492.792 320.658 493.034C323.102 493.219 325.51 493.824 327.727 494.823C329.918 495.86 332.015 497.064 333.974 498.436C337.933 501.126 341.578 504.153 345.445 506.789C347.392 508.076 349.355 509.345 351.464 510.281C352.49 510.818 353.595 511.139 354.67 511.535C355.22 511.688 355.782 511.791 356.336 511.923C356.614 511.981 356.891 512.056 357.17 512.102L358.019 512.167C362.593 512.679 366.989 510.777 370.839 508.504C374.711 506.15 378.241 503.319 381.855 500.658C385.464 498.012 389.2 495.44 393.44 493.973C397.743 492.609 402.305 492.905 406.55 493.734C410.83 494.538 414.96 495.744 419.087 496.735C423.204 497.71 427.379 498.497 431.5 498.189C435.638 497.911 439.391 495.827 442.202 492.928C445.019 490.004 447.191 486.564 449.255 483.145C451.318 479.715 453.255 476.241 455.509 473.002C457.761 469.792 460.446 466.777 463.882 464.904C467.298 463.017 471.079 462.147 474.765 461.485C478.468 460.828 482.15 460.408 485.753 459.817C489.346 459.219 492.9 458.475 496.132 457.038C499.37 455.637 502.145 453.326 503.858 450.341C505.609 447.38 506.521 444.044 507.196 440.759C508.521 434.16 508.905 427.553 510.653 421.383C511.541 418.321 512.863 415.362 514.9 412.989C516.915 410.61 519.363 408.746 521.83 407.072C526.79 403.738 531.964 401.177 536.468 397.98C538.704 396.374 540.817 394.659 542.502 392.621C544.167 390.574 545.337 388.218 545.868 385.749C546.446 383.278 546.297 380.758 546.076 378.352C545.837 375.932 545.295 373.608 544.794 371.341C543.714 366.821 542.481 362.559 541.732 358.422C540.953 354.307 540.766 350.227 541.761 346.604C542.76 342.987 544.627 339.972 546.423 337.302C550.107 331.992 553.641 327.808 555.97 324.058C558.371 320.356 559.612 317.174 560.037 314.959C560.347 313.866 560.322 313.002 560.394 312.436C560.442 311.863 560.476 311.574 560.476 311.574C560.476 311.574 560.466 311.863 560.428 312.434C560.366 313.003 560.404 313.872 560.104 314.971C559.701 317.2 558.476 320.408 556.088 324.131C553.771 327.903 550.25 332.11 546.594 337.417C544.813 340.084 542.966 343.091 541.993 346.664C541.022 350.239 541.214 354.275 542.001 358.37C542.757 362.487 543.998 366.74 545.09 371.268C545.597 373.542 546.145 375.872 546.393 378.314C546.621 380.741 546.78 383.29 546.197 385.815C545.66 388.337 544.464 390.756 542.772 392.841C541.061 394.918 538.926 396.655 536.677 398.276C532.147 401.501 526.97 404.074 522.047 407.397C519.6 409.063 517.181 410.914 515.211 413.248C513.223 415.571 511.933 418.465 511.058 421.497C509.334 427.604 508.956 434.202 507.634 440.846C506.958 444.154 506.043 447.536 504.253 450.574C502.503 453.639 499.624 456.042 496.323 457.47C493.026 458.94 489.438 459.692 485.83 460.296C482.213 460.896 478.532 461.319 474.852 461.976C471.187 462.637 467.452 463.509 464.128 465.352C460.792 467.174 458.166 470.117 455.936 473.302C453.706 476.511 451.776 479.978 449.711 483.419C447.643 486.851 445.46 490.321 442.589 493.309C439.736 496.274 435.806 498.459 431.548 498.743C427.315 499.063 423.091 498.261 418.954 497.286C414.81 496.294 410.683 495.094 406.444 494.301C402.232 493.481 397.78 493.21 393.622 494.531C389.5 495.96 385.801 498.497 382.208 501.139C378.607 503.792 375.069 506.636 371.15 509.022C370.14 509.568 369.177 510.201 368.111 510.655C367.586 510.894 367.07 511.159 366.535 511.379L364.893 511.961C362.68 512.633 360.313 513.085 357.962 512.778L357.08 512.709C356.789 512.663 356.504 512.586 356.216 512.526C355.643 512.391 355.061 512.284 354.494 512.125C353.39 511.721 352.251 511.388 351.205 510.843C349.048 509.886 347.062 508.602 345.095 507.304C341.197 504.649 337.545 501.62 333.62 498.957C331.676 497.596 329.611 496.415 327.468 495.401C325.301 494.428 322.99 493.852 320.616 493.67C315.838 493.437 311.056 494.525 306.332 495.721C301.597 496.908 296.826 498.285 291.836 498.767C289.344 498.976 286.792 498.877 284.322 498.261C281.827 497.66 279.611 496.245 277.676 494.618C273.817 491.246 271.186 486.803 268.57 482.472C265.971 478.12 263.509 473.612 260.133 469.799C258.428 467.926 256.492 466.251 254.216 465.106C251.931 463.988 249.47 463.228 246.963 462.637C241.92 461.532 236.715 461.053 231.534 460.118C228.952 459.618 226.346 459.085 223.859 458.101C221.378 457.141 218.983 455.811 217.041 453.904C215.138 451.953 213.83 449.529 212.875 447.02C211.902 444.504 211.349 441.862 210.863 439.226C209.905 433.947 209.465 428.576 208.207 423.362C207.608 420.755 206.718 418.201 205.385 415.902C204.052 413.605 202.21 411.613 200.096 409.94C195.884 406.56 191.023 404.011 186.336 401.146C183.996 399.699 181.679 398.184 179.523 396.423C177.402 394.632 175.447 392.555 174.099 390.067C172.735 387.591 172.108 384.721 172.139 381.913C172.134 379.096 172.559 376.309 173.117 373.569C174.277 368.094 175.998 362.753 176.897 357.247C177.369 354.504 177.528 351.697 177.162 348.958C176.801 346.216 175.736 343.608 174.387 341.161C171.607 336.286 167.923 331.948 164.629 327.294C162.967 324.978 161.414 322.55 160.194 319.934C158.979 317.328 158.117 314.483 158.1 311.54C158.121 308.595 159.001 305.756 160.22 303.155C161.447 300.545 162.997 298.116 164.661 295.803C167.958 291.154 171.637 286.815 174.413 281.939C175.758 279.49 176.815 276.881 177.167 274.139C177.525 271.401 177.364 268.594 176.89 265.852C175.986 260.349 174.266 255.009 173.108 249.536C172.552 246.796 172.131 244.009 172.142 241.194C172.117 238.387 172.742 235.516 174.117 233.045C175.472 230.563 177.429 228.489 179.552 226.701C181.706 224.939 184.026 223.428 186.365 221.982C191.049 219.117 195.91 216.569 200.118 213.187C202.231 211.516 204.069 209.519 205.398 207.221C206.726 204.919 207.618 202.367 208.213 199.759C209.468 194.547 209.909 189.177 210.867 183.899C211.354 181.265 211.907 178.623 212.882 176.108C213.837 173.599 215.15 171.179 217.051 169.228C218.997 167.324 221.392 165.998 223.874 165.04C226.361 164.058 228.965 163.523 231.547 163.025C236.727 162.09 241.93 161.612 246.973 160.506C249.48 159.915 251.939 159.155 254.223 158.035C256.499 156.892 258.432 155.215 260.137 153.343C263.511 149.531 265.974 145.023 268.572 140.672C271.186 136.34 273.818 131.899 277.676 128.528C279.611 126.902 281.827 125.488 284.322 124.886C286.791 124.27 289.343 124.171 291.835 124.38C296.823 124.862 301.594 126.24 306.328 127.426C311.051 128.622 315.832 129.71 320.61 129.478C322.983 129.296 325.295 128.722 327.461 127.749C329.603 126.736 331.668 125.556 333.613 124.194C337.538 121.531 341.188 118.504 345.087 115.849C347.052 114.55 349.038 113.267 351.195 112.31C352.242 111.764 353.379 111.43 354.483 111.026C355.049 110.866 355.631 110.76 356.204 110.624C356.492 110.563 356.778 110.488 357.067 110.439L357.95 110.37C360.301 110.062 362.668 110.514 364.881 111.183L366.523 111.766C367.059 111.984 367.574 112.249 368.1 112.488C369.166 112.943 370.131 113.574 371.139 114.119C375.06 116.504 378.596 119.348 382.197 122.002C385.789 124.645 389.487 127.18 393.608 128.612C397.765 129.934 402.217 129.667 406.429 128.847C410.668 128.054 414.795 126.856 418.939 125.862C423.075 124.888 427.299 124.084 431.532 124.402C435.79 124.677 439.719 126.864 442.577 129.823C445.449 132.809 447.633 136.28 449.702 139.712C451.766 143.153 453.697 146.62 455.925 149.829C458.153 153.016 460.778 155.96 464.112 157.784C467.435 159.629 471.169 160.504 474.833 161.166C478.513 161.823 482.195 162.246 485.811 162.845C489.419 163.449 493.007 164.199 496.305 165.667C499.606 167.092 502.49 169.492 504.242 172.554C506.035 175.591 506.951 178.973 507.627 182.28C508.952 188.923 509.328 195.52 511.049 201.63C511.926 204.662 513.213 207.557 515.199 209.881C517.169 212.217 519.586 214.069 522.032 215.737C526.954 219.061 532.133 221.632 536.662 224.857C538.911 226.478 541.048 228.213 542.758 230.291C544.452 232.375 545.651 234.792 546.188 237.314C546.775 239.839 546.616 242.39 546.389 244.817C546.142 247.259 545.595 249.591 545.088 251.863C543.995 256.393 542.754 260.645 541.998 264.762C541.211 268.858 541.017 272.893 541.987 276.47C542.96 280.044 544.807 283.051 546.587 285.719C550.243 291.028 553.765 295.235 556.082 299.008C558.47 302.731 559.697 305.94 560.1 308.169C560.4 309.269 560.362 310.137 560.423 310.706C560.467 311.284 560.476 311.574 560.476 311.574Z" fill="black"/>
<path d="M321.761 498.109C321.95 498.157 316.939 518.472 310.571 543.476C304.2 568.489 298.883 588.721 298.695 588.672C298.506 588.624 303.515 568.314 309.885 543.301C316.254 518.298 321.572 498.062 321.761 498.109Z" fill="black"/>
<path d="M359.462 434.792C427.514 434.792 482.681 379.625 482.681 311.573C482.681 243.521 427.514 188.354 359.462 188.354C291.409 188.354 236.242 243.521 236.242 311.573C236.242 379.625 291.409 434.792 359.462 434.792Z" fill="white"/>
<path d="M283.591 268.878C281.891 270.577 272.547 287.567 271.697 301.583C270.848 315.6 272.862 394.318 272.862 394.318L273.226 399.534C295.41 425.476 376.034 464.077 448.659 399.404L452.728 350.988L440.745 248.491L399.121 238.297L389.36 222.477L324.306 237.707L318.505 251.423L283.591 268.878Z" fill="#1D4D8A"/>
<path d="M384.847 181.263C387.712 170.614 390.529 159.889 391.52 148.906C392.51 137.924 391.594 126.576 387.226 116.451C386.563 114.916 381.064 104.674 379.411 104.922C378.229 105.102 381.788 114.736 381.241 115.799C376.018 125.935 375.07 137.85 376.57 149.152C378.07 160.456 380.957 170.546 384.847 181.263Z" fill="black"/>
<path d="M383.768 139.191C383.242 111.541 366.713 88.8006 339.089 90.0914L336.542 90.3589C310.921 93.0601 291.66 114.975 292.292 140.732C292.88 164.694 293.839 191.163 295.34 203.895C298.447 230.248 325.275 231.571 325.275 231.571C325.334 231.568 326.504 248.903 326.504 248.903L337.841 261.219L390.388 228.672L383.768 139.191Z" fill="#FFBF9D"/>
<path d="M325.275 231.773C325.275 231.773 342.012 230.995 358.564 217.992C358.564 217.992 353.021 241.896 326.437 242.295L325.275 231.773Z" fill="#FF9A6C"/>
<path d="M307.471 162.228C307.61 164.224 309.418 165.754 311.506 165.647C313.591 165.54 315.172 163.838 315.032 161.839C314.892 159.843 313.087 158.31 311.002 158.417C308.913 158.525 307.332 160.231 307.471 162.228Z" fill="black"/>
<path d="M299.089 151.089C299.607 151.531 302.239 149.117 306.296 148.7C310.341 148.225 313.538 149.997 313.926 149.455C314.119 149.213 313.549 148.375 312.155 147.568C310.78 146.763 308.507 146.079 305.983 146.356C303.459 146.637 301.431 147.789 300.31 148.871C299.163 149.959 298.835 150.893 299.089 151.089Z" fill="black"/>
<path d="M343.298 159.183C343.437 161.179 345.244 162.709 347.333 162.602C349.418 162.495 350.999 160.792 350.86 158.794C350.72 156.798 348.913 155.266 346.828 155.372C344.739 155.481 343.159 157.186 343.298 159.183Z" fill="black"/>
<path d="M338.983 148.542C339.503 148.983 342.139 146.57 346.194 146.153C350.239 145.679 353.436 147.451 353.824 146.908C354.015 146.665 353.452 145.829 352.051 145.022C350.677 144.216 348.404 143.532 345.879 143.809C343.354 144.09 341.328 145.243 340.206 146.324C339.063 147.413 338.732 148.347 338.983 148.542Z" fill="black"/>
<path d="M327.72 181.239C327.714 181.007 325.148 180.836 321.007 180.745C319.961 180.748 318.959 180.644 318.709 179.956C318.386 179.234 318.703 178.072 319.077 176.814C319.787 174.206 320.53 171.471 321.307 168.606C324.378 156.931 326.483 147.374 326.012 147.255C325.54 147.136 322.67 156.502 319.601 168.177C318.87 171.053 318.169 173.795 317.504 176.419C317.237 177.636 316.703 179.043 317.395 180.54C317.755 181.285 318.575 181.766 319.258 181.876C319.943 182.007 320.527 181.958 321.043 181.934C325.177 181.721 327.729 181.471 327.72 181.239Z" fill="black"/>
<path d="M339.952 182.785C339.289 182.817 339.743 187.22 336.305 190.741C332.875 194.272 328.131 194.272 328.161 194.891C328.13 195.173 329.296 195.636 331.283 195.481C333.232 195.343 336.004 194.418 338.108 192.266C340.204 190.106 340.923 187.447 340.882 185.625C340.857 183.767 340.25 182.728 339.952 182.785Z" fill="black"/>
<path d="M337.472 132.062C337.988 133.124 341.982 132.174 346.8 132.246C351.62 132.221 355.604 133.209 356.131 132.155C356.361 131.652 355.584 130.685 353.919 129.781C352.27 128.877 349.71 128.122 346.819 128.106C343.93 128.095 341.362 128.824 339.703 129.711C338.032 130.598 337.245 131.557 337.472 132.062Z" fill="black"/>
<path d="M299.341 137.433C300.151 138.279 302.844 137.029 306.198 136.63C309.538 136.114 312.467 136.594 313.021 135.561C313.258 135.065 312.712 134.189 311.378 133.448C310.061 132.708 307.937 132.214 305.636 132.528C303.336 132.844 301.424 133.889 300.355 134.957C299.269 136.027 298.98 137.016 299.341 137.433Z" fill="black"/>
<path d="M383.672 158.958C384.101 158.716 401.239 151.683 402.564 169.786C403.889 187.888 385.442 185.484 385.373 184.968C385.303 184.451 383.672 158.958 383.672 158.958Z" fill="#FFBF9D"/>
<path d="M390.401 177.706C390.475 177.643 390.733 177.903 391.283 178.108C391.821 178.309 392.726 178.407 393.644 177.985C395.505 177.143 396.893 173.99 396.741 170.72C396.666 169.069 396.206 167.526 395.528 166.27C394.877 164.986 393.953 164.124 392.978 164.022C392.004 163.872 391.364 164.498 391.181 165.023C390.976 165.547 391.117 165.9 391.022 165.938C390.975 165.987 390.612 165.664 390.702 164.905C390.751 164.54 390.931 164.097 391.332 163.718C391.74 163.334 392.366 163.106 393.042 163.131C394.446 163.125 395.796 164.317 396.542 165.696C397.366 167.077 397.921 168.807 398.005 170.663C398.156 174.318 396.538 177.869 393.976 178.817C392.727 179.243 391.637 178.936 391.058 178.549C390.465 178.141 390.34 177.743 390.401 177.706Z" fill="#FF9A6C"/>
<path d="M302.08 109.97C299.045 108.542 307.232 98.482 314.225 94.7491C324.795 89.1078 341.225 84.9962 351.447 87.1979C363.754 89.8462 374.183 95.2147 380.959 105.824C387.735 116.434 390.841 129.105 391.297 141.685C391.435 145.524 391.295 149.545 389.457 152.916C387.185 157.084 382.493 159.919 383.061 165.429C383.269 167.443 382.824 169.517 381.536 171.08C378.449 174.819 374.181 171.767 372.103 168.566C367.664 161.727 366.676 153.286 365.803 145.181C365.182 139.42 364.568 133.534 365.84 127.881C366.531 124.805 367.772 121.86 368.291 118.751C368.811 115.641 368.495 112.17 366.426 109.79C366.09 109.404 365.544 108.923 364.859 108.396C359.44 104.231 352.172 103.347 345.889 106.036C335.922 110.301 318.849 116.812 314.077 113.643C307.211 109.085 305.437 105.938 305.437 105.938L302.08 109.97Z" fill="black"/>
<path d="M283.591 268.877C282.542 270.329 267.704 275.254 262.076 284.631C256.448 294.008 250.879 336.116 250.879 336.116L247.297 363.835C254.355 375.001 263.822 389.783 273.868 400.209L283.591 268.877Z" fill="#1D4D8A"/>
<g opacity="0.3">
<path d="M395.066 309.531C395.691 315.181 396.329 320.893 398.273 326.234C400.216 331.575 403.623 336.592 408.597 339.342C410.681 340.495 413.03 341.255 414.773 342.876C416.646 344.617 417.59 347.143 419.285 349.059C421.257 351.286 424.097 352.527 426.902 353.519C435.201 356.458 443.376 357.861 452.176 357.545C452.442 354.64 452.461 343.968 452.727 341.064L395.066 309.531Z" fill="black"/>
</g>
<path d="M440.746 248.49C440.746 248.49 459.455 254.023 464.934 261.992C470.414 269.963 480.127 300.849 482.12 306.577C484.112 312.306 482.369 325.589 478.633 335.139C474.897 344.686 468.413 352.907 457.209 354.152C446.003 355.396 428.307 348.92 424.327 344.686C420.349 340.451 418.682 330.948 418.682 330.948C423.657 330.074 428.569 328.842 433.367 327.264" fill="#1D4D8A"/>
<path d="M433.368 327.264C433.37 327.272 433.292 327.306 433.134 327.365C432.948 327.432 432.719 327.515 432.428 327.619C431.801 327.834 430.866 328.144 429.632 328.516C427.164 329.256 423.498 330.258 418.715 331.129L418.865 330.915C419.285 333.031 419.889 335.354 420.775 337.779C421.22 338.99 421.733 340.235 422.395 341.45C423.057 342.656 423.831 343.884 424.902 344.862C425.974 345.837 427.299 346.63 428.686 347.357C430.067 348.106 431.554 348.751 433.088 349.38C436.167 350.62 439.496 351.689 443.027 352.526C446.558 353.343 450.308 353.949 454.19 353.961C455.162 354.004 456.131 353.874 457.113 353.825C458.081 353.665 459.071 353.577 460.03 353.304C461.971 352.864 463.877 352.139 465.651 351.124C469.232 349.135 472.265 346.05 474.568 342.419C476.901 338.796 478.607 334.684 479.867 330.388C480.843 327.088 481.561 323.752 482.028 320.434C482.502 317.12 482.734 313.808 482.515 310.591C482.39 308.97 482.09 307.451 481.543 305.944C481.038 304.424 480.539 302.919 480.043 301.428C479.048 298.453 478.075 295.54 477.125 292.697C475.199 287.023 473.298 281.655 471.394 276.683C469.454 271.735 467.645 267.08 465.378 263.196C464.272 261.242 462.757 259.71 461.154 258.469C459.58 257.193 457.948 256.176 456.396 255.279C453.275 253.505 450.438 252.247 448.105 251.269C445.766 250.3 443.919 249.624 442.66 249.179C442.058 248.967 441.584 248.8 441.228 248.675C440.907 248.561 440.741 248.5 440.745 248.488C440.748 248.477 440.92 248.514 441.25 248.606C441.611 248.715 442.093 248.86 442.705 249.043C443.98 249.445 445.846 250.08 448.207 251.014C450.563 251.955 453.427 253.181 456.59 254.934C458.163 255.822 459.821 256.832 461.433 258.116C463.064 259.351 464.66 260.944 465.806 262.935C468.14 266.874 469.97 271.514 471.941 276.47C473.874 281.444 475.797 286.813 477.741 292.486C478.699 295.327 479.681 298.24 480.684 301.214C481.181 302.701 481.683 304.204 482.191 305.722C482.745 307.227 483.084 308.899 483.205 310.535C483.433 313.832 483.199 317.181 482.723 320.532C482.253 323.886 481.531 327.253 480.544 330.589C479.271 334.933 477.54 339.104 475.157 342.799C472.806 346.501 469.684 349.676 465.985 351.72C464.152 352.764 462.183 353.508 460.185 353.955C459.195 354.232 458.178 354.323 457.183 354.483C456.177 354.532 455.18 354.661 454.19 354.615C450.231 354.591 446.445 353.962 442.884 353.125C439.324 352.266 435.975 351.173 432.874 349.905C431.328 349.262 429.829 348.602 428.431 347.834C427.026 347.083 425.686 346.277 424.553 345.236C423.425 344.188 422.642 342.916 421.972 341.676C421.306 340.428 420.798 339.163 420.357 337.933C419.482 335.468 418.899 333.132 418.499 330.981L418.465 330.798L418.649 330.767C423.426 329.951 427.097 329.009 429.577 328.33C430.785 327.986 431.723 327.718 432.397 327.527C432.693 327.441 432.928 327.375 433.118 327.321C433.282 327.274 433.365 327.255 433.368 327.264Z" fill="black"/>
<path d="M467.69 317.262C467.551 317.294 467.126 314.958 465.554 311.513C464.021 308.072 461.262 303.525 457.113 299.528C455.047 297.521 452.75 295.995 450.553 294.858C449.988 294.605 449.437 294.358 448.899 294.118C448.364 293.871 447.8 293.768 447.277 293.591C446.235 293.21 445.208 293.119 444.281 292.972C444.051 292.937 443.824 292.902 443.601 292.868C443.38 292.869 443.163 292.869 442.95 292.869C442.533 292.869 442.134 292.869 441.754 292.87C441 292.824 440.368 292.961 439.845 293.036C438.8 293.188 438.21 293.252 438.197 293.204C438.185 293.157 438.751 293.003 439.799 292.765C440.323 292.646 440.964 292.467 441.732 292.475C442.122 292.458 442.53 292.439 442.958 292.42C443.176 292.412 443.4 292.402 443.628 292.393C443.858 292.42 444.091 292.446 444.33 292.474C445.288 292.591 446.353 292.66 447.436 293.026C447.978 293.195 448.567 293.294 449.12 293.537C449.678 293.776 450.251 294.02 450.838 294.271C453.118 295.407 455.491 296.964 457.6 299.015C461.841 303.1 464.574 307.772 466.013 311.312C466.382 312.197 466.701 313.003 466.905 313.739C467.128 314.468 467.341 315.087 467.426 315.619C467.642 316.671 467.737 317.252 467.69 317.262Z" fill="black"/>
<path d="M477.896 300.477C477.742 300.537 477.233 298.073 475.075 294.78C472.962 291.543 468.919 287.479 463.153 285.756C457.41 284.008 451.835 284.548 447.942 284.921C446.089 285.143 444.531 285.33 443.29 285.478C442.191 285.612 441.579 285.668 441.57 285.619C441.562 285.572 442.159 285.425 443.247 285.207C444.334 284.991 445.914 284.7 447.881 284.426C451.777 283.928 457.432 283.283 463.362 285.082C466.302 285.976 468.885 287.482 470.905 289.203C472.949 290.908 474.437 292.817 475.496 294.513C476.552 296.218 477.156 297.734 477.491 298.797C477.833 299.857 477.931 300.469 477.896 300.477Z" fill="black"/>
<path d="M463.792 280.395C463.743 280.626 458.866 279.055 452.672 279.331C446.472 279.541 441.736 281.491 441.669 281.264C441.637 281.188 442.771 280.604 444.732 279.98C446.688 279.353 449.495 278.753 452.643 278.624C455.791 278.504 458.635 278.883 460.636 279.354C462.64 279.824 463.817 280.318 463.792 280.395Z" fill="black"/>
<path d="M433.523 253.158C433.634 253.176 433.364 255.067 433.145 258.132C432.927 261.195 432.825 265.448 433.246 270.112C433.63 274.598 434.442 278.619 435.159 281.544L434.668 281.702C434.113 280.133 433.676 278.859 433.39 277.973C433.103 277.087 432.968 276.587 433.015 276.569C433.063 276.552 433.289 277.016 433.657 277.872C434.025 278.729 434.535 279.975 435.15 281.521L434.66 281.679C433.821 278.763 432.928 274.71 432.541 270.176C432.117 265.462 432.3 261.163 432.647 258.088C432.818 256.55 433.019 255.312 433.186 254.464C433.357 253.614 433.475 253.15 433.523 253.158Z" fill="black"/>
<path d="M407.073 218.332C407.073 218.332 397.362 218.332 396.145 230.002C395.209 238.959 396.145 247.656 396.145 251.579C396.145 255.502 394.417 269.452 394.417 269.452C394.417 269.452 387.791 275.329 387.904 282.389C388.016 289.483 393.062 291.652 393.062 291.652C393.062 291.652 389.979 298.378 395.864 304.542C395.864 304.542 393.042 311.049 395.361 315.431C397.157 318.823 401.187 319.955 401.187 319.955C401.187 319.955 398.316 326.368 405.207 329.063C409.279 330.657 415.299 330.303 415.299 330.303L422.545 330.163L428.931 333.687C428.931 333.687 439.86 328.922 440.141 322.477C440.42 316.032 440.42 316.032 440.42 316.032C440.42 316.032 437.338 305.383 437.058 302.021C436.778 298.659 439.58 290.532 437.898 286.889C436.216 283.246 430.332 281.105 430.893 276.011C431.453 270.916 430.332 268.113 427.81 265.312C425.288 262.51 414.141 256.905 414.141 256.905C414.141 256.905 411.276 248.779 411.276 243.174C411.277 237.568 416.882 220.474 407.073 218.332Z" fill="#FFBF9D"/>
<path d="M413.615 259.029C413.664 259.113 412.632 259.774 410.928 260.773C409.221 261.772 406.84 263.109 404.189 264.549C401.537 265.99 399.117 267.259 397.349 268.145C395.582 269.032 394.464 269.538 394.418 269.452C394.371 269.367 395.403 268.706 397.109 267.707C398.815 266.708 401.195 265.371 403.846 263.932C406.496 262.493 408.913 261.225 410.682 260.337C412.448 259.451 413.566 258.943 413.615 259.029Z" fill="#FF9A6C"/>
<path d="M419.989 280.969C420.018 281.009 419.715 281.276 419.142 281.728C418.572 282.184 417.71 282.795 416.615 283.505C414.426 284.927 411.242 286.666 407.515 288.098C403.783 289.522 400.25 290.354 397.672 290.757C396.383 290.961 395.333 291.082 394.604 291.123C393.877 291.17 393.472 291.173 393.467 291.124C393.455 291.011 395.048 290.794 397.581 290.266C400.114 289.742 403.578 288.845 407.262 287.439C410.942 286.026 414.12 284.38 416.355 283.079C418.591 281.78 419.923 280.878 419.989 280.969Z" fill="#FF9A6C"/>
<path d="M428.325 273.992C428.502 274.053 428.138 275.299 426.987 276.338C425.844 277.388 424.569 277.633 424.525 277.453C424.457 277.26 425.495 276.755 426.511 275.816C427.539 274.894 428.139 273.906 428.325 273.992Z" fill="#FF9A6C"/>
<path d="M424.329 300.19C424.357 300.273 422.823 300.896 420.266 301.676C417.71 302.458 414.118 303.358 410.087 304.01C406.053 304.656 402.359 304.927 399.688 304.987C397.015 305.048 395.363 304.938 395.363 304.85C395.363 304.743 397.011 304.676 399.664 304.488C402.316 304.302 405.971 303.953 409.974 303.312C413.975 302.666 417.555 301.85 420.132 301.195C422.709 300.542 424.295 300.088 424.329 300.19Z" fill="#FF9A6C"/>
<path d="M433.196 298.575C433.1 298.517 433.526 297.776 433.942 296.497C434.361 295.227 434.712 293.372 434.472 291.353C434.231 289.331 433.451 287.612 432.744 286.477C432.038 285.331 431.451 284.712 431.531 284.632C431.585 284.57 432.31 285.069 433.158 286.196C434.005 287.308 434.916 289.109 435.174 291.27C435.432 293.429 434.97 295.395 434.41 296.674C433.851 297.967 433.264 298.623 433.196 298.575Z" fill="#FF9A6C"/>
<path d="M424.831 319.839C424.848 319.926 423.543 320.294 421.38 320.653C419.221 321.014 416.196 321.327 412.848 321.32C409.498 321.308 406.476 320.979 404.318 320.606C402.158 320.234 400.854 319.858 400.871 319.772C400.892 319.668 402.227 319.869 404.387 320.11C406.547 320.355 409.537 320.6 412.849 320.613C416.16 320.619 419.151 320.39 421.312 320.158C423.473 319.927 424.81 319.733 424.831 319.839Z" fill="#FF9A6C"/>
<path d="M407.596 243.333C407.636 243.408 407.157 243.773 406.25 244.097C405.349 244.423 404.001 244.651 402.531 244.479C401.061 244.301 399.804 243.764 399.004 243.235C398.198 242.707 397.818 242.241 397.875 242.177C397.997 242 399.844 243.476 402.615 243.777C405.376 244.135 407.519 243.134 407.596 243.333Z" fill="#FF9A6C"/>
<path d="M435.214 299.397C435.256 299.392 435.336 299.762 435.37 300.444C435.391 301.127 435.302 302.119 435.034 303.307C434.772 304.495 434.324 305.866 433.896 307.381C433.489 308.889 433.092 310.596 433.388 312.323C433.622 314.04 434.907 315.434 435.11 317.178C435.339 318.894 434.662 320.347 434.043 321.377C433.397 322.423 432.748 323.165 432.29 323.661C431.827 324.156 431.545 324.401 431.51 324.371C431.401 324.289 432.442 323.181 433.608 321.13C434.153 320.108 434.704 318.752 434.465 317.272C434.301 315.798 433 314.408 432.691 312.445C432.365 310.522 432.824 308.725 433.269 307.199C433.74 305.666 434.231 304.329 434.548 303.184C435.226 300.896 435.093 299.405 435.214 299.397Z" fill="#FF9A6C"/>
<path d="M438.863 307.924C438.909 307.913 439.075 308.365 439.318 309.199C439.56 310.033 439.886 311.248 440.193 312.777C440.49 314.305 440.792 316.147 440.842 318.225C440.884 320.287 440.68 322.655 439.615 324.875C438.522 327.063 436.949 328.778 435.442 330.189C433.915 331.592 432.416 332.695 431.131 333.573C429.843 334.448 428.765 335.098 428.006 335.523C427.249 335.949 426.813 336.155 426.789 336.114C426.729 336.018 428.357 334.996 430.842 333.166C432.079 332.245 433.527 331.112 434.997 329.714C436.448 328.309 437.951 326.628 438.98 324.566C439.975 322.496 440.198 320.242 440.192 318.232C440.179 316.21 439.935 314.387 439.703 312.864C439.202 309.82 438.75 307.951 438.863 307.924Z" fill="black"/>
<path d="M336.439 262.742C336.408 262.778 335.85 262.359 334.867 261.566C333.794 260.677 332.412 259.534 330.755 258.162C329.883 257.426 328.941 256.632 327.937 255.785C327.433 255.359 326.921 254.923 326.336 254.635C325.757 254.347 325.101 254.273 324.519 254.573C323.347 255.185 322.565 256.689 321.565 257.936C320.598 259.239 319.598 260.586 318.575 261.967C316.934 264.163 315.355 266.272 313.9 268.219L313.021 269.393L313.3 267.957C314.254 263.046 315.583 258.948 316.678 256.115C317.225 254.696 317.707 253.589 318.057 252.839C318.41 252.091 318.623 251.696 318.659 251.711C318.695 251.728 318.55 252.151 318.264 252.925C317.979 253.699 317.561 254.825 317.071 256.256C316.092 259.113 314.858 263.204 313.959 268.08L313.361 267.818C314.806 265.865 316.376 263.749 318.007 261.544C319.035 260.168 320.038 258.823 321.01 257.522C321.497 256.874 321.976 256.236 322.446 255.611C322.93 254.988 323.473 254.353 324.24 253.985C325.01 253.591 325.951 253.722 326.613 254.079C327.295 254.428 327.825 254.907 328.322 255.342C329.306 256.212 330.229 257.028 331.083 257.784C332.681 259.225 334.014 260.425 335.049 261.358C335.974 262.214 336.471 262.705 336.439 262.742Z" fill="black"/>
<path d="M393.755 251.264C393.769 251.283 393.587 251.445 393.225 251.737C392.796 252.071 392.266 252.484 391.622 252.988C390.13 254.11 388.107 255.632 385.641 257.487C380.471 261.293 373.455 266.456 365.669 272.187L365.367 272.409L365.163 272.09C365.007 271.845 364.837 271.58 364.669 271.315C360.99 265.508 357.554 260.084 354.646 255.493L355.012 255.611C350.219 257.517 346.453 259.606 343.887 261.159C342.603 261.937 341.615 262.58 340.939 263.016C340.266 263.456 339.901 263.682 339.882 263.657C339.864 263.632 340.192 263.354 340.833 262.865C341.478 262.379 342.438 261.688 343.701 260.862C346.225 259.214 349.975 257.031 354.787 255.051L355.018 254.956L355.154 255.169C358.087 259.742 361.554 265.148 365.265 270.934C365.435 271.2 365.603 271.464 365.759 271.71L365.253 271.615C373.088 265.951 380.146 260.848 385.349 257.087C387.868 255.306 389.936 253.844 391.46 252.766C392.136 252.306 392.69 251.927 393.139 251.622C393.531 251.369 393.742 251.245 393.755 251.264Z" fill="black"/>
<path d="M271.934 305.246C271.958 305.246 271.983 305.576 272.008 306.204C272.027 306.903 272.052 307.816 272.083 308.952C272.129 311.42 272.193 314.85 272.272 319.055C272.433 327.585 272.774 339.364 273.217 352.376C273.658 365.393 273.921 377.186 273.955 385.721C273.969 389.989 273.96 393.442 273.92 395.828C273.895 396.964 273.876 397.876 273.861 398.576C273.84 399.204 273.818 399.534 273.793 399.534C273.769 399.534 273.745 399.204 273.719 398.576C273.7 397.876 273.675 396.964 273.644 395.828C273.598 393.36 273.534 389.93 273.455 385.726C273.294 377.196 272.953 365.416 272.511 352.399C272.07 339.387 271.808 327.597 271.774 319.06C271.76 314.793 271.768 311.338 271.809 308.952C271.833 307.816 271.852 306.902 271.867 306.203C271.888 305.576 271.909 305.246 271.934 305.246Z" fill="black"/>
<path d="M336.886 427.857C336.874 427.859 336.851 427.725 336.817 427.466C336.783 427.168 336.74 426.788 336.687 426.314C336.582 425.248 336.437 423.763 336.253 421.875C335.875 418.02 335.441 412.43 335.009 405.517C334.564 398.604 334.203 390.363 333.968 381.206C333.77 372.049 333.72 361.977 333.935 351.408C334.178 340.837 334.667 330.775 335.263 321.632C335.896 312.493 336.614 304.274 337.359 297.388C338.092 290.5 338.768 284.935 339.312 281.1C339.579 279.222 339.789 277.745 339.939 276.685C340.014 276.214 340.074 275.836 340.12 275.539C340.165 275.281 340.193 275.151 340.205 275.152C340.217 275.154 340.212 275.288 340.192 275.549C340.163 275.849 340.127 276.229 340.08 276.704C339.961 277.767 339.795 279.25 339.585 281.134C339.125 284.979 338.525 290.549 337.856 297.438C337.176 304.327 336.509 312.542 335.912 321.675C335.353 330.81 334.884 340.863 334.641 351.423C334.425 361.981 334.457 372.042 334.618 381.191C334.818 390.34 335.126 398.577 335.506 405.487C335.874 412.399 336.232 417.99 336.525 421.852C336.654 423.744 336.755 425.233 336.828 426.302C336.852 426.778 336.873 427.159 336.889 427.461C336.9 427.721 336.899 427.856 336.886 427.857Z" fill="black"/>
<path d="M296.441 205.667C296.441 205.667 295.962 206.002 295.008 206.628C294.041 207.256 292.621 208.179 290.764 209.386C288.901 210.6 286.745 212.318 284.113 214.225C282.817 215.205 281.515 216.381 280.071 217.571C279.354 218.174 278.616 218.796 277.853 219.436C277.102 220.091 276.381 220.824 275.612 221.546C269.442 227.289 262.434 234.999 255.978 245.114C255.187 246.388 254.382 247.681 253.564 248.998C252.712 250.296 252.053 251.733 251.27 253.128C250.53 254.547 249.706 255.952 249.001 257.444C248.316 258.945 247.621 260.469 246.915 262.014C246.572 262.79 246.186 263.556 245.87 264.357C245.563 265.162 245.255 265.973 244.944 266.789C244.332 268.425 243.675 270.07 243.075 271.76C242.07 275.204 240.803 278.672 240.045 282.371C238.164 289.678 237.127 297.552 236.707 305.764C236.234 313.983 236.724 322.585 238.135 331.334C240.993 348.801 247.884 366.99 259.599 383.158C271.161 399.375 287.503 413.481 307.128 422.752C326.71 432.08 349.625 436.111 372.51 433.74C395.428 431.366 416.895 422.345 434.091 409.157C438.427 405.896 442.406 402.269 446.232 398.568C447.152 397.607 448.07 396.649 448.986 395.692C449.913 394.746 450.807 393.774 451.654 392.764C452.518 391.769 453.378 390.776 454.238 389.785C455.049 388.754 455.858 387.727 456.665 386.703C463.118 378.497 468.208 369.546 472.23 360.438C476.245 351.311 478.903 341.887 480.54 332.595C481.381 327.947 481.844 323.31 482.152 318.74C482.298 316.454 482.295 314.179 482.372 311.927C482.329 309.675 482.207 307.441 482.129 305.225C482.086 304.118 482.043 303.016 481.999 301.917C481.933 300.822 481.753 299.739 481.638 298.657C481.376 296.495 481.118 294.351 480.862 292.228C480.525 290.118 480.038 288.052 479.64 285.991C479.216 283.936 478.862 281.884 478.224 279.923C477.655 277.946 477.092 275.988 476.534 274.05C476.284 273.071 475.941 272.131 475.576 271.201C475.226 270.267 474.877 269.339 474.529 268.414C473.806 266.579 473.215 264.711 472.405 262.96C471.588 261.212 470.779 259.484 469.981 257.776C463.427 244.174 455.011 233.18 446.561 224.695C438.082 216.191 429.551 210.228 422.363 205.838C420.533 204.787 418.805 203.794 417.182 202.861C416.384 202.37 415.56 201.991 414.77 201.619C413.98 201.243 413.218 200.881 412.484 200.531C411.017 199.831 409.663 199.185 408.424 198.595C407.198 197.973 405.998 197.62 404.973 197.191C402.909 196.39 401.33 195.78 400.255 195.363C399.194 194.948 398.655 194.717 398.655 194.717C398.655 194.717 399.209 194.901 400.28 195.295C401.361 195.697 402.95 196.287 405.026 197.06C406.057 197.478 407.263 197.821 408.495 198.433C409.741 199.016 411.101 199.652 412.575 200.342C413.312 200.687 414.077 201.046 414.872 201.417C415.667 201.785 416.494 202.159 417.297 202.647C418.929 203.572 420.666 204.558 422.506 205.602C429.731 209.966 438.308 215.911 446.842 224.417C455.347 232.902 463.822 243.913 470.431 257.558C471.238 259.271 472.052 261.004 472.876 262.758C473.692 264.516 474.29 266.389 475.019 268.231C475.37 269.158 475.721 270.091 476.075 271.027C476.443 271.96 476.789 272.906 477.043 273.887C477.607 275.832 478.177 277.798 478.752 279.784C479.396 281.752 479.755 283.812 480.184 285.877C480.587 287.946 481.08 290.021 481.421 292.14C481.681 294.273 481.946 296.425 482.212 298.597C482.33 299.685 482.512 300.772 482.58 301.873C482.625 302.976 482.671 304.084 482.717 305.196C482.799 307.42 482.923 309.665 482.97 311.928C482.895 314.191 482.9 316.477 482.758 318.774C482.455 323.366 481.995 328.027 481.155 332.699C479.52 342.042 476.857 351.517 472.83 360.697C468.794 369.858 463.682 378.86 457.201 387.117C456.39 388.148 455.577 389.182 454.761 390.218C453.898 391.214 453.034 392.213 452.166 393.215C451.315 394.232 450.416 395.209 449.484 396.16C448.564 397.123 447.641 398.088 446.716 399.054C442.873 402.778 438.872 406.426 434.513 409.709C417.228 422.977 395.636 432.057 372.586 434.444C349.572 436.831 326.524 432.769 306.835 423.38C287.102 414.048 270.68 399.852 259.072 383.539C247.31 367.275 240.405 348.984 237.558 331.429C236.152 322.635 235.673 313.994 236.163 305.74C236.597 297.492 237.656 289.587 239.559 282.254C240.329 278.542 241.609 275.061 242.626 271.608C243.231 269.913 243.895 268.262 244.514 266.622C244.827 265.804 245.14 264.991 245.449 264.183C245.768 263.38 246.158 262.613 246.504 261.833C247.216 260.285 247.918 258.756 248.609 257.252C249.319 255.756 250.15 254.349 250.896 252.928C251.686 251.529 252.353 250.089 253.209 248.79C254.035 247.472 254.846 246.176 255.644 244.901C262.153 234.775 269.212 227.072 275.423 221.346C276.198 220.627 276.924 219.897 277.679 219.245C278.446 218.607 279.191 217.988 279.912 217.388C281.366 216.204 282.677 215.034 283.982 214.061C286.631 212.168 288.803 210.465 290.682 209.269C292.558 208.087 293.99 207.183 294.966 206.567C295.936 205.961 296.441 205.667 296.441 205.667Z" fill="black"/>
</svg>
