<svg width="679" height="680" viewBox="0 0 679 680" fill="none" xmlns="http://www.w3.org/2000/svg">
<path d="M487.266 427.584H585.357V351.928H487.266V427.584Z" fill="#EBEBEB"/>
<path d="M494.277 420.982H506.098V407.622H494.277V420.982Z" fill="white"/>
<path d="M555.433 352.123H544.291V368.267H555.433V352.123Z" fill="#FAFAFA"/>
<path d="M555.433 411.217H544.291V427.36H555.433V411.217Z" fill="#FAFAFA"/>
<path d="M511.75 428.105C511.577 428.105 511.438 411.465 511.438 390.944C511.438 370.416 511.577 353.779 511.75 353.779C511.922 353.779 512.062 370.416 512.062 390.944C512.062 411.465 511.922 428.105 511.75 428.105Z" fill="#E0E0E0"/>
<path d="M447.258 557.873H616.504V427.336H447.258V557.873Z" fill="#EBEBEB"/>
<path d="M459.356 546.48H479.75V523.426H459.356V546.48Z" fill="white"/>
<path d="M564.873 427.672H545.648V455.526H564.873V427.672Z" fill="#FAFAFA"/>
<path d="M564.873 529.631H545.648V557.485H564.873V529.631Z" fill="#FAFAFA"/>
<path d="M489.501 558.77C489.203 558.77 488.961 530.06 488.961 494.652C488.961 459.232 489.203 430.527 489.501 430.527C489.8 430.527 490.04 459.231 490.04 494.652C490.04 530.06 489.798 558.77 489.501 558.77Z" fill="#E0E0E0"/>
<path d="M611.128 155.828L620.194 174.198L640.467 177.145L625.797 191.444L629.26 211.635L611.128 202.102L592.996 211.635L596.458 191.444L581.789 177.145L602.062 174.198L611.128 155.828Z" fill="#EBEBEB"/>
<path d="M71.2763 393.041L76.9909 404.618L89.7668 406.475L80.5215 415.487L82.7042 428.211L71.2763 422.203L59.8497 428.211L62.031 415.487L52.7871 406.475L65.563 404.618L71.2763 393.041Z" fill="#EBEBEB"/>
<path d="M78.3659 292.178L91.0535 317.887L119.425 322.009L98.8952 342.02L103.741 370.276L78.3659 356.935L52.9906 370.276L57.8379 342.02L37.3086 322.009L65.6783 317.887L78.3659 292.178Z" fill="#EBEBEB"/>
<path d="M603.054 238.781L608.523 249.862L620.75 251.639L611.903 260.263L613.992 272.442L603.054 266.692L592.117 272.442L594.206 260.263L585.357 251.639L597.585 249.862L603.054 238.781Z" fill="#EBEBEB"/>
<path d="M423.575 59.2578L429.043 70.3383L441.272 72.1151L432.423 80.7414L434.512 92.92L423.575 87.17L412.637 92.92L414.726 80.7414L405.879 72.1151L418.106 70.3383L423.575 59.2578Z" fill="#EBEBEB"/>
<path d="M548.694 177.814L552.273 185.067L560.277 186.23L554.485 191.876L555.852 199.846L548.694 196.082L541.535 199.846L542.902 191.876L537.111 186.23L545.115 185.067L548.694 177.814Z" fill="#EBEBEB"/>
<path d="M218.439 543.904L225.41 558.029L240.999 560.295L229.719 571.29L232.382 586.816L218.439 579.486L204.496 586.816L207.159 571.29L195.879 560.295L211.467 558.029L218.439 543.904Z" fill="#EBEBEB"/>
<path d="M236.841 529.863L239.722 535.7L246.163 536.635L241.503 541.179L242.602 547.594L236.841 544.564L231.081 547.594L232.181 541.179L227.521 536.635L233.961 535.7L236.841 529.863Z" fill="#EBEBEB"/>
<path d="M494.278 475.779L500.408 488.199L514.113 490.191L504.196 499.858L506.538 513.51L494.278 507.063L482.019 513.51L484.361 499.858L474.443 490.191L488.149 488.199L494.278 475.779Z" fill="#EC8305"/>
<path d="M523.521 464.771L526.409 470.623L532.868 471.563L528.194 476.118L529.298 482.549L523.521 479.513L517.745 482.549L518.847 476.118L514.174 471.563L520.632 470.623L523.521 464.771Z" fill="#EC8305"/>
<path d="M485.191 141.506L489.984 126.494C486.252 119.011 484.479 110.439 485.288 101.504C487.612 75.8075 510.357 56.8636 536.088 59.1916C561.821 61.5182 580.796 84.2356 578.472 109.933C576.149 135.628 553.404 154.572 527.672 152.245C516.927 151.274 508.078 147.383 500.748 140.569L485.191 141.506Z" fill="#FAFAFA"/>
<path d="M485.191 141.505C485.191 141.505 485.552 141.468 486.227 141.418C486.924 141.368 487.919 141.296 489.218 141.203C491.854 141.023 495.718 140.758 500.739 140.415L500.804 140.411L500.853 140.455C505.274 144.537 512.024 149.067 521.154 150.997C523.418 151.483 525.806 151.862 528.295 152.016C529.541 152.064 530.808 152.111 532.096 152.159C533.383 152.149 534.689 152.015 536.016 151.947C541.303 151.456 546.85 150.033 552.172 147.433C557.49 144.844 562.574 141.084 566.824 136.233C571.063 131.389 574.508 125.466 576.427 118.829C578.336 112.204 578.82 104.94 577.581 97.7761C577.367 95.9653 576.795 94.2211 576.34 92.4402C576.142 91.5402 575.761 90.6959 575.45 89.8258C575.119 88.9639 574.815 88.087 574.458 87.2318C572.861 83.8872 571.106 80.5385 568.719 77.5916C567.639 76.036 566.301 74.7057 565.044 73.3198C564.441 72.6004 563.689 72.0344 563.012 71.395C562.31 70.7842 561.649 70.1259 560.918 69.5585L558.686 67.9119L557.573 67.0934L556.391 66.3862L554.036 64.9773C553.243 64.5266 552.396 64.1832 551.583 63.7814C545.017 60.7014 537.893 59.2056 531.006 59.3549C524.114 59.4906 517.494 61.1711 511.704 63.9701C505.901 66.7636 500.927 70.6525 497.015 75.079C493.092 79.5069 490.236 84.4627 488.361 89.424C488.137 90.0498 487.914 90.6688 487.694 91.285C487.459 91.8972 487.254 92.5107 487.121 93.1433C486.81 94.3921 486.505 95.6219 486.204 96.8314C485.871 99.2991 485.418 101.67 485.37 103.992C484.996 113.295 487.448 121.011 490.121 126.424L490.15 126.481L490.131 126.539C488.544 131.376 487.322 135.095 486.489 137.633C486.073 138.884 485.756 139.841 485.533 140.511C485.316 141.161 485.191 141.505 485.191 141.505C485.191 141.505 485.274 141.195 485.467 140.557C485.67 139.891 485.962 138.941 486.343 137.7C487.143 135.125 488.314 131.351 489.837 126.446L489.847 126.561C487.104 121.14 484.573 113.373 484.902 103.974C484.937 101.63 485.382 99.2312 485.71 96.735C486.008 95.512 486.311 94.2672 486.62 93.0021C486.752 92.3628 486.957 91.7397 487.192 91.1208C487.413 90.4977 487.636 89.8692 487.86 89.2353C489.737 84.2089 492.611 79.1811 496.571 74.684C500.52 70.1897 505.551 66.2356 511.427 63.3904C517.292 60.5413 524.005 58.8228 530.996 58.6776C537.983 58.5174 545.214 60.0255 551.881 63.1488C552.707 63.5547 553.566 63.9035 554.371 64.361L556.764 65.789L557.965 66.507L559.096 67.3364L561.363 69.0074C562.105 69.5829 562.777 70.2507 563.49 70.8711C564.177 71.5199 564.94 72.0941 565.553 72.8244C566.829 74.2306 568.187 75.5826 569.283 77.1613C571.705 80.1543 573.49 83.5519 575.107 86.9495C575.469 87.8182 575.777 88.7087 576.114 89.5842C576.43 90.4665 576.815 91.3244 577.016 92.2379C577.478 94.0446 578.055 95.8174 578.273 97.6553C579.526 104.93 579.027 112.299 577.08 119.019C575.123 125.751 571.618 131.755 567.31 136.656C562.99 141.566 557.828 145.362 552.435 147.969C547.037 150.586 541.417 152.008 536.066 152.483C534.724 152.547 533.402 152.677 532.101 152.68C530.8 152.626 529.52 152.572 528.26 152.519C525.747 152.35 523.341 151.957 521.056 151.454C511.845 149.458 505.055 144.83 500.648 140.679L500.76 140.72C495.688 140.985 491.785 141.188 489.122 141.328C487.841 141.391 486.858 141.438 486.17 141.472C485.507 141.501 485.191 141.505 485.191 141.505Z" fill="#263238"/>
<path d="M505.367 103.954L513.066 97.2874L526.034 110.595L555.105 86.3848L561.258 94.0459L524.012 124.374L505.367 103.954Z" fill="#EC8305"/>
<path d="M404.656 475.201L144.358 533.211C138.04 534.618 131.776 530.639 130.369 524.32L45.8924 145.269C44.4848 138.95 48.4647 132.687 54.7834 131.279L315.082 73.2694C321.401 71.8617 327.664 75.8416 329.072 82.1603L413.547 461.213C414.956 467.53 410.975 473.793 404.656 475.201Z" fill="#E0E0E0"/>
<path d="M404.655 475.201C404.655 475.201 404.944 475.111 405.518 474.947C406.09 474.777 406.926 474.453 407.958 473.884C408.967 473.284 410.157 472.386 411.247 471.02C412.316 469.656 413.283 467.796 413.626 465.524C413.822 464.393 413.798 463.162 413.598 461.9C413.384 460.637 413.037 459.319 412.741 457.931C412.118 455.156 411.438 452.121 410.699 448.833C409.227 442.257 407.527 434.67 405.613 426.131C397.977 391.96 386.927 342.519 373.273 281.429C366.455 250.881 358.985 217.42 350.968 181.499C346.961 163.538 342.816 144.962 338.547 125.828C336.413 116.261 334.248 106.554 332.052 96.7144C330.948 91.7992 329.839 86.8502 328.721 81.8685C328.129 79.4347 326.656 77.2466 324.693 75.6828C322.702 74.1544 320.21 73.2436 317.674 73.2531C316.404 73.2477 315.17 73.4974 313.897 73.7974C312.63 74.0797 311.362 74.3621 310.092 74.6458C307.552 75.2118 305.004 75.7806 302.448 76.3507C297.338 77.4909 292.197 78.6365 287.025 79.7903C276.683 82.0965 266.225 84.4286 255.653 86.7864C234.51 91.5006 212.922 96.314 190.946 101.214C146.992 111.012 101.482 121.156 54.872 131.545C52.0187 132.171 49.4478 133.925 47.838 136.349C46.2077 138.758 45.5589 141.796 46.0679 144.65C47.2964 150.427 48.628 156.213 49.8971 161.966C52.4626 173.478 55.0105 184.914 57.5406 196.266C62.5997 218.971 67.5841 241.344 72.4816 263.326C82.2738 307.292 91.72 349.701 100.718 390.1C109.712 430.5 118.259 468.89 126.258 504.819C127.257 509.311 128.248 513.763 129.23 518.176C129.731 520.377 130.189 522.596 130.719 524.751C131.269 526.881 132.475 528.813 134.082 530.276C135.693 531.745 137.718 532.721 139.841 533.099C140.907 533.277 141.989 533.303 143.057 533.2C144.114 533.06 145.18 532.801 146.244 532.565C150.497 531.619 154.707 530.682 158.877 529.754C175.554 526.044 191.559 522.482 206.836 519.084C267.942 505.505 317.39 494.515 351.568 486.921C368.655 483.136 381.923 480.198 390.924 478.204C395.421 477.214 398.851 476.459 401.161 475.95C403.47 475.445 404.655 475.201 404.655 475.201C404.655 475.201 403.478 475.483 401.176 476.006C398.868 476.527 395.442 477.299 390.951 478.313C381.955 480.331 368.695 483.303 351.617 487.132C317.45 494.769 268.014 505.817 206.924 519.47C191.65 522.88 175.648 526.452 158.974 530.174C154.805 531.105 150.594 532.045 146.343 532.994C145.282 533.228 144.223 533.49 143.11 533.638C141.999 533.747 140.876 533.721 139.768 533.537C137.561 533.144 135.457 532.132 133.782 530.607C132.109 529.088 130.857 527.079 130.284 524.867C129.742 522.673 129.29 520.482 128.787 518.274C127.801 513.861 126.809 509.409 125.806 504.918C117.792 468.994 109.228 430.608 100.216 390.211C91.2082 349.815 81.7512 307.407 71.9481 263.444C67.0479 241.462 62.0608 219.089 56.999 196.386C54.4689 185.034 51.9197 173.598 49.3542 162.085C48.0823 156.321 46.7588 150.573 45.5195 144.743C44.9861 141.75 45.6675 138.56 47.3764 136.036C49.0637 133.493 51.7663 131.651 54.7553 130.997C101.367 120.611 146.877 110.47 190.832 100.677C212.81 95.7805 234.399 90.9726 255.543 86.2624C266.115 83.9087 276.576 81.578 286.918 79.2745C292.09 78.1234 297.23 76.9778 302.342 75.8389C304.898 75.2702 307.446 74.7028 309.986 74.1368C311.256 73.8544 312.524 73.5721 313.791 73.2897C315.039 72.9952 316.362 72.7264 317.684 72.7346C320.335 72.7251 322.94 73.678 325.018 75.2756C327.07 76.9086 328.607 79.1985 329.224 81.7396C330.341 86.7266 331.45 91.6812 332.553 96.6017C334.743 106.443 336.904 116.15 339.036 125.718C343.295 144.855 347.431 163.433 351.43 181.396C359.424 217.322 366.87 250.789 373.668 281.341C387.248 342.447 398.237 391.9 405.833 426.081C407.727 434.626 409.41 442.216 410.869 448.795C411.597 452.084 412.27 455.121 412.884 457.898C413.175 459.291 413.516 460.599 413.728 461.878C413.926 463.154 413.944 464.399 413.743 465.54C413.387 467.834 412.403 469.705 411.318 471.073C410.212 472.443 409.011 473.339 407.99 473.933C406.949 474.496 406.106 474.813 405.531 474.974C404.95 475.13 404.655 475.201 404.655 475.201Z" fill="black"/>
<g opacity="0.3">
<path d="M157.557 519.791L394.723 465.575L387.219 419.088L373.778 393.041L146.902 482.156L157.557 519.791Z" fill="black"/>
</g>
<g opacity="0.3">
<path d="M256.57 87.1699L265.541 101.983L267.291 109.832L261.2 111.189L256.57 87.1699Z" fill="black"/>
</g>
<path d="M59.4043 147.463L141.686 516.679L399.607 459.199L384.894 393.179L317.324 89.9844L59.4043 147.463Z" fill="white"/>
<path d="M59.4043 147.464C61.2422 147.053 160.517 124.838 317.275 89.7612L317.499 89.7109L317.549 89.9349C340.431 192.539 368.987 320.583 399.878 459.108L399.885 459.138L399.947 459.415L399.671 459.478C307.461 480.018 219.906 499.522 141.746 516.932L141.492 516.989L141.436 516.737C92.9999 298.704 59.9038 149.713 59.4043 147.464C59.9065 149.711 93.2076 298.658 141.94 516.623L141.63 516.426C219.788 499 307.339 479.48 399.544 458.921L399.328 459.26L399.322 459.231C368.469 320.697 339.952 192.645 317.1 90.034L317.374 90.2078C160.555 125.014 61.2409 147.057 59.4043 147.464Z" fill="black"/>
<path d="M262.591 114.189L132.091 143.273L125.524 113.802C124.492 109.173 127.408 104.585 132.037 103.554L245.776 78.2055C250.405 77.1739 254.993 80.0896 256.024 84.7183L262.591 114.189Z" fill="black"/>
<path d="M202.343 72.9434L169.127 80.3453L179.355 107.951L204.373 102.375L202.343 72.9434Z" fill="black"/>
<path d="M245.773 78.2061C245.807 78.3568 220.372 84.1543 188.97 91.153C157.557 98.1531 132.073 103.705 132.039 103.553C132.005 103.402 157.435 97.6061 188.848 90.6046C220.25 83.6072 245.739 78.0554 245.773 78.2061Z" fill="#455A64"/>
<path d="M133.651 136.514C133.501 136.548 132.184 131.221 130.713 124.618C129.24 118.012 128.17 112.632 128.321 112.598C128.471 112.564 129.788 117.89 131.26 124.495C132.731 131.099 133.802 136.48 133.651 136.514Z" fill="#455A64"/>
<path d="M256.376 106.192C256.224 106.226 255.019 101.392 253.683 95.3963C252.346 89.3993 251.386 84.5113 251.537 84.4787C251.688 84.4448 252.894 89.2771 254.23 95.2755C255.566 101.27 256.527 106.158 256.376 106.192Z" fill="#455A64"/>
<path d="M251.204 112.628C251.238 112.78 225.129 118.727 192.894 125.91C160.649 133.096 134.491 138.797 134.457 138.645C134.423 138.495 160.527 132.548 192.772 125.362C225.007 118.18 251.17 112.477 251.204 112.628Z" fill="#455A64"/>
<path d="M182.502 220.038C182.535 220.191 164.926 224.246 143.175 229.093C121.416 233.942 103.755 237.748 103.721 237.594C103.687 237.441 121.292 233.388 143.051 228.538C164.802 223.69 182.468 219.884 182.502 220.038Z" fill="black"/>
<path d="M313.78 205.252C313.814 205.405 267.801 215.789 211.021 228.444C154.22 241.103 108.161 251.236 108.127 251.084C108.093 250.931 154.097 240.548 210.897 227.89C267.679 215.235 313.746 205.1 313.78 205.252Z" fill="black"/>
<path d="M316.608 217.941C316.642 218.095 270.629 228.48 213.849 241.134C157.048 253.793 110.989 263.926 110.955 263.772C110.921 263.619 156.925 253.236 213.725 240.579C270.505 227.925 316.573 217.788 316.608 217.941Z" fill="black"/>
<path d="M319.436 230.631C319.47 230.784 273.457 241.168 216.677 253.823C159.876 266.482 113.817 276.615 113.783 276.462C113.749 276.309 159.753 265.926 216.553 253.268C273.333 240.614 319.402 230.477 319.436 230.631Z" fill="black"/>
<path d="M322.264 243.318C322.298 243.472 276.285 253.857 219.505 266.511C162.705 279.17 116.645 289.303 116.611 289.149C116.577 288.996 162.581 278.613 219.381 265.955C276.162 253.3 322.23 243.165 322.264 243.318Z" fill="black"/>
<path d="M325.09 256.008C325.124 256.161 279.111 266.546 222.331 279.2C165.531 291.859 119.473 301.992 119.438 301.839C119.404 301.685 165.407 291.303 222.208 278.645C278.989 265.99 325.056 255.854 325.09 256.008Z" fill="black"/>
<path d="M159.32 345.326C159.309 345.319 159.267 345.172 159.196 344.897C159.119 344.58 159.02 344.183 158.898 343.687C158.637 342.586 158.275 341.063 157.821 339.151C156.914 335.227 155.641 329.711 154.118 323.114L154.411 323.3C147.93 324.757 140.299 326.47 132.157 328.3C132.107 328.373 132.563 327.66 132.371 327.964L132.373 327.97L132.375 327.982L132.381 328.007L132.392 328.054L132.413 328.149L132.455 328.339L132.541 328.721L132.711 329.481C132.823 329.986 132.935 330.489 133.046 330.99C133.269 331.992 133.49 332.985 133.707 333.967C134.143 335.931 134.568 337.853 134.983 339.724C135.806 343.462 136.582 346.991 137.296 350.233L137.003 350.047C143.623 348.624 149.157 347.435 153.095 346.589C155.02 346.188 156.552 345.869 157.658 345.638C158.158 345.539 158.561 345.459 158.88 345.395C159.158 345.342 159.309 345.317 159.32 345.326C159.331 345.332 159.203 345.37 158.944 345.438C158.64 345.513 158.257 345.608 157.782 345.726C156.695 345.984 155.189 346.342 153.3 346.79C149.337 347.705 143.771 348.989 137.11 350.527L136.871 350.583L136.817 350.341C136.087 347.104 135.291 343.579 134.448 339.844C134.029 337.975 133.598 336.053 133.159 334.09C132.939 333.108 132.717 332.115 132.493 331.114C132.382 330.613 132.27 330.109 132.157 329.604L131.987 328.844L131.902 328.463L131.86 328.271L131.838 328.176L131.827 328.129L131.822 328.104L131.819 328.092L131.817 328.087C131.625 328.388 132.078 327.669 132.035 327.743C140.183 325.942 147.82 324.253 154.306 322.819L154.547 322.766L154.599 323.006C156.035 329.688 157.236 335.274 158.09 339.25C158.486 341.152 158.801 342.666 159.029 343.761C159.124 344.241 159.202 344.628 159.261 344.936C159.31 345.199 159.331 345.332 159.32 345.326Z" fill="black"/>
<path d="M324.803 290.448L169.494 325.055L172.381 338.011L327.69 303.405L324.803 290.448Z" fill="#E0E0E0"/>
<path d="M167.927 383.943C167.916 383.937 167.874 383.79 167.803 383.514C167.726 383.198 167.627 382.8 167.504 382.305C167.244 381.204 166.881 379.681 166.428 377.769C165.521 373.843 164.249 368.329 162.725 361.732L163.018 361.918C156.537 363.375 148.905 365.088 140.764 366.918C140.713 366.991 141.17 366.277 140.978 366.582L140.979 366.588L140.982 366.6L140.988 366.624L140.999 366.672L141.02 366.767L141.062 366.958L141.148 367.34L141.317 368.1C141.43 368.605 141.541 369.108 141.654 369.609C141.877 370.611 142.097 371.605 142.315 372.586C142.751 374.55 143.176 376.472 143.591 378.343C144.414 382.081 145.19 385.61 145.904 388.852L145.611 388.666C152.231 387.243 157.765 386.054 161.703 385.208C163.628 384.807 165.16 384.488 166.267 384.257C166.766 384.158 167.169 384.078 167.488 384.014C167.765 383.961 167.914 383.937 167.927 383.943C167.937 383.95 167.81 383.988 167.551 384.056C167.247 384.131 166.864 384.226 166.389 384.344C165.301 384.602 163.796 384.96 161.907 385.409C157.944 386.324 152.376 387.608 145.715 389.146L145.477 389.202L145.422 388.96C144.692 385.723 143.897 382.198 143.054 378.464C142.634 376.594 142.204 374.674 141.764 372.71C141.544 371.728 141.323 370.735 141.099 369.733C140.988 369.232 140.875 368.728 140.762 368.223L140.593 367.463L140.507 367.082L140.465 366.89L140.443 366.795L140.432 366.748L140.427 366.723L140.424 366.711L140.423 366.706C140.23 367.007 140.684 366.288 140.64 366.362C148.789 364.561 156.425 362.872 162.911 361.439L163.153 361.385L163.204 361.625C164.64 368.308 165.842 373.893 166.697 377.869C167.093 379.771 167.408 381.286 167.636 382.38C167.731 382.86 167.807 383.247 167.868 383.555C167.917 383.819 167.937 383.952 167.927 383.943Z" fill="black"/>
<path d="M333.411 329.069L178.102 363.676L180.989 376.633L336.298 342.026L333.411 329.069Z" fill="#E0E0E0"/>
<path d="M176.533 422.565C176.522 422.558 176.48 422.411 176.409 422.136C176.332 421.819 176.233 421.422 176.111 420.926C175.85 419.827 175.487 418.302 175.034 416.39C174.127 412.464 172.855 406.95 171.331 400.353L171.624 400.539C165.143 401.996 157.511 403.709 149.37 405.539C149.32 405.612 149.777 404.899 149.584 405.203L149.586 405.21L149.588 405.222L149.594 405.247L149.605 405.294L149.626 405.389L149.668 405.581L149.754 405.962L149.924 406.722C150.036 407.227 150.148 407.731 150.259 408.232C150.481 409.233 150.703 410.227 150.92 411.209C151.356 413.173 151.78 415.095 152.194 416.965C153.017 420.704 153.794 424.233 154.507 427.474L154.214 427.288C160.834 425.866 166.368 424.677 170.306 423.83C172.231 423.428 173.764 423.109 174.871 422.878C175.371 422.779 175.774 422.699 176.093 422.635C176.372 422.582 176.522 422.558 176.533 422.565C176.544 422.571 176.416 422.609 176.157 422.677C175.853 422.753 175.47 422.848 174.995 422.966C173.907 423.224 172.402 423.583 170.513 424.03C166.55 424.945 160.984 426.229 154.323 427.767L154.084 427.823L154.03 427.581C153.299 424.343 152.504 420.819 151.661 417.085C151.242 415.216 150.811 413.293 150.371 411.331C150.152 410.348 149.93 409.356 149.706 408.354C149.595 407.853 149.482 407.349 149.37 406.844L149.2 406.084L149.115 405.703L149.072 405.511L149.051 405.416L149.04 405.369L149.034 405.345L149.032 405.332L149.03 405.327C148.838 405.628 149.291 404.909 149.248 404.983C157.396 403.182 165.033 401.494 171.518 400.059L171.76 400.006L171.812 400.246C173.248 406.929 174.449 412.514 175.303 416.49C175.699 418.392 176.014 419.907 176.242 421.001C176.337 421.481 176.415 421.87 176.474 422.176C176.525 422.44 176.544 422.573 176.533 422.565Z" fill="black"/>
<path d="M342.016 367.692L186.707 402.299L189.594 415.256L344.903 380.649L342.016 367.692Z" fill="#E0E0E0"/>
<path d="M137.932 337.344L140.264 333.675L147.199 337.529L156.122 324.066L159.577 326.446L148.059 343.412L137.932 337.344Z" fill="#024CAA"/>
<path d="M146.25 374.673L148.582 371.004L155.516 374.857L164.441 361.395L167.895 363.774L156.378 380.74L146.25 374.673Z" fill="#024CAA"/>
<path d="M154.781 412.946L157.113 409.277L164.047 413.131L172.97 399.668L176.426 402.047L164.907 419.014L154.781 412.946Z" fill="#024CAA"/>
<path d="M225.865 460.975C225.898 461.128 212.786 464.181 196.581 467.792C180.37 471.404 167.206 474.208 167.172 474.055C167.138 473.901 180.246 470.85 196.458 467.236C212.662 463.626 225.829 460.823 225.865 460.975Z" fill="black"/>
<path d="M255.11 453.985C255.144 454.138 250.32 455.344 244.336 456.677C238.35 458.011 233.473 458.968 233.438 458.814C233.404 458.661 238.227 457.456 244.213 456.121C250.196 454.788 255.076 453.832 255.11 453.985Z" fill="black"/>
<path d="M351.946 423.505C351.98 423.658 340.182 426.418 325.598 429.667C311.009 432.918 299.157 435.429 299.123 435.276C299.089 435.123 310.885 432.363 325.474 429.112C340.058 425.863 351.912 423.351 351.946 423.505Z" fill="black"/>
<path d="M339.338 459.236C339.306 459.225 339.454 458.864 339.598 458.155C339.755 457.448 339.763 456.355 339.433 455.02C339.093 453.683 338.394 452.137 337.556 450.348C336.755 448.565 335.715 446.452 335.698 443.875C335.736 441.347 336.85 438.538 339.139 436.569C341.399 434.561 344.943 433.852 348.159 434.887C349.759 435.408 351.304 436.313 352.452 437.706C353.001 438.416 353.44 439.268 353.472 440.247C353.557 441.245 352.793 442.236 351.879 442.541C350.977 442.887 350.096 442.99 349.208 443.204C348.316 443.387 347.418 443.573 346.512 443.759C344.697 444.117 342.846 444.45 340.956 444.697C337.187 445.202 333.4 445.271 329.851 444.76C328.117 444.577 326.284 444.549 324.977 445.555C323.674 446.55 323.013 448.166 322.04 449.522C321.56 450.206 320.948 450.861 320.146 451.214C319.355 451.58 318.433 451.571 317.657 451.318C316.09 450.79 314.939 449.741 313.696 449.035C313.081 448.675 312.44 448.378 311.786 448.313C311.137 448.25 310.484 448.409 309.967 448.773C308.918 449.518 308.362 450.753 307.667 451.786C306.294 453.981 303.931 455.021 301.936 455.093C299.891 455.193 298.231 454.325 297.184 453.408C296.116 452.475 295.582 451.481 295.304 450.804C295.031 450.117 294.996 449.726 294.996 449.726C295.026 449.718 295.107 450.098 295.409 450.757C295.716 451.408 296.268 452.359 297.327 453.239C298.367 454.103 299.974 454.9 301.919 454.774C303.826 454.674 306.051 453.661 307.331 451.566C308.007 450.558 308.532 449.283 309.717 448.412C310.308 447.99 311.079 447.79 311.832 447.861C312.591 447.933 313.288 448.258 313.93 448.628C315.22 449.358 316.387 450.381 317.803 450.842C318.502 451.062 319.268 451.059 319.938 450.748C320.612 450.448 321.159 449.877 321.613 449.221C322.547 447.931 323.188 446.267 324.653 445.123C325.38 444.56 326.295 444.269 327.196 444.166C328.103 444.064 329.013 444.12 329.908 444.209C333.453 444.709 337.135 444.634 340.884 444.136C342.756 443.89 344.596 443.562 346.404 443.206C347.308 443.022 348.203 442.837 349.094 442.655C349.973 442.449 350.901 442.327 351.67 442.028C352.449 441.742 352.968 441.057 352.923 440.258C352.905 439.468 352.523 438.682 352.027 438.043C350.983 436.765 349.512 435.882 348.003 435.388C344.95 434.394 341.597 435.044 339.447 436.93C337.259 438.784 336.162 441.467 336.102 443.884C336.09 446.33 337.071 448.428 337.848 450.219C338.656 452.016 339.337 453.597 339.649 454.969C339.953 456.343 339.907 457.467 339.71 458.18C339.527 458.892 339.338 459.236 339.338 459.236Z" fill="black"/>
<path d="M367.403 441.859C367.408 441.878 367.163 441.95 366.695 442.069C366.168 442.197 365.487 442.361 364.64 442.564C362.786 442.995 360.216 443.591 357.07 444.32C350.678 445.802 341.859 447.894 332.156 450.353C322.45 452.817 313.701 455.182 307.375 456.926C304.261 457.784 301.719 458.485 299.884 458.99C299.042 459.214 298.365 459.395 297.841 459.533C297.372 459.651 297.123 459.704 297.117 459.685C297.112 459.666 297.349 459.577 297.808 459.423C298.324 459.258 298.992 459.043 299.821 458.777C301.572 458.225 304.115 457.459 307.265 456.538C313.565 454.694 322.304 452.266 332.016 449.801C341.726 447.34 350.564 445.308 356.981 443.926C360.19 443.234 362.791 442.696 364.592 442.346C365.449 442.184 366.137 442.056 366.669 441.955C367.148 441.874 367.399 441.84 367.403 441.859Z" fill="black"/>
<path d="M256.083 144.014L150.654 167.506L155.068 187.314L260.496 163.822L256.083 144.014Z" fill="#E0E0E0"/>
</svg>
