<svg width="679" height="679" viewBox="0 0 679 679" fill="none" xmlns="http://www.w3.org/2000/svg">
<path d="M480.199 342.969C480.199 342.969 487.095 352.647 488.568 352.91C490.04 353.174 491.505 353.809 491.505 353.809L484.296 342.629L480.199 342.969Z" fill="#024CAA"/>
<path d="M577.864 380.301L489.298 353.301C488.175 352.959 487.539 351.769 487.871 350.627C502.113 301.678 519.668 243.758 525.546 226.816C525.929 225.714 527.103 225.11 528.204 225.447L616.835 252.466C617.969 252.812 618.602 254.021 618.252 255.169L580.549 378.848C580.199 379.996 578.996 380.646 577.864 380.301Z" fill="#EC8305"/>
<path d="M577.211 378.028L488.577 351.713L482.921 344.496L520.229 217.446L611.27 247.677L614.526 253.991L577.211 378.028Z" fill="white"/>
<path d="M577.211 378.028L570.806 368.43L610.105 245.972L614.526 253.991L577.211 378.028Z" fill="#091057"/>
<path d="M571.273 371.429L481.502 344.063C480.365 343.717 479.716 342.522 480.049 341.381C494.282 292.43 511.836 234.508 517.723 217.569C518.106 216.467 519.292 215.867 520.408 216.208L610.244 243.595C611.392 243.945 612.039 245.159 611.689 246.307L573.986 369.985C573.635 371.132 572.42 371.78 571.273 371.429Z" fill="#024CAA"/>
<path d="M487.217 345.806C487.144 345.783 495.728 317.41 506.388 282.442C517.051 247.462 525.754 219.132 525.827 219.154C525.9 219.175 517.319 247.542 506.654 282.524C495.994 317.492 487.29 345.828 487.217 345.806Z" fill="#EC8305"/>
<path d="M567.317 362.927L495.03 340.889L530.108 225.825L602.395 247.863L567.317 362.927ZM497.698 339.468L565.896 360.258L599.727 249.282L531.528 228.492L497.698 339.468Z" fill="#EC8305"/>
<path d="M541.05 343.566L525.958 338.965L524.667 343.198L539.759 347.799L541.05 343.566Z" fill="#EC8305"/>
<path d="M568.728 244.781L561.696 242.637L560.405 246.869L567.437 249.013L568.728 244.781Z" fill="#EC8305"/>
<path d="M585.051 270.768L532.055 254.612L526.294 273.507L579.291 289.663L585.051 270.768Z" fill="#EC8305"/>
<path d="M569.731 292.397L530.701 280.499L528.275 288.457L567.305 300.356L569.731 292.397Z" fill="#EC8305"/>
<path d="M517.84 234.944L512.412 233.29L511.37 236.71L516.797 238.364L517.84 234.944Z" fill="#EC8305"/>
<path d="M516.23 240.226L510.803 238.571L509.761 241.991L515.188 243.645L516.23 240.226Z" fill="#EC8305"/>
<path d="M488.361 331.63L483.336 330.099L482.294 333.517L487.319 335.049L488.361 331.63Z" fill="#EC8305"/>
<g opacity="0.3">
<path d="M512.306 253.096L506.879 251.442L488.952 310.246L494.379 311.9L512.306 253.096Z" fill="#EC8305"/>
</g>
<path d="M612.802 251.237C612.802 251.237 612.755 251.426 612.647 251.792C612.538 252.163 612.377 252.706 612.168 253.413C611.739 254.842 611.108 256.94 610.298 259.639C608.659 265.049 606.292 272.865 603.368 282.522C597.489 301.841 589.372 328.521 580.405 357.986C578.56 364.036 576.751 369.969 575.019 375.647L574.98 375.779L574.848 375.738C549.561 368.01 527.305 361.208 511.362 356.335C503.401 353.889 497.017 351.929 492.618 350.577C490.427 349.898 488.73 349.373 487.575 349.015C487.005 348.836 486.571 348.698 486.272 348.605C485.979 348.511 485.831 348.457 485.831 348.457C485.831 348.457 485.984 348.495 486.279 348.58C486.58 348.669 487.017 348.798 487.59 348.967C488.748 349.315 490.449 349.825 492.647 350.483C497.053 351.816 503.443 353.749 511.415 356.161C527.365 361.011 549.63 367.782 574.928 375.475L574.757 375.565C576.488 369.886 578.296 363.953 580.139 357.903C589.136 328.446 597.282 301.776 603.18 282.463C606.14 272.816 608.536 265.008 610.193 259.605C611.025 256.912 611.673 254.821 612.114 253.394C612.335 252.69 612.504 252.151 612.62 251.781C612.736 251.42 612.802 251.237 612.802 251.237Z" fill="#EC8305"/>
<path d="M224.092 61.06L257.04 165.935C258.035 169.101 256.148 172.45 252.924 173.24L173.119 194.035L140.333 87.19L215.719 57.0856C219.135 55.7214 222.988 57.5511 224.092 61.06Z" fill="#091057"/>
<path d="M253.349 173.324C253.224 173.363 253.098 173.398 252.969 173.43L172.987 194.271L172.931 194.092L140.093 87.0744L215.646 56.9035C217.352 56.2234 219.2 56.2818 220.856 57.0691C222.513 57.855 223.728 59.2518 224.278 61.0015L257.226 165.877C257.723 167.46 257.549 169.129 256.735 170.575C255.984 171.905 254.791 172.87 253.349 173.324Z" fill="#EC8305"/>
<path d="M212.941 57.6216L220.979 57.8972L254.791 165.52L255.488 167.745L247.664 170.189L212.941 57.6216Z" fill="#024CAA"/>
<path d="M139.944 87.0637C139.944 87.0637 164.535 67.4792 212.744 57.2322L247.663 170.354L172.114 192.302L139.944 87.0637Z" fill="white"/>
<path d="M139.944 87.0636C139.944 87.0636 139.999 87.232 140.103 87.5632C140.206 87.8944 140.358 88.3857 140.559 89.0319C140.958 90.3282 141.55 92.2476 142.318 94.7452C143.852 99.7418 146.094 107.049 148.935 116.305C154.604 134.813 162.657 161.11 172.202 192.274L172.088 192.213C194.879 185.589 220.537 178.133 247.635 170.257L247.565 170.385C247.153 169.048 246.706 167.602 246.258 166.151C233.645 125.265 221.991 87.4871 212.665 57.2565L212.76 57.3121C200.978 59.8152 190.43 62.9182 181.317 66.1868C172.202 69.4541 164.522 72.8802 158.376 75.9873C152.227 79.0943 147.609 81.8757 144.541 83.8697C143.78 84.3773 143.108 84.8253 142.528 85.2108C141.958 85.6099 141.479 85.9465 141.092 86.2166C140.352 86.7636 140.01 87.0148 139.944 87.0636C139.944 87.0636 140.035 86.9876 140.225 86.8383C140.418 86.6931 140.703 86.48 141.079 86.1976C141.463 85.9248 141.941 85.5854 142.508 85.1809C143.086 84.7913 143.757 84.3407 144.516 83.829C147.577 81.8214 152.189 79.0238 158.335 75.9031C164.479 72.7824 172.158 69.3428 181.274 66.0619C190.388 62.7797 200.94 59.6645 212.726 57.1506L212.8 57.1343L212.821 57.2063C222.157 87.4342 233.824 125.207 246.452 166.09C246.9 167.54 247.347 168.985 247.759 170.324L247.791 170.423L247.692 170.451C220.591 178.32 194.931 185.771 172.14 192.388L172.053 192.414L172.027 192.327C162.511 161.134 154.479 134.813 148.828 116.288C146.01 107.032 143.785 99.7241 142.264 94.7289C141.506 92.234 140.925 90.3173 140.533 89.0224C140.339 88.3776 140.191 87.8876 140.092 87.5564C139.991 87.2292 139.944 87.0636 139.944 87.0636Z" fill="black"/>
<path d="M143.145 85.7293C145.934 93.6905 155.253 122.839 155.253 122.839L157.492 115.336L163.401 119.207L149.847 78.8337L144.228 82.5326C143.177 83.2263 142.729 84.5416 143.145 85.7293Z" fill="#EC8305"/>
<path d="M249.964 169.481C249.964 169.481 249.927 169.386 249.863 169.196C249.8 169 249.709 168.719 249.589 168.353C249.35 167.605 249.003 166.512 248.554 165.106C247.667 162.276 246.387 158.191 244.807 153.146C241.666 143.04 237.401 129.056 232.726 113.601C228.031 98.1496 223.78 84.163 220.701 74.0327C219.147 68.9791 217.889 64.8879 217.017 62.055C216.584 60.6447 216.249 59.5479 216.018 58.7972C215.908 58.428 215.823 58.1457 215.763 57.9489C215.706 57.7575 215.683 57.657 215.683 57.657C215.683 57.657 215.719 57.752 215.783 57.9421C215.847 58.1375 215.938 58.4185 216.057 58.785C216.296 59.5329 216.645 60.6257 217.093 62.0306C217.979 64.8607 219.259 68.9438 220.839 73.9906C223.981 84.0965 228.245 98.0818 232.922 113.542C237.616 128.988 241.866 142.974 244.944 153.104C246.498 158.157 247.757 162.249 248.63 165.083C249.063 166.493 249.398 167.59 249.629 168.341C249.74 168.71 249.824 168.992 249.884 169.189C249.939 169.38 249.964 169.481 249.964 169.481Z" fill="black"/>
<path d="M252.02 168.833C251.966 168.85 244.203 144.009 234.682 113.358C225.157 82.6955 217.483 57.8334 217.537 57.8157C217.591 57.7994 225.353 82.6344 234.876 113.297C244.397 143.95 252.075 168.817 252.02 168.833Z" fill="black"/>
<path d="M53.1639 111.59L87.2699 220.151C87.8876 222.118 90.1598 223.123 92.2448 222.35L173.119 194.035C175.049 193.32 172.672 190.128 172.099 188.307L118.41 94.2279C117.837 92.4063 115.828 91.3841 113.837 91.9027L55.9859 106.943C53.8345 107.501 52.5463 109.624 53.1639 111.59Z" fill="#EC8305"/>
<path d="M64.262 104.251L100.988 217.955L172.614 192.392L140.332 87.1899L64.262 104.251Z" fill="#024CAA"/>
<path d="M70.2223 100.357C70.2223 100.357 111.529 78.4605 140.346 88.0533L172.627 193.256L106.5 215.831L70.2223 100.357Z" fill="white"/>
<path d="M70.2101 99.4933C70.4721 100.325 85.3017 147.4 106.579 214.939L106.457 214.878C125.672 208.316 146.747 201.118 168.763 193.601C170.05 193.161 171.334 192.724 172.582 192.296L172.517 192.422C160.31 152.611 149.098 116.05 140.256 87.213L140.308 87.2659C138.972 86.8872 137.673 86.4379 136.339 86.1773C136.007 86.1026 135.679 86.0279 135.349 85.9533C135.021 85.8759 134.693 85.8026 134.361 85.7551C133.7 85.6465 133.043 85.5379 132.389 85.4307C129.766 85.0737 127.187 84.8592 124.672 84.8538C122.158 84.7968 119.713 84.9515 117.347 85.1266C116.168 85.2488 115.003 85.3587 113.863 85.504C113.293 85.5827 112.728 85.6614 112.167 85.7402C111.605 85.8135 111.052 85.8976 110.503 85.9967C106.108 86.7175 102.057 87.665 98.3639 88.6762C94.6704 89.6902 91.3326 90.7721 88.3531 91.8213C82.3955 93.9266 77.8685 95.8935 74.8225 97.2835C73.2995 97.9798 72.1471 98.535 71.3747 98.9165C70.6241 99.287 70.2807 99.4581 70.2101 99.4933C70.2101 99.4933 70.5983 99.2789 71.3666 98.892C72.1349 98.5038 73.286 97.9418 74.8049 97.2374C77.8441 95.8324 82.367 93.8534 88.3246 91.7331C91.3027 90.6757 94.6419 89.5884 98.3368 88.5663C102.032 87.5482 106.085 86.594 110.484 85.8664C111.033 85.766 111.588 85.6818 112.15 85.6071C112.71 85.5284 113.276 85.4497 113.848 85.3696C114.991 85.223 116.155 85.1117 117.338 84.9882C119.708 84.8104 122.155 84.6529 124.676 84.7072C127.195 84.7099 129.782 84.9217 132.413 85.2773C133.069 85.3845 133.727 85.4931 134.391 85.6017C134.723 85.6492 135.053 85.7225 135.383 85.7999C135.713 85.8746 136.044 85.9492 136.375 86.0239C137.714 86.2845 139.019 86.7338 140.359 87.1139L140.399 87.1247L140.411 87.1668C149.264 115.999 160.489 152.557 172.713 192.364L172.741 192.458L172.648 192.49C171.397 192.916 170.115 193.355 168.828 193.795C146.812 201.308 125.735 208.502 106.519 215.06L106.427 215.091L106.398 214.997C85.2256 147.423 70.4693 100.324 70.2101 99.4933Z" fill="#EC8305"/>
<path d="M56.1787 110.52L64.262 104.251L100.988 217.955L90.2128 218.854L56.1787 110.52Z" fill="#024CAA"/>
<path d="M92.0534 215.802C92.0004 215.818 84.4465 191.93 75.1863 162.451C65.9221 132.961 58.4577 109.051 58.512 109.035C58.5663 109.018 66.1175 132.902 75.3804 162.39C84.6406 191.868 92.1063 215.785 92.0534 215.802Z" fill="#EC8305"/>
<path d="M66.1095 124.535L63.7449 145.27L75.8257 155.46L66.1095 124.535Z" fill="black"/>
<path d="M94.342 214.4C94.2877 214.416 87.0853 191.642 78.2554 163.537C69.4228 135.422 62.3087 112.625 62.363 112.607C62.4173 112.591 69.6183 135.361 78.4509 163.476C87.2794 191.581 94.3949 214.382 94.342 214.4Z" fill="#EC8305"/>
<path d="M98.0015 217.633C97.9472 217.65 90.3431 193.596 81.0191 163.916C71.691 134.224 64.1751 110.149 64.2294 110.133C64.2824 110.116 71.8852 134.164 81.2132 163.854C90.5372 193.537 98.0545 217.617 98.0015 217.633Z" fill="#EC8305"/>
<path d="M132.622 101.604C132.619 101.648 131.962 101.665 130.777 101.657C129.594 101.639 127.878 101.658 125.764 101.733C121.537 101.876 115.702 102.409 109.39 103.756C103.08 105.116 97.5373 107.024 93.6239 108.627C91.6652 109.425 90.0933 110.111 89.021 110.613C87.9432 111.106 87.3364 111.36 87.3161 111.32C87.2957 111.281 87.8645 110.953 88.911 110.391C89.9535 109.819 91.5023 109.068 93.4475 108.212C97.3351 106.495 102.898 104.504 109.254 103.133C115.612 101.776 121.501 101.311 125.751 101.282C127.877 101.265 129.598 101.315 130.783 101.409C131.97 101.494 132.625 101.561 132.622 101.604Z" fill="black"/>
<path d="M135.338 110.688C135.335 110.731 134.679 110.749 133.493 110.741C132.31 110.723 130.594 110.742 128.481 110.817C124.254 110.961 118.418 111.493 112.106 112.839C105.796 114.201 100.255 116.108 96.3401 117.711C94.3814 118.509 92.8095 119.196 91.7372 119.697C90.6594 120.19 90.0526 120.443 90.0323 120.404C90.0119 120.365 90.5806 120.036 91.6272 119.474C92.6697 118.903 94.2185 118.151 96.165 117.296C100.053 115.579 105.615 113.587 111.972 112.216C118.33 110.86 124.218 110.395 128.468 110.366C130.594 110.348 132.315 110.399 133.5 110.492C134.687 110.577 135.341 110.643 135.338 110.688Z" fill="black"/>
<path d="M138.054 119.77C138.052 119.814 137.395 119.831 136.21 119.823C135.026 119.805 133.31 119.824 131.197 119.899C126.97 120.042 121.134 120.575 114.822 121.922C108.512 123.282 102.971 125.19 99.0563 126.793C97.0976 127.592 95.5257 128.277 94.4533 128.779C93.3756 129.272 92.7688 129.526 92.7485 129.486C92.7281 129.447 93.2968 129.119 94.3434 128.557C95.3859 127.985 96.9347 127.235 98.8812 126.378C102.769 124.661 108.331 122.67 114.688 121.299C121.046 119.943 126.935 119.477 131.185 119.448C133.31 119.431 135.031 119.481 136.216 119.575C137.404 119.66 138.057 119.727 138.054 119.77Z" fill="black"/>
<path d="M140.77 128.854C140.768 128.897 140.111 128.915 138.926 128.907C137.742 128.889 136.026 128.908 133.913 128.983C129.686 129.125 123.85 129.659 117.539 131.005C111.228 132.367 105.687 134.274 101.772 135.877C99.8136 136.675 98.2418 137.361 97.1694 137.863C96.0916 138.356 95.4849 138.61 95.4645 138.57C95.4442 138.531 96.0129 138.202 97.0595 137.64C98.1019 137.069 99.6507 136.318 101.597 135.462C105.485 133.745 111.047 131.753 117.404 130.382C123.762 129.026 129.651 128.561 133.901 128.532C136.026 128.515 137.748 128.563 138.933 128.658C140.12 128.743 140.773 128.81 140.77 128.854Z" fill="black"/>
<path d="M144.319 137.988C144.316 138.031 143.659 138.049 142.474 138.041C141.29 138.023 139.575 138.042 137.461 138.117C133.234 138.259 127.399 138.793 121.087 140.138C114.776 141.498 109.234 143.407 105.321 145.01C103.362 145.808 101.79 146.493 100.718 146.996C99.64 147.488 99.0332 147.742 99.0129 147.703C98.9925 147.663 99.5612 147.335 100.608 146.773C101.65 146.201 103.199 145.451 105.144 144.594C109.032 142.877 114.594 140.886 120.951 139.515C127.309 138.159 133.198 137.693 137.448 137.665C139.573 137.647 141.295 137.697 142.48 137.791C143.667 137.877 144.32 137.944 144.319 137.988Z" fill="black"/>
<path d="M149.87 149.355C149.868 149.398 149.177 149.416 147.933 149.409C147.312 149.397 146.55 149.401 145.668 149.428C144.784 149.444 143.78 149.452 142.671 149.522C140.45 149.596 137.814 149.841 134.897 150.169C131.984 150.544 128.795 151.056 125.479 151.755C122.167 152.477 119.048 153.318 116.238 154.171C113.442 155.067 110.938 155.926 108.881 156.767C107.841 157.158 106.921 157.564 106.109 157.91C105.292 158.247 104.597 158.557 104.035 158.823C102.903 159.338 102.266 159.606 102.246 159.568C102.226 159.528 102.824 159.186 103.927 158.6C104.474 158.299 105.156 157.957 105.963 157.586C106.765 157.207 107.676 156.772 108.71 156.351C110.756 155.451 113.257 154.543 116.062 153.61C118.878 152.721 122.013 151.856 125.346 151.13C128.683 150.426 131.894 149.929 134.828 149.584C137.767 149.284 140.422 149.086 142.656 149.068C143.772 149.028 144.783 149.051 145.669 149.068C146.556 149.075 147.319 149.108 147.942 149.158C149.186 149.243 149.872 149.31 149.87 149.355Z" fill="black"/>
<path d="M153.46 160.275C153.46 160.318 152.767 160.378 151.517 160.446C150.267 160.498 148.46 160.642 146.237 160.855C141.79 161.304 135.68 162.285 129.081 164.023C122.474 165.743 116.613 167.735 112.374 169.177C110.334 169.869 108.641 170.443 107.349 170.882C106.158 171.275 105.493 171.475 105.478 171.433C105.463 171.392 106.1 171.114 107.263 170.648C108.428 170.184 110.119 169.528 112.223 168.753C116.428 167.202 122.283 165.136 128.92 163.408C135.551 161.662 141.718 160.743 146.196 160.408C148.437 160.251 150.253 160.175 151.51 160.199C152.766 160.206 153.46 160.232 153.46 160.275Z" fill="black"/>
<path d="M155.544 172.188C155.548 172.231 154.871 172.338 153.645 172.496C152.421 172.656 150.648 172.895 148.474 173.275C144.119 174 138.155 175.311 131.7 177.241C125.242 179.166 119.529 181.328 115.44 182.999C113.396 183.837 111.748 184.533 110.616 185.029C109.481 185.517 108.843 185.77 108.824 185.73C108.805 185.691 109.406 185.364 110.513 184.805C111.615 184.239 113.238 183.478 115.266 182.585C119.321 180.803 125.033 178.566 131.52 176.632C138.001 174.692 144.015 173.443 148.406 172.83C150.598 172.504 152.386 172.333 153.622 172.249C154.856 172.167 155.542 172.143 155.544 172.188Z" fill="black"/>
<path d="M203.003 75.6832C203.013 75.7266 202.263 75.9492 200.902 76.3157C199.538 76.6741 197.571 77.2184 195.151 77.9202C190.309 79.3197 183.679 81.463 176.546 84.3298C169.414 87.2075 163.149 90.2562 158.688 92.6032C156.457 93.7746 154.662 94.7452 153.43 95.432C152.194 96.1121 151.499 96.4704 151.476 96.4324C151.466 96.4134 151.622 96.2967 151.932 96.0904C152.31 95.8501 152.762 95.5623 153.305 95.2175C154.501 94.4642 156.265 93.4312 158.475 92.2068C162.891 89.7527 169.151 86.6279 176.309 83.7407C183.468 80.863 190.146 78.7794 195.03 77.4872C197.472 76.8383 199.46 76.3605 200.844 76.0755C201.475 75.9479 202 75.842 202.439 75.7538C202.804 75.6859 202.999 75.6615 203.003 75.6832Z" fill="black"/>
<path d="M212.472 94.2892C212.479 94.3095 212.289 94.3883 211.921 94.5186C211.482 94.6652 210.949 94.8416 210.307 95.0561C208.809 95.5421 206.801 96.195 204.363 96.9863C199.352 98.6329 192.464 101.02 184.97 103.951C177.476 106.89 170.799 109.814 166 112.009C163.674 113.084 161.757 113.967 160.327 114.628C159.71 114.907 159.199 115.139 158.778 115.33C158.421 115.484 158.228 115.555 158.219 115.536C158.209 115.517 158.381 115.408 158.721 115.216C159.128 114.996 159.622 114.729 160.218 114.407C161.522 113.713 163.432 112.752 165.81 111.603C170.565 109.301 177.229 106.303 184.739 103.359C192.25 100.422 199.174 98.0967 204.229 96.5574C206.755 95.7864 208.81 95.1946 210.24 94.8186C210.895 94.6502 211.439 94.5104 211.887 94.3951C212.265 94.3055 212.467 94.2688 212.472 94.2892Z" fill="black"/>
<path d="M215.047 104.966C215.054 104.988 214.861 105.068 214.49 105.204C214.046 105.356 213.505 105.542 212.853 105.766C211.332 106.267 209.292 106.94 206.812 107.759C201.712 109.44 194.686 111.813 186.983 114.597C179.279 117.385 172.36 120.057 167.365 122.026C164.936 122.983 162.937 123.772 161.448 124.358C160.803 124.604 160.27 124.806 159.831 124.973C159.459 125.107 159.258 125.169 159.25 125.148C159.242 125.128 159.425 125.027 159.781 124.855C160.207 124.658 160.726 124.419 161.351 124.129C162.721 123.508 164.716 122.647 167.195 121.608C172.151 119.53 179.053 116.789 186.767 113.997C194.48 111.21 201.537 108.901 206.676 107.328C209.246 106.541 211.331 105.927 212.781 105.528C213.447 105.349 214 105.203 214.453 105.08C214.836 104.985 215.041 104.945 215.047 104.966Z" fill="black"/>
<path d="M219.208 116.683C219.264 116.85 206.693 121.198 191.134 126.393C175.57 131.59 162.912 135.667 162.857 135.5C162.801 135.333 175.369 130.986 190.933 125.789C206.492 120.594 219.152 116.518 219.208 116.683Z" fill="black"/>
<path d="M224.475 128.03C224.529 128.197 211.957 132.429 196.397 137.482C180.832 142.537 168.174 146.496 168.119 146.329C168.065 146.162 180.635 141.931 196.2 136.876C211.76 131.825 224.42 127.863 224.475 128.03Z" fill="black"/>
<path d="M228.503 140.604C228.552 140.772 215.859 144.594 200.155 149.139C184.446 153.685 171.677 157.233 171.628 157.065C171.579 156.896 184.27 153.075 199.979 148.528C215.681 143.983 228.455 140.435 228.503 140.604Z" fill="black"/>
<path d="M229.285 153.394C229.335 153.563 218.148 157.036 204.302 161.152C190.451 165.269 179.185 168.468 179.135 168.3C179.084 168.132 190.269 164.659 204.12 160.542C217.967 156.427 229.235 153.226 229.285 153.394Z" fill="black"/>
<path d="M209.319 84.9218C209.325 84.9435 209.139 85.0154 208.779 85.1335C208.346 85.2665 207.825 85.4267 207.199 85.6208C205.729 86.0674 203.766 86.6633 201.385 87.3868C196.488 88.9084 189.77 91.1739 182.505 94.0761C175.24 96.9863 168.813 99.978 164.217 102.254C161.995 103.373 160.162 104.294 158.789 104.985C158.202 105.277 157.714 105.522 157.309 105.722C156.967 105.885 156.782 105.961 156.772 105.941C156.761 105.922 156.925 105.808 157.247 105.61C157.636 105.379 158.106 105.101 158.67 104.767C159.911 104.042 161.736 103.043 164.013 101.853C168.566 99.4704 174.982 96.404 182.269 93.4856C189.555 90.5753 196.315 88.3709 201.256 86.9565C203.727 86.2479 205.737 85.7131 207.135 85.3819C207.774 85.234 208.307 85.1118 208.748 85.01C209.117 84.9313 209.314 84.9 209.319 84.9218Z" fill="black"/>
<path d="M116.565 405.071C118.481 403.913 120.521 403.035 122.625 402.438L123.874 396.441L134.007 396.263L135.464 402.213C137.587 402.735 139.657 403.541 141.613 404.631L146.735 401.275L154.025 408.314L150.851 413.55C152.008 415.466 152.887 417.506 153.484 419.61L159.481 420.858L159.659 430.991L153.709 432.449C153.187 434.572 152.38 436.64 151.29 438.596L154.647 443.718L147.609 451.008L142.374 447.833C140.457 448.991 138.418 449.869 136.314 450.467L135.065 456.464L124.932 456.642L123.473 450.692C121.35 450.168 119.281 449.363 117.325 448.273L112.204 451.63L104.913 444.591L108.087 439.355C106.929 437.438 106.051 435.4 105.454 433.296L99.4566 432.048L99.2788 421.915L105.228 420.456C105.751 418.333 106.557 416.264 107.647 414.308L104.29 409.187L111.33 401.896L116.565 405.071ZM121.966 418.569C117.796 422.888 117.917 429.772 122.237 433.942C126.556 438.112 133.439 437.991 137.609 433.672C141.779 429.352 141.658 422.469 137.339 418.299C133.02 414.129 126.138 414.25 121.966 418.569Z" fill="#024CAA"/>
<path d="M268.099 41.1251C269.65 40.1871 271.301 39.4772 273.004 38.9939L274.014 34.1385L282.217 33.9946L283.398 38.8107C285.116 39.2342 286.793 39.8871 288.376 40.7694L292.521 38.0519L298.423 43.7516L295.853 47.9894C296.791 49.5409 297.501 51.1929 297.985 52.8951L302.84 53.905L302.984 62.1077L298.168 63.2887C297.744 65.0071 297.091 66.6822 296.209 68.2663L298.927 72.4131L293.228 78.3151L288.989 75.7455C287.438 76.6835 285.787 77.3934 284.083 77.8767L283.072 82.7321L274.869 82.876L273.688 78.0585C271.97 77.635 270.295 76.9821 268.711 76.0998L264.565 78.8173L258.663 73.119L261.233 68.8812C260.295 67.3297 259.585 65.6791 259.1 63.9755L254.245 62.9656L254.101 54.7629L258.917 53.5819C259.341 51.8634 259.994 50.1884 260.876 48.6043L258.158 44.4588L263.857 38.5568L268.099 41.1251ZM272.472 52.0535C269.096 55.5501 269.194 61.1223 272.691 64.4981C276.187 67.874 281.76 67.7762 285.135 64.2796C288.511 60.7829 288.414 55.2108 284.917 51.8349C281.42 48.4591 275.848 48.5568 272.472 52.0535Z" fill="#024CAA"/>
<path d="M575.318 146.925C577.233 145.767 579.273 144.889 581.377 144.292L582.626 138.295L592.759 138.117L594.217 144.066C596.34 144.589 598.41 145.395 600.366 146.485L605.487 143.128L612.778 150.168L609.604 155.402C610.762 157.319 611.64 159.359 612.238 161.463L618.235 162.71L618.412 172.843L612.463 174.302C611.94 176.425 611.134 178.494 610.044 180.45L613.401 185.572L606.363 192.862L601.127 189.687C599.211 190.845 597.172 191.722 595.068 192.321L593.819 198.318L583.686 198.495L582.228 192.546C580.105 192.023 578.037 191.217 576.081 190.127L570.959 193.484L563.669 186.444L566.843 181.209C565.686 179.292 564.807 177.253 564.21 175.149L558.213 173.902L558.035 163.769L563.985 162.31C564.507 160.187 565.314 158.118 566.404 156.162L563.047 151.041L570.085 143.75L575.318 146.925ZM580.719 160.423C576.547 164.742 576.67 171.626 580.989 175.796C585.308 179.965 592.192 179.845 596.361 175.525C600.531 171.206 600.411 164.323 596.091 160.153C591.772 155.983 584.89 156.104 580.719 160.423Z" fill="#EC8305"/>
<path d="M563.521 82.6235C564.668 81.9298 565.889 81.4045 567.149 81.0462L567.897 77.4545L573.966 77.3486L574.839 80.9118C576.11 81.2254 577.35 81.7072 578.521 82.3601L581.588 80.3498L585.954 84.5659L584.054 87.7015C584.748 88.8499 585.273 90.0715 585.631 91.3312L589.223 92.0791L589.33 98.1481L585.767 99.0222C585.453 100.294 584.972 101.534 584.319 102.704L586.329 105.771L582.114 110.138L578.979 108.236C577.832 108.93 576.61 109.455 575.349 109.814L574.601 113.405L568.533 113.511L567.659 109.948C566.387 109.634 565.148 109.153 563.978 108.5L560.912 110.51L556.545 106.294L558.447 103.158C557.753 102.011 557.228 100.79 556.869 99.5285L553.278 98.7806L553.172 92.7117L556.735 91.8375C557.048 90.5656 557.532 89.3277 558.183 88.1562L556.173 85.0885L560.388 80.7218L563.521 82.6235ZM566.755 90.7082C564.258 93.2954 564.33 97.4164 566.917 99.914C569.504 102.412 573.625 102.338 576.123 99.7525C578.62 97.1653 578.548 93.0442 575.961 90.5466C573.374 88.049 569.253 88.1209 566.755 90.7082Z" fill="#091057"/>
<path d="M64.2566 398.243C65.4036 397.55 66.6252 397.025 67.8849 396.666L68.6328 393.075L74.7018 392.969L75.5746 396.532C76.8464 396.845 78.0858 397.327 79.2572 397.98L82.3249 395.97L86.6917 400.186L84.7913 403.322C85.4849 404.47 86.0103 405.692 86.3686 406.951L89.9603 407.699L90.0675 413.768L86.5043 414.641C86.1908 415.913 85.7089 417.152 85.056 418.322L87.0663 421.39L82.8502 425.757L79.7146 423.855C78.5676 424.549 77.346 425.074 76.0849 425.432L75.337 429.024L69.2694 429.131L68.3953 425.568C67.1234 425.254 65.8841 424.771 64.714 424.12L61.6476 426.13L57.2809 421.914L59.1812 418.778C58.4876 417.631 57.9623 416.41 57.6039 415.149L54.0123 414.401L53.905 408.333L57.4682 407.459C57.7818 406.187 58.265 404.949 58.9165 403.778L56.9062 400.711L61.121 396.345L64.2566 398.243ZM67.4912 406.327C64.9936 408.914 65.0656 413.035 67.6528 415.533C70.24 418.03 74.361 417.957 76.8587 415.371C79.3563 412.784 79.2843 408.663 76.6971 406.165C74.1113 403.668 69.9889 403.74 67.4912 406.327Z" fill="#091057"/>
</svg>
