<svg width="671" height="664" viewBox="0 0 671 664" fill="none" xmlns="http://www.w3.org/2000/svg">
<path d="M208.636 42.1113H21.084V284.339H208.636V42.1113Z" fill="#EBEBEB"/>
<path d="M208.636 42.1113C208.487 42.3418 208.317 42.5575 208.126 42.7553L206.509 44.5673L200.175 51.5159H200.055C183.761 51.6806 151.714 51.7855 114.934 51.7855C78.1547 51.7855 46.0474 51.6806 29.814 51.5159H29.6942H29.6193L23.2847 44.5673L21.6674 42.7553C21.4773 42.5575 21.3068 42.3418 21.1582 42.1113C21.3841 42.271 21.5902 42.457 21.7722 42.6654C22.2215 43.0997 22.7755 43.6688 23.4794 44.3876L30.0087 51.1565L29.814 51.0666C46.1073 50.9019 78.1547 50.7971 114.934 50.7971C151.714 50.7971 183.821 50.9019 200.055 51.0666L199.875 51.1565C202.66 48.2513 204.832 45.995 206.389 44.3876L208.097 42.6654C208.255 42.4613 208.436 42.2755 208.636 42.1113Z" fill="#E0E0E0"/>
<path d="M21.084 284.338C21.2326 284.107 21.4031 283.891 21.5931 283.694L23.2105 281.867L29.5451 274.933L29.62 274.843H29.7398C46.048 274.678 78.0805 274.559 114.86 274.559C151.64 274.559 183.747 274.678 199.98 274.843H200.1V274.933L206.435 281.867L208.052 283.694C208.242 283.891 208.413 284.107 208.561 284.338C208.34 284.172 208.135 283.987 207.947 283.783L206.24 282.061C204.743 280.459 202.511 278.183 199.726 275.292L199.906 275.367C183.612 275.532 151.565 275.652 114.785 275.652C78.0056 275.652 45.9732 275.532 29.6649 275.367L29.8596 275.292L23.3303 282.061L21.6231 283.783C21.4597 283.983 21.2793 284.169 21.084 284.338Z" fill="#E0E0E0"/>
<path d="M199.996 51.3359H29.7402V275.114H199.996V51.3359Z" fill="white"/>
<path d="M56.3809 209.671C61.4426 204.849 68.9153 203.487 75.8489 203.681C82.7825 203.876 89.7611 205.343 96.8145 205.179C108.001 205.029 119.143 200.896 130.165 202.813C133.684 203.412 137.263 204.64 140.752 203.891C143.748 203.247 146.383 201.15 149.393 200.252C157.151 197.946 165.866 204.011 173.354 200.851V250.794H56.3809V209.671Z" fill="#EBEBEB"/>
<path d="M58.7911 211.677C58.4916 211.677 58.252 182.086 58.252 145.59C58.252 109.095 58.4916 79.5039 58.7911 79.5039C59.0906 79.5039 59.3302 109.095 59.3302 145.59C59.3302 182.086 59.0307 211.677 58.7911 211.677Z" fill="#E0E0E0"/>
<path d="M64.0638 211.677C63.7643 211.677 63.5098 182.086 63.5098 145.59C63.5098 109.095 63.7643 79.5039 64.0638 79.5039C64.3634 79.5039 64.603 109.095 64.603 145.59C64.603 182.086 64.3634 211.677 64.0638 211.677Z" fill="#E0E0E0"/>
<path d="M69.379 211.677C69.0795 211.677 68.8398 182.086 68.8398 145.59C68.8398 109.095 69.0795 79.5039 69.379 79.5039C69.6785 79.5039 69.9181 109.095 69.9181 145.59C69.9181 182.086 69.6785 211.677 69.379 211.677Z" fill="#E0E0E0"/>
<path d="M74.711 211.677C74.4115 211.677 74.1719 182.086 74.1719 145.59C74.1719 109.095 74.4115 79.5039 74.711 79.5039C75.0105 79.5039 75.2651 109.095 75.2651 145.59C75.2651 182.086 75.0105 211.677 74.711 211.677Z" fill="#E0E0E0"/>
<path d="M80.0274 211.677C79.7279 211.677 79.4883 182.086 79.4883 145.59C79.4883 109.095 79.7279 79.5039 80.0274 79.5039C80.3269 79.5039 80.5815 109.095 80.5815 145.59C80.5815 182.086 80.3269 211.677 80.0274 211.677Z" fill="#E0E0E0"/>
<path d="M85.3594 211.677C85.0599 211.677 84.8203 182.086 84.8203 145.59C84.8203 109.095 85.0599 79.5039 85.3594 79.5039C85.6589 79.5039 85.8985 109.095 85.8985 145.59C85.8985 182.086 85.6589 211.677 85.3594 211.677Z" fill="#E0E0E0"/>
<path d="M90.6908 211.677C90.3913 211.677 90.1367 182.086 90.1367 145.59C90.1367 109.095 90.3913 79.5039 90.6908 79.5039C90.9903 79.5039 91.2299 109.095 91.2299 145.59C91.2299 182.086 90.9903 211.677 90.6908 211.677Z" fill="#E0E0E0"/>
<path d="M96.0059 211.677C95.7064 211.677 95.4668 182.086 95.4668 145.59C95.4668 109.095 95.7064 79.5039 96.0059 79.5039C96.3054 79.5039 96.56 109.095 96.56 145.59C96.56 182.086 96.3054 211.677 96.0059 211.677Z" fill="#E0E0E0"/>
<path d="M101.338 211.677C101.038 211.677 100.799 182.086 100.799 145.59C100.799 109.095 101.038 79.5039 101.338 79.5039C101.637 79.5039 101.877 109.095 101.877 145.59C101.877 182.086 101.637 211.677 101.338 211.677Z" fill="#E0E0E0"/>
<path d="M106.714 211.677C106.4 211.677 106.16 182.086 106.16 145.59C106.16 109.095 106.4 79.5039 106.714 79.5039C107.029 79.5039 107.253 109.095 107.253 145.59C107.253 182.086 106.969 211.677 106.714 211.677Z" fill="#E0E0E0"/>
<path d="M111.984 211.677C111.685 211.677 111.445 182.086 111.445 145.59C111.445 109.095 111.685 79.5039 111.984 79.5039C112.284 79.5039 112.524 109.095 112.524 145.59C112.524 182.086 112.284 211.677 111.984 211.677Z" fill="#E0E0E0"/>
<path d="M117.316 211.677C117.016 211.677 116.762 182.086 116.762 145.59C116.762 109.095 117.016 79.5039 117.316 79.5039C117.615 79.5039 117.855 109.095 117.855 145.59C117.855 182.086 117.615 211.677 117.316 211.677Z" fill="#E0E0E0"/>
<path d="M122.633 211.677C122.333 211.677 122.094 182.086 122.094 145.59C122.094 109.095 122.333 79.5039 122.633 79.5039C122.932 79.5039 123.187 109.095 123.187 145.59C123.187 182.086 122.932 211.677 122.633 211.677Z" fill="#E0E0E0"/>
<path d="M127.963 211.677C127.663 211.677 127.424 182.086 127.424 145.59C127.424 109.095 127.663 79.5039 127.963 79.5039C128.262 79.5039 128.502 109.095 128.502 145.59C128.502 182.086 128.262 211.677 127.963 211.677Z" fill="#E0E0E0"/>
<path d="M133.294 211.677C132.995 211.677 132.74 182.086 132.74 145.59C132.74 109.095 132.995 79.5039 133.294 79.5039C133.594 79.5039 133.833 109.095 133.833 145.59C133.833 182.086 133.669 211.677 133.294 211.677Z" fill="#E0E0E0"/>
<path d="M138.611 211.677C138.312 211.677 138.072 182.086 138.072 145.59C138.072 109.095 138.312 79.5039 138.611 79.5039C138.911 79.5039 139.15 109.095 139.15 145.59C139.15 182.086 138.911 211.677 138.611 211.677Z" fill="#E0E0E0"/>
<path d="M143.943 211.677C143.644 211.677 143.404 182.086 143.404 145.59C143.404 109.095 143.644 79.5039 143.943 79.5039C144.243 79.5039 144.483 109.095 144.483 145.59C144.483 182.086 144.243 211.677 143.943 211.677Z" fill="#E0E0E0"/>
<path d="M149.26 211.677C148.96 211.677 148.721 182.086 148.721 145.59C148.721 109.095 148.96 79.5039 149.26 79.5039C149.559 79.5039 149.814 109.095 149.814 145.59C149.814 182.086 149.559 211.677 149.26 211.677Z" fill="#E0E0E0"/>
<path d="M154.635 211.677C154.335 211.677 154.096 182.086 154.096 145.59C154.096 109.095 154.335 79.5039 154.635 79.5039C154.934 79.5039 155.174 109.095 155.174 145.59C155.174 182.086 154.889 211.677 154.635 211.677Z" fill="#E0E0E0"/>
<path d="M159.921 211.677C159.622 211.677 159.367 182.086 159.367 145.59C159.367 109.095 159.622 79.5039 159.921 79.5039C160.221 79.5039 160.46 109.095 160.46 145.59C160.46 182.086 160.221 211.677 159.921 211.677Z" fill="#E0E0E0"/>
<path d="M165.238 211.677C164.939 211.677 164.699 182.086 164.699 145.59C164.699 109.095 164.939 79.5039 165.238 79.5039C165.538 79.5039 165.792 109.095 165.792 145.59C165.792 182.086 165.538 211.677 165.238 211.677Z" fill="#E0E0E0"/>
<path d="M170.568 211.677C170.269 211.677 170.029 182.086 170.029 145.59C170.029 109.095 170.269 79.5039 170.568 79.5039C170.868 79.5039 171.108 109.095 171.108 145.59C171.108 182.086 170.868 211.677 170.568 211.677Z" fill="#E0E0E0"/>
<path d="M643.373 152.84H470.557V169.478H643.373V152.84Z" fill="#8C4C00"/>
<path d="M546.826 58.3142C546.826 58.3142 546.826 58.2244 546.916 58.0896C547.006 57.9548 547.126 57.7002 547.26 57.4456C547.72 56.6371 548.219 55.8524 548.758 55.0945C550.729 52.2802 553.251 49.8958 556.171 48.086C558.211 46.8421 560.475 46.0079 562.835 45.63C565.564 45.2375 568.349 45.5309 570.937 46.4836C573.841 47.4993 576.291 49.5099 577.855 52.1593C579.458 54.9298 579.967 58.1495 580.85 61.3093C581.281 62.8521 581.932 64.3248 582.782 65.6821C583.679 66.9483 584.794 68.0438 586.077 68.9168C587.305 69.8303 588.608 70.654 589.776 71.6124C590.922 72.5551 591.93 73.6541 592.771 74.877C594.301 77.1372 595.355 79.6846 595.871 82.3648C596.317 84.6978 596.453 87.0795 596.275 89.4481C595.998 92.8533 595.391 96.2236 594.463 99.5116C594.164 100.68 593.894 101.593 593.714 102.192C593.634 102.508 593.534 102.818 593.415 103.121C593.456 102.797 593.521 102.477 593.609 102.162C593.774 101.503 593.984 100.665 594.253 99.4667C595.087 96.1708 595.633 92.8086 595.886 89.4182C596.022 87.0861 595.861 84.7461 595.406 82.4546C594.916 79.8308 593.897 77.3342 592.411 75.1167C591.587 73.9392 590.604 72.881 589.491 71.9718C588.338 71.0433 587.05 70.2347 585.792 69.3062C584.458 68.3961 583.296 67.2551 582.363 65.9367C581.48 64.5442 580.804 63.0309 580.356 61.4441C579.413 58.2693 578.859 55.0646 577.361 52.4588C575.858 49.9252 573.517 47.9969 570.742 47.0078C568.24 46.0682 565.543 45.7646 562.895 46.1242C560.586 46.4675 558.368 47.2613 556.366 48.4604C553.449 50.2153 550.905 52.5251 548.878 55.2592C548.159 56.2177 547.65 56.9964 547.305 57.5355C547.158 57.8025 546.998 58.0624 546.826 58.3142Z" fill="#EC8305"/>
<path d="M587.59 69.7111C586.721 68.9174 586.317 69.4715 585.164 69.7111C584.015 69.9501 582.941 70.4639 582.034 71.2086C580.06 72.8412 578.606 75.0148 577.851 77.4624C577.095 79.9099 577.071 82.5249 577.781 84.986C579.628 85.0849 581.467 84.6827 583.104 83.822C584.741 82.9613 586.115 81.674 587.08 80.0965C588.045 78.5189 588.566 76.7098 588.587 74.8605C588.608 73.0112 588.129 71.1906 587.201 69.5913" fill="#EC8305"/>
<path d="M552.323 53.6565C551.889 52.5633 551.275 52.8928 550.137 52.5783C548.996 52.2942 547.803 52.2942 546.662 52.5783C544.178 53.1994 541.929 54.5344 540.194 56.4185C538.459 58.3026 537.313 60.6534 536.898 63.1809C538.521 64.0709 540.354 64.504 542.203 64.4342C544.052 64.3644 545.848 63.7943 547.399 62.7846C548.949 61.7749 550.197 60.3634 551.009 58.7006C551.821 57.0377 552.166 55.1858 552.009 53.342" fill="#EC8305"/>
<path d="M595.346 91.4402C594.174 90.0836 592.709 89.0115 591.061 88.3052C589.413 87.5989 587.626 87.2768 585.835 87.3634C584.044 87.45 582.297 87.9429 580.725 88.8049C579.153 89.6669 577.798 90.8754 576.762 92.3387C579.401 94.746 582.834 96.0997 586.406 96.1425C590.007 96.0444 593.453 94.6514 596.11 92.2189" fill="#EC8305"/>
<path d="M592.457 75.2067C594.254 75.2584 596.04 74.9049 597.683 74.1722C599.325 73.4395 600.781 72.3465 601.944 70.9742C603.106 69.6019 603.944 67.9856 604.397 66.2451C604.849 64.5047 604.904 62.6847 604.557 60.9201C602.67 60.4841 600.7 60.5667 598.855 61.1591C597.011 61.7516 595.362 62.8318 594.082 64.2854C592.802 65.739 591.938 67.5118 591.584 69.416C591.229 71.3202 591.396 73.2849 592.067 75.1019" fill="#EC8305"/>
<path d="M580.042 56.1423C581.722 56.791 583.526 57.0527 585.321 56.908C587.116 56.7633 588.855 56.2158 590.409 55.3064C591.963 54.397 593.292 53.1489 594.298 51.6551C595.303 50.1612 595.959 48.46 596.216 46.6778C594.58 45.6499 592.698 45.0816 590.767 45.0327C588.835 44.9839 586.926 45.4562 585.241 46.4002C583.555 47.3441 582.155 48.7247 581.188 50.3968C580.22 52.069 579.721 53.9709 579.743 55.9027" fill="#EC8305"/>
<path d="M575.879 49.9123C574.2 49.2663 572.397 49.0068 570.605 49.1528C568.812 49.2989 567.075 49.8469 565.522 50.7561C563.97 51.6652 562.643 52.9123 561.638 54.4046C560.634 55.897 559.978 57.5964 559.721 59.3767C561.356 60.4047 563.239 60.9729 565.17 61.0218C567.101 61.0707 569.01 60.5983 570.696 59.6544C572.381 58.7105 573.781 57.3299 574.749 55.6577C575.716 53.9855 576.215 52.0836 576.194 50.1519" fill="#EC8305"/>
<path d="M570.952 46.5584C572.657 45.9824 574.21 45.0298 575.496 43.7712C576.783 42.5127 577.769 40.9806 578.382 39.2886C578.995 37.5967 579.218 35.7885 579.037 33.9981C578.855 32.2078 578.272 30.4815 577.332 28.9473C575.413 29.1984 573.597 29.9629 572.076 31.1602C570.555 32.3574 569.386 33.9429 568.691 35.7494C567.996 37.5559 567.802 39.5165 568.129 41.4242C568.456 43.3319 569.291 45.116 570.548 46.5883" fill="#EC8305"/>
<path d="M558.222 47.1721C558.836 45.4837 559.063 43.6787 558.885 41.8908C558.707 40.1029 558.129 38.3779 557.195 36.8435C556.26 35.3091 554.992 34.0046 553.485 33.0266C551.978 32.0485 550.27 31.422 548.488 31.1934C547.486 32.8499 546.951 34.746 546.938 36.6815C546.925 38.617 547.434 40.5202 548.412 42.1903C549.391 43.8604 550.802 45.2353 552.497 46.1702C554.192 47.105 556.107 47.565 558.042 47.5016" fill="#EC8305"/>
<path d="M609.455 134.943L616.224 90.5859L564.334 91.2448L569.456 134.359" fill="#0D4082"/>
<path d="M587.064 82.8139C585.813 83.6647 584.363 84.1791 582.855 84.3076C581.347 84.4361 579.831 84.1744 578.454 83.5477C577.11 82.7866 575.976 81.7043 575.152 80.3977C574.329 79.091 573.843 77.6007 573.736 76.06C575.059 75.39 576.506 75.004 577.987 74.9266C579.467 74.8492 580.947 75.0823 582.332 75.6107C583.684 76.2144 584.893 77.0977 585.879 78.2025C586.865 79.3073 587.606 80.6084 588.053 82.0202" fill="#8C4C00"/>
<path d="M563.344 91.9789C562.09 92.8233 560.64 93.3326 559.133 93.4584C557.625 93.5842 556.111 93.3223 554.734 92.6977C553.39 91.9479 552.254 90.877 551.426 89.5809C550.597 88.2848 550.103 86.8037 549.986 85.2699C551.309 84.5988 552.757 84.2133 554.238 84.1385C555.719 84.0636 557.199 84.3012 558.582 84.8356C559.941 85.4375 561.157 86.3216 562.149 87.4292C563.14 88.5369 563.885 89.8427 564.333 91.2601" fill="#8C4C00"/>
<path d="M576.658 71.5379C576.073 72.9326 575.142 74.1546 573.952 75.0878C572.762 76.0209 571.353 76.6341 569.859 76.8691C568.33 76.9805 566.796 76.712 565.396 76.0876C563.996 75.4631 562.771 74.5021 561.832 73.29C562.524 71.9711 563.503 70.8242 564.696 69.9336C565.89 69.043 567.268 68.4316 568.73 68.1442C570.191 67.8568 571.698 67.9009 573.14 68.2731C574.582 68.6453 575.922 69.3362 577.062 70.2949" fill="#8C4C00"/>
<path d="M567.957 82.124C569.468 82.0497 570.972 82.3629 572.327 83.0339C573.682 83.7049 574.843 84.7114 575.7 85.9577C576.451 87.2976 576.861 88.8021 576.892 90.338C576.923 91.8739 576.575 93.3938 575.879 94.7633C574.4 94.6517 572.96 94.2317 571.652 93.5301C570.344 92.8286 569.198 91.8611 568.287 90.6899C567.455 89.4733 566.889 88.0949 566.626 86.6447C566.362 85.1945 566.408 83.7051 566.759 82.2738" fill="#8C4C00"/>
<path d="M559.632 98.8523C560.342 100.189 560.697 101.685 560.663 103.198C560.629 104.711 560.207 106.19 559.437 107.493C558.535 108.746 557.337 109.756 555.949 110.433C554.561 111.11 553.028 111.432 551.485 111.372C550.952 109.987 550.719 108.504 550.801 107.022C550.884 105.54 551.28 104.093 551.964 102.776C553.327 100.29 555.783 99.0769 558.868 98.373" fill="#8C4C00"/>
<path d="M545.838 100.814C546.436 100.258 547.131 99.8159 547.89 99.5114C548.796 99.1974 549.746 99.0306 550.705 99.0172C551.986 99.0188 553.266 99.0938 554.539 99.2418C556.122 99.4484 557.731 99.3105 559.256 98.8375C560.995 98.1409 562.392 96.7919 563.149 95.0786C563.97 93.2531 564.534 91.323 564.827 89.343C565.117 87.2693 565.792 85.2681 566.818 83.4427C568.052 81.7374 569.531 80.2235 571.206 78.9501C572.813 77.7748 574.241 76.3725 575.444 74.7869C577.317 71.8997 578.058 68.4229 577.526 65.0229C577.228 62.7436 576.351 60.5784 574.98 58.7332C574.608 58.2421 574.192 57.786 573.737 57.3705C573.593 57.208 573.427 57.0668 573.243 56.9512C573.365 57.1302 573.505 57.2958 573.662 57.4454C574.076 57.8913 574.456 58.3668 574.8 58.868C576.063 60.7185 576.864 62.8444 577.137 65.0679C577.59 68.3616 576.835 71.708 575.01 74.4874C573.839 76.0528 572.453 77.4444 570.892 78.6206C569.166 79.9065 567.651 81.4524 566.399 83.2031C565.32 85.0756 564.618 87.141 564.333 89.2831C564.058 91.2196 563.519 93.1093 562.73 94.8989C562.037 96.5062 560.749 97.7832 559.136 98.4631C557.685 98.9204 556.156 99.0733 554.643 98.9123C553.355 98.7852 552.059 98.7352 550.765 98.7626C549.78 98.8061 548.809 99.0084 547.89 99.3616C547.331 99.6044 546.823 99.9498 546.392 100.38C546.269 100.487 546.158 100.608 546.063 100.739L545.838 100.814Z" fill="#8C4C00"/>
<path d="M545.838 100.814C546.436 100.258 547.131 99.8159 547.89 99.5114C548.796 99.1974 549.746 99.0306 550.705 99.0172C551.986 99.0188 553.266 99.0938 554.539 99.2418C556.122 99.4484 557.731 99.3105 559.256 98.8375C560.995 98.1409 562.392 96.7919 563.149 95.0786C563.97 93.2531 564.534 91.323 564.827 89.343C565.117 87.2693 565.792 85.2681 566.818 83.4427C568.052 81.7374 569.531 80.2235 571.206 78.9501C572.813 77.7748 574.241 76.3725 575.444 74.7869C577.317 71.8997 578.058 68.4229 577.526 65.0229C577.228 62.7436 576.351 60.5784 574.98 58.7332C574.608 58.2421 574.192 57.786 573.737 57.3705C573.593 57.208 573.427 57.0668 573.243 56.9512C573.365 57.1302 573.505 57.2958 573.662 57.4454C574.076 57.8913 574.456 58.3668 574.8 58.868C576.063 60.7185 576.864 62.8444 577.137 65.0679C577.59 68.3616 576.835 71.708 575.01 74.4874C573.839 76.0528 572.453 77.4444 570.892 78.6206C569.166 79.9065 567.651 81.4524 566.399 83.2031C565.32 85.0756 564.618 87.141 564.333 89.2831C564.058 91.2196 563.519 93.1093 562.73 94.8989C562.037 96.5062 560.749 97.7832 559.136 98.4631C557.685 98.9204 556.156 99.0733 554.643 98.9123C553.355 98.7852 552.059 98.7352 550.765 98.7626C549.78 98.8061 548.809 99.0084 547.89 99.3616C547.331 99.6044 546.823 99.9498 546.392 100.38C546.269 100.487 546.158 100.608 546.063 100.739L545.838 100.814Z" fill="#8C4C00"/>
<path d="M644.9 105.172C644.789 102.992 645.223 100.819 646.164 98.8503C647.105 96.8812 648.522 95.1779 650.287 93.8947C652.052 92.6114 654.109 91.7887 656.273 91.5011C658.436 91.2136 660.637 91.4702 662.676 92.2477C661.133 95.6822 658.731 98.6608 655.701 100.896C652.671 103.131 649.116 104.547 645.379 105.007" fill="#8C4C00"/>
<path d="M648.329 106.983C650.874 109.769 650.71 114.246 648.898 117.556C646.86 120.741 644.093 123.395 640.826 125.298C639.763 121.717 639.905 117.885 641.231 114.393C642.557 110.9 644.992 107.939 648.164 105.965" fill="#8C4C00"/>
<path d="M636.035 93.9109C635.833 95.9433 635.222 97.9139 634.238 99.7038C633.254 101.494 631.918 103.066 630.31 104.325C628.702 105.585 626.856 106.505 624.883 107.032C622.909 107.558 620.85 107.68 618.828 107.389C619.586 103.236 621.598 99.4157 624.594 96.4417C627.753 93.6712 632.71 92.6379 636.2 94.9442" fill="#8C4C00"/>
<path d="M636.126 89.7632C636.755 86.0493 640.424 83.3687 644.167 83.0093C647.976 82.8522 651.708 84.1052 654.65 86.5285C652.371 89.1364 649.186 90.78 645.74 91.126C642.294 91.443 638.854 90.4601 636.096 88.3705" fill="#8C4C00"/>
<path d="M655.458 121.331C659.022 124.326 659.95 129.792 658.453 134.24C656.75 138.648 653.638 142.37 649.602 144.827C647.921 140.463 647.355 135.748 647.955 131.11C648.28 128.798 649.16 126.599 650.522 124.703C651.884 122.807 653.685 121.269 655.772 120.223" fill="#8C4C00"/>
<path d="M636.693 79.281C635.753 77.8884 634.504 76.7313 633.044 75.8997C631.584 75.068 629.952 74.5841 628.274 74.4856C626.597 74.3871 624.919 74.6766 623.372 75.3317C621.824 75.9867 620.448 76.9897 619.352 78.2627C620.083 79.8925 621.261 81.2823 622.748 82.2719C624.236 83.2616 625.972 83.8107 627.758 83.8561C629.544 83.9015 631.307 83.4413 632.843 82.5285C634.378 81.6157 635.625 80.2875 636.439 78.697" fill="#8C4C00"/>
<path d="M632.351 68.6319C634.276 69.2177 636.303 69.3885 638.299 69.1331C640.294 68.8778 642.213 68.202 643.929 67.1505C645.644 66.0989 647.117 64.6955 648.25 63.0329C649.383 61.3703 650.15 59.4862 650.501 57.5051C647.648 57.1629 644.763 57.2032 641.92 57.6249C639.063 58.0558 636.41 59.3641 634.328 61.3688C633.386 62.2971 632.708 63.4582 632.36 64.7339C632.013 66.0096 632.01 67.3545 632.351 68.6319Z" fill="#8C4C00"/>
<path d="M624.1 65.8025C625.432 64.7165 626.506 63.3491 627.246 61.7986C627.986 60.2481 628.373 58.553 628.381 56.835C628.388 55.1169 628.014 53.4186 627.287 51.862C626.56 50.3054 625.497 48.9291 624.175 47.832C621.604 50.9671 619.854 54.6934 619.084 58.6742C618.709 60.1484 618.709 61.6928 619.084 63.1669C619.277 63.9095 619.674 64.5834 620.229 65.1127C620.785 65.6419 621.477 66.0053 622.229 66.162" fill="#8C4C00"/>
<path d="M609.887 91.9495V91.65C609.887 91.4253 609.887 91.1558 609.887 90.7964C609.887 90.0476 609.768 88.9394 609.753 87.5167C609.572 83.498 610.224 79.4853 611.669 75.7311C612.716 73.1688 614.341 70.8831 616.417 69.052C618.795 66.9538 621.872 65.8213 625.042 65.8772C626.74 65.8917 628.409 66.3128 629.909 67.1052C631.469 67.9333 632.774 69.1706 633.683 70.6844C635.44 74.0126 636.194 77.7786 635.855 81.5266C635.487 85.3188 635.402 89.133 635.6 92.9378C635.792 94.7641 636.272 96.5484 637.023 98.2242C637.729 99.8604 638.824 101.3 640.213 102.417C641.579 103.411 643.096 104.179 644.705 104.694C646.165 105.181 647.57 105.819 648.898 106.595C651.239 108.057 653.139 110.128 654.394 112.586C655.435 114.616 655.979 116.864 655.982 119.145C655.991 120.871 655.712 122.587 655.158 124.222C654.652 125.603 653.994 126.924 653.196 128.16C653.196 128.16 653.271 128.16 653.376 127.935C653.481 127.711 653.675 127.561 653.885 127.247C654.503 126.312 655.006 125.306 655.383 124.251C655.986 122.6 656.3 120.858 656.311 119.1C656.358 116.766 655.845 114.455 654.814 112.361C653.478 109.828 651.473 107.71 649.018 106.236C646.457 104.529 643.028 104.11 640.452 102.058C637.853 99.7039 636.283 96.4234 636.079 92.9229C635.888 89.1476 635.978 85.3633 636.349 81.6014C636.697 77.74 635.906 73.8611 634.073 70.4447C633.113 68.8479 631.735 67.5432 630.089 66.6709C628.512 65.8485 626.761 65.417 624.983 65.413C621.672 65.3439 618.459 66.5379 615.997 68.7525C613.881 70.6374 612.234 72.9914 611.19 75.6262C610.351 77.7568 609.816 79.9953 609.603 82.2753C609.426 84.0115 609.376 85.7583 609.453 87.5018C609.453 88.9244 609.618 90.0326 609.708 90.7814C609.708 91.1258 609.782 91.4104 609.812 91.635C609.842 91.8596 609.887 91.9495 609.887 91.9495Z" fill="#8C4C00"/>
<path d="M534.308 82.6796C533.828 81.4671 533.564 80.1796 533.529 78.8759C533.506 77.3522 533.856 75.846 534.547 74.4881C535.282 73.0838 536.361 71.8893 537.684 71.017C539.007 70.1446 540.53 69.623 542.11 69.5013C543.369 69.4205 544.632 69.5676 545.839 69.9355C548.385 70.5945 550.9 72.0471 553.911 72.6461C555.454 72.9948 557.06 72.9537 558.583 72.5263C560.167 72.0126 561.516 70.9506 562.387 69.5312C564.199 66.7158 564.708 63.1966 566.879 60.5459C567.962 59.2953 569.373 58.3721 570.953 57.8803C572.498 57.3831 574.13 57.2148 575.745 57.3861C578.828 57.716 581.673 59.1975 583.712 61.5343C585.574 63.6234 586.941 66.1062 587.71 68.7974C588.407 71.1473 588.705 73.5971 588.594 76.0455C588.384 79.6061 587.934 83.1484 587.246 86.6481C587.036 87.8462 586.871 88.8046 586.752 89.5084C586.752 89.8229 586.677 90.0625 586.647 90.2572C586.64 90.3469 586.64 90.437 586.647 90.5268C586.647 90.5268 586.647 90.4369 586.722 90.2722C586.797 90.1074 586.827 89.8379 586.886 89.5384C587.036 88.8345 587.246 87.8911 587.5 86.6781C588.251 83.1789 588.752 79.6308 588.998 76.0605C589.132 73.5651 588.848 71.0648 588.159 68.6626C587.403 65.8962 586.031 63.3366 584.146 61.1749C583.101 59.9885 581.872 58.9773 580.507 58.1798C579.066 57.396 577.482 56.9121 575.85 56.7572C574.161 56.5642 572.451 56.7327 570.833 57.2513C569.143 57.7739 567.633 58.7596 566.475 60.0967C564.154 62.8821 563.66 66.4313 561.982 69.0819C561.193 70.4165 559.949 71.4215 558.478 71.9123C557.038 72.3194 555.52 72.3606 554.06 72.0321C551.17 71.478 548.639 70.0553 546.018 69.3814C544.762 69.0083 543.447 68.8662 542.14 68.9621C540.931 69.0651 539.752 69.3954 538.666 69.9355C536.781 70.8458 535.253 72.3581 534.323 74.2335C533.647 75.6319 533.323 77.1741 533.379 78.7261C533.404 79.7086 533.591 80.6802 533.933 81.6014C534.02 81.973 534.145 82.3345 534.308 82.6796Z" fill="#8C4C00"/>
<path d="M564.662 63.8399C563.28 64.6735 561.719 65.1642 560.109 65.2711C558.499 65.3779 556.886 65.0977 555.407 64.4539C554.061 63.6949 552.926 62.6132 552.102 61.3061C551.279 59.999 550.793 58.5076 550.689 56.9662C551.998 56.2533 553.449 55.8435 554.937 55.767C556.425 55.6906 557.911 55.9494 559.286 56.5245C560.66 57.0996 561.888 57.9761 562.878 59.0894C563.868 60.2027 564.595 61.5242 565.006 62.9564" fill="#8C4C00"/>
<path d="M554.822 72.7657C554.814 74.3797 554.42 75.9683 553.672 77.3986C552.924 78.829 551.845 80.0595 550.524 80.9872C549.183 81.7365 547.677 82.1424 546.14 82.1685C544.604 82.1946 543.085 81.8402 541.719 81.137C541.787 79.6502 542.189 78.1979 542.895 76.8874C543.601 75.577 544.592 74.4419 545.795 73.5663C546.999 72.6906 548.384 72.0967 549.848 71.8285C551.312 71.5603 552.817 71.6247 554.253 72.0169" fill="#8C4C00"/>
<path d="M537.752 70.7902C536.289 71.4711 534.684 71.7925 533.072 71.7274C531.459 71.6622 529.886 71.2125 528.482 70.4158C527.225 69.5237 526.206 68.3357 525.517 66.9566C524.827 65.5776 524.488 64.05 524.529 62.5087C525.906 61.942 527.393 61.6915 528.88 61.7757C530.367 61.8598 531.817 62.2765 533.121 62.9949C534.426 63.7134 535.553 64.7154 536.419 65.9271C537.286 67.1388 537.869 68.5294 538.126 69.9965" fill="#8C4C00"/>
<path d="M578.993 57.9397C580.249 56.8729 581.236 55.525 581.873 54.0055C582.511 52.486 582.781 50.8376 582.662 49.194C582.337 47.692 581.644 46.2941 580.646 45.1257C579.647 43.9574 578.375 43.0552 576.941 42.5C575.902 43.5618 575.098 44.8307 574.582 46.2241C574.066 47.6175 573.849 49.104 573.946 50.5867C574.131 52.0607 574.628 53.4785 575.402 54.7462C576.177 56.0138 577.212 57.1024 578.439 57.9397" fill="#8C4C00"/>
<path d="M645.635 45.7205C645.61 45.6415 645.575 45.566 645.531 45.4958L645.186 44.8519C644.872 44.2978 644.377 43.4891 643.689 42.5008C641.694 39.6808 639.146 37.2963 636.201 35.4922C634.16 34.2483 631.897 33.4141 629.537 33.0363C626.807 32.6438 624.023 32.9371 621.435 33.8899C618.536 34.9146 616.088 36.9229 614.516 39.5656C612.929 42.336 612.405 45.5557 611.521 48.7156C611.093 50.2593 610.443 51.7325 609.59 53.0884C608.689 54.3511 607.574 55.4459 606.295 56.3231C605.067 57.2366 603.764 58.0602 602.596 59.0187C601.45 59.9617 600.442 61.0606 599.601 62.2833C598.07 64.5414 597.02 67.0901 596.516 69.771C596.059 72.1026 595.918 74.4851 596.097 76.8544C596.386 80.2777 596.992 83.6668 597.909 86.9778C598.223 88.1459 598.478 89.0444 598.657 89.6584C598.737 89.974 598.837 90.2841 598.957 90.5869C598.917 90.2628 598.852 89.9423 598.762 89.6284C598.613 88.9695 598.388 88.1309 598.118 86.9329C597.285 83.6375 596.743 80.2749 596.501 76.8843C596.352 74.5528 596.508 72.2119 596.965 69.9208C597.456 67.297 598.475 64.8003 599.96 62.5828C600.804 61.3975 601.813 60.3386 602.955 59.438C604.094 58.5095 605.381 57.7008 606.639 56.7723C607.971 55.8581 609.131 54.7177 610.069 53.4029C610.952 52.0104 611.628 50.497 612.075 48.9102C613.019 45.7354 613.573 42.5157 615.071 39.925C616.555 37.3549 618.891 35.3843 621.675 34.3541C624.178 33.419 626.875 33.1205 629.522 33.4855C631.832 33.8381 634.051 34.642 636.051 35.8517C638.971 37.6021 641.516 39.9127 643.539 42.6505C644.258 43.6089 644.767 44.3877 645.111 44.9268C645.263 45.206 645.438 45.4716 645.635 45.7205Z" fill="#8C4C00"/>
<path d="M604.858 57.1466C605.726 56.3529 606.145 56.907 607.299 57.1466C608.443 57.3856 609.512 57.8996 610.413 58.6442C612.387 60.2767 613.841 62.4503 614.597 64.8979C615.352 67.3455 615.377 69.9604 614.666 72.4216C612.819 72.5227 610.979 72.1217 609.341 71.2611C607.704 70.4004 606.33 69.1124 605.365 67.5336C604.401 65.9549 603.882 64.1444 603.864 62.2945C603.846 60.4446 604.329 58.6242 605.262 57.0268" fill="#8C4C00"/>
<path d="M640.123 41.0921C640.557 39.9989 641.171 40.3283 642.309 40.0138C643.45 39.7298 644.643 39.7298 645.784 40.0138C648.27 40.6315 650.521 41.9653 652.257 43.85C653.992 45.7348 655.137 48.0875 655.548 50.6165C653.923 51.4966 652.091 51.9215 650.244 51.8463C648.398 51.7711 646.606 51.1985 645.058 50.1892C643.51 49.1798 642.264 47.771 641.451 46.1118C640.637 44.4525 640.287 42.6044 640.438 40.7626" fill="#8C4C00"/>
<path d="M597.099 78.8757C598.271 77.5191 599.737 76.4471 601.385 75.7408C603.032 75.0344 604.819 74.7124 606.61 74.7989C608.401 74.8855 610.148 75.3785 611.72 76.2405C613.292 77.1025 614.648 78.3109 615.684 79.7742C613.04 82.1756 609.61 83.5283 606.039 83.578C602.464 83.4622 599.048 82.0704 596.41 79.6544" fill="#8C4C00"/>
<path d="M599.989 62.6427C598.192 62.6945 596.406 62.3409 594.763 61.6082C593.121 60.8755 591.665 59.7825 590.502 58.4102C589.34 57.038 588.502 55.4217 588.049 53.6812C587.597 51.9407 587.542 50.1207 587.889 48.3561C589.775 47.9236 591.742 48.0079 593.584 48.6001C595.426 49.1923 597.074 50.2705 598.354 51.7209C599.635 53.1714 600.5 54.9405 600.859 56.8416C601.218 58.7427 601.057 60.7055 600.394 62.5229" fill="#8C4C00"/>
<path d="M612.404 43.5778C610.724 44.2265 608.92 44.4882 607.125 44.3435C605.33 44.1988 603.591 43.6514 602.037 42.742C600.483 41.8325 599.154 40.5845 598.149 39.0906C597.143 37.5968 596.488 35.8955 596.23 34.1134C597.866 33.0854 599.749 32.5171 601.68 32.4683C603.611 32.4194 605.52 32.8918 607.205 33.8357C608.891 34.7796 610.291 36.1602 611.259 37.8324C612.226 39.5045 612.725 41.4065 612.703 43.3382" fill="#8C4C00"/>
<path d="M616.567 37.3478C618.246 36.7019 620.049 36.4423 621.842 36.5884C623.635 36.7345 625.372 37.2824 626.924 38.1916C628.476 39.1008 629.804 40.3478 630.808 41.8402C631.812 43.3326 632.468 45.032 632.726 46.8123C631.09 47.8402 629.208 48.4085 627.276 48.4573C625.345 48.5062 623.436 48.0338 621.751 47.0899C620.065 46.146 618.665 44.7654 617.697 43.0932C616.73 41.4211 616.231 39.5192 616.253 37.5874" fill="#8C4C00"/>
<path d="M621.525 33.9939C619.82 33.4179 618.267 32.4653 616.98 31.2068C615.694 29.9482 614.708 28.4161 614.095 26.7242C613.482 25.0323 613.258 23.224 613.44 21.4337C613.622 19.6434 614.205 17.917 615.145 16.3828C617.059 16.6431 618.868 17.4143 620.381 18.6152C621.894 19.8162 623.055 21.4025 623.743 23.2075C624.431 25.0125 624.62 26.9696 624.291 28.8729C623.961 30.7762 623.124 32.5556 621.869 34.0239" fill="#8C4C00"/>
<path d="M634.237 34.6077C633.623 32.916 633.398 31.1075 633.578 29.3167C633.758 27.5259 634.34 25.7988 635.279 24.2636C636.219 22.7284 637.492 21.4246 639.005 20.4491C640.517 19.4736 642.23 18.8515 644.016 18.6289C645.018 20.2854 645.553 22.1815 645.566 24.117C645.58 26.0526 645.07 27.9558 644.092 29.6258C643.113 31.2959 641.702 32.6709 640.007 33.6057C638.312 34.5405 636.397 35.0005 634.462 34.9371" fill="#8C4C00"/>
<path d="M616.882 129.807L612.913 134.943H564.078L560.754 129.807H616.882Z" fill="#0D4082"/>
<path d="M567.312 109.576C567.312 109.576 567.402 109.726 567.612 109.981C567.925 110.345 568.26 110.69 568.615 111.014C569.911 112.223 571.38 113.233 572.973 114.009C575.355 115.17 577.949 115.832 580.596 115.956C582.163 116.031 583.734 115.9 585.268 115.566C586.895 115.187 588.484 114.661 590.015 113.994C593.16 112.646 596.005 111.119 598.821 110.235C601.249 109.353 603.861 109.101 606.413 109.501C608.132 109.797 609.74 110.547 611.071 111.673C611.999 112.481 612.359 113.17 612.404 113.05C612.339 112.898 612.259 112.752 612.164 112.616C611.888 112.216 611.572 111.844 611.22 111.508C609.899 110.281 608.259 109.45 606.488 109.112C603.867 108.632 601.167 108.849 598.656 109.741C595.811 110.624 592.905 112.152 589.806 113.47C588.301 114.107 586.742 114.608 585.148 114.967C583.674 115.292 582.165 115.433 580.656 115.387C578.065 115.292 575.519 114.681 573.168 113.59C571.021 112.561 569.046 111.207 567.312 109.576Z" fill="#EC8305"/>
<path d="M566.834 105.757C566.834 105.757 566.924 105.907 567.163 106.146C567.403 106.386 567.747 106.715 568.227 107.12C571.689 109.939 575.97 111.563 580.432 111.747C581.996 111.818 583.563 111.713 585.104 111.433C586.75 111.109 588.368 110.653 589.941 110.07C593.161 108.902 596.111 107.554 598.926 106.775C601.4 105.983 604.017 105.743 606.594 106.071C608.31 106.324 609.948 106.958 611.386 107.928C612.389 108.632 612.883 109.171 612.883 109.141C612.883 109.111 612.794 108.992 612.569 108.737C612.249 108.373 611.892 108.042 611.506 107.749C610.069 106.665 608.387 105.955 606.609 105.682C603.977 105.292 601.292 105.492 598.747 106.266C595.856 107.045 592.876 108.393 589.687 109.546C588.141 110.115 586.554 110.566 584.939 110.894C583.459 111.172 581.952 111.287 580.447 111.238C577.872 111.123 575.337 110.556 572.959 109.561C570.752 108.58 568.691 107.3 566.834 105.757Z" fill="#EC8305"/>
<path d="M549.881 85.8848H540.102V152.84H549.881V85.8848Z" fill="#0D4082"/>
<path d="M548.683 95.0033C545.916 95.5624 543.064 95.5624 540.297 95.0033C543.064 94.4442 545.916 94.4442 548.683 95.0033Z" fill="#EC8305"/>
<path d="M548.863 93.5521C546.095 94.1112 543.244 94.1112 540.477 93.5521C543.244 92.993 546.095 92.993 548.863 93.5521Z" fill="#EC8305"/>
<path d="M548.683 147.658C545.916 148.217 543.064 148.217 540.297 147.658C543.064 147.099 545.916 147.099 548.683 147.658Z" fill="#FAFAFA"/>
<path d="M548.863 146.204C546.095 146.764 543.244 146.764 540.477 146.204C543.244 145.645 546.095 145.645 548.863 146.204Z" fill="#FAFAFA"/>
<path d="M544.31 137.46C544.07 137.46 543.891 129.792 543.891 120.328C543.891 110.863 544.07 103.211 544.31 103.211C544.55 103.211 544.729 110.863 544.729 120.328C544.729 129.792 544.535 137.46 544.31 137.46Z" fill="#EC8305"/>
<path d="M509.628 85.6738H491.732V152.629H509.628V85.6738Z" fill="#EC8305"/>
<path d="M495.925 153.484C495.925 153.484 495.835 153.379 495.715 153.124C495.595 152.87 495.416 152.51 495.206 152.016C494.593 150.577 494.155 149.068 493.903 147.524C493.454 145.024 493.822 142.446 494.951 140.171C495.707 138.76 496.797 137.557 498.126 136.666C499.63 135.63 501.469 135.197 503.278 135.453C504.263 135.608 505.186 136.033 505.943 136.681C506.358 137.021 506.688 137.452 506.908 137.941C507.129 138.429 507.235 138.961 507.216 139.497C507.175 140.048 507.02 140.585 506.763 141.075C506.505 141.564 506.15 141.995 505.719 142.342C504.874 143.064 503.829 143.514 502.724 143.63C501.564 143.723 500.398 143.565 499.305 143.167C498.212 142.769 497.217 142.14 496.389 141.324C494.6 139.632 493.483 137.35 493.244 134.899C492.991 132.365 493.308 129.807 494.173 127.412C494.97 124.855 496.494 122.586 498.561 120.882C499.67 120.009 501.016 119.488 502.424 119.385C503.162 119.319 503.906 119.42 504.6 119.679C505.295 119.938 505.923 120.349 506.438 120.882C506.986 121.447 507.311 122.192 507.351 122.979C507.377 123.754 507.162 124.517 506.737 125.165C505.901 126.424 504.606 127.306 503.128 127.621C501.699 127.901 500.222 127.805 498.842 127.343C497.461 126.881 496.224 126.069 495.251 124.986C493.464 122.876 492.39 120.255 492.181 117.498C491.879 114.866 492.145 112.201 492.96 109.681C493.721 107.191 495.36 105.063 497.572 103.691C498.616 103.016 499.803 102.596 501.039 102.466C502.275 102.336 503.524 102.499 504.685 102.942C505.268 103.171 505.783 103.541 506.186 104.02C506.589 104.498 506.866 105.07 506.992 105.682C507.096 106.269 507.078 106.872 506.939 107.451C506.8 108.031 506.543 108.576 506.183 109.052C505.453 109.878 504.494 110.47 503.428 110.752C502.362 111.035 501.237 110.995 500.193 110.639C498.324 109.987 496.678 108.819 495.446 107.27C493.269 104.692 492.015 101.461 491.882 98.0897C491.796 95.5624 492.363 93.0557 493.529 90.8117C494.252 89.4021 495.203 88.1219 496.344 87.0229C496.637 86.7343 496.947 86.4642 497.273 86.2142L497.617 85.9746C496.062 87.3934 494.778 89.0832 493.828 90.9614C492.731 93.1608 492.216 95.6046 492.331 98.0598C492.51 101.311 493.758 104.411 495.88 106.88C497.054 108.328 498.611 109.417 500.373 110.025C501.291 110.336 502.28 110.369 503.218 110.122C504.155 109.874 504.999 109.356 505.644 108.632C505.947 108.236 506.164 107.781 506.28 107.296C506.396 106.811 506.409 106.307 506.318 105.817C506.214 105.319 505.985 104.855 505.652 104.47C505.319 104.085 504.894 103.791 504.416 103.616C503.364 103.232 502.237 103.099 501.125 103.227C500.012 103.354 498.945 103.738 498.006 104.349C495.969 105.629 494.455 107.594 493.738 109.89C492.974 112.308 492.734 114.861 493.035 117.378C493.228 119.97 494.228 122.437 495.895 124.432C496.771 125.404 497.883 126.135 499.124 126.552C500.365 126.969 501.692 127.059 502.978 126.813C504.237 126.543 505.342 125.797 506.063 124.731C506.412 124.247 506.581 123.657 506.543 123.061C506.505 122.466 506.261 121.902 505.854 121.466C505.416 121.035 504.888 120.707 504.308 120.505C503.728 120.303 503.11 120.232 502.499 120.298C501.253 120.402 500.066 120.871 499.085 121.646C497.151 123.249 495.721 125.375 494.966 127.771C494.136 130.045 493.824 132.475 494.053 134.884C494.246 137.166 495.269 139.297 496.928 140.875C497.676 141.625 498.577 142.206 499.569 142.578C500.561 142.95 501.622 143.104 502.679 143.031C503.642 142.99 504.563 142.625 505.291 141.994C506.02 141.363 506.514 140.504 506.692 139.557C506.707 139.115 506.621 138.676 506.439 138.274C506.257 137.871 505.985 137.516 505.644 137.236C504.976 136.658 504.163 136.275 503.293 136.127C501.627 135.883 499.929 136.268 498.531 137.206C497.278 138.037 496.25 139.163 495.536 140.485C494.408 142.664 494.009 145.146 494.397 147.569C494.611 149.102 494.987 150.608 495.521 152.061C495.73 152.96 495.955 153.469 495.925 153.484Z" fill="#FAFAFA"/>
<path d="M549.896 134.944V152.84H616.852V134.944H549.896Z" fill="#EC8305"/>
<path d="M616.102 148.645C615.988 148.725 615.868 148.795 615.743 148.855C615.503 148.975 615.144 149.154 614.65 149.364C613.235 149.976 611.752 150.413 610.232 150.667C607.781 151.115 605.25 150.747 603.029 149.619C601.652 148.851 600.48 147.761 599.614 146.444C598.607 144.927 598.186 143.096 598.431 141.292C598.58 140.311 598.995 139.39 599.629 138.627C599.959 138.214 600.378 137.884 600.856 137.66C601.334 137.437 601.857 137.327 602.385 137.339C602.924 137.387 603.448 137.545 603.924 137.802C604.401 138.06 604.819 138.411 605.155 138.836C605.863 139.688 606.306 140.73 606.428 141.831C606.52 142.989 606.366 144.154 605.977 145.248C605.587 146.342 604.97 147.342 604.167 148.181C602.53 149.96 600.298 151.079 597.892 151.326C595.422 151.57 592.929 151.252 590.599 150.397C588.089 149.59 585.871 148.065 584.22 146.009C583.36 144.892 582.84 143.551 582.722 142.146C582.652 141.416 582.741 140.68 582.981 139.987C583.221 139.295 583.608 138.662 584.115 138.132C584.662 137.583 585.392 137.252 586.166 137.204C586.923 137.188 587.666 137.408 588.293 137.833C589.531 138.68 590.395 139.973 590.704 141.442C590.975 142.866 590.88 144.335 590.43 145.712C589.98 147.089 589.188 148.33 588.128 149.319C586.051 151.072 583.471 152.12 580.76 152.314C578.193 152.606 575.593 152.34 573.138 151.535C570.703 150.758 568.637 149.117 567.327 146.923C566.671 145.871 566.265 144.683 566.141 143.45C566.016 142.217 566.176 140.971 566.608 139.81C566.821 139.231 567.177 138.716 567.643 138.312C568.11 137.909 568.671 137.631 569.274 137.503C569.849 137.398 570.44 137.416 571.008 137.556C571.576 137.695 572.107 137.953 572.569 138.312C573.368 139.061 573.935 140.024 574.2 141.086C574.466 142.149 574.419 143.266 574.066 144.302C573.434 146.162 572.293 147.807 570.772 149.049C568.264 151.217 565.098 152.473 561.786 152.614C559.317 152.698 556.868 152.13 554.688 150.966C553.306 150.242 552.055 149.291 550.989 148.151C550.709 147.855 550.444 147.545 550.195 147.222C550.105 147.119 550.029 147.003 549.971 146.878C551.337 148.433 552.983 149.718 554.823 150.667C556.969 151.762 559.364 152.278 561.771 152.164C564.954 151.98 567.982 150.73 570.367 148.615C571.797 147.441 572.863 145.882 573.437 144.123C573.747 143.204 573.783 142.216 573.541 141.277C573.299 140.339 572.789 139.491 572.074 138.836C571.69 138.539 571.247 138.327 570.775 138.214C570.302 138.1 569.811 138.088 569.334 138.177C568.847 138.29 568.395 138.523 568.021 138.856C567.647 139.188 567.362 139.609 567.192 140.079C566.791 141.16 566.651 142.32 566.784 143.465C566.916 144.611 567.318 145.708 567.956 146.668C569.182 148.696 571.103 150.208 573.362 150.921C575.712 151.688 578.201 151.934 580.655 151.64C583.199 151.44 585.613 150.433 587.544 148.765C588.497 147.879 589.209 146.766 589.615 145.53C590.021 144.294 590.107 142.975 589.865 141.697C589.613 140.443 588.882 139.337 587.829 138.612C587.363 138.259 586.788 138.085 586.205 138.121C585.623 138.157 585.072 138.4 584.654 138.806C584.232 139.25 583.911 139.779 583.712 140.358C583.513 140.937 583.441 141.552 583.501 142.161C583.601 143.407 584.059 144.598 584.819 145.59C586.37 147.519 588.453 148.95 590.809 149.708C593.025 150.539 595.402 150.851 597.757 150.622C599.99 150.41 602.068 149.387 603.598 147.747C604.334 146.988 604.902 146.082 605.264 145.088C605.625 144.095 605.772 143.036 605.694 141.981C605.663 141.031 605.311 140.119 604.697 139.394C604.083 138.668 603.242 138.171 602.31 137.983C601.875 137.967 601.442 138.054 601.047 138.236C600.652 138.418 600.305 138.691 600.034 139.031C599.471 139.704 599.098 140.516 598.955 141.382C598.724 143.044 599.095 144.733 600.004 146.144C600.816 147.386 601.915 148.413 603.208 149.139C605.335 150.261 607.769 150.66 610.142 150.277C611.649 150.072 613.127 149.69 614.545 149.139C615.578 148.84 616.087 148.615 616.102 148.645Z" fill="#FAFAFA"/>
<path d="M539.862 91.5762H508.818V152.556H539.862V91.5762Z" fill="#8C4C00"/>
<path d="M538.785 101.744C533.805 102.176 528.805 102.321 523.809 102.178C518.813 102.321 513.813 102.176 508.834 101.744C513.814 101.331 518.814 101.191 523.809 101.324C528.805 101.191 533.804 101.331 538.785 101.744Z" fill="#EC8305"/>
<path d="M539.174 106.327C534.239 106.75 529.284 106.89 524.333 106.746C519.388 106.89 514.438 106.75 509.508 106.327C514.438 105.912 519.388 105.772 524.333 105.907C529.284 105.772 534.239 105.912 539.174 106.327Z" fill="#EC8305"/>
<path d="M540.163 145.65C534.968 146.074 529.754 146.214 524.544 146.07C519.339 146.214 514.129 146.074 508.939 145.65C514.124 145.216 519.328 145.056 524.529 145.171C529.745 145.055 534.964 145.215 540.163 145.65Z" fill="#E0E0E0"/>
<path d="M539.743 140.214C534.684 140.658 529.604 140.813 524.528 140.679C519.452 140.823 514.372 140.678 509.312 140.244C514.373 139.83 519.452 139.69 524.528 139.825C529.603 139.68 534.682 139.81 539.743 140.214Z" fill="#E0E0E0"/>
<path d="M277.658 541.377H203.545V560.98H277.658V541.377Z" fill="#FAFAFA"/>
<path d="M246.33 581.646C246.319 581.526 246.319 581.406 246.33 581.286V580.283C246.33 579.355 246.33 578.067 246.33 576.419C246.33 573.035 246.33 568.168 246.195 562.043L246.434 562.268L172.321 562.417L172.695 562.043V571.972C172.695 575.236 172.695 578.451 172.695 581.616L172.321 581.242L225.139 581.406L240.744 581.511H244.952H245.985H244.922H240.789L225.289 581.616L172.201 581.796H171.842V581.421C171.842 578.261 171.842 575.042 171.842 571.777V561.848L172.231 561.459L246.345 561.609H246.569V561.848C246.569 568.033 246.479 572.945 246.449 576.36C246.449 577.992 246.449 579.265 246.449 580.178C246.449 580.568 246.449 580.882 246.449 581.137C246.427 581.31 246.387 581.481 246.33 581.646Z" fill="#E0E0E0"/>
<path d="M163.875 315.668H89.7617V335.271H163.875V315.668Z" fill="#FAFAFA"/>
<path d="M132.546 355.936C132.536 355.817 132.536 355.696 132.546 355.577V354.573C132.546 353.645 132.546 352.357 132.546 350.71C132.546 347.325 132.472 342.458 132.427 336.318L132.651 336.558L58.5378 336.708C58.7025 336.528 58.1484 337.082 58.9122 336.318V346.277C58.9122 349.542 58.9122 352.761 58.9122 355.921L58.5528 355.547L111.371 355.712L126.961 355.816H131.169H132.277H132.666H132.172H131.109H126.976L111.476 355.921L58.433 356.326H58.0586V346.292C58.0586 344.645 58.0586 342.997 58.0586 341.335V336.333L58.4479 335.959L132.561 336.109H132.786V336.333C132.786 342.533 132.696 347.445 132.666 350.86C132.666 352.492 132.666 353.765 132.666 354.663C132.666 355.068 132.666 355.382 132.666 355.637C132.633 355.739 132.593 355.839 132.546 355.936Z" fill="#E0E0E0"/>
<path d="M558.344 276.76C558.344 276.76 558.344 276.626 558.344 276.401V275.398C558.344 274.469 558.344 273.181 558.344 271.534C558.344 268.15 558.344 263.283 558.209 257.143L558.434 257.382L484.32 257.532L484.695 257.143V276.745L484.32 276.371L537.139 276.536L552.728 276.641H556.951H558.044H558.434H558.104H557.041H552.908L537.393 276.745L484.32 276.91H483.961V257.158L484.335 256.783L558.449 256.933H558.688V257.158C558.688 263.357 558.584 268.269 558.554 271.684C558.554 273.316 558.554 274.589 558.554 275.488V276.461C558.498 276.57 558.428 276.671 558.344 276.76Z" fill="#E0E0E0"/>
<path d="M568.407 257.143C568.385 257.019 568.385 256.892 568.407 256.768C568.407 256.499 568.407 256.154 568.407 255.735C568.407 254.776 568.407 253.459 568.332 251.811C568.332 248.367 568.242 243.515 568.182 237.54L568.452 237.809L523.93 237.914L524.304 237.54V247.633C524.304 250.913 524.304 254.088 524.304 257.128L523.945 256.768L555.797 256.948L565.082 257.038H567.583H568.482C568.212 257.058 567.942 257.058 567.673 257.038H565.232L556.037 257.143L523.945 257.307H523.585V256.933C523.585 253.938 523.585 250.718 523.585 247.438V237.345C523.495 237.435 524.289 236.626 523.96 236.971L568.482 237.075H568.766V237.345C568.766 243.335 568.646 248.292 568.616 251.781C568.616 253.399 568.616 254.776 568.542 255.645C568.467 256.514 568.422 257.173 568.407 257.143Z" fill="#E0E0E0"/>
<path d="M303.716 39.5645C303.709 39.4497 303.709 39.3348 303.716 39.22V38.2017V34.353C303.716 30.9686 303.716 26.1015 303.596 19.9616L303.82 20.1863L229.707 20.336L230.081 19.9616V29.8604C230.081 33.135 230.081 36.3497 230.081 39.5046L229.722 39.1452L282.54 39.3099L298.13 39.4147H302.338H303.446H303.835C303.835 39.4147 303.731 39.4147 303.491 39.4147H302.443H298.295L282.795 39.5195L229.722 39.6843H229.348V19.9916L229.722 19.6172L303.835 19.7669H304.075V19.9916C304.075 26.1914 303.985 31.1033 303.955 34.5177C303.955 36.1501 303.955 37.408 303.955 38.3215V39.2949C303.731 39.4746 303.731 39.5794 303.716 39.5645Z" fill="#E0E0E0"/>
<path d="M313.764 19.9623C313.764 19.9623 313.764 19.8275 313.764 19.5879C313.764 19.3483 313.764 18.9739 313.764 18.5546C313.764 17.5812 313.764 16.2783 313.764 14.616C313.764 11.1866 313.674 6.31963 313.614 0.35941L313.884 0.628968L269.362 0.733796L269.736 0.35941V5.43608C269.736 7.11333 269.736 8.79058 269.736 10.4229C269.736 13.7025 269.736 16.8923 269.736 19.9323L269.377 19.5729L301.245 19.7376L310.514 19.8425H313.015H313.914C313.645 19.8642 313.374 19.8642 313.105 19.8425H310.679L301.484 19.9473L269.377 20.112H269.018V10.393C269.018 8.76063 269.018 7.08338 269.018 5.40613V0.389362L269.407 0L313.929 0.119803H314.198V0.389362C314.198 6.37953 314.094 11.3364 314.064 14.8107C314.064 16.443 314.064 17.8058 314.064 18.6893C313.991 19.1195 313.891 19.5447 313.764 19.9623Z" fill="#E0E0E0"/>
<path d="M599.045 606.206C599.034 606.086 599.034 605.966 599.045 605.846C599.045 605.592 599.045 605.247 599.045 604.843C599.045 603.915 599.045 602.627 599.045 600.979C599.045 597.595 598.97 592.728 598.91 586.603L599.15 586.828L525.037 586.977L525.411 586.603V596.532C525.411 599.796 525.411 603.011 525.411 606.176L525.051 605.801L577.87 605.966L593.459 606.071H597.667H598.776H599.165H598.82H597.757H593.624L578.124 606.176L525.051 606.341H524.527V605.966C524.527 602.801 524.527 599.587 524.527 596.322V586.393L524.917 586.004L599.03 586.154H599.255V586.393C599.255 592.578 599.165 597.49 599.135 600.904C599.135 602.537 599.135 603.81 599.135 604.723C599.135 605.113 599.135 605.427 599.135 605.682C599.124 605.859 599.094 606.035 599.045 606.206Z" fill="#E0E0E0"/>
<path d="M609.095 586.587C609.083 586.468 609.083 586.347 609.095 586.228C609.095 585.943 609.095 585.599 609.095 585.18C609.095 584.221 609.095 582.903 609.02 581.256C609.02 577.812 608.945 572.96 608.885 566.984L609.155 567.254L564.618 567.359L564.992 566.984V577.078C564.992 580.357 564.992 583.532 564.992 586.572L564.633 586.228L596.486 586.393L605.77 586.497H608.271H609.17C608.901 586.518 608.63 586.518 608.361 586.497H605.935L596.74 586.602L564.633 586.782H564.273V586.408C564.273 583.413 564.273 580.193 564.273 576.913V566.82L564.648 566.445L609.185 566.55H609.454V566.82C609.454 572.81 609.349 577.767 609.305 581.256C609.305 582.888 609.305 584.176 609.305 585.12C609.305 586.063 609.11 586.617 609.095 586.587Z" fill="#E0E0E0"/>
<path d="M444.319 415.763C444.306 415.643 444.306 415.523 444.319 415.403C444.319 415.149 444.319 414.819 444.319 414.4C444.319 413.486 444.319 412.198 444.319 410.551C444.319 407.167 444.244 402.3 444.184 396.16L444.424 396.384L370.311 396.534L370.685 396.16V406.088C370.685 409.363 370.685 412.578 370.685 415.733L370.311 415.373L423.144 415.538L438.733 415.643H442.941H444.05H444.439H444.095H443.031H438.898L423.398 415.748L370.311 415.912H369.951V415.538C369.951 412.393 369.951 409.178 369.951 405.894V395.965C370.715 395.201 370.161 395.755 370.341 395.591L444.454 395.74H444.679V395.965C444.679 402.165 444.589 407.077 444.559 410.491C444.559 412.109 444.559 413.381 444.559 414.295V415.253C444.504 415.434 444.423 415.605 444.319 415.763Z" fill="#E0E0E0"/>
<path d="M454.369 396.159C454.358 396.034 454.358 395.909 454.369 395.784C454.369 395.5 454.369 395.155 454.369 394.751C454.369 393.778 454.37 392.475 454.295 390.812C454.295 387.368 454.22 382.516 454.16 376.556L454.429 376.825L409.892 376.93L410.267 376.556V386.619C410.267 389.899 410.267 393.074 410.267 396.129L409.907 395.769L441.76 395.934L451.045 396.039H453.546H454.444C454.175 396.06 453.905 396.06 453.636 396.039H451.21L442.015 396.129L409.907 396.308H409.548V395.949C409.548 392.894 409.548 389.724 409.548 386.44V376.376C409.458 376.451 410.267 375.657 409.922 375.987L454.459 376.092H454.729V376.376C454.729 382.366 454.624 387.323 454.579 390.797C454.579 392.43 454.579 393.718 454.579 394.676C454.579 395.634 454.384 396.174 454.369 396.159Z" fill="#E0E0E0"/>
<path d="M660.806 662.887C660.806 663.097 512.864 663.277 330.418 663.277C147.972 663.277 0 663.097 0 662.887C0 662.678 147.897 662.498 330.418 662.498C512.938 662.498 660.806 662.663 660.806 662.887Z" fill="#263238"/>
<path d="M174.599 354.514C158.53 362.84 146.145 377.171 137.355 392.956C128.564 408.74 122.784 426.036 117.198 443.183L112.256 531.838C130.945 500.03 145.951 462.636 150.009 425.976L137.564 424.868C145.906 423.595 152.914 417.545 157.362 410.372C161.81 403.199 164.116 394.947 166.347 386.816L151.177 389.062C163.133 380.983 171.52 368.611 174.599 354.514Z" fill="#EC8305"/>
<g opacity="0.3">
<path d="M174.599 354.512C158.53 362.838 146.145 377.17 137.355 392.954C128.564 408.738 122.784 426.034 117.198 443.181L112.256 531.836C130.945 500.028 145.951 462.634 150.009 425.974L137.564 424.866C145.906 423.593 152.914 417.543 157.362 410.37C161.81 403.197 164.116 394.945 166.347 386.814L151.177 389.06C163.133 380.981 171.52 368.609 174.599 354.512Z" fill="black"/>
</g>
<path d="M109.411 552.654C109.411 552.654 68.8273 504.088 69.2766 457.709H85.7496C85.7496 457.709 67.8839 445.999 69.2766 439.454C70.6693 432.91 71.1635 408.006 71.1635 408.006L86.139 411.75C86.139 411.75 74.9074 406.134 73.4997 397.239C72.092 388.343 76.7643 347.176 76.7643 347.176C76.7643 347.176 95.0344 366.389 100.725 386.112C106.416 405.835 121.092 428.732 116.764 488.679C112.436 548.625 109.411 552.654 109.411 552.654Z" fill="#EC8305"/>
<path d="M129.987 557.236C129.987 557.236 173.955 527.944 183.719 490.566L170.541 486.986C170.541 486.986 187.418 481.46 187.718 475.89C188.017 470.319 193.079 450.252 193.079 450.252L180.2 449.982C180.2 449.982 190.473 447.916 193.543 440.997C196.613 434.078 201.869 399.994 201.869 399.994C201.869 399.994 182.985 411.435 174.165 426.021C165.344 440.608 148.467 455.823 138.823 504.972C129.179 554.121 129.987 557.236 129.987 557.236Z" fill="#EC8305"/>
<path d="M87.875 389.527C87.9409 389.692 87.9911 389.862 88.0248 390.037L88.3842 391.534C88.6837 392.897 89.118 394.829 89.6721 397.3C90.2261 399.77 90.8851 402.87 91.5889 406.435C92.2928 409.999 93.0865 414.072 93.985 418.58C95.7221 427.565 97.5641 438.347 99.451 450.328C101.338 462.308 103.105 475.531 104.722 489.428C106.34 503.326 107.553 516.609 108.511 528.709C109.47 540.809 110.009 551.696 110.428 560.861C110.668 565.444 110.772 569.592 110.877 573.231C110.982 576.87 111.072 580.015 111.087 582.576C111.102 585.136 111.087 587.068 111.087 588.476V589.973C111.1 590.148 111.1 590.323 111.087 590.498C111.072 590.323 111.072 590.148 111.087 589.973C111.087 589.584 111.087 589.075 111.087 588.476C111.087 587.068 110.967 585.091 110.877 582.576C110.787 580.06 110.698 576.87 110.533 573.231C110.368 569.592 110.233 565.459 109.979 560.876C109.544 551.726 108.811 540.824 107.882 528.739C106.954 516.654 105.636 503.4 104.048 489.503C102.461 475.606 100.619 462.413 98.822 450.432C97.025 438.452 95.198 427.685 93.5357 418.67C92.742 414.177 91.9333 410.089 91.2595 406.509C90.5856 402.93 89.9716 399.845 89.4624 397.345C88.9532 394.844 88.5938 392.927 88.3093 391.549C88.2045 390.92 88.0996 390.411 88.0397 390.051C87.9676 389.883 87.9124 389.707 87.875 389.527Z" fill="#263238"/>
<path d="M103.72 582.455C103.72 582.455 66.5807 540.314 55.0496 514.855L63.7653 511.127C57.4457 512.175 50.9913 509.464 46.0943 505.346C41.1973 501.228 37.6032 495.807 34.114 490.475L45.5851 488.529C35.0374 485.51 26.0622 478.536 20.5312 469.061C34.0091 471.292 46.304 478.72 56.4723 488.004C64.4779 495.711 71.7521 504.144 78.2016 513.193C81.4261 517.537 84.234 522.175 86.5879 527.045C92.8326 539.969 103.81 566.925 103.72 582.455Z" fill="#EC8305"/>
<path d="M184.303 424.584C184.267 424.737 184.206 424.884 184.123 425.018C183.989 425.333 183.794 425.737 183.554 426.246L181.308 430.919C179.316 434.962 176.486 440.847 173.087 448.155C169.687 455.463 165.719 464.209 161.481 473.988C157.243 483.767 152.825 494.609 148.377 506.065C143.929 517.522 139.961 528.528 136.487 538.652C133.012 548.775 130.062 557.85 127.681 565.608C125.3 573.365 123.428 579.55 122.17 583.878C121.541 586.004 121.047 587.666 120.673 588.864L120.268 590.152C120.232 590.304 120.177 590.45 120.104 590.587C120.113 590.433 120.143 590.282 120.193 590.137C120.193 589.793 120.388 589.359 120.523 588.82L121.856 583.803C123.009 579.445 124.851 573.17 127.127 565.443C129.403 557.716 132.353 548.566 135.768 538.487C139.182 528.409 143.256 517.357 147.613 505.871C151.971 494.384 156.599 483.557 160.792 473.778C164.985 463.999 169.088 455.164 172.607 447.916C176.127 440.668 178.987 434.797 181.054 430.784L183.45 426.171L184.094 424.988C184.152 424.848 184.222 424.712 184.303 424.584Z" fill="#263238"/>
<path d="M106.94 600.425C106.845 600.175 106.785 599.913 106.76 599.646C106.655 599.047 106.535 598.314 106.385 597.415C106.101 595.468 105.622 592.668 104.888 589.208C104.154 585.749 103.271 581.721 102.058 577.228C100.845 572.735 99.2571 567.898 97.3852 562.882C95.5133 557.865 93.4167 553.208 91.395 549.014C89.3733 544.821 87.3816 541.167 85.5995 538.127C83.8175 535.087 82.3499 532.676 81.2716 531.029L80.0736 529.112C79.9142 528.898 79.788 528.66 79.6992 528.408C79.8893 528.591 80.0553 528.797 80.1934 529.022L81.5262 530.864C82.6793 532.452 84.2368 534.848 86.0189 537.858C87.8009 540.868 89.8975 544.537 92.009 548.7C94.1206 552.863 96.1422 557.565 97.9992 562.597C99.8562 567.629 101.414 572.541 102.642 577.048C103.87 581.556 104.723 585.659 105.337 589.134C105.951 592.608 106.341 595.423 106.535 597.385L106.76 599.646C106.846 599.899 106.906 600.16 106.94 600.425Z" fill="#263238"/>
<path d="M155.924 590.543H74.6523V607.121H155.924V590.543Z" fill="#8C4C00"/>
<path d="M82.4082 607.119L91.1988 662.888H140.303L148.495 607.119H82.4082Z" fill="#8C4C00"/>
<path d="M150.953 607.12C150.953 607.33 135.573 607.509 116.614 607.509C97.6552 607.509 82.2754 607.33 82.2754 607.12C82.2754 606.91 97.6402 606.73 116.614 606.73C135.588 606.73 150.953 606.91 150.953 607.12Z" fill="#263238"/>
<path d="M529.426 341.023C529.882 342.147 530.076 343.361 529.995 344.572C530.284 343.142 530.832 341.777 531.612 340.543C531.911 340.079 532.376 339.585 532.9 339.72C533.424 339.855 533.604 340.528 533.619 341.068C533.676 342.577 533.335 344.075 532.63 345.41C533.606 344.18 534.865 343.204 536.299 342.565C536.421 342.5 536.558 342.465 536.696 342.465C536.835 342.465 536.971 342.5 537.093 342.565C537.378 342.73 537.377 343.119 537.333 343.449C537.134 344.708 536.617 345.896 535.831 346.9C535.045 347.903 534.015 348.69 532.84 349.184L532.061 349.289C530.387 348.833 528.947 347.763 528.028 346.291C527.109 344.82 526.779 343.056 527.104 341.352C527.224 340.708 527.584 339.959 528.243 339.944C528.901 339.929 529.216 340.469 529.426 341.023Z" fill="#EC8305"/>
<path d="M546.857 375.794C544.594 374.364 542.094 373.349 539.474 372.799C541.025 367.478 541.097 361.835 539.684 356.476C539.181 354.345 538.243 352.341 536.928 350.59C536.261 349.725 535.424 349.005 534.468 348.475C533.513 347.944 532.46 347.614 531.372 347.505C530.198 347.482 529.033 347.726 527.967 348.219C526.9 348.711 525.96 349.441 525.217 350.351L522.492 356.655C522.323 357.571 522.213 358.496 522.162 359.426C521.833 365.562 523.212 371.668 526.146 377.067C524.285 379.017 522.872 381.35 522.008 383.904C521.144 386.457 520.849 389.168 521.144 391.848H553.521C553.859 388.827 553.424 385.769 552.259 382.962C551.093 380.154 549.235 377.688 546.857 375.794Z" fill="#455A64"/>
<path d="M524.695 379.119C524.695 379.119 524.77 378.984 524.935 378.775C525.189 378.447 525.458 378.132 525.744 377.831C526.796 376.741 528.008 375.817 529.338 375.091C531.309 373.998 533.477 373.306 535.717 373.054C538.475 372.697 541.279 373.089 543.833 374.191C546.386 375.293 548.596 377.062 550.228 379.314C551.581 381.1 552.568 383.136 553.134 385.304C553.517 386.769 553.674 388.284 553.598 389.797C553.586 390.208 553.546 390.618 553.478 391.025C553.465 391.167 553.435 391.308 553.388 391.444C553.492 389.428 553.29 387.409 552.789 385.454C552.208 383.33 551.216 381.341 549.869 379.598C548.264 377.429 546.113 375.724 543.636 374.656C541.158 373.588 538.441 373.195 535.762 373.518C533.572 373.742 531.447 374.388 529.502 375.42C527.717 376.394 526.095 377.643 524.695 379.119Z" fill="#263238"/>
<path d="M521.984 361.794C521.891 361.083 521.891 360.363 521.984 359.652C522.03 357.912 522.323 356.188 522.853 354.53C523.395 352.855 524.347 351.342 525.623 350.128C526.124 349.594 526.753 349.197 527.45 348.975C527.45 348.975 526.761 349.439 525.863 350.367C524.706 351.605 523.837 353.083 523.317 354.695C522.81 356.317 522.479 357.989 522.329 359.682C522.282 360.395 522.167 361.103 521.984 361.794Z" fill="#263238"/>
<path d="M540.703 387.775C541.627 386.677 542.628 385.646 543.698 384.69C544.666 383.616 545.712 382.614 546.828 381.695C546.084 382.95 545.144 384.078 544.043 385.035C543.077 386.115 541.951 387.039 540.703 387.775Z" fill="#263238"/>
<path d="M537.094 385.902C537.114 384.809 537.291 383.725 537.618 382.682C537.811 381.608 538.148 380.565 538.621 379.582C538.619 380.676 538.442 381.763 538.097 382.802C537.92 383.88 537.582 384.925 537.094 385.902Z" fill="#263238"/>
<path d="M527.525 382.295C528.334 383.16 528.96 384.179 529.367 385.29C529.915 386.316 530.251 387.441 530.356 388.6C529.772 387.604 529.271 386.562 528.858 385.485C528.323 384.462 527.877 383.395 527.525 382.295Z" fill="#263238"/>
<path d="M537.889 367.183C539.199 364.868 540.8 362.729 542.651 360.818C542.065 362.005 541.33 363.112 540.464 364.113C539.74 365.242 538.874 366.273 537.889 367.183Z" fill="#263238"/>
<path d="M535.596 357.061C536.29 355.63 537.122 354.271 538.082 353.002C538.909 351.65 539.873 350.385 540.957 349.229C540.28 350.665 539.451 352.026 538.486 353.287C537.656 354.642 536.688 355.907 535.596 357.061Z" fill="#263238"/>
<path d="M532.017 359.711C532.322 360.828 532.473 361.982 532.467 363.14C532.63 364.288 532.63 365.452 532.467 366.6C532.152 365.484 532 364.329 532.017 363.17C531.846 362.024 531.846 360.858 532.017 359.711Z" fill="#263238"/>
<path d="M517.402 364.324C519.03 364.907 520.575 365.697 522 366.675C523.518 367.494 524.926 368.5 526.193 369.67C524.643 368.9 523.143 368.035 521.7 367.08C520.212 366.252 518.776 365.331 517.402 364.324Z" fill="#263238"/>
<g opacity="0.3">
<path d="M529.022 373.038C530.638 372.186 532.436 371.738 534.263 371.735C535.198 371.591 536.153 371.65 537.062 371.908C537.972 372.167 538.815 372.619 539.534 373.233C534.744 372.949 530.016 374.424 526.236 377.381C526.292 376.48 526.578 375.608 527.065 374.848C527.553 374.088 528.226 373.465 529.022 373.038Z" fill="black"/>
</g>
<path d="M544.446 309.468C545.373 309.211 546.346 309.17 547.291 309.348C546.199 308.99 545.183 308.431 544.296 307.7C543.967 307.431 543.622 307.027 543.772 306.622C543.922 306.218 544.461 306.158 544.895 306.188C546.078 306.29 547.213 306.698 548.19 307.371C547.318 306.491 546.676 305.412 546.318 304.226C546.269 304.131 546.244 304.026 546.244 303.919C546.244 303.812 546.269 303.707 546.318 303.612C546.468 303.403 546.782 303.432 547.022 303.507C547.992 303.775 548.876 304.289 549.587 305C550.298 305.712 550.813 306.596 551.08 307.566V308.18C550.566 309.447 549.592 310.474 548.355 311.055C547.115 311.629 545.707 311.725 544.401 311.325C543.922 311.16 543.368 310.8 543.413 310.291C543.458 309.782 543.997 309.587 544.446 309.468Z" fill="#EC8305"/>
<path d="M609.74 268.091C609.905 269.033 609.859 270 609.605 270.922C610.058 269.867 610.697 268.903 611.492 268.076C611.792 267.762 612.226 267.462 612.615 267.642C613.005 267.822 613.035 268.376 612.96 268.795C612.748 269.971 612.232 271.071 611.462 271.985C612.406 271.188 613.533 270.638 614.742 270.382C614.839 270.334 614.947 270.308 615.056 270.308C615.165 270.308 615.273 270.334 615.371 270.382C615.55 270.562 615.491 270.862 615.371 271.101C615.017 272.044 614.426 272.88 613.655 273.528C612.883 274.176 611.958 274.614 610.968 274.8H610.354C609.143 274.173 608.209 273.116 607.735 271.836C607.262 270.557 607.282 269.147 607.793 267.882C607.988 267.402 608.392 266.893 608.901 266.983C609.411 267.073 609.65 267.627 609.74 268.091Z" fill="#EC8305"/>
<path d="M564.274 352.732C564.768 352.732 565.202 352.732 565.667 352.852C566.505 343.597 563.705 334.208 566.535 325.372L566.161 325.852C562.754 326.392 559.266 326.083 556.007 324.953C554.386 324.374 552.9 323.471 551.639 322.3C550.377 321.129 549.367 319.713 548.669 318.139C547.994 316.56 547.777 314.822 548.042 313.125C548.306 311.428 549.043 309.839 550.167 308.54C553.372 305.185 559.003 305.365 563.031 307.671C567.059 309.978 569.62 313.662 572.166 317.301C573.507 316.242 574.995 315.384 576.584 314.755C572.091 308.615 567.808 302.16 566.4 294.748C564.903 286.631 567.898 277.017 575.386 273.617C581.81 270.727 589.852 273.348 594.375 278.739C594.734 279.158 595.033 279.607 595.348 280.057L595.198 279.622C596.305 276.762 598.495 274.454 601.293 273.198C602.687 272.59 604.203 272.312 605.722 272.384C607.242 272.457 608.724 272.879 610.054 273.617C611.366 274.378 612.455 275.47 613.211 276.784C613.968 278.099 614.367 279.588 614.367 281.105C614.231 282.814 613.641 284.456 612.659 285.862C611.678 287.267 610.339 288.386 608.781 289.102C605.766 290.446 602.393 290.762 599.182 290C599.601 292.855 599.601 295.756 599.182 298.611C597.977 305.061 595.508 311.209 591.919 316.702C592.867 317.33 593.746 318.058 594.539 318.873C600.365 324.968 600.739 334.747 597.684 342.594C594.629 350.441 586.393 356.222 580.657 362.407C583.003 366.682 584.498 371.37 585.06 376.214C586.068 374.119 587.638 372.345 589.594 371.089C591.551 369.833 593.817 369.145 596.142 369.101C598.643 369.101 601.428 370.239 602.207 372.62C602.896 374.701 601.742 376.978 600.26 378.61C598.373 380.5 596.041 381.884 593.479 382.635C590.917 383.386 588.207 383.48 585.599 382.908V381.41C585.791 384.906 585.706 388.411 585.344 391.893H548.355C548.355 391.893 538.486 351.834 564.274 352.732Z" fill="#455A64"/>
<path d="M506.021 407.393H593.418V391.908H506.021V407.393Z" fill="#EC8305"/>
<path d="M586.887 404.322L576.269 450.596H524.17L512.549 404.322H586.887Z" fill="#EC8305"/>
<path d="M506.064 407.408C506.064 407.573 525.787 407.723 550.092 407.723C574.397 407.723 594.12 407.573 594.12 407.408C594.12 407.243 574.412 407.094 550.092 407.094C525.772 407.094 506.064 407.243 506.064 407.408Z" fill="#263238"/>
<path d="M557.475 354.259C557.629 354.139 557.801 354.043 557.984 353.975C558.465 353.716 558.965 353.496 559.481 353.316C561.438 352.665 563.508 352.426 565.561 352.612C568.62 352.887 571.564 353.916 574.127 355.607C577.218 357.738 579.742 360.591 581.48 363.919C583.228 367.22 584.417 370.787 584.999 374.476C585.438 377.481 585.633 380.516 585.583 383.551C585.583 386.127 585.494 388.224 585.434 389.661C585.434 390.335 585.434 390.889 585.434 391.324C585.45 391.513 585.45 391.703 585.434 391.893C585.415 391.704 585.415 391.513 585.434 391.324C585.434 390.889 585.434 390.335 585.434 389.661C585.434 388.164 585.434 386.082 585.434 383.551C585.428 380.543 585.198 377.54 584.745 374.566C584.145 370.935 582.962 367.426 581.241 364.173C579.542 360.91 577.081 358.106 574.067 355.997C571.569 354.341 568.707 353.314 565.726 353.002C563.713 352.793 561.679 352.976 559.736 353.541C558.149 353.915 557.475 354.319 557.475 354.259Z" fill="#263238"/>
<path d="M565.233 334.656C565.217 334.507 565.217 334.356 565.233 334.207C565.233 333.922 565.233 333.503 565.233 332.949C565.241 331.39 565.426 329.838 565.787 328.322C566.289 326.056 567.154 323.887 568.348 321.897C569.042 320.717 569.871 319.621 570.819 318.632C571.833 317.556 572.998 316.633 574.278 315.892C575.569 315.161 576.962 314.626 578.411 314.305C579.757 314.037 581.13 313.937 582.499 314.005C584.82 314.146 587.099 314.683 589.238 315.592C590.673 316.197 592.042 316.945 593.327 317.824C593.776 318.123 594.105 318.408 594.33 318.573C594.555 318.737 594.674 318.857 594.659 318.872C594.645 318.887 594.15 318.558 593.162 317.988C591.853 317.178 590.475 316.487 589.044 315.922C586.936 315.058 584.699 314.552 582.425 314.424C581.089 314.376 579.752 314.482 578.441 314.739C577.054 315.047 575.718 315.551 574.473 316.236C573.226 316.943 572.094 317.837 571.118 318.887C570.186 319.849 569.368 320.914 568.677 322.062C567.487 324.001 566.604 326.113 566.056 328.322C565.682 329.793 565.451 331.298 565.368 332.814C565.263 334.042 565.278 334.641 565.233 334.656Z" fill="#263238"/>
<path d="M599.571 295.572C599.381 294.585 599.276 293.583 599.257 292.577C599.257 291.664 599.092 290.57 598.897 289.387C598.704 288.096 598.352 286.833 597.849 285.628C596.922 283.437 595.794 281.337 594.479 279.354C593.461 277.856 592.697 276.988 592.757 276.928C592.981 277.078 593.183 277.26 593.356 277.467C593.86 278.001 594.33 278.566 594.764 279.159C596.184 281.11 597.37 283.221 598.298 285.449C598.823 286.682 599.176 287.983 599.346 289.312C599.502 290.384 599.587 291.464 599.601 292.547C599.68 293.554 599.67 294.567 599.571 295.572Z" fill="#263238"/>
<path d="M594.809 378.625C595.738 379.111 596.586 379.737 597.324 380.482C598.163 381.114 598.905 381.866 599.526 382.713C598.591 382.23 597.737 381.603 596.995 380.856C596.159 380.226 595.422 379.474 594.809 378.625Z" fill="#263238"/>
<path d="M597.91 375.54C598.918 375.194 599.974 375.007 601.04 374.986C602.092 374.817 603.163 374.817 604.215 374.986C602.155 375.499 600.03 375.706 597.91 375.6V375.54Z" fill="#263238"/>
<path d="M595.559 370.088C596.068 369.228 596.654 368.416 597.311 367.662C597.836 366.809 598.427 365.998 599.078 365.236C598.847 366.236 598.38 367.165 597.715 367.947C597.174 368.82 596.436 369.554 595.559 370.088Z" fill="#263238"/>
<path d="M591.423 367.588C591.389 368.801 591.198 370.004 590.854 371.167C590.663 372.364 590.305 373.528 589.791 374.626C589.835 373.414 590.031 372.211 590.375 371.047C590.558 369.85 590.911 368.685 591.423 367.588Z" fill="#263238"/>
<path d="M588.654 380.077C588.564 379.972 589.148 379.298 589.957 378.579C590.765 377.86 591.454 377.336 591.589 377.441C591.724 377.546 591.095 378.22 590.286 378.939C589.477 379.657 588.744 380.167 588.654 380.077Z" fill="#263238"/>
<path d="M575.805 377.651C576.208 376.892 576.746 376.212 577.392 375.644C578.365 374.626 579.234 373.892 579.339 373.982C578.935 374.741 578.397 375.421 577.752 375.989C576.778 377.007 575.91 377.741 575.805 377.651Z" fill="#263238"/>
<path d="M573.02 365.791C573.672 364.14 574.616 362.618 575.805 361.299C575.162 362.955 574.217 364.479 573.02 365.791Z" fill="#263238"/>
<path d="M564.844 356.133C565.205 358.176 565.245 360.262 564.964 362.318C564.705 361.311 564.608 360.27 564.679 359.233C564.57 358.197 564.626 357.151 564.844 356.133Z" fill="#263238"/>
<path d="M547.682 359.412C548.573 360.291 549.389 361.243 550.123 362.257C550.988 363.185 551.769 364.188 552.459 365.253C551.406 364.548 550.487 363.661 549.748 362.632C548.874 361.689 548.174 360.599 547.682 359.412Z" fill="#263238"/>
<path d="M545.496 376.258C546.506 376.23 547.514 376.346 548.491 376.602C549.527 376.716 550.538 376.994 551.486 377.426C550.476 377.471 549.465 377.355 548.491 377.082C547.455 376.971 546.443 376.693 545.496 376.258Z" fill="#263238"/>
<path d="M563.285 382.144C563.762 379.784 564.858 377.593 566.46 375.795C566.018 376.894 565.487 377.956 564.873 378.97C564.422 380.066 563.892 381.127 563.285 382.144Z" fill="#263238"/>
<path d="M557.356 374.056C556.997 372.412 556.956 370.714 557.236 369.055C557.496 369.861 557.597 370.71 557.536 371.556C557.641 372.393 557.58 373.243 557.356 374.056Z" fill="#263238"/>
<path d="M576.51 388.315C576.632 387.374 576.987 386.478 577.543 385.709C577.971 384.858 578.611 384.131 579.4 383.598C578.977 384.432 578.476 385.225 577.903 385.964C577.509 386.788 577.043 387.574 576.51 388.315Z" fill="#263238"/>
<path d="M556.188 389.482C555.611 388.765 555.16 387.955 554.855 387.086C554.409 386.278 554.115 385.395 553.986 384.48C555.009 386.005 555.754 387.699 556.188 389.482Z" fill="#263238"/>
<path d="M587.771 351.834C588.888 351.629 590.027 351.583 591.156 351.699C592.291 351.654 593.426 351.775 594.525 352.058C592.275 352.313 590 352.238 587.771 351.834Z" fill="#263238"/>
<path d="M595.139 339.286C597.201 337.42 599.479 335.806 601.923 334.479C600.945 335.471 599.854 336.346 598.673 337.084C597.589 337.96 596.402 338.699 595.139 339.286Z" fill="#263238"/>
<path d="M594.375 323.095C595.209 322.439 596.095 321.853 597.026 321.343C597.863 320.687 598.749 320.096 599.676 319.576C598.316 321.27 596.464 322.5 594.375 323.095Z" fill="#263238"/>
<path d="M586.123 317.389C586.203 316.052 586.444 314.73 586.842 313.451C587.083 312.131 587.48 310.844 588.025 309.617C587.955 310.954 587.719 312.277 587.321 313.556C587.076 314.877 586.674 316.164 586.123 317.389Z" fill="#263238"/>
<path d="M572.33 313.287C572.994 313.979 573.536 314.78 573.932 315.653C574.464 316.456 574.859 317.342 575.1 318.274C574.433 317.579 573.891 316.773 573.498 315.893C572.965 315.096 572.57 314.215 572.33 313.287Z" fill="#263238"/>
<path d="M560.471 340.617C561.759 341.34 563.009 342.13 564.215 342.983C566.281 344.256 568.063 345.125 568.003 345.26C566.556 344.885 565.187 344.256 563.96 343.403C562.649 342.677 561.469 341.735 560.471 340.617Z" fill="#263238"/>
<path d="M579.713 346.757C580.398 346.045 581.198 345.452 582.079 345.005C582.875 344.423 583.76 343.972 584.7 343.672C584.015 344.384 583.215 344.976 582.334 345.424C581.539 346.009 580.654 346.459 579.713 346.757Z" fill="#263238"/>
<path d="M582.934 333.684C582.844 333.579 584.087 332.351 585.241 330.569C586.394 328.787 587.038 327.155 587.172 327.214C586.985 328.529 586.47 329.775 585.675 330.839C585.014 332.001 584.071 332.98 582.934 333.684Z" fill="#263238"/>
<path d="M576.614 330.734C576.419 329.692 576.384 328.627 576.509 327.575C576.481 326.513 576.612 325.453 576.898 324.43C577.093 325.472 577.128 326.537 577.003 327.59C577.038 328.652 576.906 329.713 576.614 330.734Z" fill="#263238"/>
<path d="M573.109 343.657C572.75 342.624 572.543 341.545 572.495 340.452C572.288 339.377 572.243 338.276 572.361 337.188C572.73 338.218 572.942 339.299 572.99 340.392C573.188 341.469 573.228 342.569 573.109 343.657Z" fill="#263238"/>
<path d="M563.347 304.736C563.757 305.918 564.097 307.123 564.365 308.345C564.794 309.528 565.139 310.739 565.398 311.969C564.685 310.91 564.177 309.727 563.901 308.48C563.469 307.281 563.281 306.009 563.347 304.736Z" fill="#263238"/>
<path d="M556.457 327.424C557.343 326.663 558.284 325.967 559.272 325.343C560.176 324.599 561.126 323.913 562.118 323.291C561.45 324.278 560.583 325.115 559.572 325.747C558.657 326.51 557.598 327.081 556.457 327.424Z" fill="#263238"/>
<path d="M547.098 320.46C548.225 320.134 549.377 319.898 550.542 319.757C551.676 319.457 552.833 319.251 554.001 319.143C552.96 319.722 551.815 320.094 550.632 320.236C549.478 320.533 548.279 320.609 547.098 320.46Z" fill="#263238"/>
<path d="M556.202 312.672C556.277 312.552 557.161 312.987 558.179 313.646C559.197 314.305 559.946 314.904 559.871 315.023C559.796 315.143 558.928 314.709 557.91 314.05C556.891 313.391 556.127 312.792 556.202 312.672Z" fill="#263238"/>
<path d="M551.664 304.271C553.357 305.257 554.678 306.773 555.423 308.584C554.722 307.933 554.085 307.216 553.521 306.443C552.839 305.775 552.218 305.049 551.664 304.271Z" fill="#263238"/>
<path d="M545.496 312.283C546.582 312.445 547.651 312.711 548.686 313.077C549.76 313.278 550.813 313.579 551.831 313.975C550.719 314.057 549.603 313.91 548.551 313.541C547.458 313.332 546.419 312.904 545.496 312.283Z" fill="#263238"/>
<path d="M588.369 301.501C589.216 300.032 590.146 298.612 591.155 297.248C592.019 295.786 592.969 294.376 594 293.025C593.397 294.625 592.581 296.136 591.574 297.518C590.682 298.978 589.605 300.317 588.369 301.501Z" fill="#263238"/>
<path d="M585.614 291.693C585.529 290.465 585.604 289.232 585.839 288.024C585.924 286.799 586.171 285.59 586.573 284.43C586.657 285.658 586.577 286.892 586.333 288.099C586.25 289.323 586.009 290.531 585.614 291.693Z" fill="#263238"/>
<path d="M576.074 293.221C576.224 293.221 576.628 295.078 577.572 297.234C578.515 299.391 579.593 300.993 579.474 301.068C578.423 300.047 577.614 298.804 577.107 297.429C576.462 296.118 576.109 294.682 576.074 293.221Z" fill="#263238"/>
<path d="M564.963 295.588C565.068 295.498 566.46 297.085 568.392 298.957C570.324 300.829 572.031 302.057 571.956 302.177C570.498 301.45 569.176 300.477 568.048 299.302C566.809 298.254 565.765 296.997 564.963 295.588Z" fill="#263238"/>
<path d="M569.215 275.25C569.35 275.25 569.784 277.302 570.563 279.743C571.341 282.184 572.06 284.235 572.06 284.235C570.449 281.496 569.495 278.42 569.275 275.25H569.215Z" fill="#263238"/>
<path d="M582.109 268.57C582.578 270.961 582.729 273.403 582.558 275.833C582.242 274.652 582.086 273.433 582.094 272.209C581.94 271.001 581.945 269.777 582.109 268.57Z" fill="#263238"/>
<path d="M608.736 285.763C609.664 285.738 610.592 285.803 611.507 285.958C612.436 285.961 613.363 286.046 614.277 286.212C613.38 286.531 612.415 286.614 611.477 286.452C610.52 286.454 609.578 286.217 608.736 285.763Z" fill="#263238"/>
<path d="M607.957 279.053C609.133 278.142 610.409 277.368 611.761 276.747C613.037 275.978 614.393 275.351 615.804 274.875C614.619 275.78 613.338 276.553 611.985 277.181C610.715 277.951 609.364 278.579 607.957 279.053Z" fill="#263238"/>
<path d="M600.754 279.294C600.856 278.117 601.129 276.962 601.563 275.864C601.836 274.721 602.27 273.622 602.85 272.6C602.74 273.77 602.468 274.919 602.042 276.014C601.755 277.158 601.322 278.26 600.754 279.294Z" fill="#263238"/>
<g opacity="0.3">
<path d="M580.597 362.438C580.521 360.662 580.037 358.928 579.182 357.37C578.328 355.812 577.126 354.472 575.67 353.453C572.765 351.506 567.524 351.311 565.457 352.779C568.699 352.852 571.839 353.93 574.442 355.864C576.886 357.685 578.981 359.932 580.627 362.498" fill="black"/>
</g>
<g opacity="0.3">
<path d="M591.919 317.391C591.253 315.996 590.271 314.775 589.053 313.824C587.834 312.873 586.411 312.217 584.896 311.91C581.901 311.371 577.678 313.033 576.555 314.905C579.149 313.856 582.004 313.631 584.731 314.261C587.3 314.853 589.737 315.914 591.919 317.391Z" fill="black"/>
</g>
<g opacity="0.3">
<path d="M599.526 290.553C600.111 289.528 600.458 288.385 600.541 287.208C600.624 286.031 600.441 284.851 600.006 283.754C599.576 282.754 598.908 281.875 598.059 281.193C597.211 280.512 596.208 280.049 595.139 279.846C597.599 282.966 599.102 286.732 599.467 290.688" fill="black"/>
</g>
<path d="M552.893 356.326C552.893 356.326 552.503 356.686 551.904 357.404C551.048 358.416 550.3 359.516 549.673 360.684C547.831 364.668 546.74 368.958 546.453 373.338C546.175 377.722 546.396 382.123 547.112 386.457C547.367 388.119 547.621 389.452 547.786 390.395C547.916 390.885 547.991 391.387 548.011 391.893C547.831 391.436 547.691 390.965 547.592 390.485C547.352 389.572 547.037 388.239 546.738 386.562C545.901 382.207 545.624 377.763 545.914 373.338C546.203 368.893 547.363 364.547 549.329 360.549C550.001 359.379 550.81 358.293 551.74 357.315C552.065 356.922 552.455 356.588 552.893 356.326Z" fill="#263238"/>
<path d="M593.416 391.893H593.147H592.368H589.373L578.351 391.968L541.961 392.043L506.02 391.968L506.199 391.788C506.199 396.551 506.199 400.429 506.199 403.14C506.199 404.458 506.199 405.491 506.199 406.225C506.199 406.554 506.199 406.824 506.199 407.033C506.199 407.243 506.199 407.303 506.199 407.303C506.193 407.213 506.193 407.123 506.199 407.033C506.199 406.824 506.199 406.554 506.199 406.225C506.199 405.491 506.199 404.458 506.199 403.14C506.199 400.429 506.199 396.566 506.079 391.788V391.624H506.259L542.2 391.549L578.59 391.624L589.612 391.699H592.607H593.386L593.416 391.893Z" fill="#263238"/>
<path d="M563.9 432.207V451.406H481.385C480.125 451.406 478.878 451.157 477.714 450.675C476.55 450.192 475.493 449.485 474.603 448.593C473.712 447.701 473.007 446.643 472.526 445.479C472.045 444.314 471.799 443.066 471.801 441.806C471.799 440.546 472.045 439.298 472.526 438.134C473.007 436.969 473.712 435.911 474.603 435.019C475.493 434.128 476.55 433.421 477.714 432.938C478.878 432.455 480.125 432.207 481.385 432.207" fill="#E0E0E0"/>
<path d="M536.06 436.236H563.9V447.378H536.06C534.758 447.378 533.508 446.861 532.587 445.939C531.666 445.018 531.148 443.769 531.148 442.466V441.133C531.152 439.833 531.672 438.588 532.592 437.67C533.513 436.752 534.76 436.236 536.06 436.236Z" fill="#FAFAFA"/>
<path d="M599.615 419.342L586.512 450.476H594.943L600.768 433.673L599.615 419.342Z" fill="#455A64"/>
<path d="M639.855 391.279L644.992 450.762L602.147 450.597L597.385 391.279H639.855Z" fill="#455A64"/>
<path d="M635.678 395.921L640.11 445.041L607.958 445.46L603.615 395.637L635.678 395.921Z" fill="#FAFAFA"/>
<path d="M628.847 402.721L631.378 436.52H614.216L611.191 402.721H628.847Z" fill="#263238"/>
<path d="M507.383 526.371H488.844V662.752H507.383V526.371Z" fill="#455A64"/>
<path d="M650.997 525.25H632.457V662.889H650.997V525.25Z" fill="#455A64"/>
<path d="M659.697 528.005L481.924 528.335V462.518H659.697V528.005Z" fill="#455A64"/>
<path d="M659.698 528.005C659.698 528.005 659.698 527.6 659.698 526.836C659.698 526.073 659.698 524.95 659.698 523.467C659.698 520.472 659.698 516.144 659.698 510.498C659.698 499.237 659.623 482.899 659.563 462.577L659.788 462.802L482.014 462.906L482.344 462.577V462.727C482.344 485.639 482.344 507.818 482.344 528.394L482.029 528.079L609.32 527.99H646.385H656.313H658.934H656.388H646.534L609.545 528.154L481.999 528.544H481.67V462.053H481.999L659.773 462.173H660.012V462.397C660.012 482.824 659.908 499.222 659.878 510.528C659.878 516.129 659.878 520.472 659.878 523.437C659.878 524.935 659.878 525.998 659.878 526.762C659.878 527.525 659.698 528.005 659.698 528.005Z" fill="#263238"/>
<path d="M645.097 515.065C645.097 515.065 645.097 514.796 645.097 514.302C645.097 513.808 645.097 513.059 645.097 512.115C645.097 510.183 645.097 507.353 645.097 503.699C645.097 496.361 645.022 485.729 644.977 472.341L645.217 472.55L495.462 472.655L495.822 472.341V515.065L495.462 514.766L602.552 514.901L633.85 514.991H642.251H644.333H645.097H642.236L633.85 515.065L602.626 515.14L495.298 515.29H494.953V515.065C494.953 501.588 494.953 487.181 494.953 472.341V472.041H495.328L645.082 472.146H645.306V472.341C645.306 485.818 645.217 496.451 645.187 503.789C645.187 507.428 645.187 510.243 645.187 512.16C645.187 513.104 645.187 513.808 645.187 514.317C645.187 514.826 645.097 515.065 645.097 515.065Z" fill="#263238"/>
<path d="M500.72 509.391C500.094 510.468 499.295 511.435 498.354 512.251C497.546 513.206 496.591 514.025 495.523 514.677C496.139 513.601 496.934 512.639 497.875 511.832C498.683 510.867 499.644 510.043 500.72 509.391Z" fill="#263238"/>
<path d="M500.719 477.883C499.581 477.194 498.568 476.318 497.724 475.292C496.752 474.429 495.923 473.419 495.268 472.297C496.401 472.991 497.413 473.866 498.263 474.888C499.234 475.75 500.063 476.761 500.719 477.883Z" fill="#263238"/>
<path d="M645.351 472.416C644.463 473.607 643.361 474.623 642.101 475.411C640.949 476.379 639.693 477.218 638.357 477.912C639.258 476.727 640.364 475.712 641.622 474.917C642.768 473.947 644.019 473.109 645.351 472.416Z" fill="#263238"/>
<path d="M645.097 515.065C643.778 514.382 642.563 513.514 641.488 512.489C640.303 511.656 639.252 510.646 638.373 509.494C639.692 510.178 640.907 511.045 641.982 512.07C643.167 512.904 644.217 513.914 645.097 515.065Z" fill="#263238"/>
<path d="M638.344 509.405C638.344 509.405 638.344 509.21 638.344 508.836V507.248C638.344 505.751 638.344 503.744 638.344 501.063C638.344 495.657 638.269 487.81 638.224 477.882L638.434 478.076L501.379 478.196L501.723 477.882V509.405L501.379 509.09L599.184 509.24L627.966 509.315H635.724H637.745H638.434H635.813H628.131L599.423 509.39L501.379 509.54H501.02V477.627H501.379L638.434 477.747H638.659V477.926C638.659 487.9 638.569 495.792 638.539 501.213C638.539 503.879 638.539 505.946 638.539 507.353C638.539 508.027 638.539 508.551 638.539 508.926C638.539 509.3 638.344 509.405 638.344 509.405Z" fill="#263238"/>
<path d="M582.454 490.732C581.414 490.084 580.291 489.58 579.115 489.234C578.047 488.91 576.936 488.748 575.82 488.755H566.67C563.993 488.713 561.396 489.662 559.377 491.421C558.957 491.783 558.589 492.201 558.284 492.664C557.856 493.307 557.658 494.076 557.723 494.846C557.788 495.615 558.113 496.34 558.643 496.902C559.811 497.95 562.222 497.441 562.417 495.929C562.462 496.438 562.607 496.933 562.844 497.387C563.081 497.84 563.405 498.242 563.797 498.57C564.189 498.899 564.642 499.146 565.13 499.299C565.618 499.452 566.131 499.508 566.64 499.463C567.668 499.356 568.641 498.951 569.44 498.296C570.239 497.641 570.827 496.765 571.133 495.779C571.177 496.652 571.537 497.48 572.146 498.108C572.755 498.736 573.571 499.122 574.442 499.193C575.319 499.241 576.183 498.975 576.88 498.442C577.578 497.91 578.062 497.146 578.246 496.288C579.369 497.681 581.047 498.983 582.978 498.384C583.509 498.213 583.987 497.91 584.37 497.505C584.752 497.099 585.025 496.603 585.165 496.063C585.329 495.003 585.155 493.918 584.669 492.961C584.182 492.004 583.408 491.225 582.454 490.732Z" fill="#E0E0E0"/>
<path d="M568.303 488.77C566.906 489.679 565.641 490.778 564.545 492.034C563.628 493.387 562.912 494.865 562.418 496.422C562.343 496.422 562.283 495.838 562.418 494.924C562.67 493.734 563.182 492.615 563.916 491.645C564.673 490.665 565.627 489.854 566.716 489.264C567.19 488.958 567.739 488.787 568.303 488.77Z" fill="#263238"/>
<path d="M571.808 489.129C572.02 490.267 572.02 491.435 571.808 492.573C571.779 493.735 571.541 494.881 571.104 495.958C570.89 494.82 570.89 493.652 571.104 492.513C571.122 491.351 571.361 490.202 571.808 489.129Z" fill="#263238"/>
<path d="M576.226 489.04C576.226 488.965 576.735 489.144 577.274 489.713C577.956 490.462 578.404 491.394 578.562 492.394C578.711 493.352 578.711 494.327 578.562 495.284C578.442 496.003 578.322 496.437 578.232 496.437C578.142 496.437 578.112 495.973 578.097 495.254C578.103 494.332 578.038 493.411 577.903 492.499C577.74 491.599 577.393 490.743 576.884 489.983C576.51 489.399 576.166 489.114 576.226 489.04Z" fill="#263238"/>
<path d="M670.361 450.611H469.166V466.455H670.361V450.611Z" fill="#455A64"/>
<path d="M670.36 466.44C670.36 466.44 670.36 466.081 670.36 465.407C670.36 464.733 670.36 463.7 670.36 462.412C670.36 459.731 670.36 455.793 670.36 450.656L670.48 450.776L469.12 450.941L469.45 450.611V466.44L469.12 466.111L611.836 466.246L654.636 466.351H666.242H669.237H670.285H669.282H666.287H654.756L612.031 466.455L469.076 466.59H468.746V450.117H469.12L670.3 450.327H670.42V450.671C670.42 455.838 670.42 459.806 670.42 462.502C670.42 463.805 670.42 464.808 670.42 465.497C670.42 466.186 670.36 466.44 670.36 466.44Z" fill="#263238"/>
</svg>
