<svg width="679" height="697" viewBox="0 0 679 697" fill="none" xmlns="http://www.w3.org/2000/svg">
<path d="M237.064 126.735C257.425 121.23 269.468 100.261 263.963 79.8995C258.457 59.5383 237.488 47.4951 217.127 53.0005C196.766 58.5058 184.723 79.4748 190.228 99.8361C195.733 120.197 216.702 132.24 237.064 126.735Z" fill="white"/>
<path d="M255.997 64.8928L255.548 64.4719L254.257 63.1811L253.331 62.227C252.966 61.8903 252.546 61.5676 252.097 61.1887C251.099 60.2903 250.034 59.4695 248.912 58.7334C245.901 56.6224 242.59 54.9764 239.09 53.8508C234.465 52.3395 229.593 51.7252 224.737 52.0408C218.414 52.4336 212.291 54.4119 206.934 57.7932C201.576 61.1745 197.156 65.8501 194.08 71.3889C193.199 72.9576 192.426 74.5842 191.765 76.2575C191.442 77.1134 191.19 77.9833 190.909 78.8672C190.603 79.7401 190.369 80.6363 190.208 81.5471C189.795 83.3966 189.504 85.2714 189.338 87.1593C189.219 89.0703 189.219 90.9868 189.338 92.8978C189.621 96.827 190.54 100.684 192.06 104.319C195.154 111.881 200.632 118.226 207.662 122.39C211.041 124.42 214.728 125.889 218.578 126.739C220.426 127.167 222.301 127.467 224.19 127.637C226.058 127.763 227.933 127.763 229.802 127.637C230.743 127.606 231.681 127.507 232.608 127.343C233.52 127.174 234.432 127.062 235.316 126.866C237.071 126.456 238.797 125.927 240.479 125.28C248.706 122.134 255.583 116.226 259.934 108.568C264.285 100.911 265.84 91.9784 264.331 83.3009C263.735 79.6737 262.59 76.1585 260.936 72.8762C260.371 71.6586 259.715 70.486 258.972 69.3685C258.663 68.8775 258.396 68.4145 258.116 67.9655L257.498 66.8711L256.404 65.4681C256.277 65.3072 256.159 65.1385 256.053 64.9629C256.205 65.1019 256.342 65.2572 256.46 65.426L257.611 66.829L258.452 67.8673C258.747 68.2742 259.014 68.7372 259.336 69.2703C260.107 70.3782 260.788 71.5465 261.371 72.7639C263.088 76.0535 264.285 79.5889 264.92 83.2448C265.891 88.6102 265.71 94.1206 264.389 99.4108C263.068 104.701 260.638 109.65 257.26 113.93C252.933 119.273 247.262 123.37 240.83 125.799C239.12 126.46 237.366 127.003 235.583 127.427C234.671 127.623 233.745 127.75 232.776 127.918C231.849 128.084 230.912 128.187 229.97 128.227C226.105 128.584 222.207 128.295 218.437 127.371C214.518 126.502 210.766 125.004 207.325 122.937C200.148 118.71 194.558 112.243 191.414 104.529C189.855 100.825 188.907 96.8918 188.608 92.8838C188.482 90.9355 188.482 88.9812 188.608 87.033C188.782 85.1452 189.077 83.2706 189.492 81.4208C189.666 80.4931 189.905 79.5789 190.208 78.6848C190.516 77.8009 190.769 76.903 191.092 76.0331C191.788 74.3315 192.594 72.677 193.505 71.0803C196.883 65.0784 201.805 60.0889 207.76 56.6288C212.484 53.8932 217.737 52.1967 223.169 51.6523C228.6 51.1079 234.086 51.7283 239.259 53.4719C242.766 54.6257 246.077 56.3051 249.08 58.4528C250.191 59.2188 251.246 60.0628 252.237 60.9783C252.686 61.3711 253.107 61.7079 253.457 62.0586L254.369 63.0408L255.604 64.4438C255.748 64.5813 255.88 64.7316 255.997 64.8928Z" fill="#263238"/>
<path d="M216.728 79.1891H222.775C222.771 78.5016 222.905 77.8204 223.169 77.1857C223.433 76.551 223.822 75.9759 224.313 75.4943C224.804 75.0128 225.386 74.6347 226.026 74.3825C226.665 74.1302 227.349 74.009 228.036 74.0259C229.053 73.9843 230.057 74.2624 230.908 74.8211C231.759 75.3798 232.413 76.191 232.779 77.1407C233.101 77.935 233.23 78.7946 233.154 79.6485C233.078 80.5024 232.801 81.3261 232.344 82.0514C231.319 83.735 229.075 85.2784 224.992 84.5628V98.2005H230.983V90.2031C233.443 89.4891 235.6 87.9854 237.122 85.924C238.643 83.8626 239.444 81.3579 239.401 78.7963C239.401 69.943 231.46 67.8945 228.064 67.8945C225.455 67.8945 216.615 68.5259 216.728 79.1891Z" fill="#091057"/>
<path d="M231.065 101.006H224.99V106.674H231.065V101.006Z" fill="#091057"/>
<path d="M279.329 107.755C279.329 108.674 279.057 109.572 278.547 110.336C278.036 111.099 277.311 111.695 276.462 112.046C275.614 112.398 274.68 112.49 273.779 112.31C272.878 112.131 272.051 111.689 271.401 111.039C270.752 110.39 270.309 109.562 270.13 108.661C269.951 107.761 270.043 106.827 270.395 105.978C270.746 105.13 271.341 104.404 272.105 103.894C272.869 103.384 273.767 103.111 274.685 103.111C275.917 103.111 277.098 103.601 277.969 104.472C278.84 105.342 279.329 106.524 279.329 107.755Z" fill="white"/>
<path d="M279.33 107.755C279.217 107.391 279.123 107.021 279.05 106.646C278.75 105.688 278.15 104.852 277.338 104.261C276.751 103.839 276.068 103.567 275.351 103.472C274.634 103.376 273.904 103.46 273.227 103.714C272.401 104.019 271.688 104.57 271.185 105.292C270.681 106.015 270.411 106.874 270.411 107.755C270.411 108.635 270.681 109.495 271.185 110.217C271.688 110.94 272.401 111.491 273.227 111.796C273.905 112.047 274.636 112.127 275.353 112.029C276.07 111.931 276.751 111.658 277.338 111.234C278.15 110.644 278.75 109.808 279.05 108.849C279.26 108.162 279.26 107.741 279.33 107.755C279.4 107.769 279.456 108.162 279.33 108.919C279.122 109.996 278.535 110.962 277.675 111.641C277.027 112.155 276.261 112.496 275.446 112.633C274.632 112.77 273.796 112.7 273.016 112.427C272.049 112.087 271.211 111.455 270.618 110.618C270.025 109.781 269.707 108.78 269.707 107.755C269.707 106.729 270.025 105.729 270.618 104.892C271.211 104.055 272.049 103.423 273.016 103.083C273.794 102.804 274.63 102.729 275.446 102.864C276.261 102.999 277.028 103.34 277.675 103.854C278.535 104.534 279.122 105.5 279.33 106.576C279.442 106.961 279.442 107.37 279.33 107.755Z" fill="#263238"/>
<path d="M418.318 103.18L431.072 102.437C438.587 109.436 448.449 113.371 458.718 113.469C468.987 113.566 478.922 109.819 486.569 102.963C494.216 96.1079 499.022 86.6401 500.042 76.421C501.063 66.2019 498.224 55.9706 492.084 47.7383C485.944 39.5059 476.947 33.8679 466.861 31.9325C456.775 29.9971 446.33 31.9043 437.579 37.2791C428.828 42.654 422.403 51.1077 419.569 60.9787C416.734 70.8498 417.694 81.424 422.26 90.6231L418.318 103.18Z" fill="white"/>
<path d="M418.318 103.181C418.318 103.181 418.389 102.914 418.543 102.381L419.272 99.9816C419.932 97.835 420.886 94.6781 422.149 90.5671V90.3988L422.275 90.5391L422.093 90.6513C419.029 84.5385 417.539 77.7582 417.757 70.9244C417.817 68.7948 418.052 66.6738 418.459 64.5826C418.917 62.3458 419.54 60.1463 420.325 58.0022C423.99 48.0093 431.403 39.8365 440.992 35.2166C446.364 32.5867 452.242 31.1508 458.221 31.0074C464.579 30.8861 470.878 32.2505 476.615 34.9921C482.656 37.812 487.905 42.0826 491.895 47.4232C492.386 48.1107 492.905 48.8262 493.396 49.4716L494.701 51.6464L495.346 52.7267L495.893 53.8632C496.244 54.6209 496.609 55.3785 496.974 56.1362C497.338 56.8938 497.549 57.6936 497.844 58.4652C498.154 59.2341 498.416 60.0213 498.629 60.8224C499.088 62.402 499.444 64.0095 499.696 65.6348C500.724 71.7533 500.344 78.0257 498.584 83.975C496.823 89.9243 493.73 95.3939 489.538 99.9676C482.368 107.877 472.409 112.696 461.757 113.409C459.467 113.564 457.168 113.536 454.882 113.325C452.766 113.072 450.667 112.693 448.596 112.188C441.988 110.467 435.915 107.12 430.932 102.451H431.016L421.475 102.942L419.048 103.068H418.248H419.09L421.545 102.9L431.002 102.283C435.98 106.889 442.027 110.182 448.596 111.866C450.658 112.356 452.748 112.721 454.854 112.96C457.119 113.129 459.394 113.129 461.659 112.96C466.624 112.614 471.483 111.364 475.998 109.27C484.109 105.54 490.768 99.2462 494.949 91.3585C499.13 83.4707 500.6 74.4269 499.134 65.6208C498.886 64.0191 498.534 62.435 498.082 60.8785C497.874 60.0868 497.616 59.3089 497.31 58.5494C497.016 57.7777 496.777 56.992 496.441 56.2344C496.104 55.4767 495.739 54.7471 495.374 54.0035L494.841 52.8811L494.196 51.8147L492.905 49.6681C492.428 48.9806 491.923 48.265 491.418 47.6336C487.473 42.3626 482.294 38.1419 476.335 35.3429C470.642 32.6334 464.398 31.2837 458.095 31.4003C452.406 31.5163 446.803 32.8135 441.641 35.2095C436.48 37.6054 431.872 41.0479 428.112 45.3186C424.843 49.0319 422.28 53.3114 420.549 57.9461C419.811 60.1391 419.243 62.386 418.852 64.6667C418.442 66.7393 418.198 68.8412 418.122 70.9524C417.876 77.7476 419.323 84.4974 422.331 90.5952L422.668 91.2967L422.149 90.7215H422.331C421.04 94.7763 420.03 97.9051 419.357 100.024C419.02 101.076 418.753 101.876 418.585 102.437L418.318 103.181Z" fill="#263238"/>
<path d="M446.462 64.5271H452.299C452.295 63.8605 452.425 63.1999 452.682 62.5847C452.938 61.9695 453.316 61.4123 453.793 60.9462C454.269 60.4801 454.835 60.1147 455.455 59.8718C456.076 59.6289 456.74 59.5134 457.406 59.5322C458.389 59.497 459.359 59.7685 460.181 60.309C461.003 60.8494 461.636 61.6322 461.994 62.5488C462.301 63.3167 462.424 64.1463 462.35 64.9703C462.277 65.7943 462.011 66.5894 461.573 67.2911C460.577 68.9187 458.402 70.4059 454.474 69.7184V82.8931H460.254V75.1763C462.627 74.4793 464.705 73.023 466.17 71.0308C467.635 69.0387 468.406 66.6208 468.364 64.1483C468.364 55.5896 460.689 53.6113 457.406 53.6113C454.894 53.6113 446.35 54.2427 446.462 64.5271Z" fill="#091057"/>
<path d="M460.31 85.6133H454.445V91.0992H460.31V85.6133Z" fill="#091057"/>
<path d="M328.709 551.422L329.66 582.363C329.66 582.363 298.529 593.718 298.135 599.463L358.21 599.762L358.699 551.49L328.709 551.422Z" fill="#8C4C00"/>
<path d="M348.242 579.85C348.819 580.03 349.31 580.416 349.621 580.935C349.931 581.453 350.04 582.068 349.926 582.662C349.769 583.234 349.403 583.727 348.899 584.041C348.396 584.356 347.793 584.47 347.21 584.36C346.598 584.168 346.079 583.756 345.753 583.204C345.427 582.653 345.317 582 345.444 581.372C345.676 580.783 346.125 580.305 346.698 580.037C347.272 579.769 347.927 579.731 348.527 579.932" fill="#E0E0E0"/>
<path d="M358.21 599.761L358.061 594.898L300.552 596.42C300.552 596.42 297.836 597.574 298.162 599.462L358.21 599.761Z" fill="black"/>
<path d="M328.683 582.051C328.683 582.35 330.163 582.486 331.603 583.41C333.043 584.333 333.803 585.596 334.075 585.488C334.347 585.379 333.912 583.668 332.146 582.554C330.381 581.44 328.629 581.78 328.683 582.051Z" fill="white"/>
<path d="M322.366 584.632C322.298 584.903 323.575 585.419 324.566 586.655C325.558 587.891 325.829 589.222 326.128 589.209C326.427 589.195 326.604 587.538 325.354 586.017C324.104 584.496 322.379 584.346 322.366 584.632Z" fill="white"/>
<path d="M318.753 592.142C319.024 592.21 319.432 590.784 318.685 589.14C317.938 587.497 316.579 586.886 316.457 587.13C316.335 587.374 317.177 588.23 317.815 589.561C318.454 590.892 318.467 592.115 318.753 592.142Z" fill="white"/>
<path d="M329.253 574.974C329.375 575.246 330.72 574.852 332.377 574.974C334.034 575.096 335.325 575.612 335.474 575.368C335.623 575.124 334.401 574.01 332.445 574.01C330.489 574.01 329.077 574.743 329.253 574.974Z" fill="white"/>
<path d="M399.27 558.078L402.516 595.389L396.581 625.651C396.482 626.167 396.489 626.698 396.603 627.212C396.717 627.725 396.934 628.209 397.242 628.635C397.55 629.061 397.942 629.42 398.393 629.689C398.845 629.959 399.346 630.133 399.867 630.201C400.474 630.279 401.091 630.21 401.665 629.999C402.24 629.789 402.755 629.444 403.168 628.992C408.52 623.152 428.105 601.583 427.712 598.866C427.263 595.729 426.897 559.287 426.897 559.287L399.27 558.078Z" fill="#8C4C00"/>
<path d="M399.867 630.201L427.548 596.354L427.657 597.929C427.742 599.299 427.343 600.654 426.53 601.759C424.329 604.693 418.095 612.693 403.276 628.992C402.85 629.457 402.317 629.81 401.722 630.021C401.128 630.232 400.491 630.294 399.867 630.201Z" fill="black"/>
<g opacity="0.6">
<path d="M419.112 584.781C418.694 585.155 418.424 585.666 418.352 586.222C418.279 586.778 418.409 587.342 418.718 587.81C419.07 588.261 419.582 588.56 420.148 588.646C420.713 588.731 421.29 588.598 421.761 588.272C422.221 587.88 422.522 587.333 422.604 586.734C422.687 586.135 422.546 585.527 422.209 585.026C421.794 584.591 421.227 584.334 420.627 584.309C420.026 584.283 419.44 584.492 418.99 584.89" fill="white"/>
</g>
<path d="M407.365 613.318C406.475 612.121 405.278 611.187 403.901 610.616C402.523 610.044 401.017 609.856 399.541 610.072C399.541 609.977 399.962 609.665 400.818 609.488C401.961 609.277 403.141 609.404 404.213 609.855C405.306 610.288 406.249 611.029 406.93 611.987C407.351 612.734 407.446 613.278 407.365 613.318Z" fill="white"/>
<path d="M405.014 618.493C403.905 617.975 402.766 617.522 401.605 617.135C400.384 616.984 399.154 616.907 397.924 616.904C397.802 616.714 399.554 615.804 401.795 616.333C404.036 616.863 405.204 618.384 405.014 618.493Z" fill="white"/>
<path d="M411.929 606.581C411.766 606.771 409.81 605.005 406.809 604.068C403.807 603.131 401.199 603.389 401.186 603.131C403.119 602.625 405.157 602.681 407.06 603.292C408.962 603.903 410.652 605.044 411.929 606.581Z" fill="white"/>
<path d="M411.929 595.158C411.848 595.389 409.729 594.655 407.039 594.737C404.35 594.818 402.258 595.592 402.163 595.362C402.068 595.131 404.119 594.003 407.012 593.908C408.747 593.74 410.486 594.182 411.929 595.158Z" fill="white"/>
<path d="M411.183 584.184C409.526 583.751 407.816 583.555 406.103 583.6C403.265 583.858 401.363 585.366 401.227 585.162C401.091 584.959 401.54 584.592 402.368 584.049C403.467 583.341 404.72 582.907 406.022 582.785C407.321 582.652 408.634 582.829 409.852 583.301C410.776 583.736 411.237 584.089 411.183 584.184Z" fill="white"/>
<path d="M406.036 581.507C405.888 581.07 405.837 580.607 405.886 580.149C405.931 578.843 406.235 577.559 406.783 576.373C407.103 575.471 407.709 574.699 408.508 574.172C408.791 574.03 409.111 573.976 409.426 574.017C409.741 574.058 410.036 574.193 410.273 574.403C410.694 574.856 410.94 575.443 410.966 576.06C410.96 577.32 410.517 578.539 409.711 579.507C408.906 580.476 407.789 581.135 406.552 581.371C405.321 581.575 404.057 581.409 402.921 580.894C401.784 580.379 400.826 579.538 400.168 578.478C400.001 578.212 399.895 577.911 399.857 577.599C399.819 577.287 399.851 576.97 399.951 576.672C400.08 576.382 400.295 576.141 400.568 575.98C400.841 575.819 401.157 575.748 401.472 575.775C402.407 575.922 403.287 576.311 404.025 576.903C405.082 577.643 406.001 578.563 406.742 579.619C407.048 579.99 407.274 580.42 407.408 580.882C406.339 579.54 405.086 578.356 403.686 577.364C403.024 576.88 402.255 576.563 401.445 576.441C401.271 576.421 401.094 576.457 400.943 576.546C400.791 576.634 400.672 576.768 400.603 576.93C400.556 577.131 400.551 577.34 400.589 577.543C400.626 577.746 400.705 577.94 400.82 578.111C401.416 579.006 402.256 579.712 403.24 580.145C404.225 580.579 405.313 580.721 406.375 580.556C407.424 580.354 408.372 579.801 409.065 578.99C409.759 578.178 410.156 577.155 410.192 576.088C410.196 575.658 410.042 575.242 409.757 574.919C409.63 574.8 409.469 574.722 409.297 574.698C409.124 574.674 408.948 574.704 408.793 574.784C408.12 575.232 407.595 575.87 407.285 576.617C406.581 578.16 406.158 579.816 406.036 581.507Z" fill="white"/>
<path d="M297.943 294.85C295.049 307.674 294.07 320.856 295.036 333.967C295.675 342.28 323.736 572.245 323.736 572.245H361.672L351.023 356.107L354.134 356.772C354.134 356.772 374.806 448.957 376.49 463.884C378.012 477.303 396.579 582.744 396.579 582.744L432.301 582.377L419.017 446.267L406.141 322.585L401.306 286.578L297.943 294.85Z" fill="#091057"/>
<path d="M302.332 333.097C337.239 345.131 383.107 351.175 406.645 327.99L399.012 152.26H310.06L302.332 333.097Z" fill="#E0E0E0"/>
<path d="M369.496 243.698C369.632 243.848 363.479 249.607 355.764 256.561C348.049 263.515 341.706 269.057 341.571 268.907C341.435 268.758 347.588 262.999 355.302 256.045C363.017 249.091 369.36 243.549 369.496 243.698Z" fill="#263238"/>
<path opacity="0.3" d="M336.423 341.792C336.423 341.792 338.678 194.218 335.703 186.951C332.729 179.685 322.121 339.578 323.085 339.578L336.423 341.792Z" fill="black"/>
<path d="M299.574 189.531L295.119 263.95L291.859 338.653C301.516 346.029 314.664 349.872 330.352 351.122L336.477 200.085V142.196L335.391 141.463L327.893 147.928L326.182 148.118C324.973 145.646 323.085 146.57 323.085 146.57C322.774 145.998 322.253 145.57 321.632 145.375C321.084 145.313 320.529 145.39 320.019 145.599C319.509 145.808 319.059 146.142 318.712 146.57L317.353 145.103C315.112 144.465 313.849 147.222 313.849 147.222C294.249 149.395 291.587 160.913 288.531 168.22L299.574 189.531Z" fill="#EC8305"/>
<path d="M305.321 190.985C305.104 191.61 303.433 233.512 303.433 233.512C303.433 233.512 308.024 238.306 306.353 244.568C304.683 250.829 301.64 265.24 293.369 265.865C281.769 266.748 270.917 259.984 271.134 239.148C271.351 218.313 288.329 168.221 288.329 168.221L308.282 182.374L305.321 190.985Z" fill="#EC8305"/>
<path d="M372.35 139.41C372.35 139.41 379.277 143.906 381.287 147.193H386.299C387.182 147.098 388.119 146.093 389.247 146.133C389.926 146.133 390.727 147.179 391.461 147.247C392.194 147.315 392.602 146.188 393.254 146.269C394.612 146.432 395.698 147.369 397.179 147.736C402.775 149.094 409.009 151.023 411.943 153.169C419.549 158.602 422.103 168.273 422.103 168.273C422.103 168.273 401.58 190.399 403.006 191.445C404.432 192.49 403.658 247.948 403.658 247.948C403.658 247.948 411.25 332.458 409.213 335.174C407.176 337.891 386.816 350.292 367.637 349.205C367.637 349.205 367.026 338.489 368.615 313.252C371.005 275.303 370.747 261.639 371.413 248.056C372.5 226.026 371.223 184.463 371.413 177.563C371.603 172.524 371.875 139.587 372.35 139.41Z" fill="#EC8305"/>
<g opacity="0.3">
<path d="M400.697 233.863C397.316 239.505 395.941 246.125 396.797 252.647C397.652 259.169 400.688 265.21 405.41 269.789V261.178L401.335 235.846L400.697 233.863Z" fill="black"/>
</g>
<path d="M422.102 168.193C422.102 168.193 429.274 222.292 432.968 227.277C436.662 232.262 435.467 239.325 434.503 246.184C433.443 253.695 429.695 271.529 415.487 270.293C408.003 269.654 403.562 264.235 401.008 256.154C396.581 242.136 402.367 225.593 402.367 221.79C402.367 217.987 397.857 189.599 398.387 188.119C398.917 186.638 422.102 168.193 422.102 168.193Z" fill="#EC8305"/>
<path d="M336.194 177.687C335.884 177.333 335.615 176.946 335.392 176.532C334.715 175.456 333.937 174.447 333.07 173.517C332.461 172.89 331.76 172.358 330.992 171.942C330.089 171.508 329.112 171.249 328.112 171.181C325.746 170.952 323.368 171.48 321.321 172.689L320.533 173.15L320.805 172.281C321.144 171.208 321.484 170.081 321.81 168.926C323.413 163.194 324.852 158.06 325.885 154.053C326.401 152.261 326.822 150.766 327.243 149.558C327.368 148.996 327.555 148.449 327.8 147.928C327.762 148.503 327.662 149.072 327.501 149.626C327.27 150.712 326.903 152.261 326.442 154.189C325.491 158.02 324.16 163.317 322.489 169.13C322.163 170.285 321.824 171.425 321.47 172.498L320.954 172.091C325.627 169.374 331.304 170.42 333.355 173.218C334.221 174.192 334.965 175.269 335.569 176.424C335.824 176.82 336.033 177.244 336.194 177.687Z" fill="#263238"/>
<g opacity="0.3">
<path d="M376.287 172.36C378.535 171.423 381.042 171.312 383.363 172.048V172.157C384.012 173.946 384.467 175.799 384.722 177.685C380.81 175.389 375.825 174.438 371.805 176.544C372.83 174.719 374.396 173.258 376.287 172.36Z" fill="black"/>
</g>
<path d="M371.441 176.817C371.621 176.41 371.864 176.034 372.161 175.703C372.9 174.717 373.768 173.836 374.742 173.081C375.423 172.528 376.177 172.071 376.983 171.723C377.933 171.328 378.956 171.133 379.985 171.153C382.4 171.167 384.727 172.061 386.532 173.666L385.947 173.964C385.73 172.43 385.445 170.813 385.16 169.156C384.073 163.166 383.082 157.747 382.321 153.631L381.506 148.918C381.384 148.346 381.311 147.764 381.289 147.18C381.515 147.721 381.679 148.286 381.778 148.864C382.036 149.964 382.389 151.58 382.824 153.536C383.652 157.489 384.779 162.963 385.866 169.034C386.151 170.691 386.423 172.321 386.64 173.883L386.762 174.82L386.07 174.182C384.39 172.673 382.228 171.811 379.971 171.75C378.17 171.711 376.412 172.302 375 173.421C373.715 174.444 372.524 175.581 371.441 176.817Z" fill="#263238"/>
<g opacity="0.3">
<path d="M309.896 245.532C307.613 245.303 305.308 245.603 303.16 246.408C301.012 247.214 299.078 248.503 297.508 250.176C295.939 251.85 294.776 253.862 294.109 256.057C293.443 258.253 293.291 260.572 293.665 262.836C293.896 262.713 295.2 262.211 295.2 262.211L294.806 268.866C297.429 268.449 299.936 267.49 302.167 266.049C304.398 264.609 306.304 262.718 307.764 260.499C309.16 258.298 310.072 255.825 310.439 253.245C310.807 250.664 310.622 248.035 309.896 245.532Z" fill="black"/>
</g>
<path d="M293.367 265.905C297.676 265.397 301.612 263.217 304.328 259.834C307.125 256.349 308.969 252.198 309.68 247.786C310.576 242.815 310.209 237.314 307.411 233.226C304.613 229.138 300.444 227.358 295.88 225.715" fill="#EC8305"/>
<path d="M295.88 225.674C296.592 225.817 297.289 226.031 297.958 226.312C299.863 226.947 301.687 227.804 303.391 228.866C305.942 230.498 307.936 232.866 309.11 235.657C310.435 239.074 310.842 242.778 310.291 246.401C309.851 250.02 308.716 253.52 306.95 256.71C305.495 259.318 303.471 261.565 301.028 263.284C299.392 264.436 297.546 265.257 295.595 265.701C295.067 265.819 294.532 265.901 293.992 265.946C293.804 265.978 293.611 265.978 293.422 265.946C293.422 265.946 294.196 265.824 295.527 265.457C297.41 264.92 299.181 264.051 300.756 262.89C303.085 261.161 305.008 258.945 306.393 256.397C308.084 253.272 309.175 249.859 309.612 246.333C310.142 242.824 309.768 239.239 308.526 235.915C307.395 233.247 305.506 230.971 303.093 229.368C301.452 228.294 299.71 227.384 297.891 226.652C297.193 226.386 296.52 226.059 295.88 225.674Z" fill="#263238"/>
<path d="M299.045 180.064C299.416 180.885 299.72 181.735 299.955 182.604C300.498 184.384 301.218 186.679 302.074 189.477V189.559C302.074 193.633 302.155 198.455 302.21 203.752C302.21 210.326 302.318 216.275 302.359 220.771C302.359 222.849 302.359 224.588 302.359 225.933C302.4 226.567 302.377 227.204 302.291 227.834C302.165 227.212 302.097 226.58 302.087 225.946C302.006 224.724 301.911 222.972 301.829 220.785C301.666 216.425 301.531 210.408 301.476 203.752C301.476 198.428 301.476 193.511 301.476 189.559V189.64L299.588 182.686C299.337 181.828 299.156 180.951 299.045 180.064Z" fill="#263238"/>
<path d="M408.709 181.693C408.357 182.374 407.948 183.024 407.486 183.636L403.955 188.783V188.62C403.955 192.899 403.806 198.576 403.507 204.784C403.154 211.575 402.841 217.619 402.597 222.21C402.502 224.342 402.407 226.108 402.352 227.493C402.348 228.144 402.294 228.794 402.189 229.436C402.08 228.794 402.039 228.143 402.067 227.493C402.067 226.244 402.067 224.424 402.067 222.196C402.149 217.728 402.434 211.561 402.773 204.743C403.072 198.549 403.303 192.885 403.398 188.62V188.485L407.12 183.486C407.581 182.831 408.114 182.23 408.709 181.693Z" fill="#263238"/>
<path d="M418.394 270.279C417.63 270.335 416.863 270.335 416.098 270.279C414.002 270.103 411.955 269.551 410.054 268.649C407.277 267.172 404.961 264.958 403.358 262.252C399.647 255.55 398.104 247.863 398.944 240.248C399.332 237.17 400.136 234.159 401.334 231.297C402.137 229.376 403.158 227.553 404.377 225.864C404.706 225.394 405.06 224.94 405.436 224.506C405.681 224.207 405.83 224.058 405.844 224.085C404.239 226.404 402.873 228.879 401.769 231.474C400.652 234.317 399.912 237.295 399.569 240.33C398.819 247.794 400.323 255.312 403.888 261.912C405.408 264.543 407.608 266.715 410.258 268.201C412.091 269.123 414.065 269.733 416.098 270.008C416.87 270.031 417.638 270.122 418.394 270.279Z" fill="#263238"/>
<g opacity="0.3">
<path d="M330.761 171.602C328.52 170.66 326.017 170.545 323.698 171.276V171.398C323.042 173.185 322.586 175.039 322.34 176.926C324.312 175.789 326.538 175.165 328.814 175.113C331.091 175.061 333.343 175.581 335.365 176.627C334.504 174.441 332.864 172.65 330.761 171.602Z" fill="black"/>
</g>
<path d="M349.531 61.0547H348.01C340.61 61.3534 333.596 64.4302 328.364 69.6716C323.133 74.9129 320.07 81.9336 319.785 89.3334C319.228 103.595 318.794 117.531 319.201 125.164C320.043 140.947 336.261 142.495 336.261 142.495C336.261 142.495 336.261 147.928 336.261 152.628C337.946 155.499 340.309 157.914 343.143 159.661C345.978 161.407 349.197 162.433 352.52 162.647C355.842 162.861 359.166 162.258 362.202 160.891C365.237 159.523 367.891 157.432 369.932 154.801L371.874 152.356L374.278 91.8733C374.971 75.4929 366.006 61.3399 349.531 61.0547Z" fill="#FFBF9D"/>
<path d="M336.262 142.712C343.577 142.405 350.649 140.001 356.635 135.785C356.635 135.785 352.18 147.86 336.357 147.099L336.262 142.712Z" fill="#FF9A6C"/>
<path d="M327.053 101.557C327.071 102.145 327.318 102.704 327.742 103.112C328.165 103.521 328.732 103.748 329.321 103.744C329.614 103.755 329.906 103.706 330.179 103.601C330.452 103.496 330.701 103.336 330.911 103.131C331.121 102.927 331.286 102.682 331.398 102.411C331.51 102.14 331.566 101.85 331.562 101.557C331.548 100.967 331.302 100.407 330.877 99.9977C330.453 99.5884 329.884 99.3629 329.294 99.3702C329.002 99.3611 328.711 99.411 328.438 99.5169C328.166 99.6229 327.917 99.7827 327.708 99.9869C327.499 100.191 327.333 100.435 327.22 100.705C327.108 100.975 327.051 101.265 327.053 101.557Z" fill="black"/>
<path d="M323.426 96.2333C323.724 96.5185 325.382 95.1738 327.799 95.0788C330.217 94.9837 332.064 96.1246 332.309 95.8258C332.553 95.527 332.132 95.1603 331.331 94.6305C330.249 93.9474 328.982 93.6153 327.704 93.6798C326.443 93.7264 325.23 94.1736 324.241 94.9565C323.521 95.5677 323.29 96.1246 323.426 96.2333Z" fill="black"/>
<path d="M349.449 101.23C349.463 101.819 349.71 102.38 350.134 102.789C350.559 103.198 351.128 103.424 351.718 103.416C352.005 103.426 352.292 103.377 352.561 103.275C352.829 103.172 353.075 103.017 353.284 102.819C353.492 102.62 353.659 102.383 353.775 102.119C353.891 101.856 353.953 101.572 353.959 101.284C353.937 100.697 353.689 100.14 353.266 99.7325C352.843 99.3246 352.278 99.0969 351.69 99.0972C351.402 99.0863 351.115 99.1332 350.845 99.2352C350.575 99.3371 350.329 99.492 350.12 99.6908C349.911 99.8895 349.744 100.128 349.629 100.392C349.514 100.657 349.453 100.941 349.449 101.23Z" fill="black"/>
<path d="M347.249 95.811C347.548 96.0962 349.205 94.7516 351.623 94.6565C354.04 94.5614 355.887 95.7023 356.132 95.4035C356.376 95.1047 355.955 94.738 355.154 94.2083C354.071 93.5268 352.805 93.1948 351.527 93.2575C350.267 93.3041 349.053 93.7514 348.064 94.5342C347.344 95.1455 347.1 95.6887 347.249 95.811Z" fill="black"/>
<path d="M339.316 114.827C338.019 114.471 336.682 114.284 335.337 114.27C334.712 114.27 334.128 114.134 333.979 113.713C333.901 113.077 334.02 112.433 334.318 111.866L335.948 107.071C338.216 100.28 339.833 94.6432 339.561 94.5481C339.289 94.453 337.225 99.9811 334.956 106.772C334.413 108.457 333.883 110.059 333.394 111.594C333.032 112.357 332.955 113.224 333.177 114.039C333.274 114.254 333.418 114.444 333.6 114.595C333.781 114.745 333.994 114.852 334.223 114.908C334.57 114.989 334.927 115.021 335.282 115.003C336.629 115.117 337.985 115.057 339.316 114.827Z" fill="black"/>
<path d="M347.873 83.7363C348.132 84.3883 350.59 83.9808 353.402 84.2117C356.213 84.4426 358.604 85.1217 358.957 84.5105C359.12 84.2253 358.685 83.6277 357.734 83.0165C356.462 82.2865 355.041 81.8547 353.577 81.7536C352.114 81.6524 350.647 81.8845 349.286 82.4324C348.254 82.8942 347.751 83.4375 347.873 83.7363Z" fill="black"/>
<path d="M324.28 85.0267C324.81 85.5565 326.766 84.9045 329.143 84.7823C331.52 84.66 333.543 84.9724 333.992 84.3884C334.182 84.0896 333.842 83.5598 332.932 83.0301C331.692 82.4538 330.326 82.199 328.961 82.2892C327.596 82.3794 326.276 82.8117 325.122 83.5463C324.307 84.1846 324.049 84.7687 324.28 85.0267Z" fill="black"/>
<path d="M373.423 103.705C373.695 103.569 384.153 100.037 384.289 110.849C384.425 121.661 372.649 119.908 372.622 119.61C372.595 119.311 373.423 103.705 373.423 103.705Z" fill="#FFBF9D"/>
<path d="M376.709 115.138C376.709 115.138 376.9 115.274 377.226 115.41C377.663 115.577 378.146 115.577 378.584 115.41C379.711 114.989 380.662 113.169 380.703 111.213C380.72 110.277 380.529 109.35 380.146 108.496C380.041 108.16 379.856 107.853 379.608 107.602C379.36 107.352 379.055 107.165 378.72 107.057C378.501 107.004 378.271 107.027 378.069 107.124C377.866 107.22 377.702 107.383 377.606 107.586C377.47 107.885 377.606 108.102 377.484 108.13C377.361 108.157 377.239 107.939 377.334 107.505C377.39 107.235 377.533 106.992 377.742 106.812C378.041 106.587 378.415 106.485 378.788 106.527C379.23 106.617 379.642 106.815 379.989 107.104C380.335 107.394 380.604 107.765 380.771 108.184C381.24 109.118 381.473 110.154 381.45 111.199C381.45 113.372 380.309 115.423 378.733 115.899C378.443 115.983 378.139 116.003 377.84 115.956C377.542 115.909 377.258 115.796 377.008 115.627C376.737 115.355 376.682 115.138 376.709 115.138Z" fill="#FF9A6C"/>
<path d="M297.958 75.1662C298.143 74.53 298.566 73.9898 299.14 73.6586C300.411 73.0657 301.818 72.822 303.215 72.9523C306.649 72.8271 310.011 71.9263 313.048 70.3173C311.956 69.8209 310.947 69.1563 310.06 68.3478C309.128 67.5133 308.444 66.4376 308.085 65.2392C307.725 64.0408 307.704 62.7664 308.023 61.5566C308.076 61.3319 308.179 61.1222 308.325 60.9434C308.471 60.7645 308.655 60.6212 308.865 60.5243C309.571 60.2934 310.223 60.9725 310.685 61.5158C311.317 62.3566 312.164 63.0112 313.137 63.4104C314.11 63.8097 315.173 63.9388 316.213 63.7841C317.649 63.6771 319.043 63.2452 320.288 62.5209L320.41 62.3715L322.135 60.8095C326.21 56.7348 329.619 53.896 333.205 52.402C338.461 50.2288 347.276 49.2644 352.804 50.6362C358.332 52.0081 363.317 56.436 364.146 62.0591C367.202 59.4241 371.847 59.3426 375.623 60.8639H375.718C379.915 62.3172 382.346 66.7179 383.636 70.9692C383.704 71.2001 383.759 71.431 383.827 71.6755C385.263 73.9194 387.22 75.7833 389.531 77.1085C389.939 77.3394 390.401 77.6246 390.455 78.0864C390.444 78.3192 390.373 78.5451 390.249 78.7425C390.126 78.9399 389.953 79.1022 389.749 79.2138C388.748 79.9435 387.597 80.44 386.38 80.6671C386.753 81.6756 387.208 82.6522 387.738 83.5873C388.227 84.3887 388.798 85.3395 388.39 86.168C388.207 86.4778 387.932 86.7235 387.604 86.8717C387.276 87.02 386.91 87.0636 386.557 86.9966C385.852 86.8515 385.186 86.56 384.601 86.1409C385.076 87.2546 385.552 88.3684 386.041 89.4821C384.52 89.7502 382.958 89.6619 381.477 89.2241C380.635 93.2988 380.051 100.633 379.046 103.35C376.18 103.431 375.487 103.133 374.034 103.622C372.173 104.273 372.92 107.574 370.475 106.664C369.225 106.202 367.27 101.516 366.849 100.253C363.994 91.8659 362.979 82.962 363.874 74.1475C362.114 72.3132 360.015 70.8372 357.694 69.8011L357.884 69.9641C353.443 68.4836 348.376 67.0167 344.302 69.1492C341.069 70.7927 339.195 74.1883 336.79 76.9184C334.769 79.4023 332.243 81.428 329.379 82.8612C326.515 84.2943 323.379 85.102 320.179 85.2308C319.622 90.0119 319.527 97.8218 319.337 102.277L315.493 93.2717C315.195 92.7607 314.923 92.2348 314.678 91.6961L314.583 91.5467C314.204 90.6864 313.778 89.8476 313.306 89.0339C312.82 89.5743 312.139 89.8993 311.413 89.9375C310.687 89.9757 309.976 89.724 309.435 89.2377C308.895 88.7514 308.57 88.0703 308.532 87.3444C308.494 86.6184 308.745 85.907 309.232 85.3667C309.613 84.848 310.071 84.3901 310.59 84.0084C310.049 84.5413 309.38 84.9262 308.647 85.126C307.915 85.3258 307.143 85.3338 306.406 85.1493C305.679 84.9323 305.044 84.4825 304.597 83.869C304.15 83.2555 303.918 82.5123 303.934 81.7537C303.985 81.24 304.172 80.7491 304.475 80.3314C304.778 79.9136 305.187 79.5841 305.659 79.3768C303.696 79.5564 301.723 79.1449 299.996 78.1951C298.692 77.5975 297.591 76.5652 297.958 75.1662Z" fill="black"/>
<path d="M359.188 63.8535C359.757 64.2928 360.293 64.774 360.79 65.2933C362.059 66.7906 362.916 68.593 363.276 70.5225C363.569 71.8614 363.723 73.2268 363.738 74.5973C363.738 76.0506 363.656 77.6126 363.561 79.2561C363.458 80.984 363.458 82.7166 363.561 84.4446C363.617 85.3586 363.744 86.2669 363.941 87.1611C364.095 88.1234 364.493 89.0305 365.096 89.7961C365.375 90.1005 365.728 90.328 366.12 90.4564C366.513 90.5849 366.932 90.6101 367.337 90.5295C368.098 90.354 368.78 89.9342 369.279 89.3343C370.128 88.1327 370.639 86.7257 370.76 85.2595H370.42C370.914 86.4488 371.578 87.5605 372.39 88.5601C373.171 89.4851 374.282 90.0697 375.486 90.1899C376.047 90.2506 376.614 90.1468 377.116 89.8911C377.583 89.6395 377.965 89.2571 378.217 88.791C378.437 88.3731 378.545 87.9049 378.529 87.4327C378.505 86.9775 378.322 86.5452 378.013 86.2103L377.836 86.3597C378.798 87.4237 379.967 88.279 381.273 88.8725C381.615 89.0306 381.969 89.1623 382.332 89.2663C382.455 89.3123 382.582 89.3442 382.712 89.3614C382.598 89.294 382.475 89.2436 382.346 89.212C382.115 89.1169 381.762 88.9811 381.327 88.7638C380.049 88.1572 378.908 87.2977 377.972 86.2375L377.809 86.3869C378.068 86.7186 378.219 87.1221 378.241 87.5425C378.263 87.9628 378.155 88.3797 377.931 88.7366C377.714 89.1602 377.366 89.5029 376.94 89.7146C376.484 89.9356 375.976 90.025 375.473 89.9726C374.346 89.8475 373.313 89.2869 372.593 88.4106C371.828 87.4552 371.206 86.3938 370.746 85.2595L370.515 84.757L370.407 85.3003C370.3 86.6871 369.832 88.0218 369.048 89.1713C368.577 89.6994 367.949 90.0614 367.255 90.2035C366.913 90.2735 366.558 90.254 366.225 90.1469C365.892 90.0399 365.592 89.8489 365.354 89.5923C364.795 88.8726 364.43 88.0214 364.294 87.1203C364.096 86.2259 363.964 85.3179 363.901 84.4038C363.798 82.6894 363.798 80.9704 363.901 79.2561C363.982 77.6126 364.077 76.0506 364.036 74.5701C364.012 73.198 363.843 71.8323 363.534 70.4953C363.14 68.5397 362.23 66.7249 360.899 65.2389C360.412 64.6827 359.833 64.2141 359.188 63.8535Z" fill="black"/>
<path d="M310.4 79.8256C310.4 79.8256 310.4 79.8256 310.536 79.9342L310.93 80.2194C311.147 80.3743 311.374 80.515 311.609 80.6405C311.922 80.8249 312.244 80.9927 312.574 81.1431C314.709 82.0778 317.042 82.4697 319.365 82.284C322.819 82.0125 326.121 80.7484 328.873 78.6439C332.21 76.064 334.983 72.8284 337.022 69.1361C338.163 67.2074 339.073 65.2244 340.092 63.4043C341.012 61.6255 342.183 59.9879 343.569 58.5418C344.812 57.2192 346.367 56.2293 348.092 55.6623C348.873 55.4387 349.684 55.3379 350.496 55.3635C351.248 55.3937 351.993 55.5263 352.71 55.7574C353.942 56.1641 355.072 56.8312 356.024 57.7133C356.753 58.3731 357.368 59.1487 357.844 60.0087C358.216 60.7608 358.499 61.554 358.686 62.3721C358.689 62.3178 358.689 62.2634 358.686 62.2091C358.686 62.0732 358.659 61.9103 358.605 61.7201C358.469 61.104 358.259 60.5065 357.98 59.9408C357.518 59.0546 356.912 58.2514 356.187 57.5639C355.218 56.6477 354.065 55.9485 352.805 55.5129C352.067 55.2669 351.3 55.1207 350.523 55.0783C349.679 55.0456 348.836 55.1465 348.024 55.3771C346.246 55.9241 344.635 56.9096 343.338 58.243C341.92 59.7061 340.721 61.3668 339.779 63.1734C338.761 65.0071 337.837 66.9765 336.723 68.8916C334.724 72.5634 332.008 75.7965 328.737 78.3994C326.037 80.4779 322.799 81.7409 319.406 82.0395C317.121 82.2485 314.819 81.9038 312.696 81.0344C311.909 80.6737 311.143 80.2702 310.4 79.8256Z" fill="black"/>
<path d="M308.879 72.8713C308.879 72.8713 309.069 73.0343 309.463 73.2652C310.001 73.5872 310.564 73.8643 311.147 74.0938C312.025 74.4615 312.934 74.7479 313.864 74.9495C314.985 75.1901 316.126 75.3265 317.273 75.3569C318.42 75.3676 319.565 75.2767 320.696 75.0853C321.62 74.9163 322.528 74.6709 323.412 74.3518C324.002 74.145 324.575 73.8906 325.124 73.5912C325.339 73.4977 325.54 73.3742 325.721 73.2245C325.721 73.2245 324.811 73.6184 323.317 74.1073C322.428 74.3864 321.52 74.5997 320.601 74.7457C319.491 74.9214 318.369 75.0032 317.246 74.9902C316.123 74.9541 315.006 74.827 313.904 74.6099C313.003 74.4263 312.117 74.1719 311.256 73.8493C309.762 73.306 308.92 72.817 308.879 72.8713Z" fill="black"/>
<path d="M348.159 120.572C348.05 120.654 347.86 119.893 347.004 119.526C346.459 119.368 345.879 119.368 345.334 119.526C344.654 119.622 343.907 119.757 343.133 119.934C340.036 120.586 337.7 121.591 337.551 121.401C339.173 120.275 341.032 119.536 342.984 119.241C343.732 119.074 344.489 118.951 345.252 118.875C345.909 118.738 346.593 118.809 347.208 119.078C347.619 119.299 347.938 119.661 348.104 120.097C348.213 120.369 348.199 120.572 348.159 120.572Z" fill="black"/>
<path d="M263.215 198.956C264.584 200.63 265.584 202.574 266.149 204.66C266.611 207.282 272.479 241.333 274.013 246.073C275.915 251.995 279.867 264.043 295.596 259.52C306.462 256.396 306.856 239.812 299.453 230.725C292.051 221.638 279.718 195.56 278.822 192.178C277.925 188.796 269.11 178.596 258.937 175.879C248.764 173.163 243.67 173.163 239.921 168.219C236.173 163.275 231.595 160.87 229.436 164.578C227.276 168.286 239.921 179.37 239.921 179.37L257.579 196.334L263.215 198.956Z" fill="#FFBF9D"/>
<path d="M229.19 178.693C229.19 178.693 221.367 169.185 216.26 173.138C216.26 173.138 222.888 182.007 225.129 184.411C227.37 186.815 233.184 188.486 233.184 188.486C233.184 188.486 238.997 195.209 242.121 196.106C243.778 196.663 245.571 196.663 247.228 196.106C247.228 196.106 247.309 197.627 252.24 198.333C257.17 199.04 270.223 197.709 270.223 197.709L278.291 190.917C278.291 190.917 274.216 184.126 268.077 183.99C261.938 183.854 257.333 188.554 257.333 188.554L251.9 188.459L248.586 184.167C248.586 184.167 249.224 172.893 242.501 174.143C242.501 174.143 242.27 170.53 239.404 170.177C238.585 170.106 237.767 170.327 237.096 170.802C236.424 171.277 235.943 171.975 235.737 172.771C235.737 172.771 236.335 168.33 233.917 167.433C233.544 167.229 233.133 167.104 232.709 167.067C232.286 167.029 231.859 167.08 231.456 167.215C231.053 167.35 230.682 167.567 230.367 167.852C230.052 168.138 229.799 168.485 229.625 168.873C228.973 170.19 229.19 178.693 229.19 178.693Z" fill="#FFBF9D"/>
<path d="M247.853 196.131C246.998 195.357 246.24 194.481 245.598 193.523C244.96 192.668 244.24 191.649 243.452 190.454C243.003 189.821 242.685 189.105 242.515 188.348C242.347 187.564 242.229 186.77 242.162 185.971C241.97 183.195 241.97 180.408 242.162 177.632C242.165 176.479 242.302 175.33 242.569 174.209C242.706 175.354 242.738 176.508 242.664 177.659C242.664 179.778 242.664 182.712 242.868 185.904C242.924 186.675 243.033 187.442 243.194 188.199C243.334 188.886 243.611 189.537 244.009 190.114C244.715 191.296 245.367 192.342 246.006 193.224C246.7 194.141 247.318 195.113 247.853 196.131Z" fill="#FF9A6C"/>
<path d="M235.819 191.351C235.246 190.6 234.901 189.699 234.828 188.757C234.477 186.561 234.372 184.333 234.515 182.115C234.577 178.978 235.033 175.861 235.873 172.838C236.064 172.838 235.548 177.021 235.289 182.142C235.156 184.323 235.188 186.512 235.385 188.689C235.48 190.346 235.914 191.283 235.819 191.351Z" fill="#FF9A6C"/>
<path d="M233.605 189C232.815 188.47 232.117 187.814 231.54 187.057C231.242 186.731 230.929 186.378 230.603 185.971C230.22 185.538 229.908 185.048 229.68 184.517C229.357 183.283 229.171 182.017 229.123 180.741C228.946 178.025 228.96 175.675 229 173.95C228.96 173.006 229.047 172.06 229.259 171.139C229.476 171.139 229.503 175.444 229.829 180.646C229.879 181.866 230.034 183.079 230.291 184.273C230.49 184.76 230.755 185.217 231.079 185.631L231.921 186.759C232.552 187.45 233.116 188.201 233.605 189Z" fill="#FF9A6C"/>
<path d="M257.334 188.621C256.886 188.705 256.43 188.737 255.975 188.716H252.023H251.914L251.846 188.634C250.469 187.202 249.286 185.594 248.328 183.853V183.785C248.415 182.071 248.268 180.353 247.894 178.678C247.658 177.793 247.252 176.963 246.698 176.233C246.433 175.867 246.097 175.558 245.709 175.325C245.322 175.091 244.892 174.939 244.444 174.875C243.856 174.805 243.261 174.851 242.692 175.011L242.271 175.106V174.685C242.253 173.845 242.024 173.023 241.605 172.294C241.185 171.64 240.544 171.158 239.799 170.936C239.458 170.824 239.095 170.796 238.74 170.852C238.386 170.909 238.05 171.05 237.761 171.262C237.162 171.64 236.664 172.158 236.308 172.77L235.805 173.653V172.648C235.908 171.268 235.565 169.892 234.827 168.722C234.461 168.355 234.012 168.082 233.518 167.926C233.024 167.77 232.499 167.736 231.989 167.826C231.308 167.924 230.673 168.228 230.169 168.695C229.829 169.021 229.707 169.252 229.666 169.238C229.728 168.981 229.86 168.746 230.046 168.559C230.536 168.005 231.195 167.627 231.921 167.486C232.496 167.355 233.095 167.368 233.663 167.524C234.232 167.681 234.753 167.976 235.181 168.383C236.045 169.616 236.475 171.102 236.403 172.607L235.846 172.485C236.235 171.771 236.795 171.164 237.476 170.719C237.845 170.451 238.272 170.273 238.723 170.2C239.174 170.127 239.635 170.16 240.07 170.298C240.97 170.58 241.74 171.172 242.243 171.968C242.731 172.793 243.002 173.727 243.031 174.685L242.597 174.373C243.255 174.194 243.941 174.139 244.62 174.21C245.163 174.282 245.685 174.467 246.153 174.753C246.62 175.038 247.024 175.417 247.337 175.867C247.967 176.672 248.429 177.596 248.695 178.583C249.079 180.321 249.212 182.105 249.089 183.88V183.744C249.999 185.46 251.112 187.061 252.403 188.512L252.227 188.43L256.179 188.593C256.564 188.566 256.95 188.575 257.334 188.621Z" fill="#FF9A6C"/>
<path d="M271.431 184.329C269.201 183.895 266.905 183.931 264.69 184.437C262.474 184.942 260.389 185.905 258.568 187.263C258.568 187.263 258.989 186.57 260.022 185.796C261.376 184.808 262.918 184.107 264.553 183.736C266.188 183.364 267.881 183.331 269.529 183.637C270.209 183.714 270.861 183.951 271.431 184.329Z" fill="#FF9A6C"/>
<path d="M462.454 174.726C461.698 174.435 460.861 174.435 460.105 174.726C456.541 175.837 453.186 177.531 450.176 179.738L452.797 188.77C453.816 186.814 458.556 184.261 460.213 182.808C462.017 181.503 463.256 179.56 463.677 177.375C463.746 176.863 463.668 176.341 463.451 175.872C463.235 175.403 462.889 175.005 462.454 174.726Z" fill="#FF9A6C"/>
<path d="M404.377 252.323C403.626 245.641 403.567 238.901 404.2 232.207C404.947 226.19 409.932 208.438 410.272 202.883C410.611 197.327 410.788 194.733 414.265 192.125C417.742 189.517 417.729 190.767 422.591 187.792C427.454 184.818 428.486 182.767 435.78 182.359C443.073 181.952 448.792 197.626 448.792 197.626C448.792 197.626 448.438 200.927 447.053 201.796C445.668 202.665 443.929 202.828 439.596 202.652C435.263 202.475 430.917 203.521 430.564 206.129C430.344 212.372 430.988 218.616 432.479 224.682C434.218 231.107 432.819 238.564 431.61 244.812C430.401 251.06 427.888 264.696 417.905 265.797C406.183 267.087 404.377 252.323 404.377 252.323Z" fill="#FFBF9D"/>
<path d="M422.129 194.706C422.129 194.706 427.562 194.163 428.431 193.104C429.3 192.044 432.343 181.654 434.041 179.277C435.739 176.9 436.879 176.438 438.727 176.818C438.727 176.818 438.482 172.159 442.693 171.494C442.693 171.494 445.314 171.086 445.735 177.402C445.735 177.402 445.287 171.385 449.742 169.334C450.263 169.084 450.86 169.045 451.41 169.224C451.959 169.404 452.417 169.789 452.689 170.299C452.809 170.538 452.892 170.795 452.934 171.059C453.206 172.499 453.572 179.209 453.572 179.209C453.572 179.209 454.061 188.309 454.184 187.915C454.306 187.521 459.793 175.27 460.581 174.088C460.897 173.363 461.453 172.768 462.155 172.402C462.857 172.036 463.662 171.922 464.438 172.078C464.856 172.106 465.254 172.262 465.58 172.524C465.905 172.787 466.142 173.143 466.258 173.545C466.269 174.2 466.192 174.853 466.027 175.487C465.172 178.964 462.849 188.689 461.953 190.279C461.056 191.868 452.662 200.683 449.24 200.968C447.433 201.144 445.613 201.144 443.807 200.968L422.129 194.706Z" fill="#FFBF9D"/>
<path d="M433.281 199.35C433.199 199.269 434.068 198.264 435.196 196.457C435.86 195.418 436.403 194.306 436.812 193.143C437.052 192.472 437.207 191.774 437.274 191.065C437.274 190.291 437.396 189.489 437.451 188.674C437.709 185.415 437.98 182.467 438.211 180.335C438.27 179.171 438.442 178.015 438.727 176.885C438.843 178.045 438.843 179.215 438.727 180.375C438.619 182.521 438.428 185.482 438.17 188.742C438.102 189.557 438.048 190.359 437.98 191.133C437.894 191.898 437.716 192.651 437.451 193.374C436.983 194.567 436.372 195.698 435.63 196.742C435.007 197.743 434.211 198.626 433.281 199.35Z" fill="#FF9A6C"/>
<path d="M445.68 176.789C445.906 177.916 446.011 179.063 445.993 180.212C446.101 182.317 446.197 185.237 446.264 188.456C446.264 189.258 446.264 190.046 446.264 190.806C446.321 191.563 446.289 192.325 446.169 193.074C445.833 194.302 445.301 195.467 444.594 196.524C444.043 197.538 443.332 198.455 442.489 199.241C442.407 199.241 443.154 198.1 444.173 196.266C444.778 195.226 445.235 194.106 445.531 192.939C445.607 192.239 445.607 191.533 445.531 190.833C445.531 190.073 445.531 189.285 445.531 188.484C445.463 185.251 445.449 182.331 445.531 180.212C445.46 179.069 445.51 177.922 445.68 176.789Z" fill="#FF9A6C"/>
<path d="M454.035 187.018C454.13 187.018 454.483 187.615 454.524 188.743C454.533 189.408 454.428 190.069 454.212 190.698C453.913 191.426 453.559 192.13 453.152 192.804C452.214 194.567 451.009 196.175 449.58 197.571C450.419 195.778 451.409 194.061 452.541 192.437C452.93 191.796 453.284 191.134 453.6 190.454C453.827 189.899 453.969 189.313 454.022 188.715C454.117 187.697 453.954 187.045 454.035 187.018Z" fill="#FF9A6C"/>
<path d="M416.914 194.65C416.914 194.337 422.116 195.247 428.038 192.871L428.323 192.775L428.106 192.979C429.22 190.086 430.252 187.546 431.026 185.645C431.373 184.617 431.828 183.629 432.384 182.697C432.19 183.769 431.881 184.816 431.461 185.821C430.795 187.723 429.845 190.344 428.744 193.237V193.387H428.595L428.31 193.482C426.889 193.966 425.443 194.37 423.977 194.691C422.766 194.936 421.53 195.031 420.296 194.976C419.159 195.029 418.02 194.92 416.914 194.65Z" fill="#FF9A6C"/>
</svg>
