<svg width="679" height="680" viewBox="0 0 679 680" fill="none" xmlns="http://www.w3.org/2000/svg">
<path d="M532.435 364.784L433.719 327.45C426.898 324.87 423.459 317.249 426.039 310.427L477.713 173.792C480.293 166.97 487.914 163.532 494.736 166.111L557.342 189.788L586.913 258.065L549.458 357.102C546.878 363.925 539.257 367.363 532.435 364.784Z" fill="#F5F5F5"/>
<path d="M557.341 189.787L542.798 228.242C540.398 234.587 543.596 241.675 549.939 244.075L586.912 258.064L557.341 189.787Z" fill="#EBEBEB"/>
<path d="M542.026 231.809C542.026 231.809 538.012 240.951 547.47 248.032C547.826 248.298 548.202 248.539 548.582 248.765C553.083 251.454 582.727 269.128 583.004 268.397C583.303 267.607 586.912 258.063 586.912 258.063L549.937 244.079C549.937 244.079 540.824 240.273 542.026 231.809Z" fill="#E0E0E0"/>
<path d="M535.114 223.544C534.926 224.039 524.55 220.573 511.942 215.803C499.329 211.033 489.257 206.766 489.444 206.272C489.631 205.777 500.005 209.243 512.619 214.013C525.228 218.783 535.301 223.05 535.114 223.544Z" fill="#E0E0E0"/>
<path d="M556.387 256.44C556.2 256.934 539.221 250.971 518.468 243.122C497.708 235.271 481.035 228.507 481.222 228.013C481.41 227.519 498.385 233.481 519.145 241.332C539.899 249.18 556.574 255.946 556.387 256.44Z" fill="#E0E0E0"/>
<path d="M556.289 277.156C556.102 277.65 537.607 271.112 514.986 262.558C492.355 254 474.168 246.664 474.355 246.169C474.542 245.675 493.033 252.211 515.662 260.769C538.284 269.323 556.476 276.661 556.289 277.156Z" fill="#E0E0E0"/>
<path d="M549.812 294.284C549.625 294.779 531.131 288.243 508.509 279.687C485.879 271.129 467.691 263.792 467.878 263.298C468.064 262.804 486.556 269.34 509.185 277.898C531.807 286.454 549.998 293.792 549.812 294.284Z" fill="#E0E0E0"/>
<path d="M543.333 311.413C543.146 311.907 524.651 305.372 502.029 296.816C479.398 288.257 461.211 280.921 461.398 280.427C461.585 279.933 480.076 286.468 502.705 295.027C525.329 303.583 543.521 310.921 543.333 311.413Z" fill="#E0E0E0"/>
<path d="M536.855 328.544C536.668 329.038 518.173 322.501 495.552 313.947C472.922 305.388 454.734 298.052 454.921 297.558C455.109 297.063 473.599 303.598 496.23 312.158C518.849 320.712 537.041 328.05 536.855 328.544Z" fill="#E0E0E0"/>
<path d="M274.274 425.696L144.138 471.266C139.635 472.842 134.708 470.471 133.132 465.968L67.837 279.509C66.2611 275.007 68.6325 270.079 73.135 268.503L203.272 222.933C207.774 221.357 212.701 223.728 214.277 228.229L279.571 414.689C281.148 419.191 278.776 424.12 274.274 425.696Z" fill="#EBEBEB"/>
<path d="M204.945 234.522L79.0566 278.605L143.776 463.422L269.664 419.338L204.945 234.522Z" fill="#E0E0E0"/>
<path d="M202.691 233.647L76.8027 277.73L140.286 459.017L266.174 414.933L202.691 233.647Z" fill="#FAFAFA"/>
<path d="M266.176 414.936C265.643 413.421 240.081 340.642 202.523 233.707L202.752 233.817C164.573 247.193 121.855 262.157 76.8833 277.912L76.8684 277.918L76.9892 277.665C100.718 345.762 122.804 408.647 140.435 458.966L140.232 458.869C216.805 432.159 264.94 415.368 266.176 414.936C264.943 415.369 216.846 432.276 140.338 459.17L140.187 459.223L140.134 459.072C122.504 408.757 100.467 345.866 76.6159 277.797L76.5508 277.609L76.7381 277.544L76.753 277.539C121.729 261.796 164.451 246.843 202.634 233.478L202.805 233.418L202.865 233.588C240.221 340.593 265.647 413.421 266.176 414.936Z" fill="#E0E0E0"/>
<path d="M221.52 430.574C221.52 430.574 249.555 406.931 254.413 382.305C254.413 382.305 246.63 394.506 230.447 396.735C230.447 396.735 229.885 422.59 221.52 430.574Z" fill="#E0E0E0"/>
<path d="M125.225 333.515L118.596 335.837C116.177 336.684 113.53 335.409 112.683 332.99L110.362 326.361C109.515 323.942 110.789 321.295 113.208 320.446L119.838 318.125C122.256 317.278 124.903 318.553 125.75 320.972L128.072 327.601C128.919 330.022 127.644 332.668 125.225 333.515Z" fill="#EBEBEB"/>
<path d="M119.029 329.538C119.025 329.539 119.021 329.541 119.017 329.542C118.915 329.575 118.805 329.561 118.713 329.508L115.678 327.748C115.496 327.643 115.435 327.41 115.539 327.228C115.645 327.047 115.877 326.985 116.059 327.089L118.736 328.641L121.942 321.783C122.03 321.593 122.257 321.512 122.447 321.6C122.637 321.688 122.72 321.915 122.63 322.105L119.249 329.339C119.204 329.434 119.126 329.504 119.029 329.538Z" fill="white"/>
<path d="M205.963 290.07C205.999 290.173 189.649 295.992 169.45 303.066C149.244 310.142 132.839 315.791 132.803 315.688C132.766 315.585 149.112 309.767 169.318 302.691C189.518 295.617 205.926 289.967 205.963 290.07Z" fill="#E0E0E0"/>
<path d="M167.57 316.15C167.58 316.176 167.156 316.351 166.384 316.647C165.546 316.957 164.44 317.367 163.102 317.863C160.324 318.873 156.479 320.244 152.223 321.733C147.967 323.223 144.106 324.552 141.306 325.494C139.951 325.941 138.831 326.311 137.983 326.591C137.196 326.842 136.756 326.968 136.746 326.942C136.737 326.917 137.16 326.742 137.931 326.446C138.769 326.135 139.875 325.725 141.213 325.229C143.991 324.22 147.836 322.849 152.093 321.358C156.348 319.868 160.209 318.54 163.009 317.597C164.364 317.15 165.485 316.78 166.334 316.5C167.121 316.25 167.561 316.124 167.57 316.15Z" fill="#E0E0E0"/>
<path d="M207.708 295.056C207.745 295.159 191.395 300.978 171.197 308.052C150.99 315.128 134.586 320.777 134.551 320.674C134.514 320.571 150.86 314.753 171.066 307.679C191.264 300.605 207.673 294.954 207.708 295.056Z" fill="#E0E0E0"/>
<path d="M134.684 360.528L128.054 362.849C125.635 363.696 122.988 362.421 122.14 360.002L119.819 353.373C118.972 350.954 120.246 348.307 122.665 347.46L129.295 345.139C131.714 344.292 134.36 345.567 135.207 347.985L137.529 354.615C138.377 357.032 137.102 359.681 134.684 360.528Z" fill="#EBEBEB"/>
<path d="M128.488 356.55C128.483 356.551 128.479 356.553 128.475 356.554C128.374 356.586 128.264 356.573 128.171 356.52L125.135 354.759C124.953 354.655 124.892 354.421 124.996 354.24C125.102 354.059 125.334 353.995 125.516 354.101L128.193 355.653L131.399 348.795C131.487 348.605 131.714 348.524 131.904 348.612C132.094 348.7 132.177 348.927 132.087 349.117L128.705 356.35C128.663 356.445 128.584 356.516 128.488 356.55Z" fill="white"/>
<path d="M215.422 317.081C215.459 317.185 199.109 323.004 178.909 330.077C158.703 337.153 142.299 342.803 142.264 342.7C142.227 342.597 158.573 336.779 178.779 329.703C198.979 322.631 215.386 316.978 215.422 317.081Z" fill="#E0E0E0"/>
<path d="M177.027 343.162C177.037 343.187 176.613 343.362 175.842 343.658C175.005 343.969 173.898 344.379 172.56 344.875C169.783 345.884 165.937 347.255 161.682 348.744C157.425 350.235 153.564 351.564 150.764 352.506C149.409 352.952 148.29 353.323 147.44 353.603C146.653 353.854 146.213 353.98 146.203 353.954C146.194 353.928 146.617 353.753 147.388 353.457C148.226 353.147 149.332 352.737 150.67 352.241C153.448 351.231 157.293 349.86 161.55 348.37C165.805 346.879 169.666 345.552 172.466 344.608C173.821 344.162 174.941 343.791 175.791 343.512C176.579 343.262 177.019 343.136 177.027 343.162Z" fill="#E0E0E0"/>
<path d="M217.168 322.07C217.205 322.173 200.855 327.992 180.656 335.065C160.449 342.142 144.045 347.791 144.01 347.688C143.973 347.585 160.319 341.767 180.525 334.692C200.723 327.619 217.132 321.967 217.168 322.07Z" fill="#E0E0E0"/>
<path d="M144.143 387.538L137.514 389.859C135.095 390.706 132.448 389.431 131.601 387.012L129.28 380.383C128.433 377.964 129.707 375.317 132.126 374.47L138.756 372.149C141.174 371.302 143.821 372.576 144.668 374.995L146.99 381.625C147.835 384.044 146.562 386.691 144.143 387.538Z" fill="#EBEBEB"/>
<path d="M137.945 383.563C137.941 383.565 137.937 383.566 137.933 383.567C137.831 383.6 137.721 383.586 137.629 383.533L134.594 381.773C134.412 381.668 134.351 381.435 134.455 381.253C134.561 381.072 134.793 381.01 134.975 381.115L137.652 382.666L140.858 375.808C140.948 375.62 141.173 375.537 141.363 375.625C141.553 375.713 141.636 375.94 141.546 376.13L138.164 383.364C138.12 383.457 138.042 383.529 137.945 383.563Z" fill="white"/>
<path d="M224.879 344.093C224.916 344.196 208.566 350.016 188.366 357.089C168.16 364.165 151.756 369.815 151.721 369.711C151.684 369.608 168.03 363.79 188.236 356.716C208.436 349.641 224.843 343.99 224.879 344.093Z" fill="#E0E0E0"/>
<path d="M186.486 370.171C186.496 370.197 186.072 370.372 185.3 370.668C184.462 370.979 183.356 371.389 182.018 371.884C179.24 372.894 175.395 374.265 171.139 375.754C166.883 377.244 163.022 378.573 160.222 379.515C158.867 379.962 157.747 380.332 156.899 380.612C156.112 380.863 155.672 380.989 155.662 380.964C155.653 380.938 156.076 380.763 156.847 380.467C157.685 380.156 158.791 379.746 160.129 379.251C162.907 378.241 166.752 376.87 171.009 375.379C175.264 373.889 179.125 372.561 181.925 371.618C183.28 371.171 184.4 370.801 185.25 370.521C186.038 370.273 186.478 370.147 186.486 370.171Z" fill="#E0E0E0"/>
<path d="M226.627 349.08C226.664 349.183 210.314 355.002 190.115 362.075C169.908 369.151 153.504 374.801 153.469 374.698C153.432 374.595 169.778 368.777 189.984 361.702C210.184 354.629 226.591 348.976 226.627 349.08Z" fill="#E0E0E0"/>
<path d="M153.6 414.549L146.971 416.87C144.552 417.717 141.905 416.443 141.058 414.024L138.737 407.394C137.89 404.976 139.164 402.329 141.583 401.482L148.213 399.16C150.631 398.313 153.278 399.588 154.125 402.007L156.447 408.636C157.294 411.055 156.019 413.702 153.6 414.549Z" fill="#EBEBEB"/>
<path d="M147.404 410.573C147.4 410.575 147.396 410.576 147.392 410.577C147.29 410.609 147.18 410.596 147.088 410.543L144.053 408.783C143.871 408.677 143.81 408.445 143.914 408.263C144.019 408.081 144.252 408.02 144.434 408.125L147.111 409.676L150.317 402.818C150.405 402.628 150.633 402.547 150.822 402.635C151.012 402.725 151.095 402.95 151.005 403.14L147.623 410.374C147.579 410.469 147.499 410.539 147.404 410.573Z" fill="white"/>
<path d="M234.337 371.105C234.373 371.208 218.024 377.027 197.825 384.101C177.619 391.177 161.215 396.826 161.18 396.723C161.143 396.62 177.489 390.802 197.695 383.727C217.893 376.654 234.302 371.002 234.337 371.105Z" fill="#E0E0E0"/>
<path d="M195.945 397.185C195.954 397.211 195.53 397.386 194.758 397.682C193.921 397.993 192.814 398.403 191.476 398.898C188.699 399.908 184.853 401.279 180.598 402.768C176.341 404.258 172.48 405.587 169.68 406.529C168.325 406.976 167.206 407.346 166.356 407.626C165.569 407.877 165.129 408.003 165.119 407.978C165.11 407.952 165.533 407.777 166.304 407.481C167.142 407.17 168.248 406.76 169.587 406.265C172.364 405.255 176.209 403.884 180.466 402.393C184.722 400.903 188.582 399.575 191.382 398.632C192.737 398.185 193.857 397.815 194.707 397.535C195.495 397.285 195.935 397.159 195.945 397.185Z" fill="#E0E0E0"/>
<path d="M236.084 376.093C236.121 376.196 219.771 382.016 199.572 389.089C179.365 396.165 162.961 401.815 162.926 401.711C162.889 401.608 179.235 395.79 199.441 388.716C219.641 381.641 236.048 375.99 236.084 376.093Z" fill="#E0E0E0"/>
<path d="M91.0605 260.07L94.3835 269.56C96.3123 275.067 102.339 277.968 107.846 276.039L177.478 251.656C182.985 249.727 185.886 243.7 183.957 238.195L180.641 228.723L91.0605 260.07Z" fill="#E0E0E0"/>
<path d="M136.777 247.207C131.622 249.013 125.96 246.287 124.155 241.133C122.35 235.978 125.075 230.316 130.231 228.511C135.386 226.705 141.048 229.431 142.853 234.586C144.659 239.74 141.933 245.402 136.777 247.207ZM131.486 232.095C128.309 233.208 126.628 236.7 127.741 239.877C128.854 243.055 132.344 244.736 135.523 243.622C138.701 242.509 140.381 239.019 139.268 235.842C138.154 232.663 134.664 230.982 131.486 232.095Z" fill="#E0E0E0"/>
<path d="M192.436 271.824C192.499 272.005 174.139 278.598 151.433 286.549C128.719 294.504 110.26 300.803 110.197 300.623C110.134 300.442 128.49 293.851 151.204 285.896C173.91 277.945 192.372 271.644 192.436 271.824Z" fill="#E0E0E0"/>
<path d="M168.919 275.202C168.983 275.382 160.9 278.377 150.868 281.888C140.834 285.403 132.651 288.104 132.588 287.923C132.524 287.743 140.606 284.75 150.64 281.236C160.672 277.723 168.857 275.021 168.919 275.202Z" fill="#E0E0E0"/>
<path d="M530.68 550.255C535.555 547.74 541.296 547.413 546.708 548.307C549.615 548.788 552.647 549.658 554.626 551.842C556.605 554.026 556.979 557.87 554.707 559.746C553.355 560.863 551.468 561.033 549.715 561.013C545.478 560.964 540.776 560.217 537.392 562.766C535.46 564.222 534.175 566.639 531.866 567.354C529.607 568.055 527.058 566.722 525.861 564.682C524.662 562.643 524.623 560.095 525.181 557.797C525.181 557.797 525.769 552.789 530.68 550.255Z" fill="#EC8305"/>
<path d="M519.51 528.694C522.49 532.953 528.284 531.542 530.971 528.944C533.658 526.345 534.794 522.578 535.827 518.986C538.189 510.779 540.57 502.171 538.813 493.813C538.288 491.314 537.354 488.824 535.599 486.969C533.844 485.115 531.142 484.013 528.675 484.666C525.754 485.438 523.937 488.298 522.626 491.021C518.768 499.022 516.727 507.891 516.696 516.772C516.681 520.919 517.169 525.27 519.51 528.694Z" fill="#EC8305"/>
<path d="M511.322 534.805C514.56 530.963 515.173 525.36 513.733 520.548C512.293 515.736 509.039 511.642 505.289 508.299C500.892 504.38 495.723 501.331 490.168 499.376C487.982 498.608 485.675 498.001 483.368 498.221C481.06 498.441 478.736 499.621 477.661 501.675C476.071 504.71 477.596 508.391 479.245 511.394C482.153 516.685 485.477 521.746 489.176 526.518C492.153 530.355 495.563 534.141 500.099 535.876C504.636 537.61 509.349 537.405 511.753 534.26" fill="#EC8305"/>
<path d="M519.309 592.919C519.364 592.922 519.455 592.232 519.579 590.985C519.716 589.577 519.888 587.808 520.093 585.704C520.339 583.482 520.663 580.839 521.281 577.96C521.896 575.088 522.858 571.976 524.096 568.82C525.378 565.681 526.939 562.829 528.764 560.549C530.576 558.258 532.685 556.6 534.665 555.643C536.64 554.667 538.41 554.272 539.634 554.096C540.87 553.97 541.561 553.872 541.561 553.818C541.561 553.762 540.868 553.754 539.6 553.788C538.344 553.872 536.5 554.19 534.418 555.136C532.33 556.061 530.095 557.746 528.193 560.085C526.276 562.413 524.658 565.328 523.355 568.522C522.097 571.734 521.148 574.879 520.56 577.812C519.974 580.742 519.706 583.414 519.531 585.654C519.363 587.897 519.301 589.711 519.269 590.967C519.24 592.221 519.253 592.916 519.309 592.919Z" fill="#263238"/>
<path d="M519.671 588.858C519.698 588.857 519.716 588.547 519.723 587.96C519.721 587.285 519.719 586.435 519.716 585.393C519.709 583.165 519.711 579.941 519.83 575.96C520.027 567.998 520.712 559.428 522.037 547.348C523.291 535.987 524.975 522.766 526.75 514.171C527.132 512.217 527.514 510.456 527.875 508.917C528.22 507.372 528.513 506.042 528.797 504.964C529.041 503.95 529.24 503.125 529.397 502.469C529.526 501.896 529.58 501.591 529.555 501.584C529.527 501.576 529.421 501.866 529.242 502.426C529.047 503.072 528.8 503.886 528.497 504.885C528.166 505.952 527.828 507.274 527.441 508.812C527.038 510.346 526.614 512.101 526.198 514.053C524.44 521.842 522.58 532.727 521.243 544.838C519.916 556.944 519.318 567.968 519.265 575.949C519.218 579.94 519.303 583.171 519.405 585.401C519.469 586.443 519.521 587.293 519.561 587.966C519.606 588.551 519.643 588.86 519.671 588.858Z" fill="#263238"/>
<path d="M519.724 567.598C519.78 567.597 519.77 566.644 519.705 564.916C519.606 563.192 519.37 560.701 518.884 557.651C518.37 554.608 517.65 550.993 516.521 547.066C516.031 545.27 514.881 540.968 512.094 534.54C508.423 525.831 503.434 518.71 499.094 514.298C498.076 513.128 496.943 512.284 496.036 511.456C495.567 511.06 495.153 510.663 494.73 510.35C494.306 510.056 493.911 509.785 493.544 509.532C492.116 508.555 491.317 508.041 491.287 508.087C491.159 508.261 494.486 510.219 498.687 514.688C502.871 519.148 507.721 526.219 511.361 534.856C513.392 539.54 514.808 543.719 515.812 547.267C516.973 551.156 517.744 554.734 518.326 557.747C518.88 560.768 519.2 563.234 519.394 564.942C519.555 566.652 519.669 567.599 519.724 567.598Z" fill="#263238"/>
<path d="M499.176 605.102L501.306 634.287H538.801L540.931 605.102H499.176Z" fill="#263238"/>
<path d="M545.403 593.598H495.553V605.102H545.403V593.598Z" fill="#263238"/>
<path d="M495.553 633.17V636.358H497.894H544.579V633.17H495.553Z" fill="#455A64"/>
<path d="M500.191 641.971L497.895 636.359H542.795L540.115 641.971H500.191Z" fill="#455A64"/>
<path d="M540.234 614.639C540.242 614.645 540.182 614.736 540.059 614.906C539.91 615.103 539.726 615.348 539.498 615.648C538.966 616.33 538.235 617.267 537.314 618.443L537.216 618.568L537.123 618.438C535.749 616.539 533.915 614.002 531.757 611.016H532.065C530.469 613.276 528.691 615.794 526.782 618.496L526.617 618.731L526.431 618.51C524.481 616.19 522.364 613.671 520.165 611.055L520.526 611.051C520.417 611.188 520.299 611.336 520.181 611.484C518.237 613.921 516.357 616.278 514.578 618.507L514.39 618.742L514.218 618.498C512.316 615.806 510.539 613.292 508.932 611.018L509.239 611.033C506.634 614.001 504.424 616.519 502.729 618.45L502.614 618.582L502.525 618.434C501.668 616.992 500.983 615.843 500.487 615.009C500.273 614.637 500.101 614.337 499.964 614.097C499.849 613.888 499.794 613.778 499.804 613.771C499.813 613.766 499.888 613.864 500.022 614.06C500.174 614.291 500.366 614.58 500.601 614.937C501.12 615.756 501.84 616.884 502.74 618.299L502.536 618.283C504.204 616.327 506.379 613.779 508.942 610.775L509.103 610.587L509.25 610.79C510.871 613.053 512.664 615.556 514.583 618.236L514.225 618.226C515.999 615.993 517.875 613.631 519.815 611.192C519.933 611.044 520.051 610.896 520.159 610.759L520.337 610.535L520.52 610.754C522.713 613.375 524.825 615.898 526.769 618.223L526.418 618.237C528.346 615.548 530.142 613.042 531.754 610.794L531.91 610.576L532.064 610.794C534.177 613.813 535.973 616.377 537.317 618.297L537.126 618.291C538.082 617.144 538.844 616.231 539.398 615.567C539.645 615.282 539.844 615.05 540.006 614.863C540.15 614.709 540.226 614.632 540.234 614.639Z" fill="#E0E0E0"/>
<path d="M541.452 604.909C541.452 605.038 532.057 605.143 520.47 605.143C508.88 605.143 499.486 605.038 499.486 604.909C499.486 604.78 508.88 604.676 520.47 604.676C532.056 604.676 541.452 604.78 541.452 604.909Z" fill="#455A64"/>
<path d="M543.347 636.675C543.347 636.804 533.137 636.908 520.544 636.908C507.947 636.908 497.738 636.804 497.738 636.675C497.738 636.546 507.947 636.441 520.544 636.441C533.137 636.441 543.347 636.546 543.347 636.675Z" fill="#263238"/>
<path d="M173.472 543.558C173.368 543.686 172.513 543.172 171.56 542.409C170.607 541.646 169.918 540.924 170.02 540.795C170.123 540.667 170.978 541.182 171.931 541.945C172.884 542.707 173.573 543.43 173.472 543.558Z" fill="#263238"/>
<path d="M199.475 504.694C199.632 501.063 199.734 497.338 198.588 493.889C197.441 490.439 194.782 487.267 191.223 486.53C187.162 485.689 182.998 488.253 180.722 491.721C178.446 495.189 177.663 499.4 176.991 503.492C172.358 531.699 170.647 560.386 171.895 588.943L188.518 591.274C195.819 561.446 198.148 535.375 199.475 504.694Z" fill="#455A64"/>
<path d="M188.916 486.402C188.926 486.407 188.9 486.496 188.841 486.667C188.768 486.871 188.677 487.118 188.567 487.421C188.296 488.124 187.927 489.082 187.46 490.291C187.228 490.917 186.919 491.595 186.671 492.368C186.423 493.145 186.152 493.985 185.865 494.886C185.573 495.79 185.262 496.755 184.932 497.776C184.661 498.819 184.374 499.918 184.074 501.072C182.82 505.679 181.78 511.278 180.864 517.522C179.964 523.773 179.375 530.697 178.911 537.971C178.061 552.535 177.928 565.756 177.553 575.315C177.376 580.096 177.213 583.963 177.029 586.633C176.941 587.928 176.872 588.954 176.82 589.706C176.793 590.026 176.77 590.29 176.751 590.504C176.732 590.683 176.717 590.776 176.708 590.776C176.698 590.776 176.691 590.682 176.691 590.502C176.694 590.286 176.697 590.022 176.702 589.701C176.725 588.947 176.758 587.92 176.799 586.622C176.91 583.951 177.01 580.082 177.134 575.303C177.401 565.744 177.466 552.523 178.319 537.936C178.783 530.65 179.391 523.711 180.324 517.445C181.273 511.186 182.36 505.574 183.67 500.965C183.985 499.811 184.286 498.711 184.571 497.669C184.917 496.649 185.243 495.684 185.55 494.782C185.855 493.884 186.142 493.047 186.405 492.272C186.67 491.501 186.994 490.828 187.244 490.207C187.756 489.013 188.16 488.067 188.457 487.373C188.589 487.08 188.698 486.84 188.786 486.643C188.863 486.48 188.907 486.398 188.916 486.402Z" fill="#263238"/>
<path d="M190.457 486.412C190.457 486.412 191.476 487.459 192.487 489.85C193.534 492.223 194.189 495.998 194.003 500.604C193.562 509.789 192.74 522.446 191.646 536.42C190.546 550.397 189.329 563.031 188.347 572.163C187.857 576.729 187.432 580.422 187.119 582.971C186.96 584.205 186.835 585.183 186.741 585.904C186.697 586.208 186.659 586.458 186.629 586.666C186.6 586.837 186.58 586.923 186.57 586.922C186.561 586.921 186.559 586.831 186.569 586.659C186.584 586.45 186.602 586.199 186.623 585.892C186.688 585.167 186.778 584.186 186.889 582.946C187.14 580.336 187.493 576.651 187.929 572.121C188.803 562.98 189.954 550.346 191.052 536.374C192.145 522.409 193.034 509.746 193.583 500.59C193.819 496.017 193.237 492.305 192.273 489.937C191.342 487.552 190.383 486.454 190.457 486.412Z" fill="#263238"/>
<path d="M201.981 529.431C201.925 529.585 200.515 529.22 198.83 528.616C197.146 528.012 195.825 527.397 195.881 527.243C195.936 527.088 197.347 527.453 199.031 528.057C200.716 528.661 202.036 529.277 201.981 529.431Z" fill="#263238"/>
<path d="M203.982 512.491C204.048 512.64 202.707 513.387 200.985 514.158C199.262 514.929 197.812 515.433 197.745 515.282C197.678 515.133 199.019 514.386 200.742 513.615C202.464 512.845 203.915 512.342 203.982 512.491Z" fill="#263238"/>
<path d="M202.944 498.665C202.933 498.828 201.823 498.885 200.465 498.792C199.108 498.698 198.017 498.489 198.027 498.326C198.038 498.162 199.149 498.106 200.506 498.2C201.865 498.293 202.956 498.501 202.944 498.665Z" fill="#263238"/>
<path d="M185.792 489.804C185.653 489.891 184.924 488.984 184.165 487.779C183.407 486.572 182.903 485.524 183.043 485.437C183.181 485.351 183.909 486.257 184.669 487.463C185.428 488.668 185.93 489.717 185.792 489.804Z" fill="#263238"/>
<path d="M180.123 498.166C180.119 498.33 179.063 498.44 177.762 498.413C176.462 498.386 175.41 498.23 175.414 498.066C175.418 497.901 176.474 497.791 177.775 497.819C179.075 497.847 180.126 498.002 180.123 498.166Z" fill="#263238"/>
<path d="M176.052 514.894C175.991 515.046 174.878 514.741 173.568 514.213C172.257 513.685 171.244 513.132 171.305 512.98C171.366 512.828 172.478 513.134 173.789 513.662C175.101 514.191 176.113 514.742 176.052 514.894Z" fill="#263238"/>
<path d="M175.618 528.962C175.652 529.123 174.705 529.458 173.504 529.709C172.301 529.961 171.3 530.036 171.267 529.875C171.233 529.714 172.18 529.379 173.381 529.127C174.583 528.875 175.584 528.801 175.618 528.962Z" fill="#263238"/>
<path d="M173.703 551.974C173.731 552.136 172.727 552.451 171.458 552.679C170.189 552.907 169.137 552.96 169.108 552.798C169.08 552.637 170.084 552.322 171.353 552.094C172.622 551.866 173.674 551.813 173.703 551.974Z" fill="#263238"/>
<path d="M172.431 564.677C172.507 564.822 171.67 565.415 170.559 566.003C169.449 566.591 168.487 566.949 168.409 566.804C168.332 566.659 169.171 566.065 170.281 565.478C171.391 564.89 172.355 564.532 172.431 564.677Z" fill="#263238"/>
<path d="M182.804 579.095C182.661 579.177 181.931 578.168 181.172 576.843C180.413 575.517 179.914 574.377 180.055 574.296C180.198 574.214 180.928 575.223 181.687 576.548C182.447 577.874 182.946 579.014 182.804 579.095Z" fill="#263238"/>
<path d="M185.798 555.137C185.913 555.253 185.099 556.237 183.98 557.334C182.862 558.431 181.861 559.225 181.747 559.108C181.632 558.992 182.446 558.008 183.565 556.911C184.683 555.813 185.684 555.019 185.798 555.137Z" fill="#263238"/>
<path d="M185.136 542.565C185.015 542.677 184.261 542.058 183.45 541.182C182.638 540.307 182.079 539.507 182.2 539.396C182.321 539.284 183.076 539.903 183.886 540.779C184.696 541.653 185.257 542.454 185.136 542.565Z" fill="#263238"/>
<path d="M187.193 526.501C187.316 526.611 186.637 527.566 185.679 528.636C184.719 529.707 183.843 530.485 183.721 530.375C183.599 530.265 184.278 529.309 185.236 528.239C186.194 527.17 187.071 526.391 187.193 526.501Z" fill="#263238"/>
<path d="M188.35 514.844C188.235 514.961 187.289 514.217 186.237 513.183C185.183 512.149 184.425 511.215 184.539 511.098C184.654 510.981 185.6 511.725 186.652 512.759C187.705 513.794 188.466 514.726 188.35 514.844Z" fill="#263238"/>
<path d="M190.627 499.083C190.768 499.168 190.293 500.224 189.565 501.443C188.838 502.662 188.135 503.582 187.994 503.498C187.852 503.414 188.327 502.358 189.055 501.139C189.783 499.92 190.486 498.999 190.627 499.083Z" fill="#263238"/>
<path d="M194.909 484.481C195.052 484.559 194.633 485.616 193.971 486.843C193.308 488.07 192.654 489 192.509 488.923C192.365 488.845 192.784 487.788 193.448 486.561C194.11 485.334 194.765 484.402 194.909 484.481Z" fill="#263238"/>
<path d="M199.765 491.114C199.835 491.262 199.17 491.727 198.28 492.153C197.389 492.58 196.609 492.805 196.538 492.657C196.468 492.509 197.133 492.043 198.023 491.617C198.915 491.192 199.694 490.966 199.765 491.114Z" fill="#263238"/>
<path d="M199.882 543.56C199.849 543.715 198.341 543.507 196.631 542.773C194.915 542.045 193.723 541.1 193.811 540.97C193.904 540.827 195.203 541.522 196.863 542.225C198.52 542.937 199.921 543.394 199.882 543.56Z" fill="#263238"/>
<path d="M197.897 554.669C197.928 554.83 196.927 555.159 195.662 555.403C194.395 555.648 193.343 555.715 193.313 555.554C193.282 555.394 194.284 555.064 195.549 554.82C196.814 554.577 197.866 554.509 197.897 554.669Z" fill="#263238"/>
<path d="M195.457 573.714C195.36 573.838 194.09 572.968 192.925 571.492C191.752 570.021 191.196 568.586 191.338 568.521C191.492 568.444 192.261 569.709 193.391 571.123C194.511 572.544 195.568 573.584 195.457 573.714Z" fill="#263238"/>
<path d="M168.738 582.426C168.632 582.301 169.306 581.549 170.246 580.745C171.185 579.942 172.033 579.392 172.141 579.515C172.246 579.64 171.572 580.392 170.632 581.196C169.693 581.999 168.845 582.551 168.738 582.426Z" fill="#263238"/>
<path d="M161.057 540.855C159.975 537.476 157.944 533.538 154.397 533.487C152.292 533.457 150.4 534.966 149.41 536.825C148.421 538.682 148.001 540.836 148.062 542.94C148.468 556.839 150.876 572.736 155.686 587.215H168.664C168.499 571.132 165.961 556.174 161.057 540.855Z" fill="#455A64"/>
<path d="M137.585 519.588C135.772 512.333 130.36 508.413 124.074 508.049C118.337 509.055 116.112 514.703 115.431 520.487C114.75 526.271 116.545 532.029 118.32 537.575C124.014 555.387 129.71 573.197 135.404 591.009C140.786 590.421 146.168 589.834 151.55 589.246C146.44 565.384 143.505 543.264 137.585 519.588Z" fill="#455A64"/>
<path d="M154.398 533.488C154.454 533.532 153.866 534.072 153.299 535.325C152.737 536.585 152.467 538.595 152.692 541.063C152.943 543.529 153.225 546.5 153.639 549.755C154.063 553.017 154.649 556.589 155.38 560.316C156.847 567.772 158.5 574.463 159.55 579.34C160.082 581.776 160.482 583.756 160.736 585.128C160.843 585.759 160.933 586.282 161.007 586.712C161.063 587.076 161.082 587.268 161.062 587.273C161.041 587.277 160.983 587.092 160.889 586.736C160.786 586.313 160.661 585.798 160.509 585.177C160.165 583.731 159.702 581.791 159.14 579.435C157.986 574.586 156.267 567.911 154.796 560.431C154.064 556.693 153.492 553.105 153.097 549.826C152.89 548.188 152.753 546.624 152.62 545.161C152.501 543.705 152.342 542.347 152.273 541.094C152.096 538.591 152.44 536.502 153.088 535.231C153.744 533.961 154.398 533.488 154.398 533.488Z" fill="#263238"/>
<path d="M124.309 507.592C124.365 507.641 123.45 508.41 122.358 510.214C121.27 511.997 120.115 514.904 119.901 518.663C119.654 522.42 120.492 526.879 121.9 531.661C123.318 536.466 124.874 541.739 126.507 547.275C129.726 558.342 132.641 568.357 134.77 575.682C135.787 579.277 136.617 582.209 137.21 584.309C137.473 585.287 137.683 586.07 137.844 586.663C137.982 587.203 138.046 587.49 138.025 587.495C138.005 587.501 137.905 587.226 137.728 586.697C137.541 586.111 137.295 585.34 136.987 584.375C136.349 582.287 135.459 579.374 134.367 575.801C132.194 568.49 129.221 558.493 125.936 547.444C124.318 541.901 122.778 536.624 121.373 531.812C119.988 527.001 119.177 522.463 119.482 518.636C119.754 514.809 120.996 511.866 122.163 510.092C123.333 508.296 124.309 507.592 124.309 507.592Z" fill="#263238"/>
<path d="M148.029 587.523C148.01 587.531 147.885 587.264 147.664 586.749C147.452 586.231 147.109 585.479 146.744 584.479C145.974 582.494 144.987 579.572 143.966 575.904C142.94 572.238 141.932 567.815 140.957 562.882C140.022 557.939 138.994 552.516 137.916 546.82C136.794 541.137 135.544 535.759 134.093 530.959C132.646 526.159 131.022 521.936 129.385 518.518C127.756 515.096 126.201 512.444 125.032 510.674C124.477 509.769 123.972 509.117 123.672 508.645C123.36 508.18 123.204 507.931 123.22 507.918C123.236 507.906 123.425 508.132 123.768 508.574C124.101 509.025 124.637 509.657 125.223 510.546C126.455 512.284 128.077 514.917 129.763 518.337C131.458 521.752 133.132 525.985 134.615 530.8C136.103 535.615 137.374 541.011 138.499 546.706C139.56 552.405 140.572 557.831 141.493 562.778C142.437 567.709 143.4 572.126 144.371 575.795C145.336 579.464 146.258 582.396 146.959 584.4C147.289 585.41 147.597 586.174 147.773 586.706C147.96 587.234 148.048 587.515 148.029 587.523Z" fill="#263238"/>
<path d="M118.609 534.911C118.647 535.07 117.77 535.42 116.647 535.693C115.525 535.965 114.584 536.056 114.546 535.898C114.507 535.739 115.385 535.389 116.508 535.116C117.629 534.843 118.57 534.751 118.609 534.911Z" fill="#263238"/>
<path d="M116.897 523.89C116.889 524.057 115.668 524.125 114.174 524.185C112.678 524.242 111.458 524.27 111.436 524.104C111.414 523.944 112.625 523.65 114.151 523.591C115.676 523.53 116.906 523.73 116.897 523.89Z" fill="#263238"/>
<path d="M118.718 513.827C118.612 513.952 117.735 513.382 116.759 512.555C115.783 511.727 115.078 510.955 115.184 510.83C115.29 510.705 116.167 511.275 117.143 512.103C118.118 512.93 118.824 513.702 118.718 513.827Z" fill="#263238"/>
<path d="M123.642 504.509C123.805 504.546 123.76 505.33 123.736 506.281C123.706 507.229 123.704 508.015 123.539 508.042C123.381 508.072 123.11 507.278 123.141 506.263C123.17 505.248 123.486 504.471 123.642 504.509Z" fill="#263238"/>
<path d="M133.707 508.9C133.842 508.993 133.447 509.789 132.826 510.677C132.205 511.564 131.592 512.206 131.458 512.113C131.324 512.019 131.717 511.224 132.339 510.336C132.961 509.448 133.573 508.806 133.707 508.9Z" fill="#263238"/>
<path d="M140.238 520.247C140.301 520.399 139.464 520.884 138.37 521.329C137.278 521.774 136.341 522.013 136.279 521.861C136.216 521.709 137.052 521.224 138.146 520.779C139.239 520.333 140.176 520.095 140.238 520.247Z" fill="#263238"/>
<path d="M144.2 531.921C144.266 532.065 143.159 532.698 141.64 533.038C140.122 533.386 138.85 533.294 138.848 533.135C138.841 532.965 140.052 532.794 141.508 532.459C142.966 532.133 144.133 531.767 144.2 531.921Z" fill="#263238"/>
<path d="M126.008 528.606C125.852 528.557 125.964 527.751 126.262 526.805C126.557 525.859 126.925 525.131 127.081 525.18C127.238 525.229 127.125 526.035 126.828 526.981C126.532 527.927 126.165 528.655 126.008 528.606Z" fill="#263238"/>
<path d="M128.546 543.262C128.396 543.196 128.723 542.109 129.277 540.835C129.831 539.56 130.401 538.579 130.551 538.644C130.702 538.709 130.375 539.796 129.821 541.071C129.269 542.347 128.697 543.327 128.546 543.262Z" fill="#263238"/>
<path d="M122.278 547.276C122.214 547.43 121.191 547.152 119.953 546.766C118.715 546.378 117.716 546.024 117.751 545.861C117.785 545.703 118.864 545.801 120.13 546.199C121.396 546.592 122.34 547.127 122.278 547.276Z" fill="#263238"/>
<path d="M125.89 559.227C125.985 559.36 125.294 560.017 124.346 560.695C123.397 561.372 122.551 561.812 122.456 561.679C122.361 561.546 123.052 560.889 124.001 560.211C124.95 559.534 125.795 559.093 125.89 559.227Z" fill="#263238"/>
<path d="M128.79 571.14C128.829 571.299 127.973 571.645 126.879 571.911C125.784 572.177 124.865 572.264 124.827 572.104C124.788 571.945 125.645 571.6 126.739 571.333C127.831 571.068 128.75 570.981 128.79 571.14Z" fill="#263238"/>
<path d="M144.521 541.877C144.603 542.014 143.872 542.598 142.806 542.997C141.742 543.4 140.807 543.445 140.778 543.287C140.746 543.123 141.585 542.826 142.597 542.441C143.61 542.061 144.436 541.732 144.521 541.877Z" fill="#263238"/>
<path d="M146.768 560.41C146.699 560.558 145.826 560.295 144.821 559.823C143.816 559.349 143.058 558.845 143.127 558.697C143.197 558.549 144.068 558.813 145.074 559.285C146.08 559.759 146.839 560.263 146.768 560.41Z" fill="#263238"/>
<path d="M150.736 573.676C150.676 573.828 149.525 573.52 148.165 572.988C146.805 572.454 145.751 571.899 145.811 571.746C145.871 571.594 147.022 571.902 148.382 572.434C149.742 572.968 150.795 573.524 150.736 573.676Z" fill="#263238"/>
<path d="M129.426 584.069C129.346 583.92 130.405 583.208 131.628 582.242C132.856 581.282 133.798 580.422 133.923 580.536C134.044 580.639 133.269 581.712 131.994 582.709C130.724 583.711 129.498 584.21 129.426 584.069Z" fill="#263238"/>
<path d="M139.913 577.324C139.745 577.343 139.517 576.452 139.111 575.417C138.715 574.377 138.285 573.564 138.423 573.466C138.548 573.368 139.236 574.082 139.665 575.203C140.101 576.321 140.071 577.311 139.913 577.324Z" fill="#263238"/>
<path d="M137.132 561.369C137.036 561.503 136.359 561.181 135.619 560.649C134.879 560.117 134.356 559.579 134.453 559.446C134.548 559.313 135.225 559.635 135.966 560.167C136.706 560.698 137.229 561.236 137.132 561.369Z" fill="#263238"/>
<path d="M161.58 536.369C161.678 536.501 161.018 537.154 160.106 537.826C159.194 538.497 158.377 538.936 158.279 538.804C158.181 538.673 158.841 538.021 159.753 537.348C160.665 536.676 161.484 536.237 161.58 536.369Z" fill="#263238"/>
<path d="M165.265 546.443C165.28 546.602 164.247 546.819 162.969 546.678C161.69 546.542 160.726 546.109 160.775 545.958C160.823 545.797 161.815 545.959 163.033 546.087C164.249 546.223 165.253 546.276 165.265 546.443Z" fill="#263238"/>
<path d="M149.429 548.701C149.464 548.857 148.507 549.2 147.272 549.28C146.035 549.364 145.042 549.151 145.057 548.993C145.069 548.826 146.045 548.77 147.233 548.688C148.42 548.612 149.394 548.538 149.429 548.701Z" fill="#263238"/>
<path d="M150.788 539.18C150.776 539.337 149.81 539.363 148.752 538.873C147.691 538.39 147.081 537.639 147.193 537.528C147.307 537.402 148.034 537.896 149.001 538.333C149.96 538.781 150.81 539.011 150.788 539.18Z" fill="#263238"/>
<path d="M166.626 557.257C166.539 557.396 165.548 556.93 164.415 556.216C163.28 555.502 162.433 554.811 162.52 554.673C162.607 554.534 163.598 555 164.731 555.714C165.864 556.428 166.713 557.119 166.626 557.257Z" fill="#263238"/>
<path d="M205.271 585.523H120.771V600.5H205.271V585.523Z" fill="#EC8305"/>
<path d="M127.082 597.529L137.356 642.284H187.718L198.96 597.529H127.082Z" fill="#EC8305"/>
<path d="M205.225 600.52C205.225 600.684 186.165 600.817 162.659 600.817C139.144 600.817 120.088 600.684 120.088 600.52C120.088 600.356 139.144 600.223 162.659 600.223C186.165 600.223 205.225 600.356 205.225 600.52Z" fill="#263238"/>
<path d="M158.233 549.028C158.095 549.115 157.516 548.442 156.943 547.526C156.371 546.608 156.018 545.795 156.158 545.707C156.297 545.62 156.874 546.293 157.447 547.211C158.02 548.128 158.371 548.941 158.233 549.028Z" fill="#263238"/>
<path d="M158.264 561.077C158.108 561.025 158.306 560.007 158.707 558.803C159.107 557.599 159.558 556.664 159.713 556.717C159.869 556.769 159.671 557.787 159.27 558.991C158.87 560.195 158.419 561.129 158.264 561.077Z" fill="#263238"/>
<path d="M162.388 573.729C162.24 573.799 161.609 572.788 160.978 571.47C160.347 570.152 159.956 569.025 160.104 568.955C160.252 568.884 160.883 569.895 161.514 571.213C162.145 572.531 162.536 573.658 162.388 573.729Z" fill="#263238"/>
<path d="M153.462 583.906C153.338 583.799 153.842 583.014 154.589 582.155C155.334 581.296 156.04 580.686 156.163 580.793C156.287 580.901 155.783 581.684 155.037 582.545C154.291 583.404 153.587 584.013 153.462 583.906Z" fill="#263238"/>
<path d="M151.589 565.426C151.56 565.588 150.747 565.58 149.772 565.407C148.798 565.235 148.031 564.965 148.059 564.803C148.088 564.642 148.901 564.65 149.876 564.822C150.85 564.995 151.617 565.265 151.589 565.426Z" fill="#263238"/>
<path d="M445.566 482.598H245.184V642.394H445.566V482.598Z" fill="#E0E0E0"/>
<g opacity="0.3">
<path d="M259.783 482.933C283.375 491.352 309.396 493.146 334.714 493.62C339.957 493.717 345.267 493.709 350.341 495.031C355.415 496.354 360.326 499.2 362.932 503.75C365.769 508.703 365.466 514.906 363.856 520.384C362.247 525.861 359.456 530.909 357.439 536.249C353.9 545.619 352.8 555.9 354.277 565.806C354.904 570.016 356.032 574.255 358.465 577.747C360.897 581.24 364.817 583.899 369.073 583.96C376.688 584.07 381.903 576.584 385.679 569.969C401.165 542.842 417.919 511.998 427.828 482.375L259.783 482.933Z" fill="black"/>
</g>
<path d="M313.46 641.538C313.265 641.538 313.107 606.121 313.107 562.441C313.107 518.746 313.266 483.336 313.46 483.336C313.656 483.336 313.813 518.746 313.813 562.441C313.813 606.12 313.654 641.538 313.46 641.538Z" fill="#455A64"/>
<path d="M395.57 364.508C394.974 360.524 383.064 347.347 383.064 347.347C383.064 347.347 377.109 323.446 375.323 316.399C374.876 314.637 373.919 312.636 372.733 310.626C368.576 303.575 362.482 297.866 355.347 293.855L338.866 284.586L334.921 275.811L295.319 255.465L284.582 274.407C284.582 274.407 258.506 282.694 255.056 288.614C251.604 294.534 256.767 373.856 256.767 373.856C256.767 373.856 245.854 419.634 243.552 429.105C241.251 438.575 244.293 449.878 244.293 449.878L263.715 425.504C269.748 417.931 283.001 414.45 292.515 414.585L373.838 414.943L370.603 392.165L436.358 404.953C436.358 404.953 447.672 382.889 448.565 382.446C449.46 382.004 395.57 364.508 395.57 364.508Z" fill="#024CAA"/>
<path d="M293.629 281.854C293.058 281.273 298.225 298.721 304.71 316.491C308.204 326.064 309.955 336.219 309.955 346.446V385.566V410.784L348.949 408.136L343.119 365.754C343.119 365.754 338.365 338.413 337.035 328.016C335.816 318.496 331.628 292.678 331.628 292.678C331.628 292.678 309.956 298.481 293.629 281.854Z" fill="white"/>
<path d="M380.155 380.494C380.11 380.49 380.095 380.14 380.152 379.513C380.207 378.886 380.356 377.981 380.665 376.892C381.267 374.723 382.655 371.798 385.122 369.326C387.588 366.853 390.512 365.459 392.68 364.853C393.768 364.542 394.672 364.392 395.3 364.335C395.928 364.278 396.277 364.291 396.281 364.336C396.297 364.457 394.914 364.603 392.832 365.33C390.759 366.041 387.99 367.453 385.623 369.825C383.255 372.197 381.849 374.968 381.143 377.043C380.421 379.128 380.276 380.511 380.155 380.494Z" fill="#263238"/>
<path d="M382.164 365.058C382.079 364.903 384.641 363.607 388.116 363.334C391.591 363.035 394.331 363.896 394.271 364.062C394.23 364.272 391.518 363.747 388.173 364.038C384.83 364.298 382.24 365.26 382.164 365.058Z" fill="#263238"/>
<g opacity="0.3">
<path d="M252.839 400.164L249.455 404.001C253.081 408.218 257.792 411.756 263.193 413.085C268.593 414.414 274.206 414.572 279.767 414.585C282.019 414.591 284.306 414.57 286.47 413.947C288.676 413.312 290.734 412.058 293.025 411.921C294.559 411.828 296.071 412.249 297.574 412.571C299.076 412.894 300.667 413.116 302.13 412.644C303.594 412.172 304.874 410.816 304.783 409.282C287.872 404.35 270.417 401.285 252.839 400.164Z" fill="black"/>
</g>
<path d="M364.148 405.085L354.581 394.924L334.901 389.943C334.901 389.943 316.867 395.346 316.435 395.331C316.003 395.316 300.739 391.161 300.739 391.161L295.406 410.727L322.896 412.609L354.285 411.352C354.285 411.352 355.922 409.828 354.951 408.785C353.981 407.744 360.199 410.547 360.931 410.581C361.649 410.614 363.082 411.177 364.051 410.004C364.712 409.206 365.611 406.638 364.148 405.085Z" fill="#FFBE9D"/>
<path d="M354.952 408.786C354.915 408.883 353.731 408.501 351.824 407.896C349.917 407.291 347.277 406.482 344.324 405.724C341.371 404.969 338.665 404.409 336.704 404.015C334.741 403.623 333.524 403.377 333.537 403.277C333.549 403.184 334.793 403.255 336.787 403.522C338.779 403.791 341.521 404.279 344.5 405.039C347.476 405.802 350.115 406.693 351.99 407.424C353.866 408.155 354.985 408.701 354.952 408.786Z" fill="#EB996E"/>
<path d="M364.148 405.086C364.108 405.184 362.463 404.572 359.782 403.677C357.103 402.773 353.359 401.667 349.196 400.505C345.037 399.268 341.334 398.033 338.525 397.869C335.728 397.631 334.021 398.184 333.994 398.047C333.983 398.007 334.392 397.836 335.173 397.649C335.952 397.46 337.116 397.32 338.554 397.369C341.455 397.41 345.272 398.602 349.387 399.823C353.553 400.987 357.3 402.176 359.949 403.206C361.277 403.714 362.334 404.166 363.056 404.498C363.778 404.829 364.167 405.041 364.148 405.086Z" fill="#EB996E"/>
<path d="M255.058 288.615C255.058 288.615 240.87 298.481 237.419 312.687C233.968 326.894 219.012 384.906 222.08 393.588C225.148 402.27 284.8 410.784 284.8 410.784L291.868 380.961L261.575 372.674C261.575 372.674 261.959 345.049 262.342 333.605C262.725 322.161 255.058 288.615 255.058 288.615Z" fill="#024CAA"/>
<path d="M291.474 385.408L301.236 387.812L295.364 410.322L285.771 408.787L291.474 385.408Z" fill="white"/>
<path d="M221.856 390.519C221.906 390.519 221.828 391.015 222.001 391.924C222.194 392.818 222.772 394.117 224.081 395.31C226.674 397.724 231.623 399.734 237.902 400.863L237.922 400.867L237.947 400.876C240.816 401.818 244.084 402.567 247.579 403.358C251.081 404.141 254.837 404.942 258.806 405.75C266.743 407.373 275.525 409.08 284.83 410.821L284.426 411.083C285.099 408.317 285.811 405.392 286.535 402.427C288.209 395.583 289.829 388.954 291.367 382.669L291.606 383.077C281.587 380.217 272.445 377.608 264.682 375.392L264.667 375.388L264.652 375.381C260.542 373.698 256.454 373.083 252.909 373.324C249.349 373.487 246.364 374.44 244.047 375.405C241.726 376.4 240.064 377.479 238.955 378.226C238.442 378.601 238.035 378.897 237.723 379.125C237.443 379.327 237.295 379.425 237.286 379.414C237.276 379.403 237.408 379.283 237.671 379.059C237.939 378.841 238.324 378.499 238.862 378.093C239.946 377.3 241.594 376.168 243.923 375.119C246.249 374.1 249.263 373.088 252.884 372.882C256.486 372.596 260.662 373.183 264.864 374.871L264.834 374.86C272.608 377.04 281.761 379.606 291.793 382.419L292.11 382.507L292.032 382.828C290.503 389.115 288.89 395.746 287.224 402.593C286.501 405.557 285.786 408.482 285.111 411.247L285.032 411.571L284.707 411.509C275.397 409.757 266.619 408.025 258.684 406.364C254.715 405.537 250.962 404.713 247.458 403.905C243.957 403.087 240.706 402.316 237.787 401.325L237.83 401.336C231.483 400.128 226.519 398.036 223.903 395.498C222.588 394.243 222.023 392.872 221.871 391.948C221.735 391.009 221.856 390.519 221.856 390.519Z" fill="#263238"/>
<path d="M263.211 374.65C263.129 374.739 262.117 373.812 260.297 372.593C258.484 371.372 255.796 369.937 252.594 368.998C249.388 368.07 246.35 367.838 244.163 367.895C241.973 367.947 240.623 368.186 240.6 368.066C240.582 367.996 241.908 367.579 244.139 367.397C246.361 367.21 249.498 367.367 252.791 368.32C256.08 369.285 258.811 370.836 260.585 372.187C262.37 373.537 263.264 374.601 263.211 374.65Z" fill="#263238"/>
<path d="M267.184 326.059C267.233 326.061 267.237 326.709 267.205 327.878C267.179 329.048 267.077 330.736 266.918 332.823C266.585 336.991 265.963 342.741 264.873 349.033C263.803 355.328 262.435 360.964 261.11 364.944C260.778 365.938 260.435 366.825 260.142 367.603C259.819 368.332 259.531 368.981 259.275 369.558C258.716 370.594 258.389 371.151 258.346 371.127C258.304 371.104 258.549 370.503 259.025 369.445C259.246 368.86 259.495 368.202 259.773 367.463C260.028 366.677 260.334 365.787 260.634 364.792C261.827 360.805 263.111 355.186 264.176 348.912C265.261 342.643 265.96 336.921 266.42 332.774C266.624 330.805 266.795 329.158 266.931 327.857C267.049 326.698 267.137 326.056 267.184 326.059Z" fill="#263238"/>
<path d="M301.779 310.672C301.733 310.684 301.638 310.302 301.308 309.669C300.976 309.047 300.369 308.155 299.269 307.439C298.203 306.728 296.553 306.223 294.855 306.793C293.188 307.332 291.544 308.898 291.13 311.009L290.94 311.974L290.525 311.081C289.096 308.006 287.634 304.451 286.377 300.6C284.083 293.611 283.093 286.916 283.31 282.083C283.304 280.874 283.48 279.787 283.549 278.833C283.714 277.887 283.834 277.07 283.981 276.411C284.324 275.104 284.536 274.393 284.582 274.406C284.757 274.44 283.779 277.303 283.81 282.091C283.723 286.862 284.775 293.448 287.049 300.382C288.295 304.2 289.724 307.739 291.106 310.813L290.501 310.887C291.006 308.508 292.844 306.842 294.692 306.285C296.594 305.696 298.387 306.319 299.484 307.121C300.623 307.933 301.204 308.907 301.49 309.581C301.631 309.921 301.714 310.194 301.747 310.383C301.786 310.57 301.797 310.668 301.779 310.672Z" fill="#263238"/>
<path d="M334.874 313.728C334.828 313.732 334.737 313.159 334.561 312.112C334.417 311.067 334.071 309.532 334.273 307.562C334.546 305.63 335.459 303.287 337.546 301.551C338.577 300.697 339.993 300.125 341.491 300.133C342.974 300.132 344.592 300.709 345.646 301.992L345.048 302.335C344.635 301.294 344.201 300.203 343.76 299.091C341.228 292.696 338.972 286.893 337.373 282.681C336.624 280.666 335.999 278.986 335.513 277.681C335.089 276.494 334.877 275.831 334.922 275.813C334.968 275.795 335.268 276.428 335.771 277.584C336.312 278.87 337.007 280.523 337.841 282.508C339.56 286.675 341.889 292.451 344.422 298.845C344.861 299.957 345.292 301.05 345.703 302.091L346.531 304.187L345.105 302.434C344.217 301.343 342.815 300.816 341.487 300.804C340.146 300.788 338.893 301.268 337.93 302.038C335.991 303.587 335.041 305.822 334.734 307.625C334.479 309.482 334.742 311.029 334.812 312.081C334.911 313.139 334.918 313.725 334.874 313.728Z" fill="#263238"/>
<path d="M360.051 317.096C360.243 317.069 363.311 337.705 366.901 363.184C370.492 388.67 373.246 409.347 373.052 409.374C372.859 409.402 369.791 388.769 366.201 363.283C362.611 337.804 359.857 317.123 360.051 317.096Z" fill="#263238"/>
<g opacity="0.3">
<path d="M286.795 300.822C286.961 306.092 288.116 311.324 290.176 316.151C291.654 314.327 293.293 312.395 295.542 311.858C298.345 311.186 301.181 312.921 303.206 315.025C302.777 312.926 302.068 310.837 300.758 309.169C299.449 307.501 297.461 306.299 295.378 306.356C293.294 306.413 291.223 307.939 290.848 310.05L286.958 300.912" fill="black"/>
</g>
<path d="M263.872 315.739C263.74 315.738 263.785 314.318 263.374 312.1C262.968 309.889 261.98 306.888 260.072 304.028C259.111 302.608 258.035 301.375 256.969 300.339C255.873 299.34 254.822 298.502 253.858 297.918C251.953 296.714 250.607 296.251 250.653 296.127C250.67 296.081 251.013 296.167 251.627 296.365C251.938 296.456 252.308 296.59 252.721 296.791C253.138 296.983 253.623 297.184 254.115 297.489C255.138 298.033 256.255 298.856 257.412 299.862C258.536 300.904 259.667 302.168 260.66 303.635C262.633 306.593 263.58 309.734 263.866 312.021C264.012 313.167 264.051 314.104 263.999 314.747C263.963 315.389 263.919 315.742 263.872 315.739Z" fill="#263238"/>
<path d="M342.656 218.867C341.051 203.796 328.135 192.491 312.984 192.881L311.478 192.92C295.265 194.286 287.369 208.818 289.183 224.986L293.631 281.854L295.515 284.166C304.231 294.864 319.055 298.358 331.632 292.678L330.385 274.383C330.385 274.383 345.932 271.554 345.724 255.944C345.622 248.403 344.151 232.889 342.656 218.867Z" fill="#FFBE9D"/>
<path d="M330.507 274.358C330.507 274.358 320.556 275.214 309.904 268.898C309.904 268.898 315.003 280.006 330.538 278.201L330.507 274.358Z" fill="#EB996E"/>
<path d="M337.722 231.78C337.794 232.955 336.857 233.985 335.631 234.083C334.407 234.18 333.354 233.308 333.283 232.133C333.211 230.957 334.148 229.924 335.372 229.828C336.598 229.73 337.65 230.604 337.722 231.78Z" fill="#263238"/>
<path d="M338.713 223.293C338.537 223.567 336.766 223.754 334.657 224.896C332.544 226.018 331.278 227.46 330.982 227.439C330.839 227.437 330.967 227.044 331.514 226.408C332.05 225.777 333.058 224.901 334.374 224.194C335.69 223.489 336.922 223.162 337.686 223.096C338.464 223.024 338.804 223.164 338.713 223.293Z" fill="#263238"/>
<path d="M315.192 232.963C315.264 234.139 314.327 235.169 313.1 235.267C311.876 235.365 310.824 234.493 310.752 233.316C310.68 232.141 311.617 231.109 312.841 231.011C314.068 230.914 315.12 231.788 315.192 232.963Z" fill="#263238"/>
<path d="M314.851 226.574C314.538 226.642 313.085 225.659 310.759 225.086C308.44 224.499 306.547 224.647 306.338 224.448C306.234 224.357 306.583 224.182 307.413 224.109C308.228 224.033 309.558 224.093 311.006 224.454C312.455 224.816 313.591 225.371 314.209 225.806C314.836 226.243 315 226.547 314.851 226.574Z" fill="#263238"/>
<path d="M324.26 245.214C324.245 245.078 325.73 244.782 328.137 244.412C328.748 244.333 329.325 244.196 329.417 243.775C329.55 243.328 329.276 242.675 328.962 241.971C328.349 240.504 327.705 238.966 327.031 237.354C324.344 230.779 322.384 225.369 322.649 225.261C322.915 225.155 325.307 230.398 327.993 236.973C328.641 238.595 329.259 240.14 329.849 241.619C330.098 242.309 330.518 243.088 330.229 244.015C330.075 244.477 329.634 244.821 329.245 244.937C328.855 245.067 328.51 245.082 328.209 245.108C325.78 245.299 324.272 245.349 324.26 245.214Z" fill="#263238"/>
<path d="M314.886 217.307C314.619 217.946 312.24 217.521 309.413 217.724C306.581 217.869 304.274 218.581 303.929 217.98C303.776 217.692 304.202 217.099 305.148 216.513C306.087 215.928 307.565 215.398 309.262 215.294C310.959 215.191 312.491 215.534 313.495 216.001C314.509 216.465 315.003 217.003 314.886 217.307Z" fill="#263238"/>
<path d="M338.653 217.842C338.132 218.391 336.066 217.847 333.589 217.846C331.112 217.774 329.017 218.258 328.528 217.692C328.314 217.418 328.638 216.868 329.551 216.344C330.449 215.82 331.956 215.386 333.658 215.409C335.362 215.435 336.841 215.914 337.71 216.464C338.59 217.015 338.883 217.573 338.653 217.842Z" fill="#263238"/>
<path d="M347.209 205.063C346.912 203.646 345.515 202.448 344.083 202.661C344.847 202.389 345.632 202.105 346.236 201.565C346.84 201.024 347.228 200.158 346.973 199.389C346.574 198.182 345.029 197.934 343.805 197.586C342.209 197.134 340.763 196.168 339.734 194.869C338.25 192.995 337.679 190.557 336.398 188.539C334.739 185.927 331.856 184.129 328.78 183.791C325.704 183.451 322.498 184.578 320.311 186.766C317.926 184.318 314.33 183.109 310.95 183.625C307.572 184.14 304.497 186.363 302.951 189.412C298.81 187.688 293.755 188.401 290.25 191.201C286.745 194.001 284.936 198.774 285.704 203.194L295.426 209.151C295.585 206.146 298.937 203.761 301.827 204.596C304.761 205.444 306.638 208.842 309.684 209.072C312.055 209.253 314.074 207.415 316.37 206.799C319.159 206.052 322.101 207.168 324.615 208.585C327.129 210.002 329.518 211.763 332.316 212.47C335.595 213.298 339.091 212.572 342.221 211.29C343.561 210.742 344.889 210.071 345.887 209.022C346.883 207.973 347.507 206.48 347.209 205.063Z" fill="#263238"/>
<path d="M297.114 204.57L341.631 204.315C340.163 201.284 337.624 198.895 334.885 196.936C328.98 192.712 321.797 190.171 314.539 190.246C307.28 190.32 292.755 199.568 287.638 204.717C283.543 208.837 283.666 212.301 283.666 212.301C283.159 218.087 286.568 224.555 288.01 230.183C288.752 233.085 290.275 241.887 290.275 241.887H290.277C292.728 241.811 293.585 239.834 293.145 237.421L292.423 227.926C292.423 227.926 300.596 221.769 296.344 211.036C295.685 210.19 294.223 206.264 297.114 204.57Z" fill="#263238"/>
<path d="M291.727 227.293C289.462 219.41 287.381 210.962 289.789 203.121C289.348 203.103 288.908 203.084 288.467 203.066L287.916 203.468C285.426 202.631 282.445 203.58 280.898 205.702C279.351 207.825 279.359 210.953 280.918 213.068C278.281 212.944 275.751 215.15 275.51 217.779C275.345 219.594 276.134 221.347 276.943 222.979C277.752 224.612 278.622 226.302 278.634 228.125C278.646 229.947 277.48 231.926 275.671 232.142C276.48 234.01 278.745 235.109 280.713 234.592C280.089 236.133 279.014 237.489 277.657 238.448C280.556 240.423 284.537 239.749 287.692 238.212C289.564 237.301 291.4 236.002 292.163 234.067C293.009 231.922 292.364 229.51 291.727 227.293Z" fill="#263238"/>
<path d="M290.999 236.479C290.73 236.371 280.194 233.584 280.809 244.244C281.424 254.905 292.001 252.088 292.001 251.781C292.002 251.474 290.999 236.479 290.999 236.479Z" fill="#FFBE9D"/>
<path d="M289.453 247.904C289.404 247.872 289.274 248.045 288.968 248.206C288.671 248.364 288.15 248.491 287.582 248.315C286.433 247.966 285.381 246.234 285.218 244.315C285.135 243.347 285.284 242.41 285.584 241.626C285.865 240.828 286.338 240.253 286.898 240.12C287.455 239.957 287.876 240.274 288.024 240.566C288.184 240.856 288.128 241.072 288.186 241.087C288.218 241.111 288.405 240.894 288.294 240.46C288.237 240.251 288.098 240.006 287.836 239.816C287.569 239.622 287.186 239.538 286.794 239.605C285.975 239.709 285.279 240.507 284.949 241.369C284.574 242.236 284.383 243.29 284.477 244.377C284.669 246.522 285.884 248.468 287.452 248.824C288.214 248.976 288.826 248.714 289.134 248.444C289.447 248.162 289.491 247.92 289.453 247.904Z" fill="#EB996E"/>
<path d="M279.93 227.636C279.899 227.658 279.631 227.235 279.734 226.397C279.835 225.581 280.424 224.399 281.727 223.618C283.017 222.833 284.799 222.641 286.611 222.439C288.404 222.245 290.453 221.736 291.477 219.967C292.502 218.245 292.531 216.136 292.312 214.372C292.058 212.581 291.585 210.955 291.35 209.556C290.786 206.734 291.327 204.934 291.423 204.981C291.551 205 291.233 206.728 291.925 209.438C292.227 210.798 292.756 212.379 293.07 214.265C293.333 216.123 293.372 218.38 292.185 220.401C291.593 221.395 290.645 222.152 289.645 222.552C288.642 222.959 287.632 223.099 286.699 223.199C284.837 223.362 283.196 223.492 282.012 224.133C280.842 224.749 280.23 225.754 280.052 226.461C279.863 227.186 280.005 227.623 279.93 227.636Z" fill="#455A64"/>
<path d="M277.357 222.988C277.315 223.004 277.122 222.684 277.028 222.024C276.94 221.375 276.99 220.358 277.559 219.281C277.843 218.749 278.257 218.208 278.826 217.759C279.386 217.291 280.148 217.002 280.873 216.803C281.599 216.592 282.354 216.404 282.897 215.973C283.438 215.545 283.682 214.838 283.699 214.019C283.73 213.206 283.606 212.352 283.625 211.496C283.638 210.649 283.737 209.836 283.898 209.076C284.231 207.553 284.782 206.267 285.427 205.265C286.07 204.234 287.098 203.729 287.787 203.766C288.493 203.772 288.789 204.09 288.756 204.117C288.728 204.182 288.401 203.996 287.812 204.089C287.221 204.163 286.449 204.622 285.924 205.579C285.396 206.528 284.915 207.796 284.648 209.226C284.516 209.944 284.439 210.71 284.439 211.503C284.428 212.289 284.558 213.125 284.527 214.052C284.524 214.956 284.19 216.019 283.4 216.611C282.629 217.192 281.783 217.346 281.074 217.542C279.613 217.827 278.637 218.64 278.066 219.572C276.939 221.482 277.517 222.994 277.357 222.988Z" fill="#455A64"/>
<path d="M339.742 194.877C339.808 194.892 338.937 195.458 337.54 194.801C336.856 194.497 336.181 193.855 335.527 193.087C334.874 192.309 334.132 191.478 333.051 190.89C330.969 189.707 327.599 189.4 325.011 191.423C323.692 192.38 322.526 193.714 320.992 194.831C320.225 195.379 319.335 195.868 318.323 196.065C317.313 196.263 316.241 196.122 315.288 195.777C313.366 195.088 311.85 193.909 310.191 193.308C308.539 192.669 306.817 192.386 305.185 192.407C301.896 192.415 299.052 193.653 297.11 195.184C295.135 196.712 293.98 198.435 293.298 199.651C292.635 200.889 292.394 201.642 292.325 201.619C292.298 201.611 292.335 201.417 292.431 201.052C292.531 200.688 292.716 200.163 293.009 199.506C293.617 198.216 294.732 196.38 296.743 194.725C298.718 193.068 301.703 191.691 305.173 191.641C306.895 191.598 308.72 191.879 310.482 192.548C312.271 193.198 313.818 194.38 315.561 194.993C316.427 195.303 317.319 195.415 318.17 195.252C319.02 195.09 319.804 194.674 320.52 194.167C321.953 193.142 323.148 191.807 324.561 190.802C325.956 189.752 327.669 189.243 329.219 189.26C330.78 189.268 332.208 189.708 333.343 190.379C334.493 191.047 335.28 191.999 335.883 192.787C336.5 193.577 337.081 194.189 337.687 194.512C338.914 195.204 339.746 194.797 339.742 194.877Z" fill="#455A64"/>
<path d="M318.333 248.006C318.67 247.928 319.059 250.208 321.282 251.497C323.503 252.792 325.889 252.127 325.961 252.443C326.017 252.582 325.494 252.977 324.473 253.178C323.473 253.381 321.95 253.305 320.59 252.516C319.232 251.725 318.497 250.487 318.262 249.565C318.016 248.626 318.175 248.019 318.333 248.006Z" fill="#263238"/>
<path d="M458.807 460.099C454.774 456.504 449.202 454.836 443.809 455.151L434.639 484.302C441.361 484.598 448.066 488.065 454.556 486.288C459.767 484.862 463.718 479.967 464.443 474.613C465.168 469.258 462.84 463.692 458.807 460.099Z" fill="#EC8305"/>
<path d="M443.972 454.464C443.991 454.228 444.969 454.046 446.751 454.064C448.522 454.113 451.152 454.315 454.259 455.478C457.374 456.632 460.771 458.99 463.401 462.577C464.716 464.369 465.815 466.504 466.451 468.9C467.097 471.292 467.211 473.959 466.677 476.548C466.147 479.14 465.008 481.573 463.344 483.507C461.679 485.46 459.544 486.811 457.425 487.612C453.146 489.218 449.033 488.962 445.886 488.357C442.707 487.733 440.315 486.806 438.695 486.124C437.078 485.426 436.232 484.915 436.303 484.683C436.373 484.446 437.363 484.516 439.083 484.803C440.801 485.075 443.251 485.611 446.235 485.881C449.194 486.147 452.782 486.058 456.202 484.593C457.894 483.865 459.472 482.771 460.69 481.282C461.92 479.793 462.794 477.893 463.215 475.838C464.093 471.694 462.84 467.563 460.731 464.442C458.62 461.286 455.854 459.04 453.257 457.768C450.636 456.459 448.22 455.881 446.565 455.427C444.898 454.996 443.952 454.714 443.972 454.464Z" fill="#F5F5F5"/>
<path d="M358.969 563.809L339.014 619.716L408.443 644.898C410.443 638.119 379.353 611.775 379.353 611.775L393.608 576.479L358.969 563.809Z" fill="#EC8305"/>
<g opacity="0.6">
<path d="M358.977 600.979C357.5 600.859 356.023 602.033 355.842 603.503C355.662 604.974 356.843 606.486 358.317 606.632C359.791 606.778 361.607 605.423 361.622 603.942C361.637 602.46 360.154 600.76 358.686 600.973" fill="white"/>
</g>
<path d="M339.016 619.715L341.03 614.072L406.982 640.38C406.982 640.38 409.585 642.846 408.447 644.897L339.016 619.715Z" fill="white"/>
<path d="M380.608 611.83C380.474 612.165 378.723 611.704 376.659 612.19C374.583 612.62 373.191 613.776 372.928 613.529C372.639 613.35 373.881 611.507 376.388 610.964C378.891 610.397 380.794 611.545 380.608 611.83Z" fill="#263238"/>
<path d="M386.798 617.482C386.758 617.839 385.08 617.883 383.408 618.899C381.707 619.866 380.853 621.312 380.522 621.174C380.184 621.112 380.67 619.042 382.772 617.818C384.863 616.576 386.908 617.157 386.798 617.482Z" fill="#263238"/>
<path d="M387.773 627.699C387.439 627.659 387.582 625.794 389.125 624.254C390.659 622.701 392.523 622.549 392.563 622.883C392.654 623.231 391.263 623.853 390.014 625.139C388.738 626.393 388.122 627.787 387.773 627.699Z" fill="#263238"/>
<path d="M382.965 603.426C382.712 603.684 381.326 602.652 379.361 602.086C377.41 601.482 375.684 601.584 375.614 601.23C375.506 600.913 377.418 600.187 379.721 600.885C382.029 601.564 383.229 603.22 382.965 603.426Z" fill="#263238"/>
<path d="M384.3 594.587C384.253 594.729 382.836 594.453 380.829 593.307C379.83 592.737 378.702 591.932 377.597 590.871C377.046 590.339 376.5 589.744 375.984 589.087C375.74 588.766 375.434 588.421 375.231 587.889C374.984 587.399 375.096 586.423 375.729 586.029C376.277 585.625 376.99 585.622 377.495 585.793C378.013 585.961 378.391 586.215 378.734 586.446C379.44 586.914 380.071 587.433 380.628 587.971C381.735 589.056 382.536 590.21 383.071 591.239C384.141 593.314 384.232 594.78 384.092 594.803C383.898 594.859 383.499 593.514 382.306 591.688C381.71 590.779 380.895 589.767 379.838 588.816C379.306 588.343 378.715 587.889 378.064 587.476C377.399 587.016 376.774 586.784 376.467 587.043C376.353 587.142 376.326 587.188 376.402 587.46C376.489 587.716 376.717 588.018 376.957 588.337C377.426 588.96 377.918 589.532 378.414 590.052C379.408 591.092 380.416 591.923 381.308 592.56C383.097 593.838 384.372 594.407 384.3 594.587Z" fill="#263238"/>
<path d="M383.682 594.914C383.542 594.923 383.311 593.464 383.983 591.223C384.321 590.112 384.911 588.834 385.839 587.588C386.304 586.969 386.854 586.359 387.489 585.797C388.145 585.258 388.974 584.52 390.344 584.846C391.04 585.07 391.416 585.812 391.445 586.342C391.503 586.895 391.403 587.315 391.339 587.747C391.172 588.604 390.869 589.393 390.492 590.089C389.737 591.489 388.686 592.497 387.704 593.144C385.695 594.451 384.132 594.342 384.146 594.217C384.094 594.005 385.514 593.78 387.178 592.428C388 591.762 388.862 590.802 389.463 589.56C389.764 588.941 390.002 588.256 390.128 587.528C390.287 586.75 390.226 586.055 389.923 586.031C389.58 585.9 388.791 586.243 388.294 586.728C387.712 587.221 387.197 587.756 386.749 588.302C385.859 589.398 385.233 590.53 384.818 591.527C383.983 593.529 383.884 594.929 383.682 594.914Z" fill="#263238"/>
<path d="M291.698 414.483C281.166 414.727 271.175 416.215 263.921 423.854C254.3 433.986 242.402 448.418 241.726 458.427C240.716 473.387 249.742 477.834 256.331 481.481C259.245 483.095 262.568 483.822 265.896 483.694L387.629 482.77L391.45 462.151L312.717 442.747L315.987 413.113L291.698 414.483Z" fill="#263238"/>
<path d="M315.989 413.117L354.284 411.354C354.284 411.354 420.437 415.031 434.547 427.965C448.657 440.9 446.894 455.599 442.19 469.709C437.487 483.82 396.037 574.069 396.037 574.069C396.037 574.069 399.398 579.807 397.507 585.534C394.581 594.4 386.697 595.83 386.697 595.83L349.884 582.3C349.884 582.3 344.886 580.537 348.414 575.832C351.942 571.129 354.293 570.247 354.293 570.247V560.84C354.293 560.84 367.228 537.322 368.403 534.088C369.579 530.855 381.977 482.99 381.977 482.99L390.213 468.837C390.213 468.837 370.296 459.472 353.034 452.685L312.719 442.749L315.989 413.117Z" fill="#263238"/>
<path d="M378.101 580.596C378.027 580.685 376.866 579.766 374.871 578.478C372.879 577.187 370.004 575.586 366.624 574.295C363.239 573.013 360.027 572.301 357.68 571.942C355.334 571.58 353.855 571.496 353.859 571.379C353.859 571.3 355.348 571.207 357.744 571.446C360.136 571.68 363.429 572.328 366.874 573.632C370.315 574.946 373.206 576.65 375.15 578.063C377.102 579.477 378.153 580.536 378.101 580.596Z" fill="#455A64"/>
<path d="M396.5 574.133C396.427 574.194 395.603 573.339 394.363 571.881C393.12 570.423 391.469 568.357 389.736 566.005C388.004 563.651 386.524 561.457 385.501 559.838C384.479 558.219 383.908 557.179 383.988 557.127C384.071 557.073 384.789 558.015 385.915 559.557C387.201 561.322 388.676 563.348 390.307 565.585C391.957 567.806 393.453 569.818 394.755 571.57C395.891 573.104 396.576 574.069 396.5 574.133Z" fill="#455A64"/>
<path d="M409.991 455.914C410.013 456.029 408.639 456.321 406.502 457.031C404.367 457.735 401.487 458.937 398.576 460.746C395.67 462.566 393.327 464.627 391.757 466.237C390.182 467.845 389.316 468.95 389.223 468.879C389.159 468.835 389.885 467.617 391.392 465.896C392.89 464.175 395.235 462.006 398.203 460.147C401.176 458.299 404.154 457.145 406.358 456.553C408.566 455.956 409.98 455.836 409.991 455.914Z" fill="#455A64"/>
<path d="M372.333 519.822C372.31 519.815 372.362 519.542 372.484 519.026C372.632 518.439 372.819 517.696 373.049 516.783C373.595 514.752 374.341 511.968 375.255 508.568C377.205 501.567 379.858 492.052 382.79 481.538C384.317 476.267 385.628 471.238 387.101 466.685C388.812 462.169 391.523 458.686 394.032 456.109C396.563 453.525 398.932 451.787 400.612 450.685C401.463 450.145 402.128 449.735 402.598 449.489C403.062 449.234 403.312 449.111 403.324 449.131C403.357 449.185 402.403 449.757 400.768 450.912C399.145 452.078 396.844 453.86 394.393 456.456C391.961 459.04 389.343 462.501 387.711 466.912C386.298 471.399 384.989 476.487 383.467 481.74C380.46 492.23 377.737 501.722 375.735 508.706C374.733 512.081 373.912 514.843 373.314 516.857C373.031 517.756 372.802 518.486 372.621 519.064C372.456 519.568 372.358 519.829 372.333 519.822Z" fill="#455A64"/>
<path d="M338.461 450.88C338.267 450.897 337.462 443.737 336.664 434.889C335.866 426.038 335.376 418.852 335.57 418.834C335.764 418.816 336.569 425.975 337.367 434.826C338.166 443.673 338.655 450.862 338.461 450.88Z" fill="#455A64"/>
<path d="M274.725 469.996C274.618 470.049 274.026 468.889 272.827 467.191C271.636 465.493 269.756 463.301 267.266 461.348C264.769 459.404 262.187 458.11 260.25 457.365C258.313 456.613 257.045 456.32 257.071 456.203C257.083 456.128 258.396 456.249 260.418 456.894C262.437 457.532 265.134 458.792 267.701 460.791C270.259 462.797 272.135 465.11 273.243 466.914C274.36 468.72 274.794 469.966 274.725 469.996Z" fill="#455A64"/>
<path d="M298.186 444.003C298.118 444.111 296.495 443.07 293.682 441.791C290.878 440.507 286.818 439.1 282.158 438.422C277.493 437.761 273.202 437.972 270.149 438.416C267.091 438.853 265.241 439.394 265.205 439.271C265.192 439.225 265.642 439.055 266.475 438.789C267.303 438.509 268.532 438.205 270.07 437.921C273.141 437.345 277.512 437.05 282.258 437.723C287.001 438.411 291.113 439.925 293.897 441.341C295.292 442.045 296.388 442.683 297.103 443.184C297.826 443.673 298.213 443.96 298.186 444.003Z" fill="#455A64"/>
<path d="M389.88 462.132C389.875 462.155 389.547 462.101 388.926 461.975C388.239 461.825 387.341 461.631 386.224 461.388C383.801 460.844 380.432 460.087 376.301 459.158C367.922 457.281 356.331 454.766 343.482 452.219C330.627 449.677 318.951 447.586 310.489 446.128C306.316 445.413 302.913 444.829 300.466 444.41C299.339 444.208 298.435 444.046 297.743 443.923C297.121 443.803 296.797 443.729 296.801 443.705C296.805 443.682 297.136 443.708 297.765 443.783C298.462 443.874 299.373 443.992 300.508 444.14C302.889 444.462 306.327 444.971 310.57 445.637C319.057 446.969 330.756 448.983 343.619 451.527C356.478 454.075 368.06 456.67 376.414 458.672C380.59 459.673 383.965 460.511 386.287 461.121C387.394 461.417 388.281 461.654 388.96 461.836C389.568 462.007 389.886 462.109 389.88 462.132Z" fill="#455A64"/>
<path d="M312.72 446.244C312.585 446.285 312.299 444.635 311.034 442.354C310.394 441.223 309.469 439.971 308.249 438.751C307.042 437.523 305.561 436.3 303.987 435.066C300.809 432.631 297.581 430.912 295.267 429.65C292.939 428.402 291.496 427.623 291.542 427.531C291.583 427.448 293.099 428.067 295.493 429.204C297.873 430.357 301.174 432.021 304.418 434.505C306.017 435.759 307.497 437.007 308.719 438.299C309.947 439.578 310.871 440.916 311.476 442.117C312.077 443.323 312.4 444.367 312.563 445.094C312.724 445.823 312.762 446.234 312.72 446.244Z" fill="#455A64"/>
<path d="M448.305 464.65C448.461 464.801 446.425 466.859 444.839 469.987C443.221 473.1 442.735 475.954 442.522 475.915C442.347 475.915 442.529 472.907 444.211 469.664C445.864 466.411 448.203 464.508 448.305 464.65Z" fill="#263238"/>
<g opacity="0.3">
<path d="M361.176 325.545L369.889 386.927L370.325 387.908C372.382 366.791 369.213 345.182 361.176 325.545Z" fill="black"/>
</g>
<path d="M408.104 360.82L379.769 410.374L309.957 411.892L309.783 415.053L377.38 414.551L379.524 414.478L450.907 414.619L465.33 389.742L483.757 363.332C484.965 361.602 483.72 359.228 481.61 359.234L410.356 359.506C409.424 359.511 408.565 360.012 408.104 360.82Z" fill="#E0E0E0"/>
<path d="M465.33 389.742C465.33 389.742 468.998 393.103 468.42 395.96C467.84 398.816 468.034 400.941 465.33 401.133C465.33 401.133 465.523 404.801 461.662 405.381C461.662 405.381 462.49 409.859 457.278 410.631C457.278 410.631 455.678 415.42 452.397 414.262C449.115 413.104 446.992 411.752 446.992 411.752L446.027 410.015C446.027 410.015 441.191 408.197 442.382 405.466C443.105 403.809 445.606 403.379 445.606 403.379C445.606 403.379 444.566 400.948 445.915 399.133C447.074 397.574 450.849 398.863 450.849 398.863C450.849 398.863 450.627 396.851 452.045 395.168C453.331 393.643 459.34 397.785 459.34 397.785L462.618 393.869L465.33 389.742Z" fill="#FFBE9D"/>
<path d="M457.276 410.63C457.173 410.796 454.476 409.307 451.253 407.305C448.03 405.301 445.501 403.543 445.603 403.378C445.706 403.212 448.402 404.701 451.625 406.705C454.849 408.706 457.379 410.465 457.276 410.63Z" fill="#EB996E"/>
<path d="M461.663 405.38C461.563 405.547 459.06 404.224 456.073 402.424C453.087 400.622 450.748 399.029 450.849 398.862C450.949 398.695 453.452 400.018 456.439 401.818C459.425 403.618 461.764 405.213 461.663 405.38Z" fill="#EB996E"/>
<path d="M455.688 395.553C455.796 395.354 458.037 396.535 460.644 398.185C463.252 399.851 465.355 401.146 465.305 401.277C465.206 401.508 462.875 400.451 460.269 398.785C457.65 397.128 455.61 395.698 455.688 395.553Z" fill="#EB996E"/>
<path d="M483.769 361.113C483.769 361.125 483.653 361.138 483.427 361.15C483.159 361.159 482.83 361.171 482.425 361.185C481.487 361.201 480.2 361.223 478.57 361.252C475.163 361.279 470.335 361.317 464.395 361.364C452.374 361.391 435.865 361.428 417.628 361.467C416.487 361.467 415.352 361.467 414.224 361.467C413.153 361.386 412.182 361.856 411.628 362.693C410.553 364.63 409.495 366.539 408.455 368.415C406.369 372.18 404.356 375.814 402.438 379.276C398.595 386.18 395.132 392.403 392.212 397.648C389.301 402.825 386.935 407.033 385.265 410.003C384.453 411.414 383.813 412.53 383.346 413.345C383.138 413.692 382.968 413.974 382.831 414.205C382.712 414.396 382.645 414.493 382.634 414.486C382.624 414.481 382.67 414.373 382.767 414.17C382.888 413.931 383.038 413.636 383.221 413.275C383.659 412.446 384.262 411.308 385.025 409.868C386.647 406.872 388.946 402.626 391.775 397.403C394.657 392.136 398.075 385.89 401.869 378.957C403.776 375.488 405.777 371.849 407.851 368.077C408.897 366.184 409.962 364.26 411.041 362.306C411.7 361.253 413.037 360.658 414.222 360.762C415.35 360.762 416.485 360.762 417.627 360.762C435.863 360.802 452.374 360.839 464.393 360.865C470.333 360.912 475.162 360.95 478.569 360.977C480.198 361.006 481.484 361.028 482.424 361.044C482.83 361.057 483.158 361.07 483.425 361.079C483.652 361.09 483.769 361.101 483.769 361.113Z" fill="#263238"/>
<path d="M433.534 386.025C432.273 387.423 432.243 389.451 433.467 390.556C434.692 391.661 436.706 391.422 437.967 390.024C439.228 388.626 439.258 386.598 438.034 385.493C436.809 384.389 434.795 384.627 433.534 386.025Z" fill="white"/>
<g opacity="0.3">
<path d="M235.366 366.859C234.761 367.104 234.071 367.507 234.064 368.16C234.059 368.688 234.55 369.114 235.068 369.225C235.585 369.336 237.451 368.563 237.967 368.449C245.304 366.828 251.354 368.381 258.347 371.128L258.574 370.896C255.783 365.008 243.26 363.68 235.366 366.859Z" fill="black"/>
</g>
<path d="M613.573 642.392C613.573 642.587 490.789 642.745 339.362 642.745C187.883 642.745 65.125 642.586 65.125 642.392C65.125 642.198 187.883 642.039 339.362 642.039C490.789 642.039 613.573 642.197 613.573 642.392Z" fill="#263238"/>
<path d="M363.008 234.728L382.18 236.84C386.794 230.271 393.222 224.855 401.137 221.448C423.901 211.651 450.294 222.163 460.09 244.925C469.887 267.689 459.375 294.082 436.613 303.878C413.851 313.675 387.456 303.163 377.66 280.401C373.57 270.896 373.031 260.762 375.436 251.462L375.424 251.484L363.008 234.728Z" fill="#FAFAFA"/>
<path d="M363.008 234.728C363.76 235.726 367.635 240.865 375.565 251.379L375.271 251.398L375.283 251.376C375.33 251.291 375.438 251.261 375.522 251.307C375.594 251.347 375.626 251.431 375.607 251.505C374.022 257.705 373.411 265.872 375.904 274.68C376.541 276.864 377.311 279.1 378.386 281.273C378.931 282.355 379.449 283.474 380.039 284.57C380.702 285.628 381.373 286.699 382.054 287.785C384.965 291.999 388.758 295.952 393.388 299.164C398.007 302.378 403.454 304.846 409.394 306.145C415.323 307.441 421.748 307.591 428.071 306.23C434.38 304.862 440.575 302.077 445.949 297.949C451.297 293.82 455.934 288.419 458.915 282.036C461.977 275.557 463.618 268.477 463.363 261.558C463.169 254.644 461.357 247.959 458.335 242.119C455.315 236.277 451.114 231.249 446.206 227.49C441.312 223.707 435.824 221.096 430.312 219.623C424.793 218.142 419.257 217.798 414.109 218.317C408.944 218.855 404.251 220.403 400.058 222.203C391.703 226.037 385.948 231.818 382.321 236.936C382.286 236.988 382.222 237.014 382.163 237.007C370.03 235.564 364.193 234.869 363.008 234.728C364.196 234.849 370.043 235.441 382.199 236.672L382.041 236.742C385.651 231.554 391.424 225.677 399.85 221.761C404.079 219.92 408.82 218.333 414.047 217.77C419.257 217.226 424.867 217.554 430.465 219.041C436.056 220.517 441.628 223.152 446.601 226.98C451.588 230.783 455.864 235.88 458.937 241.807C462.013 247.731 463.86 254.519 464.061 261.542C464.323 268.571 462.661 275.764 459.549 282.344C456.52 288.827 451.809 294.315 446.373 298.505C440.91 302.696 434.619 305.516 428.209 306.897C421.787 308.271 415.265 308.108 409.252 306.78C403.229 305.451 397.71 302.935 393.036 299.663C388.352 296.395 384.521 292.377 381.589 288.098C380.904 286.996 380.229 285.909 379.563 284.836C378.969 283.723 378.45 282.59 377.903 281.493C376.826 279.29 376.057 277.025 375.424 274.813C372.945 265.894 373.616 257.65 375.265 251.416L375.59 251.546L375.577 251.568C375.531 251.653 375.424 251.683 375.34 251.637C375.317 251.625 375.296 251.606 375.283 251.587C367.531 240.942 363.742 235.738 363.008 234.728Z" fill="#263238"/>
<path d="M402.334 246.691C402.346 246.703 402.357 246.914 402.367 247.311C402.377 247.757 402.388 248.331 402.403 249.051C402.422 250.619 402.449 252.813 402.483 255.576C402.521 261.204 402.575 269.138 402.639 278.636L402.334 278.331C411.632 278.317 422.586 278.301 434.274 278.283C434.356 278.207 433.608 278.95 433.924 278.631V278.622V278.605V278.571V278.502V278.365V278.09V277.543V276.453C433.924 275.728 433.924 275.006 433.926 274.287C433.927 272.849 433.927 271.425 433.928 270.017C433.931 267.199 433.935 264.442 433.938 261.759C433.95 256.399 433.962 251.339 433.973 246.691L434.279 246.996C424.779 246.933 416.845 246.878 411.218 246.84C408.455 246.806 406.26 246.779 404.694 246.76C403.975 246.745 403.399 246.733 402.955 246.725C402.556 246.714 402.346 246.702 402.334 246.691C402.323 246.68 402.51 246.668 402.887 246.657C403.316 246.648 403.873 246.637 404.568 246.622C406.118 246.603 408.288 246.576 411.022 246.542C416.698 246.504 424.699 246.449 434.277 246.386L434.583 246.383L434.584 246.691C434.595 251.339 434.607 256.399 434.619 261.759C434.622 264.442 434.625 267.199 434.629 270.017C434.63 271.425 434.63 272.849 434.631 274.287C434.631 275.005 434.631 275.727 434.631 276.453V277.543V278.09V278.365V278.502V278.571V278.605V278.622V278.631C434.948 278.317 434.203 279.068 434.274 278.989C422.586 278.971 411.632 278.955 402.334 278.941H402.025L402.027 278.636C402.091 269.058 402.145 261.056 402.183 255.381C402.217 252.647 402.244 250.477 402.263 248.925C402.278 248.23 402.289 247.675 402.298 247.245C402.31 246.867 402.323 246.679 402.334 246.691Z" fill="#263238"/>
<path d="M430.83 251.972C431.289 252.336 426.992 258.524 421.231 265.793C420.081 267.244 418.96 268.629 417.917 269.887L417.235 270.712L416.47 270.024C411.481 265.531 408.095 262.08 408.402 261.726C408.709 261.372 412.614 264.22 417.786 268.501L416.339 268.638C417.326 267.336 418.417 265.929 419.567 264.478C425.329 257.207 430.372 251.608 430.83 251.972Z" fill="#EC8305"/>
</svg>
