<svg width="679" height="679" viewBox="0 0 679 679" fill="none" xmlns="http://www.w3.org/2000/svg">
<path d="M215.146 209.323C215.381 209.558 260.455 194.064 260.455 194.064L243.123 154.289L203 169.629L225.071 182.311L215.146 209.323Z" fill="#455A64"/>
<path d="M236.289 166.276V112.117C236.289 112.117 298.47 100.75 343.267 101.419C388.064 102.088 434.199 109.443 434.199 109.443V161.435C434.199 161.435 293.79 148.891 236.289 166.276Z" fill="#455A64"/>
<path d="M235.965 166.321L260.454 194.298V161.436C260.454 161.436 239.971 163.886 235.965 166.321Z" fill="#263238"/>
<path d="M236.29 112.113C236.485 112.115 236.571 124.25 236.481 139.216C236.391 154.187 236.161 166.318 235.965 166.318C235.77 166.317 235.684 154.183 235.774 139.212C235.863 124.247 236.094 112.113 236.29 112.113Z" fill="#263238"/>
<path d="M455.275 205.169C455.041 205.404 409.967 189.909 409.967 189.909L427.298 150.135L467.421 165.475L445.35 178.157L455.275 205.169Z" fill="#455A64"/>
<path d="M434.454 162.167L409.965 190.144V159.658C418.128 159.931 426.292 160.767 434.454 162.167Z" fill="#263238"/>
<path d="M434.199 109.445C434.395 109.444 434.61 121.247 434.681 135.805C434.752 150.367 434.651 162.168 434.456 162.169C434.26 162.171 434.046 150.37 433.974 135.807C433.903 121.251 434.004 109.447 434.199 109.445Z" fill="#263238"/>
<path d="M271.356 135.863C270.757 131.545 273.644 127.995 278.105 127.376C280.581 127.033 282.773 127.646 284.35 129.098L282.495 131.358C281.38 130.386 280.092 129.98 278.66 130.179C275.979 130.551 274.338 132.697 274.711 135.399C275.086 138.1 277.251 139.719 279.93 139.347C281.362 139.149 282.49 138.408 283.297 137.15L285.698 138.818C284.577 140.663 282.636 141.85 280.138 142.196C275.697 142.811 271.954 140.181 271.356 135.863Z" fill="white"/>
<path d="M286.17 133.823C285.73 129.55 288.734 126.043 293.274 125.576C297.794 125.111 301.466 127.91 301.907 132.204C302.35 136.499 299.323 139.986 294.803 140.451C290.264 140.918 286.609 138.096 286.17 133.823ZM298.54 132.551C298.259 129.819 296.136 128.146 293.567 128.411C290.999 128.675 289.26 130.743 289.541 133.476C289.822 136.208 291.945 137.879 294.515 137.616C297.08 137.351 298.821 135.284 298.54 132.551Z" fill="white"/>
<path d="M318.159 138.347L317.583 129.693L313.795 137.097L312.291 137.193L307.621 130.519L308.165 138.989L305.032 139.19L304.104 124.763L306.864 124.585L312.841 133.204L317.581 123.897L320.323 123.721L321.292 138.144L318.159 138.347Z" fill="white"/>
<path d="M336.848 128.47C336.938 131.691 334.579 133.761 330.717 133.871L327.805 133.953L327.917 137.939L324.572 138.033L324.166 123.578L330.424 123.403C334.285 123.293 336.757 125.229 336.848 128.47ZM333.461 128.565C333.417 126.976 332.358 126.074 330.314 126.131L327.588 126.209L327.729 131.227L330.455 131.15C332.499 131.093 333.505 130.134 333.461 128.565Z" fill="white"/>
<path d="M339.389 123.217H342.733V134.946H349.982V137.672H339.389V123.217Z" fill="white"/>
<path d="M363.015 135.356L362.937 138.04L351.744 137.715L352.165 123.26L363.089 123.577L363.011 126.262L355.412 126.041L355.321 129.181L362.033 129.376L361.957 131.978L355.245 131.783L355.147 135.129L363.015 135.356Z" fill="white"/>
<path d="M369.195 126.649L364.58 126.371L364.744 123.65L377.317 124.409L377.152 127.129L372.536 126.851L371.83 138.556L368.491 138.355L369.195 126.649Z" fill="white"/>
<path d="M389.491 137.336L389.243 140.01L378.096 138.977L379.429 124.58L390.31 125.589L390.061 128.263L382.492 127.561L382.203 130.687L388.887 131.306L388.647 133.897L381.963 133.278L381.653 136.611L389.491 137.336Z" fill="white"/>
<path d="M393.669 125.947L400.177 126.817C404.862 127.443 407.698 130.697 407.118 135.035C406.539 139.373 402.95 141.768 398.261 141.142L391.754 140.272L393.669 125.947ZM398.462 138.399C401.307 138.779 403.396 137.329 403.761 134.587C404.129 131.844 402.492 129.897 399.649 129.517L396.622 129.113L395.435 137.994L398.462 138.399Z" fill="white"/>
<path d="M462.137 114.37L465.684 118.543L475.7 114.37L472.779 109.988L462.137 114.37Z" fill="#455A64"/>
<path d="M457.546 94.5466C457.546 97.4283 455.21 99.7631 452.33 99.7631C449.449 99.7631 447.113 97.427 447.113 94.5466C447.113 91.6662 449.449 89.3301 452.33 89.3301C455.212 89.3301 457.546 91.6662 457.546 94.5466Z" fill="#EC8305"/>
<path d="M340.779 172.293C340.779 173.733 339.612 174.901 338.171 174.901C336.731 174.901 335.562 173.734 335.562 172.293C335.562 170.852 336.73 169.684 338.171 169.684C339.612 169.685 340.779 170.852 340.779 172.293Z" fill="#EC8305"/>
<path d="M219.357 133.122C219.357 134.214 218.47 135.101 217.378 135.101C216.285 135.101 215.398 134.214 215.398 133.122C215.398 132.029 216.285 131.143 217.378 131.143C218.47 131.143 219.357 132.029 219.357 133.122Z" fill="#EC8305"/>
<path d="M212 111.301L217.841 111.657L220.615 100.182L215.16 100.403L212 111.301Z" fill="#455A64"/>
<path d="M394.439 202.968L396.404 208.481L408.047 206.532L405.703 201.602L394.439 202.968Z" fill="#EC8305"/>
<path d="M276.638 171.17L273.041 175.786L280.936 184.565L283.838 179.94L276.638 171.17Z" fill="#455A64"/>
<path d="M262.404 62.7461L276.194 76.8047L295.593 69.4734L296.36 74.2854L287.958 91.4918L295.701 104.335L295.053 108.169L276.281 105.009L265.184 117.191L262.58 115.211L260.28 99.723L242.767 90.604L242 87.0707L259.633 82.2424L262.404 62.7461Z" fill="#EC8305"/>
<g opacity="0.3">
<path d="M262.404 62.7461L276.194 76.8047L295.593 69.4734L296.36 74.2854L287.958 91.4918L295.701 104.335L295.053 108.169L276.281 105.009L265.184 117.191L262.58 115.211L260.28 99.723L242.767 90.604L242 87.0707L259.633 82.2424L262.404 62.7461Z" fill="black"/>
</g>
<path d="M262.404 58.8027L276.194 72.8627L295.593 69.4733L286.483 86.9321L295.701 104.335L276.281 101.067L262.58 115.211L259.687 95.7308L242 87.0706L259.633 78.3004L262.404 58.8027Z" fill="#EC8305"/>
<path d="M405.272 62.7461L391.482 76.8047L372.083 69.4734L371.316 74.2854L379.719 91.4918L371.975 104.335L372.624 108.169L391.395 105.009L402.492 117.191L405.097 115.211L407.396 99.723L424.909 90.604L425.676 87.0707L408.044 82.2424L405.272 62.7461Z" fill="#EC8305"/>
<g opacity="0.3">
<path d="M405.272 62.7461L391.482 76.8047L372.083 69.4734L371.316 74.2854L379.719 91.4918L371.975 104.335L372.624 108.169L391.395 105.009L402.492 117.191L405.097 115.211L407.396 99.723L424.909 90.604L425.676 87.0707L408.044 82.2424L405.272 62.7461Z" fill="black"/>
</g>
<path d="M405.272 58.8027L391.482 72.8627L372.083 69.4733L381.193 86.9321L371.975 104.335L391.395 101.067L405.097 115.211L407.989 95.7308L425.676 87.0706L408.043 78.3004L405.272 58.8027Z" fill="#EC8305"/>
<path d="M333.385 38.0879L344.853 60.4931L371.315 58.9376L370.417 65.1002L353.613 82.893L358.168 101.512L355.918 105.943L334.218 94.9372L316.039 105.574L313.614 102.167L316.708 82.3934L298.814 64.5979L299.224 59.995L322.577 60.8203L333.385 38.0879Z" fill="#EC8305"/>
<g opacity="0.3">
<path d="M333.385 38.0879L344.853 60.4931L371.315 58.9376L370.417 65.1002L353.613 82.893L358.168 101.512L355.918 105.943L334.218 94.9372L316.039 105.574L313.614 102.167L316.708 82.3934L298.814 64.5979L299.224 59.995L322.577 60.8203L333.385 38.0879Z" fill="black"/>
</g>
<path d="M334.886 33.2773L346.355 55.6839L371.315 58.9376L353.55 76.7698L358.168 101.512L335.72 90.128L313.614 102.167L317.505 77.2978L299.225 59.995L324.079 56.0097L334.886 33.2773Z" fill="#EC8305"/>
</svg>
