<svg width="596" height="566" viewBox="0 0 596 566" fill="none" xmlns="http://www.w3.org/2000/svg">
<path d="M490.908 74.5646C483.757 74.2834 477.827 76.5939 472.228 83.3909C466.226 90.7259 458.781 99.2833 449.881 109.149L430.762 97.8408L421.397 110.591C421.397 110.591 440.713 127.388 448.194 130.885C453.793 133.501 456.275 131.215 461.079 127.217C466.422 122.755 482.424 107.376 482.424 107.376L490.908 74.5646Z" fill="#FFBDA7"/>
<path d="M449.881 109.149C454.111 111.362 457.057 114.039 457.73 117.523C457.913 112.034 452.546 108.782 451.043 107.841L449.881 109.149Z" fill="black"/>
<path d="M408.891 72.5597L410.481 71.4961C410.714 71.378 410.971 71.3164 411.232 71.3164C411.494 71.3164 411.751 71.378 411.984 71.4961L427.571 77.8775C428.323 78.2284 428.989 78.738 429.525 79.371C430.061 80.0041 430.454 80.7458 430.676 81.545L438.011 115.322C438.112 115.606 438.127 115.913 438.053 116.205C437.979 116.497 437.819 116.76 437.595 116.961L435.957 118.061C435.722 118.18 435.463 118.242 435.199 118.242C434.936 118.242 434.676 118.18 434.441 118.061L418.793 111.679C418.042 111.328 417.375 110.819 416.839 110.186C416.303 109.553 415.91 108.811 415.688 108.012L408.353 74.2223C408.231 73.391 408.439 72.8042 408.891 72.5597Z" fill="black"/>
<path d="M427.546 80.0782C428.278 80.7929 428.802 81.6929 429.062 82.6821L436.397 116.447C436.493 116.723 436.509 117.021 436.445 117.306C436.38 117.592 436.236 117.853 436.03 118.061L437.583 117.034C437.807 116.836 437.967 116.575 438.041 116.285C438.115 115.995 438.101 115.689 437.999 115.408L430.664 81.6185C430.421 80.6956 429.941 79.8526 429.27 79.1736L427.546 80.0782Z" fill="black"/>
<path d="M436.336 116.459L429.062 82.6697C428.837 81.8722 428.443 81.1323 427.907 80.4997C427.371 79.8671 426.707 79.3565 425.957 79.0022L410.358 72.5597C408.965 71.9851 408.084 72.7308 408.402 74.1978C409.833 80.8482 414.258 101.349 415.737 107.988C415.959 108.787 416.352 109.528 416.888 110.161C417.424 110.795 418.091 111.304 418.842 111.655L434.429 118.036C435.774 118.672 436.654 117.939 436.336 116.459Z" fill="#EC8305"/>
<path d="M428.206 89.4669L426.849 83.1467C426.809 82.9946 426.735 82.8535 426.633 82.7331C426.532 82.6127 426.406 82.516 426.263 82.4498L423.439 81.3007C423.182 81.1907 423.011 81.3007 423.072 81.6063L424.441 87.9266C424.482 88.0768 424.555 88.2165 424.654 88.3367C424.753 88.4568 424.876 88.5545 425.016 88.6234L427.84 89.7725C428.109 89.8826 428.268 89.7481 428.206 89.4669Z" fill="black"/>
<path d="M426.532 84.577C426.421 84.2013 426.23 83.8539 425.973 83.5586C425.715 83.2632 425.397 83.0268 425.04 82.8655C424.368 82.5843 423.928 82.8655 424.075 83.5745C424.187 83.9511 424.378 84.2994 424.635 84.5966C424.892 84.8937 425.21 85.1329 425.566 85.2982C426.238 85.5672 426.679 85.2493 426.532 84.577Z" fill="black"/>
<path d="M427.18 87.7677C427.072 87.3844 426.883 87.0289 426.626 86.7251C426.368 86.4214 426.049 86.1765 425.688 86.0073C425.016 85.7383 424.576 86.0073 424.723 86.7285C424.834 87.1042 425.024 87.4516 425.282 87.7469C425.539 88.0423 425.857 88.2787 426.214 88.44C426.886 88.7579 427.326 88.4523 427.18 87.7677Z" fill="black"/>
<path d="M409.087 92.4985C407.62 90.2124 407.791 89.9313 408.696 88.831C409.389 87.9701 410.277 87.2861 411.287 86.8356C412.296 86.385 413.399 86.1806 414.503 86.2393C416.434 86.3983 418.402 86.4594 419.392 87.034C420.383 87.6085 419.392 89.6501 416.85 90.0902C412.828 90.7748 412.791 91.8628 412.791 91.8628C414.506 91.5584 416.236 91.3462 417.974 91.2271C419.936 91.4755 421.874 91.8844 423.769 92.4496C425.432 92.8041 425.652 94.9924 422.767 95.5792L425.823 96.2393C427.962 96.6916 428.634 97.8774 426.874 99.1244C426.298 99.5508 425.598 99.7743 424.881 99.7601C424.881 99.7601 427.18 99.8701 427.18 100.64C427.18 102.829 425.749 103.33 421.067 104.43C416.581 105.481 415.554 107.816 416.336 109.503C416.336 109.503 414.613 108.379 413.084 107.193C411.972 106.337 411.031 105.384 411.654 103.599C411.654 103.599 409.124 103.513 409.05 101.936C409.073 100.789 409.34 99.6594 409.833 98.6231C409.399 98.3384 409.055 97.9375 408.839 97.4662C408.622 96.9949 408.543 96.4723 408.61 95.9581C408.659 94.969 409.033 94.0236 409.674 93.2687L409.087 92.4985Z" fill="#FFBDA7"/>
<path d="M422.73 95.567C421.823 95.3206 420.893 95.169 419.955 95.1147C419.006 95.2041 418.078 95.4434 417.204 95.8237C415.47 96.4675 413.793 97.2568 412.192 98.1831C413.999 97.8058 415.77 97.2741 417.485 96.5939C418.295 96.2309 419.139 95.9484 420.004 95.7504C420.859 95.6526 421.825 95.6893 422.73 95.567Z" fill="black"/>
<path d="M424.857 99.7357C423.888 99.398 422.849 99.3097 421.837 99.479C420.842 99.642 419.864 99.8957 418.916 100.237C417.025 100.889 415.209 101.741 413.5 102.78C415.423 102.285 417.321 101.693 419.185 101.007C420.979 100.232 422.903 99.8012 424.857 99.7357Z" fill="black"/>
<path d="M545.504 322.326C545.015 307.546 545.688 298.463 544.526 276.789C544.428 271.239 544.22 265.285 543.854 260.004C542.631 242.217 539.856 236.141 539.6 232.706C539.6 232.706 539.135 205.041 537.974 166.129C537.423 147.792 532.118 142.278 527.876 132.559H476.397C470.761 156.532 470.284 208.818 470.443 233.525C470.529 246.129 475.614 310.211 475.712 311.764C476.067 317.253 475.59 319.429 473.438 321.74C468.927 326.629 462.375 331.189 456.727 335.419C457.546 337.583 464.343 337.497 467.729 335.859C472.134 333.552 476.335 330.873 480.284 327.852C484.93 324.405 492.167 321.434 492.24 316.202C492.266 315.888 492.319 315.577 492.399 315.273C492.485 312.216 498.316 270.652 498.903 260.187C499.416 251.202 498.316 235.933 498.316 235.933L504.123 197.828C504.123 197.828 507.705 220.359 511.323 235.725C514.27 248.244 519.123 269.6 522.436 285.004C525.626 302.754 530.309 315.383 531.115 324.27C531.36 326.385 533.756 347.204 534.783 351.972C535.81 356.739 546.176 356.862 546.837 348.659C547.228 343.206 545.59 324.955 545.504 322.326Z" fill="#FFBDA7"/>
<path d="M447.094 340.945C446.809 341.703 446.733 342.523 446.873 343.321C447.012 344.118 447.363 344.864 447.888 345.48C449.673 347.045 454.942 349.661 461.947 348.83C468.952 347.999 472.766 345.884 475.59 343.561C478.414 341.238 482.363 337.986 485.541 337.326C488.487 336.715 492.986 335.199 493.94 334.307C494.893 333.414 494.807 329.417 494.807 329.417L447.094 340.945Z" fill="black"/>
<path d="M492.534 313.793C492.534 313.793 493.06 313.793 493.231 314.747C493.402 315.7 493.634 319.099 494.074 320.933C494.757 324.145 494.955 327.442 494.661 330.713C494.245 332.779 488.145 334.38 485.065 335.517C481.45 337.04 478.087 339.101 475.089 341.629C470.738 344.752 465.603 346.602 460.26 346.972C453.304 346.972 448.818 345.065 447.449 342.546C445.762 339.441 447.131 337.656 455.175 333.989C456.691 333.304 462.045 330.211 463.867 329.099C465.801 327.921 467.637 326.588 469.356 325.114C470.213 324.342 471.029 323.526 471.801 322.669C472.608 321.923 473.3 321.062 473.854 320.114C473.94 319.894 474.013 319.649 474.087 319.429C474.325 318.823 474.509 318.197 474.637 317.559C474.771 316.898 474.857 315.933 475.492 315.542C476.404 315.176 477.398 315.071 478.365 315.236C479.393 315.362 480.41 315.563 481.409 315.835C482.632 316.116 483.952 316.238 484.637 317.351C485.094 318.245 485.309 319.244 485.26 320.248C485.26 320.713 485.26 321.189 485.26 321.654C485.26 321.85 485.175 322.216 485.456 322.131C485.737 322.045 486.03 321.361 486.128 321.128C486.36 320.603 486.507 320.052 486.752 319.539C487.02 318.938 487.361 318.371 487.766 317.852C488.425 317.088 489.266 316.503 490.211 316.153C491.104 315.762 492.387 315.248 492.387 315.248C492.387 315.248 492.485 314.185 492.534 313.793Z" fill="black"/>
<path d="M453.879 334.71C463.94 335.505 467.045 341.764 467.436 345.615C465.133 346.462 462.712 346.944 460.26 347.045C453.304 347.045 448.536 345.138 447.167 342.62C445.578 339.686 446.703 337.338 453.879 334.71Z" fill="#FAFAFA"/>
<path d="M468.976 334.967C469.09 334.97 469.202 334.936 469.294 334.869C469.395 334.786 469.459 334.666 469.473 334.536C469.486 334.405 469.449 334.275 469.367 334.172C468.204 332.95 466.793 331.991 465.228 331.358C463.664 330.726 461.983 330.435 460.297 330.505C460.232 330.511 460.17 330.53 460.113 330.561C460.056 330.591 460.006 330.633 459.965 330.683C459.924 330.733 459.894 330.79 459.875 330.852C459.856 330.914 459.85 330.978 459.856 331.043C459.863 331.107 459.882 331.169 459.912 331.226C459.943 331.283 459.984 331.333 460.034 331.374C460.084 331.415 460.142 331.446 460.203 331.464C460.265 331.483 460.33 331.489 460.394 331.483C461.917 331.439 463.433 331.712 464.845 332.284C466.257 332.856 467.535 333.716 468.597 334.808C468.645 334.861 468.703 334.903 468.769 334.93C468.834 334.958 468.905 334.97 468.976 334.967Z" fill="#F0F0F0"/>
<path d="M473.341 332.485C473.455 332.489 473.566 332.454 473.659 332.387C473.759 332.304 473.824 332.184 473.837 332.054C473.851 331.924 473.813 331.793 473.732 331.691C472.57 330.466 471.159 329.505 469.595 328.872C468.03 328.239 466.347 327.95 464.661 328.023C464.597 328.029 464.534 328.048 464.477 328.078C464.42 328.109 464.37 328.15 464.329 328.2C464.288 328.25 464.257 328.308 464.239 328.37C464.22 328.432 464.214 328.497 464.221 328.561C464.227 328.625 464.246 328.688 464.276 328.745C464.307 328.802 464.348 328.852 464.398 328.893C464.448 328.934 464.506 328.965 464.568 328.983C464.63 329.002 464.695 329.008 464.759 329.001C466.282 328.957 467.797 329.23 469.209 329.802C470.621 330.375 471.899 331.234 472.962 332.326C473.01 332.379 473.068 332.42 473.134 332.447C473.199 332.475 473.27 332.488 473.341 332.485Z" fill="#F0F0F0"/>
<path d="M477.399 329.649C477.511 329.65 477.62 329.611 477.705 329.539C477.808 329.457 477.874 329.338 477.89 329.208C477.906 329.078 477.87 328.946 477.79 328.842C476.623 327.622 475.21 326.663 473.643 326.031C472.077 325.399 470.395 325.107 468.707 325.175C468.579 325.19 468.461 325.255 468.379 325.355C468.297 325.455 468.257 325.583 468.267 325.713C468.28 325.843 468.343 325.964 468.444 326.049C468.544 326.133 468.674 326.175 468.805 326.165C470.33 326.119 471.848 326.391 473.262 326.964C474.677 327.536 475.956 328.397 477.02 329.49C477.068 329.543 477.127 329.584 477.192 329.611C477.258 329.639 477.328 329.652 477.399 329.649Z" fill="#F0F0F0"/>
<path d="M481.409 326.837C481.521 326.839 481.629 326.8 481.714 326.727C481.766 326.689 481.809 326.64 481.842 326.585C481.875 326.53 481.896 326.469 481.905 326.405C481.914 326.342 481.911 326.277 481.895 326.215C481.879 326.152 481.851 326.094 481.812 326.043C479.905 323.598 475.565 321.935 471.898 322.29C471.834 322.296 471.771 322.315 471.714 322.345C471.657 322.375 471.607 322.417 471.566 322.467C471.525 322.517 471.494 322.574 471.476 322.636C471.457 322.698 471.451 322.763 471.458 322.828C471.47 322.958 471.534 323.079 471.634 323.164C471.735 323.248 471.865 323.29 471.996 323.28C475.296 322.95 479.331 324.502 481.03 326.642C481.075 326.7 481.132 326.748 481.198 326.782C481.263 326.816 481.335 326.835 481.409 326.837Z" fill="#F0F0F0"/>
<path d="M531.531 355.688C531.812 360.443 532.546 363.585 534.233 366.373C535.92 369.16 539.123 370.04 542.326 369.221C545.529 368.402 549.661 366.226 550.602 362.13C551.543 358.035 552.057 355.211 551.323 350.81L531.531 355.688Z" fill="black"/>
<path d="M545.467 321.275C546.8 321.373 546.69 327.754 547.497 334.148C548.328 340.994 550.37 343.83 551.103 349.441C551.934 355.859 550.871 358.72 548.658 362.607C546.445 366.495 538.45 370.284 534.526 364.734C531.336 360.199 531.201 355.175 531.494 348.781C531.656 343.366 531.513 337.946 531.067 332.546C530.798 327.742 529.734 322.901 530.895 322.363C530.981 323.072 531.067 323.964 531.164 324.661C531.209 325.526 531.353 326.384 531.592 327.216C531.727 327.571 532.02 327.95 532.142 327.363C532.207 326.958 532.207 326.545 532.142 326.14C531.947 324.368 532.839 324.221 533.365 324.087C535.386 323.69 537.426 323.4 539.477 323.219C540.492 323.145 543.988 322.986 544.441 323.573C544.744 324.141 544.899 324.776 544.893 325.419C545.003 326.385 545.235 327.094 545.26 326.788C545.296 326.14 545.492 321.678 545.467 321.275Z" fill="black"/>
<path d="M551.47 353.157C551.73 356.596 550.872 360.026 549.025 362.937C546.776 366.813 538.182 370.627 534.257 365.077C532.301 362.314 531.812 359.038 531.519 355.712C533.83 351.397 547.766 349.514 551.47 353.157Z" fill="#FAFAFA"/>
<path d="M534.367 348.708C534.424 348.718 534.482 348.718 534.538 348.708C538.423 347.181 542.653 346.758 546.763 347.485C546.882 347.493 547.001 347.459 547.097 347.388C547.193 347.316 547.26 347.213 547.287 347.096C547.313 346.98 547.297 346.858 547.242 346.752C547.186 346.646 547.094 346.564 546.983 346.519C542.679 345.71 538.233 346.133 534.159 347.742C534.101 347.768 534.048 347.806 534.004 347.853C533.96 347.9 533.927 347.956 533.905 348.016C533.883 348.077 533.874 348.141 533.878 348.205C533.882 348.269 533.898 348.332 533.927 348.39C533.961 348.48 534.021 348.559 534.099 348.615C534.177 348.672 534.271 348.704 534.367 348.708Z" fill="#F0F0F0"/>
<path d="M546.409 342.73C546.519 342.715 546.622 342.663 546.7 342.584C546.778 342.504 546.827 342.4 546.84 342.29C546.853 342.179 546.828 342.067 546.77 341.972C546.711 341.876 546.623 341.803 546.519 341.764C540.565 339.759 533.964 342.778 533.719 342.913C533.604 342.973 533.518 343.076 533.479 343.2C533.44 343.324 533.451 343.458 533.511 343.573C533.571 343.688 533.675 343.775 533.798 343.814C533.922 343.853 534.056 343.841 534.172 343.781C534.172 343.781 540.663 340.823 546.201 342.705C546.268 342.725 546.339 342.733 546.409 342.73Z" fill="#F0F0F0"/>
<path d="M546.201 338.194C546.294 338.184 546.382 338.147 546.456 338.089C546.529 338.03 546.585 337.953 546.616 337.864C546.66 337.743 546.653 337.609 546.598 337.492C546.543 337.375 546.444 337.285 546.323 337.241C539.771 334.894 533.511 338.206 533.279 338.341C533.222 338.372 533.172 338.415 533.133 338.467C533.093 338.518 533.064 338.577 533.048 338.64C533.032 338.703 533.029 338.769 533.04 338.833C533.05 338.897 533.073 338.958 533.108 339.013C533.141 339.069 533.184 339.117 533.236 339.156C533.287 339.195 533.346 339.223 533.408 339.239C533.471 339.255 533.536 339.258 533.6 339.249C533.664 339.239 533.725 339.218 533.78 339.184C533.841 339.184 539.893 335.981 546.005 338.17C546.069 338.187 546.135 338.196 546.201 338.194Z" fill="#F0F0F0"/>
<path d="M545.883 333.757C545.973 333.746 546.059 333.711 546.13 333.655C546.201 333.599 546.255 333.524 546.286 333.439C546.331 333.317 546.326 333.183 546.274 333.064C546.221 332.946 546.125 332.852 546.005 332.803C539.893 330.505 533.12 333.891 532.863 334.026C532.803 334.055 532.749 334.096 532.705 334.147C532.661 334.198 532.628 334.258 532.608 334.322C532.588 334.387 532.581 334.455 532.589 334.522C532.597 334.589 532.618 334.653 532.652 334.712C532.686 334.77 532.731 334.821 532.786 334.861C532.84 334.9 532.902 334.929 532.968 334.943C533.034 334.958 533.102 334.959 533.168 334.946C533.234 334.934 533.297 334.907 533.352 334.869C533.414 334.869 539.954 331.568 545.651 333.647C545.718 333.702 545.797 333.74 545.883 333.757Z" fill="#EBEBEB"/>
<path d="M533.035 132.559C535.749 145.322 539.624 152.498 540.235 184.87C540.847 217.241 540.737 226.288 540.859 230.187C540.981 234.087 543.304 241.068 545.26 260.297C547.216 279.527 545.541 302.424 545.541 302.424C545.541 302.424 543.512 305.517 536.164 306.165C529.38 306.776 526.03 304.234 526.03 304.234C526.03 304.234 516.727 266.801 514.16 255.224C511.592 243.647 504.111 205.579 504.111 205.579L499.673 236.447C499.673 236.447 501.751 247.058 499.673 263.916C497.595 280.774 495.26 297.828 495.26 297.828C495.26 297.828 491.47 300.199 483.549 299.747C480.359 299.632 477.237 298.796 474.417 297.302C474.417 297.302 468.659 247.18 468.659 228.048C468.659 208.916 470.554 161.471 473.39 132.511L533.035 132.559Z" fill="#EC8305"/>
<path d="M478.182 160.493C481.067 168.391 491.544 173.941 496.152 175.017L501.568 205.163L499.673 236.447L504.111 205.579L498.059 168.831C498.059 168.831 485.284 167.914 478.182 160.493ZM521.886 156.643C522.644 159.748 523.328 162.865 524.05 165.982C524.771 169.1 525.48 172.229 526.25 175.371C526.289 172.136 526.077 168.903 525.614 165.701C525.199 162.498 524.6 159.332 523.866 156.178C523.124 153.031 522.201 149.929 521.103 146.887C520.04 143.821 518.65 140.879 516.959 138.11C517.925 141.202 518.781 144.222 519.588 147.364C520.394 150.506 521.164 153.537 521.886 156.643ZM527.314 150.677C528.353 152.547 529.343 154.442 530.345 156.337L533.279 162.119C533.063 159.925 532.566 157.768 531.8 155.701C531.057 153.631 530.149 151.624 529.086 149.699C528.033 147.782 526.848 145.939 525.541 144.185C524.243 142.418 522.778 140.78 521.164 139.295C522.118 141.276 523.169 143.171 524.209 145.053C525.248 146.936 526.311 148.794 527.314 150.677ZM522.509 237.926C520.676 228.024 519.355 218.024 518.059 208.011C516.764 197.999 515.553 187.963 514.16 177.938C514.771 188.036 515.492 198.122 516.495 208.183C517.497 218.244 518.695 228.317 520.517 238.292C522.338 248.268 524.416 258.133 526.495 268.036C528.573 277.938 530.724 287.791 533.035 297.644C531.511 287.644 529.852 277.673 528.059 267.73C526.299 257.779 524.404 247.816 522.509 237.926ZM476.519 204.295L478.17 177.938C476.813 186.642 475.725 195.395 474.942 204.173C474.16 212.95 473.402 221.716 473.377 230.615C473.671 239.478 474.343 248.231 475.064 257.021C475.786 265.811 476.666 274.564 477.693 283.317C477.448 274.507 477.102 265.705 476.654 256.911L475.994 243.708C475.774 239.319 475.505 234.918 475.419 230.566C475.333 226.214 475.602 221.826 475.81 217.437C476.018 213.048 476.287 208.684 476.519 204.295Z" fill="black"/>
<path d="M538.06 86.655C533.167 86.655 528.475 84.7114 525.015 81.2519C521.556 77.7923 519.612 73.1002 519.612 68.2076V22.1565H522.681C526.761 22.1598 530.672 23.7827 533.556 26.6688C536.44 29.5548 538.06 33.4678 538.06 37.5476V86.655Z" fill="black"/>
<path d="M528.964 27.9511C529.215 28.7132 529.383 29.5001 529.465 30.2983C529.526 30.8099 529.526 31.327 529.465 31.8386C529.234 33.0138 528.604 34.0731 527.682 34.8372C526.76 35.6012 525.602 36.0233 524.404 36.0318C523.204 35.9891 522.029 35.6728 520.97 35.1072C519.911 34.5415 518.995 33.7413 518.292 32.7677C516.311 30.2494 513.402 24.3081 517.204 22.1932C518.491 21.5429 519.932 21.2616 521.369 21.3802C522.806 21.4989 524.182 22.013 525.345 22.8656C527.066 24.1282 528.335 25.9113 528.964 27.9511Z" fill="black"/>
<path opacity="0.25" d="M528.964 27.9511C529.215 28.7132 529.383 29.5001 529.465 30.2983C529.526 30.8099 529.526 31.327 529.465 31.8386C529.234 33.0138 528.604 34.0731 527.682 34.8372C526.76 35.6012 525.602 36.0233 524.404 36.0318C523.204 35.9891 522.029 35.6728 520.97 35.1072C519.911 34.5415 518.995 33.7413 518.292 32.7677C516.311 30.2494 513.402 24.3081 517.204 22.1932C518.491 21.5429 519.932 21.2616 521.369 21.3802C522.806 21.4989 524.182 22.013 525.345 22.8656C527.066 24.1282 528.335 25.9113 528.964 27.9511Z" fill="black"/>
<path d="M538.414 154.002C536.421 143.941 533.768 130.934 533.622 126.093C533.292 115.97 535.724 108.305 536.568 102.621C538.414 90.2491 537.057 79.3078 534.123 76.8751C534.123 76.8751 525.737 74.9435 522.998 74.4301C520.81 74.0389 519.135 73.7822 516.275 73.0854C511.442 71.8751 506.43 71.5561 501.483 72.1441C500.15 72.2785 496.825 73.1709 493.011 73.7333L486.605 74.7235C486.605 74.7235 483.879 76.3983 479.771 83.7455C476.629 89.3567 474.991 90.4202 473.659 103.061C471.886 120.591 471.935 143.806 471.275 153.183C484.038 160.933 522.057 163.525 538.414 154.002Z" fill="#091057"/>
<path d="M484.905 48.1834L483.402 47.7188C476.629 44.0514 476.959 35.2495 478.61 30.604C482.277 20.3229 493.402 16.472 500.272 16.0931C513.316 15.384 519.685 18.7459 521.054 25.5062C522.815 25.3595 525.248 26.7287 526.715 28.7703C529.918 33.1346 533.732 48.3301 516.825 64.3936L484.905 48.1834Z" fill="black"/>
<path d="M519.147 59.7848C520.374 59.9017 521.609 59.6878 522.725 59.1653C523.841 58.6429 524.796 57.831 525.492 56.8142C528.145 52.9389 527.937 49.2592 526.397 46.9609C525.691 45.9766 524.645 45.2891 523.462 45.0316C522.278 44.7742 521.042 44.965 519.991 45.5673C517.803 47.0587 517.9 48.2201 517.766 50.0049C517.631 51.7897 513.707 51.6063 512.68 45.2616C511.715 39.3326 511.984 34.1737 509.013 31.5942C504.502 27.7556 498.866 29.0759 497.228 31.5209C496.807 30.8698 496.261 30.3082 495.623 29.8679C494.984 29.4277 494.265 29.1176 493.507 28.9553C492.749 28.7929 491.966 28.7816 491.203 28.9218C490.441 29.0621 489.713 29.3512 489.062 29.7727C486.214 31.4475 483.989 34.9438 483.475 46.2885C483.06 55.4816 484.979 63.2811 488.243 66.0684C490.138 67.6821 492.925 68.7212 497.253 68.7456L497.094 73.8312C497.094 73.8312 491.238 84.8336 491.641 94.7602C491.641 94.7602 494.025 93.1098 504.771 83.7578C511.971 77.5109 516.446 73.7823 516.446 73.7823L516.054 57.242C516.321 57.8877 516.742 58.4577 517.282 58.9013C517.822 59.3449 518.462 59.6484 519.147 59.7848Z" fill="#FFBDA7"/>
<path d="M486.532 40.286L490.835 38.8313C490.754 38.5452 490.616 38.2785 490.429 38.0478C490.242 37.8171 490.01 37.6271 489.746 37.4897C489.483 37.3523 489.194 37.2702 488.898 37.2486C488.601 37.2271 488.304 37.2664 488.023 37.3643C487.456 37.5798 486.99 37.998 486.715 38.5379C486.439 39.0778 486.374 39.7008 486.532 40.286Z" fill="black"/>
<path d="M500.565 39.0637L504.93 41.2275C505.085 40.9502 505.182 40.6441 505.215 40.328C505.248 40.0119 505.215 39.6924 505.12 39.3891C505.025 39.0858 504.87 38.8051 504.662 38.5642C504.455 38.3232 504.201 38.1272 503.915 37.9879C503.325 37.704 502.649 37.6573 502.026 37.8575C501.402 38.0577 500.88 38.4894 500.565 39.0637Z" fill="black"/>
<path d="M503.573 44.9194C503.573 45.287 503.464 45.6462 503.26 45.9518C503.055 46.2574 502.765 46.4955 502.426 46.6362C502.086 46.7768 501.713 46.8136 501.352 46.7419C500.992 46.6702 500.661 46.4932 500.401 46.2334C500.141 45.9735 499.964 45.6424 499.892 45.282C499.82 44.9215 499.857 44.5479 499.998 44.2083C500.139 43.8688 500.377 43.5786 500.682 43.3744C500.988 43.1702 501.347 43.0613 501.715 43.0613C502.207 43.0613 502.68 43.257 503.029 43.6055C503.377 43.954 503.573 44.4266 503.573 44.9194Z" fill="black"/>
<path d="M490.614 44.357C490.614 44.724 490.506 45.0828 490.302 45.3881C490.098 45.6934 489.809 45.9315 489.47 46.0725C489.131 46.2135 488.758 46.251 488.398 46.1803C488.038 46.1096 487.707 45.9338 487.446 45.6752C487.186 45.4165 487.008 45.0866 486.935 44.7269C486.862 44.3673 486.897 43.9941 487.036 43.6543C487.175 43.3146 487.411 43.0235 487.715 42.8179C488.019 42.6123 488.377 42.5012 488.744 42.4988C488.989 42.4972 489.232 42.5441 489.459 42.6367C489.686 42.7294 489.892 42.866 490.066 43.0387C490.24 43.2114 490.378 43.4168 490.472 43.6431C490.566 43.8693 490.614 44.1119 490.614 44.357Z" fill="black"/>
<path d="M507.925 32.3643C508.939 33.6601 509.685 35.7873 509.538 40.4327C509.391 42.925 509.861 45.4152 510.908 47.6821C512.045 50.0292 513.218 51.4351 515.724 51.863C517.246 52.0953 518.802 51.9398 520.247 51.4107C521.14 50.995 523.634 49.2346 523.34 46.6552C522.825 47.2089 522.201 47.65 521.507 47.951C520.978 48.1716 520.416 48.3038 519.844 48.3422C519.002 48.332 518.175 48.1107 517.441 47.6985C516.706 47.2863 516.086 46.6964 515.639 45.9828C513.952 43.4767 514.062 40.1149 513.548 37.2542C512.888 33.5868 512.265 30.5428 508.976 28.6968C505.089 26.5575 498.084 27.4743 497.24 31.4719C498.788 30.2033 500.769 29.587 502.763 29.7536C504.758 29.9202 506.609 30.8565 507.925 32.3643Z" fill="black"/>
<path d="M496.226 42.5723L495.737 53.9536L489.441 52.0343L496.226 42.5723Z" fill="#E3A38D"/>
<path d="M500.969 56.6675C500.51 56.4414 500 56.3402 499.49 56.3741C498.971 56.3846 498.454 56.4501 497.949 56.5697C497.087 56.7532 496.295 57.1771 495.663 57.7921C495.532 57.8957 495.434 58.0362 495.382 58.1956C495.309 58.5134 495.602 58.5012 495.834 58.4034C496.067 58.3056 496.128 58.2445 496.275 58.1711L496.959 57.9022C497.388 57.7136 497.834 57.5662 498.292 57.4621C498.726 57.3651 499.168 57.3037 499.612 57.2787H500.321C500.565 57.2787 500.895 57.2787 501.03 57.0464C501.07 56.9873 501.085 56.9152 501.074 56.8449C501.063 56.7745 501.025 56.7111 500.969 56.6675Z" fill="#B16668"/>
<path d="M497.301 68.7944C501.289 68.5927 505.198 67.6083 508.805 65.8971C511.886 64.3079 512.546 62.3519 514.074 59.4546C514.074 59.4546 513.304 65.5671 510.248 67.5842C505.614 70.6037 497.228 71.2516 497.228 71.2516L497.301 68.7944Z" fill="black"/>
<path d="M534.172 76.8752C542.155 78.2077 544.832 80.6771 548.133 89.3079C551.323 97.6575 558.695 116.459 556.507 129.075C555.174 136.777 535.725 117.437 535.725 117.437L526.434 95.9949C526.434 95.9949 527.448 76.8752 534.172 76.8752Z" fill="#FFBDA7"/>
<path d="M528.781 82.9143C527.492 87.1674 526.713 91.5582 526.458 95.9949L535.749 117.437C535.749 117.437 538.548 120.212 542.094 123.244L555.296 116.41C555.113 113.134 547.583 103.574 542.925 98.6844C539.478 95.0658 532.375 86.7284 528.781 82.9143Z" fill="black"/>
<path d="M531.959 87.4498C529.946 84.9168 528.458 82.0075 527.583 78.8924C526.69 75.2983 523.915 71.9853 522.888 70.6161C521.862 69.247 519.832 67.2421 518.243 65.335C516.654 63.4279 516.177 62.89 513.891 62.4988C510.749 62.022 508.304 61.5575 507.082 61.8998C505.859 62.2421 505.859 63.1223 506.959 64.1736C508.06 65.225 510.285 65.5306 510.981 65.7506C511.678 65.9707 513.219 66.6186 513.219 66.6186L516.128 70.9095C514.128 71.2507 512.155 71.7327 510.223 72.3521C509.245 72.8777 508.426 75.3838 508.842 76.7653C508.358 77.0796 507.988 77.5429 507.79 78.0852C507.591 78.6276 507.575 79.2198 507.742 79.7726C507.742 79.7726 506.642 81.2151 507.4 82.4009C508.253 83.5947 509.237 84.6894 510.334 85.665C511.278 86.0665 512.29 86.2863 513.316 86.3129C514.364 87.913 515.617 89.3681 517.045 90.6405C518.732 91.863 519.844 91.863 521.703 94.4424L531.959 87.4498Z" fill="#FFBDA7"/>
<path d="M513.866 71.3373C512.644 70.8361 512.436 70.0537 511.336 70.4693C510.236 70.885 510.651 72.1442 510.651 72.1442L513.866 71.3373Z" fill="black"/>
<path d="M508.842 76.8753C509.587 76.2545 510.409 75.7327 511.287 75.3227C512.094 74.9315 513.732 74.3325 513.732 74.3325C512.555 74.4382 511.398 74.7099 510.297 75.1393C509.734 75.3609 509.194 75.6351 508.683 75.9584C508.686 76.2309 508.723 76.5019 508.793 76.7653L508.842 76.8753Z" fill="#B16668"/>
<path d="M508.683 78.5377C508.291 78.7015 507.911 78.8935 507.546 79.1122C507.58 79.384 507.645 79.6508 507.742 79.9069C508.647 79.0747 509.7 78.4195 510.847 77.9753C510.106 78.0772 509.38 78.2659 508.683 78.5377Z" fill="#B16668"/>
<path d="M513.72 86.9607C513.035 85.5877 512.216 84.2856 511.275 83.0732C510.976 82.7262 510.555 82.5083 510.099 82.465C509.643 82.4217 509.189 82.5564 508.83 82.8409C508.512 83.3177 510.114 83.2566 510.59 83.4644C511.81 84.4592 512.866 85.6389 513.72 86.9607Z" fill="#B16668"/>
<path d="M517.436 70.7873C517.436 70.7873 516.532 69.5647 514.918 67.4742C513.304 65.3838 513.402 65.7506 511.825 65.4328C510.248 65.1149 507.278 64.6014 506.471 63.6479C506.607 63.8353 506.758 64.0112 506.923 64.1735C507.962 65.2371 510.248 65.5306 510.945 65.7506C511.642 65.9707 513.182 66.6185 513.182 66.6185L516.165 71.0317L517.436 70.7873Z" fill="black"/>
<path d="M531.959 87.4497C537.241 93.8189 551.519 109.137 554.759 115.225C557.033 119.442 557.607 129.247 555.284 132.804C552.962 136.361 546.324 134.87 540.945 130.151C536.299 126.068 532.387 116.264 529.074 109.296C525.761 102.327 521.666 94.4423 521.666 94.4423L531.959 87.4497Z" fill="#FFBDA7"/>
<path d="M528.818 82.3398C528.396 81.4293 528.052 80.4845 527.791 79.5158C527.561 78.5336 527.238 77.5756 526.825 76.6552C525.943 74.8358 524.865 73.1182 523.61 71.533C522.416 69.9064 521.109 68.3663 519.698 66.9242C519.013 66.1785 518.377 65.4206 517.73 64.6382C517.115 63.7977 516.264 63.1594 515.285 62.8044C514.307 62.5434 513.315 62.3393 512.314 62.1932C511.311 62.022 510.321 61.8509 509.319 61.7409C508.812 61.6839 508.301 61.6635 507.791 61.6797C507.252 61.6802 506.727 61.8467 506.287 62.1565C506.17 62.2504 506.078 62.3725 506.02 62.5114C505.962 62.6503 505.941 62.8016 505.957 62.9511C506.002 63.2253 506.111 63.485 506.275 63.7091C506.568 64.144 506.952 64.5109 507.4 64.7849C508.299 65.2771 509.274 65.6159 510.285 65.7873C511.237 66.0263 512.163 66.3622 513.047 66.7897L515.822 70.8484C514.111 71.1907 512.387 71.533 510.688 72.0709C510.464 72.1396 510.247 72.2297 510.04 72.3398C509.833 72.4753 509.655 72.6497 509.514 72.8533C509.253 73.2313 509.044 73.6424 508.891 74.0758C508.569 74.9301 508.493 75.8576 508.671 76.753C508.203 77.0969 507.833 77.5559 507.595 78.0855C507.478 78.3645 507.416 78.6633 507.412 78.9657C507.416 79.2499 507.47 79.5313 507.571 79.797C507.3 80.1361 507.119 80.5371 507.042 80.9639C506.965 81.3907 506.996 81.8299 507.131 82.242C507.588 82.9826 508.125 83.6712 508.732 84.2958L509.637 85.2126C509.946 85.5545 510.325 85.8255 510.749 86.0073C511.573 86.2444 512.423 86.3799 513.28 86.4107C513.83 87.2175 514.417 87.9877 515.04 88.7334C515.656 89.5121 516.371 90.2067 517.167 90.7994C517.962 91.374 518.891 91.7529 519.686 92.3275C520.467 92.9295 521.148 93.6516 521.703 94.4669C521.161 93.642 520.487 92.9111 519.71 92.3031C518.915 91.7041 517.999 91.3129 517.204 90.7261C516.429 90.1289 515.735 89.4345 515.138 88.6601C514.513 87.9013 513.93 87.1096 513.39 86.2884C512.54 86.2555 511.698 86.1159 510.884 85.8728C510.501 85.7035 510.162 85.4484 509.893 85.1271C509.588 84.8337 509.294 84.528 509.001 84.2102C508.412 83.6007 507.891 82.9284 507.448 82.2053C507.323 81.8132 507.299 81.3959 507.378 80.992C507.457 80.5881 507.637 80.2107 507.901 79.8948C507.803 79.6371 507.753 79.3636 507.754 79.088C507.761 78.8148 507.819 78.5453 507.925 78.2934C508.163 77.8013 508.526 77.38 508.977 77.0709V76.9853C508.798 76.1092 508.879 75.2001 509.209 74.3692C509.514 73.5501 509.942 72.6699 510.859 72.4988C512.583 71.9853 514.392 71.6552 516.177 71.2763H516.385L516.263 71.1051L513.365 66.802C512.446 66.3689 511.488 66.0211 510.505 65.7629C509.527 65.5953 508.582 65.2734 507.705 64.8093C507.291 64.5585 506.937 64.2206 506.666 63.8191C506.385 63.4401 506.25 62.9267 506.666 62.5966C507.532 62.1496 508.528 62.024 509.478 62.2421C510.48 62.3399 511.47 62.511 512.461 62.67C513.453 62.8079 514.437 63.0038 515.407 63.2568C516.338 63.6018 517.146 64.2143 517.73 65.0171C518.365 65.7751 519.025 66.5575 519.71 67.291C521.119 68.7256 522.43 70.2531 523.634 71.8631C524.796 73.3633 525.804 74.9771 526.641 76.6797C527.068 77.5899 527.404 78.5399 527.644 79.5158C527.919 80.4869 528.279 81.4319 528.72 82.3398C529.627 84.1386 530.699 85.8492 531.923 87.4498C530.74 85.8408 529.701 84.1308 528.818 82.3398Z" fill="#B16668"/>
</svg>
