<svg width="596" height="566" viewBox="0 0 596 566" fill="none" xmlns="http://www.w3.org/2000/svg">
<mask id="mask0_74_397" style="mask-type:luminance" maskUnits="userSpaceOnUse" x="0" y="0" width="596" height="566">
<path d="M595.88 0H0V565.6H595.88V0Z" fill="white"/>
</mask>
<g mask="url(#mask0_74_397)">
<path d="M46.7613 550.889H46.3334L35.6244 549.875C35.0543 549.824 34.5004 549.657 33.9962 549.386C33.492 549.115 33.0478 548.745 32.6905 548.298C32.3258 547.841 32.0575 547.316 31.902 546.752C31.7465 546.189 31.707 545.6 31.7858 545.022L32.2993 541.061C30.7588 540.583 29.2448 540.024 27.7638 539.386C27.3705 539.252 26.9565 539.19 26.5414 539.202C26.323 539.196 26.1049 539.221 25.8934 539.276L17.5194 542.026C16.966 542.202 16.3884 542.288 15.8079 542.283C14.3942 542.296 13.0185 541.826 11.9082 540.951L6.48033 536.391C5.99487 536.009 5.61372 535.511 5.37223 534.942C5.13074 534.374 5.03673 533.753 5.09891 533.139C5.18035 532.519 5.41534 531.929 5.78254 531.423C6.14975 530.917 6.63753 530.511 7.20159 530.242L13.6686 526.892C13.4168 526.291 13.2044 525.675 13.0329 525.046C12.962 524.864 12.8386 524.706 12.6783 524.594L3.43633 523.102C2.85703 523.012 2.30387 522.799 1.81447 522.476C1.32508 522.153 0.910919 521.729 0.600159 521.232C0.2897 520.72 0.0939616 520.146 0.0264275 519.551C-0.0411065 518.956 0.021167 518.353 0.208961 517.784L1.78597 512.992C2.12188 511.988 2.76067 511.113 3.61446 510.487C4.46825 509.861 5.49508 509.515 6.55368 509.496L16.4803 509.777C16.9897 509.702 17.4635 509.471 17.8372 509.117C18.4935 508.443 19.183 507.803 19.9032 507.198L16.6025 503.628C16.1763 503.188 15.8634 502.651 15.6909 502.063C15.5184 501.475 15.4914 500.855 15.6123 500.254C15.7571 499.644 16.0489 499.079 16.4623 498.608C16.8757 498.137 17.3981 497.775 17.9839 497.552L26.5414 493.97C27.2553 493.68 28.02 493.534 28.7907 493.543C29.9939 493.523 31.1762 493.859 32.1892 494.508L37.9472 498.322C38.3751 498.525 38.8429 498.629 39.3164 498.628H39.5975C41.4924 498.274 43.4361 498.005 45.3921 497.833C45.7264 497.742 46.0222 497.544 46.2356 497.271L48.4239 493.029C48.8926 492.172 49.5792 491.454 50.4141 490.948C51.2491 490.441 52.203 490.164 53.1794 490.144C53.3217 490.132 53.4649 490.132 53.6072 490.144L64.3285 491.146C64.8997 491.199 65.4544 491.366 65.9588 491.64C66.4632 491.913 66.9067 492.286 67.2624 492.736C67.6249 493.191 67.8919 493.715 68.0473 494.276C68.2028 494.836 68.2435 495.423 68.1671 496L67.6414 499.961C69.1853 500.435 70.7033 500.99 72.1891 501.623C72.5799 501.768 72.9952 501.834 73.4115 501.819C73.6297 501.82 73.8472 501.796 74.0595 501.745L82.4335 498.995C82.9907 498.817 83.5722 498.726 84.1572 498.726C85.5703 498.717 86.9447 499.187 88.057 500.058L93.4726 504.618C93.9438 505.008 94.3102 505.509 94.5382 506.077C94.7663 506.644 94.8488 507.26 94.7784 507.867C94.7079 508.475 94.4866 509.055 94.1348 509.555C93.7829 510.055 93.3115 510.459 92.7635 510.731L86.2843 514.08C86.5382 514.682 86.7546 515.298 86.9323 515.926C86.9948 516.113 87.12 516.273 87.2868 516.379L96.5288 517.87C97.1158 517.957 97.6763 518.173 98.1703 518.502C98.6643 518.831 99.0797 519.265 99.3867 519.773C99.6938 520.281 99.885 520.85 99.9468 521.441C100.009 522.031 99.9392 522.627 99.7439 523.188L98.2036 528.004C97.8677 529.009 97.2289 529.884 96.3751 530.51C95.5213 531.136 94.4945 531.482 93.4359 531.501L83.4604 531.33C82.9535 531.413 82.4819 531.642 82.1034 531.99C81.4528 532.669 80.763 533.31 80.0374 533.909L83.3381 537.479C83.7768 537.915 84.098 538.455 84.2718 539.049C84.4455 539.643 84.4663 540.271 84.3321 540.875C84.1979 541.479 83.9131 542.039 83.5042 542.503C83.0953 542.967 82.5756 543.321 81.9934 543.53L73.436 547.112C72.722 547.402 71.9574 547.548 71.1866 547.54C69.9862 547.551 68.8074 547.22 67.7881 546.586L61.9935 542.711C61.5701 542.494 61.0999 542.385 60.6243 542.393C60.5351 542.38 60.4446 542.38 60.3554 542.393C58.4727 542.735 56.5168 543.004 54.5486 543.188C54.2163 543.277 53.9209 543.47 53.705 543.738L51.529 547.98C51.0624 548.843 50.3753 549.567 49.5378 550.078C48.7003 550.589 47.7423 550.869 46.7613 550.889ZM50.5143 510.963C46.6894 510.927 42.894 511.637 39.3408 513.053C35.1477 514.802 32.3848 517.442 32.0059 520.132C31.6391 522.577 33.2284 524.484 34.6587 525.682C37.9349 528.42 43.4728 530.07 49.4752 530.07C53.2971 530.103 57.0886 529.389 60.6365 527.968C64.8419 526.22 67.5925 523.579 67.9715 520.89C68.3504 518.445 66.749 516.538 65.3187 515.352C62.0546 512.601 56.5168 510.963 50.5143 510.963Z" fill="#FFE5CF"/>
<path d="M122.287 565.926H121.92L114.719 565.254C114.224 565.209 113.743 565.064 113.306 564.827C112.868 564.591 112.483 564.268 112.174 563.878C111.866 563.488 111.639 563.039 111.51 562.559C111.38 562.079 111.349 561.577 111.419 561.085L111.675 559.092C110.82 558.799 109.976 558.481 109.231 558.139C109.079 558.099 108.923 558.078 108.766 558.078C108.693 558.065 108.619 558.065 108.546 558.078L102.947 559.911C102.493 560.06 102.018 560.134 101.541 560.131C100.402 560.142 99.2929 559.763 98.3993 559.056L94.7318 555.987C94.3024 555.647 93.9654 555.205 93.7517 554.701C93.5381 554.197 93.4547 553.647 93.5093 553.102C93.5755 552.553 93.778 552.03 94.0983 551.579C94.4185 551.129 94.8465 550.766 95.3431 550.523L99.0105 548.603L98.876 548.175L93.0081 547.222C92.5076 547.143 92.03 546.957 91.608 546.676C91.1861 546.395 90.8296 546.027 90.5631 545.596C90.2989 545.151 90.1317 544.655 90.0727 544.141C90.0137 543.627 90.0642 543.106 90.2208 542.613L91.2599 539.374C91.5403 538.537 92.0729 537.809 92.7843 537.288C93.4958 536.767 94.3513 536.479 95.233 536.464L101.932 536.66C101.932 536.66 102.165 536.525 102.25 536.452C102.507 536.183 102.776 535.926 103.069 535.657L101.407 533.86C101.027 533.47 100.751 532.99 100.604 532.465C100.457 531.941 100.443 531.388 100.565 530.857C100.686 530.325 100.939 529.833 101.3 529.425C101.66 529.016 102.117 528.704 102.629 528.518L108.424 526.073C109.003 525.844 109.622 525.728 110.245 525.731C111.211 525.72 112.158 525.992 112.971 526.513L116.822 529.08C116.977 529.125 117.138 529.149 117.299 529.154C118.619 528.909 119.94 528.726 121.272 528.603L122.702 525.841C123.085 525.133 123.649 524.539 124.336 524.12C125.024 523.701 125.81 523.472 126.614 523.457H126.969L134.181 524.129C134.674 524.175 135.152 524.32 135.587 524.555C136.022 524.791 136.404 525.111 136.712 525.498C137.019 525.891 137.246 526.34 137.378 526.821C137.51 527.301 137.546 527.803 137.482 528.298L137.213 530.29C138.077 530.584 138.892 530.902 139.658 531.244C139.814 531.283 139.974 531.304 140.135 531.305C140.204 531.32 140.274 531.32 140.343 531.305L145.954 529.471C146.408 529.322 146.882 529.248 147.36 529.251C148.496 529.235 149.603 529.616 150.489 530.327L154.157 533.396C154.591 533.737 154.93 534.183 155.142 534.693C155.354 535.202 155.432 535.758 155.368 536.306C155.304 536.854 155.101 537.377 154.778 537.824C154.454 538.271 154.022 538.628 153.521 538.86L149.854 540.779C149.854 540.926 149.952 541.061 149.988 541.207L155.868 542.161C156.369 542.24 156.847 542.426 157.269 542.707C157.69 542.987 158.047 543.356 158.313 543.787C158.582 544.228 158.752 544.722 158.811 545.235C158.87 545.747 158.817 546.267 158.656 546.757L157.617 550.009C157.338 550.844 156.808 551.573 156.099 552.094C155.389 552.615 154.536 552.903 153.656 552.919L146.956 552.723C146.844 552.782 146.738 552.851 146.639 552.931C146.382 553.2 146.101 553.457 145.82 553.726L147.482 555.51C147.862 555.902 148.137 556.383 148.284 556.908C148.431 557.434 148.444 557.987 148.323 558.519C148.202 559.051 147.949 559.544 147.589 559.954C147.229 560.363 146.772 560.677 146.26 560.865L140.465 563.31C139.885 563.539 139.267 563.655 138.644 563.652C137.674 563.663 136.723 563.391 135.905 562.87L132.054 560.303C131.9 560.256 131.739 560.231 131.578 560.229C130.268 560.478 128.946 560.657 127.617 560.767L126.186 563.53C125.806 564.238 125.245 564.833 124.56 565.254C123.875 565.675 123.09 565.907 122.287 565.926ZM124.805 539.068C122.34 539.043 119.894 539.5 117.605 540.413C115.037 541.476 113.363 543.029 113.13 544.557C113.107 545.143 113.232 545.725 113.495 546.249C113.758 546.773 114.15 547.221 114.634 547.552C116.7 549.288 120.221 550.315 124.084 550.315C126.549 550.34 128.994 549.883 131.284 548.97C133.851 547.907 135.514 546.354 135.758 544.826C135.782 544.24 135.657 543.658 135.394 543.134C135.131 542.61 134.739 542.162 134.255 541.831C132.189 540.095 128.656 539.068 124.805 539.068Z" fill="#FFBDA7"/>
<path d="M92.3847 496.941C92.3609 497.177 92.2747 497.402 92.1351 497.593C91.9954 497.784 91.8073 497.935 91.5901 498.029L84.6708 501.611C84.2269 501.848 83.8922 502.248 83.7371 502.727C83.5821 503.206 83.6188 503.726 83.8395 504.178C84.1126 504.789 84.3414 505.418 84.5241 506.061C84.6693 506.592 84.9548 507.074 85.3505 507.457C85.7463 507.84 86.2378 508.109 86.7735 508.237L88.5094 508.518L91.4801 506.99C91.7009 506.892 91.8906 506.735 92.0286 506.537C92.1665 506.339 92.2474 506.106 92.2625 505.865L92.3847 496.941ZM38.4119 500.205C30.3435 503.555 27.4095 509.594 30.918 514.63C32.7922 512.147 35.3371 510.251 38.253 509.166C47.5928 505.278 60.3555 506.476 66.7369 511.843C67.5562 512.515 68.2874 513.287 68.913 514.141C71.3579 510.474 70.8689 506.281 66.847 502.895C60.5022 497.528 47.7517 496.318 38.4119 500.205ZM97.4458 511.379C97.4359 511.557 97.403 511.734 97.348 511.904L95.8077 516.733C95.6255 517.242 95.2954 517.685 94.8598 518.005C94.4242 518.325 93.9029 518.508 93.3627 518.53L83.5828 518.237C83.0528 518.246 82.5295 518.358 82.0425 518.567C81.4282 518.816 80.8678 519.181 80.3921 519.643C79.6508 520.416 78.8584 521.139 78.0205 521.806C77.8226 521.946 77.6567 522.126 77.5341 522.335C77.4114 522.544 77.3348 522.776 77.3093 523.017C77.2839 523.258 77.3102 523.501 77.3864 523.731C77.4627 523.961 77.5872 524.172 77.7515 524.349L81.1012 527.956C81.3694 527.789 81.6517 527.646 81.9447 527.528C82.4232 527.319 82.9384 527.206 83.4606 527.198L93.2405 527.479C93.782 527.462 94.3056 527.281 94.7421 526.96C95.1787 526.639 95.5076 526.194 95.6854 525.682L97.2258 520.853C97.2839 520.675 97.3128 520.49 97.3114 520.303L97.4458 511.379ZM17.8496 499.337C17.8535 499.699 17.9982 500.046 18.2531 500.303L18.742 500.841C19.0413 500.665 19.3166 500.451 19.5611 500.205C20.3025 499.432 21.0948 498.709 21.9327 498.041C22.132 497.904 22.2993 497.726 22.4231 497.518C22.5468 497.31 22.6242 497.078 22.6497 496.838C22.6753 496.598 22.6485 496.354 22.5711 496.125C22.4938 495.896 22.3677 495.687 22.2017 495.511L18.3631 491.354C18.1478 491.149 18.006 490.878 17.9597 490.584L17.8496 499.337ZM81.9447 529.459C81.9393 529.733 81.8478 529.999 81.6833 530.218C81.5188 530.438 81.2895 530.6 81.0278 530.682L72.4704 534.264C71.7524 534.521 70.975 534.563 70.2332 534.386C69.8339 534.319 69.4517 534.173 69.1086 533.958L63.3506 530.107C62.3125 529.495 61.0941 529.262 59.9032 529.447C58.0695 529.777 56.2358 530.034 54.3409 530.205C53.651 530.295 52.9995 530.575 52.4583 531.012C52.0769 531.288 51.7633 531.648 51.5414 532.063L49.3532 536.317C48.9999 536.946 48.4375 537.43 47.7639 537.687C47.3751 537.838 46.9575 537.9 46.5414 537.87L35.8447 536.855C35.5952 536.833 35.3529 536.76 35.1328 536.641C34.9126 536.521 34.7193 536.358 34.5646 536.161C34.41 535.964 34.2974 535.737 34.2337 535.495C34.17 535.253 34.1566 535 34.1943 534.753L34.7444 530.621C34.797 530.095 34.6697 529.567 34.3833 529.122C34.0968 528.678 33.6682 528.345 33.1674 528.176C31.6503 527.729 30.1604 527.194 28.7053 526.574C27.5737 526.137 26.3329 526.069 25.1601 526.379H25.0623L16.7616 529.117C16.0785 529.312 15.3543 529.312 14.6712 529.117C14.2249 529.009 13.8077 528.804 13.4487 528.518L8.09418 523.995C7.94616 523.886 7.82283 523.746 7.73225 523.586C7.64167 523.426 7.58588 523.249 7.56851 523.066L7.45848 531.978C7.47156 532.167 7.52529 532.351 7.616 532.518C7.70671 532.684 7.83228 532.83 7.98415 532.943L13.3998 537.442C14.0546 537.934 14.855 538.192 15.6736 538.176C15.8357 538.2 16.0005 538.2 16.1626 538.176H16.2359C16.3902 538.162 16.5421 538.129 16.6883 538.078L24.9767 535.352H25.0623C26.2352 535.042 27.4759 535.11 28.6075 535.547C30.0632 536.169 31.5529 536.708 33.0696 537.161C33.5011 537.31 33.8822 537.577 34.1698 537.931L34.0843 544.044C34.0853 544.5 34.2562 544.939 34.5636 545.276C34.871 545.612 35.2929 545.823 35.7469 545.865L46.4559 546.88C46.8729 546.908 47.291 546.841 47.6783 546.684C47.9292 546.587 48.1674 546.46 48.3874 546.305C48.505 546.225 48.6155 546.135 48.7175 546.036C48.8085 545.956 48.8904 545.866 48.9619 545.767C49.049 545.671 49.123 545.565 49.182 545.449V545.352L51.3702 541.11C51.4362 540.984 51.5139 540.866 51.6025 540.755C51.6651 540.668 51.7346 540.586 51.8103 540.511C51.952 540.335 52.1164 540.178 52.2993 540.046C52.8362 539.609 53.4836 539.33 54.1697 539.239C56.0402 539.068 57.8372 538.824 59.7321 538.481C60.9269 538.297 62.1487 538.53 63.1917 539.141L68.913 542.956C69.2575 543.156 69.6337 543.297 70.0254 543.371L70.3188 543.432C70.7527 543.494 71.193 543.494 71.6269 543.432C71.7227 543.423 71.8171 543.403 71.9081 543.371C72.0342 543.349 72.1574 543.312 72.2748 543.261L80.9056 539.667C81.2173 539.549 81.48 539.329 81.6513 539.044C81.7479 538.88 81.8025 538.695 81.8102 538.506L81.9447 529.459ZM3.82769 510.107C3.44957 510.054 3.10311 509.867 2.8517 509.58C2.60028 509.293 2.4607 508.924 2.45851 508.542L2.34848 517.516C2.34032 517.909 2.48042 518.29 2.74091 518.585C3.00141 518.879 3.36321 519.065 3.75435 519.105L11.3338 520.327L15.2946 518.286C15.733 518.04 16.0608 517.636 16.2108 517.156C16.3608 516.677 16.3217 516.158 16.1015 515.706C15.8234 515.106 15.5945 514.485 15.4169 513.848C15.2697 513.315 14.984 512.831 14.5889 512.445C14.1938 512.058 13.7034 511.783 13.1675 511.648L3.82769 510.107Z" fill="#024CAA"/>
<path opacity="0.1" d="M92.3847 496.941C92.3609 497.177 92.2747 497.402 92.1351 497.593C91.9954 497.784 91.8073 497.935 91.5901 498.029L84.6708 501.611C84.2269 501.848 83.8922 502.248 83.7371 502.727C83.5821 503.206 83.6188 503.726 83.8395 504.178C84.1126 504.789 84.3414 505.418 84.5241 506.061C84.6693 506.592 84.9548 507.074 85.3505 507.457C85.7463 507.84 86.2378 508.109 86.7735 508.237L88.5094 508.518L91.4801 506.99C91.7009 506.892 91.8906 506.735 92.0286 506.537C92.1665 506.339 92.2474 506.106 92.2625 505.865L92.3847 496.941ZM38.4119 500.205C30.3435 503.555 27.4095 509.594 30.918 514.63C32.7922 512.147 35.3371 510.251 38.253 509.166C47.5928 505.278 60.3555 506.476 66.7369 511.843C67.5562 512.515 68.2874 513.287 68.913 514.141C71.3579 510.474 70.8689 506.281 66.847 502.895C60.5022 497.528 47.7517 496.318 38.4119 500.205ZM97.4458 511.379C97.4359 511.557 97.403 511.734 97.348 511.904L95.8077 516.733C95.6255 517.242 95.2954 517.685 94.8598 518.005C94.4242 518.325 93.9029 518.508 93.3627 518.53L83.5828 518.237C83.0528 518.246 82.5295 518.358 82.0425 518.567C81.4282 518.816 80.8678 519.181 80.3921 519.643C79.6508 520.416 78.8584 521.139 78.0205 521.806C77.8226 521.946 77.6567 522.126 77.5341 522.335C77.4114 522.544 77.3348 522.776 77.3093 523.017C77.2839 523.258 77.3102 523.501 77.3864 523.731C77.4627 523.961 77.5872 524.172 77.7515 524.349L81.1012 527.956C81.3694 527.789 81.6517 527.646 81.9447 527.528C82.4232 527.319 82.9384 527.206 83.4606 527.198L93.2405 527.479C93.782 527.462 94.3056 527.281 94.7421 526.96C95.1787 526.639 95.5076 526.194 95.6854 525.682L97.2258 520.853C97.2839 520.675 97.3128 520.49 97.3114 520.303L97.4458 511.379ZM17.8496 499.337C17.8535 499.699 17.9982 500.046 18.2531 500.303L18.742 500.841C19.0413 500.665 19.3166 500.451 19.5611 500.205C20.3025 499.432 21.0948 498.709 21.9327 498.041C22.132 497.904 22.2993 497.726 22.4231 497.518C22.5468 497.31 22.6242 497.078 22.6497 496.838C22.6753 496.598 22.6485 496.354 22.5711 496.125C22.4938 495.896 22.3677 495.687 22.2017 495.511L18.3631 491.354C18.1478 491.149 18.006 490.878 17.9597 490.584L17.8496 499.337ZM81.9447 529.459C81.9393 529.733 81.8478 529.999 81.6833 530.218C81.5188 530.438 81.2895 530.6 81.0278 530.682L72.4704 534.264C71.7524 534.521 70.975 534.563 70.2332 534.386C69.8339 534.319 69.4517 534.173 69.1086 533.958L63.3506 530.107C62.3125 529.495 61.0941 529.262 59.9032 529.447C58.0695 529.777 56.2358 530.034 54.3409 530.205C53.651 530.295 52.9995 530.575 52.4583 531.012C52.0769 531.288 51.7633 531.648 51.5414 532.063L49.3532 536.317C48.9999 536.946 48.4375 537.43 47.7639 537.687C47.3751 537.838 46.9575 537.9 46.5414 537.87L35.8447 536.855C35.5952 536.833 35.3529 536.76 35.1328 536.641C34.9126 536.521 34.7193 536.358 34.5646 536.161C34.41 535.964 34.2974 535.737 34.2337 535.495C34.17 535.253 34.1566 535 34.1943 534.753L34.7444 530.621C34.797 530.095 34.6697 529.567 34.3833 529.122C34.0968 528.678 33.6682 528.345 33.1674 528.176C31.6503 527.729 30.1604 527.194 28.7053 526.574C27.5737 526.137 26.3329 526.069 25.1601 526.379H25.0623L16.7616 529.117C16.0785 529.312 15.3543 529.312 14.6712 529.117C14.2249 529.009 13.8077 528.804 13.4487 528.518L8.09418 523.995C7.94616 523.886 7.82283 523.746 7.73225 523.586C7.64167 523.426 7.58588 523.249 7.56851 523.066L7.45848 531.978C7.47156 532.167 7.52529 532.351 7.616 532.518C7.70671 532.684 7.83228 532.83 7.98415 532.943L13.3998 537.442C14.0546 537.934 14.855 538.192 15.6736 538.176C15.8357 538.2 16.0005 538.2 16.1626 538.176H16.2359C16.3902 538.162 16.5421 538.129 16.6883 538.078L24.9767 535.352H25.0623C26.2352 535.042 27.4759 535.11 28.6075 535.547C30.0632 536.169 31.5529 536.708 33.0696 537.161C33.5011 537.31 33.8822 537.577 34.1698 537.931L34.0843 544.044C34.0853 544.5 34.2562 544.939 34.5636 545.276C34.871 545.612 35.2929 545.823 35.7469 545.865L46.4559 546.88C46.8729 546.908 47.291 546.841 47.6783 546.684C47.9292 546.587 48.1674 546.46 48.3874 546.305C48.505 546.225 48.6155 546.135 48.7175 546.036C48.8085 545.956 48.8904 545.866 48.9619 545.767C49.049 545.671 49.123 545.565 49.182 545.449V545.352L51.3702 541.11C51.4362 540.984 51.5139 540.866 51.6025 540.755C51.6651 540.668 51.7346 540.586 51.8103 540.511C51.952 540.335 52.1164 540.178 52.2993 540.046C52.8362 539.609 53.4836 539.33 54.1697 539.239C56.0402 539.068 57.8372 538.824 59.7321 538.481C60.9269 538.297 62.1487 538.53 63.1917 539.141L68.913 542.956C69.2575 543.156 69.6337 543.297 70.0254 543.371L70.3188 543.432C70.7527 543.494 71.193 543.494 71.6269 543.432C71.7227 543.423 71.8171 543.403 71.9081 543.371C72.0342 543.349 72.1574 543.312 72.2748 543.261L80.9056 539.667C81.2173 539.549 81.48 539.329 81.6513 539.044C81.7479 538.88 81.8025 538.695 81.8102 538.506L81.9447 529.459ZM3.82769 510.107C3.44957 510.054 3.10311 509.867 2.8517 509.58C2.60028 509.293 2.4607 508.924 2.45851 508.542L2.34848 517.516C2.34032 517.909 2.48042 518.29 2.74091 518.585C3.00141 518.879 3.36321 519.065 3.75435 519.105L11.3338 520.327L15.2946 518.286C15.733 518.04 16.0608 517.636 16.2108 517.156C16.3608 516.677 16.3217 516.158 16.1015 515.706C15.8234 515.106 15.5945 514.485 15.4169 513.848C15.2697 513.315 14.984 512.831 14.5889 512.445C14.1938 512.058 13.7034 511.783 13.1675 511.648L3.82769 510.107Z" fill="black"/>
<path d="M25.0744 526.44L16.7615 529.117C16.0784 529.312 15.3542 529.312 14.671 529.117L14.5732 538.053C14.9201 538.149 15.2772 538.202 15.6368 538.212C15.7989 538.237 15.9637 538.237 16.1258 538.212H16.1992C16.3534 538.199 16.5053 538.166 16.6515 538.114L24.9399 535.388L25.0744 526.44Z" fill="#FFBDA7"/>
<path d="M52.4582 531C52.0768 531.276 51.7632 531.636 51.5413 532.051L49.3531 536.305C48.9998 536.933 48.4374 537.418 47.7638 537.674L47.6538 546.611C47.9047 546.514 48.1428 546.387 48.3629 546.232C48.4805 546.152 48.5909 546.062 48.6929 545.963C48.7839 545.882 48.8659 545.792 48.9374 545.694C49.0245 545.598 49.0985 545.491 49.1575 545.376V545.278L51.3457 541.036C51.4116 540.911 51.4894 540.792 51.578 540.682C51.6406 540.595 51.7101 540.513 51.7858 540.437C51.9325 540.278 52.1037 540.144 52.2626 539.997L52.4582 531Z" fill="#FFBDA7"/>
<path d="M92.3846 496.941C92.3733 497.18 92.2919 497.411 92.1507 497.604C92.0094 497.798 91.8144 497.946 91.5899 498.029L84.6584 501.611C84.2165 501.85 83.885 502.252 83.7344 502.731C83.5837 503.21 83.6258 503.729 83.8516 504.178C84.1242 504.787 84.349 505.417 84.524 506.061C84.6752 506.592 84.964 507.074 85.361 507.459C85.7581 507.843 86.2495 508.115 86.7856 508.249L88.5093 508.518L91.4799 506.99C91.703 506.894 91.8953 506.738 92.0355 506.539C92.1757 506.341 92.2584 506.108 92.2745 505.865L92.3846 496.941Z" fill="#FFBDA7"/>
<path d="M97.446 511.379C97.436 511.557 97.4031 511.734 97.3481 511.904L95.8078 516.733C95.6256 517.242 95.2956 517.685 94.8599 518.005C94.4243 518.325 93.903 518.508 93.3628 518.53L83.5829 518.237C83.0529 518.246 82.5297 518.358 82.0426 518.567L81.957 527.528C82.4355 527.319 82.9508 527.206 83.4729 527.198L93.2528 527.479C93.7943 527.462 94.3179 527.281 94.7545 526.96C95.191 526.639 95.5199 526.194 95.6978 525.682L97.2381 520.853C97.2963 520.675 97.3252 520.49 97.3237 520.303L97.446 511.379Z" fill="#FFBDA7"/>
<path d="M81.9689 529.459C81.9635 529.733 81.8721 529.999 81.7076 530.218C81.543 530.438 81.3137 530.6 81.0521 530.682L72.4946 534.264C71.7767 534.521 70.9993 534.563 70.2575 534.386L70.1353 543.335L70.4286 543.396C70.8625 543.457 71.3028 543.457 71.7367 543.396C71.8325 543.386 71.9269 543.366 72.0179 543.335C72.1441 543.313 72.2672 543.276 72.3846 543.225L81.0154 539.63C81.3271 539.513 81.5899 539.293 81.7611 539.007C81.8577 538.843 81.9123 538.659 81.92 538.469L81.9689 529.459Z" fill="#FFBDA7"/>
<path d="M83.1548 490.743L74.7685 493.494C73.5956 493.803 72.3551 493.734 71.2233 493.298C69.7719 492.676 68.2862 492.137 66.7734 491.684C66.2702 491.519 65.8389 491.186 65.5518 490.741C65.2647 490.296 65.1392 489.766 65.1964 489.239L65.7343 485.095C65.7721 484.849 65.7591 484.597 65.6961 484.355C65.6332 484.114 65.5216 483.888 65.3682 483.691C65.2149 483.494 65.023 483.331 64.8042 483.211C64.5855 483.09 64.3446 483.016 64.0962 482.992L53.4361 482.002C52.8738 481.981 52.3164 482.114 51.8248 482.388C51.3332 482.662 50.9264 483.065 50.6488 483.555L48.4606 487.797C48.164 488.299 47.7584 488.727 47.2738 489.051C46.7892 489.375 46.2381 489.585 45.6611 489.667C43.7907 489.838 41.9936 490.083 40.0988 490.437C38.9026 490.613 37.6824 490.376 36.6391 489.765L30.9179 485.951C30.4137 485.658 29.8515 485.479 29.2708 485.426C28.69 485.373 28.1048 485.448 27.556 485.645L18.9986 489.227C18.7762 489.28 18.573 489.393 18.412 489.556C18.251 489.718 18.1387 489.922 18.0878 490.145C18.0369 490.367 18.0494 490.6 18.124 490.816C18.1985 491.032 18.3321 491.223 18.5096 491.367L22.3482 495.511C22.5147 495.689 22.641 495.9 22.7185 496.131C22.796 496.362 22.8229 496.607 22.7974 496.85C22.7719 497.092 22.6946 497.326 22.5707 497.536C22.4468 497.746 22.2792 497.926 22.0793 498.066C21.2444 498.728 20.4523 499.443 19.7077 500.205C18.8621 501.056 17.7275 501.558 16.5292 501.611L6.74928 501.33C6.20866 501.35 5.68659 501.532 5.25068 501.853C4.81476 502.173 4.48507 502.617 4.3043 503.127L2.76397 507.956C2.67908 508.181 2.64609 508.423 2.66744 508.662C2.68879 508.902 2.76394 509.134 2.88729 509.341C3.01064 509.548 3.17902 509.724 3.3799 509.857C3.58079 509.989 3.809 510.075 4.04758 510.107L13.3507 511.611C13.8862 511.743 14.3768 512.015 14.7722 512.4C15.1675 512.785 15.4533 513.268 15.6001 513.799C15.7754 514.441 16.0044 515.066 16.2847 515.67C16.5101 516.122 16.5507 516.644 16.3978 517.125C16.2449 517.607 15.9106 518.01 15.4656 518.249L8.54633 521.831C8.34784 521.914 8.17465 522.047 8.04423 522.218C7.91381 522.389 7.83077 522.591 7.80349 522.804C7.77622 523.018 7.80566 523.234 7.88887 523.433C7.97207 523.631 8.10608 523.804 8.27739 523.934L13.7052 528.493C14.168 528.84 14.7036 529.076 15.2714 529.184C15.8391 529.292 16.4239 529.269 16.9815 529.117L25.3555 526.366C26.5284 526.056 27.7691 526.125 28.9008 526.562C30.3556 527.186 31.8455 527.725 33.3628 528.176C33.8661 528.341 34.2974 528.674 34.5845 529.119C34.8716 529.564 34.997 530.094 34.9399 530.621L34.3897 534.765C34.3538 535.012 34.3686 535.263 34.4331 535.504C34.4977 535.744 34.6106 535.97 34.7651 536.165C34.9195 536.361 35.1123 536.523 35.3315 536.642C35.5507 536.76 35.7918 536.833 36.0401 536.855L46.7491 537.87C47.3114 537.892 47.8688 537.758 48.3604 537.484C48.852 537.211 49.2588 536.807 49.5364 536.317L51.7246 532.075C52.0191 531.572 52.4242 531.142 52.9091 530.818C53.3941 530.494 53.9463 530.284 54.5241 530.205C56.3945 530.034 58.2527 529.789 60.0864 529.435C61.2771 529.261 62.4915 529.494 63.5339 530.095L69.2673 533.921C69.7693 534.214 70.3294 534.393 70.9082 534.446C71.4869 534.499 72.0702 534.424 72.6169 534.227L81.2477 530.645C81.4701 530.593 81.6733 530.479 81.8343 530.317C81.9953 530.154 82.1076 529.95 82.1585 529.728C82.2094 529.505 82.1969 529.272 82.1224 529.056C82.0478 528.84 81.9142 528.65 81.7367 528.506L77.8859 524.361C77.7212 524.183 77.5966 523.971 77.5203 523.74C77.4439 523.509 77.4176 523.265 77.443 523.023C77.4684 522.782 77.5451 522.548 77.6678 522.338C77.7906 522.128 77.9566 521.947 78.1548 521.806C78.9285 521.136 79.6556 520.413 80.3308 519.643C81.1855 518.798 82.3213 518.297 83.5215 518.237L93.3014 518.53C93.8412 518.507 94.3617 518.323 94.797 518.003C95.2324 517.683 95.5628 517.241 95.7464 516.733L97.2867 511.904C97.3738 511.684 97.4103 511.446 97.3936 511.209C97.3769 510.973 97.3074 510.743 97.1901 510.536C97.0729 510.33 96.9109 510.152 96.716 510.017C96.5212 509.881 96.2985 509.791 96.0643 509.753L86.7489 508.237C86.2134 508.105 85.7228 507.832 85.3274 507.448C84.9321 507.063 84.6463 506.58 84.4995 506.049C84.319 505.41 84.0943 504.785 83.8271 504.178C83.6013 503.729 83.5593 503.21 83.7099 502.731C83.8606 502.252 84.192 501.85 84.634 501.611L91.5655 498.029C91.7659 497.946 91.9406 497.812 92.0718 497.639C92.2029 497.466 92.2859 497.262 92.312 497.047C92.3381 496.831 92.3065 496.613 92.2205 496.414C92.1344 496.215 91.997 496.043 91.8222 495.914L86.4433 491.367C85.9782 491.02 85.4405 490.784 84.8708 490.676C84.3011 490.568 83.7143 490.591 83.1548 490.743ZM66.8835 502.895C73.2771 508.261 70.8688 515.755 61.529 519.643C52.1892 523.53 39.4264 522.332 33.045 516.965C26.6636 511.599 29.0475 504.093 38.3995 500.205C47.7515 496.318 60.5021 497.528 66.8835 502.895Z" fill="#E0800C"/>
<path d="M53.1795 483.041H53.2895L63.9985 484.056C64.1004 484.066 64.1994 484.095 64.2896 484.144C64.3799 484.192 64.4596 484.258 64.5242 484.337C64.5972 484.424 64.6503 484.526 64.6799 484.636C64.7094 484.746 64.7147 484.861 64.6953 484.973L64.1574 489.105C64.0692 489.877 64.2512 490.656 64.6724 491.309C65.0937 491.962 65.7282 492.449 66.4679 492.687C67.9423 493.133 69.3911 493.659 70.8078 494.264C71.6195 494.59 72.4879 494.752 73.3628 494.741C73.9505 494.749 74.536 494.666 75.0987 494.496L83.4727 491.745C83.6779 491.678 83.8926 491.645 84.1084 491.648C84.6993 491.638 85.2777 491.818 85.7588 492.161L91.1744 496.721C91.2404 496.77 91.2947 496.832 91.3333 496.904C91.3333 496.904 91.3333 497.014 91.101 497.1L84.1818 500.682C83.4978 501.042 82.9804 501.654 82.7386 502.388C82.4969 503.123 82.5497 503.922 82.8859 504.618C83.1392 505.177 83.3517 505.753 83.5216 506.342C83.7218 507.066 84.1155 507.722 84.6605 508.239C85.2054 508.756 85.881 509.114 86.6145 509.276L95.9177 510.78C96.0013 510.79 96.0817 510.818 96.1535 510.863C96.2252 510.907 96.2865 510.966 96.3333 511.036C96.3763 511.122 96.3987 511.216 96.3987 511.311C96.3987 511.407 96.3763 511.501 96.3333 511.586L94.793 516.415C94.6749 516.714 94.4742 516.972 94.2144 517.161C93.9545 517.349 93.6463 517.46 93.326 517.479L83.5461 517.198H83.4483C81.9868 517.279 80.6068 517.897 79.573 518.934C78.8656 519.668 78.11 520.354 77.3114 520.987C76.9922 521.231 76.7274 521.538 76.5337 521.89C76.34 522.241 76.2219 522.629 76.1867 523.029C76.1635 523.401 76.2165 523.774 76.3427 524.125C76.4688 524.477 76.6653 524.798 76.9202 525.071L80.771 529.227C80.831 529.243 80.8821 529.283 80.913 529.336C80.944 529.39 80.9523 529.454 80.9361 529.514C80.9199 529.574 80.8805 529.625 80.8266 529.656C80.7727 529.687 80.7088 529.696 80.6488 529.679L72.018 533.261C71.7284 533.367 71.4215 533.416 71.1134 533.408C70.5999 533.424 70.092 533.297 69.6464 533.041L63.9251 529.227C62.925 528.627 61.7787 528.314 60.6122 528.322C60.3047 528.324 59.9979 528.353 59.6953 528.408C57.9227 528.738 56.089 528.995 54.2308 529.154C53.4728 529.252 52.7476 529.524 52.1116 529.948C51.4755 530.372 50.9458 530.937 50.5634 531.599L48.3873 535.853C48.2113 536.14 47.968 536.381 47.6783 536.553C47.3887 536.726 47.0614 536.825 46.7247 536.843H46.6269L35.9179 535.841C35.7089 535.82 35.5159 535.72 35.3801 535.559C35.2452 535.377 35.1841 535.15 35.2089 534.924L35.759 530.78C35.8419 530.01 35.6575 529.235 35.2369 528.585C34.8162 527.935 34.1847 527.449 33.4485 527.21C31.9701 526.764 30.5172 526.238 29.0965 525.633C28.2847 525.307 27.4163 525.144 26.5415 525.156C25.9538 525.15 25.3686 525.232 24.8055 525.401L16.4315 528.151C16.2298 528.214 16.0191 528.243 15.808 528.237C15.2217 528.227 14.6548 528.025 14.1943 527.662L8.76649 523.115C8.70819 523.058 8.65501 522.997 8.60757 522.931C8.66559 522.846 8.74594 522.778 8.83984 522.736L15.7591 519.154C16.4454 518.796 16.9648 518.184 17.2068 517.449C17.4488 516.714 17.3944 515.913 17.055 515.217C16.8003 514.661 16.5918 514.084 16.4315 513.494C16.2308 512.769 15.8372 512.112 15.2925 511.593C14.7478 511.074 14.0725 510.713 13.3386 510.547L4.02324 509.031C3.94016 509.024 3.85976 508.998 3.78788 508.956C3.71599 508.914 3.6544 508.856 3.60759 508.787C3.57026 508.7 3.551 508.606 3.551 508.512C3.551 508.417 3.57026 508.324 3.60759 508.237L5.14793 503.408C5.26595 503.11 5.46667 502.851 5.72651 502.663C5.98636 502.474 6.29455 502.364 6.61491 502.344L16.3948 502.626H16.4926C17.9527 502.549 19.3329 501.935 20.3679 500.902C21.0767 500.165 21.8365 499.479 22.6417 498.848C22.9592 498.604 23.2221 498.297 23.4137 497.945C23.6053 497.593 23.7213 497.206 23.7542 496.807C23.7835 496.434 23.7332 496.059 23.6068 495.707C23.4803 495.355 23.2806 495.034 23.0207 494.765L19.2065 490.645C19.0965 490.523 19.0598 490.425 19.0721 490.389C19.0843 490.352 19.1576 490.266 19.3288 490.193L27.8862 486.611C28.1793 486.502 28.4902 486.448 28.8031 486.452C29.3138 486.441 29.8175 486.572 30.2578 486.831L35.9913 490.645C36.9869 491.246 38.1293 491.559 39.292 491.55C39.6036 491.548 39.9144 491.519 40.2211 491.464C41.9937 491.134 43.8274 490.878 45.6856 490.706C46.4457 490.614 47.1735 490.345 47.8105 489.921C48.4475 489.496 48.9759 488.928 49.3531 488.261L51.5413 484.019C51.7162 483.733 51.9576 483.494 52.245 483.322C52.5324 483.149 52.8572 483.049 53.1917 483.029M49.4509 522.968C53.7447 523.009 58.0052 522.211 61.9936 520.621C67.4092 518.359 70.8689 514.802 71.4801 510.841C71.9569 507.699 70.5877 504.594 67.6171 502.1C63.6806 498.787 57.4582 496.892 50.5022 496.892C46.2197 496.857 41.9715 497.658 37.9962 499.252C32.5683 501.513 29.1209 505.071 28.5097 509.031C28.0207 512.186 29.3899 515.291 32.3605 517.785C36.3091 521.085 42.5194 522.992 49.4753 522.992M53.2162 482.002C52.6884 482.021 52.1742 482.175 51.7227 482.449C51.2712 482.723 50.8973 483.108 50.6367 483.567L48.4484 487.809C48.1519 488.311 47.7463 488.739 47.2617 489.063C46.7771 489.387 46.2259 489.597 45.6489 489.679C43.7785 489.851 41.9815 490.095 40.0866 490.45C39.8442 490.49 39.5989 490.51 39.3531 490.511C38.3945 490.52 37.4516 490.266 36.627 489.777L30.9057 485.963C30.2886 485.597 29.5815 485.411 28.8642 485.425C28.4132 485.416 27.9648 485.495 27.5439 485.658L18.9865 489.239C18.7641 489.292 18.5609 489.406 18.3999 489.568C18.2389 489.73 18.1266 489.934 18.0757 490.157C18.0247 490.38 18.0373 490.612 18.1118 490.828C18.1864 491.044 18.32 491.235 18.4975 491.379L22.3361 495.523C22.5026 495.701 22.6289 495.913 22.7064 496.144C22.7839 496.375 22.8108 496.62 22.7853 496.862C22.7598 497.104 22.6824 497.338 22.5585 497.548C22.4346 497.758 22.2671 497.939 22.0672 498.078C21.2323 498.74 20.4402 499.455 19.6955 500.217C18.8613 501.05 17.7543 501.554 16.5782 501.635H16.5171L6.73716 501.354H6.67604C6.13586 501.376 5.61455 501.559 5.17893 501.879C4.74332 502.199 4.41326 502.642 4.23106 503.151L2.69072 507.98C2.60584 508.205 2.57285 508.447 2.5942 508.687C2.61555 508.927 2.6907 509.158 2.81405 509.365C2.9374 509.572 3.10577 509.748 3.30666 509.881C3.50754 510.014 3.73576 510.099 3.97434 510.132L13.2775 511.635C13.813 511.767 14.3036 512.04 14.6989 512.424C15.0943 512.809 15.38 513.292 15.5268 513.824C15.7022 514.465 15.9312 515.091 16.2114 515.694C16.4369 516.146 16.4775 516.668 16.3246 517.15C16.1717 517.631 15.8373 518.034 15.3924 518.273L8.47309 521.855C8.2746 521.938 8.10141 522.071 7.97099 522.242C7.84057 522.413 7.75753 522.616 7.73025 522.829C7.70297 523.042 7.73242 523.259 7.81562 523.457C7.89882 523.655 8.03284 523.828 8.20415 523.958L13.632 528.518C14.3009 529.021 15.1179 529.288 15.9547 529.276C16.2777 529.283 16.5997 529.237 16.9083 529.141L25.2823 526.391C25.738 526.253 26.2122 526.187 26.6882 526.195C27.4202 526.183 28.1474 526.316 28.8275 526.586C30.2824 527.21 31.7722 527.749 33.2896 528.2C33.7929 528.365 34.2242 528.698 34.5113 529.143C34.7984 529.588 34.9238 530.119 34.8666 530.645L34.3165 534.789C34.2806 535.036 34.2954 535.287 34.3599 535.528C34.4244 535.769 34.5374 535.994 34.6918 536.19C34.8463 536.385 35.039 536.547 35.2582 536.666C35.4775 536.785 35.7186 536.857 35.9668 536.88L46.6758 537.894H46.8714C47.4005 537.874 47.9158 537.72 48.3691 537.446C48.8223 537.173 49.1988 536.788 49.4631 536.33L51.6514 532.088C51.9459 531.584 52.3509 531.154 52.8359 530.83C53.3208 530.506 53.8731 530.297 54.4509 530.217C56.3213 530.046 58.1794 529.802 60.0132 529.447C60.2515 529.407 60.4928 529.386 60.7345 529.386C61.6914 529.377 62.6331 529.626 63.4606 530.107L69.1941 533.934C69.8099 534.303 70.5179 534.489 71.2356 534.471C71.6826 534.479 72.1268 534.4 72.5437 534.239L81.1744 530.657C81.3968 530.605 81.6 530.491 81.761 530.329C81.922 530.167 82.0344 529.963 82.0853 529.74C82.1362 529.517 82.1237 529.285 82.0491 529.069C81.9745 528.853 81.8409 528.662 81.6634 528.518L77.8126 524.374C77.648 524.195 77.5234 523.983 77.447 523.752C77.3706 523.522 77.3443 523.277 77.3698 523.035C77.3952 522.794 77.4718 522.56 77.5946 522.35C77.7173 522.141 77.8833 521.959 78.0816 521.819C78.8809 521.146 79.6325 520.419 80.3309 519.643C81.1719 518.821 82.276 518.323 83.4483 518.237H83.5216L93.3015 518.53C93.8417 518.508 94.363 518.325 94.7986 518.005C95.2342 517.685 95.5643 517.242 95.7465 516.733L97.2868 511.904C97.3739 511.684 97.4104 511.446 97.3937 511.209C97.377 510.973 97.3075 510.742 97.1902 510.536C97.073 510.33 96.911 510.152 96.7161 510.017C96.5213 509.881 96.2986 509.791 96.0644 509.753L86.749 508.237C86.2135 508.105 85.7229 507.832 85.3275 507.448C84.9322 507.063 84.6464 506.58 84.4996 506.049C84.3191 505.41 84.0944 504.785 83.8272 504.178C83.6014 503.729 83.5594 503.21 83.71 502.731C83.8607 502.252 84.1921 501.85 84.6341 501.611L91.5656 498.029C91.766 497.946 91.9407 497.812 92.0719 497.639C92.203 497.466 92.286 497.262 92.3121 497.047C92.3382 496.831 92.3066 496.613 92.2206 496.414C92.1345 496.215 91.997 496.043 91.8223 495.914L86.4434 491.367C85.7785 490.856 84.9588 490.588 84.1206 490.609C83.7976 490.601 83.4754 490.646 83.1671 490.743L74.7808 493.494C74.3253 493.632 73.8509 493.698 73.375 493.689C72.6431 493.701 71.9161 493.568 71.2356 493.298C69.7842 492.676 68.2985 492.137 66.7858 491.684C66.2825 491.519 65.8512 491.186 65.5641 490.741C65.277 490.296 65.1516 489.766 65.2088 489.239L65.7467 485.095C65.7844 484.848 65.7714 484.597 65.7084 484.355C65.6455 484.114 65.5339 483.888 65.3806 483.691C65.2272 483.494 65.0353 483.331 64.8166 483.211C64.5978 483.09 64.3569 483.016 64.1085 482.992L53.4362 482.002H53.2162ZM49.4753 521.941C43.1184 521.941 36.9448 520.217 33.094 516.978C26.7004 511.611 29.0965 504.105 38.4485 500.217C42.2981 498.685 46.408 497.913 50.5511 497.944C56.8958 497.944 63.0694 499.667 66.9325 502.907C73.3261 508.274 70.9178 515.767 61.578 519.655C57.7302 521.195 53.6196 521.971 49.4753 521.941Z" fill="#E0800C"/>
<path d="M152.959 528.982C152.947 529.141 152.892 529.294 152.799 529.423C152.706 529.552 152.58 529.654 152.433 529.716L147.776 532.161C147.477 532.32 147.252 532.588 147.147 532.91C147.043 533.231 147.066 533.58 147.213 533.885C147.398 534.28 147.553 534.689 147.678 535.107C147.778 535.464 147.971 535.788 148.237 536.046C148.504 536.304 148.834 536.486 149.194 536.574L150.355 536.757L152.36 535.731C152.508 535.664 152.636 535.558 152.728 535.425C152.821 535.291 152.875 535.135 152.886 534.973L152.959 528.982ZM116.663 531.183C111.248 533.432 109.328 537.491 111.627 540.877C112.901 539.21 114.622 537.939 116.59 537.21C122.874 534.594 131.455 535.401 135.746 539.007C136.298 539.461 136.791 539.983 137.213 540.559C138.9 538.114 138.521 535.266 135.82 532.992C131.529 529.386 122.947 528.567 116.663 531.183ZM156.382 538.665C156.372 538.78 156.352 538.895 156.321 539.007L155.282 542.259C155.159 542.608 154.933 542.911 154.634 543.129C154.335 543.348 153.977 543.47 153.607 543.481L147.006 543.286C146.651 543.284 146.301 543.359 145.979 543.506C145.564 543.672 145.187 543.916 144.866 544.227C144.367 544.749 143.832 545.235 143.265 545.682C143.015 545.885 142.855 546.179 142.821 546.5C142.786 546.82 142.88 547.141 143.081 547.393L145.343 549.838C145.517 549.716 145.706 549.618 145.905 549.545C146.224 549.4 146.57 549.325 146.92 549.325L153.521 549.508C153.892 549.5 154.252 549.379 154.551 549.161C154.851 548.942 155.076 548.636 155.196 548.286L156.223 545.046C156.247 544.925 156.247 544.8 156.223 544.679L156.382 538.665ZM102.861 530.559C102.871 530.801 102.967 531.03 103.13 531.207L103.461 531.562C103.667 531.446 103.856 531.302 104.023 531.134C104.515 530.613 105.046 530.131 105.612 529.691C105.746 529.599 105.859 529.478 105.943 529.337C106.026 529.197 106.078 529.04 106.096 528.878C106.113 528.715 106.095 528.551 106.043 528.396C105.992 528.241 105.907 528.099 105.795 527.98L103.204 525.217C103.061 525.075 102.967 524.891 102.935 524.692L102.861 530.559ZM145.954 550.889C145.945 551.068 145.882 551.24 145.773 551.382C145.664 551.524 145.514 551.63 145.343 551.684L139.548 554.129C139.065 554.3 138.544 554.329 138.045 554.215C137.776 554.164 137.519 554.065 137.287 553.921L133.436 551.354C132.736 550.942 131.915 550.786 131.113 550.914C129.891 551.134 128.668 551.305 127.372 551.415C126.923 551.487 126.501 551.677 126.15 551.965C125.895 552.153 125.687 552.395 125.539 552.674L124.059 555.535C123.819 555.952 123.444 556.275 122.996 556.452C122.735 556.552 122.455 556.594 122.177 556.574L114.989 555.902C114.82 555.889 114.655 555.841 114.506 555.761C114.356 555.681 114.225 555.571 114.12 555.437C114.016 555.304 113.94 555.15 113.898 554.986C113.856 554.822 113.848 554.651 113.876 554.484L114.243 551.696C114.28 551.343 114.195 550.987 114.001 550.689C113.807 550.391 113.517 550.168 113.179 550.058C112.159 549.758 111.159 549.395 110.184 548.97C109.403 548.672 108.547 548.629 107.739 548.848L102.177 550.669C101.718 550.807 101.23 550.807 100.771 550.669C100.476 550.595 100.201 550.458 99.9642 550.266L96.2967 547.198C96.1942 547.127 96.109 547.035 96.0476 546.927C95.9862 546.819 95.9501 546.698 95.9422 546.574L95.8566 552.564C95.8689 552.694 95.9078 552.819 95.9709 552.933C96.034 553.046 96.12 553.146 96.2234 553.224L99.8908 556.293C100.329 556.627 100.868 556.804 101.419 556.794C101.529 556.806 101.639 556.806 101.749 556.794C101.849 556.781 101.948 556.757 102.042 556.721L107.617 554.887C108.425 554.666 109.283 554.714 110.062 555.021C111.04 555.439 112.039 555.802 113.057 556.109C113.352 556.2 113.613 556.379 113.803 556.623V560.706C113.802 561.012 113.915 561.307 114.121 561.534C114.327 561.76 114.61 561.901 114.915 561.929L122.116 562.601C122.39 562.62 122.666 562.578 122.923 562.479C123.09 562.41 123.25 562.324 123.399 562.222L123.619 562.039L123.79 561.855C123.846 561.791 123.896 561.722 123.937 561.647V561.574L125.416 558.726C125.453 558.638 125.503 558.555 125.563 558.481C125.601 558.423 125.646 558.369 125.698 558.322C125.795 558.204 125.906 558.097 126.028 558.004C126.38 557.719 126.802 557.533 127.25 557.466C128.473 557.344 129.695 557.185 130.991 556.953C131.793 556.834 132.611 556.989 133.314 557.393L137.165 559.96C137.393 560.1 137.646 560.195 137.91 560.241H138.106C138.398 560.278 138.694 560.278 138.986 560.241H139.182L139.426 560.156L145.221 557.711C145.432 557.631 145.612 557.485 145.734 557.295C145.798 557.183 145.832 557.057 145.832 556.929L145.954 550.889ZM93.3872 537.87C93.1322 537.84 92.8969 537.718 92.7257 537.526C92.5545 537.335 92.4594 537.088 92.4581 536.831L92.3848 542.858C92.3856 543.113 92.4791 543.359 92.6478 543.55C92.8164 543.741 93.0488 543.864 93.3016 543.897L98.3994 544.728L101.113 543.31C101.412 543.151 101.636 542.882 101.739 542.56C101.842 542.238 101.815 541.889 101.663 541.586C101.476 541.192 101.321 540.783 101.199 540.364C101.102 540.006 100.912 539.681 100.647 539.421C100.383 539.161 100.055 538.976 99.6952 538.885L93.3872 537.87Z" fill="#024CAA"/>
<path opacity="0.1" d="M152.959 528.982C152.947 529.141 152.892 529.294 152.799 529.423C152.706 529.552 152.58 529.654 152.433 529.716L147.776 532.161C147.477 532.32 147.252 532.588 147.147 532.91C147.043 533.231 147.066 533.58 147.213 533.885C147.398 534.28 147.553 534.689 147.678 535.107C147.778 535.464 147.971 535.788 148.237 536.046C148.504 536.304 148.834 536.486 149.194 536.574L150.355 536.757L152.36 535.731C152.508 535.664 152.636 535.558 152.728 535.425C152.821 535.291 152.875 535.135 152.886 534.973L152.959 528.982ZM116.663 531.183C111.248 533.432 109.328 537.491 111.627 540.877C112.901 539.21 114.622 537.939 116.59 537.21C122.874 534.594 131.455 535.401 135.746 539.007C136.298 539.461 136.791 539.983 137.213 540.559C138.9 538.114 138.521 535.266 135.82 532.992C131.529 529.386 122.947 528.567 116.663 531.183ZM156.382 538.665C156.372 538.78 156.352 538.895 156.321 539.007L155.282 542.259C155.159 542.608 154.933 542.911 154.634 543.129C154.335 543.348 153.977 543.47 153.607 543.481L147.006 543.286C146.651 543.284 146.301 543.359 145.979 543.506C145.564 543.672 145.187 543.916 144.866 544.227C144.367 544.749 143.832 545.235 143.265 545.682C143.015 545.885 142.855 546.179 142.821 546.5C142.786 546.82 142.88 547.141 143.081 547.393L145.343 549.838C145.517 549.716 145.706 549.618 145.905 549.545C146.224 549.4 146.57 549.325 146.92 549.325L153.521 549.508C153.892 549.5 154.252 549.379 154.551 549.161C154.851 548.942 155.076 548.636 155.196 548.286L156.223 545.046C156.247 544.925 156.247 544.8 156.223 544.679L156.382 538.665ZM102.861 530.559C102.871 530.801 102.967 531.03 103.13 531.207L103.461 531.562C103.667 531.446 103.856 531.302 104.023 531.134C104.515 530.613 105.046 530.131 105.612 529.691C105.746 529.599 105.859 529.478 105.943 529.337C106.026 529.197 106.078 529.04 106.096 528.878C106.113 528.715 106.095 528.551 106.043 528.396C105.992 528.241 105.907 528.099 105.795 527.98L103.204 525.217C103.061 525.075 102.967 524.891 102.935 524.692L102.861 530.559ZM145.954 550.889C145.945 551.068 145.882 551.24 145.773 551.382C145.664 551.524 145.514 551.63 145.343 551.684L139.548 554.129C139.065 554.3 138.544 554.329 138.045 554.215C137.776 554.164 137.519 554.065 137.287 553.921L133.436 551.354C132.736 550.942 131.915 550.786 131.113 550.914C129.891 551.134 128.668 551.305 127.372 551.415C126.923 551.487 126.501 551.677 126.15 551.965C125.895 552.153 125.687 552.395 125.539 552.674L124.059 555.535C123.819 555.952 123.444 556.275 122.996 556.452C122.735 556.552 122.455 556.594 122.177 556.574L114.989 555.902C114.82 555.889 114.655 555.841 114.506 555.761C114.356 555.681 114.225 555.571 114.12 555.437C114.016 555.304 113.94 555.15 113.898 554.986C113.856 554.822 113.848 554.651 113.876 554.484L114.243 551.696C114.28 551.343 114.195 550.987 114.001 550.689C113.807 550.391 113.517 550.168 113.179 550.058C112.159 549.758 111.159 549.395 110.184 548.97C109.403 548.672 108.547 548.629 107.739 548.848L102.177 550.669C101.718 550.807 101.23 550.807 100.771 550.669C100.476 550.595 100.201 550.458 99.9642 550.266L96.2967 547.198C96.1942 547.127 96.109 547.035 96.0476 546.927C95.9862 546.819 95.9501 546.698 95.9422 546.574L95.8566 552.564C95.8689 552.694 95.9078 552.819 95.9709 552.933C96.034 553.046 96.12 553.146 96.2234 553.224L99.8908 556.293C100.329 556.627 100.868 556.804 101.419 556.794C101.529 556.806 101.639 556.806 101.749 556.794C101.849 556.781 101.948 556.757 102.042 556.721L107.617 554.887C108.425 554.666 109.283 554.714 110.062 555.021C111.04 555.439 112.039 555.802 113.057 556.109C113.352 556.2 113.613 556.379 113.803 556.623V560.706C113.802 561.012 113.915 561.307 114.121 561.534C114.327 561.76 114.61 561.901 114.915 561.929L122.116 562.601C122.39 562.62 122.666 562.578 122.923 562.479C123.09 562.41 123.25 562.324 123.399 562.222L123.619 562.039L123.79 561.855C123.846 561.791 123.896 561.722 123.937 561.647V561.574L125.416 558.726C125.453 558.638 125.503 558.555 125.563 558.481C125.601 558.423 125.646 558.369 125.698 558.322C125.795 558.204 125.906 558.097 126.028 558.004C126.38 557.719 126.802 557.533 127.25 557.466C128.473 557.344 129.695 557.185 130.991 556.953C131.793 556.834 132.611 556.989 133.314 557.393L137.165 559.96C137.393 560.1 137.646 560.195 137.91 560.241H138.106C138.398 560.278 138.694 560.278 138.986 560.241H139.182L139.426 560.156L145.221 557.711C145.432 557.631 145.612 557.485 145.734 557.295C145.798 557.183 145.832 557.057 145.832 556.929L145.954 550.889ZM93.3872 537.87C93.1322 537.84 92.8969 537.718 92.7257 537.526C92.5545 537.335 92.4594 537.088 92.4581 536.831L92.3848 542.858C92.3856 543.113 92.4791 543.359 92.6478 543.55C92.8164 543.741 93.0488 543.864 93.3016 543.897L98.3994 544.728L101.113 543.31C101.412 543.151 101.636 542.882 101.739 542.56C101.842 542.238 101.815 541.889 101.663 541.586C101.476 541.192 101.321 540.783 101.199 540.364C101.102 540.006 100.912 539.681 100.647 539.421C100.383 539.161 100.055 538.976 99.6952 538.885L93.3872 537.87Z" fill="black"/>
<path d="M107.703 548.799L102.14 550.621C101.682 550.758 101.193 550.758 100.734 550.621L100.661 556.623C100.895 556.694 101.138 556.735 101.382 556.745C101.492 556.757 101.603 556.757 101.712 556.745C101.813 556.732 101.911 556.708 102.006 556.672L107.58 554.838L107.703 548.799Z" fill="#FFBDA7"/>
<path d="M126.113 551.892C125.859 552.079 125.65 552.322 125.502 552.601L124.023 555.462C123.782 555.879 123.407 556.202 122.959 556.378L122.886 562.393C123.053 562.325 123.213 562.239 123.363 562.136L123.583 561.953L123.754 561.77C123.81 561.706 123.859 561.636 123.9 561.562V561.488L125.38 558.64C125.417 558.552 125.466 558.47 125.526 558.396L125.661 558.237L125.991 557.943L126.113 551.892Z" fill="#FFBDA7"/>
<path d="M152.971 528.982C152.954 529.141 152.896 529.293 152.801 529.422C152.707 529.551 152.58 529.652 152.433 529.716L147.776 532.161C147.476 532.322 147.252 532.593 147.149 532.917C147.046 533.241 147.074 533.593 147.226 533.897C147.409 534.292 147.56 534.7 147.678 535.119C147.778 535.476 147.971 535.8 148.237 536.058C148.504 536.316 148.834 536.498 149.194 536.586L150.355 536.77L152.348 535.743C152.498 535.678 152.628 535.573 152.723 535.439C152.818 535.306 152.874 535.148 152.886 534.985L152.971 528.982Z" fill="#FFBDA7"/>
<path d="M156.382 538.665C156.372 538.78 156.352 538.895 156.321 539.007L155.282 542.259C155.158 542.608 154.933 542.911 154.634 543.129C154.335 543.348 153.977 543.47 153.607 543.481L147.005 543.286C146.651 543.284 146.301 543.359 145.979 543.506V549.532C146.297 549.387 146.643 549.312 146.993 549.312L153.595 549.496C153.965 549.488 154.325 549.367 154.625 549.148C154.924 548.93 155.149 548.624 155.269 548.273L156.296 545.034C156.32 544.913 156.32 544.788 156.296 544.667L156.382 538.665Z" fill="#FFBDA7"/>
<path d="M145.954 550.889C145.945 551.068 145.882 551.24 145.773 551.382C145.663 551.524 145.513 551.63 145.343 551.684L139.548 554.129C139.065 554.3 138.544 554.329 138.045 554.215L137.959 560.217H138.155C138.447 560.254 138.743 560.254 139.035 560.217H139.23L139.475 560.131L145.269 557.686C145.481 557.607 145.661 557.461 145.783 557.271C145.847 557.159 145.88 557.033 145.881 556.904L145.954 550.889Z" fill="#FFBDA7"/>
<path d="M146.749 524.814L141.113 526.672C140.324 526.879 139.49 526.832 138.729 526.537C137.752 526.118 136.752 525.755 135.734 525.449C135.398 525.337 135.111 525.114 134.92 524.816C134.729 524.518 134.645 524.163 134.683 523.811L135.037 521.036C135.065 520.87 135.058 520.7 135.017 520.536C134.975 520.373 134.901 520.22 134.797 520.087C134.694 519.954 134.564 519.843 134.416 519.763C134.268 519.682 134.105 519.633 133.937 519.618L126.737 518.946C126.359 518.928 125.984 519.015 125.653 519.199C125.323 519.382 125.05 519.655 124.866 519.985L123.387 522.833C123.186 523.166 122.912 523.448 122.586 523.66C122.26 523.872 121.89 524.007 121.504 524.056C120.282 524.166 118.998 524.337 117.764 524.569C116.962 524.691 116.143 524.535 115.441 524.129L111.59 521.562C111.254 521.363 110.878 521.241 110.489 521.205C110.1 521.169 109.708 521.22 109.341 521.354L103.534 523.799C103.389 523.84 103.258 523.919 103.155 524.028C103.051 524.137 102.979 524.272 102.947 524.419C102.914 524.566 102.922 524.719 102.969 524.861C103.017 525.004 103.102 525.131 103.216 525.229L105.795 528.029C105.905 528.149 105.988 528.291 106.039 528.446C106.089 528.601 106.107 528.764 106.089 528.926C106.072 529.088 106.02 529.244 105.938 529.384C105.856 529.525 105.745 529.646 105.612 529.74C105.049 530.183 104.518 530.665 104.023 531.183C103.449 531.755 102.681 532.091 101.871 532.124L95.282 531.941C94.9107 531.947 94.5504 532.067 94.2505 532.286C93.9506 532.505 93.7259 532.812 93.6072 533.163L92.5681 536.403C92.5117 536.555 92.4902 536.718 92.5051 536.88C92.52 537.042 92.5709 537.198 92.6542 537.338C92.7374 537.477 92.8508 537.597 92.9861 537.687C93.1214 537.776 93.2752 537.835 93.436 537.858L99.6952 538.872C100.055 538.959 100.384 539.141 100.649 539.399C100.913 539.657 101.103 539.982 101.199 540.339C101.328 540.756 101.483 541.164 101.663 541.562C101.815 541.864 101.842 542.214 101.739 542.536C101.636 542.858 101.412 543.127 101.113 543.286L96.4556 545.731C96.3149 545.779 96.1907 545.867 96.0973 545.983C96.0038 546.098 95.9448 546.238 95.927 546.386C95.9091 546.534 95.9332 546.684 95.9964 546.819C96.0596 546.953 96.1594 547.068 96.2844 547.149L99.9519 550.217C100.263 550.448 100.623 550.605 101.004 550.677C101.386 550.749 101.778 550.734 102.152 550.633L107.788 548.787C108.595 548.568 109.451 548.611 110.233 548.909C111.208 549.334 112.208 549.697 113.228 549.997C113.566 550.107 113.856 550.33 114.05 550.628C114.243 550.926 114.329 551.282 114.292 551.635L113.925 554.422C113.897 554.59 113.905 554.761 113.947 554.925C113.989 555.089 114.065 555.243 114.169 555.376C114.274 555.51 114.405 555.62 114.555 555.7C114.704 555.78 114.868 555.828 115.037 555.841L122.238 556.513C122.614 556.524 122.987 556.434 123.316 556.251C123.645 556.068 123.919 555.799 124.108 555.474L125.575 552.613C125.779 552.282 126.053 552.001 126.379 551.79C126.704 551.578 127.073 551.442 127.458 551.391C128.713 551.282 129.961 551.111 131.199 550.877C132.002 550.758 132.822 550.917 133.521 551.33L137.372 553.897C137.712 554.093 138.09 554.213 138.48 554.249C138.871 554.285 139.264 554.235 139.634 554.105L145.428 551.66C145.574 551.621 145.706 551.543 145.811 551.434C145.916 551.326 145.989 551.191 146.023 551.044C146.057 550.897 146.05 550.743 146.004 550.6C145.957 550.456 145.872 550.328 145.759 550.229L143.179 547.442C143.068 547.323 142.983 547.181 142.931 547.026C142.879 546.871 142.862 546.707 142.879 546.544C142.896 546.382 142.949 546.225 143.032 546.085C143.115 545.944 143.228 545.824 143.362 545.731C143.923 545.28 144.454 544.795 144.952 544.276C145.526 543.712 146.287 543.377 147.091 543.334L153.68 543.53C154.052 543.52 154.412 543.398 154.713 543.18C155.014 542.961 155.242 542.658 155.367 542.308L156.406 539.056C156.463 538.904 156.485 538.742 156.47 538.581C156.455 538.42 156.404 538.264 156.32 538.125C156.237 537.987 156.123 537.869 155.988 537.78C155.852 537.691 155.699 537.634 155.538 537.613L149.279 536.599C148.919 536.51 148.589 536.328 148.323 536.07C148.056 535.813 147.863 535.489 147.763 535.132C147.645 534.713 147.494 534.304 147.311 533.909C147.159 533.605 147.132 533.254 147.234 532.93C147.337 532.606 147.562 532.334 147.861 532.173L152.519 529.728C152.66 529.679 152.784 529.592 152.877 529.476C152.971 529.36 153.03 529.22 153.047 529.073C153.065 528.925 153.041 528.775 152.978 528.64C152.915 528.505 152.815 528.391 152.69 528.31L149.023 525.242C148.703 524.998 148.331 524.833 147.936 524.758C147.542 524.684 147.135 524.703 146.749 524.814ZM135.82 532.992C140.123 536.599 138.509 541.647 132.226 544.251C125.942 546.855 117.36 546.061 113.069 542.454C108.778 538.848 110.38 533.799 116.663 531.183C122.947 528.567 131.529 529.374 135.82 532.992Z" fill="#E0800C"/>
<path d="M126.602 520.071L133.802 520.743H133.876C133.888 520.779 133.888 520.817 133.876 520.853L133.509 523.628C133.432 524.249 133.577 524.877 133.916 525.402C134.256 525.927 134.77 526.316 135.367 526.501C136.343 526.793 137.303 527.14 138.24 527.54C138.839 527.778 139.478 527.898 140.123 527.894C140.562 527.902 140.999 527.84 141.419 527.711L147.054 525.853C147.152 525.839 147.25 525.839 147.348 525.853C147.643 525.85 147.932 525.935 148.179 526.097L151.504 528.897L147.201 531.122C146.646 531.417 146.226 531.914 146.028 532.51C145.83 533.107 145.869 533.757 146.137 534.325C146.306 534.674 146.441 535.038 146.541 535.413C146.694 535.984 147.004 536.501 147.436 536.905C147.869 537.309 148.405 537.584 148.986 537.699L155.208 538.713L154.181 541.953C154.129 542.065 154.048 542.162 153.948 542.235C153.847 542.308 153.73 542.354 153.607 542.369L147.018 542.173H146.944C145.843 542.226 144.801 542.688 144.022 543.469C143.561 543.951 143.067 544.4 142.543 544.814C142.286 545.017 142.072 545.27 141.915 545.558C141.757 545.846 141.659 546.162 141.626 546.489C141.607 546.798 141.651 547.109 141.756 547.401C141.861 547.694 142.025 547.961 142.238 548.188L144.585 550.718L139.084 553.004C138.944 553.059 138.794 553.084 138.643 553.078C138.384 553.085 138.128 553.026 137.898 552.907L134.047 550.339C133.312 549.888 132.465 549.651 131.602 549.655C131.368 549.656 131.135 549.676 130.905 549.716C129.683 549.936 128.46 550.107 127.238 550.217C126.658 550.285 126.102 550.489 125.617 550.815C125.133 551.14 124.733 551.576 124.45 552.088L122.983 554.936C122.9 555.063 122.788 555.169 122.657 555.246C122.525 555.322 122.377 555.367 122.225 555.376L115.013 554.691C115.003 554.696 114.993 554.698 114.982 554.698C114.972 554.698 114.961 554.696 114.952 554.691C114.943 554.655 114.943 554.618 114.952 554.581L115.318 551.806C115.388 551.187 115.241 550.562 114.902 550.038C114.563 549.515 114.054 549.124 113.46 548.933C112.484 548.637 111.525 548.286 110.587 547.882C109.987 547.649 109.348 547.533 108.705 547.54C108.262 547.534 107.821 547.596 107.397 547.723L101.761 549.569C101.668 549.583 101.573 549.583 101.48 549.569C101.18 549.576 100.886 549.49 100.636 549.325L97.3234 546.537L101.627 544.312C102.179 544.016 102.597 543.517 102.792 542.921C102.988 542.325 102.947 541.676 102.678 541.11C102.521 540.753 102.39 540.385 102.287 540.009C102.127 539.441 101.815 538.928 101.384 538.525C100.953 538.122 100.419 537.844 99.8417 537.723L93.6193 536.721L94.6584 533.481C94.7055 533.366 94.7824 533.266 94.8813 533.191C94.9802 533.116 95.0974 533.068 95.2207 533.053L101.822 533.249H101.896C102.994 533.199 104.033 532.736 104.805 531.953C105.273 531.474 105.771 531.025 106.296 530.608C106.553 530.408 106.766 530.157 106.922 529.871C107.077 529.585 107.173 529.27 107.201 528.946C107.227 528.636 107.187 528.325 107.083 528.032C106.98 527.739 106.816 527.471 106.602 527.247L104.255 524.704L109.744 522.418C109.89 522.368 110.042 522.343 110.196 522.344C110.456 522.34 110.713 522.403 110.942 522.528L114.793 525.095C115.53 525.54 116.376 525.773 117.238 525.767C117.473 525.793 117.711 525.793 117.947 525.767C119.169 525.547 120.392 525.376 121.614 525.266C122.192 525.195 122.744 524.99 123.228 524.668C123.712 524.345 124.114 523.914 124.402 523.408L125.869 520.547C125.95 520.425 126.059 520.323 126.186 520.248C126.313 520.174 126.455 520.13 126.602 520.119M124.084 547.014C127.014 547.04 129.921 546.492 132.641 545.401C136.431 543.823 138.851 541.305 139.279 538.493C139.417 537.299 139.236 536.09 138.755 534.989C138.274 533.887 137.51 532.933 136.541 532.222C133.815 529.924 129.536 528.616 124.793 528.616C121.862 528.596 118.955 529.148 116.235 530.242C112.458 531.806 110.037 534.325 109.609 537.149C109.47 538.343 109.651 539.552 110.132 540.654C110.613 541.756 111.378 542.71 112.348 543.42C115.074 545.706 119.353 547.014 124.096 547.014M126.614 519.031C126.259 519.045 125.914 519.148 125.61 519.332C125.306 519.516 125.055 519.775 124.878 520.083L123.399 522.931C123.198 523.264 122.924 523.546 122.598 523.758C122.272 523.97 121.902 524.105 121.516 524.154C120.294 524.264 119.01 524.435 117.776 524.667C117.613 524.686 117.449 524.686 117.287 524.667C116.643 524.671 116.009 524.502 115.453 524.178L111.602 521.611C111.192 521.356 110.715 521.229 110.233 521.244C109.932 521.238 109.633 521.292 109.353 521.403L103.546 523.848C103.401 523.889 103.27 523.968 103.167 524.077C103.063 524.186 102.992 524.321 102.959 524.468C102.926 524.615 102.934 524.768 102.982 524.91C103.029 525.053 103.114 525.18 103.228 525.278L105.807 528.078C105.917 528.198 106 528.34 106.051 528.495C106.101 528.649 106.119 528.813 106.101 528.975C106.084 529.137 106.032 529.293 105.95 529.433C105.868 529.574 105.757 529.695 105.624 529.789C105.061 530.232 104.53 530.714 104.035 531.232C103.472 531.793 102.725 532.132 101.932 532.185L95.343 532.002C94.9781 532.015 94.6258 532.139 94.3332 532.358C94.0405 532.576 93.8214 532.878 93.7048 533.225L92.6657 536.464C92.6094 536.617 92.5878 536.78 92.6027 536.941C92.6176 537.103 92.6686 537.26 92.7518 537.399C92.8351 537.539 92.9485 537.658 93.0838 537.748C93.2191 537.838 93.3728 537.896 93.5337 537.919L99.7928 538.934C100.152 539.02 100.482 539.202 100.746 539.46C101.011 539.718 101.201 540.043 101.296 540.401C101.426 540.817 101.581 541.226 101.761 541.623C101.912 541.925 101.939 542.275 101.837 542.597C101.734 542.919 101.509 543.188 101.211 543.347L96.5532 545.792C96.4125 545.84 96.2884 545.928 96.1949 546.044C96.1015 546.16 96.0425 546.299 96.0246 546.447C96.0068 546.595 96.0308 546.745 96.094 546.88C96.1572 547.015 96.257 547.129 96.3821 547.21L100.05 550.278C100.496 550.625 101.049 550.807 101.614 550.792C101.83 550.791 102.044 550.758 102.25 550.694L107.886 548.848C108.195 548.756 108.516 548.711 108.839 548.713C109.328 548.709 109.813 548.796 110.27 548.97C111.244 549.395 112.245 549.758 113.265 550.058C113.603 550.168 113.893 550.391 114.086 550.689C114.28 550.987 114.365 551.343 114.328 551.696L113.961 554.484C113.934 554.651 113.941 554.822 113.983 554.986C114.025 555.15 114.101 555.304 114.206 555.437C114.31 555.571 114.442 555.681 114.591 555.761C114.74 555.841 114.905 555.889 115.074 555.902L122.274 556.574H122.409C122.763 556.563 123.108 556.462 123.412 556.28C123.716 556.098 123.968 555.842 124.145 555.535L125.612 552.674C125.815 552.344 126.09 552.062 126.415 551.851C126.741 551.639 127.11 551.503 127.494 551.452C128.749 551.343 129.998 551.172 131.235 550.938C131.398 550.926 131.561 550.926 131.724 550.938C132.368 550.933 133.002 551.102 133.558 551.427L137.409 553.995C137.828 554.24 138.305 554.367 138.79 554.361C139.091 554.362 139.389 554.308 139.67 554.202L145.465 551.757C145.611 551.718 145.743 551.64 145.848 551.532C145.953 551.423 146.026 551.288 146.06 551.141C146.094 550.994 146.087 550.841 146.04 550.698C145.994 550.554 145.909 550.426 145.795 550.327L143.216 547.54C143.104 547.421 143.019 547.279 142.968 547.124C142.916 546.969 142.898 546.805 142.916 546.642C142.933 546.48 142.985 546.323 143.069 546.183C143.152 546.042 143.265 545.921 143.399 545.828C143.96 545.378 144.49 544.892 144.988 544.374C145.555 543.82 146.3 543.487 147.091 543.432L153.692 543.628C154.056 543.61 154.406 543.484 154.698 543.266C154.989 543.048 155.21 542.749 155.33 542.405L156.37 539.154C156.426 539.002 156.448 538.84 156.433 538.678C156.418 538.517 156.367 538.362 156.283 538.223C156.2 538.084 156.086 537.966 155.951 537.878C155.816 537.789 155.662 537.732 155.502 537.711L149.242 536.696C148.882 536.608 148.552 536.426 148.286 536.168C148.02 535.91 147.827 535.586 147.727 535.229C147.609 534.811 147.457 534.402 147.274 534.007C147.122 533.703 147.095 533.352 147.198 533.027C147.3 532.703 147.525 532.432 147.824 532.271L152.482 529.826C152.623 529.777 152.747 529.69 152.84 529.574C152.934 529.458 152.993 529.318 153.011 529.17C153.029 529.023 153.004 528.873 152.941 528.738C152.878 528.603 152.778 528.489 152.653 528.408L148.986 525.339C148.532 525.008 147.983 524.832 147.421 524.838C147.202 524.834 146.984 524.863 146.773 524.924L141.137 526.782C140.831 526.869 140.514 526.911 140.196 526.904C139.703 526.913 139.213 526.826 138.754 526.648C137.777 526.228 136.777 525.865 135.758 525.56C135.423 525.447 135.135 525.224 134.944 524.926C134.753 524.628 134.669 524.273 134.707 523.921L135.062 521.146C135.089 520.98 135.082 520.81 135.041 520.646C134.999 520.483 134.925 520.33 134.821 520.197C134.718 520.064 134.588 519.953 134.44 519.873C134.292 519.792 134.129 519.743 133.961 519.728L126.761 519.056L126.614 519.031ZM124.096 545.926C119.829 545.926 115.673 544.765 113.094 542.589C108.79 538.921 110.404 533.934 116.688 531.317C119.276 530.283 122.042 529.764 124.829 529.789C129.096 529.789 133.252 530.938 135.832 533.127C140.135 536.733 138.521 541.782 132.238 544.386C129.65 545.424 126.884 545.947 124.096 545.926Z" fill="#E0800C"/>
</g>
</svg>
