<svg width="679" height="680" viewBox="0 0 679 680" fill="none" xmlns="http://www.w3.org/2000/svg">
<path d="M214.252 568.067C227.595 554.316 242.545 546.798 261.634 545.138C257.127 538.114 249.115 524.422 244.608 517.396C220.617 517.524 201.978 531.054 189.369 551.216C198.236 557.605 205.384 561.677 214.252 568.067Z" fill="#E0E0E0"/>
<path d="M214.25 568.064C214.251 568.076 214.106 567.985 213.815 567.792C213.491 567.574 213.06 567.282 212.509 566.91C211.339 566.127 209.671 565.009 207.54 563.58C203.225 560.693 196.793 556.797 189.223 551.412L189.033 551.278L189.158 551.081C191.335 547.654 193.864 544.026 196.897 540.407C199.965 536.825 203.533 533.257 207.687 530.013C211.833 526.77 216.579 523.864 221.846 521.659C227.106 519.447 232.883 517.957 238.887 517.378C239.842 517.246 240.799 517.198 241.754 517.173C242.708 517.134 243.658 517.096 244.603 517.058L244.784 517.051L244.885 517.211C251.09 527.029 256.565 536.579 261.888 544.969L262.156 545.391L261.658 545.436C253.757 546.142 246.56 547.828 240.513 550.27C234.428 552.636 229.512 555.656 225.657 558.384C221.804 561.136 219.012 563.642 217.12 565.367C216.205 566.235 215.491 566.913 214.978 567.399C214.754 567.608 214.576 567.774 214.433 567.908C214.311 568.019 214.25 568.072 214.25 568.064C214.248 568.055 214.309 567.987 214.427 567.859C214.564 567.714 214.736 567.533 214.951 567.304C215.419 566.824 216.074 566.113 216.987 565.227C218.838 563.454 221.602 560.896 225.443 558.087C229.286 555.304 234.21 552.221 240.325 549.8C246.402 547.301 253.653 545.568 261.605 544.831L261.376 545.299C256.013 536.907 250.519 527.365 244.323 517.573L244.606 517.726C243.671 517.765 242.731 517.802 241.788 517.84C240.843 517.867 239.895 517.912 238.951 518.045C233.012 518.617 227.304 520.086 222.099 522.265C216.888 524.438 212.187 527.302 208.068 530.503C203.944 533.705 200.392 537.231 197.327 540.774C194.298 544.354 191.764 547.947 189.575 551.342L189.511 551.012C197.024 556.431 203.419 560.392 207.692 563.351C209.84 564.813 211.483 565.988 212.59 566.793C213.108 567.183 213.515 567.49 213.82 567.719C214.101 567.934 214.248 568.051 214.25 568.064Z" fill="#263238"/>
<path d="M200.389 546.004C200.501 545.857 204.376 548.619 209.041 552.173C213.708 555.728 217.4 558.727 217.289 558.873C217.177 559.019 213.304 556.259 208.637 552.704C203.97 549.152 200.277 546.151 200.389 546.004Z" fill="#263238"/>
<path d="M205.3 539.782C205.425 539.646 209.039 542.74 213.371 546.693C217.705 550.647 221.116 553.962 220.992 554.098C220.867 554.234 217.254 551.14 212.92 547.186C208.588 543.233 205.176 539.918 205.3 539.782Z" fill="#263238"/>
<path d="M212.63 533.948C212.705 533.887 213.509 534.75 214.795 536.148C216.082 537.547 217.875 539.46 219.878 541.561C221.882 543.661 223.668 545.603 224.882 547.079C226.1 548.55 226.774 549.523 226.706 549.577C226.63 549.639 225.829 548.775 224.527 547.392C223.04 545.837 221.309 544.024 219.393 542.02C217.388 539.917 215.638 537.94 214.437 536.456C213.238 534.973 212.563 534.004 212.63 533.948Z" fill="#263238"/>
<path d="M232.92 547.327C232.854 547.382 232.028 546.543 230.812 545.084C229.598 543.623 228.013 541.525 226.407 539.115C224.795 536.706 223.449 534.457 222.493 532.823C221.542 531.185 220.984 530.152 221.062 530.102C221.244 529.984 223.789 533.931 226.961 538.744C228.56 541.142 230.072 543.266 231.184 544.795C232.298 546.32 232.996 547.264 232.92 547.327Z" fill="#263238"/>
<path d="M238.688 544.91C238.614 544.96 237.934 544.122 236.941 542.691C235.949 541.259 234.655 539.227 233.356 536.908C232.058 534.587 231.001 532.422 230.299 530.828C229.596 529.233 229.237 528.216 229.318 528.179C229.496 528.099 231.349 531.972 233.937 536.581C236.515 541.195 238.848 544.8 238.688 544.91Z" fill="#263238"/>
<path d="M246.4 542.411C246.326 542.462 245.639 541.601 244.616 540.15C243.592 538.699 242.238 536.653 240.828 534.339C239.419 532.026 238.219 529.884 237.399 528.309C236.577 526.735 236.127 525.731 236.206 525.687C236.288 525.642 236.885 526.565 237.81 528.076C238.865 529.815 240.069 531.8 241.4 533.991C242.737 536.176 243.951 538.156 245.012 539.891C245.932 541.406 246.479 542.358 246.4 542.411Z" fill="#263238"/>
<path d="M319.689 405.696C298.784 406.146 281.411 400.523 265.313 387.18C263.43 396.091 259.154 412.866 257.27 421.777C275.999 440.069 300.845 443.851 326.094 437.859C324.107 426.098 321.678 417.456 319.689 405.696Z" fill="#FAFAFA"/>
<path d="M319.688 405.695C319.696 405.686 319.737 405.87 319.815 406.242C319.897 406.654 320.008 407.213 320.149 407.926C320.453 409.426 320.89 411.574 321.448 414.324C322.583 419.875 324.589 427.833 326.336 437.816L326.376 438.045L326.15 438.096C321.832 439.086 317.088 439.965 311.961 440.449C306.833 440.878 301.329 440.913 295.618 440.248C289.914 439.587 284.003 438.205 278.224 435.881C272.447 433.567 266.822 430.298 261.717 426.146C260.874 425.517 260.096 424.82 259.333 424.108C258.563 423.407 257.797 422.709 257.034 422.014L256.9 421.892L256.941 421.706C259.648 409.326 262.716 397.713 265.013 387.116L265.12 386.627L265.505 386.945C272.185 392.454 279.07 396.663 285.641 399.401C292.182 402.227 298.318 403.649 303.405 404.484C308.508 405.298 312.6 405.49 315.39 405.597C316.77 405.623 317.845 405.642 318.61 405.656C318.947 405.665 319.213 405.672 319.424 405.677C319.605 405.682 319.693 405.689 319.688 405.695C319.683 405.701 319.584 405.708 319.394 405.716C319.18 405.722 318.908 405.731 318.562 405.741C317.832 405.754 316.775 405.802 315.386 405.79C312.59 405.744 308.484 405.609 303.348 404.845C298.231 404.058 292.046 402.675 285.443 399.868C278.812 397.148 271.855 392.936 265.117 387.413L265.609 387.242C263.339 397.869 260.29 409.49 257.595 421.845L257.501 421.537C258.256 422.224 259.016 422.916 259.779 423.609C260.534 424.312 261.304 425.004 262.139 425.626C267.192 429.736 272.754 432.973 278.469 435.272C284.185 437.58 290.036 438.959 295.69 439.63C301.349 440.304 306.812 440.289 311.91 439.885C317.007 439.425 321.732 438.575 326.036 437.616L325.849 437.897C324.166 427.928 322.234 419.951 321.179 414.378C320.631 411.596 320.253 409.425 320.008 407.951C319.903 407.246 319.819 406.694 319.759 406.288C319.706 405.907 319.68 405.704 319.688 405.695Z" fill="#263238"/>
<path d="M313.544 433.453C313.362 433.479 312.483 428.363 311.583 422.027C310.683 415.688 310.103 410.531 310.285 410.504C310.468 410.478 311.346 415.593 312.246 421.932C313.146 428.269 313.728 433.428 313.544 433.453Z" fill="#263238"/>
<path d="M304.954 434.523C304.769 434.533 304.349 429.358 304.014 422.967C303.68 416.573 303.558 411.385 303.742 411.375C303.927 411.365 304.346 416.539 304.682 422.932C305.017 429.324 305.137 434.514 304.954 434.523Z" fill="#263238"/>
<path d="M294.796 433.434C294.698 433.425 294.743 432.14 294.822 430.066C294.901 427.993 294.978 425.132 295.033 421.965C295.087 418.798 295.186 415.921 295.37 413.845C295.547 411.769 295.761 410.496 295.847 410.504C295.945 410.513 295.897 411.798 295.842 413.87C295.802 416.179 295.755 418.933 295.702 421.978C295.647 425.149 295.494 428.025 295.294 430.097C295.094 432.171 294.882 433.443 294.796 433.434Z" fill="#263238"/>
<path d="M289.29 407.492C289.375 407.499 289.366 408.783 289.186 410.848C289.003 412.913 288.623 415.754 288.023 418.857C287.429 421.963 286.753 424.741 286.246 426.745C285.735 428.748 285.385 429.978 285.294 429.959C285.204 429.939 285.391 428.671 285.785 426.641C286.236 424.387 286.773 421.701 287.367 418.731C287.964 415.642 288.415 412.832 288.718 410.792C289.016 408.75 289.191 407.483 289.29 407.492Z" fill="#263238"/>
<path d="M282.96 404.946C283.048 404.961 282.926 406.132 282.593 408.004C282.262 409.874 281.705 412.443 280.937 415.24C280.167 418.037 279.331 420.529 278.658 422.306C277.987 424.084 277.492 425.152 277.409 425.122C277.319 425.088 277.655 423.963 278.21 422.153C278.766 420.344 279.525 417.845 280.291 415.062C281.055 412.282 281.682 409.745 282.13 407.906C282.58 406.066 282.867 404.928 282.96 404.946Z" fill="#263238"/>
<path d="M275.051 400.975C275.139 400.992 275.006 402.184 274.682 404.095C274.359 406.005 273.839 408.631 273.161 411.508C272.482 414.386 271.775 416.968 271.21 418.822C270.647 420.676 270.235 421.803 270.147 421.777C270.056 421.752 270.308 420.58 270.755 418.699C271.262 416.579 271.855 414.097 272.51 411.355C273.148 408.61 273.726 406.124 274.219 404.001C274.66 402.119 274.958 400.957 275.051 400.975Z" fill="#263238"/>
<path d="M352.555 514.766C341.222 530.526 327.355 540.277 308.471 544.774C314.031 551.145 324.09 563.679 329.649 570.05C353.673 566.363 370.347 550.039 379.993 527.963C370.157 522.875 362.389 519.854 352.555 514.766Z" fill="#EBEBEB"/>
<path d="M352.556 514.765C352.554 514.753 352.713 514.824 353.033 514.973C353.388 515.144 353.864 515.372 354.472 515.662C355.759 516.275 357.597 517.148 359.945 518.263C364.698 520.517 371.722 523.468 380.106 527.741L380.312 527.846L380.217 528.058C378.543 531.815 376.547 535.827 374.044 539.903C371.5 543.949 368.454 548.052 364.774 551.92C361.098 555.785 356.774 559.401 351.822 562.391C346.879 565.388 341.312 567.737 335.379 569.207C334.442 569.482 333.489 569.671 332.537 569.839C331.587 570.019 330.64 570.199 329.699 570.377L329.521 570.41L329.396 570.267C321.721 561.348 314.818 552.59 308.24 544.971L307.912 544.592L308.397 544.475C316.211 542.595 323.175 539.838 328.873 536.493C334.619 533.219 339.097 529.463 342.557 526.157C346.01 522.826 348.438 519.899 350.076 517.891C350.864 516.885 351.479 516.1 351.921 515.536C352.115 515.294 352.267 515.101 352.391 514.946C352.5 514.819 352.555 514.757 352.556 514.765C352.559 514.773 352.507 514.851 352.409 514.996C352.292 515.162 352.148 515.368 351.964 515.629C351.566 516.18 351.016 516.99 350.231 518.013C348.638 520.063 346.247 523.037 342.815 526.421C339.376 529.781 334.899 533.599 329.129 536.934C323.41 540.338 316.401 543.15 308.54 545.068L308.699 544.573C315.317 552.187 322.239 560.934 329.901 569.829L329.599 569.718C330.53 569.541 331.467 569.364 332.407 569.186C333.349 569.019 334.293 568.833 335.22 568.56C341.087 567.106 346.591 564.787 351.484 561.83C356.385 558.879 360.673 555.31 364.325 551.491C367.983 547.669 371.021 543.61 373.565 539.604C376.069 535.567 378.076 531.589 379.767 527.862L379.88 528.179C371.546 523.862 364.549 520.841 359.828 518.511C357.458 517.365 355.637 516.431 354.408 515.789C353.829 515.475 353.375 515.228 353.036 515.045C352.724 514.871 352.559 514.776 352.556 514.765Z" fill="#263238"/>
<path d="M369.721 534.818C369.631 534.98 365.341 532.784 360.138 529.915C354.933 527.045 350.788 524.588 350.876 524.426C350.965 524.265 355.256 526.459 360.461 529.329C365.663 532.199 369.81 534.656 369.721 534.818Z" fill="#263238"/>
<path d="M365.717 541.787C365.614 541.94 361.534 539.373 356.605 536.055C351.675 532.735 347.763 529.92 347.867 529.766C347.97 529.613 352.049 532.18 356.979 535.5C361.908 538.819 365.821 541.634 365.717 541.787Z" fill="#263238"/>
<path d="M359.24 548.72C359.175 548.792 358.242 548.046 356.746 546.834C355.249 545.622 353.169 543.971 350.85 542.162C348.53 540.355 346.451 538.673 345.016 537.375C343.577 536.082 342.756 535.208 342.815 535.143C342.881 535.072 343.812 535.819 345.322 537.013C347.037 538.348 349.045 539.909 351.262 541.635C353.585 543.445 355.631 545.167 357.054 546.475C358.477 547.784 359.299 548.656 359.24 548.72Z" fill="#263238"/>
<path d="M336.92 538.322C336.977 538.258 337.929 538.977 339.363 540.26C340.794 541.545 342.694 543.412 344.661 545.589C346.633 547.764 348.317 549.817 349.517 551.314C350.714 552.813 351.427 553.765 351.357 553.825C351.194 553.969 348.06 550.389 344.166 546.037C342.208 543.871 340.377 541.966 339.035 540.6C337.692 539.238 336.854 538.396 336.92 538.322Z" fill="#263238"/>
<path d="M331.499 541.599C331.565 541.539 332.37 542.28 333.575 543.567C334.782 544.855 336.379 546.7 338.025 548.831C339.671 550.965 341.051 552.977 341.991 554.47C342.932 555.963 343.444 556.929 343.369 556.977C343.204 557.083 340.774 553.475 337.495 549.239C334.23 544.996 331.356 541.731 331.499 541.599Z" fill="#263238"/>
<path d="M324.141 545.25C324.208 545.188 325.024 545.949 326.262 547.254C327.503 548.557 329.163 550.407 330.919 552.515C332.675 554.626 334.194 556.593 335.252 558.048C336.31 559.504 336.911 560.443 336.839 560.497C336.765 560.553 336.03 559.716 334.88 558.339C333.569 556.757 332.066 554.944 330.405 552.943C328.738 550.949 327.227 549.142 325.909 547.567C324.763 546.186 324.072 545.312 324.141 545.25Z" fill="#263238"/>
<path d="M487.098 515.441C502.963 504.297 519.244 499.654 538.533 501.615C535.381 493.779 530.009 478.655 526.857 470.82C502.989 466.407 481.901 476.329 465.555 493.983C473.159 502.013 479.494 507.411 487.098 515.441Z" fill="#FAFAFA"/>
<path d="M487.096 515.439C487.095 515.45 486.968 515.332 486.715 515.086C486.437 514.808 486.062 514.436 485.584 513.962C484.571 512.962 483.124 511.536 481.277 509.711C477.534 506.025 471.877 500.936 465.373 494.152L465.213 493.984L465.372 493.814C468.185 490.822 471.384 487.693 475.083 484.671C478.812 481.691 483.032 478.82 487.773 476.382C492.509 473.944 497.774 471.954 503.427 470.759C509.074 469.556 515.096 469.168 521.174 469.729C522.149 469.778 523.109 469.913 524.063 470.067C525.018 470.209 525.97 470.35 526.916 470.492L527.095 470.519L527.165 470.696C531.475 481.628 535.109 492.154 538.812 501.501L538.997 501.966L538.5 501.917C530.513 501.125 523.04 501.438 516.568 502.721C510.073 503.921 504.615 505.993 500.266 507.975C495.917 509.982 492.666 511.947 490.461 513.302C489.387 513.993 488.55 514.531 487.948 514.917C487.686 515.083 487.478 515.214 487.31 515.319C487.167 515.407 487.096 515.446 487.096 515.439C487.098 515.43 487.17 515.373 487.312 515.269C487.476 515.151 487.681 515.003 487.939 514.817C488.495 514.43 489.28 513.845 490.356 513.138C492.532 511.727 495.763 509.707 500.111 507.643C504.458 505.604 509.935 503.473 516.471 502.222C522.983 500.89 530.518 500.538 538.562 501.311L538.249 501.727C534.506 492.373 530.851 481.849 526.546 470.943L526.795 471.146C525.859 471.008 524.917 470.868 523.972 470.726C523.028 470.574 522.077 470.44 521.114 470.393C515.102 469.838 509.15 470.217 503.565 471.399C497.973 472.573 492.757 474.532 488.058 476.934C483.353 479.337 479.156 482.168 475.439 485.111C471.752 488.096 468.552 491.189 465.734 494.148L465.733 493.812C472.175 500.62 477.782 505.766 481.471 509.515C483.33 511.375 484.739 512.853 485.688 513.862C486.131 514.349 486.478 514.73 486.737 515.015C486.973 515.282 487.098 515.427 487.096 515.439Z" fill="#263238"/>
<path d="M477.495 490.89C477.632 490.767 480.958 494.246 484.924 498.66C488.892 503.076 491.995 506.755 491.857 506.878C491.72 507.001 488.393 503.523 484.428 499.107C480.46 494.693 477.357 491.013 477.495 490.89Z" fill="#263238"/>
<path d="M483.556 485.633C483.704 485.523 486.71 489.283 490.267 494.032C493.827 498.783 496.592 502.722 496.444 502.832C496.296 502.942 493.292 499.183 489.732 494.433C486.174 489.684 483.409 485.744 483.556 485.633Z" fill="#263238"/>
<path d="M491.943 481.224C492.029 481.178 492.663 482.188 493.678 483.821C494.691 485.456 496.112 487.697 497.704 490.164C499.299 492.63 500.707 494.899 501.634 496.595C502.566 498.287 503.053 499.381 502.977 499.422C502.891 499.468 502.259 498.458 501.227 496.836C500.047 495.013 498.667 492.882 497.142 490.526C495.546 488.056 494.181 485.76 493.268 484.059C492.355 482.358 491.867 481.265 491.943 481.224Z" fill="#263238"/>
<path d="M509.58 498.358C509.504 498.4 508.843 497.41 507.911 495.729C506.983 494.047 505.804 491.663 504.663 488.961C503.516 486.263 502.603 483.773 501.964 481.967C501.327 480.159 500.968 479.028 501.054 478.993C501.255 478.911 503.035 483.316 505.279 488.699C506.414 491.385 507.515 493.784 508.332 495.512C509.151 497.24 509.666 498.309 509.58 498.358Z" fill="#263238"/>
<path d="M515.77 497.047C515.687 497.083 515.173 496.12 514.458 494.508C513.742 492.898 512.841 490.634 511.989 488.083C511.137 485.53 510.497 483.178 510.1 481.462C509.703 479.744 509.538 478.665 509.624 478.645C509.814 478.6 510.922 482.8 512.623 487.871C514.31 492.946 515.948 496.968 515.77 497.047Z" fill="#263238"/>
<path d="M523.913 496.022C523.829 496.058 523.311 495.072 522.57 493.436C521.828 491.801 520.87 489.51 519.906 486.944C518.942 484.377 518.155 482.021 517.636 480.302C517.117 478.582 516.858 477.5 516.944 477.471C517.034 477.443 517.451 478.473 518.083 480.151C518.8 482.073 519.622 484.277 520.53 486.709C521.448 489.137 522.28 491.336 523.005 493.255C523.634 494.935 523.999 495.985 523.913 496.022Z" fill="#263238"/>
<path d="M352.866 495.902C359.609 500.908 369.004 501.031 376.967 498.359C384.928 495.688 391.81 490.596 398.613 485.672C405.416 480.748 412.466 475.829 420.561 473.592L401.668 435.746C401.668 435.746 383.568 442.864 371.473 456.572C361.686 467.664 339.42 462.62 339.42 462.62L352.866 495.902Z" fill="#FAFAFA"/>
<path d="M352.865 495.903C352.865 495.903 352.766 495.719 352.6 495.339C352.426 494.929 352.186 494.365 351.878 493.64C351.241 492.105 350.324 489.892 349.148 487.056C346.787 481.282 343.39 472.976 339.192 462.711L339.02 462.291L339.471 462.381C343.983 463.285 349.036 463.698 354.363 463.357C357.023 463.132 359.746 462.676 362.44 461.842C365.119 460.977 367.72 459.601 369.911 457.644C370.982 456.655 372.021 455.541 373.068 454.406C374.128 453.29 375.267 452.227 376.421 451.163C378.754 449.056 381.288 447.089 383.942 445.199C389.295 441.482 395.159 438.12 401.543 435.436L401.824 435.318L401.964 435.598C402.741 437.154 403.575 438.826 404.415 440.508C410.201 452.113 415.757 463.257 420.839 473.452L421.01 473.795L420.64 473.897C415.365 475.366 410.661 477.908 406.406 480.631C402.145 483.369 398.283 486.294 394.539 488.933C390.803 491.578 387.178 493.941 383.602 495.767C380.033 497.594 376.528 498.911 373.227 499.572C369.935 500.273 366.883 500.363 364.264 500.144C361.64 499.9 359.446 499.313 357.744 498.652C356.028 498.009 354.823 497.263 354.02 496.757C353.651 496.491 353.363 496.284 353.142 496.125C352.952 495.983 352.858 495.908 352.865 495.903C352.929 495.812 354.4 497.196 357.821 498.457C359.518 499.081 361.695 499.63 364.293 499.841C366.885 500.028 369.901 499.91 373.149 499.19C376.405 498.509 379.861 497.184 383.39 495.351C386.926 493.519 390.517 491.151 394.232 488.496C397.954 485.848 401.81 482.901 406.089 480.134C410.362 477.383 415.111 474.795 420.475 473.289L420.276 473.734C415.183 463.544 409.616 452.405 403.818 440.807C402.978 439.125 402.144 437.453 401.367 435.897L401.788 436.059C395.486 438.705 389.628 442.054 384.317 445.733C381.68 447.605 379.162 449.553 376.846 451.636C375.701 452.688 374.57 453.739 373.518 454.841C372.485 455.955 371.457 457.057 370.323 458.101C368.048 460.125 365.361 461.53 362.621 462.404C359.867 463.249 357.098 463.7 354.404 463.917C349.004 464.24 343.937 463.801 339.364 462.859L339.644 462.529C343.745 472.807 347.066 481.126 349.373 486.907C350.5 489.771 351.379 492.005 351.989 493.556C352.273 494.298 352.495 494.876 352.656 495.296C352.804 495.69 352.865 495.903 352.865 495.903Z" fill="#263238"/>
<path d="M364.259 493.494C364.09 493.567 361.578 488.134 358.651 481.359C355.723 474.582 353.486 469.031 353.656 468.958C353.825 468.885 356.335 474.317 359.265 481.093C362.192 487.868 364.428 493.421 364.259 493.494Z" fill="#263238"/>
<path d="M372.434 492.609C372.27 492.693 369.431 487.545 366.093 481.11C362.754 474.674 360.181 469.389 360.345 469.304C360.51 469.219 363.348 474.366 366.686 480.802C370.024 487.237 372.597 492.524 372.434 492.609Z" fill="#263238"/>
<path d="M378.512 490.179C378.425 490.217 377.77 488.931 376.724 486.85C375.679 484.767 374.227 481.898 372.551 478.766C370.875 475.635 369.292 472.835 368.14 470.81C366.988 468.786 366.28 467.527 366.362 467.476C366.436 467.428 367.286 468.598 368.546 470.566C369.805 472.533 371.459 475.308 373.142 478.451C374.823 481.593 376.213 484.509 377.152 486.647C378.091 488.787 378.593 490.143 378.512 490.179Z" fill="#263238"/>
<path d="M384.842 484.727C384.759 484.775 384.01 483.618 382.823 481.738C381.511 479.678 379.919 477.179 378.16 474.418C376.353 471.686 374.717 469.215 373.369 467.179C372.134 465.332 371.381 464.178 371.459 464.121C371.53 464.068 372.418 465.124 373.755 466.906C375.093 468.688 376.87 471.202 378.723 474.054C380.573 476.906 382.147 479.552 383.232 481.498C384.314 483.443 384.92 484.684 384.842 484.727Z" fill="#263238"/>
<path d="M390.953 480.196C390.881 480.25 389.972 479.185 388.592 477.397C387.21 475.609 385.366 473.09 383.42 470.243C381.475 467.396 379.799 464.761 378.633 462.825C377.467 460.889 376.806 459.657 376.883 459.609C376.964 459.559 377.766 460.703 379.032 462.571C380.42 464.62 382.107 467.112 383.974 469.867C385.862 472.606 387.571 475.083 388.976 477.12C390.253 478.975 391.029 480.139 390.953 480.196Z" fill="#263238"/>
<path d="M396.017 475.547C395.946 475.601 395.037 474.537 393.656 472.749C392.275 470.96 390.43 468.441 388.485 465.595C386.54 462.747 384.863 460.113 383.697 458.177C382.532 456.241 381.87 455.008 381.947 454.961C382.028 454.91 382.831 456.054 384.097 457.922C385.485 459.972 387.172 462.462 389.037 465.219C390.926 467.957 392.634 470.435 394.039 472.471C395.319 474.326 396.093 475.491 396.017 475.547Z" fill="#263238"/>
<path d="M401.582 471.733C401.43 471.839 398.097 467.378 394.138 461.768C390.176 456.158 387.088 451.524 387.24 451.418C387.39 451.311 390.723 455.772 394.685 461.382C398.643 466.993 401.732 471.626 401.582 471.733Z" fill="#263238"/>
<path d="M406.325 469.902C406.244 469.943 405.489 468.64 404.381 466.479C403.206 464.123 401.755 461.215 400.152 457.999C398.494 454.695 396.925 451.742 395.694 449.661C394.476 447.573 393.619 446.342 393.703 446.279C393.766 446.229 394.763 447.369 396.096 449.412C397.44 451.445 399.086 454.383 400.749 457.699C402.408 461.015 403.804 464.064 404.806 466.274C405.806 468.485 406.409 469.86 406.325 469.902Z" fill="#263238"/>
<path d="M152.846 457.406C159.589 462.412 168.985 462.536 176.947 459.865C184.909 457.193 191.79 452.102 198.593 447.178C205.397 442.254 212.446 437.334 220.541 435.098L201.649 397.252C201.649 397.252 183.549 404.368 171.454 418.078C161.667 429.17 139.4 424.126 139.4 424.126L152.846 457.406Z" fill="#FAFAFA"/>
<path d="M152.845 457.405C152.845 457.405 152.746 457.221 152.581 456.841C152.406 456.43 152.166 455.867 151.858 455.141C151.221 453.607 150.304 451.394 149.128 448.558C146.767 442.784 143.37 434.478 139.172 424.213L139 423.793L139.452 423.883C143.963 424.787 149.017 425.2 154.344 424.859C157.004 424.634 159.727 424.178 162.42 423.344C165.1 422.478 167.701 421.103 169.891 419.146C170.962 418.157 172.002 417.043 173.048 415.908C174.109 414.792 175.248 413.728 176.402 412.665C178.735 410.558 181.269 408.591 183.923 406.701C189.275 402.984 195.14 399.622 201.523 396.938L201.804 396.82L201.944 397.1C202.721 398.656 203.556 400.328 204.395 402.01C210.18 413.615 215.737 424.759 220.82 434.954L220.991 435.297L220.621 435.399C215.345 436.868 210.641 439.41 206.387 442.133C202.125 444.871 198.264 447.796 194.521 450.435C190.785 453.08 187.159 455.443 183.584 457.269C180.015 459.096 176.51 460.413 173.209 461.074C169.917 461.775 166.865 461.865 164.246 461.646C161.622 461.402 159.428 460.815 157.725 460.154C156.01 459.511 154.804 458.766 154.002 458.259C153.632 457.993 153.345 457.786 153.124 457.627C152.933 457.485 152.838 457.41 152.845 457.405C152.909 457.314 154.381 458.698 157.801 459.959C159.498 460.583 161.676 461.131 164.273 461.343C166.865 461.53 169.881 461.412 173.129 460.692C176.385 460.011 179.841 458.686 183.371 456.853C186.906 455.021 190.497 452.653 194.213 449.998C197.935 447.35 201.792 444.404 206.069 441.636C210.342 438.885 215.091 436.297 220.455 434.791L220.258 435.236C215.164 425.046 209.598 413.907 203.8 402.309C202.96 400.627 202.125 398.955 201.349 397.399L201.77 397.561C195.467 400.207 189.61 403.556 184.299 407.235C181.662 409.107 179.145 411.055 176.828 413.138C175.682 414.19 174.552 415.241 173.5 416.343C172.467 417.457 171.438 418.559 170.306 419.603C168.031 421.627 165.344 423.032 162.604 423.906C159.85 424.751 157.081 425.202 154.387 425.419C148.987 425.742 143.919 425.303 139.347 424.361L139.627 424.031C143.728 434.309 147.049 442.628 149.356 448.409C150.483 451.273 151.362 453.507 151.972 455.058C152.257 455.8 152.478 456.378 152.639 456.798C152.784 457.192 152.845 457.405 152.845 457.405Z" fill="#263238"/>
<path d="M164.238 454.996C164.068 455.07 161.557 449.636 158.63 442.863C155.701 436.086 153.465 430.535 153.634 430.462C153.804 430.388 156.315 435.821 159.243 442.597C162.17 449.371 164.407 454.923 164.238 454.996Z" fill="#263238"/>
<path d="M172.413 454.113C172.248 454.197 169.41 449.049 166.072 442.614C162.732 436.178 160.16 430.892 160.324 430.808C160.488 430.723 163.327 435.87 166.665 442.306C170.003 448.741 172.577 454.028 172.413 454.113Z" fill="#263238"/>
<path d="M178.487 451.683C178.4 451.721 177.745 450.435 176.699 448.354C175.654 446.272 174.202 443.402 172.527 440.27C170.851 437.139 169.268 434.339 168.115 432.314C166.963 430.289 166.254 429.031 166.337 428.98C166.411 428.932 167.261 430.102 168.52 432.07C169.78 434.037 171.434 436.812 173.117 439.954C174.799 443.097 176.188 446.013 177.126 448.151C178.066 450.291 178.568 451.647 178.487 451.683Z" fill="#263238"/>
<path d="M184.82 446.23C184.738 446.278 183.988 445.121 182.802 443.242C181.49 441.181 179.898 438.683 178.139 435.92C176.331 433.188 174.696 430.717 173.347 428.681C172.112 426.834 171.36 425.679 171.437 425.623C171.509 425.57 172.396 426.626 173.734 428.408C175.072 430.19 176.849 432.704 178.701 435.556C180.551 438.408 182.125 441.054 183.21 443C184.292 444.947 184.897 446.187 184.82 446.23Z" fill="#263238"/>
<path d="M190.931 441.7C190.86 441.754 189.951 440.689 188.57 438.901C187.189 437.113 185.344 434.594 183.399 431.747C181.454 428.9 179.777 426.265 178.611 424.329C177.446 422.393 176.784 421.16 176.862 421.113C176.942 421.063 177.745 422.207 179.011 424.075C180.397 426.124 182.086 428.615 183.951 431.371C185.84 434.11 187.548 436.587 188.953 438.624C190.233 440.479 191.007 441.643 190.931 441.7Z" fill="#263238"/>
<path d="M195.992 437.051C195.92 437.105 195.011 436.041 193.631 434.252C192.25 432.464 190.405 429.945 188.46 427.099C186.514 424.251 184.838 421.617 183.672 419.681C182.506 417.744 181.845 416.512 181.922 416.464C182.003 416.414 182.805 417.558 184.071 419.426C185.459 421.475 187.146 423.966 189.013 426.723C190.901 429.461 192.61 431.939 194.015 433.975C195.294 435.83 196.068 436.995 195.992 437.051Z" fill="#263238"/>
<path d="M201.56 433.236C201.409 433.343 198.076 428.882 194.116 423.272C190.154 417.662 187.067 413.028 187.218 412.922C187.368 412.815 190.701 417.275 194.663 422.887C198.623 428.496 201.712 433.13 201.56 433.236Z" fill="#263238"/>
<path d="M206.305 431.406C206.224 431.447 205.469 430.144 204.361 427.983C203.187 425.627 201.736 422.719 200.132 419.503C198.475 416.199 196.906 413.246 195.675 411.165C194.456 409.077 193.6 407.846 193.683 407.783C193.746 407.733 194.744 408.873 196.076 410.915C197.421 412.949 199.067 415.887 200.729 419.203C202.388 422.519 203.785 425.568 204.786 427.777C205.785 429.989 206.389 431.364 206.305 431.406Z" fill="#263238"/>
</svg>
