<svg width="650" height="650" viewBox="0 0 650 650" fill="none" xmlns="http://www.w3.org/2000/svg">
<g clip-path="url(#clip0_90_17082)">
<path d="M506.016 454.812C506.016 455.375 506.016 485.936 506.016 485.936H500.82V489.313H506.016V510.143H603.151V491.189H595.956V487.06H603.151V480.87H606.349V478.055H602.552V454.814H506.016V454.812Z" fill="#F5F5F5"/>
<path d="M577.355 454.904V509.799H603.15V490.845H595.955V487.063L603.15 487.19V480.997L606.41 481.001L606.348 477.802L602.551 477.708V454.812L577.355 454.904Z" fill="#E0E0E0"/>
<path d="M579.195 488.868C579.195 489.059 561.617 489.212 539.941 489.212C518.256 489.212 500.684 489.058 500.684 488.868C500.684 488.677 518.257 488.523 539.941 488.523C561.617 488.523 579.195 488.677 579.195 488.868Z" fill="#E0E0E0"/>
<path d="M579.195 485.706C579.195 485.897 561.617 486.052 539.941 486.052C518.256 486.052 500.684 485.897 500.684 485.706C500.684 485.516 518.257 485.361 539.941 485.361C561.617 485.361 579.195 485.516 579.195 485.706Z" fill="#E0E0E0"/>
<path d="M584.235 477.198C584.235 477.389 566.658 477.543 544.982 477.543C523.297 477.543 505.725 477.388 505.725 477.198C505.725 477.008 523.298 476.854 544.982 476.854C566.66 476.854 584.235 477.008 584.235 477.198Z" fill="#E0E0E0"/>
<path d="M584.72 500.384C584.72 500.575 567.143 500.728 545.466 500.728C523.781 500.728 506.209 500.573 506.209 500.384C506.209 500.194 523.782 500.039 545.466 500.039C567.144 500.039 584.72 500.194 584.72 500.384Z" fill="#E0E0E0"/>
<path d="M513.343 508.607C513.343 509.17 513.343 539.73 513.343 539.73H508.146V543.107H513.343V563.937H610.477V544.983H603.282V540.855H610.477V534.661H613.675V531.847H609.878V508.605H513.343V508.607Z" fill="#F5F5F5"/>
<path d="M584.684 508.698V563.594H610.478V544.64H603.283V540.857L610.478 540.985V534.792L613.739 534.797L613.676 531.597L609.879 531.503V508.607L584.684 508.698Z" fill="#E0E0E0"/>
<path d="M586.523 542.661C586.523 542.852 568.945 543.005 547.269 543.005C525.584 543.005 508.012 542.851 508.012 542.661C508.012 542.47 525.585 542.316 547.269 542.316C568.945 542.316 586.523 542.47 586.523 542.661Z" fill="#E0E0E0"/>
<path d="M586.523 539.501C586.523 539.692 568.945 539.847 547.269 539.847C525.584 539.847 508.012 539.692 508.012 539.501C508.012 539.311 525.585 539.156 547.269 539.156C568.945 539.156 586.523 539.311 586.523 539.501Z" fill="#E0E0E0"/>
<path d="M591.564 530.991C591.564 531.182 573.986 531.335 552.31 531.335C530.625 531.335 513.053 531.181 513.053 530.991C513.053 530.801 530.626 530.646 552.31 530.646C573.988 530.646 591.564 530.801 591.564 530.991Z" fill="#E0E0E0"/>
<path d="M592.048 554.177C592.048 554.368 574.471 554.521 552.795 554.521C531.109 554.521 513.537 554.366 513.537 554.177C513.537 553.987 531.111 553.832 552.795 553.832C574.471 553.832 592.048 553.987 592.048 554.177Z" fill="#E0E0E0"/>
<path d="M504.829 561.675C504.829 562.238 504.829 592.798 504.829 592.798H499.633V596.176H504.829V617.006H601.964V598.052H594.768V593.923H601.964V587.73H605.162V584.915H601.364V561.674H504.829V561.675Z" fill="#F5F5F5"/>
<path d="M576.17 561.767V616.661H601.964V597.707H594.769V593.925L601.964 594.054V587.86L605.224 587.864L605.163 584.664L601.365 584.57V561.676L576.17 561.767Z" fill="#E0E0E0"/>
<path d="M578.007 595.729C578.007 595.92 560.43 596.074 538.753 596.074C517.068 596.074 499.496 595.919 499.496 595.729C499.496 595.539 517.069 595.385 538.753 595.385C560.431 595.383 578.007 595.538 578.007 595.729Z" fill="#E0E0E0"/>
<path d="M578.007 592.569C578.007 592.76 560.43 592.914 538.753 592.914C517.068 592.914 499.496 592.759 499.496 592.569C499.496 592.379 517.069 592.225 538.753 592.225C560.431 592.225 578.007 592.378 578.007 592.569Z" fill="#E0E0E0"/>
<path d="M583.05 584.059C583.05 584.25 565.473 584.404 543.796 584.404C522.111 584.404 504.539 584.249 504.539 584.059C504.539 583.87 522.112 583.715 543.796 583.715C565.473 583.715 583.05 583.868 583.05 584.059Z" fill="#E0E0E0"/>
<path d="M583.534 607.245C583.534 607.436 565.957 607.589 544.281 607.589C522.596 607.589 505.023 607.435 505.023 607.245C505.023 607.055 522.597 606.9 544.281 606.9C565.957 606.9 583.534 607.055 583.534 607.245Z" fill="#E0E0E0"/>
<path d="M54.4285 454.812C54.4285 455.375 54.4285 485.936 54.4285 485.936H49.2324V489.313H54.4285V510.143H151.563V491.189H144.368V487.06H151.563V480.87H154.761V478.055H150.964V454.814H54.4285V454.812Z" fill="#F5F5F5"/>
<path d="M125.768 454.904V509.799H151.562V490.845H144.368V487.063L151.562 487.19V480.997L154.823 481.001L154.76 477.802L150.963 477.708V454.812L125.768 454.904Z" fill="#E0E0E0"/>
<path d="M127.607 488.868C127.607 489.059 110.029 489.212 88.3531 489.212C66.6678 489.212 49.0957 489.058 49.0957 488.868C49.0957 488.677 66.6691 488.523 88.3531 488.523C110.029 488.523 127.607 488.677 127.607 488.868Z" fill="#E0E0E0"/>
<path d="M127.607 485.706C127.607 485.897 110.029 486.052 88.3531 486.052C66.6678 486.052 49.0957 485.897 49.0957 485.706C49.0957 485.516 66.6691 485.361 88.3531 485.361C110.029 485.361 127.607 485.516 127.607 485.706Z" fill="#E0E0E0"/>
<path d="M132.65 477.198C132.65 477.389 115.072 477.543 93.3961 477.543C71.7108 477.543 54.1387 477.388 54.1387 477.198C54.1387 477.008 71.7121 476.854 93.3961 476.854C115.072 476.854 132.65 477.008 132.65 477.198Z" fill="#E0E0E0"/>
<path d="M133.134 500.384C133.134 500.575 115.557 500.728 93.8804 500.728C72.1951 500.728 54.623 500.573 54.623 500.384C54.623 500.194 72.1964 500.039 93.8804 500.039C115.557 500.039 133.134 500.194 133.134 500.384Z" fill="#E0E0E0"/>
<path d="M522.516 407.074C522.516 407.637 522.516 438.197 522.516 438.197H517.32V441.575H522.516V462.406H619.651V443.452H612.456V439.323H619.651V433.13H622.849V430.316H619.052V407.074H522.516Z" fill="#F5F5F5"/>
<path d="M593.855 407.164V462.059H619.65V443.105H612.455V439.323L619.65 439.451V433.259L622.91 433.263L622.848 430.062L619.051 429.969V407.074L593.855 407.164Z" fill="#E0E0E0"/>
<path d="M595.694 441.128C595.694 441.319 578.117 441.472 556.441 441.472C534.756 441.472 517.184 441.317 517.184 441.128C517.184 440.938 534.757 440.783 556.441 440.783C578.117 440.783 595.694 440.938 595.694 441.128Z" fill="#E0E0E0"/>
<path d="M595.694 437.966C595.694 438.157 578.117 438.31 556.441 438.31C534.756 438.31 517.184 438.155 517.184 437.966C517.184 437.776 534.757 437.621 556.441 437.621C578.117 437.621 595.694 437.776 595.694 437.966Z" fill="#E0E0E0"/>
<path d="M600.736 429.458C600.736 429.649 583.158 429.802 561.482 429.802C539.797 429.802 522.225 429.648 522.225 429.458C522.225 429.268 539.798 429.113 561.482 429.113C583.16 429.113 600.736 429.268 600.736 429.458Z" fill="#E0E0E0"/>
<path d="M601.22 452.645C601.22 452.836 583.643 452.991 561.966 452.991C540.281 452.991 522.709 452.836 522.709 452.645C522.709 452.455 540.282 452.301 561.966 452.301C583.644 452.301 601.22 452.455 601.22 452.645Z" fill="#E0E0E0"/>
<path d="M59.5861 508.607C59.5861 509.17 59.5861 539.73 59.5861 539.73H54.3887V543.107H59.5861V563.937H156.721V544.983H149.525V540.855H156.721V534.661H159.919V531.847H156.121V508.605H59.5861V508.607Z" fill="#F5F5F5"/>
<path d="M130.926 508.698V563.594H156.722V544.64H149.526V540.857L156.722 540.985V534.792L159.981 534.797L159.918 531.597L156.121 531.503V508.607L130.926 508.698Z" fill="#E0E0E0"/>
<path d="M132.764 542.661C132.764 542.852 115.187 543.005 93.5107 543.005C71.8254 543.005 54.252 542.851 54.252 542.661C54.252 542.47 71.8254 542.316 93.5107 542.316C115.188 542.316 132.764 542.47 132.764 542.661Z" fill="#E0E0E0"/>
<path d="M132.764 539.501C132.764 539.692 115.187 539.847 93.5107 539.847C71.8254 539.847 54.252 539.692 54.252 539.501C54.252 539.311 71.8254 539.156 93.5107 539.156C115.188 539.156 132.764 539.311 132.764 539.501Z" fill="#E0E0E0"/>
<path d="M137.808 530.991C137.808 531.182 120.23 531.335 98.5543 531.335C76.869 531.335 59.2969 531.181 59.2969 530.991C59.2969 530.801 76.8703 530.646 98.5543 530.646C120.23 530.646 137.808 530.801 137.808 530.991Z" fill="#E0E0E0"/>
<path d="M138.292 554.177C138.292 554.368 120.715 554.521 99.0386 554.521C77.3533 554.521 59.7812 554.366 59.7812 554.177C59.7812 553.987 77.3546 553.832 99.0386 553.832C120.715 553.832 138.292 553.987 138.292 554.177Z" fill="#E0E0E0"/>
<path d="M71.1727 561.675C71.1727 562.238 71.1727 592.798 71.1727 592.798H65.9766V596.176H71.1727V617.006H168.307V598.052H161.112V593.923H168.307V587.73H171.505V584.915H167.708V561.674H71.1727V561.675Z" fill="#F5F5F5"/>
<path d="M142.514 561.767V616.661H168.308V597.707H161.113V593.925L168.308 594.054V587.86L171.569 587.864L171.506 584.664L167.709 584.57V561.676L142.514 561.767Z" fill="#E0E0E0"/>
<path d="M144.351 595.729C144.351 595.92 126.773 596.074 105.097 596.074C83.4132 596.074 65.8398 595.919 65.8398 595.729C65.8398 595.539 83.4132 595.385 105.097 595.385C126.775 595.383 144.351 595.538 144.351 595.729Z" fill="#E0E0E0"/>
<path d="M144.351 592.569C144.351 592.76 126.773 592.914 105.097 592.914C83.4132 592.914 65.8398 592.759 65.8398 592.569C65.8398 592.379 83.4132 592.225 105.097 592.225C126.775 592.225 144.351 592.378 144.351 592.569Z" fill="#E0E0E0"/>
<path d="M149.394 584.059C149.394 584.25 131.816 584.404 110.14 584.404C88.4549 584.404 70.8828 584.249 70.8828 584.059C70.8828 583.87 88.4562 583.715 110.14 583.715C131.816 583.715 149.394 583.868 149.394 584.059Z" fill="#E0E0E0"/>
<path d="M149.878 607.245C149.878 607.436 132.301 607.589 110.625 607.589C88.9393 607.589 71.3672 607.435 71.3672 607.245C71.3672 607.055 88.9406 606.9 110.625 606.9C132.301 606.9 149.878 607.055 149.878 607.245Z" fill="#E0E0E0"/>
<path d="M392.075 562.355C392.075 562.901 392.075 592.519 392.075 592.519H387.039V595.792H392.075V615.98H486.215V597.611H479.242V593.609H486.215V587.607H489.314V584.879H485.634V562.354H392.075V562.355Z" fill="#F5F5F5"/>
<path d="M461.215 562.443V615.645H486.214V597.276H479.241V593.61L486.214 593.735V587.733L489.374 587.737L489.314 584.635L485.634 584.544V562.355L461.215 562.443Z" fill="#E0E0E0"/>
<path d="M462.997 595.359C462.997 595.544 445.961 595.694 424.953 595.694C403.938 595.694 386.906 595.544 386.906 595.359C386.906 595.175 403.938 595.025 424.953 595.025C445.963 595.025 462.997 595.175 462.997 595.359Z" fill="#E0E0E0"/>
<path d="M462.997 592.295C462.997 592.48 445.961 592.629 424.953 592.629C403.938 592.629 386.906 592.48 386.906 592.295C386.906 592.11 403.938 591.961 424.953 591.961C445.963 591.961 462.997 592.11 462.997 592.295Z" fill="#E0E0E0"/>
<path d="M467.883 584.049C467.883 584.234 450.848 584.383 429.84 584.383C408.824 584.383 391.793 584.234 391.793 584.049C391.793 583.864 408.824 583.715 429.84 583.715C450.849 583.715 467.883 583.864 467.883 584.049Z" fill="#E0E0E0"/>
<path d="M468.354 606.52C468.354 606.704 451.319 606.854 430.311 606.854C409.295 606.854 392.264 606.704 392.264 606.52C392.264 606.335 409.295 606.186 430.311 606.186C451.319 606.186 468.354 606.335 468.354 606.52Z" fill="#E0E0E0"/>
<path d="M217.936 508.607C217.936 509.17 217.936 539.73 217.936 539.73H212.74V543.107H217.936V563.937H315.071V544.983H307.876V540.855H315.071V534.661H318.269V531.847H314.472V508.605H217.936V508.607Z" fill="#F5F5F5"/>
<path d="M289.275 508.698V563.594H315.07V544.64H307.874V540.857L315.07 540.985V534.792L318.33 534.797L318.268 531.597L314.471 531.503V508.607L289.275 508.698Z" fill="#E0E0E0"/>
<path d="M291.114 542.661C291.114 542.852 273.537 543.005 251.861 543.005C230.176 543.005 212.604 542.851 212.604 542.661C212.604 542.47 230.177 542.316 251.861 542.316C273.537 542.316 291.114 542.47 291.114 542.661Z" fill="#E0E0E0"/>
<path d="M291.114 539.501C291.114 539.692 273.537 539.847 251.861 539.847C230.176 539.847 212.604 539.692 212.604 539.501C212.604 539.311 230.177 539.156 251.861 539.156C273.537 539.156 291.114 539.311 291.114 539.501Z" fill="#E0E0E0"/>
<path d="M296.157 530.991C296.157 531.182 278.58 531.335 256.904 531.335C235.219 531.335 217.646 531.181 217.646 530.991C217.646 530.801 235.22 530.646 256.904 530.646C278.58 530.646 296.157 530.801 296.157 530.991Z" fill="#E0E0E0"/>
<path d="M296.64 554.177C296.64 554.368 279.063 554.521 257.386 554.521C235.701 554.521 218.129 554.366 218.129 554.177C218.129 553.987 235.702 553.832 257.386 553.832C279.064 553.832 296.64 553.987 296.64 554.177Z" fill="#E0E0E0"/>
<path d="M209.423 561.675C209.423 562.238 209.423 592.798 209.423 592.798H204.227V596.176H209.423V617.006H306.557V598.052H299.362V593.923H306.557V587.73H309.755V584.915H305.958V561.674H209.423V561.675Z" fill="#F5F5F5"/>
<path d="M280.762 561.767V616.661H306.556V597.707H299.361V593.925L306.556 594.054V587.86L309.817 587.864L309.754 584.664L305.957 584.57V561.676L280.762 561.767Z" fill="#E0E0E0"/>
<path d="M282.6 595.729C282.6 595.92 265.023 596.074 243.347 596.074C221.661 596.074 204.088 595.919 204.088 595.729C204.088 595.539 221.661 595.385 243.347 595.385C265.023 595.383 282.6 595.538 282.6 595.729Z" fill="#E0E0E0"/>
<path d="M282.6 592.569C282.6 592.76 265.023 592.914 243.347 592.914C221.661 592.914 204.088 592.759 204.088 592.569C204.088 592.379 221.661 592.225 243.347 592.225C265.023 592.225 282.6 592.378 282.6 592.569Z" fill="#E0E0E0"/>
<path d="M287.642 584.059C287.642 584.25 270.064 584.404 248.388 584.404C226.703 584.404 209.131 584.249 209.131 584.059C209.131 583.87 226.704 583.715 248.388 583.715C270.066 583.715 287.642 583.868 287.642 584.059Z" fill="#E0E0E0"/>
<path d="M288.126 607.245C288.126 607.436 270.549 607.589 248.873 607.589C227.187 607.589 209.615 607.435 209.615 607.245C209.615 607.055 227.189 606.9 248.873 606.9C270.55 606.9 288.126 607.055 288.126 607.245Z" fill="#E0E0E0"/>
<path d="M29.4199 504.549C30.4716 512.987 36.9547 519.951 44.4804 523.911C52.0061 527.87 60.5471 529.346 68.91 530.881C77.2729 532.417 85.8074 534.136 93.1069 538.498L107.597 498.193C107.597 498.193 89.7243 489.921 71.2279 490.655C56.261 491.249 44.3777 471.422 44.3777 471.422L29.4199 504.549Z" fill="#E0E0E0"/>
<path d="M93.7031 606.965C107.215 593.041 122.351 585.43 141.681 583.749C137.117 576.636 129.005 562.772 124.44 555.658C100.149 555.788 81.2751 569.488 68.5078 589.903C77.4869 596.373 84.724 600.495 93.7031 606.965Z" fill="#E0E0E0"/>
<path d="M553.127 168.818C555.703 167.261 558.446 166.082 561.274 165.277L562.952 157.212L576.578 156.973L578.539 164.973C581.395 165.676 584.177 166.759 586.807 168.225L593.693 163.711L603.498 173.177L599.23 180.217C600.787 182.793 601.968 185.538 602.771 188.366L610.835 190.045L611.074 203.67L603.074 205.632C602.371 208.486 601.287 211.268 599.822 213.898L604.335 220.786L594.87 230.59L587.829 226.321C585.252 227.879 582.509 229.059 579.681 229.862L578.002 237.928L564.377 238.167L562.415 230.167C559.561 229.463 556.779 228.379 554.149 226.914L547.263 231.428L537.458 221.962L541.727 214.923C540.17 212.346 538.989 209.603 538.186 206.774L530.122 205.096L529.883 191.471L537.883 189.509C538.586 186.654 539.671 183.872 541.136 181.242L536.622 174.355L546.087 164.55L553.127 168.818ZM560.391 186.97C554.783 192.779 554.946 202.035 560.755 207.643C566.564 213.251 575.818 213.087 581.427 207.279C587.035 201.47 586.872 192.214 581.064 186.607C575.254 180.998 565.999 181.16 560.391 186.97Z" fill="#EBEBEB"/>
<path d="M82.1107 302.303C85.2164 300.426 88.5236 299.003 91.9348 298.034L93.9589 288.31L110.388 288.021L112.753 297.667C116.195 298.516 119.551 299.822 122.721 301.59L131.024 296.146L142.845 307.56L137.699 316.048C139.577 319.155 140.999 322.464 141.968 325.875L151.691 327.899L151.979 344.327L142.333 346.692C141.484 350.134 140.179 353.488 138.411 356.659L143.853 364.963L132.44 376.784L123.951 371.637C120.844 373.515 117.537 374.938 114.126 375.907L112.102 385.631L95.6723 385.918L93.3076 376.272C89.8652 375.423 86.5099 374.117 83.3392 372.35L75.0361 377.793L63.2152 366.379L68.3619 357.89C66.4847 354.783 65.0599 351.476 64.0927 348.065L54.3687 346.04L54.0801 329.612L63.7261 327.246C64.575 323.804 65.8815 320.449 67.6482 317.279L62.2064 308.976L73.6191 297.155L82.1107 302.303ZM90.8688 324.189C84.1062 331.193 84.3025 342.352 91.3069 349.114C98.31 355.875 109.469 355.679 116.232 348.676C122.993 341.673 122.798 330.512 115.794 323.751C108.789 316.989 97.6314 317.186 90.8688 324.189Z" fill="#EBEBEB"/>
<path d="M190.604 60.8532L39.3242 88.2188L61.0494 208.318L212.329 180.952L190.604 60.8532Z" fill="white"/>
<path d="M190.604 60.8532L39.3242 88.2188L45.0102 119.651L196.29 92.2857L190.604 60.8532Z" fill="#EBEBEB"/>
<path d="M78.0329 141.482C77.9965 141.457 77.8626 140.892 77.6429 139.86C77.4063 138.707 77.1034 137.236 76.7329 135.437C75.9698 131.65 74.909 126.312 73.7117 119.923L74.194 120.258C67.8734 121.421 60.4712 122.782 52.5737 124.234C52.4866 124.355 53.3056 123.178 52.9598 123.679L52.9611 123.685L52.9637 123.697L52.9676 123.72L52.9754 123.767L52.9923 123.859L53.0261 124.045L53.0924 124.416L53.225 125.154L53.4902 126.622C53.6657 127.596 53.8386 128.56 54.0102 129.514C54.3508 131.423 54.6849 133.291 55.0086 135.108C55.6469 138.735 56.2514 142.162 56.8065 145.321L56.3242 144.986C62.7293 143.869 68.1009 142.993 71.9151 142.382C73.7299 142.098 75.2132 141.867 76.3754 141.686C77.4206 141.53 77.9965 141.457 78.0329 141.482C78.0693 141.508 77.5636 141.63 76.5795 141.842C75.4511 142.075 74.0107 142.373 72.2505 142.735C68.4922 143.495 63.0465 144.574 56.4737 145.803L56.0668 145.88L55.9901 145.468C55.4051 142.314 54.7694 138.893 54.0973 135.272C53.7645 133.455 53.4226 131.589 53.0742 129.682C52.9 128.728 52.7245 127.763 52.5477 126.79L52.2812 125.323L52.1473 124.585L52.0797 124.214L52.0459 124.028L52.029 123.936L52.0199 123.889L52.016 123.866L52.0134 123.854L52.0121 123.849C51.665 124.347 52.4827 123.164 52.4008 123.286C60.3061 121.881 67.7161 120.564 74.0432 119.438L74.4553 119.365L74.5268 119.773C75.676 126.359 76.5717 131.837 77.1775 135.624C77.4544 137.401 77.6806 138.855 77.8574 139.992C78.0069 140.991 78.0693 141.508 78.0329 141.482Z" fill="#E0E0E0"/>
<path d="M106.352 136.361C106.315 136.336 106.182 135.771 105.962 134.739C105.724 133.586 105.422 132.115 105.052 130.316C104.287 126.53 103.228 121.191 102.031 114.802L102.514 115.137C96.1924 116.299 88.7915 117.661 80.894 119.113C80.8069 119.234 81.6259 118.057 81.2801 118.558L81.2814 118.563L81.284 118.574L81.2879 118.598L81.297 118.645L81.3139 118.737L81.3477 118.923L81.414 119.293L81.5466 120.032L81.8105 121.498C81.9847 122.472 82.1589 123.436 82.3305 124.391C82.6711 126.299 83.0052 128.167 83.3289 129.985C83.9672 133.612 84.5704 137.038 85.1268 140.197L84.6432 139.862C91.0483 138.745 96.4199 137.869 100.234 137.258C102.049 136.975 103.532 136.743 104.694 136.563C105.74 136.409 106.315 136.335 106.352 136.361C106.388 136.387 105.883 136.509 104.898 136.721C103.77 136.954 102.331 137.252 100.569 137.614C96.8112 138.373 91.3655 139.452 84.7927 140.682L84.3858 140.759L84.3091 140.347C83.7241 137.193 83.0884 133.771 82.4163 130.151C82.0835 128.334 81.7416 126.468 81.3932 124.561C81.219 123.607 81.0435 122.642 80.8667 121.668L80.6002 120.202L80.4663 119.464L80.4 119.093L80.3662 118.907L80.3493 118.815L80.3402 118.768L80.3363 118.745L80.3337 118.733L80.3324 118.728C79.9853 119.226 80.803 118.043 80.7211 118.165C88.6264 116.76 96.0364 115.443 102.365 114.317L102.777 114.244L102.848 114.652C103.998 121.238 104.893 126.718 105.499 130.503C105.776 132.28 106.001 133.732 106.179 134.871C106.326 135.87 106.388 136.386 106.352 136.361Z" fill="#E0E0E0"/>
<path d="M134.671 131.24C134.634 131.214 134.502 130.65 134.281 129.616C134.043 128.463 133.741 126.993 133.371 125.194C132.608 121.407 131.547 116.069 130.35 109.679L130.833 110.015C124.511 111.177 117.11 112.538 109.213 113.99C109.126 114.111 109.945 112.935 109.599 113.435L109.6 113.44L109.603 113.452L109.607 113.475L109.615 113.522L109.632 113.615L109.665 113.8L109.733 114.171L109.867 114.909L110.131 116.376C110.306 117.349 110.479 118.314 110.651 119.268C110.991 121.177 111.325 123.045 111.649 124.862C112.287 128.489 112.891 131.916 113.447 135.075L112.963 134.74C119.369 133.623 124.74 132.747 128.554 132.136C130.369 131.852 131.852 131.621 133.015 131.44C134.059 131.288 134.634 131.215 134.671 131.24C134.707 131.265 134.202 131.388 133.217 131.6C132.089 131.833 130.65 132.129 128.888 132.493C125.13 133.251 119.684 134.331 113.112 135.561L112.705 135.638L112.628 135.226C112.043 132.072 111.407 128.65 110.735 125.03C110.402 123.212 110.061 121.347 109.712 119.44C109.538 118.486 109.362 117.521 109.186 116.547L108.919 115.081L108.785 114.343L108.719 113.972L108.685 113.786L108.668 113.694L108.66 113.647L108.657 113.624L108.654 113.612L108.653 113.607C108.306 114.105 109.123 112.922 109.041 113.044C116.947 111.639 124.357 110.322 130.684 109.196L131.096 109.123L131.167 109.531C132.317 116.117 133.212 121.597 133.818 125.382C134.095 127.159 134.32 128.611 134.498 129.75C134.645 130.749 134.707 131.266 134.671 131.24Z" fill="#E0E0E0"/>
<path d="M162.991 126.118C162.955 126.094 162.821 125.528 162.601 124.496C162.363 123.343 162.062 121.872 161.691 120.073C160.928 116.286 159.867 110.949 158.67 104.559L159.152 104.894C152.832 106.057 145.43 107.418 137.532 108.87C137.445 108.991 138.264 107.814 137.918 108.315L137.919 108.32L137.922 108.332L137.926 108.355L137.934 108.402L137.951 108.494L137.984 108.68L138.051 109.051L138.185 109.789L138.449 111.257C138.624 112.23 138.797 113.195 138.969 114.149C139.309 116.058 139.643 117.926 139.967 119.743C140.605 123.37 141.208 126.797 141.765 129.956L141.281 129.62C147.686 128.504 153.058 127.628 156.872 127.017C158.687 126.733 160.17 126.502 161.332 126.321C162.379 126.166 162.955 126.092 162.991 126.118C163.028 126.144 162.522 126.266 161.538 126.478C160.409 126.711 158.97 127.009 157.209 127.371C153.451 128.131 148.005 129.21 141.432 130.439L141.025 130.516L140.948 130.104C140.363 126.95 139.728 123.529 139.056 119.908C138.723 118.091 138.381 116.225 138.033 114.318C137.86 113.364 137.684 112.399 137.506 111.427L137.24 109.961L137.106 109.222L137.039 108.852L137.006 108.667L136.989 108.575L136.981 108.528L136.977 108.505L136.974 108.493L136.973 108.488C136.626 108.986 137.444 107.803 137.362 107.925C145.267 106.519 152.677 105.203 159.004 104.077L159.416 104.004L159.488 104.412C160.637 110.998 161.533 116.476 162.138 120.263C162.415 122.04 162.64 123.492 162.818 124.631C162.965 125.627 163.028 126.143 162.991 126.118Z" fill="#E0E0E0"/>
<path d="M191.309 120.998C191.273 120.972 191.139 120.408 190.919 119.376C190.682 118.223 190.379 116.753 190.009 114.953C189.246 111.167 188.185 105.829 186.988 99.4392L187.471 99.7746C181.151 100.937 173.749 102.298 165.851 103.75C165.764 103.871 166.583 102.694 166.237 103.195L166.238 103.201L166.241 103.213L166.245 103.237L166.253 103.283L166.27 103.376L166.303 103.562L166.371 103.932L166.504 104.67L166.769 106.138C166.944 107.112 167.117 108.076 167.289 109.031C167.629 110.939 167.964 112.807 168.287 114.625C168.926 118.252 169.529 121.678 170.085 124.837L169.603 124.502C176.009 123.385 181.379 122.509 185.194 121.898C187.008 121.615 188.491 121.383 189.654 121.203C190.695 121.045 191.273 120.972 191.309 120.998C191.345 121.024 190.84 121.147 189.856 121.359C188.727 121.591 187.288 121.889 185.527 122.252C181.768 123.011 176.322 124.09 169.751 125.32L169.344 125.396L169.267 124.984C168.682 121.83 168.047 118.409 167.375 114.788C167.042 112.971 166.7 111.105 166.351 109.198C166.179 108.244 166.003 107.28 165.825 106.307L165.558 104.841L165.425 104.102L165.357 103.732L165.323 103.547L165.306 103.454L165.297 103.408L165.293 103.385L165.291 103.373L165.289 103.367C164.942 103.864 165.76 102.681 165.678 102.804C173.583 101.398 180.993 100.081 187.322 98.9556L187.734 98.8828L187.805 99.291C188.955 105.877 189.85 111.355 190.456 115.142C190.733 116.919 190.959 118.372 191.136 119.51C191.283 120.507 191.345 121.023 191.309 120.998Z" fill="#E0E0E0"/>
<path d="M83.0641 169.302C83.0277 169.278 82.8938 168.712 82.6741 167.68C82.4362 166.527 82.1346 165.057 81.7641 163.257C81.001 159.471 79.9402 154.133 78.7429 147.743L79.2265 148.079C72.9046 149.241 65.5037 150.602 57.6062 152.054C57.5191 152.175 58.3381 150.998 57.9923 151.499L57.9936 151.505L57.9962 151.517L58.0001 151.541L58.0092 151.587L58.0261 151.68L58.0599 151.866L58.1262 152.236L58.2601 152.974L58.524 154.442C58.6995 155.416 58.8724 156.38 59.044 157.335C59.3846 159.243 59.7187 161.111 60.0424 162.929C60.6807 166.556 61.2839 169.982 61.8403 173.141L61.3567 172.806C67.7631 171.689 73.1334 170.813 76.9476 170.202C78.7624 169.919 80.2457 169.687 81.4079 169.505C82.4518 169.351 83.0277 169.278 83.0641 169.302C83.1005 169.328 82.5948 169.451 81.6107 169.663C80.4823 169.895 79.0432 170.193 77.2817 170.556C73.5234 171.314 68.0777 172.394 61.5049 173.624L61.098 173.7L61.0213 173.29C60.4363 170.136 59.8006 166.714 59.1285 163.094C58.7957 161.276 58.4538 159.411 58.1041 157.504C57.9312 156.549 57.7544 155.585 57.5776 154.611L57.3111 153.145L57.1772 152.406L57.1096 152.036L57.0758 151.85L57.0589 151.758L57.0498 151.711L57.0459 151.687L57.0446 151.676L57.0433 151.669C56.6962 152.167 57.5139 150.984 57.432 151.106C65.3373 149.701 72.7473 148.383 79.0744 147.258L79.4865 147.186L79.558 147.594C80.7072 154.18 81.6029 159.659 82.2087 163.445C82.4856 165.222 82.7105 166.675 82.8886 167.813C83.0381 168.811 83.1005 169.328 83.0641 169.302Z" fill="#E0E0E0"/>
<path d="M111.384 164.181C111.347 164.155 111.213 163.59 110.994 162.558C110.756 161.405 110.454 159.935 110.084 158.136C109.321 154.349 108.26 149.011 107.063 142.622L107.546 142.957C101.224 144.119 93.8234 145.48 85.9259 146.932C85.8388 147.053 86.6578 145.877 86.312 146.377L86.3133 146.382L86.3159 146.394L86.3198 146.417L86.3289 146.464L86.3458 146.557L86.3796 146.741L86.4459 147.112L86.5798 147.85L86.8437 149.317C87.0179 150.29 87.1921 151.255 87.3637 152.209C87.7043 154.117 88.0384 155.986 88.3621 157.803C89.0004 161.43 89.6036 164.857 90.16 168.016L89.6764 167.68C96.0828 166.564 101.453 165.687 105.267 165.076C107.082 164.793 108.565 164.562 109.728 164.381C110.771 164.229 111.347 164.156 111.384 164.181C111.42 164.205 110.914 164.329 109.93 164.541C108.802 164.774 107.363 165.071 105.601 165.434C101.843 166.193 96.3974 167.272 89.8259 168.502L89.419 168.579L89.3423 168.167C88.7573 165.013 88.1216 161.591 87.4495 157.971C87.1167 156.153 86.7748 154.288 86.4264 152.381C86.2522 151.426 86.0767 150.462 85.8999 149.488L85.6334 148.022L85.4995 147.283L85.4319 146.913L85.3981 146.727L85.3812 146.635L85.3721 146.588L85.3682 146.564L85.3669 146.553L85.3656 146.546C85.0185 147.044 85.8362 145.861 85.7543 145.983C93.6596 144.578 101.07 143.261 107.398 142.135L107.81 142.062L107.882 142.471C109.031 149.057 109.926 154.536 110.532 158.322C110.809 160.099 111.034 161.551 111.212 162.69C111.358 163.689 111.42 164.205 111.384 164.181Z" fill="#E0E0E0"/>
<path d="M139.703 159.06C139.666 159.036 139.532 158.47 139.313 157.438C139.076 156.285 138.773 154.814 138.403 153.015C137.64 149.228 136.579 143.891 135.382 137.501L135.864 137.836C129.543 138.999 122.141 140.36 114.244 141.812C114.156 141.933 114.975 140.756 114.63 141.257L114.631 141.262L114.634 141.274L114.637 141.297L114.647 141.344L114.663 141.436L114.697 141.622L114.764 141.993L114.897 142.731L115.161 144.199C115.337 145.172 115.51 146.137 115.681 147.091C116.022 149 116.356 150.868 116.68 152.685C117.318 156.312 117.921 159.739 118.478 162.898L117.994 162.562C124.399 161.446 129.771 160.57 133.585 159.959C135.4 159.675 136.883 159.444 138.045 159.262C139.09 159.107 139.666 159.034 139.703 159.06C139.739 159.086 139.233 159.208 138.249 159.42C137.121 159.653 135.682 159.951 133.92 160.313C130.162 161.071 124.716 162.152 118.144 163.381L117.737 163.458L117.66 163.046C117.075 159.892 116.439 156.471 115.767 152.85C115.434 151.033 115.092 149.167 114.744 147.26C114.57 146.306 114.394 145.341 114.218 144.368L113.951 142.901L113.817 142.163L113.75 141.792L113.716 141.606L113.699 141.514L113.69 141.467L113.686 141.444L113.683 141.432L113.682 141.427C113.335 141.925 114.153 140.742 114.071 140.864C121.976 139.459 129.386 138.142 135.713 137.016L136.125 136.943L136.197 137.352C137.346 143.937 138.242 149.416 138.847 153.202C139.124 154.98 139.349 156.432 139.527 157.57C139.677 158.569 139.739 159.085 139.703 159.06Z" fill="#E0E0E0"/>
<path d="M168.021 153.938C167.985 153.913 167.851 153.348 167.631 152.315C167.395 151.162 167.092 149.692 166.721 147.893C165.957 144.106 164.897 138.768 163.7 132.379L164.182 132.714C157.862 133.876 150.459 135.237 142.562 136.689C142.475 136.81 143.294 135.634 142.948 136.134L142.949 136.141L142.952 136.153L142.956 136.176L142.965 136.223L142.982 136.315L143.016 136.501L143.083 136.871L143.217 137.61L143.481 139.078C143.655 140.051 143.829 141.016 144.001 141.97C144.342 143.878 144.676 145.745 144.999 147.564C145.638 151.191 146.241 154.618 146.797 157.777L146.314 157.441C152.719 156.325 158.09 155.448 161.905 154.837C163.719 154.554 165.203 154.323 166.365 154.142C167.408 153.986 167.985 153.913 168.021 153.938C168.058 153.964 167.552 154.086 166.568 154.298C165.439 154.531 163.999 154.828 162.239 155.191C158.48 155.949 153.035 157.029 146.462 158.259L146.055 158.336L145.978 157.924C145.393 154.77 144.758 151.348 144.086 147.728C143.753 145.91 143.411 144.045 143.061 142.138C142.887 141.184 142.713 140.219 142.535 139.247L142.268 137.78L142.134 137.042L142.067 136.671L142.033 136.487L142.016 136.394L142.008 136.348L142.004 136.324L142.002 136.312L142 136.306C141.653 136.804 142.471 135.621 142.389 135.743C150.294 134.338 157.704 133.02 164.031 131.895L164.444 131.822L164.515 132.23C165.664 138.816 166.56 144.294 167.166 148.081C167.443 149.858 167.669 151.312 167.846 152.449C167.995 153.446 168.058 153.964 168.021 153.938Z" fill="#E0E0E0"/>
<path d="M196.339 148.819C196.303 148.793 196.169 148.229 195.949 147.196C195.713 146.043 195.41 144.573 195.039 142.774C194.275 138.988 193.216 133.649 192.018 127.26L192.502 127.595C186.181 128.757 178.779 130.118 170.882 131.57C170.795 131.691 171.613 130.515 171.268 131.015L171.269 131.022L171.272 131.033L171.275 131.057L171.283 131.104L171.3 131.196L171.334 131.382L171.4 131.752L171.533 132.491L171.798 133.958C171.972 134.932 172.146 135.897 172.318 136.851C172.659 138.759 172.992 140.626 173.317 142.445C173.955 146.072 174.558 149.499 175.114 152.658L174.631 152.322C181.036 151.206 186.408 150.329 190.222 149.718C192.037 149.435 193.52 149.204 194.682 149.023C195.727 148.867 196.303 148.793 196.339 148.819C196.376 148.843 195.87 148.967 194.886 149.179C193.758 149.412 192.319 149.708 190.557 150.072C186.799 150.831 181.353 151.91 174.78 153.14L174.373 153.217L174.297 152.805C173.712 149.651 173.076 146.229 172.404 142.609C172.071 140.791 171.729 138.926 171.379 137.019C171.207 136.064 171.031 135.1 170.853 134.126L170.586 132.66L170.453 131.921L170.385 131.551L170.351 131.366L170.334 131.274L170.326 131.227L170.323 131.204L170.32 131.192L170.319 131.187C169.972 131.685 170.789 130.502 170.707 130.624C178.613 129.219 186.023 127.9 192.35 126.776L192.762 126.703L192.833 127.111C193.983 133.697 194.878 139.175 195.484 142.962C195.761 144.739 195.987 146.191 196.164 147.33C196.314 148.327 196.376 148.843 196.339 148.819Z" fill="#E0E0E0"/>
<path d="M83.8513 173.622L62.2188 177.535L66.132 199.168L87.7645 195.254L83.8513 173.622Z" fill="#E0E0E0"/>
<path d="M116.079 190.146C116.043 190.121 115.909 189.555 115.689 188.523C115.451 187.37 115.15 185.9 114.779 184.101C114.016 180.314 112.955 174.977 111.758 168.586L112.241 168.922C105.92 170.084 98.5187 171.445 90.6212 172.897C90.5341 173.018 91.3531 171.842 91.0073 172.342L91.0086 172.349L91.0112 172.36L91.0151 172.384L91.0229 172.43L91.0398 172.524L91.0736 172.709L91.1412 173.079L91.2738 173.818L91.539 175.285C91.7132 176.259 91.8874 177.224 92.059 178.178C92.3996 180.086 92.7337 181.954 93.0574 183.772C93.6957 187.399 94.2989 190.825 94.8553 193.984L94.3717 193.649C100.777 192.532 106.148 191.656 109.963 191.045C111.777 190.762 113.261 190.53 114.423 190.35C115.467 190.194 116.043 190.12 116.079 190.146C116.115 190.172 115.61 190.294 114.626 190.506C113.497 190.738 112.058 191.035 110.297 191.399C106.538 192.158 101.093 193.237 94.5199 194.467L94.113 194.543L94.0363 194.131C93.4513 190.978 92.8156 187.556 92.1435 183.935C91.8107 182.118 91.4688 180.253 91.1191 178.345C90.9462 177.391 90.7707 176.427 90.5926 175.454L90.3261 173.988L90.1922 173.249L90.1246 172.879L90.0908 172.693L90.0739 172.599L90.0648 172.553L90.0609 172.529L90.0583 172.518L90.057 172.511C89.7099 173.009 90.5276 171.826 90.4457 171.948C98.351 170.543 105.761 169.226 112.089 168.1L112.501 168.027L112.573 168.436C113.722 175.021 114.618 180.501 115.224 184.286C115.501 186.064 115.725 187.516 115.904 188.654C116.053 189.654 116.115 190.17 116.079 190.146Z" fill="#E0E0E0"/>
<path d="M144.397 185.024C144.36 184.998 144.227 184.434 144.007 183.401C143.769 182.248 143.467 180.778 143.097 178.979C142.332 175.192 141.273 169.855 140.076 163.465L140.559 163.8C134.237 164.962 126.836 166.323 118.939 167.775C118.852 167.896 119.671 166.72 119.325 167.22L119.326 167.227L119.329 167.239L119.333 167.262L119.342 167.309L119.359 167.401L119.393 167.587L119.459 167.957L119.592 168.696L119.857 170.164C120.031 171.137 120.205 172.102 120.377 173.056C120.717 174.964 121.051 176.833 121.375 178.65C122.013 182.277 122.617 185.704 123.173 188.863L122.689 188.527C129.096 187.411 134.466 186.534 138.28 185.923C140.095 185.64 141.578 185.409 142.741 185.228C143.783 185.072 144.36 184.999 144.397 185.024C144.433 185.049 143.928 185.172 142.943 185.384C141.815 185.617 140.376 185.914 138.614 186.277C134.856 187.035 129.41 188.115 122.838 189.345L122.431 189.422L122.354 189.01C121.769 185.856 121.133 182.434 120.461 178.814C120.128 176.996 119.786 175.131 119.438 173.224C119.265 172.269 119.088 171.305 118.912 170.332L118.645 168.866L118.511 168.128L118.445 167.757L118.411 167.571L118.394 167.479L118.385 167.432L118.381 167.409L118.379 167.397L118.377 167.392C118.03 167.89 118.848 166.707 118.766 166.829C126.671 165.424 134.081 164.107 140.408 162.981L140.82 162.908L140.892 163.316C142.041 169.902 142.937 175.38 143.543 179.167C143.82 180.944 144.046 182.397 144.223 183.537C144.371 184.532 144.433 185.05 144.397 185.024Z" fill="#E0E0E0"/>
<path d="M172.718 179.903C172.681 179.877 172.547 179.311 172.328 178.28C172.09 177.127 171.788 175.657 171.418 173.858C170.655 170.071 169.594 164.734 168.397 158.344L168.88 158.679C162.558 159.841 155.157 161.202 147.26 162.654C147.173 162.775 147.992 161.599 147.646 162.099L147.647 162.106L147.65 162.117L147.654 162.141L147.663 162.188L147.68 162.28L147.714 162.466L147.781 162.836L147.915 163.575L148.179 165.042C148.354 166.016 148.527 166.981 148.699 167.935C149.04 169.843 149.374 171.711 149.699 173.529C150.337 177.156 150.94 180.583 151.497 183.742L151.014 183.406C157.419 182.29 162.791 181.413 166.605 180.802C168.42 180.519 169.903 180.288 171.065 180.107C172.104 179.951 172.681 179.877 172.718 179.903C172.754 179.927 172.248 180.051 171.264 180.263C170.136 180.496 168.697 180.793 166.935 181.156C163.177 181.914 157.731 182.994 151.159 184.224L150.752 184.301L150.675 183.889C150.09 180.735 149.454 177.313 148.782 173.693C148.449 171.875 148.107 170.01 147.759 168.103C147.586 167.148 147.409 166.184 147.233 165.211L146.966 163.745L146.832 163.007L146.766 162.636L146.732 162.45L146.715 162.358L146.707 162.311L146.703 162.288L146.701 162.276L146.7 162.271C146.352 162.769 147.17 161.586 147.088 161.708C154.994 160.303 162.404 158.984 168.731 157.86L169.143 157.787L169.214 158.195C170.363 164.781 171.259 170.259 171.866 174.046C172.143 175.823 172.368 177.277 172.546 178.414C172.692 179.411 172.754 179.927 172.718 179.903Z" fill="#E0E0E0"/>
<path d="M201.035 174.78C200.999 174.755 200.865 174.189 200.645 173.157C200.409 172.004 200.106 170.534 199.735 168.735C198.972 164.949 197.912 159.611 196.714 153.22L197.198 153.556C190.877 154.718 183.475 156.079 175.578 157.531C175.49 157.652 176.309 156.476 175.964 156.976L175.965 156.983L175.968 156.994L175.971 157.018L175.979 157.065L175.996 157.157L176.03 157.343L176.096 157.713L176.23 158.452L176.495 159.918C176.671 160.892 176.844 161.856 177.015 162.811C177.356 164.719 177.69 166.587 178.014 168.404C178.652 172.031 179.255 175.458 179.812 178.617L179.329 178.282C185.736 177.165 191.106 176.289 194.92 175.678C196.735 175.395 198.218 175.163 199.381 174.982C200.422 174.828 200.999 174.755 201.035 174.78C201.072 174.806 200.566 174.928 199.582 175.14C198.454 175.372 197.013 175.67 195.252 176.033C191.493 176.791 186.048 177.871 179.476 179.101L179.069 179.178L178.993 178.765C178.408 175.612 177.772 172.19 177.1 168.57C176.767 166.752 176.425 164.887 176.077 162.98C175.904 162.025 175.727 161.061 175.55 160.088L175.284 158.622L175.15 157.884L175.082 157.513L175.048 157.327L175.032 157.235L175.024 157.188L175.02 157.165L175.017 157.153L175.016 157.148C174.669 157.646 175.487 156.463 175.405 156.585C183.31 155.18 190.72 153.861 197.047 152.737L197.459 152.664L197.531 153.072C198.68 159.658 199.576 165.136 200.181 168.923C200.458 170.7 200.684 172.154 200.861 173.292C201.009 174.29 201.072 174.806 201.035 174.78Z" fill="#E0E0E0"/>
<path d="M74.0855 92.2118L71.1579 92.7409C70.1205 92.9281 69.1273 92.2391 68.9388 91.2017L66.0307 75.1129C65.8435 74.0755 66.5325 73.0823 67.5699 72.8938L70.4975 72.3647C71.5349 72.1775 72.5281 72.8665 72.7166 73.9039L75.626 89.9927C75.8132 91.0301 75.1242 92.0246 74.0855 92.2118Z" fill="#E0E0E0"/>
<path d="M117.557 84.3517L114.63 84.8808C113.592 85.068 112.599 84.379 112.411 83.3416L109.501 67.2528C109.314 66.2154 110.003 65.2222 111.041 65.0337L113.968 64.5033C115.006 64.3161 115.999 65.0051 116.187 66.0425L119.097 82.1313C119.284 83.17 118.595 84.1645 117.557 84.3517Z" fill="#E0E0E0"/>
<path d="M161.026 76.4898L158.099 77.0202C157.061 77.2087 156.067 76.5184 155.88 75.481L152.97 59.3922C152.783 58.3548 153.472 57.3616 154.509 57.1731L157.437 56.644C158.474 56.4568 159.468 57.1458 159.656 58.1832L162.565 74.272C162.753 75.3081 162.064 76.3013 161.026 76.4898Z" fill="#E0E0E0"/>
<path d="M212.717 183.115C212.717 183.115 212.545 182.334 212.262 180.852C211.978 179.345 211.567 177.161 211.033 174.318C209.971 168.582 208.423 160.214 206.449 149.548C202.54 128.214 196.953 97.7143 190.214 60.9373L190.679 61.2597C147.423 69.1052 95.3852 78.5445 39.4215 88.6949L39.4085 88.6975L39.7959 88.1385C47.7675 132.323 55.2971 174.056 61.853 210.397L61.3538 210.051C106.287 202.015 144.066 195.259 170.642 190.506C183.94 188.15 194.428 186.294 201.625 185.018C205.204 184.394 207.957 183.913 209.85 183.583C210.769 183.428 211.473 183.309 211.977 183.223C212.458 183.145 212.717 183.115 212.717 183.115C212.717 183.115 212.496 183.172 212.034 183.263C211.543 183.358 210.856 183.491 209.962 183.664C208.093 184.014 205.373 184.523 201.838 185.185C194.673 186.507 184.23 188.435 170.992 190.879C144.369 195.747 106.521 202.667 61.5072 210.897L61.0847 210.974L61.008 210.55C54.4209 174.214 46.8575 132.488 38.8495 88.3101L38.7637 87.8369L39.2369 87.7511L39.2499 87.7485C95.224 77.6566 147.272 68.2719 190.536 60.4719L190.931 60.4004L191.001 60.7943C197.59 97.7078 203.052 128.314 206.873 149.727C208.753 160.37 210.227 168.722 211.239 174.446C211.727 177.264 212.103 179.428 212.363 180.921C212.614 182.381 212.717 183.115 212.717 183.115Z" fill="#E0E0E0"/>
<path d="M466.37 70.0291C470.461 67.5565 474.816 65.6832 479.307 64.4066L481.972 51.6003L503.61 51.2207L506.723 63.9243C511.258 65.041 515.676 66.7622 519.852 69.0892L530.787 61.921L546.355 76.9529L539.577 88.1316C542.049 92.224 543.924 96.5803 545.199 101.072L558.004 103.737L558.384 125.373L545.68 128.487C544.564 133.021 542.842 137.438 540.515 141.615L547.682 152.55L532.653 168.119L521.474 161.341C517.382 163.814 513.027 165.687 508.534 166.964L505.869 179.77L484.233 180.149L481.118 167.446C476.585 166.328 472.167 164.608 467.991 162.281L457.057 169.449L441.488 154.419L448.266 143.24C445.793 139.149 443.919 134.794 442.644 130.301L429.839 127.636L429.459 106L442.163 102.885C443.279 98.3522 445.002 93.9335 447.327 89.7579L440.161 78.8223L455.19 63.2548L466.37 70.0291ZM477.905 98.8527C469 108.076 469.257 122.773 478.482 131.678C487.705 140.583 502.402 140.324 511.306 131.1C520.209 121.877 519.952 107.18 510.728 98.2755C501.505 89.3705 486.81 89.6292 477.905 98.8527Z" fill="#EBEBEB"/>
<path d="M577.666 616.25C577.666 616.437 463.37 616.588 322.411 616.588C181.404 616.588 67.1328 616.436 67.1328 616.25C67.1328 616.064 181.404 615.912 322.411 615.912C463.37 615.911 577.666 616.063 577.666 616.25Z" fill="#263238"/>
<path d="M353.318 62.4277H328.207V101.616H353.318V62.4277Z" fill="#263238"/>
<path d="M366.782 74.1476H315.061V31.9093C333.167 27.449 350.461 27.176 366.782 31.9093V74.1476Z" fill="#EC8305"/>
<path d="M367.392 32.0877C367.415 32.1436 366.736 32.4764 365.483 33.0341C364.238 33.6074 362.376 34.3055 360.036 35.0387C357.699 35.7875 354.849 36.4726 351.649 37.0277C348.442 37.5373 344.878 37.8896 341.125 37.9234C337.372 37.9247 333.804 37.6062 330.591 37.1278C327.385 36.6039 324.529 35.9461 322.184 35.2194C319.836 34.507 317.968 33.8284 316.718 33.2668C315.459 32.7221 314.777 32.3958 314.801 32.3399C314.864 32.1852 317.656 33.3591 322.353 34.6201C324.697 35.2636 327.535 35.8512 330.71 36.3244C333.891 36.7534 337.414 37.042 341.119 37.0407C344.822 37.0056 348.341 36.6832 351.519 36.2243C354.688 35.7199 357.519 35.1063 359.858 34.4394C364.546 33.1342 367.328 31.933 367.392 32.0877Z" fill="#263238"/>
<path d="M332.148 74.0305C331.905 74.0305 331.707 65.9211 331.707 55.9202C331.707 45.9167 331.905 37.8086 332.148 37.8086C332.391 37.8086 332.588 45.9167 332.588 55.9202C332.588 65.9211 332.391 74.0305 332.148 74.0305Z" fill="#263238"/>
<path d="M341.989 74.277C341.744 74.277 341.547 66.1312 341.547 56.0861C341.547 46.0371 341.744 37.8926 341.989 37.8926C342.232 37.8926 342.43 46.0371 342.43 56.0861C342.43 66.1312 342.232 74.277 341.989 74.277Z" fill="#263238"/>
<path d="M351.829 74.1123C351.586 74.1123 351.389 65.9665 351.389 55.9201C351.389 45.8711 351.586 37.7266 351.829 37.7266C352.072 37.7266 352.27 45.8711 352.27 55.9201C352.271 65.9665 352.074 74.1123 351.829 74.1123Z" fill="#263238"/>
<path d="M360.025 74.1134C359.78 74.1134 359.584 65.3085 359.584 54.4509C359.584 43.5894 359.782 34.7871 360.025 34.7871C360.268 34.7871 360.465 43.5894 360.465 54.4509C360.465 65.3085 360.269 74.1134 360.025 74.1134Z" fill="#263238"/>
<path d="M322.843 73.8608C322.6 73.8608 322.402 65.0559 322.402 54.1983C322.402 43.3368 322.6 34.5332 322.843 34.5332C323.086 34.5332 323.284 43.3355 323.284 54.1983C323.285 65.0559 323.087 73.8608 322.843 73.8608Z" fill="#263238"/>
<path d="M496.313 125.982L483.768 112.854L463.279 132.433L475.824 145.561L496.313 125.982Z" fill="#263238"/>
<path d="M496.903 138.865L471.062 111.824L493.147 90.7207C504.524 97.9591 513.307 106.864 518.987 117.762L496.903 138.865Z" fill="#EC8305"/>
<path d="M475.388 116.349C475.242 116.2 480.25 111.126 486.568 105.019C492.89 98.9087 498.129 94.0792 498.274 94.23C498.419 94.3795 493.414 99.4521 487.093 105.562C480.774 111.67 475.532 116.5 475.388 116.349Z" fill="#263238"/>
<path d="M480.313 121.504C480.243 121.426 481.534 120.135 483.672 118.105C485.811 116.074 488.798 113.306 492.119 110.272C495.37 107.329 498.309 104.668 500.657 102.542C501.649 101.657 502.512 100.885 503.258 100.219C503.885 99.6656 504.189 99.3848 504.223 99.3809C504.506 99.6461 499.269 104.765 492.627 110.831C489.305 113.867 486.261 116.573 484.03 118.503C481.8 120.43 480.383 121.582 480.313 121.504Z" fill="#263238"/>
<path d="M486.868 128.366C486.798 128.288 488.107 126.988 490.276 124.946C492.446 122.904 495.477 120.119 498.847 117.072C502.156 114.119 505.146 111.451 507.531 109.322C508.547 108.44 509.431 107.671 510.194 107.01C510.843 106.452 511.142 106.218 511.204 106.197C511.33 106.284 510.034 107.664 507.893 109.716C505.745 111.785 502.727 114.584 499.353 117.633C495.981 120.682 492.893 123.403 490.633 125.345C488.373 127.283 486.938 128.443 486.868 128.366Z" fill="#263238"/>
<path d="M493.005 134.611C492.862 134.461 497.932 129.419 504.329 123.352C510.729 117.284 516.032 112.489 516.175 112.64C516.318 112.791 511.249 117.831 504.849 123.899C498.452 129.967 493.148 134.762 493.005 134.611Z" fill="#263238"/>
<path d="M179.904 124.051L166.289 136.066L185.041 157.315L198.656 145.299L179.904 124.051Z" fill="#263238"/>
<path d="M192.809 123.972L164.764 148.719L144.553 125.815C152.236 114.733 161.483 106.31 172.598 101.068L192.809 123.972Z" fill="#EC8305"/>
<path d="M169.459 144.577C169.303 144.716 164.432 139.512 158.58 132.956C152.726 126.397 148.109 120.97 148.264 120.831C148.42 120.692 153.289 125.894 159.143 132.453C164.996 139.009 169.615 144.438 169.459 144.577Z" fill="#263238"/>
<path d="M174.805 139.858C174.724 139.924 173.485 138.584 171.54 136.366C169.597 134.149 166.949 131.055 164.048 127.616C161.235 124.25 158.694 121.208 156.663 118.777C155.818 117.752 155.081 116.857 154.444 116.085C153.916 115.436 153.646 115.12 153.645 115.088C153.921 114.815 158.828 120.252 164.626 127.129C167.527 130.567 170.11 133.717 171.95 136.023C173.789 138.329 174.884 139.792 174.805 139.858Z" fill="#263238"/>
<path d="M181.92 133.582C181.84 133.648 180.593 132.29 178.638 130.041C176.683 127.792 174.022 124.653 171.11 121.164C168.291 117.741 165.743 114.647 163.711 112.18C162.87 111.13 162.137 110.216 161.507 109.428C160.975 108.757 160.754 108.45 160.734 108.387C160.827 108.264 162.153 109.614 164.12 111.834C166.101 114.062 168.777 117.189 171.691 120.681C174.603 124.171 177.2 127.364 179.05 129.7C180.899 132.035 182.001 133.514 181.92 133.582Z" fill="#263238"/>
<path d="M188.405 127.699C188.248 127.836 183.412 122.569 177.605 115.936C171.795 109.301 167.214 103.812 167.371 103.675C167.528 103.537 172.363 108.803 178.173 115.438C183.98 122.072 188.561 127.562 188.405 127.699Z" fill="#263238"/>
<path d="M482.265 436.887C563.105 356.047 563.105 224.98 482.265 144.14C401.425 63.3002 270.358 63.3002 189.518 144.14C108.678 224.98 108.678 356.047 189.518 436.887C270.358 517.727 401.425 517.727 482.265 436.887Z" fill="#EC8305"/>
<path d="M470.367 424.987C544.635 350.718 544.635 230.305 470.367 156.037C396.098 81.7681 275.685 81.7681 201.416 156.037C127.148 230.305 127.148 350.718 201.416 424.987C275.685 499.255 396.098 499.255 470.367 424.987Z" fill="white"/>
<path d="M335.897 481.339C230.673 481.339 145.068 395.734 145.068 290.511C145.068 185.289 230.673 99.6836 335.897 99.6836C441.119 99.6836 526.724 185.289 526.724 290.511C526.722 395.734 441.119 481.339 335.897 481.339ZM335.897 100.984C231.39 100.984 146.368 186.005 146.368 290.511C146.368 395.016 231.39 480.039 335.897 480.039C440.402 480.039 525.424 395.018 525.424 290.511C525.422 186.005 440.401 100.984 335.897 100.984Z" fill="#263238"/>
<path d="M216.553 214.569C224.475 189.971 240.715 173.333 262.224 159.011C283.735 144.689 313.071 139.325 338.822 141.505V294.779L216.553 214.569Z" fill="#EC8305"/>
<g opacity="0.8">
<path d="M216.553 214.569C224.475 189.971 240.715 173.333 262.224 159.011C283.735 144.689 313.071 139.325 338.822 141.505V294.779L216.553 214.569Z" fill="white"/>
</g>
<path d="M322.358 293.937L236.812 227.482L336.993 273.675L339.94 291.231L322.358 293.937Z" fill="#EC8305"/>
<g opacity="0.4">
<path d="M236.812 227.482L326.142 280.01L336.993 273.675L236.812 227.482Z" fill="black"/>
</g>
<path d="M346.742 307.994C355.838 304.263 360.187 293.865 356.456 284.769C352.725 275.673 342.327 271.324 333.231 275.055C324.135 278.786 319.786 289.184 323.517 298.28C327.248 307.376 337.646 311.725 346.742 307.994Z" fill="#FAFAFA"/>
<path d="M339.984 273.717C339.993 273.833 338.397 273.735 335.68 274.439C333.015 275.134 329.102 276.924 326.081 280.935C324.605 282.921 323.355 285.421 322.856 288.299C322.375 291.158 322.472 294.381 323.645 297.445C324.183 298.986 324.997 300.474 326.021 301.84C327.026 303.222 328.273 304.475 329.717 305.509C332.563 307.644 336.216 308.847 339.983 308.882C343.75 308.848 347.406 307.646 350.252 305.51C351.696 304.476 352.943 303.222 353.949 301.841C354.973 300.475 355.787 298.988 356.325 297.446C357.498 294.382 357.595 291.159 357.114 288.3C356.615 285.422 355.365 282.924 353.889 280.936C350.868 276.925 346.956 275.137 344.291 274.441C341.572 273.735 339.977 273.833 339.984 273.717C339.984 273.717 341.574 273.495 344.372 274.108C347.112 274.715 351.185 276.456 354.379 280.559C355.939 282.591 357.274 285.171 357.827 288.165C358.361 291.137 358.287 294.503 357.083 297.719C356.528 299.337 355.687 300.9 354.62 302.337C353.573 303.79 352.271 305.109 350.759 306.199C347.78 308.448 343.936 309.723 339.982 309.756C336.028 309.722 332.186 308.448 329.209 306.198C327.698 305.108 326.395 303.789 325.349 302.335C324.283 300.899 323.441 299.336 322.887 297.718C321.683 294.501 321.609 291.137 322.143 288.165C322.696 285.173 324.029 282.591 325.589 280.559C328.782 276.456 332.858 274.715 335.597 274.107C338.394 273.495 339.984 273.717 339.984 273.717Z" fill="#263238"/>
<path d="M339.985 278.27C347.302 278.27 353.233 284.201 353.233 291.518C353.233 298.836 347.301 304.766 339.985 304.766C332.667 304.766 326.736 298.834 326.736 291.518C326.736 284.201 332.668 278.27 339.985 278.27Z" fill="#263238"/>
<path d="M339.113 286.298C339.113 286.298 335.464 171.677 340.765 147.502C340.765 147.502 349.634 216.987 339.113 286.298Z" fill="#263238"/>
<path d="M328.745 466.318L328.516 466.308L329.027 452.018L329.434 452.037L328.745 466.318ZM400.105 454.73L394.766 441.466L395.165 441.309L400.299 454.657L400.105 454.73ZM258.569 447.908L258.353 447.799L264.714 434.991L265.066 435.169L258.569 447.908ZM460.725 415.019L450.528 404.995L450.795 404.727L460.905 414.837L460.725 415.019ZM202.016 402.577L201.803 402.316L212.885 393.279L213.073 393.508L202.016 402.577ZM500.074 354.08L486.671 349.096L486.811 348.724L500.158 353.858L500.074 354.08ZM168.723 338.155L168.623 337.789L182.445 334.12L182.511 334.366L168.723 338.155ZM496.878 283.197L496.865 282.968L511.139 282.109L511.163 282.513L496.878 283.197ZM496.865 282.939L496.846 282.625L511.12 281.765L511.139 282.085L496.865 282.939ZM178.66 267.898L164.521 265.756L164.571 265.436L178.707 267.59L178.66 267.898ZM479.366 218.683L479.229 218.42L491.933 211.853L492.086 212.15L479.366 218.683ZM202.179 205.631L190.15 197.898L190.308 197.651L202.362 205.345L202.179 205.631ZM437.224 167.182L436.977 166.984L445.909 155.817L446.156 156.015L437.224 167.182ZM248.962 158.272L241.129 146.308L241.344 146.168L249.276 158.065L248.962 158.272ZM377.767 137.168L377.499 137.097L381.087 123.255L381.436 123.346L377.767 137.168ZM310.979 134.049L308.656 119.939L308.976 119.887L311.285 133.998L310.979 134.049Z" fill="#263238"/>
<path d="M567.845 459.803C567.845 459.99 550.216 460.141 528.473 460.141C506.723 460.141 489.098 459.99 489.098 459.803C489.098 459.616 506.723 459.465 528.473 459.465C550.216 459.465 567.845 459.616 567.845 459.803Z" fill="#263238"/>
<path d="M592.619 450.986C592.619 451.174 574.989 451.324 553.247 451.324C531.496 451.324 513.871 451.174 513.871 450.986C513.871 450.799 531.496 450.648 553.247 450.648C574.989 450.648 592.619 450.801 592.619 450.986Z" fill="#263238"/>
<path d="M118.512 401.467C118.512 401.654 102.16 401.805 81.9916 401.805C61.8169 401.805 45.4668 401.653 45.4668 401.467C45.4668 401.281 61.8169 401.129 81.9916 401.129C102.16 401.129 118.512 401.28 118.512 401.467Z" fill="#263238"/>
<path d="M141.493 392.652C141.493 392.84 125.14 392.99 104.972 392.99C84.7974 392.99 68.4473 392.838 68.4473 392.652C68.4473 392.467 84.7974 392.314 104.972 392.314C125.14 392.313 141.493 392.465 141.493 392.652Z" fill="#263238"/>
<path d="M421.02 226.01C422.87 224.395 425.791 224.159 427.876 225.456C431.337 224.403 435.428 226.102 437.124 229.298C439.579 228.901 442.211 229.879 443.812 231.781C445.413 233.684 445.925 236.444 445.116 238.794C447.575 239.336 449.565 241.566 449.825 244.071C450.085 246.576 448.597 249.167 446.301 250.204C448.499 252.013 449.022 255.542 447.444 257.911C445.866 260.279 442.406 261.154 439.891 259.822L419.542 232.73C418.541 230.486 419.17 227.625 421.02 226.01Z" fill="black"/>
<path d="M440.379 260.886C444.104 248.593 437.762 235.503 425.809 230.804L424.621 230.337C411.519 226.05 400.559 234.78 396.636 247.995L381.721 291.372L381.367 297.426L394.665 317.479L405.984 312.29L412.474 300.146C412.474 300.146 425.539 303.073 430.531 290.823C432.942 284.904 436.915 272.318 440.379 260.886Z" fill="#FFBF9D"/>
<path d="M412.582 300.167C412.582 300.167 404.535 297.548 398.31 289.104C398.31 289.104 397.792 300.098 410.51 303.818L412.582 300.167Z" fill="#FF9A6C"/>
<path d="M432.33 270.884C431.998 271.825 430.927 272.321 429.938 271.992C428.951 271.663 428.417 270.636 428.749 269.695C429.082 268.754 430.152 268.257 431.14 268.586C432.128 268.913 432.661 269.943 432.33 270.884Z" fill="black"/>
<path d="M435.256 266.548C434.948 266.691 434.004 265.182 432.11 264.443C430.229 263.678 428.459 264.105 428.344 263.793C428.283 263.65 428.668 263.324 429.445 263.122C430.212 262.918 431.395 262.891 432.572 263.359C433.747 263.83 434.567 264.653 434.964 265.321C435.371 265.995 435.404 266.487 435.256 266.548Z" fill="black"/>
<path d="M415.798 265.319C415.467 266.26 414.396 266.754 413.406 266.425C412.418 266.097 411.885 265.069 412.218 264.128C412.55 263.187 413.622 262.691 414.61 263.019C415.597 263.348 416.131 264.377 415.798 265.319Z" fill="black"/>
<path d="M417.263 259.167C416.955 259.311 416.009 257.801 414.116 257.062C412.235 256.298 410.464 256.724 410.35 256.412C410.289 256.271 410.672 255.943 411.452 255.742C412.219 255.537 413.401 255.51 414.579 255.978C415.754 256.447 416.574 257.272 416.971 257.94C417.374 258.615 417.41 259.107 417.263 259.167Z" fill="black"/>
<path d="M417.981 275.638C418.015 275.526 419.271 275.786 421.272 276.292C421.775 276.432 422.269 276.515 422.481 276.217C422.731 275.913 422.734 275.313 422.721 274.659C422.726 273.312 422.733 271.899 422.739 270.419C422.815 264.403 423.072 259.532 423.314 259.537C423.557 259.542 423.692 264.424 423.615 270.44C423.586 271.92 423.558 273.33 423.528 274.678C423.495 275.298 423.565 276.046 423.033 276.672C422.761 276.982 422.304 277.105 421.962 277.066C421.615 277.039 421.342 276.938 421.096 276.857C419.138 276.207 417.946 275.748 417.981 275.638Z" fill="black"/>
<path d="M418.786 253.559C418.419 254.008 416.844 253.109 414.777 252.607C412.721 252.058 410.883 252.087 410.804 251.524C410.775 251.258 411.241 250.882 412.075 250.635C412.905 250.387 414.102 250.311 415.338 250.625C416.573 250.94 417.57 251.576 418.155 252.185C418.748 252.796 418.952 253.342 418.786 253.559Z" fill="black"/>
<path d="M430.892 257.306C431.375 256.98 432.554 257.874 434.147 258.423C435.72 259.029 437.197 259.104 437.357 259.666C437.419 259.933 437.061 260.303 436.332 260.522C435.613 260.743 434.527 260.759 433.438 260.362C432.352 259.965 431.531 259.252 431.123 258.62C430.707 257.983 430.671 257.47 430.892 257.306Z" fill="black"/>
<path d="M441.416 254.775C441.416 254.775 441.2 245.79 438.191 242.529C434.547 238.582 430.667 242.759 426.851 239.875C423.034 236.99 419.559 233.211 413.873 234.802C407.648 236.544 408.895 239.973 406.451 245.319C396.542 266.99 390.036 271.662 392.987 260.78C393.311 259.588 390.496 257.432 391.925 252.42C393.777 245.92 396.526 238.224 399.67 234.33C402.321 231.049 405.473 229.3 410.423 227.954C418.237 225.828 426.578 228.995 431.992 231.779C437.405 234.563 445.725 245.324 441.416 254.775Z" fill="black"/>
<path d="M393.902 260.754C394.572 258.824 393.525 256.68 391.561 256.116C389.18 255.432 386.113 255.731 384.398 260.534C381.357 269.056 390.541 270.351 390.642 270.111C390.711 269.948 392.661 264.33 393.902 260.754Z" fill="#FFBF9D"/>
<path d="M389.931 266.242C389.904 266.202 389.746 266.293 389.454 266.319C389.17 266.344 388.721 266.271 388.336 265.946C387.554 265.294 387.305 263.594 387.812 262.044C388.067 261.262 388.494 260.581 388.986 260.067C389.469 259.537 390.028 259.246 390.509 259.326C390.997 259.382 391.221 259.768 391.239 260.045C391.269 260.325 391.154 260.475 391.194 260.505C391.209 260.535 391.428 260.427 391.485 260.052C391.51 259.87 391.482 259.633 391.339 259.398C391.194 259.158 390.923 258.966 390.596 258.888C389.922 258.698 389.115 259.092 388.574 259.655C387.996 260.209 387.499 260.967 387.212 261.847C386.654 263.584 386.96 265.504 388.065 266.299C388.608 266.67 389.172 266.667 389.503 266.558C389.843 266.442 389.956 266.268 389.931 266.242Z" fill="#FF9A6C"/>
<path d="M400.478 244.514C401.277 245.689 402.13 246.913 403.395 247.561C404.661 248.21 406.464 248.044 407.199 246.828C407.529 246.28 407.652 245.545 408.217 245.244C408.889 244.884 409.67 245.387 410.346 245.74C412.691 246.962 415.876 246.215 417.436 244.081C417.692 245.26 419.165 245.793 420.35 245.555C421.534 245.317 422.534 244.56 423.605 244.004C424.676 243.448 426.011 243.099 427.061 243.695C427.649 244.027 428.086 244.627 428.733 244.818C429.877 245.155 430.925 244.072 431.524 243.041C432.124 242.01 432.757 240.781 433.927 240.553C435.011 240.341 436.011 241.102 436.969 241.652C437.927 242.202 439.335 242.48 439.986 241.587C440.328 241.119 440.32 240.482 440.21 239.913C439.71 237.335 437.213 235.294 434.587 235.32C434.858 232.216 433.108 229.028 430.343 227.59C427.578 226.151 423.965 226.548 421.577 228.551C420.433 226.237 418.115 224.544 415.563 224.157C413.011 223.77 410.295 224.7 408.517 226.571C406.681 225.228 404.037 225.102 402.082 226.264C400.128 227.428 398.976 229.812 399.282 232.066C397.429 232.335 395.543 233.328 394.827 235.059C394.11 236.789 395.124 239.191 396.986 239.394C395.773 240.484 395.603 242.542 396.618 243.816C397.635 245.09 399.678 245.382 401.011 244.442" fill="black"/>
<path d="M396.376 239.134C396.356 239.1 395.943 239.78 396.265 240.958C396.431 241.522 396.83 242.198 397.555 242.627C398.264 243.052 399.266 243.232 400.228 242.873L399.893 242.679C400.024 243.567 400.283 244.521 400.747 245.438C401.047 246.024 401.422 246.57 401.905 246.994C402.371 247.431 402.991 247.698 403.537 247.818C404.65 248.12 405.805 247.913 406.512 247.38C407.231 246.869 407.624 246.287 407.883 245.897C408.137 245.5 408.241 245.26 408.215 245.243C408.182 245.221 408.02 245.423 407.72 245.777C407.42 246.124 406.988 246.651 406.314 247.072C405.041 247.965 402.2 247.559 401.21 245.201C400.778 244.35 400.521 243.444 400.382 242.604L400.331 242.298L400.046 242.411C399.257 242.725 398.386 242.602 397.762 242.261C397.126 241.92 396.746 241.358 396.554 240.859C396.184 239.827 396.458 239.142 396.376 239.134Z" fill="#091057"/>
<path d="M419.835 226.167C419.819 226.194 420.031 226.312 420.344 226.619C420.649 226.925 421.066 227.454 421.214 228.244L421.252 228.444L421.43 228.334C422.631 227.588 424.484 226.75 426.795 226.639C427.942 226.59 429.191 226.739 430.395 227.214C431.596 227.68 432.715 228.52 433.558 229.634C434.214 230.5 434.665 231.485 434.889 232.479C435.098 233.478 435.071 234.483 434.816 235.381L434.738 235.658L435.02 235.688C436.421 235.837 437.612 236.59 438.351 237.488C439.102 238.393 439.396 239.437 439.458 240.291C439.554 242.038 438.912 242.968 439.003 242.99C439.022 243 439.184 242.791 439.375 242.341C439.561 241.894 439.773 241.189 439.749 240.276C439.727 239.375 439.454 238.238 438.664 237.235C437.891 236.243 436.619 235.397 435.072 235.209L435.276 235.516C435.566 234.543 435.606 233.449 435.387 232.372C435.153 231.299 434.673 230.242 433.972 229.318C433.075 228.128 431.866 227.23 430.577 226.744C429.291 226.247 427.969 226.111 426.77 226.182C424.355 226.342 422.469 227.27 421.275 228.096L421.491 228.186C421.283 227.322 420.794 226.791 420.445 226.506C420.083 226.221 419.844 226.148 419.835 226.167Z" fill="#091057"/>
<path d="M417.689 282.816C417.505 282.899 416.766 281.312 415.167 279.977C413.589 278.614 411.904 278.142 411.956 277.947C411.96 277.772 413.874 277.975 415.605 279.461C417.351 280.928 417.861 282.783 417.689 282.816Z" fill="black"/>
<path d="M507.868 346.543C509.311 346.143 523.39 348.442 523.39 348.442C523.39 348.442 523.943 351.524 520.688 351.42C517.432 351.316 506.766 350.464 506.766 350.464L499.898 353.489L497.635 352.501L507.868 346.543Z" fill="#FF9A6C"/>
<path d="M478.992 349.205L498.988 351.1L502.11 351.478C502.11 351.478 509.478 348.809 510.832 348.569C512.185 348.327 524.591 355.029 524.591 355.029C524.591 355.029 525.062 357.902 521.604 357.163C518.146 356.425 513.948 354.298 513.948 354.298C513.948 354.298 502.726 359.542 500.485 360.558C498.244 361.573 484.881 361.491 484.881 361.491L480.157 364.581L478.992 349.205Z" fill="#FFBF9D"/>
<path d="M486.857 379.884L495.015 374.709L523.057 364.724C523.057 364.724 525.517 362.486 524.248 361.581C522.978 360.677 493.126 365.164 493.126 365.164L486.857 368.695V379.884Z" fill="#FFBF9D"/>
<path d="M407.705 359.98C407.705 361.543 383.327 401.757 376.394 411.809C366.124 426.696 355.827 428.566 355.827 428.566L342.156 417.14L398.424 356.153L415.134 343.971L407.705 359.98Z" fill="#091057"/>
<path d="M395.096 378.214C395.096 378.214 416.99 388.094 425.185 389.504C434.838 391.164 487.758 387.435 487.758 387.435L486.755 366.363L409.42 364.607L400.181 362.156L395.096 378.214Z" fill="#091057"/>
<g opacity="0.3">
<path d="M402.323 361.57C400.725 362.292 399.811 366.517 398.602 367.786C385.789 381.239 376.399 396.425 363.168 408.598C357.465 413.845 350.996 418.332 343.256 417.945L351.157 424.661C357.742 424.529 362.108 421.434 367.072 417.104C372.034 412.774 374.15 406.565 377.981 401.207C386.708 389.007 395.255 375.361 403.981 363.159C403.547 361.463 403.92 360.85 402.323 361.57Z" fill="black"/>
</g>
<path d="M345.528 417.812C345.528 417.812 356.952 418.681 361.264 416.009C366.421 412.814 412.086 352.944 412.086 352.944L412.489 306.176L386.727 281.592L384.06 285.644L329.269 348.178L294.115 381.544L336.259 404.184L345.528 417.812Z" fill="#E0E0E0"/>
<path d="M401.765 351.555C400.395 353.2 402.588 376.775 371.885 380.064C345.968 382.841 291.926 379.954 275.706 378.985C271.578 378.738 268.173 375.27 268.465 371.145C268.582 369.49 269.271 367.812 271.005 366.396C276.761 361.697 282.792 363.15 286.357 353.515C289.92 343.879 288.294 340.296 294.58 336.477C303.463 331.08 325.204 340.971 325.204 340.971C330.668 332.705 333.544 325.422 341.22 315.553C347.425 307.576 355.84 296.658 362.66 292.794C364.337 291.844 373.332 288.125 375.238 287.832L379.443 287.094L382.247 283.404C386.384 287.618 401.849 301.86 404.579 306.838L407.704 325.02L401.765 351.555Z" fill="#091057"/>
<g opacity="0.3">
<path d="M473.938 370.034C453.595 368.616 432.438 367.197 407.308 361.93L405.756 365.307C420.256 374.36 430.282 374.692 441.274 375.483C452.267 376.275 462.474 374.579 473.1 374.579C473.1 374.579 474.457 372.448 473.938 370.034Z" fill="black"/>
</g>
<g opacity="0.3">
<path d="M361.553 322.402L353.303 322.921C356.728 334.113 362.27 337.904 371.699 344.838C381.128 351.773 382.637 353.814 393.321 358.597C394.339 359.052 402.406 364.096 402.657 363.01C384.339 351.758 373.763 340.097 361.553 322.402Z" fill="black"/>
</g>
<path d="M353.473 315.078C350.475 323.42 355.906 327.244 355.906 327.244C355.906 327.244 400.11 367.393 417.955 369.421C435.799 371.449 482.591 368.97 482.591 368.97V347.178L425.594 341.058C425.594 341.058 402.657 314.031 389.973 300.479" fill="#091057"/>
<path d="M389.972 300.479C389.972 300.479 390.214 300.701 390.656 301.158C391.114 301.639 391.762 302.322 392.602 303.206C394.292 305.022 396.769 307.705 399.894 311.194C406.152 318.168 415.055 328.318 425.794 340.886L425.621 340.795C441.835 342.518 461.309 344.586 482.625 346.851L482.92 346.882V347.178C482.922 354.159 482.925 361.484 482.928 368.969V369.291L482.608 369.306C479.356 369.454 475.88 369.613 472.375 369.771C457.91 370.339 443.933 370.72 430.756 370.459C429.109 370.407 427.475 370.355 425.854 370.304C424.233 370.205 422.624 370.143 421.032 370.014C419.439 369.86 417.864 369.779 416.29 369.451C415.519 369.265 414.754 369.063 414.007 368.831C413.272 368.563 412.523 368.337 411.811 368.04C406.069 365.718 401.026 362.563 396.307 359.502C386.916 353.274 378.952 346.968 372.195 341.453C365.45 335.917 359.948 331.107 355.811 327.35L355.824 327.36C354.09 325.957 353.221 324.124 352.8 322.527C352.418 320.904 352.431 319.475 352.605 318.367C352.766 317.254 352.989 316.426 353.184 315.889C353.364 315.347 353.474 315.078 353.474 315.078C353.474 315.078 353.411 315.364 353.255 315.91C353.085 316.452 352.887 317.28 352.751 318.383C352.601 319.483 352.613 320.89 353.009 322.471C353.436 324.022 354.328 325.814 355.988 327.129L355.999 327.139L356.001 327.14C360.17 330.849 365.707 335.616 372.474 341.11C379.254 346.582 387.237 352.848 396.618 359.028C401.328 362.063 406.368 365.193 412.036 367.469C412.741 367.763 413.472 367.981 414.195 368.242C414.927 368.466 415.672 368.662 416.421 368.842C417.917 369.152 419.503 369.234 421.081 369.384C422.663 369.509 424.269 369.568 425.881 369.663C427.498 369.713 429.128 369.761 430.77 369.81C443.922 370.053 457.892 369.662 472.348 369.095C475.85 368.937 479.323 368.779 482.573 368.631L482.253 368.968C482.255 361.482 482.258 354.158 482.261 347.177L482.556 347.505C461.245 345.192 441.775 343.078 425.566 341.318L425.461 341.306L425.393 341.226C414.705 328.621 405.862 318.42 399.673 311.389C396.575 307.904 394.154 305.182 392.489 303.309C391.673 302.403 391.044 301.703 390.599 301.21C390.175 300.736 389.972 300.479 389.972 300.479Z" fill="black"/>
<path d="M405.923 364.946C405.96 364.973 405.524 365.669 404.703 366.904C403.834 368.239 402.677 370.012 401.274 372.161C398.395 376.611 394.518 382.824 390.246 389.696C385.977 396.571 382.103 402.792 379.23 407.252C377.797 409.484 376.616 411.277 375.781 412.504C374.945 413.73 374.465 414.397 374.426 414.371C374.387 414.345 374.793 413.631 375.56 412.362C376.388 411.001 377.491 409.192 378.826 406.999C381.656 402.39 385.463 396.192 389.672 389.338C393.943 382.465 397.889 376.286 400.875 371.897C402.362 369.7 403.605 367.947 404.488 366.753C405.376 365.564 405.885 364.919 405.923 364.946Z" fill="black"/>
<path d="M538.287 359.674L484.833 367.857C483.811 368.013 482.855 367.311 482.698 366.289L482.614 365.739C482.456 364.713 483.164 363.755 484.191 363.603L540.86 355.205L540.17 357.93C539.935 358.85 539.196 359.535 538.287 359.674Z" fill="#E0E0E0"/>
<path d="M538.288 359.674C538.262 359.625 538.823 359.637 539.482 358.992C539.814 358.667 540.052 358.167 540.173 357.483C540.334 356.806 540.518 356.035 540.725 355.169L540.88 355.341C531.442 356.859 510.136 360.099 485.378 363.767C484.88 363.858 484.256 363.893 483.892 364.032C483.49 364.192 483.164 364.532 483.02 364.939C482.948 365.141 482.919 365.358 482.936 365.573C482.957 365.777 483.008 366.094 483.047 366.309C483.129 366.73 483.396 367.106 483.763 367.324C484.15 367.548 484.534 367.588 485.037 367.484L486.557 367.253C487.566 367.099 488.568 366.947 489.56 366.796C493.529 366.196 497.357 365.616 501.008 365.065C508.294 363.977 514.859 362.998 520.397 362.171C525.877 361.378 530.33 360.733 533.478 360.278C534.981 360.075 536.17 359.914 537.04 359.797C537.414 359.753 537.72 359.718 537.968 359.689C538.177 359.667 538.285 359.663 538.288 359.674C538.289 359.685 538.185 359.713 537.978 359.755C537.733 359.802 537.43 359.859 537.059 359.93C536.195 360.078 535.012 360.281 533.517 360.537C530.377 361.044 525.935 361.76 520.469 362.643C514.938 363.51 508.38 364.539 501.101 365.681C497.453 366.245 493.626 366.838 489.66 367.453C488.668 367.605 487.667 367.76 486.658 367.916L485.139 368.15C484.641 368.267 483.924 368.233 483.417 367.904C482.891 367.592 482.503 367.05 482.385 366.444C482.333 366.145 482.298 365.945 482.263 365.629C482.238 365.321 482.278 365.006 482.382 364.714C482.59 364.127 483.057 363.64 483.638 363.407C484.274 363.191 484.733 363.207 485.278 363.1C510.036 359.432 531.365 356.353 540.838 355.068L541.048 355.039L540.994 355.239C540.764 356.099 540.559 356.864 540.378 357.538C540.243 358.206 539.948 358.784 539.582 359.098C539.229 359.428 538.878 359.564 538.648 359.628C538.412 359.685 538.288 359.683 538.288 359.674Z" fill="black"/>
<path d="M536.742 355.723L552.758 301.832C553.065 300.824 554.13 300.255 555.138 300.562L555.612 300.706C556.621 301.013 557.189 302.077 556.883 303.086L540.01 358.321L536.742 355.723Z" fill="#E0E0E0"/>
<path d="M536.741 355.723C536.752 355.721 536.831 355.772 536.978 355.877C537.152 356.006 537.363 356.16 537.622 356.35C538.216 356.802 539.031 357.423 540.085 358.226L539.897 358.284C542.298 349.936 548.934 328.061 556.621 302.674C556.663 302.234 556.504 301.781 556.204 301.46C555.918 301.118 555.467 301.006 554.958 300.865C554.081 300.641 553.168 301.231 553.004 302.189C552.408 304.19 551.82 306.162 551.242 308.099C550.082 311.972 548.963 315.709 547.895 319.271C545.748 326.385 543.812 332.795 542.179 338.201C540.539 343.562 539.206 347.92 538.264 350.997C537.801 352.472 537.434 353.638 537.167 354.491C537.044 354.86 536.946 355.161 536.865 355.406C536.795 355.612 536.753 355.72 536.741 355.723C536.73 355.727 536.751 355.626 536.8 355.426C536.864 355.187 536.942 354.891 537.037 354.53C537.273 353.685 537.598 352.527 538.009 351.063C538.897 347.983 540.155 343.622 541.704 338.255C543.295 332.816 545.181 326.366 547.274 319.208C548.332 315.618 549.442 311.854 550.594 307.951C551.173 306 551.76 304.013 552.358 301.997C552.466 301.487 552.811 300.845 553.332 300.523C553.846 300.174 554.512 300.055 555.12 300.208C555.425 300.294 555.61 300.341 555.932 300.462C556.221 300.584 556.485 300.769 556.699 300.999C557.129 301.458 557.356 302.105 557.296 302.738C557.224 303.258 557.067 303.595 556.956 304.007L556.594 305.194C556.352 305.983 556.111 306.768 555.874 307.549C555.395 309.112 554.922 310.656 554.455 312.183C553.519 315.232 552.607 318.207 551.723 321.085C549.949 326.832 548.295 332.197 546.802 337.036C543.804 346.607 541.467 354.069 540.125 358.356L540.072 358.526L539.937 358.414C538.898 357.554 538.096 356.89 537.511 356.406C536.978 355.956 536.722 355.73 536.741 355.723Z" fill="black"/>
<path d="M401.264 310.25C401.174 310.307 400.177 308.825 398.439 306.533C396.706 304.236 394.18 301.165 391.163 297.978C388.152 294.782 385.247 292.06 383.138 290.097C381.022 288.14 379.701 286.939 379.766 286.863C379.796 286.827 380.164 287.082 380.805 287.575C381.448 288.065 382.353 288.805 383.455 289.739C385.652 291.615 388.624 294.296 391.656 297.512C394.694 300.721 397.183 303.867 398.827 306.249C399.655 307.436 400.284 308.426 400.689 309.126C401.098 309.827 401.304 310.225 401.264 310.25Z" fill="black"/>
<g opacity="0.3">
<path d="M382.105 377.902C378.322 378.896 348.415 376.873 333.408 372.074C322.651 368.634 312.195 364.114 305.035 358.767C295.517 351.66 290.967 343.97 290.967 343.97C289.237 342.986 288.099 348.175 287.412 350.325C286.723 352.475 285.303 358.095 281.329 360.673C276.467 363.828 269.009 364.867 268.339 371.328C267.919 375.377 271.601 378.726 275.669 378.925C288.465 379.554 323.808 381.247 333.225 381.24C344.789 381.232 369.565 381.895 382.105 377.902Z" fill="black"/>
</g>
<path d="M386.883 375.634C386.898 375.651 386.612 375.896 386.043 376.351C385.444 376.759 384.47 377.228 383.147 377.621C380.483 378.338 376.476 378.628 371.59 378.358C366.695 378.126 360.91 377.388 354.517 376.482C348.117 375.585 341.09 374.39 333.866 372.468C326.647 370.533 319.943 367.985 314.218 364.93C308.484 361.889 303.763 358.368 300.169 355.036C296.567 351.7 294.102 348.558 292.559 346.3C291.788 345.168 291.224 344.267 290.878 343.635C290.518 343.011 290.338 342.678 290.359 342.666C290.379 342.655 290.597 342.964 290.993 343.563C291.376 344.172 291.974 345.045 292.773 346.148C294.375 348.347 296.877 351.419 300.491 354.682C304.097 357.941 308.806 361.392 314.509 364.378C320.202 367.377 326.862 369.888 334.042 371.812C341.227 373.723 348.223 374.934 354.605 375.863C360.993 376.804 366.752 377.588 371.617 377.879C376.476 378.21 380.441 377.993 383.08 377.366C384.389 377.019 385.359 376.6 385.969 376.236C386.549 375.827 386.867 375.617 386.883 375.634Z" fill="black"/>
<path d="M392.952 368.308C392.815 368.436 391.922 367.696 390.96 366.656C389.997 365.616 389.327 364.671 389.465 364.544C389.602 364.416 390.494 365.156 391.457 366.196C392.419 367.236 393.088 368.181 392.952 368.308Z" fill="black"/>
<path d="M384.326 299.09C384.28 299.213 382.48 298.381 379.378 297.872C376.306 297.348 371.843 297.322 367.344 298.957C362.845 300.595 359.441 303.484 357.425 305.859C355.377 308.243 354.531 310.037 354.417 309.971C354.38 309.953 354.557 309.491 354.969 308.701C355.379 307.909 356.061 306.806 357.056 305.552C359.016 303.051 362.472 300.009 367.111 298.32C371.751 296.634 376.352 296.745 379.461 297.4C381.029 297.721 382.261 298.129 383.084 298.471C383.91 298.813 384.341 299.054 384.326 299.09Z" fill="black"/>
<path d="M372.203 359.448C372.211 359.47 372.042 359.543 371.713 359.663C371.381 359.767 370.903 359.982 370.251 360.122C368.968 360.479 367.037 360.775 364.645 360.734C362.252 360.704 359.419 360.218 356.411 359.263C353.404 358.299 350.24 356.838 347.111 354.99C343.992 353.13 341.163 351.154 338.589 349.376C336.018 347.593 333.691 346.011 331.68 344.776C329.671 343.537 327.997 342.617 326.818 342.023C325.64 341.425 324.98 341.109 325 341.06C325.01 341.037 325.186 341.091 325.514 341.212C325.839 341.339 326.328 341.508 326.931 341.785C328.152 342.309 329.873 343.172 331.927 344.367C336.071 346.702 341.302 350.685 347.457 354.409C350.549 356.234 353.659 357.69 356.605 358.672C359.552 359.642 362.32 360.167 364.662 360.257C369.379 360.476 372.172 359.271 372.203 359.448Z" fill="black"/>
<path d="M384.325 375.694C384.323 375.718 383.983 375.714 383.334 375.685C382.622 375.646 381.679 375.594 380.501 375.529C379.27 375.46 377.766 375.363 376.024 375.178C374.284 374.997 372.293 374.854 370.111 374.542C367.924 374.26 365.527 373.965 362.974 373.512C360.409 373.125 357.694 372.572 354.837 371.988C349.143 370.737 342.924 369.128 336.558 366.922C330.199 364.691 324.318 362.092 319.125 359.429C316.565 358.025 314.108 356.736 311.928 355.325C310.831 354.633 309.74 354.012 308.748 353.328C307.76 352.643 306.81 351.985 305.901 351.356C304.059 350.139 302.53 348.849 301.139 347.786C300.453 347.241 299.799 346.755 299.227 346.269C298.669 345.776 298.156 345.324 297.688 344.912C296.809 344.124 296.105 343.495 295.574 343.017C295.095 342.579 294.852 342.34 294.868 342.323C294.883 342.306 295.158 342.51 295.665 342.916C296.216 343.367 296.945 343.964 297.858 344.71C298.336 345.108 298.86 345.543 299.431 346.018C300.012 346.488 300.676 346.958 301.372 347.487C302.781 348.519 304.323 349.776 306.175 350.963C307.088 351.578 308.042 352.221 309.034 352.891C310.03 353.559 311.12 354.166 312.22 354.845C314.403 356.229 316.859 357.493 319.412 358.875C324.595 361.496 330.451 364.062 336.78 366.284C343.115 368.481 349.303 370.1 354.968 371.38C357.811 371.978 360.513 372.552 363.067 372.96C365.609 373.436 367.995 373.759 370.173 374.071C372.347 374.412 374.329 374.588 376.063 374.805C377.797 375.025 379.296 375.16 380.522 375.269C381.696 375.386 382.633 375.481 383.343 375.551C383.988 375.623 384.326 375.671 384.325 375.694Z" fill="black"/>
<path d="M368.553 581.529L366.43 616.753L419.78 617.153C419.506 612.055 391.982 601.616 391.982 601.616L392.812 582.516L368.553 581.529Z" fill="#EC8305"/>
<path d="M375.504 599.18C374.469 599.454 373.748 600.61 373.979 601.655C374.21 602.7 375.379 603.445 376.419 603.187C377.458 602.931 378.368 601.57 378.021 600.558C377.674 599.545 376.253 598.745 375.306 599.245" fill="#E0E0E0"/>
<path d="M366.43 616.752L366.416 612.25L417.704 614.593C417.704 614.593 420.064 615.66 419.772 617.329L366.43 616.752Z" fill="black"/>
<path d="M392.849 601.351C392.839 601.612 391.535 601.72 390.247 602.548C388.936 603.342 388.268 604.465 388.029 604.361C387.79 604.309 388.189 602.755 389.767 601.78C391.335 600.789 392.908 601.113 392.849 601.351Z" fill="#E0E0E0"/>
<path d="M398.428 603.708C398.485 603.961 397.354 604.396 396.461 605.49C395.536 606.559 395.304 607.748 395.044 607.735C394.799 607.774 394.631 606.247 395.767 604.906C396.892 603.557 398.424 603.458 398.428 603.708Z" fill="#E0E0E0"/>
<path d="M401.556 610.428C401.319 610.482 400.965 609.178 401.645 607.756C402.315 606.328 403.547 605.776 403.656 605.993C403.802 606.209 403.005 606.968 402.464 608.143C401.897 609.307 401.814 610.405 401.556 610.428Z" fill="#E0E0E0"/>
<path d="M392.428 595.06C392.316 595.296 391.124 594.928 389.651 595.017C388.175 595.075 387.026 595.562 386.892 595.337C386.743 595.147 387.868 594.191 389.605 594.111C391.341 594.017 392.556 594.856 392.428 595.06Z" fill="#E0E0E0"/>
<path d="M391.205 588.719C391.207 588.827 390.176 588.98 388.533 588.685C387.716 588.537 386.754 588.262 385.745 587.805C385.24 587.576 384.727 587.302 384.216 586.98C383.972 586.82 383.682 586.659 383.414 586.345C383.128 586.072 382.968 585.379 383.305 584.96C383.58 584.551 384.065 584.378 384.45 584.372C384.843 584.362 385.161 584.443 385.451 584.518C386.044 584.666 386.599 584.867 387.108 585.1C388.124 585.572 388.948 586.163 389.56 586.735C390.79 587.891 391.205 588.867 391.115 588.917C390.997 589.001 390.4 588.181 389.148 587.226C388.523 586.75 387.725 586.257 386.774 585.864C386.299 585.671 385.786 585.503 385.244 585.379C384.68 585.226 384.199 585.22 384.052 585.469C383.999 585.565 383.991 585.603 384.108 585.77C384.229 585.923 384.456 586.074 384.697 586.234C385.166 586.544 385.639 586.816 386.102 587.051C387.029 587.521 387.917 587.842 388.678 588.061C390.205 588.5 391.21 588.579 391.205 588.719Z" fill="#E0E0E0"/>
<path d="M390.863 589.091C390.771 589.13 390.261 588.193 390.178 586.505C390.14 585.668 390.234 584.654 390.564 583.583C390.732 583.049 390.959 582.501 391.257 581.966C391.574 581.441 391.96 580.737 392.971 580.629C393.499 580.614 393.935 581.028 394.082 581.383C394.256 581.746 394.288 582.055 394.348 582.365C394.442 582.989 394.425 583.6 394.336 584.164C394.161 585.298 393.688 586.239 393.176 586.915C392.123 588.289 391.033 588.593 391.012 588.505C390.927 588.373 391.838 587.877 392.646 586.555C393.044 585.903 393.4 585.042 393.511 584.051C393.567 583.557 393.563 583.033 393.473 582.507C393.394 581.94 393.185 581.48 392.971 581.537C392.706 581.53 392.253 581.954 392.03 582.405C391.753 582.881 391.531 583.368 391.357 583.848C391.015 584.81 390.863 585.732 390.82 586.511C390.734 588.074 391.005 589.052 390.863 589.091Z" fill="#E0E0E0"/>
<path d="M187.251 497.386L152.838 489.578L143.791 542.158C148.866 542.714 163.632 517.249 163.632 517.249L182.345 521.164L187.251 497.386Z" fill="#EC8305"/>
<path d="M168.705 501.381C168.602 500.315 167.579 499.416 166.509 499.475C165.441 499.535 164.517 500.567 164.601 501.635C164.686 502.701 165.88 503.82 166.936 503.641C167.991 503.463 169.011 502.19 168.673 501.175" fill="#E0E0E0"/>
<path d="M152.837 489.578L157.281 490.294L146.653 540.523C146.653 540.523 145.217 542.679 143.617 542.12L152.837 489.578Z" fill="black"/>
<path d="M163.751 518.146C163.494 518.092 163.6 516.79 162.991 515.384C162.419 513.962 161.42 513.121 161.563 512.901C161.654 512.674 163.123 513.32 163.829 515.035C164.55 516.743 163.977 518.242 163.751 518.146Z" fill="#E0E0E0"/>
<path d="M160.52 523.27C160.262 523.285 160.016 522.099 159.08 521.04C158.175 519.954 157.039 519.532 157.094 519.279C157.095 519.031 158.629 519.111 159.768 520.45C160.918 521.777 160.766 523.306 160.52 523.27Z" fill="#E0E0E0"/>
<path d="M153.381 525.265C153.367 525.023 154.711 524.885 156.003 525.786C157.303 526.679 157.649 527.984 157.416 528.056C157.18 528.164 156.56 527.255 155.487 526.531C154.433 525.785 153.363 525.525 153.381 525.265Z" fill="#E0E0E0"/>
<path d="M170.028 518.749C169.812 518.6 170.368 517.484 170.52 516.016C170.701 514.551 170.409 513.338 170.652 513.242C170.864 513.125 171.624 514.391 171.421 516.117C171.233 517.845 170.208 518.91 170.028 518.749Z" fill="#E0E0E0"/>
<path d="M176.481 518.571C176.374 518.556 176.39 517.515 176.948 515.94C177.226 515.158 177.653 514.253 178.268 513.331C178.576 512.871 178.929 512.408 179.33 511.957C179.528 511.741 179.735 511.481 180.087 511.268C180.403 511.029 181.113 510.985 181.473 511.385C181.832 511.724 181.924 512.23 181.867 512.611C181.813 513.001 181.681 513.301 181.56 513.576C181.317 514.137 181.028 514.652 180.716 515.116C180.087 516.042 179.368 516.758 178.705 517.27C177.366 518.296 176.335 518.547 176.3 518.451C176.235 518.319 177.141 517.864 178.288 516.784C178.859 516.244 179.473 515.536 180.016 514.662C180.283 514.224 180.532 513.746 180.742 513.231C180.984 512.699 181.07 512.226 180.846 512.04C180.76 511.973 180.724 511.958 180.541 512.048C180.369 512.143 180.183 512.343 179.988 512.555C179.605 512.968 179.262 513.391 178.953 513.81C178.341 514.648 177.88 515.472 177.54 516.187C176.86 517.62 176.619 518.6 176.481 518.571Z" fill="#E0E0E0"/>
<path d="M176.17 518.173C176.147 518.075 177.154 517.724 178.833 517.915C179.665 518.014 180.65 518.27 181.654 518.771C182.154 519.023 182.656 519.336 183.137 519.717C183.604 520.115 184.234 520.61 184.177 521.626C184.107 522.15 183.627 522.512 183.254 522.599C182.868 522.712 182.557 522.694 182.241 522.703C181.611 522.694 181.01 522.579 180.467 522.4C179.376 522.043 178.525 521.424 177.941 520.808C176.755 519.546 176.633 518.421 176.723 518.415C176.867 518.351 177.208 519.331 178.383 520.343C178.961 520.84 179.753 521.332 180.714 521.601C181.192 521.736 181.71 521.818 182.244 521.814C182.817 521.828 183.303 521.696 183.283 521.476C183.332 521.216 182.988 520.699 182.578 520.406C182.153 520.055 181.708 519.758 181.262 519.508C180.369 519.015 179.484 518.715 178.722 518.546C177.193 518.211 176.186 518.32 176.17 518.173Z" fill="#E0E0E0"/>
<path d="M288.895 385.92C286.993 388.963 267.251 399.366 267.727 430.281L254.848 497.898L177.836 490.683L170.701 521.598L268.448 537.721C268.448 537.721 282.241 541.05 290.326 524.88C298.412 508.709 320.044 449.781 320.518 448.355C320.994 446.928 334.311 412.209 334.311 412.209L288.895 385.92Z" fill="black"/>
<path d="M274.622 408.953C274.456 409.869 269.343 429.45 289.529 444.046C309.716 458.643 368.722 496.221 368.722 496.221L370.275 502.432L364.994 594.104L398.432 594.75C398.432 594.75 408.164 504.606 408.473 495.29C408.784 485.973 407.742 473.218 395.828 462.92C384.029 452.721 333.319 408.954 333.319 408.954C333.319 408.954 291.247 385.666 291.663 385.922C292.079 386.178 277.107 395.289 274.622 408.953Z" fill="black"/>
<path d="M288.895 385.92L293.377 379.926C293.377 379.926 312.916 387.887 325.59 397.061C333.655 402.899 345.454 410.727 344.398 419.013L288.895 385.92Z" fill="black"/>
<path d="M368.72 496.221C368.714 496.231 368.598 496.17 368.378 496.042C368.127 495.891 367.81 495.698 367.412 495.459C366.53 494.908 365.299 494.14 363.732 493.162C360.512 491.112 355.924 488.192 350.273 484.594C338.94 477.309 323.272 467.269 306.16 455.872C301.868 453.023 297.839 450.035 293.83 447.311C289.862 444.526 286.057 441.748 282.854 438.604C279.632 435.502 277.028 431.98 275.582 428.23C274.11 424.491 273.699 420.723 273.676 417.346C273.699 410.531 275.621 405.214 277.351 401.881C278.237 400.209 279.072 398.994 279.688 398.215C279.985 397.856 280.221 397.569 280.408 397.343C280.574 397.149 280.662 397.054 280.671 397.061C280.68 397.069 280.609 397.179 280.462 397.386C280.29 397.621 280.072 397.921 279.797 398.296C279.22 399.097 278.429 400.326 277.586 402.001C275.943 405.338 274.116 410.621 274.154 417.345C274.207 420.675 274.643 424.38 276.103 428.023C277.535 431.672 280.095 435.104 283.288 438.156C286.46 441.247 290.246 443.996 294.209 446.768C298.225 449.485 302.263 452.473 306.538 455.31C323.64 466.699 339.27 476.805 350.534 484.192C356.136 487.866 360.685 490.848 363.876 492.941C365.413 493.964 366.622 494.769 367.488 495.345C367.871 495.607 368.177 495.818 368.418 495.984C368.624 496.13 368.727 496.211 368.72 496.221Z" fill="#091057"/>
<path d="M371.809 442.178C371.793 442.197 371.596 442.055 371.232 441.77C370.813 441.432 370.293 441.012 369.66 440.5C368.239 439.311 366.311 437.697 363.961 435.73C359.122 431.594 352.566 425.989 345.32 419.796C338.26 413.329 331.122 408.42 325.876 404.984C323.257 403.263 321.112 401.908 319.63 400.97C318.943 400.532 318.38 400.173 317.927 399.883C317.539 399.631 317.34 399.49 317.352 399.469C317.364 399.449 317.585 399.551 317.996 399.766C318.405 399.98 319.003 400.309 319.765 400.743C321.29 401.613 323.476 402.908 326.135 404.581C331.443 407.91 338.69 412.804 345.771 419.292C352.962 425.54 359.469 431.195 364.272 435.366C366.564 437.4 368.445 439.069 369.829 440.299C370.43 440.85 370.922 441.302 371.319 441.666C371.656 441.985 371.825 442.16 371.809 442.178Z" fill="#091057"/>
<path d="M266.591 517.237C266.434 517.337 263.619 513.196 260.306 507.99C256.992 502.782 254.434 498.479 254.591 498.379C254.748 498.279 257.563 502.418 260.876 507.626C264.19 512.833 266.748 517.136 266.591 517.237Z" fill="#091057"/>
<path d="M272.112 511.259C271.994 511.404 268.443 508.701 264.18 505.222C259.916 501.742 256.557 498.805 256.675 498.66C256.793 498.516 260.345 501.217 264.609 504.697C268.87 508.177 272.231 511.115 272.112 511.259Z" fill="#091057"/>
<path d="M385.061 490.27C385.108 490.458 381.2 491.557 376.437 493.078C371.67 494.59 367.848 495.953 367.776 495.771C367.742 495.687 368.658 495.234 370.181 494.609C371.704 493.984 373.838 493.195 376.231 492.432C378.625 491.67 380.823 491.081 382.427 490.712C384.03 490.343 385.039 490.181 385.061 490.27Z" fill="#091057"/>
<path d="M387.17 501.244C387.168 501.437 383.482 501.539 378.95 501.83C374.417 502.113 370.747 502.48 370.721 502.288C370.695 502.109 374.344 501.44 378.907 501.154C383.467 500.86 387.174 501.064 387.17 501.244Z" fill="#091057"/>
</g>
<defs>
<clipPath id="clip0_90_17082">
<rect width="650" height="650" fill="white"/>
</clipPath>
</defs>
</svg>
