<svg width="3527" height="3221" viewBox="0 0 3527 3221" fill="none" xmlns="http://www.w3.org/2000/svg">
<path d="M1014.79 68.7432H100.206V1582.61H1014.79V68.7432Z" fill="#E0E0E0"/>
<path d="M984.367 68.7432H69.7863V1582.61H984.367V68.7432Z" fill="#EBEBEB"/>
<path d="M945.405 99.4023H108.749V1551.87H945.405V99.4023Z" fill="white"/>
<path d="M782.529 288.146H268.032V1363.13H782.529V288.146Z" fill="#EBEBEB"/>
<path d="M268.032 982.526C266.834 882.086 357.135 784.041 456.537 769.989C503.963 763.362 554.343 772.783 598.655 754.579C677.697 722.164 702.927 617.093 782.289 585.875L785.962 1362.89H268.032V982.526Z" fill="#E0E0E0"/>
<path d="M3406.51 0V833.063H2210.01L2166.9 5.82841L3406.51 0Z" fill="#E0E0E0"/>
<path d="M2166.98 5.82812V831.307L3363.48 831.307V5.82813L2166.98 5.82812Z" fill="white"/>
<path d="M3369.07 836.976H2161.23V0.479492H3369.07V836.976ZM2172.64 825.639H3357.73V11.2581H2172.64V825.639Z" fill="#E0E0E0"/>
<path d="M3233.81 108.425H2296.48V728.791H3233.81V108.425Z" fill="white"/>
<path d="M3233.81 108.424H3229.18H3215.85H3164.43L2971.22 109.143L2296.48 110.5L2299.19 107.786C2299.19 297.329 2299.19 506.992 2299.19 728.072L2296.24 725.118L3233.57 725.677L3231.26 728.072C3231.74 539.248 3232.14 384.755 3232.46 276.65C3232.46 222.837 3232.94 180.84 3233.1 151.858C3233.1 137.646 3233.1 126.708 3233.1 119.043C3233.1 111.618 3233.1 107.706 3233.1 107.706C3233.1 107.706 3233.1 111.299 3233.1 118.564C3233.1 125.83 3233.1 136.848 3233.1 150.501C3233.1 179.244 3233.1 221.16 3233.65 274.814C3233.65 382.919 3234.37 538.29 3234.93 727.673V729.988H3232.54L2295.2 730.627H2292.25V727.673C2292.25 506.912 2292.25 296.93 2292.25 107.386V104.672H2294.88L2971.46 106.029L3163.95 106.748H3214.89H3227.91C3229.91 107.161 3231.89 107.722 3233.81 108.424Z" fill="#E0E0E0"/>
<path d="M2166.9 3.5127C2174.3 7.06886 2181.22 11.5491 2187.49 16.8462C2199.71 25.7086 2216.4 38.2436 2234.44 52.615C2252.49 66.9865 2268.21 80.6393 2279.39 90.859C2285.82 95.9499 2291.57 101.854 2296.48 108.424C2295.44 109.702 2266.62 85.9088 2230.69 57.2458C2194.76 28.5829 2165.86 4.87 2166.9 3.5127Z" fill="#E0E0E0"/>
<path d="M3363.4 5.82861C3364.43 7.10607 3336.25 31.1383 3300.48 59.4819C3264.71 87.8255 3234.85 109.702 3233.81 108.425C3232.78 107.147 3260.96 83.1149 3296.81 54.7713C3332.66 26.4276 3362.36 4.55115 3363.4 5.82861Z" fill="#E0E0E0"/>
<path d="M3362.44 831.466L3229.02 723.281Z" fill="white"/>
<path d="M3229.02 723.282C3230.06 722.084 3260.96 745.238 3297.61 775.099C3334.25 804.959 3363.48 830.189 3362.44 831.467C3361.4 832.744 3330.5 809.51 3293.93 779.65C3257.37 749.789 3228.07 724.559 3229.02 723.282Z" fill="#E0E0E0"/>
<path d="M2166.9 831.307C2165.94 830.029 2193.8 806.316 2229.25 778.292C2264.7 750.268 2294.16 728.631 2295.2 729.908C2296.24 731.186 2268.29 754.899 2232.92 782.923C2197.55 810.947 2167.93 832.584 2166.9 831.307Z" fill="#E0E0E0"/>
<path d="M2486.82 301.64V509.387L3076.61 509.387V301.64H2486.82Z" fill="#E0E0E0"/>
<path d="M1591.8 2767.62C1591.8 2731.45 1619.5 2705.26 1656.79 2705.26C1665.77 2704.93 1674.72 2706.58 1682.99 2710.08C1691.27 2713.59 1698.68 2718.86 1704.69 2725.54L1690.24 2739.03C1686.18 2734.48 1681.18 2730.85 1675.58 2728.4C1669.99 2725.95 1663.93 2724.73 1657.83 2724.82C1652.07 2724.57 1646.32 2725.49 1640.92 2727.52C1635.53 2729.56 1630.6 2732.66 1626.44 2736.65C1622.27 2740.63 1618.96 2745.42 1616.7 2750.72C1614.43 2756.03 1613.27 2761.73 1613.27 2767.5C1613.27 2773.26 1614.43 2778.97 1616.7 2784.27C1618.96 2789.57 1622.27 2794.36 1626.44 2798.35C1630.6 2802.33 1635.53 2805.44 1640.92 2807.47C1646.32 2809.5 1652.07 2810.42 1657.83 2810.17C1663.96 2810.28 1670.04 2809.04 1675.64 2806.54C1681.24 2804.04 1686.22 2800.35 1690.24 2795.72L1704.85 2809.61C1698.83 2816.28 1691.42 2821.55 1683.15 2825.05C1674.87 2828.56 1665.93 2830.21 1656.95 2829.89C1619.26 2830.05 1591.8 2803.86 1591.8 2767.62Z" fill="#024CAA"/>
<path d="M1468.6 2862.71H1318.18V2712.29H1468.6V2862.71ZM1326.17 2854.72H1460.62V2720.27H1326.17V2854.72Z" fill="#EBEBEB"/>
<path d="M1289.52 2894C1285.05 2890.65 1320.98 2836.68 1376.31 2779.43C1431.64 2722.19 1484.17 2684.18 1488.09 2688.49C1492 2692.81 1446.01 2737.36 1391.64 2793.88C1337.27 2850.41 1294.15 2897.68 1289.52 2894Z" fill="#E0E0E0"/>
<path d="M1490.16 2890.73C1485.29 2894.24 1444.25 2844.34 1390.04 2786.46C1335.83 2728.57 1288.88 2684.18 1292.63 2679.55C1296.39 2674.92 1350.04 2713.08 1405.21 2772.25C1460.38 2831.41 1494.71 2887.86 1490.16 2890.73Z" fill="#E0E0E0"/>
<path d="M461.567 2276.99L387.714 2271.72L370.708 2304.94L342.364 2302.94L419.411 2159.79L446.397 2161.7L502.286 2314.28L473.543 2312.28L461.567 2276.99ZM454.062 2254.8L430.828 2188.13L398.892 2250.8L454.062 2254.8Z" fill="#024CAA"/>
<path d="M220.367 2311L38.8079 2298.15L51.7421 2116.27L233.221 2129.21L220.367 2311ZM47.3509 2290.72L212.942 2302.54L224.678 2136.87L59.0876 2125.13L47.3509 2290.72Z" fill="#EBEBEB"/>
<path d="M0.244569 2334.56C-3.90718 2330.96 45.1952 2269.09 117.452 2204.26C189.708 2139.43 256.295 2096.87 259.489 2101.34C262.683 2105.81 202.562 2155.47 131.743 2219.67C60.9239 2283.86 4.63584 2338.55 0.244569 2334.56Z" fill="#E0E0E0"/>
<path d="M244.958 2348.29C239.848 2351.48 194.977 2286.41 133.739 2211.12C72.5009 2135.83 18.4484 2078.27 22.4404 2073.88C26.4325 2069.48 87.7505 2121.3 150.186 2198.03C212.622 2274.76 249.669 2345.5 244.958 2348.29Z" fill="#E0E0E0"/>
<path d="M3524.68 1487.2C3531.62 1511.63 3516.69 1531.35 3479.8 1541.73L3408.91 1561.77L3368.99 1419.18L3435.81 1400.26C3469.98 1390.59 3492.42 1400.26 3498.81 1422.45C3500.85 1428.81 3501.05 1435.63 3499.38 1442.1C3497.72 1448.57 3494.25 1454.44 3489.39 1459.02C3497.58 1459.06 3505.52 1461.86 3511.93 1466.98C3518.33 1472.09 3522.82 1479.22 3524.68 1487.2ZM3400.92 1432.43L3412.1 1471.79L3449.54 1461.17C3467.91 1455.98 3476.45 1446.48 3472.78 1433.47C3469.11 1420.45 3456.81 1416.62 3438.45 1421.81L3400.92 1432.43ZM3497.29 1492.07C3493.22 1477.86 3480.6 1474.59 3460.64 1480.26L3417.93 1492.39L3429.5 1533.51L3472.3 1521.37C3492.26 1515.71 3501.28 1506.36 3497.29 1492.07Z" fill="#024CAA"/>
<path d="M3101.6 1666.21L3052.02 1491.11L3227.11 1441.53L3276.69 1616.62L3101.6 1666.21ZM3061.68 1496.62L3106.87 1656.31L3266.55 1611.04L3221.28 1451.35L3061.68 1496.62Z" fill="#EBEBEB"/>
<path d="M3077.72 1713.63C3072.53 1711.56 3097.68 1636.75 3143.59 1551.16C3189.5 1465.57 3237.73 1402.97 3242.2 1406.16C3246.67 1409.36 3207.07 1476.34 3162.36 1560.98C3117.64 1645.61 3083.15 1715.87 3077.72 1713.63Z" fill="#E0E0E0"/>
<path d="M3312.54 1643.29C3308.78 1648 3244.51 1602.09 3161.32 1552.11C3078.12 1502.13 3007.7 1466.28 3010.1 1460.78C3012.49 1455.27 3087.7 1483.21 3172.02 1534.31C3256.33 1585.41 3316.05 1639.06 3312.54 1643.29Z" fill="#E0E0E0"/>
<path d="M3505.51 3218.08C3505.51 3219.2 2721.87 3220.16 1755.55 3220.16C789.236 3220.16 5.35442 3218.8 5.35442 3218.08C5.35442 3217.36 788.836 3216 1755.55 3216C2722.27 3216 3505.51 3216.48 3505.51 3218.08Z" fill="black"/>
<path d="M3167.7 1057.68C3324.69 1050.38 3446.04 917.21 3438.75 760.224C3431.45 603.239 3298.28 481.889 3141.29 489.183C2984.31 496.476 2862.96 629.651 2870.25 786.636C2877.54 943.622 3010.72 1064.97 3167.7 1057.68Z" fill="white"/>
<path d="M2996.21 1102.29C2998.84 1101.55 3001.5 1100.93 3004.19 1100.45C3011.88 1099.5 3019.67 1100.98 3026.47 1104.68C3031.15 1107.12 3035.24 1110.55 3038.44 1114.74C3042 1119.61 3044.08 1125.41 3044.43 1131.43C3045.18 1138.35 3043.79 1145.34 3040.45 1151.46C3037.1 1157.57 3031.97 1162.51 3025.73 1165.61C3019.5 1168.72 3012.46 1169.84 3005.57 1168.82C2998.68 1167.81 2992.26 1164.7 2987.18 1159.93C2982.61 1156.02 2979.23 1150.9 2977.44 1145.16C2975.97 1139.97 2975.67 1134.52 2976.57 1129.19C2977.74 1121.53 2981.25 1114.42 2986.63 1108.83C2990.46 1104.92 2993.25 1103.56 2993.09 1103.33C2992.38 1103.54 2991.71 1103.86 2991.1 1104.28C2990.29 1104.7 2989.51 1105.18 2988.78 1105.72C2987.78 1106.46 2986.82 1107.26 2985.91 1108.12C2980.98 1112.82 2977.41 1118.76 2975.55 1125.32C2973.7 1131.88 2973.64 1138.81 2975.37 1145.4C2977.14 1151.61 2980.69 1157.16 2985.59 1161.37C2990.92 1166.11 2997.48 1169.26 3004.51 1170.47C3012.08 1172.07 3019.97 1171.06 3026.9 1167.61C3033.83 1164.16 3039.39 1158.47 3042.67 1151.47C3045.92 1145.11 3047.36 1137.99 3046.83 1130.87C3046.39 1124.42 3044.09 1118.23 3040.2 1113.07C3036.79 1108.62 3032.39 1105.04 3027.34 1102.61C3020.17 1098.9 3011.99 1097.64 3004.03 1099.01C3002.81 1099.19 3001.61 1099.49 3000.44 1099.89C2999.53 1100.12 2998.65 1100.44 2997.8 1100.85C2996.85 1101.73 2996.13 1102.29 2996.21 1102.29Z" fill="#263238"/>
<path d="M2917.56 935.339L2915.25 931.267L2908.22 919.611C2906.7 916.976 2904.95 914.102 2903.03 910.988C2901.12 907.874 2899.68 904.042 2897.76 900.049C2895.85 896.057 2893.85 892.065 2891.69 887.275C2890.52 884.963 2889.53 882.56 2888.74 880.089C2887.86 877.534 2886.9 874.979 2885.95 872.105C2876.28 846.206 2870.6 818.99 2869.1 791.386C2866.89 754.826 2871.71 718.182 2883.31 683.44L2888.34 668.909C2890.34 664.039 2892.65 659.328 2894.81 654.458C2895.85 652.063 2896.96 649.667 2898.08 647.192C2899.1 644.696 2900.33 642.292 2901.75 640.007L2909.74 625.715C2911.1 623.32 2912.45 620.925 2913.89 618.529L2918.84 611.663L2928.82 597.771C2932.25 593.22 2936.33 588.988 2940.16 584.517L2945.99 577.89C2946.94 576.852 2947.9 575.655 2948.94 574.617L2952.21 571.583C2960.78 562.977 2969.93 554.974 2979.6 547.63C2984.55 544.037 2989.34 539.646 2994.61 536.532L3010.58 526.712C3013.29 525.115 3015.93 523.279 3018.56 521.842L3027.26 517.69C3033.09 514.975 3038.84 511.941 3044.83 509.706C3057.14 504.808 3069.76 500.701 3082.59 497.41L3092.34 494.935L3097.29 493.737L3102.32 493.019L3122.52 489.985C3129.38 489.266 3136.25 489.107 3143.19 488.708C3146.63 488.708 3150.14 488.149 3153.65 488.708L3164.11 489.187C3178.27 489.705 3192.38 491.172 3206.35 493.578L3227.35 498.608L3232.62 499.885C3234.37 500.364 3236.05 501.003 3237.81 501.562L3248.11 505.155L3258.48 508.668L3268.54 513.139L3278.6 517.77L3283.63 520.005C3285.31 520.884 3286.83 521.842 3288.51 522.8L3307.83 533.898L3326.19 546.992C3375.47 583.92 3411.35 635.921 3428.39 695.097C3430.3 702.363 3432.14 709.708 3433.98 716.894L3437.33 739.01L3438.13 744.519V750.028L3438.69 761.046L3439.25 772.064L3438.77 783.002L3438.29 793.94V799.37L3437.57 804.719C3436.53 811.905 3435.57 819.011 3434.61 826.117C3431.78 840.033 3428.02 853.743 3423.36 867.155L3420 877.055C3418.89 880.409 3417.21 883.443 3415.85 886.636C3412.9 892.944 3410.34 899.331 3407.15 905.399C3403.96 911.467 3400.36 917.295 3397.01 923.204L3394.45 927.595C3393.5 929.032 3392.46 930.389 3391.5 931.746L3385.67 939.731C3377.96 950.486 3369.56 960.728 3360.52 970.39C3355.97 975.1 3351.1 979.332 3346.47 983.803L3339.36 990.35C3337.05 992.506 3334.33 994.342 3331.86 996.258L3316.85 1007.76C3311.74 1011.35 3306.23 1014.38 3300.88 1017.66C3290.64 1024.04 3279.97 1029.69 3268.94 1034.58L3264.95 1036.5L3260.8 1038.1L3252.82 1041.05C3247.23 1042.97 3241.88 1045.28 3236.37 1046.88L3219.76 1051.11L3211.78 1053.19L3203.79 1054.46L3187.83 1056.94C3185.19 1057.4 3182.52 1057.67 3179.84 1057.74H3171.86C3166.59 1057.74 3161.32 1058.45 3155.89 1058.53L3140.48 1057.9C3103.9 1056.1 3068.01 1047.26 3034.77 1031.87C3031.1 1030.19 3027.42 1028.67 3023.91 1027L3014.01 1021.25L3004.43 1015.82C3002.83 1014.86 3001.24 1014.06 2999.8 1013.1L2995.57 1010.07L2979.6 998.574C2974.57 994.741 2970.26 990.589 2965.87 986.917L2959.64 981.488C2957.64 979.827 2955.74 978.04 2953.97 976.138L2943.19 966.557C2940.24 963.364 2937.36 960.489 2935.21 957.695L2929.06 949.711L2921.08 938.932C2919.24 936.537 2918.2 935.339 2918.2 935.339L2920.92 939.092C2922.75 941.647 2925.47 945.24 2928.9 950.03L2934.89 958.014C2937.28 960.888 2940.16 963.763 2942.87 966.956L2952.45 977.416C2954.21 979.364 2956.1 981.179 2958.12 982.845L2964.35 988.354C2968.66 992.027 2972.97 996.338 2978 1000.09L2993.97 1011.75L2998.2 1014.78C2999.72 1015.82 3001.32 1016.62 3002.83 1017.58L3012.41 1023.08L3022.39 1028.91L3033.25 1033.86C3066.63 1049.49 3102.72 1058.49 3139.52 1060.37L3155.01 1061.09C3160.2 1061.09 3165.55 1060.61 3170.98 1060.37L3178.96 1059.89C3181.64 1059.88 3184.31 1059.64 3186.95 1059.17L3203.31 1056.7L3211.3 1055.42L3219.28 1053.34L3236.05 1049.11C3241.56 1047.52 3246.99 1045.28 3252.58 1043.36L3260.96 1040.33C3262.32 1039.77 3263.75 1039.37 3265.11 1038.73L3269.18 1036.82C3280.39 1031.9 3291.25 1026.21 3301.68 1019.81C3306.95 1016.54 3312.46 1013.5 3317.65 1009.91L3332.82 998.334C3335.37 996.338 3338.01 994.582 3340.8 992.426L3347.91 985.799C3352.54 981.328 3357.57 977.016 3362.12 972.306C3371.24 962.565 3379.72 952.244 3387.51 941.407C3389.42 938.613 3391.42 935.898 3393.42 933.423C3394.37 932.066 3395.41 930.709 3396.37 929.271L3398.93 924.8L3409.23 906.916C3412.42 900.768 3415.05 894.301 3418.01 887.994C3419.37 884.72 3421.12 881.606 3422.24 878.333L3425.59 868.273C3430.32 854.765 3434.11 840.946 3436.93 826.915C3437.97 819.809 3439.01 812.544 3439.96 805.358L3440.76 799.929V794.42L3441.24 783.481L3441.72 772.383L3441.16 761.285L3440.52 750.188V744.519L3439.64 739.01L3436.29 716.734C3434.45 709.389 3432.62 702.043 3430.7 694.698C3413.85 634.826 3377.84 582.128 3328.19 544.676L3309.66 531.423L3290.1 520.245C3288.51 519.287 3286.91 518.329 3285.23 517.45L3280.12 515.135L3269.98 510.504L3259.84 506.033L3249.38 502.44L3238.92 498.847L3233.73 497.091L3228.38 495.893C3221.36 494.137 3214.25 492.46 3207.23 490.863C3193.14 488.392 3178.89 486.898 3164.59 486.392L3154.05 485.913C3150.54 485.913 3147.03 485.913 3143.51 485.913C3136.49 486.392 3129.54 486.472 3122.67 487.191L3102.24 490.304L3097.21 491.103C3095.53 491.103 3093.85 491.901 3092.26 492.3L3082.36 494.855C3069.42 498.124 3056.73 502.259 3044.35 507.231C3038.28 509.786 3032.45 512.899 3026.55 515.614L3017.84 519.846C3014.97 521.283 3012.33 523.119 3009.86 524.796L2993.89 534.696C2988.62 538.209 2983.75 542.281 2978.8 545.954C2969.06 553.298 2959.83 561.301 2951.18 569.906L2947.9 573.02C2946.86 574.058 2945.91 575.255 2944.95 576.373C2943.99 577.491 2941.04 580.844 2939.04 583C2935.21 587.551 2931.06 591.783 2927.7 596.333L2917.64 610.386L2912.69 617.332C2911.26 619.727 2909.9 622.202 2908.54 624.597L2900.56 638.969C2899.17 641.292 2897.97 643.721 2896.96 646.234L2893.61 653.58C2891.45 658.45 2889.14 663.24 2887.22 668.111C2885.31 672.981 2883.87 677.931 2882.19 682.802C2870.61 717.763 2865.89 754.634 2868.3 791.386C2869.89 819.126 2875.74 846.457 2885.63 872.424L2888.5 880.409C2889.29 882.879 2890.28 885.282 2891.45 887.594L2897.68 900.369C2899.68 904.281 2901.28 907.954 2903.11 911.227L2908.38 919.77L2915.65 931.347C2916.6 933.982 2917.56 935.339 2917.56 935.339Z" fill="#263238"/>
<path d="M3010.82 780.607L3052.97 738.451L3134.25 810.707L3293.77 657.173L3332.9 699.329L3128.26 891.986L3010.82 780.607Z" fill="#EC8305"/>
</svg>
