<svg width="3271" height="3467" viewBox="0 0 3271 3467" fill="none" xmlns="http://www.w3.org/2000/svg">
<path d="M2376.97 325.03H326.563V2405.05H2376.97V325.03Z" fill="white"/>
<path d="M2376.97 2405.05C2376.97 2405.05 2376.97 2404.1 2376.97 2402.5C2376.97 2400.9 2376.97 2398.35 2376.97 2395.15C2376.97 2388.69 2376.97 2379.19 2376.97 2366.41C2376.97 2341.02 2376.97 2303.58 2376.57 2254.63C2376.57 2156.91 2376.01 2013.67 2375.61 1831.47C2375.21 1467.64 2374.57 948.031 2373.77 325.03L2377.36 328.623L327.202 329.182L331.353 325.03C331.353 1087.27 331.353 1801.29 330.794 2404.97L327.202 2401.46L1812.73 2403.22L2229.58 2404.18L2339.6 2404.57H2367.94H2375.13H2377.6H2368.34H2340.4L2231.02 2404.97L1815.04 2405.93L327.202 2407.69H323.609V2404.1C323.609 1800.42 323.609 1086.72 323.05 324.152V320H327.441L2377.6 320.559H2381.28V324.152C2380.48 948.111 2379.84 1468.44 2379.44 1833.15C2378.96 2015.03 2378.64 2157.94 2378.48 2255.51C2378.48 2304.05 2378.48 2341.34 2378 2366.57C2378 2379.03 2378 2388.53 2378 2394.91V2402.02C2377.78 2403.07 2377.43 2404.09 2376.97 2405.05Z" fill="#263238"/>
<path d="M487.523 664.275V719.446H477.223V672.898H465.566V664.275H487.523Z" fill="black"/>
<path d="M498.142 713.457C498.142 712.608 498.309 711.767 498.634 710.982C498.959 710.198 499.435 709.485 500.036 708.884C500.636 708.284 501.349 707.808 502.134 707.483C502.918 707.158 503.759 706.99 504.609 706.99C505.458 706.99 506.299 707.158 507.084 707.483C507.868 707.808 508.581 708.284 509.182 708.884C509.782 709.485 510.259 710.198 510.584 710.982C510.909 711.767 511.076 712.608 511.076 713.457C511.076 714.307 510.909 715.148 510.584 715.932C510.259 716.717 509.782 717.43 509.182 718.03C508.581 718.631 507.868 719.107 507.084 719.432C506.299 719.757 505.458 719.925 504.609 719.925C503.759 719.925 502.918 719.757 502.134 719.432C501.349 719.107 500.636 718.631 500.036 718.03C499.435 717.43 498.959 716.717 498.634 715.932C498.309 715.148 498.142 714.307 498.142 713.457Z" fill="black"/>
<path d="M1175.04 441.279C1174.76 435.354 1176.27 429.484 1179.37 424.425C1182.46 419.365 1187 415.348 1192.4 412.891C1197.8 410.433 1203.81 409.648 1209.65 410.636C1215.5 411.624 1220.92 414.34 1225.21 418.435C1229.5 422.529 1232.47 427.814 1233.73 433.61C1234.99 439.405 1234.48 445.445 1232.28 450.952C1230.08 456.458 1226.28 461.18 1221.37 464.507C1216.46 467.835 1210.67 469.616 1204.74 469.623C1200.9 469.818 1197.06 469.229 1193.46 467.891C1189.86 466.554 1186.57 464.495 1183.79 461.843C1181.01 459.19 1178.8 455.998 1177.29 452.462C1175.79 448.927 1175.02 445.121 1175.04 441.279ZM1224.14 441.279C1224.14 437.442 1223 433.691 1220.87 430.5C1218.74 427.31 1215.71 424.823 1212.16 423.354C1208.62 421.886 1204.71 421.502 1200.95 422.25C1197.19 422.999 1193.73 424.847 1191.02 427.56C1188.3 430.273 1186.46 433.73 1185.71 437.494C1184.96 441.257 1185.34 445.158 1186.81 448.704C1188.28 452.249 1190.77 455.279 1193.96 457.411C1197.15 459.542 1200.9 460.68 1204.74 460.68C1207.3 460.747 1209.85 460.29 1212.23 459.337C1214.61 458.384 1216.77 456.956 1218.58 455.14C1220.38 453.324 1221.8 451.158 1222.75 448.775C1223.69 446.391 1224.13 443.841 1224.06 441.279H1224.14Z" fill="black"/>
<path d="M1294.32 413.733V468.904H1285.94L1255.52 431.538V468.904H1245.3V413.733H1253.76L1284.18 450.939V413.733H1294.32Z" fill="black"/>
<path d="M1309.17 413.733H1319.39V460.201H1348.29V468.904H1309.17V413.733Z" fill="black"/>
<path d="M1356.36 413.733H1366.58V468.904H1356.36V413.733Z" fill="black"/>
<path d="M1430.53 413.733V468.904H1422.06L1391.72 431.538V468.904H1381.58V413.733H1390.05L1420.39 450.939V413.733H1430.53Z" fill="black"/>
<path d="M1486.74 460.281V468.904H1445.3V413.733H1485.22V422.276H1455.6V436.648H1482.26V445.031H1455.6V460.281H1486.74Z" fill="black"/>
<path d="M1531.05 422.356H1512.76V413.733H1559.39V422.356H1541.11V468.904H1530.81L1531.05 422.356Z" fill="black"/>
<path d="M1608.73 460.281V468.904H1567.38V413.733H1607.3V422.276H1577.28V436.648H1603.86V445.031H1577.28V460.281H1608.73Z" fill="black"/>
<path d="M1615.28 463.075L1618.87 455.091C1624.14 459.005 1630.52 461.131 1637.08 461.159C1645.7 461.159 1649.29 458.045 1649.29 453.973C1649.29 442.077 1616.48 449.902 1616.48 429.382C1616.48 420.44 1623.58 412.935 1638.75 412.935C1645.21 412.816 1651.57 414.503 1657.12 417.805L1653.84 425.79C1649.26 423.009 1644.03 421.493 1638.67 421.398C1630.13 421.398 1626.7 424.752 1626.7 428.903C1626.7 440.64 1659.35 432.975 1659.35 453.255C1659.35 462.117 1652.17 469.223 1637.08 469.223C1629.34 469.577 1621.69 467.421 1615.28 463.075Z" fill="black"/>
<path d="M1680.11 422.356H1661.83V413.733H1708.61V422.356H1690.33V468.904H1680.11V422.356Z" fill="black"/>
<path d="M743.015 906.674H715.39L709.96 919.448H699.421L724.252 864.278H734.312L759.223 919.448H748.524L743.015 906.674ZM739.582 898.689L729.202 874.737L718.903 898.689H739.582Z" fill="black"/>
<path d="M464.928 468.824C477.318 468.824 487.363 458.779 487.363 446.388C487.363 433.998 477.318 423.953 464.928 423.953C452.537 423.953 442.492 433.998 442.492 446.388C442.492 458.779 452.537 468.824 464.928 468.824Z" fill="black"/>
<path d="M532.872 468.824C545.263 468.824 555.308 458.779 555.308 446.388C555.308 433.998 545.263 423.953 532.872 423.953C520.482 423.953 510.437 433.998 510.437 446.388C510.437 458.779 520.482 468.824 532.872 468.824Z" fill="black"/>
<path d="M600.817 468.824C613.208 468.824 623.253 458.779 623.253 446.388C623.253 433.998 613.208 423.953 600.817 423.953C588.427 423.953 578.382 433.998 578.382 446.388C578.382 458.779 588.427 468.824 600.817 468.824Z" fill="black"/>
<path d="M2376.97 557.368C2376.97 558.486 1920.27 559.444 1356.99 559.444C793.714 559.444 336.942 558.486 336.942 557.368C336.942 556.25 793.554 555.292 1356.99 555.292C1920.43 555.292 2376.97 556.25 2376.97 557.368Z" fill="black"/>
<path d="M2152.77 711.621C2152.77 712.739 1797.24 713.697 1358.75 713.697C920.262 713.697 564.569 712.739 564.569 711.621C564.569 710.504 920.102 709.545 1358.75 709.545C1797.4 709.545 2152.77 710.424 2152.77 711.621Z" fill="black"/>
<path d="M1177.43 765.594C1177.43 766.712 1041.7 767.67 874.034 767.67C706.367 767.67 570.158 766.712 570.158 765.594C570.158 764.476 705.888 763.518 874.034 763.518C1042.18 763.518 1177.43 764.396 1177.43 765.594Z" fill="black"/>
<path d="M657.186 928.15H584.45V855.415H657.186V928.15ZM592.434 920.166H649.201V863.399H592.434V920.166Z" fill="black"/>
<path d="M755.869 1042.56C755.869 1051.98 748.444 1057.49 734.232 1057.49H706.847V1002.32H732.635C745.889 1002.32 752.995 1007.91 752.995 1016.69C753.078 1019.18 752.454 1021.64 751.197 1023.79C749.939 1025.94 748.099 1027.69 745.889 1028.83C748.858 1029.66 751.461 1031.46 753.273 1033.96C755.085 1036.45 756 1039.48 755.869 1042.56ZM717.066 1010.63V1025.8H731.598C738.624 1025.8 742.695 1023.32 742.695 1018.29C742.695 1013.26 738.624 1010.31 731.598 1010.31L717.066 1010.63ZM745.49 1041.76C745.49 1036.26 741.338 1033.78 733.594 1033.78H717.066V1049.75H733.594C741.338 1049.75 745.49 1047.03 745.49 1041.76Z" fill="black"/>
<path d="M657.186 1066.28H584.45V993.86H657.186V1066.28ZM592.434 1058.29H649.201V1001.84H592.434V1058.29Z" fill="black"/>
<path d="M702.854 1167.99C703.141 1162.16 705.131 1156.54 708.578 1151.83C712.026 1147.11 716.78 1143.52 722.252 1141.48C727.723 1139.44 733.673 1139.05 739.365 1140.35C745.056 1141.66 750.239 1144.61 754.272 1148.83L747.645 1155.06C745.788 1152.99 743.508 1151.34 740.961 1150.23C738.413 1149.11 735.656 1148.55 732.875 1148.59C727.729 1148.59 722.794 1150.64 719.156 1154.27C715.517 1157.91 713.473 1162.85 713.473 1167.99C713.473 1173.14 715.517 1178.07 719.156 1181.71C722.794 1185.35 727.729 1187.4 732.875 1187.4C735.663 1187.43 738.428 1186.87 740.977 1185.74C743.527 1184.61 745.802 1182.94 747.645 1180.85L754.272 1187.16C750.239 1191.38 745.056 1194.33 739.365 1195.63C733.673 1196.94 727.723 1196.55 722.252 1194.51C716.78 1192.47 712.026 1188.87 708.578 1184.16C705.131 1179.45 703.141 1173.83 702.854 1167.99Z" fill="black"/>
<path d="M657.186 1204.32H584.45V1131.59H657.186V1204.32ZM592.434 1196.34H649.201V1139.57H592.434V1196.34Z" fill="black"/>
<path d="M706.847 1278.49H730.799C748.683 1278.49 760.899 1289.51 760.899 1306.04C760.899 1322.57 748.683 1333.66 730.799 1333.66H706.847V1278.49ZM730.799 1324.96C733.382 1325.13 735.972 1324.77 738.409 1323.89C740.845 1323.02 743.077 1321.66 744.966 1319.89C746.855 1318.12 748.36 1315.98 749.39 1313.6C750.419 1311.23 750.95 1308.67 750.95 1306.08C750.95 1303.49 750.419 1300.93 749.39 1298.55C748.36 1296.18 746.855 1294.04 744.966 1292.27C743.077 1290.5 740.845 1289.14 738.409 1288.26C735.972 1287.39 733.382 1287.03 730.799 1287.2H717.066V1324.96H730.799Z" fill="black"/>
<path d="M657.186 1342.45H584.45V1269.71H657.186V1342.45ZM592.434 1334.46H649.201V1277.7H592.434V1334.46Z" fill="black"/>
<path d="M1358.67 891.823C1358.67 892.941 1238.91 893.899 1090.72 893.899C942.538 893.899 822.696 892.941 822.696 891.823C822.696 890.705 942.458 889.747 1090.72 889.747C1238.99 889.747 1358.67 890.625 1358.67 891.823Z" fill="black"/>
<path d="M2096.4 1029.87C2096.4 1031.07 1811.21 1031.94 1459.59 1031.94C1107.97 1031.94 822.696 1031.07 822.696 1029.87C822.696 1028.67 1107.81 1027.79 1459.59 1027.79C1811.37 1027.79 2096.4 1028.75 2096.4 1029.87Z" fill="black"/>
<path d="M997.948 1306.04C997.948 1307.16 958.746 1308.12 910.122 1308.12C861.499 1308.12 822.297 1307.16 822.297 1306.04C822.297 1304.92 861.499 1303.96 910.122 1303.96C958.746 1303.96 997.948 1305.24 997.948 1306.04Z" fill="black"/>
<path d="M1459.51 1167.99C1459.51 1169.11 1316.99 1170.07 1141.1 1170.07C965.213 1170.07 822.696 1169.11 822.696 1167.99C822.696 1166.88 965.213 1165.92 1141.1 1165.92C1316.99 1165.92 1459.51 1166.8 1459.51 1167.99Z" fill="black"/>
<path d="M489.519 1502.61V1511.23H448.8V1504.36L470.756 1483.61C476.105 1478.5 477.063 1475.22 477.063 1472.19C477.063 1467.08 473.55 1464.2 466.764 1464.2C464.319 1464.08 461.88 1464.53 459.646 1465.53C457.411 1466.53 455.445 1468.05 453.909 1469.95L446.724 1464.44C449.255 1461.39 452.464 1458.97 456.096 1457.38C459.727 1455.78 463.681 1455.06 467.642 1455.26C479.618 1455.26 487.363 1461.33 487.363 1471.23C487.277 1474.63 486.412 1477.97 484.834 1480.99C483.256 1484.01 481.007 1486.62 478.261 1488.64L463.49 1502.69L489.519 1502.61Z" fill="black"/>
<path d="M495.507 1505.24C495.507 1503.53 496.188 1501.88 497.401 1500.67C498.614 1499.46 500.259 1498.78 501.974 1498.78C503.689 1498.78 505.334 1499.46 506.547 1500.67C507.76 1501.88 508.441 1503.53 508.441 1505.24C508.441 1506.96 507.76 1508.6 506.547 1509.82C505.334 1511.03 503.689 1511.71 501.974 1511.71C500.259 1511.71 498.614 1511.03 497.401 1509.82C496.188 1508.6 495.507 1506.96 495.507 1505.24Z" fill="black"/>
<path d="M723.693 1698.46H696.148L690.718 1711.23H680.1L704.93 1656.06H715.07L739.98 1711.23H729.042L723.693 1698.46ZM720.34 1690.47L709.96 1666.52L699.581 1690.47H720.34Z" fill="black"/>
<path d="M2133.45 1503.41C2133.45 1504.52 1777.92 1505.48 1339.43 1505.48C900.941 1505.48 545.408 1504.84 545.408 1503.41C545.408 1501.97 900.861 1501.33 1339.51 1501.33C1778.16 1501.33 2133.45 1502.29 2133.45 1503.41Z" fill="black"/>
<path d="M1158.19 1557.38C1158.19 1558.5 1022.46 1559.46 854.313 1559.46C686.168 1559.46 550.438 1558.5 550.438 1557.38C550.438 1556.26 686.168 1555.3 854.313 1555.3C1022.46 1555.3 1158.19 1556.18 1158.19 1557.38Z" fill="black"/>
<path d="M637.544 1720.42H564.809V1647.68H637.544V1720.42ZM572.793 1712.43H629.56V1655.66H572.793V1712.43Z" fill="black"/>
<path d="M736.547 1834.35C736.547 1843.77 729.122 1849.28 714.99 1849.28H687.525V1794.11H713.074C726.328 1794.11 733.434 1799.7 733.434 1808.48C733.498 1810.96 732.866 1813.42 731.611 1815.56C730.355 1817.7 728.525 1819.46 726.328 1820.62C729.349 1821.38 732.014 1823.17 733.875 1825.67C735.736 1828.17 736.68 1831.23 736.547 1834.35ZM697.824 1802.41V1817.66H712.276C719.381 1817.66 723.374 1815.11 723.374 1810.08C723.374 1805.05 719.381 1802.09 712.276 1802.09L697.824 1802.41ZM726.248 1833.55C726.248 1828.04 722.096 1825.57 714.352 1825.57H697.824V1841.53H714.352C722.096 1841.29 726.248 1838.82 726.248 1833.31V1833.55Z" fill="black"/>
<path d="M637.544 1858.06H564.809V1785.33H637.544V1858.06ZM572.793 1850.08H629.56V1793.31H572.793V1850.08Z" fill="black"/>
<path d="M683.613 1959.94C683.575 1956.1 684.323 1952.3 685.809 1948.77C687.296 1945.23 689.491 1942.04 692.258 1939.38C695.025 1936.73 698.307 1934.67 701.901 1933.33C705.494 1931.99 709.324 1931.4 713.154 1931.6C717.239 1931.43 721.31 1932.16 725.078 1933.75C728.846 1935.34 732.217 1937.74 734.951 1940.78L728.404 1947C726.539 1944.94 724.259 1943.3 721.713 1942.19C719.166 1941.07 716.413 1940.51 713.633 1940.54C708.487 1940.54 703.553 1942.58 699.914 1946.22C696.276 1949.86 694.232 1954.79 694.232 1959.94C694.232 1965.08 696.276 1970.02 699.914 1973.66C703.553 1977.3 708.487 1979.34 713.633 1979.34C716.421 1979.37 719.183 1978.81 721.732 1977.68C724.281 1976.55 726.557 1974.88 728.404 1972.79L734.951 1979.1C730.928 1983.33 725.75 1986.29 720.06 1987.6C714.37 1988.92 708.42 1988.53 702.949 1986.49C697.478 1984.44 692.728 1980.84 689.29 1976.12C685.852 1971.4 683.878 1965.77 683.613 1959.94Z" fill="black"/>
<path d="M637.544 1996.11H564.809V1923.37H637.544V1996.11ZM572.793 1988.12H629.56V1931.36H572.793V1988.12Z" fill="black"/>
<path d="M687.525 2070.28H711.477C729.362 2070.28 741.577 2081.3 741.577 2097.9C741.577 2114.51 729.362 2125.45 711.477 2125.45H687.525V2070.28ZM711.477 2116.83C714.108 2117.07 716.761 2116.76 719.265 2115.92C721.77 2115.08 724.072 2113.72 726.024 2111.94C727.976 2110.16 729.535 2107.99 730.602 2105.58C731.669 2103.16 732.22 2100.55 732.22 2097.9C732.22 2095.26 731.669 2092.65 730.602 2090.23C729.535 2087.81 727.976 2085.65 726.024 2083.87C724.072 2082.09 721.77 2080.73 719.265 2079.89C716.761 2079.05 714.108 2078.74 711.477 2078.98H698.144V2116.83H711.477Z" fill="black"/>
<path d="M637.544 2134.23H564.809V2061.5H637.544V2134.23ZM572.793 2126.25H629.56V2069.48H572.793V2126.25Z" fill="black"/>
<path d="M1339.43 1683.61C1339.43 1684.73 1219.67 1685.68 1071.4 1685.68C923.136 1685.68 803.375 1684.73 803.375 1683.61C803.375 1682.49 923.136 1681.53 1071.4 1681.53C1219.67 1681.53 1339.43 1682.49 1339.43 1683.61Z" fill="black"/>
<path d="M2077.08 1821.65C2077.08 1822.85 1791.97 1823.73 1440.27 1823.73C1088.57 1823.73 803.375 1822.85 803.375 1821.65C803.375 1820.46 1088.49 1819.58 1440.27 1819.58C1792.05 1819.58 2077.08 1820.54 2077.08 1821.65Z" fill="black"/>
<path d="M978.706 2097.82C978.706 2099.02 939.424 2099.9 890.881 2099.9C842.337 2099.9 803.055 2099.02 803.055 2097.82C803.055 2096.63 842.337 2095.75 890.881 2095.75C939.424 2095.75 978.706 2096.71 978.706 2097.82Z" fill="black"/>
<path d="M1440.27 1959.94C1440.27 1961.06 1297.67 1962.01 1121.86 1962.01C946.051 1962.01 803.375 1961.06 803.375 1959.94C803.375 1958.82 945.971 1957.86 1121.86 1957.86C1297.75 1957.86 1440.27 1958.58 1440.27 1959.94Z" fill="black"/>
<path d="M1955.88 2287.29H1627.18C1613.93 2287.29 1600.81 2284.68 1588.57 2279.6C1576.33 2274.53 1565.21 2267.1 1555.84 2257.72C1546.48 2248.35 1539.05 2237.23 1533.99 2224.98C1528.93 2212.74 1526.33 2199.62 1526.34 2186.37C1526.34 2159.62 1536.96 2133.98 1555.87 2115.06C1574.78 2096.15 1600.43 2085.53 1627.18 2085.53H1955.88C1982.63 2085.53 2008.28 2096.15 2027.19 2115.06C2046.1 2133.98 2056.72 2159.62 2056.72 2186.37C2056.73 2199.62 2054.13 2212.74 2049.07 2224.98C2044.01 2237.23 2036.58 2248.35 2027.22 2257.72C2017.85 2267.1 2006.73 2274.53 1994.49 2279.6C1982.25 2284.68 1969.13 2287.29 1955.88 2287.29Z" fill="#EC8305"/>
<path d="M1709.25 2162.42V2217.27H1698.79L1671.17 2183.97V2217.27H1658.63V2162.42H1669.09L1696.32 2195.71V2162.42H1709.25Z" fill="white"/>
<path d="M1764.66 2207.45V2217.67H1722.19V2162.82H1763.62V2173.04H1735.04V2184.93H1760.51V2194.75H1735.04V2207.45H1764.66Z" fill="white"/>
<path d="M1808.74 2217.27L1795.48 2198.26L1782.47 2217.27H1767.94L1788.22 2189.4L1768.97 2162.42H1783.35L1795.96 2180.22L1808.34 2162.42H1822.07L1802.91 2188.92L1823.43 2217.27H1808.74Z" fill="white"/>
<path d="M1838.84 2172.8H1821.27V2162.42H1869.18V2172.8H1851.61V2217.27H1838.84V2172.8Z" fill="white"/>
<path d="M1938.56 2213.12C1937.89 2213.11 1937.24 2212.94 1936.65 2212.62C1936.07 2212.29 1935.57 2211.84 1935.2 2211.28C1934.63 2210.4 1934.42 2209.33 1934.63 2208.29C1934.84 2207.26 1935.45 2206.36 1936.32 2205.77L1961.79 2188.76C1962.2 2188.51 1962.53 2188.16 1962.75 2187.74C1962.97 2187.32 1963.08 2186.84 1963.07 2186.37C1963.07 2185.89 1962.94 2185.41 1962.71 2184.99C1962.47 2184.57 1962.12 2184.22 1961.71 2183.97L1936.48 2169.04C1935.59 2168.49 1934.95 2167.62 1934.7 2166.6C1934.45 2165.58 1934.61 2164.51 1935.14 2163.61C1935.68 2162.71 1936.54 2162.05 1937.56 2161.79C1938.57 2161.52 1939.64 2161.66 1940.55 2162.18L1965.78 2177.03C1967.36 2177.97 1968.67 2179.3 1969.6 2180.89C1970.52 2182.48 1971.03 2184.28 1971.08 2186.12C1971.13 2187.96 1970.71 2189.78 1969.87 2191.41C1969.03 2193.05 1967.79 2194.44 1966.26 2195.47L1940.79 2212.4C1940.13 2212.85 1939.36 2213.1 1938.56 2213.12Z" fill="white"/>
<path d="M575.428 1065C573.033 1062.6 588.442 1043.2 609.919 1021.64C631.397 1000.09 650.798 984.758 653.273 987.153C655.748 989.548 640.259 1009.03 618.782 1030.51C597.304 1051.98 577.903 1067.47 575.428 1065Z" fill="#EC8305"/>
<path d="M666.527 1072.58C664.132 1075.06 643.453 1058.29 620.379 1035.22C597.305 1012.14 580.458 991.545 583.013 989.069C585.568 986.594 606.167 1003.36 629.161 1026.44C652.156 1049.51 669.002 1070.19 666.527 1072.58Z" fill="#EC8305"/>
<path d="M557.943 1723.93C555.468 1721.45 570.957 1702.05 592.434 1680.57C613.912 1659.1 633.313 1643.69 635.788 1646.08C638.263 1648.48 622.774 1667.88 601.217 1689.44C579.66 1710.99 560.338 1726.32 557.943 1723.93Z" fill="#EC8305"/>
<path d="M649.201 1731.51C646.726 1733.91 626.127 1717.22 603.053 1694.15C579.979 1671.07 563.132 1650.39 565.687 1648C568.242 1645.6 588.761 1662.29 611.836 1685.36C634.91 1708.44 651.437 1729.04 649.201 1731.51Z" fill="#EC8305"/>
<path d="M2106.46 3345.5L1545.9 3165.54C1544.4 3165.08 1542.83 3164.89 1541.27 3164.98L1110.12 3196.92C1034.36 3013.28 939.424 2783.74 896.23 2678.91C889.033 2661.72 877.437 2646.73 862.608 2635.45C847.78 2624.17 830.242 2616.99 811.758 2614.64L344.847 2553.64C339.295 2552.96 333.664 2553.76 328.516 2555.95C323.369 2558.13 318.885 2561.63 315.515 2566.09C312.144 2570.55 310.004 2575.82 309.308 2581.37C308.613 2586.92 309.387 2592.55 311.553 2597.71L574.47 3210.81C577.95 3218.95 583.083 3226.27 589.543 3232.32C596.003 3238.37 603.648 3243 611.995 3245.94L1146.05 3459.04C1158.26 3463.9 1171.48 3465.66 1184.54 3464.15L1218.71 3460.39C1337.03 3448.02 1921.31 3388.54 2104.07 3369.38C2106.96 3369.23 2109.71 3368.04 2111.81 3366.04C2113.91 3364.04 2115.22 3361.35 2115.51 3358.47C2115.8 3355.58 2115.05 3352.69 2113.39 3350.31C2111.73 3347.93 2109.27 3346.23 2106.46 3345.5Z" fill="#E0E0E0"/>
<path d="M2106.46 3345.5C2108.33 3346.11 2110.03 3347.14 2111.42 3348.53C2112.81 3349.92 2113.85 3351.62 2114.45 3353.49C2115.17 3355.85 2115.19 3358.37 2114.49 3360.74C2113.8 3363.11 2112.42 3365.23 2110.54 3366.82C2108.02 3368.77 2104.93 3369.83 2101.75 3369.86L2091.21 3370.97L1960.03 3384.87L1477.47 3435.09L1317.79 3451.69L1232.76 3460.47L1189.09 3465.19C1173.96 3467.54 1158.48 3465.75 1144.3 3460L787.087 3317.72L691.677 3279.63L643.054 3260.31L618.542 3250.57C614.471 3248.82 610.558 3247.38 606.167 3245.54C601.989 3243.69 598.026 3241.39 594.35 3238.68C586.956 3233.2 580.761 3226.27 576.147 3218.32C571.676 3210.33 568.801 3201.95 565.129 3193.73L543.811 3144.14C529.493 3110.93 515.095 3077.37 500.617 3043.46C442.572 2907.73 382.372 2767.85 320.814 2624.3L312.351 2604.58C308.773 2598.02 306.932 2590.65 307.002 2583.18C307.461 2575.57 310.454 2568.33 315.504 2562.61C320.553 2556.9 327.369 2553.04 334.866 2551.64C336.703 2551.24 338.619 2551.64 340.535 2551.08L346.044 2551.48L356.583 2552.92L377.582 2555.63L419.418 2561.06L584.53 2582.7L745.809 2603.78L785.73 2608.97C798.904 2610.96 812.078 2611.84 825.651 2614.96C851.876 2621.71 874.647 2638 889.524 2660.63C896.177 2671.9 901.764 2683.76 906.21 2696.08C911.107 2708 916.004 2719.87 920.901 2731.68L949.883 2802.02L1006.41 2939.03C1043.3 3028.61 1078.83 3114.68 1112.6 3196.6L1110.84 3195.48L1530.97 3164.42L1542.62 3163.55C1544.73 3163.52 1546.81 3163.9 1548.77 3164.66L1554.28 3166.5L1575.36 3173.53L1617.84 3187.18L1697.92 3213.45L1839.23 3259.04L2036.84 3322.91L2088.74 3339.91C2100.48 3343.75 2106.46 3345.82 2106.46 3345.82C2106.46 3345.82 2100.4 3344.07 2088.58 3340.39L2036.52 3323.95L1838.84 3260.55L1697.44 3215.36L1616.8 3189.49L1574.32 3175.92L1552.53 3168.97C1549.1 3167.57 1545.5 3166.63 1541.83 3166.18L1530.17 3167.06L1110.12 3198.99H1108.93L1108.37 3197.8C1074.52 3115.96 1038.99 3030.13 1001.94 2940.39L945.332 2803.38C935.751 2780.17 926.064 2756.73 916.27 2733.04C911.4 2721.22 906.45 2709.09 901.579 2697.43C897.198 2685.38 891.719 2673.75 885.212 2662.7C870.953 2640.97 849.127 2625.32 823.974 2618.79C811.519 2615.75 798.105 2614.8 785.011 2612.88L745.091 2607.69L583.732 2586.69L418.62 2565.14L376.703 2559.71L355.705 2556.91C348.982 2555.55 342.105 2555.12 335.266 2555.63C328.694 2556.88 322.725 2560.28 318.3 2565.3C313.876 2570.32 311.249 2576.66 310.834 2583.34C310.785 2590.19 312.518 2596.93 315.864 2602.9L324.567 2622.62L504.29 3041.87C518.821 3075.72 533.192 3109.28 547.404 3142.55C554.59 3159.15 561.616 3175.68 568.721 3192.13C572.314 3200.11 575.428 3208.9 579.58 3216.08C583.884 3223.56 589.704 3230.06 596.666 3235.16C600.12 3237.71 603.841 3239.88 607.764 3241.63C611.596 3243.31 615.748 3244.82 619.9 3246.5L644.411 3256.32L692.954 3275.72L788.764 3313.81L1145.81 3456.48C1159.45 3462.07 1174.37 3463.81 1188.93 3461.51L1232.68 3456.8L1317.71 3448.18L1477.39 3432.21L1960.11 3383.27L2091.37 3370.09L2101.91 3369.14C2104.96 3369.13 2107.92 3368.15 2110.38 3366.34C2112.19 3364.84 2113.53 3362.83 2114.22 3360.58C2114.92 3358.32 2114.94 3355.91 2114.29 3353.65C2113.53 3350.83 2111.69 3348.42 2109.18 3346.94C2107.42 3345.9 2106.46 3345.58 2106.46 3345.5Z" fill="#263238"/>
<path d="M1385.02 3234.52L1595.24 3322.51L1857.2 3295.2L1636.92 3204.26L1385.02 3234.52Z" fill="#F5F5F5"/>
<path d="M1226.53 3400.83L1636.92 3363.79L1245.06 3208.42L1119.07 3217.92L1185.65 3378.56L1226.53 3400.83Z" fill="#F5F5F5"/>
<path d="M2065.82 3345.26L2063.03 3345.74L2054.65 3346.78L2022.71 3350.05L1904.07 3361.63L1512.84 3398.12L1205.3 3425.9H1204.02L1203.54 3424.71L1135.43 3258.56L1116.75 3212.09C1114.68 3206.77 1113.08 3202.69 1111.96 3199.87C1111.38 3198.46 1110.87 3197.03 1110.44 3195.56C1110.44 3195.56 1111.16 3196.92 1112.44 3199.63L1117.71 3211.69L1137.27 3257.76C1154.04 3297.68 1177.99 3354.76 1206.73 3423.43L1204.98 3422.31L1512.44 3393.81L1904.07 3358.52L2022.47 3348.46L2054.41 3345.9L2062.79 3345.34L2065.82 3345.26Z" fill="black"/>
<path d="M325.126 2575.83H328.639L339.018 2577.03L378.939 2582.22L525.368 2602.18C587.165 2610.8 661.098 2621.18 742.456 2633.24L805.052 2642.9L821.02 2645.62C823.655 2646.01 826.449 2646.65 829.004 2647.29C830.361 2647.29 831.798 2647.85 833.156 2648.25C839.89 2650.95 846.002 2655 851.12 2660.15C853.194 2662.36 854.845 2664.93 855.99 2667.73L859.104 2675.72C875.791 2717.39 893.037 2760.59 910.761 2804.74C981.341 2981.59 1045.13 3141.75 1091.44 3257.84C1114.36 3315.72 1132.88 3362.67 1145.81 3395.24C1152.04 3411.21 1156.91 3423.99 1160.35 3432.77C1161.94 3436.92 1163.14 3440.12 1164.02 3442.51C1164.47 3443.6 1164.84 3444.72 1165.14 3445.86C1164.57 3444.83 1164.07 3443.76 1163.62 3442.67L1159.55 3433.01L1144.3 3395.88C1131.12 3363.31 1112.36 3316.6 1088.41 3258.88L907.328 2806.26C889.603 2762.1 872.358 2718.91 855.671 2677.23L852.557 2669.25C851.595 2666.89 850.216 2664.73 848.485 2662.86C844.915 2658.98 840.597 2655.85 835.79 2653.68C834.595 2653.11 833.369 2652.6 832.118 2652.16L828.285 2651.2C825.73 2650.64 823.175 2650.09 820.301 2649.69L804.333 2646.89L741.737 2637.07L524.889 2605.14L378.62 2583.82L338.699 2577.91L328.399 2576.23L325.126 2575.83Z" fill="black"/>
<path d="M737.825 2942.86C757.785 2969.61 761.777 3000.35 746.847 3011.53C731.917 3022.71 703.493 3010.17 683.533 2983.42C663.573 2956.68 659.581 2926.02 674.511 2914.76C689.441 2903.5 717.865 2916.2 737.825 2942.86Z" fill="white"/>
<path d="M3263.84 2486.89C3237.09 2335.19 3069.35 2243.77 3013.94 2193.31L3097.21 2304.69C3139.83 2480.48 3155.98 2661.64 3145.12 2842.18C3144 2861.91 3146.16 2888.49 3160.21 2891.29C3165.28 2891.71 3170.33 2890.13 3174.26 2886.9C3223.44 2855.36 3255.38 2783.1 3262.48 2708.69C3269.59 2634.28 3275.98 2557.07 3263.84 2486.89Z" fill="#EC8305"/>
<path d="M3141.05 2316.99C3133.06 2301.74 3136.33 2253.12 3093.14 2303.89L3090.35 2284.89L2823.44 2079.7L2228.54 2110.6C2171.45 2114.19 2085.7 2213.04 2064.31 2254.31C2046.74 2407.85 2043.23 2544.14 2043.23 2544.14C2043.23 2544.14 2022.79 2714.84 2043.23 2795.56C2063.67 2876.28 2087.86 2905.42 2119.48 2968.17C2142.61 3011.05 2171.46 3050.58 2205.23 3085.7L2233.01 3301.27L2854.5 3357.16L3138.97 3341.19C3138.97 3341.19 3113.5 2916.04 3113.5 2908.53C3113.5 2905.02 3149.03 2822.94 3187.19 2735.84C3252.02 2586.77 3215.46 2460.86 3141.05 2316.99Z" fill="#024CAA"/>
<path d="M1580.31 3090.25C1583.42 3090.25 1614.48 2880.35 1634.84 2832.68C1654 2787.73 2064.31 2254.23 2064.31 2254.23L2160.91 2565.61L2119.48 2732.16L1895.92 3001.15L1832.77 3196.12L1580.31 3090.25Z" fill="#024CAA"/>
<path d="M3223.76 2476.51C3194.3 2289.76 3048.83 2297.91 3048.83 2297.91L2904.24 2549.49V3069.73L2206.66 3130.09L2193.73 3305.26C2193.73 3305.26 2888.75 3464.15 3049.31 3410.89C3155.58 3375.68 3245.32 3286.82 3255.14 3141.59C3264.96 2996.36 3253.3 2663.34 3223.76 2476.51Z" fill="#024CAA"/>
<path d="M1896.64 3000.83C1894.61 2988.93 1891.95 2977.15 1888.66 2965.54C1879.91 2937.64 1864.11 2912.47 1842.8 2892.46C1821.48 2872.45 1795.37 2858.27 1766.98 2851.29C1755.17 2848.63 1743.23 2846.61 1731.21 2845.22C1734.5 2844.83 1737.82 2844.83 1741.11 2845.22C1750.06 2845.58 1758.96 2846.76 1767.7 2848.73C1796.83 2855.18 1823.68 2869.39 1845.39 2889.86C1867.11 2910.32 1882.89 2936.28 1891.05 2964.98C1893.57 2973.59 1895.28 2982.41 1896.16 2991.33C1896.71 2994.46 1896.87 2997.65 1896.64 3000.83Z" fill="black"/>
<path d="M2230.54 3122.91C2231.53 3122.64 2232.55 3122.45 2233.57 3122.35L2242.43 3121.07L2276.61 3116.52L2402.52 3100.55L2817.69 3050.09L2909.99 3039.07L2908.15 3041.07C2913.5 2899.59 2916.13 2774.88 2915.18 2685.54C2915.18 2640.9 2914.22 2605.06 2913.66 2580.38C2913.66 2568.25 2913.1 2558.75 2912.94 2552.12V2544.78C2912.94 2543.1 2912.94 2542.3 2912.94 2542.22C2913.02 2543.07 2913.02 2543.93 2912.94 2544.78C2912.94 2546.61 2912.94 2549.01 2913.42 2552.04C2913.42 2558.75 2914.22 2568.01 2914.78 2580.38C2915.81 2604.98 2916.93 2640.82 2917.57 2685.54C2919.01 2774.88 2917.09 2899.75 2911.9 3041.15V3042.91H2910.15L2817.85 3054L2402.28 3103.27L2276.29 3117.72L2241.95 3121.39L2233.01 3122.27L2230.54 3122.91Z" fill="black"/>
<path d="M3264.64 3122.91C3264.75 3123.97 3264.75 3125.04 3264.64 3126.1C3264.64 3128.34 3264.64 3131.45 3264.16 3135.36C3263.44 3147.27 3262.08 3159.13 3260.09 3170.89C3256.95 3189.55 3252.39 3207.94 3246.44 3225.9C3238.28 3249.62 3227.35 3272.3 3213.86 3293.45C3197.45 3319.2 3176.74 3341.94 3152.62 3360.67C3124.91 3382.19 3092.89 3397.46 3058.73 3405.46C3040.34 3409.89 3021.67 3413.01 3002.84 3414.81C2983.25 3416.56 2963.58 3417.31 2943.92 3417.04C2902.68 3416.21 2861.56 3412.37 2820.88 3405.54L2585.27 3366.82L2482.52 3349.74L2393.01 3333.21C2338.48 3322.99 2294.25 3315.24 2263.59 3310.61L2228.22 3305.42L2219.04 3304.15C2217.98 3304.05 2216.94 3303.84 2215.93 3303.51H2219.04L2228.3 3304.47C2236.29 3305.34 2248.42 3306.7 2263.83 3308.86C2294.57 3313.01 2338.88 3320.35 2393.57 3330.17L2482.91 3346.14L2585.75 3362.83L2821.36 3401.31C2861.9 3408.21 2902.89 3412.14 2944 3413.05C2963.96 3413.05 2983.44 3412.49 3002.52 3410.97C3021.13 3409.26 3039.59 3406.22 3057.77 3401.87C3091.49 3394.07 3123.14 3379.09 3150.55 3357.96C3174.43 3339.57 3195.01 3317.24 3211.39 3291.93C3224.89 3271.04 3235.9 3248.64 3244.2 3225.18C3250.3 3207.41 3255.08 3189.21 3258.49 3170.73C3261.13 3155.48 3262.72 3143.51 3263.28 3135.36L3264.24 3126.1C3264.3 3125.03 3264.43 3123.96 3264.64 3122.91Z" fill="black"/>
<path d="M2211.69 3135.76C2211.37 3134.69 2211.15 3133.6 2211.06 3132.49C2210.66 3130.01 2210.1 3126.74 2209.54 3122.75C2208.26 3113.8 2206.42 3101.35 2204.19 3085.54V3086.1L2151.33 3027.58C2141.03 3012.88 2131.72 2997.52 2123.47 2981.59C2114.24 2963.45 2106.09 2944.79 2099.04 2925.7C2083.46 2882.55 2072.75 2837.81 2067.1 2792.28C2061.53 2743.01 2060.38 2693.34 2063.67 2643.86C2066.14 2598.35 2070.85 2557.47 2075.33 2523.3C2079.8 2489.13 2084.03 2461.58 2087.06 2442.5L2090.65 2420.62C2091.05 2418.31 2091.37 2416.47 2091.69 2414.95C2091.75 2414.29 2091.91 2413.65 2092.17 2413.04C2092.24 2413.67 2092.24 2414.32 2092.17 2414.95C2092.17 2416.55 2092.17 2418.39 2091.53 2420.7C2090.81 2426.13 2089.94 2433.48 2088.74 2442.74C2086.18 2461.82 2082.43 2489.45 2078.28 2523.7C2074.13 2557.95 2070.37 2598.67 2067.9 2644.18C2064.85 2693.4 2066.08 2742.8 2071.57 2791.8C2077.13 2837.05 2087.63 2881.54 2102.87 2924.5C2109.77 2943.4 2117.76 2961.87 2126.82 2979.83C2134.9 2995.68 2144 3010.98 2154.05 3025.66L2206.18 3084.9L2210.5 3122.19C2210.9 3126.26 2211.21 3129.53 2211.53 3132.01C2211.81 3133.24 2211.86 3134.51 2211.69 3135.76Z" fill="black"/>
<path d="M3010.51 3155.16C3005.24 3149.32 3000.41 3143.1 2996.05 3136.56C2987.35 3124.82 2975.14 3108.85 2960.84 3091.85C2946.55 3074.84 2933.06 3059.91 2923.08 3049.37C2917.35 3043.9 2912.01 3038.03 2907.11 3031.81C2913.61 3036.32 2919.6 3041.51 2925 3047.3C2938.72 3060.54 2951.7 3074.54 2963.88 3089.21C2976.14 3103.79 2987.63 3119.01 2998.29 3134.8C3003.04 3141.16 3007.13 3147.98 3010.51 3155.16Z" fill="black"/>
<path d="M1751.01 3115.88C1745.1 3081.79 1714.04 3055.2 1714.04 3055.2C1714.04 3055.2 1699.19 3013.68 1677 3002.74C1654.8 2991.81 1637.08 3013.68 1617.76 3007.77C1598.43 3001.87 1557 3000.35 1543.66 3007.77C1530.33 3015.2 1514.04 3056.64 1514.04 3056.64C1500.6 3057.18 1487.45 3060.73 1475.56 3067.02C1465.48 3072.22 1456.76 3079.71 1450.09 3088.89C1444.3 3086.64 1437.97 3086.19 1431.92 3087.62C1425.88 3089.05 1420.41 3092.27 1416.24 3096.88C1408.14 3106.34 1402.07 3117.38 1398.43 3129.29L1387.89 3157.56C1385.86 3161.87 1384.93 3166.61 1385.18 3171.37C1385.99 3175.28 1388.11 3178.8 1391.18 3181.36C1394.26 3183.91 1398.11 3185.34 1402.1 3185.42C1406.16 3185.44 1410.18 3184.6 1413.89 3182.97C1417.61 3181.33 1420.94 3178.93 1423.66 3175.92C1429.09 3170.56 1433.89 3164.58 1437.95 3158.12L1440.59 3176.64C1440.59 3176.64 1444.98 3205.94 1468.69 3207.7C1485.06 3208.97 1502.78 3189.97 1502.78 3189.97L1544.22 3185.5L1550.13 3226.94C1552.86 3234.92 1558.08 3241.82 1565.02 3246.62C1571.96 3251.42 1580.26 3253.87 1588.69 3253.61C1603.54 3253.61 1622.71 3228.46 1622.71 3228.46L1661.27 3243.23C1661.27 3243.23 1705.66 3274.36 1726.42 3263.99C1732.22 3261.05 1736.86 3256.22 1739.56 3250.3C1742.25 3244.38 1742.86 3237.72 1741.27 3231.41C1750.13 3221.37 1757.14 3209.82 1761.95 3197.32C1767.54 3179.59 1757.24 3149.97 1751.01 3115.88Z" fill="#FFBE9D"/>
<path d="M1439.63 3169.53C1437.94 3154.88 1438.45 3140.05 1441.15 3125.54C1442.53 3110.87 1446.14 3096.49 1451.84 3082.91C1452.96 3082.91 1448.57 3102.31 1445.22 3126.18C1441.86 3150.05 1441.15 3169.53 1439.63 3169.53Z" fill="#EB996E"/>
<path d="M1504.38 3130.57C1506.9 3140.64 1508.08 3151.01 1507.89 3161.39C1508.74 3168.89 1507.98 3176.48 1505.66 3183.66C1503.34 3189.25 1500.07 3191.65 1499.83 3191.01C1499.59 3190.37 1501.51 3187.9 1502.86 3183.03C1504.23 3176.06 1504.53 3168.92 1503.74 3161.87C1502.53 3151.46 1502.74 3140.92 1504.38 3130.57Z" fill="#EB996E"/>
<path d="M1532.01 3112.93C1532.8 3113.72 1527.38 3120.91 1519.79 3128.26C1512.21 3135.6 1505.5 3141.51 1504.62 3140.71C1503.74 3139.91 1509.25 3132.73 1516.84 3125.38C1524.42 3118.04 1531.21 3112.13 1532.01 3112.93Z" fill="#EB996E"/>
<path d="M1537.51 3033.24C1538.41 3040.71 1538.73 3048.24 1538.47 3055.76C1538.47 3069.73 1539.03 3088.89 1540.15 3110.05C1541.27 3131.21 1542.94 3150.37 1544.14 3164.26C1545.28 3171.71 1545.76 3179.25 1545.58 3186.78C1543.37 3179.55 1541.93 3172.11 1541.27 3164.58C1539.27 3150.77 1537.2 3131.61 1536 3110.29C1534.8 3088.97 1534.96 3069.73 1535.52 3055.76C1535.4 3048.21 1536.07 3040.66 1537.51 3033.24Z" fill="#EB996E"/>
<path d="M1692.89 3049.13C1692.89 3049.13 1691.13 3053.12 1688.34 3060.31C1684.44 3070.49 1681.34 3080.95 1679.07 3091.61C1677.64 3098.47 1676.12 3105.9 1674.44 3113.8C1672.86 3122.46 1670.51 3130.95 1667.42 3139.19C1663.97 3148.5 1658.16 3156.75 1650.57 3163.15C1646.42 3166.74 1641.48 3169.31 1636.15 3170.62C1630.82 3171.94 1625.26 3171.98 1619.91 3170.73C1614.36 3169.48 1609.33 3166.52 1605.54 3162.27C1602.04 3158.05 1599.8 3152.93 1599.07 3147.5C1597.94 3137.8 1597.75 3128.01 1598.51 3118.27C1599.42 3101.94 1601.93 3085.73 1606.02 3069.89C1608.76 3059.21 1612.28 3048.75 1616.56 3038.59C1618.07 3035 1619.27 3032.29 1620.23 3030.61C1620.64 3029.64 1621.17 3028.72 1621.83 3027.89C1620.83 3031.78 1619.58 3035.59 1618.07 3039.31C1614.41 3049.58 1611.34 3060.06 1608.89 3070.69C1605.26 3086.43 1603.07 3102.46 1602.35 3118.59C1601.71 3128.02 1601.95 3137.48 1603.06 3146.86C1603.72 3151.55 1605.65 3155.97 1608.65 3159.63C1611.91 3163.21 1616.17 3165.71 1620.87 3166.82C1625.61 3167.91 1630.54 3167.86 1635.26 3166.68C1639.98 3165.5 1644.35 3163.22 1648.02 3160.03C1655.14 3154.05 1660.63 3146.36 1663.98 3137.68C1669 3122.3 1673.13 3106.66 1676.36 3090.81C1678.86 3080.09 1682.39 3069.64 1686.9 3059.59C1688.14 3056.84 1689.55 3054.18 1691.13 3051.61C1692.09 3049.93 1692.73 3049.05 1692.89 3049.13Z" fill="#EB996E"/>
<path d="M1708.53 3067.1C1707.41 3075.95 1703.51 3084.22 1697.38 3090.71C1691.25 3097.19 1683.22 3101.56 1674.44 3103.19C1681.44 3098.57 1688.08 3093.45 1694.32 3087.86C1699.57 3081.3 1704.32 3074.36 1708.53 3067.1Z" fill="#EB996E"/>
<path d="M1622.79 3170.33C1625.41 3181.42 1626.08 3192.87 1624.78 3204.18C1624.36 3214.25 1622.94 3224.26 1620.55 3234.05V3234.6C1620.25 3234.76 1619.92 3234.84 1619.58 3234.85C1619.25 3234.86 1618.91 3234.79 1618.61 3234.66C1618.3 3234.52 1618.03 3234.31 1617.81 3234.05C1617.59 3233.8 1617.44 3233.49 1617.36 3233.17C1617.36 3232.37 1617.36 3232.05 1617.36 3232.05C1617.36 3232.05 1617.36 3232.45 1617.92 3232.77C1618.47 3233.09 1619.03 3233.41 1619.27 3232.77L1618.79 3233.41C1618.79 3227.98 1619.99 3216.64 1620.71 3203.55C1620.62 3192.44 1621.31 3181.34 1622.79 3170.33Z" fill="#EB996E"/>
<path d="M1716.76 3137.28C1713.68 3142.36 1710.04 3147.07 1705.9 3151.33C1696.75 3161.97 1688.72 3173.53 1681.95 3185.82C1675.21 3198.09 1671.38 3211.75 1670.77 3225.74C1670.77 3236.52 1672.61 3243.07 1671.89 3243.23C1669.09 3237.83 1667.69 3231.82 1667.82 3225.74C1667.58 3211.1 1671.18 3196.64 1678.28 3183.82C1685.31 3171.22 1694.01 3159.62 1704.14 3149.33C1707.82 3144.79 1712.06 3140.74 1716.76 3137.28Z" fill="#EB996E"/>
<path d="M1700.39 3210.89C1697.89 3201.91 1698.31 3192.38 1701.58 3183.65C1704.85 3174.93 1710.81 3167.47 1718.6 3162.35C1746.46 3142.55 1829.89 3090.49 1831.65 3090.49C1833.41 3090.49 1929.62 3058.55 1970.09 3054.4C2010.57 3050.25 2187.74 3138.24 2187.74 3138.24C2187.74 3138.24 2228.86 3197.48 2222.23 3254.32C2215.61 3311.17 2178.56 3314.45 2178.56 3314.45L2127.14 3301.91L2074.13 3291.77C2074.13 3291.77 1956.84 3324.43 1938.4 3318.44C1919.95 3312.45 1913.57 3292.41 1933.53 3281.55C1953.49 3270.69 2010.89 3253.69 2010.89 3253.69L2055.05 3235L1911.33 3255.52C1911.33 3255.52 1789.81 3279.47 1775.6 3276.12C1761.39 3272.77 1759.23 3262.15 1758.04 3252.17C1758.04 3252.17 1709.09 3276.12 1694.56 3263.03C1680.03 3249.93 1673.64 3221.43 1700.39 3210.89Z" fill="#FFBE9D"/>
<path d="M2010.57 3175.92C2007.01 3176.5 2003.4 3176.68 1999.8 3176.48C1992.93 3176.48 1982.95 3176.48 1970.65 3177.28C1956.31 3177.93 1942.06 3179.93 1928.1 3183.27C1919.87 3185.36 1911.85 3188.22 1904.15 3191.81C1896.16 3195.48 1888.18 3199.79 1880.19 3204.58C1872.05 3209.24 1863.56 3213.27 1854.8 3216.64C1846.62 3219.66 1838.04 3221.52 1829.33 3222.15C1814.99 3222.15 1800.69 3223.76 1786.7 3226.94C1777.57 3229.85 1769.51 3235.41 1763.55 3242.91C1761.53 3245.82 1759.74 3248.89 1758.2 3252.09C1758.2 3252.09 1758.2 3251.05 1758.68 3249.29C1759.5 3246.72 1760.68 3244.28 1762.19 3242.03C1767.94 3233.74 1776.19 3227.5 1785.74 3224.22C1799.88 3220.53 1814.41 3218.57 1829.02 3218.4C1846.4 3216.36 1863.1 3210.44 1877.88 3201.07C1885.86 3196.52 1893.85 3191.89 1902.31 3188.14C1910.19 3184.54 1918.4 3181.71 1926.82 3179.67C1941.04 3176.35 1955.58 3174.61 1970.17 3174.48C1982.63 3174.48 1992.61 3174.48 1999.56 3174.96C2003.25 3174.94 2006.94 3175.26 2010.57 3175.92Z" fill="#EB996E"/>
<path d="M1967.14 3115.32C1966.31 3115.87 1965.43 3116.32 1964.51 3116.68C1962.83 3117.48 1960.19 3118.52 1956.52 3119.71C1946.72 3122.73 1936.72 3125.03 1926.58 3126.58C1913.89 3128.81 1898.56 3130.49 1882.27 3134.56C1864.72 3139.87 1847.86 3147.24 1832.05 3156.52C1802.59 3172.91 1771.82 3186.85 1740.07 3198.2C1727.94 3202.51 1717.96 3205.7 1711.01 3207.78C1707.49 3209.05 1703.85 3209.99 1700.15 3210.57C1703.46 3208.8 1706.94 3207.35 1710.53 3206.26L1739.03 3195.4C1770.32 3183.34 1800.74 3169.12 1830.05 3152.85C1846.16 3143.41 1863.38 3136.01 1881.31 3130.81C1896.11 3127.47 1911.1 3124.96 1926.18 3123.31C1936.23 3122.03 1946.2 3120.19 1956.04 3117.8C1959.69 3116.77 1963.4 3115.94 1967.14 3115.32Z" fill="#EB996E"/>
<path d="M2083.79 3149.57C2082.73 3146.46 2081.96 3143.25 2081.47 3139.99C2079.56 3132.52 2075.88 3125.63 2070.74 3119.89C2065.6 3114.15 2059.14 3109.73 2051.93 3107.02C2048.76 3106.16 2045.66 3105.04 2042.67 3103.66C2042.67 3103.19 2046.66 3102.71 2052.89 3104.22C2060.98 3106.4 2068.27 3110.86 2073.89 3117.08C2079.46 3123.33 2083.1 3131.07 2084.35 3139.35C2085.18 3142.74 2084.99 3146.3 2083.79 3149.57Z" fill="#EB996E"/>
<path d="M2150.22 3239.23C2150.07 3234.74 2149.67 3230.27 2149.02 3225.82C2146.3 3215.44 2140.17 3206.27 2131.61 3199.79C2122.81 3193.4 2113.09 3188.37 2102.79 3184.86C2098.31 3183.68 2094.01 3181.88 2090.02 3179.51C2094.68 3179.58 2099.3 3180.44 2103.67 3182.07C2114.69 3184.9 2125.07 3189.8 2134.25 3196.52C2143.56 3203.55 2149.87 3213.85 2151.89 3225.34C2153.05 3230.02 2152.45 3234.96 2150.22 3239.23Z" fill="#EB996E"/>
<path d="M1758.52 3252.01C1756.48 3253.82 1754.13 3255.23 1751.57 3256.16C1744.9 3259.3 1738.02 3261.97 1730.97 3264.15C1726.12 3265.84 1721.16 3267.2 1716.12 3268.22C1710.04 3269.02 1703.87 3268.39 1698.08 3266.38C1694.81 3265.18 1691.82 3263.32 1689.32 3260.89C1686.82 3258.47 1684.85 3255.56 1683.54 3252.33C1680.24 3245.77 1678.91 3238.39 1679.71 3231.09C1680.54 3225.58 1683.39 3220.57 1687.7 3217.04C1691.37 3213.81 1695.48 3211.12 1699.91 3209.05L1698.87 3211.45C1695.62 3201.56 1696.37 3190.78 1700.95 3181.43C1704.75 3174.42 1709.88 3168.21 1716.04 3163.15C1719.99 3159.85 1724.21 3156.88 1728.66 3154.28C1730.18 3153.18 1731.88 3152.35 1733.68 3151.81C1734.08 3152.37 1727.22 3156.36 1717.72 3164.98C1712.11 3170.11 1707.46 3176.19 1703.98 3182.95C1700.05 3191.57 1699.59 3201.38 1702.71 3210.33L1703.19 3211.85L1701.67 3212.65C1694.16 3216.56 1685.14 3222.31 1684.26 3231.73C1683.6 3238.23 1684.76 3244.78 1687.62 3250.65C1688.68 3253.41 1690.3 3255.92 1692.39 3258.01C1694.48 3260.1 1696.99 3261.73 1699.75 3262.79C1704.85 3264.66 1710.31 3265.37 1715.72 3264.86C1720.62 3263.98 1725.47 3262.83 1730.25 3261.43C1739.11 3258.96 1746.22 3256.48 1751.01 3254.72C1753.41 3253.56 1755.93 3252.65 1758.52 3252.01Z" fill="#EB996E"/>
<path d="M2377.13 1636.9C2359.8 1463.96 2323.15 1291.83 2330.74 1117.93L2188.54 1206.72C2195.65 1275.54 2133.77 1328.87 2097.92 1387.96C2076.47 1424.05 2063.88 1464.72 2061.21 1506.62C2058.53 1548.52 2065.83 1590.46 2082.51 1629C2095.29 1657.74 2113.41 1684.89 2118.12 1716.02C2126.1 1768.56 2093.61 1821.97 2105.59 1873.79C2119.32 1933.43 2192.29 1966.17 2251.14 1949.4C2309.98 1932.63 2352.13 1877.54 2369.46 1819.18C2386.79 1760.81 2383.19 1697.82 2377.13 1636.9Z" fill="black"/>
<path d="M2196.21 1177.49C2204.07 1135.3 2223.02 1095.95 2251.1 1063.49C2279.18 1031.03 2315.39 1006.61 2356.01 992.752C2396.63 978.891 2440.21 976.081 2482.28 984.609C2524.35 993.138 2563.39 1012.7 2595.41 1041.29C2621.36 1064.52 2642.6 1093.5 2672.62 1111.15C2706.55 1131.03 2710.94 1124.32 2748.31 1136.38C2785.67 1148.43 2858.89 1246 2860.08 1285.28L2889.15 1456.14C2890.1 1496.46 2839.81 1522.41 2800.84 1512.03C2761.88 1501.65 2734.41 1467.24 2712.06 1433.55C2689.7 1399.85 2668.47 1363.37 2634.05 1342.21C2576.97 1307.16 2503.67 1325.04 2439 1342.21C2374.33 1359.37 2299.2 1374.14 2245.39 1334.22C2199.4 1299.49 2185.67 1234.02 2196.21 1177.49Z" fill="black"/>
<path d="M2175.61 1425C2175.61 1312.59 2241.79 1170.71 2354.05 1175.82L2707.75 1242.88C2724.21 1243.61 2739.8 1250.5 2751.42 1262.18C2763.05 1273.87 2769.86 1289.49 2770.5 1305.96L2783.84 2148.28H2786.23C2786.23 2148.28 2663.36 2457.27 2428.62 2399.31C2382.07 2387.81 2416.49 2271.96 2404.19 2221.18L2401.88 2221.66C2401.4 2215.51 2401 2209.84 2400.52 2204.01C2393.65 2166.01 2390.79 2127.4 2391.98 2088.8C2387.1 2021.02 2385.43 1992.99 2385.43 1993.87C2385.43 1994.75 2240.92 1978.7 2200.04 1793.87C2179.76 1702.37 2175.21 1549.95 2175.61 1425Z" fill="#FFBE9D"/>
<path d="M2238.04 1572.07C2238.35 1578.31 2241.09 1584.18 2245.67 1588.43C2250.25 1592.69 2256.31 1594.98 2262.55 1594.82C2265.62 1594.89 2268.66 1594.34 2271.51 1593.21C2274.35 1592.07 2276.94 1590.38 2279.12 1588.23C2281.3 1586.08 2283.03 1583.51 2284.2 1580.68C2285.38 1577.85 2285.97 1574.81 2285.95 1571.75C2285.64 1565.51 2282.9 1559.64 2278.32 1555.39C2273.74 1551.14 2267.68 1548.84 2261.44 1549C2258.37 1548.93 2255.33 1549.48 2252.48 1550.62C2249.64 1551.75 2247.05 1553.44 2244.86 1555.59C2242.68 1557.74 2240.96 1560.31 2239.78 1563.14C2238.61 1565.97 2238.02 1569.01 2238.04 1572.07Z" fill="#263238"/>
<path d="M2213.37 1502.21C2216.48 1505.16 2233.81 1490.63 2259.6 1489.2C2285.39 1487.76 2305.03 1499.41 2307.5 1496.14C2308.86 1494.62 2305.43 1489.2 2296.88 1483.69C2285.26 1476.61 2271.73 1473.32 2258.16 1474.26C2244.89 1475.21 2232.26 1480.33 2222.07 1488.88C2214.09 1495.1 2211.77 1500.93 2213.37 1502.21Z" fill="#263238"/>
<path d="M2470.38 1559.06C2470.69 1565.3 2473.43 1571.17 2478.01 1575.42C2482.59 1579.67 2488.64 1581.96 2494.89 1581.81C2497.95 1581.88 2501 1581.32 2503.84 1580.19C2506.69 1579.06 2509.28 1577.37 2511.46 1575.22C2513.64 1573.06 2515.37 1570.5 2516.54 1567.67C2517.71 1564.84 2518.31 1561.8 2518.28 1558.74C2517.97 1552.45 2515.2 1546.54 2510.57 1542.29C2505.94 1538.03 2499.82 1535.76 2493.53 1535.98C2490.49 1535.95 2487.47 1536.52 2484.65 1537.67C2481.84 1538.82 2479.27 1540.52 2477.12 1542.66C2474.96 1544.81 2473.26 1547.37 2472.1 1550.18C2470.94 1553 2470.36 1556.01 2470.38 1559.06Z" fill="#263238"/>
<path d="M2466.87 1491.83C2469.98 1494.7 2487.31 1480.25 2513.09 1478.74C2538.88 1477.22 2558.52 1489.04 2561 1485.68C2562.28 1484.16 2559 1478.74 2550.38 1473.23C2538.75 1466.19 2525.23 1462.9 2511.66 1463.81C2498.27 1464.61 2485.48 1469.61 2475.09 1478.1C2467.66 1484.64 2465.27 1490.47 2466.87 1491.83Z" fill="#263238"/>
<path d="M2384.87 1688.48C2384.87 1686.96 2368.9 1685.21 2342.55 1683.45C2335.93 1683.45 2329.62 1682.17 2328.26 1677.78C2327.3 1671.01 2328.41 1664.1 2331.46 1657.98C2336.73 1642.01 2342.15 1624.69 2347.9 1606.8C2370.66 1533.83 2386.63 1474.03 2383.67 1473.15C2380.72 1472.27 2359.72 1530.63 2337.2 1603.53L2321.64 1655.11C2317.95 1663.26 2317.3 1672.46 2319.8 1681.05C2320.88 1683.33 2322.48 1685.33 2324.46 1686.9C2326.44 1688.46 2328.75 1689.55 2331.22 1690.08C2334.92 1690.85 2338.7 1691.14 2342.47 1690.95C2368.66 1690.79 2384.87 1689.92 2384.87 1688.48Z" fill="#263238"/>
<path d="M2385.43 1994.35C2473.38 1990.36 2558.51 1962.06 2631.34 1912.59C2631.34 1912.59 2576.09 2046.33 2388.3 2040.34L2385.43 1994.35Z" fill="#EB996E"/>
<path d="M2399.48 1749.88C2404 1743.41 2410.1 1738.2 2417.2 1734.74C2424.3 1731.29 2432.16 1729.71 2440.04 1730.16C2445.75 1730.3 2451.37 1731.6 2456.56 1733.99C2461.75 1736.38 2466.4 1739.8 2470.22 1744.05C2473.93 1748.13 2476.29 1753.25 2476.99 1758.72C2477.69 1764.19 2476.69 1769.74 2474.13 1774.63C2470.28 1779.5 2465.06 1783.11 2459.15 1785.01C2453.23 1786.9 2446.88 1786.98 2440.92 1785.25C2428.48 1781.68 2416.89 1775.65 2406.83 1767.52C2403.73 1765.66 2401.02 1763.22 2398.84 1760.34C2397.81 1758.97 2397.21 1757.34 2397.11 1755.63C2397.01 1753.92 2397.42 1752.23 2398.28 1750.75" fill="#EB996E"/>
<path d="M2461.6 1701.73C2457.36 1701.73 2458.96 1729.68 2436.29 1750.91C2413.61 1772.15 2383.59 1770.95 2383.59 1774.87C2383.59 1776.62 2390.54 1779.9 2403.15 1779.5C2419.55 1778.76 2435.15 1772.25 2447.23 1761.13C2458.8 1750.45 2465.76 1735.67 2466.63 1719.94C2467.19 1708.2 2463.59 1701.41 2461.6 1701.73Z" fill="#263238"/>
<path d="M2454.49 1394.18C2457.45 1401.05 2482.99 1396.18 2513.41 1398.02C2543.83 1399.85 2568.82 1406.56 2572.42 1400.01C2574.01 1396.9 2569.38 1390.59 2559.16 1384.04C2545.5 1376.52 2530.31 1372.21 2514.73 1371.43C2499.15 1370.66 2483.6 1373.44 2469.26 1379.57C2458.48 1385.08 2453.61 1390.91 2454.49 1394.18Z" fill="#263238"/>
<path d="M2218.32 1427.08C2223.19 1432.67 2240.6 1425.56 2261.91 1423.96C2283.23 1422.37 2301.84 1425.56 2305.35 1419.17C2307.02 1416.06 2303.83 1410.39 2295.53 1405.36C2284.53 1399.33 2271.99 1396.71 2259.5 1397.85C2247.01 1398.99 2235.15 1403.83 2225.43 1411.75C2218.24 1418.22 2216.17 1424.36 2218.32 1427.08Z" fill="#263238"/>
<path d="M2357.24 1127.75L2371.78 1106.52C2480.35 1112.14 2587.65 1132.5 2690.74 1167.04C2731.94 1180.85 2773.78 1197.85 2803.32 1229.71C2844.04 1273.46 2854.02 1336.7 2862 1395.94C2892.5 1621.33 2920.6 1853.75 2862.8 2073.79C2843.96 2047.29 2809.63 2036.99 2777.37 2032.75C2745.11 2028.52 2711.5 2028.68 2681.56 2015.67C2665.3 2008.22 2650.78 1997.46 2638.92 1984.06C2627.07 1970.67 2618.15 1954.95 2612.74 1937.9C2602.07 1903.5 2603.85 1866.45 2617.77 1833.23C2632.86 1796.26 2661.52 1759.7 2651.54 1721.45C2641.08 1680.97 2592.62 1660.45 2579.04 1620.93C2555.65 1552.59 2649.3 1484.09 2625.27 1415.98C2616.33 1390.83 2592.86 1373.58 2568.27 1363.21C2543.67 1352.83 2517.17 1347.8 2492.34 1338.14C2451.05 1321.03 2415.98 1291.71 2391.83 1254.11C2367.69 1216.5 2355.62 1172.41 2357.24 1127.75Z" fill="black"/>
<path d="M2909.59 1239.13C2793.5 1076.42 2714.85 1056.69 2605.63 1050.63L2757.33 1390.75C2780.08 1445.52 2811.38 1511.95 2816.25 1570.95C2822 1640.97 2797.73 1699.58 2765.23 1761.77C2726.27 1836.5 2683.48 1907.72 2616.49 1958.82C2549.5 2009.92 2400.36 2074.19 2322.91 2041.06L2430.94 2101.5L2688.99 2102.46L2989.59 2103.65C2989.59 2103.65 3024.72 2072.83 3055.62 1993.31C3133.14 1794.11 3039.09 1420.61 2909.59 1239.13Z" fill="#EC8305"/>
<path d="M3123.64 2298.94C3123.64 2298.94 3058.97 2166.25 2974.58 2093.27C2890.19 2020.3 2838.37 2021.02 2717.97 2031.24C2597.57 2041.46 2429.1 2060.46 2389.18 2050.32L2385.43 1994.43C2365.63 1992.43 2284.43 1952.91 2268.62 1929.04C2238.44 1959.94 2225.27 1992.91 2232.13 2027.96L2212.41 2035.39C2183.32 2046.03 2159.17 2067.01 2144.56 2094.33C2129.95 2121.65 2125.91 2153.39 2133.21 2183.49C2140.72 2212.24 2158.84 2229.88 2195.25 2236.19C2339.76 2261.18 2726.11 2156.75 2842.44 2156.35C2958.77 2155.95 3123.64 2298.94 3123.64 2298.94Z" fill="#EC8305"/>
<path d="M2182.15 2234.67C2185.54 2234.57 2188.93 2234.76 2192.29 2235.23C2198.84 2235.87 2208.26 2236.91 2220.96 2237.79C2256.18 2240.53 2291.53 2241.12 2326.82 2239.54C2379.11 2236.85 2431.08 2229.8 2482.2 2218.46C2511.1 2212.16 2541.2 2204.49 2572.1 2195.55L2667.43 2166.09C2732.82 2146.21 2798.37 2132.64 2858.33 2138.54C2911.16 2143.37 2962.28 2159.73 3008.11 2186.45C3038.88 2204.48 3066.69 2227.12 3090.59 2253.59C3097.08 2260.75 3103.16 2268.26 3108.79 2276.11C3110.88 2278.63 3112.77 2281.29 3114.46 2284.09C3111.94 2281.86 3109.69 2279.34 3107.75 2276.59C3103.68 2271.4 3097.21 2264.13 3088.67 2255.03C3027.74 2191.21 2945.66 2151.76 2857.77 2144.05C2799.01 2138.62 2734.49 2152.04 2669.34 2171.84C2636.69 2181.66 2604.99 2192.12 2573.93 2201.14C2542.88 2210.16 2512.62 2217.67 2483.47 2223.81C2431.99 2234.99 2379.63 2241.61 2326.98 2243.61C2291.51 2244.8 2256 2243.49 2220.72 2239.7C2208.26 2238.43 2198.6 2236.99 2192.13 2235.95C2188.78 2235.81 2185.44 2235.38 2182.15 2234.67Z" fill="#263238"/>
<path d="M3130.59 2255.35C2984.8 2065.81 2705.27 1993.39 2485.71 2088.24L2254.17 2137.35C2193.09 2147.88 2095.13 2167.77 2090.49 2224.37C2086.27 2284.32 2099.32 2344.23 2128.1 2396.99C2181.91 2490.72 2152.69 2616.31 2206.5 2710.05C2231.89 2754.36 2257.84 2799.31 2294.89 2834.52C2331.93 2869.73 2382.23 2894.4 2433.01 2888.89C2489.54 2882.82 2535.85 2841.55 2571.78 2797.47C2649.14 2702.54 2697.45 2587.25 2769.86 2488.57C2842.28 2389.88 2927.71 2317.23 3079.89 2307.89C3107.51 2306.13 3186.32 2342.94 3186.32 2342.94C3188.55 2331.76 3137.53 2264.21 3130.59 2255.35Z" fill="#EC8305"/>
<g opacity="0.3">
<path d="M2818.97 2142.62C2718.29 2142.62 2619.36 2191 2521.8 2212.56C2129.3 2298.94 2129.3 2150.92 2129.3 2150.92C2117 2220.46 2182.31 2252.4 2251.06 2268.37C2382.31 2298.71 2522.52 2314.99 2617.21 2284.73C2693.54 2260.78 2773.22 2242.98 2850.26 2220.86C2927.31 2198.74 3038.29 2207.21 3096.65 2261.98C3044.44 2176.15 2919.65 2142.38 2818.97 2142.62Z" fill="black"/>
</g>
<g opacity="0.3">
<path d="M2308.86 2132C2313.55 2142.28 2320.4 2151.43 2328.94 2158.83C2337.48 2166.22 2347.52 2171.7 2358.36 2174.87C2380.1 2181.14 2402.86 2183.09 2425.35 2180.62C2507.43 2175.03 2586.31 2147.65 2663.99 2120.5C2601.88 2118.34 2541.76 2139.98 2480.84 2152.44C2419.92 2164.89 2351.26 2165.69 2301.75 2128.48" fill="black"/>
</g>
<path d="M3150.31 2316.11C3150.31 2316.11 3149.59 2315.55 3148.47 2314.35L3143.6 2308.77C3139.37 2303.74 3132.9 2296.71 3124.36 2287.77C3100.31 2262.47 3071.24 2242.49 3039.01 2229.08C3016.52 2220.6 2992.89 2215.49 2968.91 2213.91C2941.4 2211.68 2913.74 2212.57 2886.43 2216.55C2828.47 2224.53 2767.23 2244.89 2702.24 2263.42C2637.25 2281.94 2575.21 2301.26 2516.21 2304.37C2464.19 2306.62 2412.09 2302.89 2360.92 2293.28C2317.32 2285.29 2282.59 2276.03 2258.56 2270.04L2230.94 2263.02L2223.83 2261.1L2221.35 2260.3C2222.2 2260.18 2223.06 2260.18 2223.91 2260.3L2231.18 2261.82L2258.96 2268.13C2282.91 2273.64 2317.88 2282.34 2361.48 2290C2412.43 2299.2 2464.25 2302.63 2515.97 2300.22C2574.33 2296.95 2636.45 2278.51 2701.12 2259.1C2765.79 2239.7 2827.43 2220.14 2885.87 2212.4C2913.48 2208.5 2941.45 2207.75 2969.23 2210.16C2999.02 2211.87 3028.17 2219.49 3055 2232.57C3081.82 2245.64 3105.78 2263.92 3125.48 2286.33C3133.94 2295.51 3140.25 2302.7 3144.24 2307.89L3148.79 2313.72L3150.31 2316.11Z" fill="black"/>
<path d="M3003.72 2120.82C3003.12 2120.42 3002.56 2119.97 3002.04 2119.46L2997.41 2115.23C2993.5 2111.4 2987.35 2106.05 2979.37 2099.26C2956.37 2080.68 2931.16 2065.02 2904.32 2052.63C2864.47 2034.38 2822.11 2022.21 2778.65 2016.55C2725.38 2009.93 2671.48 2010.07 2618.25 2016.95C2564.96 2023.99 2512.08 2033.85 2459.84 2046.49C2436.76 2051.91 2412.99 2053.79 2389.34 2052.08C2368.55 2050.52 2348.58 2043.28 2331.62 2031.16C2318 2020.82 2306.37 2008.11 2297.28 1993.63C2290.43 1982.83 2284.47 1971.48 2279.48 1959.7C2275.41 1950.04 2272.69 1942.29 2270.94 1937.02L2269.1 1931.04C2268.84 1930.37 2268.67 1929.67 2268.62 1928.96C2268.62 1928.96 2269.02 1929.6 2269.5 1930.88C2269.98 1932.15 2270.86 1934.39 2271.74 1936.78C2273.73 1941.89 2276.69 1949.48 2281 1959.06C2286.21 1970.62 2292.32 1981.75 2299.28 1992.35C2308.38 2006.43 2319.92 2018.76 2333.37 2028.76C2350.01 2040.38 2369.49 2047.26 2389.74 2048.64C2413.01 2050.15 2436.37 2048.16 2459.04 2042.73C2511.35 2029.83 2564.34 2019.87 2617.77 2012.87C2671.36 2005.96 2725.62 2005.96 2779.21 2012.87C2822.98 2018.81 2865.6 2031.38 2905.59 2050.16C2932.52 2062.78 2957.68 2078.89 2980.41 2098.06C2986.57 2103.29 2992.46 2108.84 2998.05 2114.67L3002.36 2119.14C3003.32 2120.26 3003.8 2120.74 3003.72 2120.82Z" fill="black"/>
<path d="M2956.61 2116.91H2954.62L2948.71 2115.95L2925.95 2112.2C2898.07 2107.9 2869.98 2105.05 2841.8 2103.65C2799.98 2101.6 2758.06 2102.93 2716.45 2107.65C2665.55 2114.48 2615.1 2124.37 2565.39 2137.27C2512.38 2150.04 2460.8 2161.22 2412.97 2160.5C2390.4 2160.64 2367.9 2157.96 2345.99 2152.52C2326.88 2147.11 2309.21 2137.54 2294.25 2124.49C2272.78 2105.73 2255.34 2082.8 2242.99 2057.11C2238.29 2047.8 2234.58 2038.04 2231.89 2027.96C2232.27 2028.53 2232.57 2029.15 2232.77 2029.8L2234.93 2035.39C2236.92 2040.34 2239.96 2047.44 2244.43 2056.31C2257.19 2081.46 2274.77 2103.87 2296.17 2122.26C2310.9 2134.81 2328.21 2144 2346.87 2149.16C2368.5 2154.43 2390.71 2156.97 2412.97 2156.75C2460.24 2156.75 2511.42 2146.13 2564.67 2133.27C2614.57 2120.28 2665.24 2110.41 2716.37 2103.73C2758.18 2099.23 2800.3 2098.19 2842.28 2100.62C2870.55 2102.26 2898.7 2105.54 2926.59 2110.44C2936.49 2112.28 2944.08 2113.79 2949.27 2114.99L2955.1 2116.35C2956.05 2116.59 2956.61 2116.83 2956.61 2116.91Z" fill="black"/>
<path d="M2963.96 1758.58C2963.24 1763.11 2962.23 1767.59 2960.92 1771.99C2959.68 1777.24 2958.13 1782.41 2956.29 1787.48C2954.22 1793.47 2952.22 1800.34 2949.03 1807.6C2945.83 1814.87 2942.72 1823.01 2938.49 1831.55C2934.26 1840.1 2929.55 1848.64 2924.36 1857.82C2901.04 1897.07 2870.7 1931.68 2834.86 1959.94C2826.47 1966.33 2818.89 1972.47 2810.9 1977.42C2802.92 1982.37 2795.73 1987.08 2788.79 1991C2781.84 1994.91 2775.45 1998.1 2769.86 2000.9C2765.08 2003.4 2760.15 2005.62 2755.09 2007.52C2750.93 2009.44 2746.64 2011.04 2742.24 2012.31C2746.14 2009.91 2750.22 2007.83 2754.45 2006.09C2758.45 2004.25 2763.32 2001.94 2768.83 1998.82C2774.34 1995.71 2780.72 1992.75 2787.35 1988.44C2793.98 1984.13 2801.48 1979.98 2808.99 1974.55C2816.49 1969.12 2824.4 1963.29 2832.94 1956.98C2868.11 1928.61 2898.09 1894.36 2921.56 1855.75C2926.75 1846.72 2931.86 1838.26 2935.85 1829.96C2939.85 1821.65 2943.84 1813.99 2946.79 1806.64C2949.75 1799.3 2952.3 1792.75 2954.78 1786.92C2957.25 1781.09 2958.69 1775.9 2959.97 1771.75C2960.92 1767.26 2962.26 1762.85 2963.96 1758.58Z" fill="black"/>
<path d="M2951.9 2234.51C2949.73 2234.51 2947.57 2234.32 2945.43 2233.95L2937.45 2232.92C2934.42 2232.52 2930.82 2232.92 2926.91 2232.36C2904.33 2231.82 2881.84 2235.3 2860.48 2242.66C2845.76 2247.71 2831.43 2253.85 2817.61 2261.02C2801.78 2269.36 2786.4 2278.53 2771.54 2288.49C2740.08 2309.48 2707.19 2335.19 2671.9 2361.14L2491.78 2494.88L2436.77 2534.8L2421.68 2545.18C2420 2546.54 2418.18 2547.71 2416.25 2548.69C2417.77 2547.19 2419.4 2545.8 2421.12 2544.54L2435.73 2533.2L2489.94 2492.08L2669.58 2357.79C2704.87 2331.92 2737.77 2306.21 2769.62 2285.29C2784.64 2275.34 2800.18 2266.19 2816.17 2257.91C2830.24 2250.82 2844.81 2244.79 2859.76 2239.86C2881.47 2232.67 2904.32 2229.59 2927.15 2230.76C2931.14 2230.76 2934.74 2231.16 2937.77 2231.64L2945.75 2233.08C2947.84 2233.37 2949.9 2233.85 2951.9 2234.51Z" fill="black"/>
<path d="M3209.55 2479.31C3208 2475.68 3206.82 2471.91 3206.04 2468.05C3204.12 2460.78 3201.41 2450.16 3197.57 2437.23C3193.26 2422.06 3187.79 2407.25 3181.21 2392.92C3173.2 2375.48 3162.26 2359.55 3148.87 2345.81C3135.55 2332.03 3118.88 2321.93 3100.49 2316.51C3085.35 2312.46 3069.63 2311.08 3054.02 2312.44C3039.57 2314.06 3025.23 2316.51 3011.06 2319.78C3011.92 2319.21 3012.87 2318.78 3013.86 2318.51C3015.78 2317.79 3018.57 2316.83 3021.84 2315.79C3032.26 2312.7 3042.96 2310.61 3053.78 2309.56C3069.81 2307.69 3086.05 2308.8 3101.68 2312.84C3120.8 2318.25 3138.15 2328.6 3151.98 2342.86C3165.73 2356.94 3176.87 2373.35 3184.88 2391.32C3191.42 2405.9 3196.76 2420.98 3200.85 2436.43C3204.28 2449.53 3206.6 2460.38 3208.03 2467.73C3208.87 2471.54 3209.38 2475.41 3209.55 2479.31Z" fill="black"/>
</svg>
