<svg width="679" height="679" viewBox="0 0 679 679" fill="none" xmlns="http://www.w3.org/2000/svg">
<path d="M313.406 140.303C305.899 145.104 296.97 147.652 288.058 147.538C285.216 147.501 282.368 147.201 279.535 147.443C276.702 147.684 273.811 148.533 271.731 150.471C269.652 152.409 268.593 155.61 269.731 158.215C271.332 161.881 276.518 163.339 277.304 167.262C277.868 170.084 275.766 172.774 273.398 174.413C271.032 176.053 268.247 177.141 266.252 179.217C263.857 181.705 262.931 185.512 263.916 188.823C264.9 192.134 267.756 194.816 271.121 195.592C273.147 196.059 275.634 196.073 276.734 197.837C277.5 199.069 277.218 200.647 277.028 202.086C276.628 205.112 276.788 208.314 278.189 211.025C279.589 213.735 282.425 215.841 285.475 215.733C286.667 215.691 287.836 215.328 289.027 215.349C290.219 215.372 291.54 215.936 291.896 217.073C292.141 217.861 291.869 218.702 291.78 219.522C291.347 223.529 295.342 226.651 299.204 227.802C306.928 230.104 315.554 227.882 322.063 223.13C328.571 218.378 333.138 211.348 336.185 203.887C339.232 196.427 340.879 188.482 342.509 180.589" fill="black"/>
<path d="M399.687 339.957C398.916 337.791 397.443 335.946 395.869 334.27C385.649 323.393 370.168 318.195 355.268 319.042C340.366 319.888 326.118 326.378 314.512 335.761C308.329 340.759 300.007 350.42 297.832 358.068C306.898 360.253 320.449 357.21 328.998 353.482C337.547 349.755 346.01 345.239 355.288 344.294C366.041 343.2 376.595 347.017 387.19 349.162C389.318 349.592 391.501 349.958 393.655 349.681C395.809 349.405 397.962 348.4 399.165 346.591C400.438 344.675 400.458 342.125 399.687 339.957Z" fill="#091057"/>
<g opacity="0.3">
<path d="M399.687 339.957C398.916 337.791 397.443 335.946 395.869 334.27C385.649 323.393 370.168 318.195 355.268 319.042C340.366 319.888 326.118 326.378 314.512 335.761C308.329 340.759 300.007 350.42 297.832 358.068C306.898 360.253 320.449 357.21 328.998 353.482C337.547 349.755 346.01 345.239 355.288 344.294C366.041 343.2 376.595 347.017 387.19 349.162C389.318 349.592 391.501 349.958 393.655 349.681C395.809 349.405 397.962 348.4 399.165 346.591C400.438 344.675 400.458 342.125 399.687 339.957Z" fill="black"/>
</g>
<path d="M392.27 469.462L418.157 452.689C418.157 452.689 443.9 473.368 448.986 470.734L418.267 419.373L376.859 443.852L392.27 469.462Z" fill="#EC8305"/>
<path d="M406.434 438.137C406.111 436.981 406.818 435.626 407.96 435.255C409.103 434.885 410.487 435.592 410.829 436.743C411.173 437.894 410.373 439.546 409.198 439.786C408.021 440.027 406.441 439.108 406.384 437.908" fill="#E0E0E0"/>
<g opacity="0.6">
<path d="M418.267 419.373L414.189 422.004L445.167 470.265C445.167 470.265 447.529 471.956 448.985 470.734L418.267 419.373Z" fill="white"/>
</g>
<path d="M418.394 453.678C418.639 453.519 418.003 452.197 418.072 450.481C418.095 448.763 418.802 447.477 418.565 447.306C418.377 447.104 417.101 448.374 417.055 450.454C416.99 452.534 418.197 453.871 418.394 453.678Z" fill="black"/>
<path d="M423.843 457.732C424.12 457.643 423.898 456.302 424.449 454.816C424.956 453.313 425.974 452.412 425.814 452.169C425.712 451.91 424.141 452.614 423.49 454.475C422.824 456.331 423.602 457.87 423.843 457.732Z" fill="black"/>
<path d="M432.121 456.935C432.038 456.676 430.576 457.076 429.588 458.541C428.589 460 428.754 461.507 429.027 461.488C429.318 461.507 429.6 460.304 430.429 459.114C431.23 457.904 432.245 457.2 432.121 456.935Z" fill="black"/>
<path d="M412.069 456.846C412.235 456.605 411.2 455.661 410.45 454.186C409.668 452.727 409.485 451.338 409.192 451.337C408.923 451.3 408.639 452.933 409.548 454.657C410.444 456.389 411.946 457.088 412.069 456.846Z" fill="black"/>
<path opacity="0.3" d="M396.369 432.318L408.146 459.174L404.197 461.964L390.615 435.785L396.369 432.318Z" fill="black"/>
<path d="M380.954 326.966C379.89 326.966 345.071 326.203 326.275 338.617L311.394 347.007L311.797 362.077C311.797 362.077 308.605 367.396 309.315 370.589C310.023 373.78 309.212 387.258 309.212 387.258C309.212 387.258 303.639 387.612 302.931 397.189C302.931 397.189 295.198 400.38 291.793 406.055C288.389 411.729 253.633 475.568 251.506 485.853C249.377 496.138 247.959 514.225 255.761 520.254C263.564 526.284 280.941 524.156 280.941 524.156C280.941 524.156 283.424 531.604 298.674 531.958C313.924 532.312 337.331 514.581 337.331 514.581L407.553 466.702L390.942 431.122L366.414 446.132L392.658 415.633C392.658 415.633 404.716 395.063 401.17 373.429C398.537 357.365 380.954 326.966 380.954 326.966Z" fill="black"/>
<path d="M386.96 338.016C386.959 338.04 386.675 338.054 386.135 338.059C385.519 338.056 384.735 338.054 383.772 338.05C381.719 338.033 378.752 337.983 375.087 338.028C371.425 338.081 367.059 338.203 362.25 338.716C357.446 339.229 352.182 340.124 346.907 341.924C336.314 345.498 327.786 351.187 321.718 355.241C318.76 357.291 316.342 358.967 314.58 360.189C313.786 360.736 313.141 361.178 312.632 361.529C312.182 361.829 311.939 361.976 311.925 361.957C311.91 361.937 312.125 361.751 312.548 361.413C313.035 361.036 313.654 360.557 314.417 359.966C316.052 358.726 318.432 356.946 321.434 354.83C327.44 350.663 335.971 344.869 346.684 341.253C352.019 339.433 357.347 338.549 362.184 338.069C367.03 337.588 371.413 337.517 375.086 337.528C378.76 337.547 381.73 337.674 383.78 337.774C384.742 337.832 385.524 337.879 386.14 337.917C386.678 337.957 386.96 337.991 386.96 338.016Z" fill="#EC8305"/>
<path d="M315.316 349.063C315.408 349.147 314.434 349.652 314.204 351.105C314.098 351.798 314.264 352.689 314.945 353.295C315.596 353.905 316.707 354.231 317.657 353.857C318.605 353.473 319.186 352.472 319.237 351.581C319.314 350.67 318.821 349.911 318.266 349.481C317.098 348.587 316.045 348.892 316.054 348.767C316.042 348.729 316.265 348.6 316.72 348.561C317.166 348.521 317.862 348.615 318.56 349.077C319.246 349.51 319.945 350.445 319.889 351.611C319.858 352.729 319.183 353.989 317.921 354.513C316.645 355.003 315.289 354.555 314.496 353.765C313.652 352.959 313.515 351.8 313.713 351.012C313.9 350.196 314.34 349.649 314.692 349.37C315.047 349.088 315.298 349.028 315.316 349.063Z" fill="#EC8305"/>
<path d="M327.806 350.905C327.741 350.967 327.247 350.605 326.556 349.895C325.894 349.186 324.926 348.099 324.54 346.528C324.194 344.948 324.585 343.546 324.869 342.618C325.177 341.677 325.461 341.134 325.546 341.161C325.647 341.192 325.531 341.791 325.353 342.74C325.193 343.682 324.924 345.008 325.228 346.368C325.553 347.724 326.378 348.797 326.937 349.572C327.516 350.345 327.882 350.833 327.806 350.905Z" fill="#EC8305"/>
<path d="M330.755 349.103C330.697 349.167 330.211 348.866 329.578 348.195C328.951 347.529 328.209 346.437 327.803 345.07C327.036 342.3 327.594 340.032 327.728 340.063C327.975 340.064 327.763 342.324 328.479 344.867C329.229 347.413 330.933 348.943 330.755 349.103Z" fill="#EC8305"/>
<path d="M368.341 338.015C368.232 338.011 368.198 337.38 368.096 336.385C367.994 335.393 367.818 334.02 367.247 332.648C366.688 331.269 365.798 330.217 365.13 329.48C364.454 328.744 364.007 328.295 364.075 328.215C364.132 328.145 364.689 328.455 365.479 329.121C366.255 329.784 367.288 330.87 367.902 332.376C368.522 333.874 368.621 335.344 368.598 336.366C368.571 337.396 368.427 338.019 368.341 338.015Z" fill="#EC8305"/>
<path d="M372.901 337.921C372.799 337.912 372.781 337.289 372.791 336.296C372.779 335.312 372.891 333.924 372.483 332.555C372.044 331.194 371.214 330.071 370.716 329.218C370.194 328.371 369.9 327.821 369.98 327.762C370.057 327.707 370.493 328.151 371.123 328.929C371.724 329.717 372.65 330.798 373.158 332.348C373.615 333.92 373.398 335.349 373.288 336.333C373.152 337.327 372.995 337.929 372.901 337.921Z" fill="#EC8305"/>
<path d="M312.868 492.161C312.832 492.16 313.015 491.579 313.501 490.577C313.974 489.563 314.708 488.087 315.671 486.193C317.595 482.407 320.445 476.964 324 470.257C331.11 456.843 341.05 438.376 352.105 418.02C354.874 412.933 357.576 407.966 360.188 403.168C362.77 398.387 364.643 393.45 365.904 388.622C368.465 378.942 368.45 369.751 367.314 362.296C366.182 354.806 364.012 349.006 362.308 345.143C361.443 343.21 360.7 341.74 360.182 340.752C359.937 340.285 359.741 339.914 359.591 339.628C359.46 339.373 359.399 339.238 359.41 339.233C359.421 339.226 359.502 339.348 359.653 339.592C359.82 339.872 360.036 340.232 360.307 340.684C360.865 341.653 361.652 343.105 362.559 345.03C364.347 348.876 366.604 354.683 367.808 362.222C369.016 369.723 369.086 379.003 366.534 388.787C365.277 393.67 363.399 398.661 360.796 403.5C358.188 408.3 355.49 413.269 352.725 418.36C341.689 438.7 331.699 457.116 324.439 470.496C320.857 477.147 317.95 482.544 315.914 486.323C314.939 488.167 314.173 489.614 313.629 490.643C313.389 491.111 313.199 491.484 313.051 491.773C312.941 492.023 312.881 492.16 312.868 492.161Z" fill="#EC8305"/>
<path d="M391.194 446.236C391.206 446.257 390.944 446.441 390.433 446.771C389.858 447.134 389.111 447.603 388.184 448.187C386.148 449.442 383.325 451.185 379.867 453.319C372.846 457.653 363.181 463.695 352.615 470.539C342.047 477.389 332.567 483.721 325.706 488.305C322.323 490.557 319.561 492.395 317.569 493.721C316.651 494.318 315.911 494.799 315.341 495.169C314.826 495.494 314.549 495.655 314.536 495.635C314.522 495.614 314.772 495.415 315.259 495.052C315.81 494.655 316.524 494.138 317.413 493.495C319.373 492.125 322.094 490.223 325.423 487.894C332.216 483.204 341.655 476.802 352.229 469.949C362.802 463.101 372.516 457.121 379.607 452.894C383.152 450.781 386.035 449.094 388.043 447.952C388.999 447.414 389.768 446.983 390.361 446.65C390.895 446.358 391.181 446.216 391.194 446.236Z" fill="#EC8305"/>
<path d="M402.182 470.341C402.136 470.356 401.907 469.851 401.533 468.932C401.071 467.884 400.503 466.596 399.833 465.077C398.368 461.834 396.276 457.382 393.936 452.478C391.631 447.645 389.548 443.277 387.942 439.912C387.243 438.404 386.65 437.126 386.166 436.083C385.759 435.172 385.554 434.659 385.598 434.637C385.641 434.616 385.93 435.087 386.413 435.96C386.897 436.832 387.573 438.107 388.391 439.69C390.027 442.857 392.231 447.261 394.575 452.171C396.918 457.079 398.942 461.574 400.293 464.878C400.974 466.527 401.472 467.886 401.791 468.833C402.087 469.793 402.228 470.328 402.182 470.341Z" fill="#EC8305"/>
<path d="M312.866 492.162C312.739 492.014 324.748 481.398 339.687 468.453C354.631 455.503 366.845 445.128 366.974 445.275C367.103 445.422 355.095 456.036 340.15 468.986C325.21 481.932 312.994 492.309 312.866 492.162Z" fill="#EC8305"/>
<path d="M297.992 517.045C297.925 516.953 299.407 516.085 300.878 513.828C302.327 511.58 304.116 508.267 306.117 504.663C308.1 501.039 309.825 497.72 311.074 495.316C312.321 492.912 313.1 491.426 313.191 491.468C313.277 491.507 312.658 493.069 311.523 495.536C310.387 498.001 308.727 501.366 306.738 505.001C304.724 508.625 302.885 511.876 301.287 514.116C300.47 515.221 299.659 516.009 299.035 516.461C298.412 516.919 298.013 517.08 297.992 517.045Z" fill="#EC8305"/>
<path d="M310.708 520.893C310.597 520.832 311.377 519.354 312.224 516.807C313.07 514.262 313.947 510.642 314.426 506.575C314.878 502.508 314.871 498.77 314.374 496.152C314.171 494.83 313.77 493.833 313.459 493.163C313.085 492.541 312.824 492.206 312.868 492.162C312.888 492.134 313.225 492.402 313.697 493.021C314.099 493.677 314.591 494.705 314.864 496.05C315.504 498.725 315.586 502.531 315.129 506.657C314.643 510.78 313.675 514.437 312.695 516.975C312.192 518.239 311.749 519.249 311.353 519.902C310.977 520.563 310.75 520.916 310.708 520.893Z" fill="#EC8305"/>
<path d="M296.008 500.264C295.986 500.162 297.014 499.877 298.659 499.408C300.3 498.93 302.563 498.254 304.914 497.172C309.622 494.977 312.704 491.954 312.868 492.16C312.927 492.224 312.217 493.026 310.904 494.154C309.59 495.274 307.626 496.694 305.211 497.813C302.795 498.924 300.465 499.535 298.78 499.892C297.089 500.242 296.026 500.354 296.008 500.264Z" fill="#EC8305"/>
<path d="M313.959 401.643C313.969 401.651 313.906 401.749 313.774 401.932C313.616 402.147 313.419 402.41 313.179 402.733C312.652 403.434 311.884 404.475 310.974 405.869C309.128 408.635 306.765 412.855 304.547 418.377C302.303 423.891 300.304 430.704 298.337 438.335C296.321 445.947 294.32 454.432 290.859 462.904C287.347 471.342 283.032 478.898 280.238 486.251C277.427 493.576 275.967 500.615 276.006 506.544C276.012 509.509 276.378 512.179 276.912 514.47C277.446 516.767 278.194 518.663 278.847 520.189C279.545 521.694 280.135 522.845 280.594 523.592C280.792 523.944 280.954 524.229 281.084 524.462C281.191 524.66 281.242 524.765 281.232 524.772C281.221 524.778 281.152 524.686 281.024 524.501C280.876 524.279 280.696 524.005 280.472 523.667C279.972 522.94 279.339 521.806 278.596 520.304C277.9 518.784 277.106 516.881 276.527 514.565C275.949 512.254 275.543 509.551 275.505 506.548C275.402 500.535 276.826 493.421 279.629 486.018C282.414 478.593 286.72 471.012 290.205 462.635C293.637 454.236 295.656 445.778 297.707 438.169C299.709 430.541 301.768 423.709 304.084 418.188C306.374 412.66 308.821 408.446 310.746 405.715C311.695 404.339 312.503 403.319 313.067 402.645C313.331 402.338 313.545 402.088 313.719 401.886C313.869 401.718 313.95 401.635 313.959 401.643Z" fill="#EC8305"/>
<path d="M316.245 358.805C316.302 358.837 315.987 359.4 315.539 360.466C315.087 361.526 314.504 363.1 314.204 365.13C313.905 367.158 313.964 369.621 314.459 372.297C314.869 374.992 315.996 377.782 316.758 380.907C317.148 382.457 317.295 384.086 317.16 385.601C317.045 387.118 316.78 388.556 316.462 389.901C315.841 392.599 315.045 394.953 314.363 396.92C313.669 398.883 313.055 400.451 312.624 401.53C312.188 402.607 311.93 403.197 311.884 403.18C311.839 403.164 312.01 402.542 312.366 401.436C312.769 400.199 313.279 398.632 313.89 396.761C314.509 394.783 315.25 392.426 315.829 389.76C316.399 387.098 316.893 384.105 316.073 381.07C315.336 378.038 314.205 375.172 313.82 372.409C313.35 369.676 313.34 367.129 313.714 365.052C314.088 362.973 314.76 361.389 315.294 360.352C315.56 359.83 315.791 359.439 315.963 359.184C316.127 358.922 316.225 358.793 316.245 358.805Z" fill="#EC8305"/>
<path d="M317.901 399.639C317.762 399.548 319.969 397.857 321.316 393.865C321.992 391.9 322.42 389.424 322.384 386.668C322.357 383.91 321.881 380.89 321.26 377.74C320.651 374.586 319.986 371.574 319.763 368.759C319.532 365.954 319.625 363.41 319.907 361.302C320.181 359.192 320.656 357.521 321.099 356.417C321.327 355.866 321.517 355.447 321.678 355.176C321.83 354.902 321.92 354.765 321.942 354.776C322.001 354.806 321.714 355.392 321.358 356.508C321.002 357.622 320.61 359.277 320.402 361.361C320.188 363.44 320.149 365.946 320.411 368.7C320.662 371.45 321.342 374.442 321.953 377.606C322.574 380.767 323.041 383.838 323.034 386.665C323.034 389.491 322.542 392.031 321.786 394.032C321.038 396.041 320.048 397.5 319.261 398.392C318.856 398.832 318.533 399.162 318.286 399.356C318.05 399.561 317.918 399.657 317.901 399.639Z" fill="#EC8305"/>
<path d="M352.326 388.945C352.33 388.994 351.745 389.1 350.686 389.248C349.626 389.387 348.097 389.622 346.217 389.949C342.457 390.6 337.305 391.761 331.8 393.654C326.297 395.557 321.522 397.817 318.161 399.622C316.479 400.522 315.13 401.28 314.21 401.823C313.284 402.357 312.759 402.636 312.732 402.595C312.704 402.554 313.179 402.199 314.063 401.59C314.941 400.974 316.258 400.147 317.918 399.185C321.237 397.258 326.021 394.904 331.57 392.984C337.12 391.077 342.338 389.982 346.139 389.455C348.039 389.189 349.585 389.029 350.657 388.973C351.728 388.91 352.321 388.897 352.326 388.945Z" fill="#EC8305"/>
<path d="M354.536 374.146C354.537 374.28 352.534 374.248 349.368 374.739C347.784 374.974 345.924 375.404 343.903 376.019C341.893 376.671 339.729 377.527 337.564 378.647C335.41 379.791 333.474 381.085 331.795 382.368C330.139 383.68 328.728 384.966 327.635 386.136C325.43 388.46 324.319 390.127 324.207 390.049C324.167 390.022 324.42 389.592 324.915 388.832C325.396 388.063 326.196 387.018 327.266 385.798C328.327 384.568 329.727 383.221 331.389 381.857C333.075 380.523 335.038 379.187 337.234 378.021C339.441 376.88 341.655 376.024 343.712 375.396C345.779 374.804 347.682 374.419 349.298 374.245C350.91 374.059 352.225 373.997 353.131 374.037C354.039 374.06 354.537 374.098 354.536 374.146Z" fill="#EC8305"/>
<path d="M357.571 405.195C357.585 405.243 357.039 405.449 356.043 405.782C355.045 406.108 353.608 406.598 351.842 407.225C348.309 408.476 343.49 410.378 338.361 412.9C333.236 415.432 328.79 418.095 325.647 420.134C324.073 421.152 322.81 421.993 321.944 422.585C321.074 423.171 320.577 423.478 320.548 423.439C320.518 423.4 320.96 423.019 321.782 422.362C322.601 421.7 323.825 420.793 325.37 419.717C328.457 417.563 332.891 414.813 338.051 412.265C343.211 409.726 348.094 407.884 351.683 406.75C353.477 406.18 354.942 405.763 355.967 405.516C356.988 405.266 357.558 405.149 357.571 405.195Z" fill="#EC8305"/>
<path d="M400.362 369.683C400.348 369.712 399.896 369.548 399.056 369.224C398.213 368.908 396.979 368.439 395.385 367.913C392.204 366.851 387.549 365.616 381.825 364.939L382.166 364.63C382.32 370.47 382.288 377.412 381.764 384.808C381.207 392.799 380.147 400.192 378.9 406.266L378.892 406.122C380.489 411.222 382.111 415.366 383.405 418.176C384.042 419.589 384.632 420.648 385.03 421.372C385.456 422.08 385.681 422.46 385.656 422.479C385.633 422.496 385.357 422.15 384.878 421.466C384.429 420.766 383.784 419.722 383.098 418.322C381.704 415.533 379.997 411.41 378.328 406.296L378.307 406.227L378.322 406.151C379.493 400.086 380.506 392.72 381.059 384.758C381.581 377.39 381.651 370.47 381.56 364.644L381.555 364.291L381.901 364.336C387.66 365.08 392.338 366.411 395.502 367.577C397.088 368.156 398.307 368.68 399.129 369.051C399.946 369.432 400.374 369.654 400.362 369.683Z" fill="#EC8305"/>
<path d="M401.468 375.56C401.429 375.658 400.356 375.301 398.612 374.781C396.869 374.258 394.446 373.592 391.742 372.954C386.332 371.687 381.885 370.873 381.92 370.661C381.936 370.566 383.066 370.66 384.878 370.922C386.689 371.184 389.182 371.622 391.905 372.266C397.371 373.51 401.555 375.377 401.468 375.56Z" fill="#EC8305"/>
<path d="M394.944 354.67C394.908 354.777 393.287 354.294 390.639 353.672C387.991 353.049 384.296 352.349 380.164 352.006C376.029 351.669 372.267 351.737 369.548 351.863C366.828 351.992 365.143 352.137 365.131 352.029C365.125 351.98 365.539 351.888 366.296 351.763C367.05 351.632 368.151 351.494 369.514 351.365C372.241 351.11 376.042 350.962 380.223 351.302C384.402 351.65 388.129 352.439 390.764 353.191C392.082 353.567 393.138 353.91 393.854 354.186C394.572 354.453 394.96 354.624 394.944 354.67Z" fill="#EC8305"/>
<path d="M367.323 360.794C367.334 360.839 366.697 361.048 365.524 361.357C364.351 361.661 362.64 362.052 360.502 362.423C356.235 363.148 350.224 363.816 343.594 363.265C340.323 362.946 337.054 362.584 334.499 360.985C333.247 360.19 332.254 359.114 331.669 357.914C331.056 356.718 331.001 355.388 331.183 354.31C331.532 352.13 332.207 350.487 332.701 349.377C333.213 348.269 333.629 347.726 333.665 347.751C333.711 347.779 333.382 348.36 332.955 349.483C332.546 350.604 331.95 352.265 331.679 354.374C331.54 355.423 331.619 356.568 332.195 357.652C332.746 358.729 333.675 359.711 334.846 360.432C337.217 361.889 340.414 362.248 343.655 362.559C350.198 363.103 356.165 362.523 360.424 361.927C362.558 361.622 364.277 361.309 365.464 361.087C366.651 360.862 367.31 360.744 367.323 360.794Z" fill="#EC8305"/>
<path d="M363.865 117.497C357.377 103.44 341.32 106.209 333.636 109.94C325.952 113.673 320.143 119.547 316.656 127.922C314.396 133.352 312.604 139.544 308.053 142.823C306.06 144.26 303.713 144.98 301.594 146.184C299.476 147.387 297.458 149.316 297.085 151.896C296.408 156.573 301.103 159.814 305.069 161.702C302.713 163.305 302.099 166.934 302.926 169.833C303.754 172.732 305.686 175.069 307.57 177.297C313.359 184.144 323.715 192.56 331.125 197.167C338.535 201.774 343.33 202.325 351.296 199.008C354.53 197.66 357.544 195.455 360.986 195.062C364.986 194.604 368.826 196.665 372.777 197.486C376.728 198.307 381.739 197.176 383.028 193.007C383.523 191.403 383.353 189.655 383.568 187.979C383.784 186.304 384.604 184.488 386.109 184.105C387.336 183.794 388.55 184.535 389.755 184.935C392.616 185.886 396.929 207.145 399.676 205.852C399.676 205.852 403.666 169.819 395.977 148.749C393.524 142.028 388.289 127.678 384.097 122.097C378.346 114.436 364.553 116.137 363.865 117.497Z" fill="black"/>
<path d="M355.633 119.833C345.418 116.266 331.628 124.105 328.498 134.461C325.021 145.967 321.229 160.151 320.567 169.19C319.237 187.365 332.143 192.747 332.143 192.747L326.886 221.156L371.186 206.837L386.646 139.898L388.085 134.269L355.633 119.833Z" fill="#FFBE9D"/>
<path d="M328.502 148.478C328.658 148.862 330.759 148.297 333.069 149.211C335.389 150.09 336.619 151.946 336.981 151.761C337.154 151.684 337.082 151.072 336.554 150.244C336.037 149.423 335.001 148.414 333.558 147.855C332.115 147.297 330.695 147.351 329.786 147.621C328.86 147.889 328.42 148.301 328.502 148.478Z" fill="black"/>
<path d="M351.423 154.511C351.689 154.83 353.523 153.658 355.998 153.832C358.476 153.971 360.208 155.369 360.498 155.084C360.638 154.959 360.387 154.397 359.632 153.767C358.892 153.14 357.6 152.491 356.057 152.393C354.512 152.297 353.175 152.777 352.389 153.308C351.588 153.842 351.291 154.367 351.423 154.511Z" fill="black"/>
<path d="M341.134 164.678C341.178 164.544 339.735 163.932 337.373 163.048C336.77 162.839 336.215 162.58 336.21 162.133C336.169 161.653 336.583 161.047 337.051 160.4C337.983 159.041 338.957 157.619 339.981 156.127C344.088 150.028 347.216 144.954 346.969 144.791C346.721 144.628 343.191 149.439 339.085 155.538C338.087 157.044 337.134 158.482 336.226 159.857C335.827 160.504 335.239 161.205 335.337 162.205C335.395 162.705 335.77 163.147 336.141 163.347C336.508 163.56 336.853 163.648 337.155 163.738C339.575 164.446 341.092 164.814 341.134 164.678Z" fill="black"/>
<path d="M332.141 192.797C332.141 192.797 344.357 196.429 357.683 192.15C357.683 192.15 349.08 203.094 331.322 197.232L332.141 192.797Z" fill="#EB996E"/>
<path d="M339.811 172.8C339.919 173.164 339.575 172.497 339.811 172.8Z" fill="#EB996E"/>
<path d="M347.7 171.618C347.213 170.497 346.162 169.654 345.021 169.253C343.374 168.675 341.509 168.981 340.236 170.037C339.388 170.903 339.704 172.438 339.811 172.8C340.666 173.892 340.746 174.819 341.949 175.488C343.152 176.156 346.191 175.739 347.16 174.885C348.021 174.128 348.189 172.739 347.7 171.618Z" fill="#EB996E"/>
<path d="M347.857 168.023C347.469 167.908 346.848 170.532 344.164 171.867C341.483 173.21 338.754 172.258 338.647 172.621C338.572 172.777 339.151 173.276 340.323 173.586C341.473 173.898 343.251 173.922 344.894 173.105C346.532 172.284 347.48 170.898 347.822 169.842C348.181 168.768 348.04 168.049 347.857 168.023Z" fill="black"/>
<path d="M356.406 141.717C356.275 142.412 358.303 143.128 360.343 144.613C362.417 146.05 363.795 147.75 364.373 147.372C364.64 147.186 364.628 146.459 364.217 145.5C363.811 144.544 362.964 143.39 361.732 142.512C360.498 141.638 359.154 141.238 358.148 141.19C357.135 141.14 356.478 141.391 356.406 141.717Z" fill="black"/>
<path d="M329.98 139.172C330.52 139.686 332.37 138.921 334.66 138.674C336.942 138.355 338.929 138.645 339.32 138.016C339.489 137.711 339.129 137.178 338.23 136.729C337.344 136.278 335.905 135.979 334.333 136.174C332.763 136.369 331.446 137.008 330.705 137.66C329.949 138.316 329.738 138.92 329.98 139.172Z" fill="black"/>
<path d="M390.572 134.229C389.967 132.807 388.531 131.954 387.177 131.21C378.367 126.377 369.236 122.13 359.863 118.506L356.005 120.687C354.865 128.152 358.772 136.129 365.369 139.803C368.003 141.271 371.425 142.649 371.765 145.646C372.118 148.75 368.864 150.87 367.021 153.394C364.756 156.493 364.63 160.997 366.718 164.218C367.903 166.047 369.692 167.44 370.778 169.33C372.217 171.835 372.232 175.02 371.139 177.694C370.045 180.368 368.204 183.98 365.743 185.495C372.333 187.226 380.063 183.881 383.513 178.003C385.568 174.503 385.731 170.254 386.005 166.204C386.628 156.975 388.098 147.804 390.391 138.842C390.779 137.323 391.184 135.673 390.572 134.229Z" fill="black"/>
<path d="M360.477 118.927C357.941 121.93 355.347 124.982 352.011 127.059C348.674 129.136 344.41 130.112 340.763 128.647C341.677 127.639 342.59 126.63 343.504 125.623C337.03 130.055 329.623 133.117 321.91 134.552C326.771 128.646 331.783 122.611 338.413 118.799C345.046 114.988 353.751 113.815 360.232 117.876" fill="black"/>
<path d="M391.467 153.256L370.778 169.329C373.149 171.912 372.222 178.512 369.897 181.137C367.571 183.762 364.47 185.995 363.554 189.38C362.55 193.09 364.517 196.932 364.574 200.773C364.654 206.212 360.996 210.867 358.176 215.517C355.355 220.168 353.323 226.37 356.467 230.808C360.005 235.803 368.033 235.089 372.88 231.348C377.726 227.609 380.494 221.862 384.096 216.912C387.699 211.962 393.313 208.186 399.404 208.803C401.383 190.29 398.49 170.5 391.467 153.256Z" fill="black"/>
<path d="M394.924 198.057C394.795 197.831 396.018 196.941 398.112 195.27C400.178 193.587 403.189 191.108 405.926 187.335C407.29 185.453 408.529 183.239 409.422 180.704C410.31 178.178 410.833 175.327 410.645 172.39C410.478 169.459 409.483 166.478 407.797 163.725C406.087 160.981 403.703 158.482 400.926 156.317C395.351 151.989 388.764 149.505 382.895 146.945C376.986 144.449 371.617 141.76 367.712 138.611C363.751 135.539 361.253 132.2 359.99 129.714C358.73 127.205 358.52 125.65 358.717 125.585C358.976 125.486 359.625 126.85 361.161 128.994C362.707 131.123 365.289 133.96 369.192 136.598C373.048 139.307 378.188 141.613 384.138 143.937C387.105 145.121 390.267 146.34 393.496 147.844C396.709 149.344 400.043 151.131 403.094 153.529C406.143 155.905 408.813 158.718 410.752 161.927C412.67 165.137 413.798 168.753 413.895 172.234C414.016 175.708 413.283 178.949 412.16 181.742C411.033 184.54 409.509 186.929 407.898 188.867C404.654 192.762 401.249 195.026 398.883 196.409C396.489 197.772 395.035 198.256 394.924 198.057Z" fill="black"/>
<path d="M395.315 149.268C395.296 149.313 394.657 149.104 393.515 148.681C392.375 148.259 390.731 147.625 388.724 146.782C384.737 145.083 379.159 142.585 373.936 138.366C368.711 134.135 365.383 128.774 364.115 124.574C363.458 122.477 363.202 120.705 363.156 119.482C363.1 118.873 363.149 118.395 363.149 118.075C363.162 117.753 363.18 117.586 363.204 117.586C363.374 117.567 363.168 120.329 364.589 124.415C365.95 128.486 369.262 133.669 374.383 137.819C379.512 141.964 384.999 144.514 388.924 146.325C390.811 147.169 392.387 147.875 393.62 148.428C394.729 148.926 395.334 149.222 395.315 149.268Z" fill="#EC8305"/>
<path d="M395.965 169.871C395.888 169.842 396.299 169.056 396.518 167.526C396.736 166.01 396.593 163.699 395.424 161.19C394.278 158.68 392.173 156.048 389.15 153.965C386.176 151.813 382.481 150.094 378.79 147.894C375.097 145.674 371.942 142.95 369.544 140.092C367.102 137.261 365.383 134.339 364.159 131.807C362.963 129.254 362.265 127.074 361.895 125.547C361.68 124.791 361.593 124.184 361.511 123.78C361.437 123.372 361.41 123.157 361.435 123.153C361.496 123.139 361.698 123.983 362.159 125.472C362.607 126.964 363.372 129.097 364.608 131.587C365.875 134.058 367.611 136.907 370.038 139.665C372.425 142.455 375.523 145.104 379.155 147.287C382.796 149.46 386.514 151.21 389.531 153.436C392.6 155.589 394.767 158.372 395.881 160.983C397.031 163.604 397.102 166.019 396.791 167.567C396.644 168.346 396.443 168.935 396.261 169.308C396.089 169.69 395.987 169.881 395.965 169.871Z" fill="#EC8305"/>
<path d="M281.581 156.067C281.572 156.06 281.614 155.985 281.706 155.844C281.803 155.707 281.929 155.489 282.151 155.246C282.567 154.743 283.292 154.039 284.46 153.539C285.631 153.039 287.181 152.858 288.934 152.767C290.683 152.663 292.698 152.532 294.91 152.531C297.114 152.492 299.545 152.47 302.037 151.873C304.528 151.283 306.991 149.956 309.192 148.102C311.383 146.223 313.319 143.842 315.024 141.186C316.733 138.528 318.17 135.57 319.686 132.551C321.198 129.532 322.731 126.583 324.565 123.939C326.377 121.29 328.553 118.988 330.977 117.272C335.841 113.807 341.274 112.588 345.702 112.46C350.183 112.331 353.738 113.337 356.027 114.281C356.585 114.529 357.088 114.752 357.537 114.951C357.938 115.177 358.288 115.373 358.592 115.544C359.158 115.872 359.447 116.053 359.435 116.074C359.423 116.094 359.109 115.954 358.524 115.669C358.213 115.517 357.856 115.341 357.446 115.141C356.994 114.962 356.488 114.76 355.926 114.537C353.634 113.682 350.117 112.77 345.719 112.96C341.374 113.147 336.069 114.399 331.356 117.803C329.009 119.488 326.909 121.725 325.134 124.334C323.342 126.933 321.828 129.854 320.318 132.869C318.805 135.881 317.352 138.863 315.606 141.56C313.866 144.252 311.88 146.679 309.612 148.6C307.334 150.496 304.763 151.858 302.173 152.444C299.585 153.036 297.121 153.022 294.912 153.032C292.697 153.002 290.715 153.096 288.952 153.163C287.201 153.216 285.697 153.355 284.562 153.796C283.429 154.236 282.699 154.879 282.256 155.342C281.809 155.806 281.61 156.089 281.581 156.067Z" fill="#EC8305"/>
<path d="M273.271 137.798C265.109 117.233 254.323 97.0742 252.777 81.7383L236.549 82.4007C236.898 88.3257 239.018 137.703 250.521 157.222C262.023 176.741 300.401 222.384 300.401 222.384L313.907 187.641C313.907 187.641 281.433 158.362 273.271 137.798Z" fill="#FFBE9D"/>
<path d="M246.237 49.8164H239.135C239.135 49.8164 239.824 53.9958 243.045 54.2266C246.267 54.4574 245.633 53.7311 245.633 53.7311L244.912 54.3841L240.484 55.2623C240.484 55.2623 240.713 58.7142 243.629 59.2503L247.924 55.2623L246.237 49.8164Z" fill="#FFBE9D"/>
<path d="M265.67 49.1984C265.02 54.5343 264.946 54.214 264.946 54.214L258.458 59.5662L256.809 51.6865C256.585 50.6169 255.674 49.8282 254.583 49.7604L251.63 49.5771C251.63 49.5771 252.779 45.4818 249.076 45.8402C249.076 45.8402 247.038 45.2836 245.397 52.1059C243.607 59.5458 235.874 77.0577 236.55 82.9176L253.004 83.5732C252.832 78.111 257.315 72.3502 259.521 69.8567C260.186 69.1047 260.672 68.2115 260.895 67.2328C261.12 66.2446 261.622 64.8669 262.739 63.6248C264.767 61.3716 269.05 57.3143 269.05 57.3143V44.9158C269.05 44.9131 266.298 44.0335 265.67 49.1984ZM252.449 61.1693L249.074 62.7032L249.643 59.2513L252.45 58.9757V61.1693H252.449Z" fill="#FFBE9D"/>
<path d="M248.926 63.0626C248.878 63.0531 248.939 62.5346 249.09 61.6075C249.241 60.6791 249.482 59.342 249.796 57.6914C250.13 55.9865 250.513 54.0359 250.931 51.9021C251.126 50.8135 251.455 49.6638 251.489 48.533C251.518 47.4308 251.08 46.1603 249.896 46.0938C248.79 45.8956 247.844 46.8295 247.283 47.796C246.974 48.2751 246.829 48.8086 246.63 49.3692C246.45 49.9176 246.272 50.4551 246.1 50.9818C245.449 53.0572 244.855 54.9522 244.335 56.6109C243.808 58.2099 243.318 59.4859 242.945 60.3506C242.573 61.2166 242.321 61.6754 242.28 61.6577C242.231 61.6374 242.397 61.1446 242.687 60.2528C242.98 59.3624 243.394 58.0728 243.857 56.463C244.335 54.792 244.881 52.8808 245.478 50.789C245.645 50.2556 245.816 49.7113 245.991 49.1547C246.173 48.6186 246.344 47.9941 246.687 47.4458C247.006 46.8974 247.414 46.3693 247.961 45.9445C248.5 45.5169 249.271 45.2726 250.002 45.3947C250.371 45.4545 250.692 45.5495 251.039 45.7612C251.365 45.9771 251.603 46.2784 251.768 46.5906C252.099 47.2164 252.198 47.9086 252.182 48.5466C252.128 49.8389 251.779 50.9465 251.57 52.0365C251.098 54.1595 250.665 56.0992 250.287 57.7946C249.911 59.4316 249.596 60.7537 249.362 61.6645C249.125 62.574 248.973 63.0735 248.926 63.0626Z" fill="#EB996E"/>
<path d="M252.284 61.2092C252.085 61.1779 252.234 59.393 252.089 57.2157C252.055 56.67 252.007 56.1529 251.958 55.6818C251.916 55.1918 251.857 54.866 251.65 54.6977C251.192 54.3543 250.631 54.3516 250.663 54.2294C250.666 54.1819 250.777 54.1344 250.992 54.11C251.201 54.0964 251.535 54.0611 251.941 54.2905C252.383 54.5362 252.538 55.1416 252.603 55.5882C252.691 56.0701 252.759 56.6062 252.795 57.1709C252.944 59.4432 252.467 61.2472 252.284 61.2092Z" fill="#EB996E"/>
<path d="M260.342 58.1741C260.402 58.2487 259.9 58.7767 259.009 59.5464C258.115 60.3038 256.817 61.3314 255.146 62.0983C253.466 62.8761 251.792 63.0811 250.628 63.1693C249.451 63.248 248.724 63.2141 248.715 63.1204C248.704 63.02 249.421 62.8761 250.565 62.6738C251.705 62.4607 253.281 62.1865 254.854 61.4549C256.434 60.7314 257.743 59.8002 258.707 59.15C259.665 58.4876 260.281 58.0953 260.342 58.1741Z" fill="#EB996E"/>
<path d="M389.344 212.347C389.344 212.347 407.606 211.803 418.556 208.558C429.506 205.314 471.546 195.301 471.546 195.301L538.912 184.059L540.241 201.496C540.241 201.496 477.628 219.804 465.462 223.978C453.294 228.151 397.694 247.213 387.211 244.798L380.699 231.397L389.344 212.347Z" fill="#FFBE9D"/>
<path d="M571.291 163.571C570.195 163.328 564.729 165.809 564.729 165.809C566.579 163.496 564.845 161.307 564.845 161.307L557.349 164.984C557.349 164.984 553.558 168.813 551.09 170.663C548.622 172.513 541.685 180.531 541.53 180.994L537.059 185.158L539.834 201.657C539.834 201.657 543.381 201.965 545.694 200.886C548.007 199.807 551.399 195.489 551.399 195.489L557.797 194.944C558.538 194.882 559.266 194.628 559.829 194.145C561.761 192.493 561.421 189.784 561.421 189.784C565.431 187.471 563.118 184.541 563.118 184.541C563.118 184.541 565.434 184.262 566.403 182.729C567.187 181.49 566.973 180.532 566.202 179.144C565.431 177.757 559.571 178.218 559.571 178.218L559.263 176.522C559.263 176.522 568.218 169.405 570.223 167.862C572.227 166.322 572.324 163.8 571.291 163.571Z" fill="#FFBE9D"/>
<path d="M564.845 165.646C564.932 165.684 564.098 167.177 562.089 168.932C561.123 169.832 559.894 170.822 558.81 172.131C557.705 173.423 556.991 175.166 556.417 177.081C555.851 178.994 555.264 180.883 554.398 182.437C553.565 184.006 552.581 185.278 551.677 186.26C550.766 187.24 549.926 187.925 549.324 188.361C548.722 188.798 548.352 188.985 548.329 188.951C548.252 188.852 549.611 187.916 551.302 185.929C552.135 184.929 553.046 183.667 553.82 182.135C554.625 180.614 555.165 178.813 555.741 176.871C556.315 174.943 557.1 173.064 558.309 171.711C559.486 170.354 560.758 169.402 561.759 168.555C563.825 166.921 564.758 165.591 564.845 165.646Z" fill="#EB996E"/>
<path d="M561.549 189.709C561.583 189.781 560.499 190.444 558.552 191.119C557.577 191.445 556.375 191.753 555 191.852C554.313 191.904 553.589 191.898 552.839 191.825C552.087 191.743 551.263 191.555 550.553 191.042C549.852 190.53 549.356 189.703 549.406 188.813C549.535 187.864 550.112 187.331 550.607 186.836C551.107 186.367 551.768 185.969 552.373 185.843C552.961 185.683 553.505 185.562 554.006 185.457C556.001 185.038 557.283 184.962 557.291 185.084C557.295 185.159 556.076 185.403 554.123 185.943C553.637 186.078 553.101 186.226 552.543 186.403C551.975 186.554 551.529 186.862 551.052 187.312C550.615 187.736 550.14 188.319 550.098 188.851C550.064 189.44 550.427 190.077 550.97 190.47C552.108 191.262 553.683 191.221 554.962 191.202C556.272 191.142 557.44 190.896 558.409 190.64C560.342 190.104 561.504 189.603 561.549 189.709Z" fill="#EB996E"/>
<path d="M563.283 184.513C563.309 184.597 562.452 184.962 560.975 185.211C560.237 185.332 559.349 185.416 558.351 185.4C557.386 185.363 556.094 185.239 555.224 184.197C554.386 183.116 554.604 181.735 555.091 180.833C555.601 179.874 556.421 179.336 557.089 178.991C558.471 178.34 559.395 178.254 559.417 178.322C559.459 178.436 558.563 178.709 557.333 179.428C556.739 179.8 556.052 180.331 555.672 181.129C555.285 181.907 555.179 183.009 555.776 183.756C556.379 184.509 557.462 184.691 558.379 184.749C559.326 184.8 560.193 184.771 560.916 184.715C562.364 184.599 563.257 184.41 563.283 184.513Z" fill="#EB996E"/>
<path d="M558.892 194.697C558.905 194.795 558.185 194.992 557.01 195.281C555.842 195.554 554.167 195.964 552.255 195.851C551.806 195.851 551.138 195.699 550.802 195.229C550.464 194.794 550.362 194.286 550.386 193.823C550.449 192.897 550.974 192.188 551.529 191.821C552.716 191.098 553.591 191.539 553.533 191.592C553.541 191.71 552.705 191.532 551.826 192.223C551.415 192.559 551.05 193.159 551.038 193.849C551.031 194.179 551.131 194.544 551.339 194.792C551.543 195.048 551.839 195.125 552.297 195.145C554.085 195.253 555.718 194.939 556.918 194.79C558.119 194.625 558.88 194.601 558.892 194.697Z" fill="#EB996E"/>
<path d="M358.325 270.214C358.344 270.252 357.903 270.533 357.055 270.951C356.208 271.371 354.939 271.897 353.314 272.381C350.086 273.359 345.3 274 340.177 273.024C335.047 272.059 330.839 269.674 328.216 267.555C326.892 266.494 325.917 265.524 325.297 264.812C324.673 264.102 324.374 263.672 324.407 263.644C324.504 263.552 325.839 265.173 328.52 267.159C331.176 269.14 335.312 271.39 340.309 272.33C345.3 273.281 349.973 272.739 353.181 271.899C356.416 271.068 358.271 270.092 358.325 270.214Z" fill="#024CAA"/>
<path d="M327.503 220.019C327.503 220.019 370.451 206.282 372.055 205.854C373.658 205.427 411.534 208.801 411.534 208.801C411.534 208.801 409.902 233.899 419.488 242.018L391.628 252.068L382.836 276.248C382.836 276.248 377.934 286.105 381.829 295.349C389.199 312.847 401.996 340.454 400.103 343.614C399.905 343.945 398.808 334.047 380.573 328.892C375.069 327.336 365.053 327.316 356.007 329.139C317.044 336.988 302.011 354.982 297.572 358.066C297.572 358.066 305.59 295.126 301.8 285.3C298.011 275.472 293.998 269.064 297.119 260.305C300.239 251.546 304.933 237.587 304.933 237.587L289.588 220.175L311.038 184.512L330.656 200.779L327.503 220.019Z" fill="#024CAA"/>
<path d="M341.774 278.335C341.774 278.379 341.248 278.422 340.297 278.399C339.345 278.375 337.968 278.244 336.298 277.886C332.981 277.194 328.421 275.368 324.594 271.744C320.744 268.133 318.743 263.612 317.988 260.306C317.603 258.641 317.46 257.26 317.445 256.309C317.422 255.357 317.475 254.832 317.517 254.832C317.658 254.823 317.592 256.946 318.473 260.182C319.336 263.388 321.348 267.73 325.08 271.231C328.79 274.745 333.185 276.597 336.413 277.4C339.667 278.225 341.783 278.2 341.774 278.335Z" fill="black"/>
<path d="M301.451 225.123C301.568 225.001 303.792 228.042 304.44 232.525C305.131 237.004 303.871 240.559 303.725 240.475C303.501 240.436 304.411 236.931 303.741 232.629C303.125 228.319 301.247 225.224 301.451 225.123Z" fill="black"/>
<path d="M392.601 232.562C392.668 232.665 391.715 233.288 390.415 234.541C389.118 235.792 387.529 237.753 386.413 240.264C385.297 242.777 384.909 245.272 384.886 247.07C384.853 248.874 385.068 249.993 384.946 250.017C384.878 250.036 384.483 248.941 384.386 247.077C384.279 245.221 384.604 242.595 385.767 239.978C386.93 237.361 388.657 235.363 390.079 234.172C391.509 232.975 392.568 232.498 392.601 232.562Z" fill="black"/>
<g opacity="0.3">
<path d="M335.398 277.402C330.701 276.361 328.008 274.636 324.654 271.317C322.839 269.521 321.222 267.503 319.995 264.875C319.018 269.137 324.943 276.694 330.727 279.47C336.511 282.247 343.739 282.05 349.35 278.966C344.53 278.855 340.094 278.444 335.398 277.402Z" fill="black"/>
</g>
<path d="M388.002 308.594C387.954 308.668 386.87 307.825 384.646 306.815C382.428 305.82 378.983 304.783 374.615 304.725C370.265 304.642 365.044 305.515 359.726 307.748C354.383 309.951 348.982 313.366 343.429 317.096C332.388 324.733 321.519 330.331 313.423 333.743C309.381 335.474 306.042 336.708 303.721 337.512C302.563 337.922 301.652 338.208 301.034 338.401C300.417 338.592 300.088 338.682 300.08 338.659C300.072 338.636 300.386 338.501 300.987 338.265C301.655 338.008 302.532 337.672 303.626 337.252C305.916 336.37 309.218 335.068 313.224 333.283C321.253 329.76 332.016 324.129 343.037 316.506C348.592 312.776 354.05 309.343 359.477 307.144C364.889 304.911 370.209 304.073 374.627 304.224C379.066 304.348 382.553 305.48 384.763 306.564C386.98 307.666 388.002 308.594 388.002 308.594Z" fill="white"/>
<path d="M380.231 286.087C380.172 286.151 379.429 285.21 377.654 284.078C375.907 282.935 373.022 281.727 369.277 281.439C365.538 281.106 361.047 281.956 356.436 283.806C351.812 285.65 346.997 288.337 341.898 291.049C336.808 293.787 331.885 296.312 327.195 298.142C322.511 299.98 318.084 301.098 314.307 301.588C310.529 302.103 307.422 301.967 305.314 301.736C304.259 301.598 303.443 301.474 302.899 301.344C302.352 301.227 302.068 301.154 302.072 301.129C302.085 301.062 303.237 301.29 305.34 301.462C307.439 301.607 310.51 301.664 314.237 301.093C317.963 300.546 322.326 299.389 326.955 297.535C331.59 295.688 336.476 293.162 341.563 290.425C346.66 287.714 351.495 285.035 356.197 283.198C360.882 281.355 365.493 280.534 369.318 280.94C373.146 281.298 376.071 282.612 377.806 283.847C379.569 285.076 380.231 286.087 380.231 286.087Z" fill="white"/>
<path d="M322.892 268.986C322.919 269.027 322.611 269.275 322.026 269.693C321.737 269.909 321.372 270.155 320.92 270.398C320.473 270.647 319.975 270.957 319.381 271.207C318.221 271.778 316.764 272.29 315.109 272.717C313.445 273.106 311.576 273.38 309.599 273.422C307.623 273.438 305.746 273.218 304.071 272.879C302.402 272.5 300.931 272.029 299.755 271.494C299.153 271.262 298.646 270.966 298.192 270.732C297.734 270.502 297.361 270.267 297.065 270.061C296.466 269.661 296.151 269.42 296.177 269.38C296.246 269.267 297.582 270.127 299.943 271.032C301.117 271.497 302.568 271.906 304.199 272.241C305.839 272.537 307.665 272.731 309.588 272.716C311.51 272.675 313.331 272.428 314.96 272.085C316.58 271.702 318.018 271.251 319.178 270.751C321.512 269.776 322.819 268.875 322.892 268.986Z" fill="white"/>
<path d="M386.707 265.573C386.722 265.592 386.539 265.75 386.175 266.033C385.816 266.323 385.246 266.701 384.473 267.117C382.937 267.954 380.497 268.861 377.358 269.159C374.229 269.472 370.436 269.174 366.424 268.151C362.394 267.179 358.138 265.587 353.587 264.304C344.462 261.707 335.721 261.863 329.61 262.754C326.542 263.203 324.091 263.775 322.416 264.233C320.738 264.681 319.817 264.969 319.797 264.912C319.789 264.889 320.01 264.793 320.439 264.628C320.871 264.472 321.499 264.216 322.337 263.969C323.996 263.426 326.447 262.776 329.532 262.26C335.673 261.234 344.536 260.993 353.774 263.623C358.369 264.919 362.604 266.525 366.579 267.518C370.538 268.564 374.234 268.902 377.312 268.66C380.393 268.431 382.797 267.617 384.346 266.87C385.904 266.118 386.665 265.512 386.707 265.573Z" fill="white"/>
<path d="M385.577 245.205C385.58 245.23 385.282 245.275 384.712 245.34C384.142 245.4 383.298 245.496 382.209 245.577C380.032 245.598 376.845 245.609 372.993 244.92C369.133 244.299 364.624 243.148 359.661 241.802C354.697 240.482 349.226 238.998 343.352 238.417C341.882 238.363 340.428 238.182 338.996 238.275C338.281 238.3 337.568 238.294 336.867 238.344C336.168 238.427 335.474 238.509 334.786 238.591C332.036 238.936 329.454 239.705 327.036 240.537C322.209 242.246 317.991 244.211 314.286 245.461C310.594 246.747 307.446 247.32 305.265 247.447C304.172 247.533 303.324 247.502 302.75 247.46C302.176 247.429 301.876 247.402 301.877 247.377C301.878 247.353 302.181 247.333 302.752 247.318C303.324 247.314 304.166 247.301 305.242 247.172C307.395 246.963 310.479 246.325 314.121 244.99C317.775 243.689 321.956 241.686 326.821 239.924C329.254 239.066 331.88 238.269 334.689 237.905C335.393 237.82 336.1 237.733 336.815 237.646C337.532 237.593 338.258 237.597 338.987 237.57C340.449 237.475 341.922 237.656 343.417 237.711C349.379 238.302 354.878 239.818 359.835 241.171C364.791 242.553 369.261 243.745 373.081 244.425C376.895 245.17 380.041 245.235 382.207 245.299C383.231 245.257 384.058 245.222 384.703 245.195C385.272 245.178 385.574 245.181 385.577 245.205Z" fill="white"/>
<path d="M399.117 208.784C399.242 208.856 397.85 210.83 396.549 214.432C395.242 217.997 394.221 223.349 395.227 229.1C396.23 234.853 398.971 239.556 401.375 242.498C403.783 245.477 405.728 246.905 405.634 247.012C405.609 247.046 405.106 246.718 404.262 246.038C403.419 245.356 402.26 244.29 400.991 242.817C398.448 239.912 395.561 235.13 394.531 229.221C393.496 223.314 394.631 217.834 396.081 214.256C396.8 212.449 397.55 211.062 398.131 210.147C398.71 209.231 399.082 208.761 399.117 208.784Z" fill="white"/>
<path d="M327.477 213.05C327.482 213.098 327.054 213.197 326.271 213.323C325.488 213.447 324.35 213.604 322.928 213.681C321.508 213.749 319.783 213.743 317.915 213.295C316.045 212.878 314.095 211.808 312.549 210.239C310.979 208.693 309.786 207.004 308.572 205.61C307.373 204.215 306.106 203.132 304.918 202.43C302.507 200.986 300.637 201.328 300.658 201.188C300.653 201.154 301.086 201.025 301.895 201.043C302.697 201.071 303.884 201.303 305.161 201.994C306.441 202.673 307.798 203.766 309.061 205.18C310.324 206.581 311.534 208.25 313.042 209.733C314.531 211.237 316.302 212.226 318.075 212.663C319.84 213.124 321.516 213.186 322.913 213.182C325.717 213.13 327.466 212.931 327.477 213.05Z" fill="white"/>
<path d="M324.747 626.474C324.552 626.474 324.395 612.246 324.395 594.697C324.395 577.144 324.553 562.918 324.747 562.918C324.943 562.918 325.1 577.144 325.1 594.697C325.1 612.246 324.942 626.474 324.747 626.474Z" fill="black"/>
<path d="M330.755 610.142C330.56 610.142 330.402 595.914 330.402 578.365C330.402 560.812 330.561 546.586 330.755 546.586C330.951 546.586 331.108 560.812 331.108 578.365C331.108 595.913 330.949 610.142 330.755 610.142Z" fill="black"/>
</svg>
