<svg width="679" height="679" viewBox="0 0 679 679" fill="none" xmlns="http://www.w3.org/2000/svg">
<path d="M70.9685 171.752C70.9685 171.752 62.7399 178.021 70.6237 186.303C70.7581 186.445 70.9495 186.525 71.145 186.525L143.037 186.105C143.037 186.105 149.176 179.219 144.082 171.285L70.9685 171.752Z" fill="#EBEBEB"/>
<path d="M127.148 178.296C127.148 178.376 118.196 178.441 107.155 178.441C96.1095 178.441 87.1602 178.376 87.1602 178.296C87.1602 178.216 96.1109 178.15 107.155 178.15C118.196 178.15 127.148 178.214 127.148 178.296Z" fill="#E0E0E0"/>
<path d="M115.966 180.895C115.966 180.975 111.757 181.04 106.566 181.04C101.374 181.04 97.166 180.975 97.166 180.895C97.166 180.815 101.374 180.75 106.566 180.75C111.757 180.75 115.966 180.814 115.966 180.895Z" fill="#E0E0E0"/>
<path d="M134.498 185.874C134.451 185.861 134.657 185.048 134.88 183.717C135.104 182.386 135.312 180.529 135.295 178.472C135.274 176.414 135.031 174.561 134.781 173.235C134.532 171.907 134.313 171.098 134.36 171.086C134.379 171.081 134.452 171.277 134.569 171.639C134.689 172 134.832 172.53 134.983 173.194C135.286 174.519 135.564 176.389 135.587 178.47C135.605 180.55 135.362 182.424 135.084 183.756C134.945 184.421 134.812 184.956 134.699 185.318C134.588 185.681 134.519 185.879 134.498 185.874Z" fill="#E0E0E0"/>
<path d="M139.865 171.194C139.883 171.184 139.996 171.37 140.186 171.716C140.283 171.889 140.395 172.102 140.505 172.36C140.617 172.616 140.758 172.904 140.871 173.239C141.128 173.898 141.364 174.709 141.555 175.624C141.732 176.543 141.854 177.568 141.869 178.65C141.872 179.732 141.766 180.759 141.604 181.68C141.428 182.599 141.205 183.413 140.958 184.077C140.851 184.413 140.714 184.704 140.605 184.962C140.499 185.221 140.391 185.437 140.296 185.611C140.111 185.96 140.001 186.147 139.983 186.139C139.933 186.114 140.334 185.341 140.763 184.012C140.981 183.349 141.179 182.542 141.339 181.635C141.483 180.725 141.58 179.715 141.577 178.653C141.563 177.59 141.451 176.583 141.292 175.676C141.118 174.772 140.906 173.967 140.677 173.309C140.229 171.988 139.816 171.219 139.865 171.194Z" fill="#E0E0E0"/>
<path d="M82.3125 185.969C82.2949 185.98 82.1768 185.809 81.9772 185.489C81.8741 185.33 81.756 185.132 81.6419 184.889C81.5252 184.648 81.3745 184.38 81.2578 184.062C80.989 183.442 80.7474 182.669 80.556 181.794C80.3823 180.915 80.2696 179.933 80.2778 178.898C80.2981 177.864 80.4366 176.884 80.6348 176.01C80.8492 175.14 81.1112 174.374 81.3963 173.761C81.5211 173.447 81.6786 173.182 81.8021 172.945C81.9229 172.706 82.0464 172.51 82.1537 172.354C82.3614 172.039 82.4849 171.872 82.5012 171.883C82.55 171.913 82.0872 172.608 81.5849 173.842C81.3284 174.456 81.0908 175.214 80.8954 176.07C80.7162 176.929 80.5886 177.888 80.5682 178.902C80.5615 179.916 80.6633 180.879 80.8194 181.742C80.9931 182.603 81.2089 183.367 81.4492 183.987C81.9175 185.233 82.3614 185.939 82.3125 185.969Z" fill="#E0E0E0"/>
<path d="M74.5495 187.724C74.5318 187.735 74.4015 187.541 74.1803 187.18C74.0662 187.001 73.9346 186.777 73.8043 186.505C73.6712 186.235 73.5043 185.934 73.3699 185.578C73.0645 184.882 72.7808 184.018 72.5473 183.041C72.3315 182.058 72.1754 180.959 72.1428 179.797C72.1238 178.634 72.231 177.529 72.4034 176.538C72.5948 175.55 72.8391 174.675 73.1133 173.966C73.2328 173.604 73.3862 173.296 73.507 173.019C73.6237 172.741 73.7459 172.513 73.8518 172.329C74.0581 171.958 74.1789 171.758 74.1965 171.768C74.2481 171.795 73.788 172.612 73.3074 174.033C73.0618 174.742 72.8405 175.608 72.6668 176.583C72.512 177.56 72.4143 178.646 72.4333 179.789C72.4659 180.93 72.6111 182.011 72.8093 182.981C73.0265 183.946 73.2844 184.803 73.5613 185.499C74.1042 186.897 74.5997 187.694 74.5495 187.724Z" fill="#E0E0E0"/>
<path d="M140.402 207.998C140.402 208.542 140.402 221.755 140.402 221.755H113.779V207.998H140.402Z" fill="#EBEBEB"/>
<path d="M54.4234 215.005C54.4274 215.126 54.4329 215.248 54.4397 215.369C54.6555 219.532 58.1902 222.751 62.3587 222.751H141.642V221.756H122.82C119.021 221.756 115.941 218.676 115.941 214.876C115.941 211.077 119.021 207.997 122.82 207.997H141.642V206.535L62.3343 206.803C57.859 206.82 54.2591 210.531 54.4234 215.005Z" fill="#E0E0E0"/>
<path d="M140.401 215.061C140.401 215.141 134.928 215.207 128.176 215.207C121.423 215.207 115.951 215.141 115.951 215.061C115.951 214.981 121.424 214.916 128.176 214.916C134.926 214.916 140.401 214.981 140.401 215.061Z" fill="#E0E0E0"/>
<path d="M140.015 218.161C140.015 218.241 134.835 218.306 128.449 218.306C122.059 218.306 116.881 218.241 116.881 218.161C116.881 218.081 122.059 218.016 128.449 218.016C134.835 218.016 140.015 218.081 140.015 218.161Z" fill="#E0E0E0"/>
<path d="M140.401 220.995C140.401 221.075 135.745 221.14 130.002 221.14C124.257 221.14 119.602 221.075 119.602 220.995C119.602 220.915 124.257 220.85 130.002 220.85C135.744 220.85 140.401 220.915 140.401 220.995Z" fill="#E0E0E0"/>
<path d="M140.402 212.276C140.402 212.356 135.04 212.421 128.428 212.421C121.813 212.421 116.453 212.356 116.453 212.276C116.453 212.196 121.813 212.131 128.428 212.131C135.04 212.131 140.402 212.196 140.402 212.276Z" fill="#E0E0E0"/>
<path d="M140.015 209.491C140.015 209.571 135.243 209.636 129.357 209.636C123.47 209.636 118.697 209.571 118.697 209.491C118.697 209.411 123.469 209.346 129.357 209.346C135.243 209.346 140.015 209.411 140.015 209.491Z" fill="#E0E0E0"/>
<path d="M64.0305 207.034C64.0739 207.079 63.2554 207.699 62.3459 209.037C61.4378 210.353 60.5107 212.487 60.5365 214.954C60.5691 217.422 61.5464 219.534 62.4844 220.828C63.4251 222.145 64.2585 222.744 64.2151 222.791C64.2056 222.804 63.9925 222.664 63.6423 222.368C63.292 222.074 62.817 221.603 62.3174 220.95C61.317 219.663 60.2773 217.504 60.2447 214.958C60.2175 212.415 61.2057 210.231 62.1749 208.921C62.6595 208.256 63.1224 207.774 63.4658 207.471C63.8106 207.166 64.0196 207.022 64.0305 207.034Z" fill="#F5F5F5"/>
<path d="M61.3488 206.741C61.3923 206.786 60.5738 207.406 59.6643 208.744C58.7562 210.06 57.8291 212.194 57.8549 214.661C57.8875 217.129 58.8648 219.241 59.8028 220.535C60.7434 221.852 61.5769 222.451 61.5334 222.498C61.5239 222.51 61.3108 222.371 60.9606 222.075C60.6104 221.781 60.1367 221.31 59.6358 220.657C58.6354 219.37 57.5956 217.211 57.563 214.665C57.5359 212.122 58.5241 209.938 59.4946 208.628C59.9792 207.963 60.4421 207.481 60.7855 207.178C61.1289 206.873 61.338 206.729 61.3488 206.741Z" fill="#F5F5F5"/>
<path d="M115.22 207.034C115.265 207.079 114.445 207.699 113.535 209.037C112.627 210.353 111.7 212.487 111.726 214.954C111.759 217.422 112.735 219.534 113.674 220.828C114.615 222.145 115.448 222.744 115.405 222.791C115.395 222.804 115.182 222.664 114.832 222.368C114.482 222.074 114.006 221.603 113.507 220.95C112.506 219.663 111.467 217.504 111.434 214.958C111.407 212.415 112.395 210.231 113.366 208.921C113.85 208.256 114.313 207.774 114.657 207.471C115 207.166 115.209 207.022 115.22 207.034Z" fill="#F5F5F5"/>
<path d="M112.538 206.741C112.583 206.786 111.763 207.406 110.854 208.744C109.946 210.06 109.019 212.194 109.044 214.661C109.077 217.129 110.054 219.241 110.992 220.535C111.933 221.852 112.766 222.451 112.723 222.498C112.713 222.51 112.5 222.371 112.15 222.075C111.8 221.781 111.325 221.31 110.825 220.657C109.825 219.37 108.785 217.211 108.752 214.665C108.725 212.122 109.715 209.938 110.684 208.628C111.169 207.963 111.632 207.481 111.975 207.178C112.318 206.873 112.527 206.729 112.538 206.741Z" fill="#F5F5F5"/>
<path d="M73.0517 216.937C73.0273 215.072 73.0015 213.209 72.9757 211.344C72.9689 210.856 72.9607 210.355 72.7789 209.902C72.597 209.449 72.2033 209.048 71.7174 209.006C71.017 208.697 69.9242 209.28 69.4356 210.087C68.9469 210.894 68.8926 211.884 68.8858 212.829C68.875 214.304 68.9469 215.78 69.1003 217.248C69.1736 217.946 69.2713 218.663 69.6202 219.271C69.969 219.879 70.6287 220.361 71.3264 220.297C72.0187 220.233 72.5766 219.651 72.8209 218.999C73.0666 218.348 73.0598 217.634 73.0517 216.937Z" fill="#F5F5F5"/>
<path d="M103.844 215.329C103.844 215.409 98.1132 215.474 91.0438 215.474C83.9731 215.474 78.2422 215.409 78.2422 215.329C78.2422 215.249 83.9731 215.184 91.0438 215.184C98.1132 215.184 103.844 215.249 103.844 215.329Z" fill="#F5F5F5"/>
<path d="M67.7423 206.486L67.5957 193.445H74.6949L74.9392 206.486H67.7423Z" fill="#F5F5F5"/>
<path d="M74.2747 195.764C74.2747 195.844 72.7978 195.91 70.9762 195.91C69.1546 195.91 67.6777 195.844 67.6777 195.764C67.6777 195.684 69.1546 195.619 70.9762 195.619C72.7978 195.619 74.2747 195.684 74.2747 195.764Z" fill="#E0E0E0"/>
<path d="M74.2747 197.778C74.2747 197.858 72.7978 197.923 70.9762 197.923C69.1546 197.923 67.6777 197.858 67.6777 197.778C67.6777 197.698 69.1546 197.633 70.9762 197.633C72.7978 197.633 74.2747 197.698 74.2747 197.778Z" fill="#E0E0E0"/>
<path d="M74.2747 199.792C74.2747 199.872 72.7978 199.937 70.9762 199.937C69.1546 199.937 67.6777 199.872 67.6777 199.792C67.6777 199.712 69.1546 199.646 70.9762 199.646C72.7978 199.646 74.2747 199.712 74.2747 199.792Z" fill="#E0E0E0"/>
<path d="M74.2747 201.803C74.2747 201.884 72.7978 201.949 70.9762 201.949C69.1546 201.949 67.6777 201.884 67.6777 201.803C67.6777 201.723 69.1546 201.658 70.9762 201.658C72.7978 201.658 74.2747 201.723 74.2747 201.803Z" fill="#E0E0E0"/>
<path d="M74.2747 203.815C74.2747 203.895 72.7978 203.96 70.9762 203.96C69.1546 203.96 67.6777 203.895 67.6777 203.815C67.6777 203.735 69.1546 203.67 70.9762 203.67C72.7978 203.67 74.2747 203.735 74.2747 203.815Z" fill="#E0E0E0"/>
<path d="M67.2188 193.102H145.894C146.864 197.419 146.728 202.172 145.894 207.197H67.554V206.238H72.3416C73.5904 206.238 74.6016 205.226 74.6016 203.978V196.179C74.6016 194.93 73.589 193.919 72.3416 193.919H67.2188V193.102Z" fill="#EBEBEB"/>
<path d="M85.8172 200.156H87.1298C87.1787 200.156 87.2262 200.168 87.271 200.191C87.3647 200.246 87.4122 200.329 87.4122 200.438C87.4122 200.471 87.4095 200.5 87.4013 200.523C87.3755 200.634 87.3457 200.745 87.3131 200.858C87.1298 201.458 86.8556 201.953 86.4905 202.344C86.1281 202.73 85.7548 202.923 85.372 202.923C85.3204 202.923 85.2675 202.92 85.2132 202.912C84.8548 202.857 84.5576 202.642 84.32 202.266C84.058 201.845 83.9277 201.318 83.9277 200.686C83.9277 200.314 83.9793 199.939 84.0838 199.56C84.2508 198.948 84.5114 198.442 84.8643 198.039C85.2336 197.619 85.6272 197.41 86.0466 197.41C86.2231 197.41 86.3887 197.448 86.5434 197.523C86.8828 197.69 87.138 198.009 87.309 198.481C87.3307 198.523 87.3402 198.567 87.3402 198.611C87.3402 198.66 87.328 198.708 87.3022 198.753C87.2452 198.846 87.1638 198.894 87.0593 198.894C87.0307 198.894 87.0009 198.89 86.971 198.88C86.8787 198.849 86.819 198.791 86.7905 198.704L86.7769 198.679C86.7348 198.564 86.6819 198.461 86.6181 198.368C86.4457 198.119 86.2367 197.994 85.9896 197.994C85.8457 197.994 85.7005 198.047 85.5553 198.153C85.2797 198.351 85.0408 198.693 84.8385 199.183C84.6309 199.687 84.5277 200.179 84.5277 200.664C84.5277 201.129 84.6037 201.518 84.7544 201.827C84.9213 202.171 85.1494 202.342 85.4399 202.342C85.6353 202.339 85.8457 202.213 86.0751 201.959C86.3561 201.645 86.5801 201.238 86.7498 200.74C86.1457 200.74 85.8308 200.736 85.8077 200.729C85.6028 200.696 85.4982 200.591 85.4928 200.411C85.4969 200.376 85.5077 200.345 85.5213 200.316C85.5729 200.209 85.6706 200.156 85.8172 200.156Z" fill="#FAFAFA"/>
<path d="M90.2848 197.593C90.2956 197.619 90.3078 197.65 90.3201 197.688C90.3757 197.881 90.6838 199.506 91.2458 202.564C91.2539 202.587 91.2594 202.611 91.2594 202.634C91.2594 202.683 91.2472 202.732 91.2214 202.778C91.1657 202.875 91.087 202.922 90.9865 202.922C90.973 202.922 90.958 202.921 90.9417 202.919C90.8291 202.9 90.7571 202.835 90.7246 202.725L90.411 201.106H88.7943L88.0179 202.732C88.0111 202.75 88.003 202.767 87.9921 202.786C87.9188 202.879 87.8374 202.923 87.7491 202.923C87.6948 202.923 87.6433 202.909 87.5958 202.877C87.5102 202.819 87.4668 202.739 87.4668 202.641C87.4668 202.614 87.4722 202.585 87.4844 202.557C87.5333 202.444 87.6134 202.266 87.7247 202.023C88.8554 199.553 89.5314 198.097 89.754 197.651C89.8178 197.522 89.9088 197.456 90.0269 197.453C90.1382 197.454 90.225 197.502 90.2848 197.593ZM89.9318 198.683L89.0577 200.522H90.2915L89.9318 198.683Z" fill="#FAFAFA"/>
<path d="M94.6715 202.923H92.3001C92.2458 202.923 92.1956 202.908 92.1481 202.877C92.0802 202.828 92.0354 202.729 92.0137 202.58V202.576C92.0137 202.479 92.2322 200.861 92.6679 197.722C92.6706 197.686 92.6747 197.651 92.6815 197.617C92.7304 197.502 92.8159 197.443 92.9367 197.443C92.9842 197.443 93.0277 197.454 93.067 197.476C93.1661 197.528 93.215 197.61 93.215 197.727C93.1946 197.942 93.1403 198.385 93.0534 199.057C92.782 201.13 92.6408 202.224 92.6286 202.338H94.6443C94.6986 202.338 94.7488 202.348 94.7963 202.367C94.9171 202.416 94.9769 202.505 94.9769 202.631C94.9769 202.663 94.9714 202.692 94.9633 202.724C94.9239 202.835 94.8262 202.9 94.6715 202.923Z" fill="#FAFAFA"/>
<path d="M97.9137 197.593C97.9245 197.619 97.9367 197.65 97.949 197.688C98.0046 197.881 98.3127 199.506 98.8747 202.564C98.8829 202.587 98.8883 202.611 98.8883 202.634C98.8883 202.683 98.8761 202.732 98.8489 202.778C98.7933 202.875 98.7145 202.922 98.6141 202.922C98.6005 202.922 98.5856 202.921 98.5693 202.919C98.4566 202.9 98.3847 202.835 98.3521 202.725L98.0385 201.106H96.4232L95.6468 202.732C95.64 202.75 95.6319 202.767 95.621 202.786C95.5477 202.879 95.4663 202.923 95.378 202.923C95.3224 202.923 95.2722 202.909 95.2247 202.877C95.1391 202.819 95.0957 202.739 95.0957 202.641C95.0957 202.614 95.1011 202.585 95.1133 202.557C95.1622 202.444 95.2423 202.266 95.3536 202.023C96.4843 199.553 97.1603 198.097 97.3829 197.651C97.4467 197.522 97.5377 197.456 97.6558 197.453C97.7684 197.454 97.8539 197.502 97.9137 197.593ZM97.5607 198.683L96.6866 200.522H97.9205L97.5607 198.683Z" fill="#FAFAFA"/>
<path d="M101.692 200.391C101.876 200.904 102.02 201.301 102.121 201.579C102.365 202.255 102.487 202.611 102.487 202.649C102.487 202.7 102.472 202.748 102.441 202.793C102.384 202.879 102.305 202.921 102.205 202.921C102.099 202.919 102.021 202.856 101.97 202.731C101.952 202.681 101.936 202.641 101.925 202.612C101.796 202.317 101.584 201.76 101.291 200.94L99.9501 202.774C99.8754 202.871 99.7926 202.92 99.699 202.923C99.6487 202.923 99.5999 202.909 99.5524 202.883C99.4628 202.829 99.418 202.75 99.418 202.647C99.418 202.624 99.4193 202.604 99.422 202.588C99.4288 202.545 99.4763 202.469 99.5632 202.358C100.013 201.777 100.509 201.085 101.054 200.281C100.997 200.124 100.942 199.975 100.891 199.833C100.387 198.481 100.135 197.782 100.135 197.738C100.135 197.686 100.147 197.637 100.17 197.592C100.222 197.499 100.298 197.451 100.399 197.451C100.522 197.454 100.61 197.505 100.664 197.609L101.455 199.742L103.037 197.59C103.105 197.503 103.189 197.458 103.289 197.455C103.337 197.455 103.379 197.466 103.418 197.486C103.509 197.538 103.555 197.622 103.555 197.739C103.555 197.778 103.546 197.822 103.527 197.869L101.692 200.391Z" fill="#FAFAFA"/>
<path d="M107.56 197.472C107.605 197.472 107.649 197.483 107.691 197.503C107.784 197.555 107.836 197.636 107.843 197.746C107.454 200.813 107.24 202.469 107.201 202.716C107.111 203.238 106.941 203.67 106.693 204.011C106.314 204.526 105.79 204.783 105.118 204.783C104.901 204.783 104.649 204.717 104.36 204.582C103.955 204.395 103.675 204.149 103.523 203.848C103.502 203.806 103.492 203.76 103.492 203.711C103.492 203.662 103.506 203.614 103.532 203.569C103.589 203.474 103.669 203.428 103.775 203.428C103.86 203.431 103.932 203.469 103.99 203.545C104.341 204.004 104.745 204.235 105.205 204.236C105.569 204.233 105.884 204.074 106.147 203.758C106.446 203.394 106.621 202.898 106.67 202.268C106.578 202.41 106.461 202.534 106.321 202.638C106.064 202.824 105.781 202.917 105.47 202.917C105.418 202.917 105.365 202.913 105.311 202.906C104.949 202.854 104.649 202.638 104.411 202.26C104.148 201.839 104.016 201.312 104.016 200.68C104.016 200.392 104.03 200.096 104.056 199.79C104.1 199.311 104.206 198.63 104.376 197.746C104.381 197.718 104.389 197.692 104.402 197.665C104.451 197.535 104.536 197.471 104.655 197.471C104.703 197.471 104.749 197.483 104.794 197.51C104.888 197.564 104.935 197.639 104.935 197.735C104.935 197.881 104.892 198.242 104.805 198.817C104.68 199.663 104.617 200.214 104.617 200.471C104.617 200.996 104.688 201.426 104.829 201.756C104.991 202.142 105.226 202.334 105.531 202.334C105.562 202.334 105.593 202.33 105.626 202.323C105.857 202.276 106.093 202.087 106.336 201.756C106.614 201.376 106.808 200.94 106.922 200.449L107.282 197.745C107.287 197.703 107.298 197.662 107.317 197.625C107.365 197.524 107.448 197.472 107.56 197.472Z" fill="#FAFAFA"/>
<path d="M142.938 207.38C142.858 207.38 142.793 204.142 142.793 200.149C142.793 196.154 142.858 192.918 142.938 192.918C143.018 192.918 143.083 196.155 143.083 200.149C143.083 204.142 143.018 207.38 142.938 207.38Z" fill="#F5F5F5"/>
<path d="M78.5593 207.38C78.4792 207.38 78.4141 204.142 78.4141 200.149C78.4141 196.154 78.4792 192.918 78.5593 192.918C78.6394 192.918 78.7045 196.155 78.7045 200.149C78.7045 204.142 78.6394 207.38 78.5593 207.38Z" fill="#E0E0E0"/>
<path d="M144.319 207.38C144.239 207.38 144.174 204.142 144.174 200.149C144.174 196.154 144.239 192.918 144.319 192.918C144.399 192.918 144.464 196.155 144.464 200.149C144.464 204.142 144.399 207.38 144.319 207.38Z" fill="#F5F5F5"/>
<path d="M77.2683 207.38C77.1882 207.38 77.123 204.142 77.123 200.149C77.123 196.154 77.1882 192.918 77.2683 192.918C77.3484 192.918 77.4135 196.155 77.4135 200.149C77.4135 204.142 77.3484 207.38 77.2683 207.38Z" fill="#E0E0E0"/>
<path d="M123.861 195.3L123.848 195.275C125.997 197.009 128.917 199.364 132.164 201.984L132.237 202.043L132.146 202.068C131.795 202.16 131.419 202.259 131.04 202.36C128.514 203.022 126.123 203.649 124.019 204.202L124.006 204.206L123.992 204.2C121.383 203.094 119.183 202.16 117.629 201.502C116.859 201.172 116.25 200.911 115.827 200.731C115.622 200.641 115.464 200.572 115.352 200.523C115.301 200.5 115.261 200.482 115.23 200.467C115.203 200.455 115.189 200.447 115.189 200.447C115.189 200.447 115.204 200.451 115.233 200.461C115.264 200.473 115.305 200.489 115.356 200.51C115.469 200.556 115.631 200.621 115.837 200.705C116.26 200.88 116.873 201.134 117.648 201.454C119.205 202.104 121.409 203.028 124.025 204.12L123.996 204.119C126.099 203.564 128.489 202.934 131.014 202.267C131.393 202.167 131.769 202.069 132.12 201.977L132.103 202.06C128.863 199.432 125.948 197.069 123.805 195.33L123.793 195.32V195.305" fill="#E0E0E0"/>
<path d="M131.412 200.938L131.866 201.364L132.474 201.233L132.208 201.795L132.521 202.334L131.904 202.256L131.488 202.72L131.373 202.108L130.803 201.856L131.348 201.556L131.412 200.938Z" fill="#E0E0E0"/>
<path d="M123.436 203.582L123.746 203.84L124.133 203.731L123.984 204.105L124.207 204.44L123.806 204.414L123.556 204.729L123.457 204.339L123.078 204.2L123.42 203.984L123.436 203.582Z" fill="#E0E0E0"/>
<path d="M114.625 199.968L115.119 199.999L115.425 199.609L115.547 200.089L116.011 200.258L115.594 200.523L115.575 201.017L115.195 200.702L114.719 200.838L114.901 200.378L114.625 199.968Z" fill="#E0E0E0"/>
<path d="M135.139 195.404L135.633 195.435L135.938 195.047L136.062 195.525L136.525 195.696L136.108 195.96L136.089 196.455L135.709 196.14L135.232 196.275L135.414 195.815L135.139 195.404Z" fill="#E0E0E0"/>
<path d="M123.457 195.08L123.772 195.1L123.967 194.852L124.045 195.157L124.342 195.266L124.076 195.435L124.064 195.75L123.821 195.549L123.517 195.636L123.633 195.343L123.457 195.08Z" fill="#E0E0E0"/>
<path d="M135.833 195.749C135.831 195.782 133.141 195.692 129.825 195.55C126.507 195.407 123.821 195.267 123.822 195.235C123.824 195.204 126.513 195.292 129.83 195.434C133.146 195.577 135.834 195.718 135.833 195.749Z" fill="#E0E0E0"/>
<path d="M138.856 192.978H59.0624C58.0172 190.606 57.7607 188.354 59.0624 186.336H138.854C139.902 188.753 139.814 190.95 138.856 192.978Z" fill="#E0E0E0"/>
<path d="M118.813 188.234H75.584V190.652H118.813V188.234Z" fill="#EBEBEB"/>
<path d="M62.1268 193.014C62.1024 193.034 61.8173 192.76 61.497 192.21C61.1766 191.665 60.8563 190.824 60.7681 189.853C60.6839 188.881 60.8536 187.997 61.0735 187.404C61.2934 186.807 61.5268 186.488 61.554 186.502C61.5974 186.524 61.4318 186.874 61.2703 187.465C61.1061 188.054 60.9785 188.898 61.0572 189.827C61.1413 190.755 61.4142 191.563 61.6789 192.115C61.9409 192.669 62.1648 192.984 62.1268 193.014Z" fill="#E0E0E0"/>
<path d="M63.8534 193.014C63.8289 193.034 63.5439 192.76 63.2235 192.21C62.9032 191.665 62.5828 190.824 62.4946 189.853C62.4105 188.881 62.5801 187.997 62.8 187.404C63.0199 186.807 63.2534 186.488 63.2806 186.502C63.324 186.524 63.1584 186.874 62.9969 187.465C62.8326 188.054 62.705 188.898 62.7837 189.827C62.8679 190.755 63.1407 191.563 63.4054 192.115C63.6674 192.669 63.8914 192.984 63.8534 193.014Z" fill="#E0E0E0"/>
<path d="M135.627 192.859C135.539 192.828 136.191 191.445 136.189 189.612C136.212 187.78 135.577 186.388 135.665 186.359C135.717 186.311 136.502 187.704 136.48 189.614C136.478 191.524 135.679 192.907 135.627 192.859Z" fill="#F5F5F5"/>
<path d="M134.141 192.844C134.054 192.823 134.389 191.421 134.38 189.663C134.384 187.904 134.045 186.503 134.131 186.483C134.198 186.457 134.673 187.858 134.67 189.662C134.68 191.467 134.207 192.869 134.141 192.844Z" fill="#F5F5F5"/>
<path d="M204.843 94.0506L176.432 94.2012L176.591 124.34L205.003 124.189L204.843 94.0506Z" fill="#EBEBEB"/>
<path d="M233.129 93.8798L204.717 94.0332L204.88 124.173L233.291 124.019L233.129 93.8798Z" fill="#F5F5F5"/>
<path d="M176.478 102.516C195.359 102.673 214.287 102.563 233.167 102.256C233.555 102.25 233.552 101.654 233.163 101.652C214.281 101.547 195.354 101.64 176.475 101.998C176.143 102.005 176.144 102.512 176.478 102.516Z" fill="#E0E0E0"/>
<path d="M210.346 123.669L158.727 123.947L158.859 148.508L210.478 148.229L210.346 123.669Z" fill="#EBEBEB"/>
<path d="M261.721 123.391L210.102 123.67L210.234 148.231L261.853 147.952L261.721 123.391Z" fill="#F5F5F5"/>
<path d="M158.755 130.781C193.047 131.17 227.458 130.822 261.749 130.272C262.137 130.266 262.134 129.67 261.746 129.668C227.451 129.488 193.039 129.508 158.752 130.263C158.419 130.272 158.422 130.779 158.755 130.781Z" fill="#E0E0E0"/>
<path d="M163.758 262.69L112.139 262.969L112.271 287.53L163.891 287.251L163.758 262.69Z" fill="#EBEBEB"/>
<path d="M215.133 262.413L163.514 262.691L163.646 287.252L215.266 286.973L215.133 262.413Z" fill="#F5F5F5"/>
<path d="M112.161 269.801C146.453 270.189 180.864 269.842 215.155 269.292C215.543 269.285 215.541 268.689 215.152 268.688C180.858 268.507 146.445 268.528 112.158 269.282C111.826 269.291 111.828 269.797 112.161 269.801Z" fill="#E0E0E0"/>
<path d="M94.4571 83.7923L81.4355 83.8613L81.7789 148.654L94.8005 148.585L94.4571 83.7923Z" fill="#E0E0E0"/>
<path d="M107.168 59.623L94.1465 59.6934L94.6277 148.807L107.649 148.736L107.168 59.623Z" fill="#EBEBEB"/>
<path d="M127.515 76.2111L107.281 76.3203L107.671 148.537L127.905 148.427L127.515 76.2111Z" fill="#F5F5F5"/>
<path d="M127.375 90.1256C127.375 90.3197 122.845 90.4758 117.259 90.4758C111.671 90.4758 107.143 90.3184 107.143 90.1256C107.143 89.9315 111.671 89.7754 117.259 89.7754C122.845 89.7754 127.375 89.9315 127.375 90.1256Z" fill="#E0E0E0"/>
<path d="M127.375 87.0924C127.375 87.2852 122.845 87.4426 117.259 87.4426C111.671 87.4426 107.143 87.2852 107.143 87.0924C107.143 86.8983 111.671 86.7422 117.259 86.7422C122.845 86.7422 127.375 86.8983 127.375 87.0924Z" fill="#E0E0E0"/>
<path d="M127.375 137.563C127.375 137.757 122.845 137.913 117.259 137.913C111.671 137.913 107.143 137.756 107.143 137.563C107.143 137.37 111.671 137.213 117.259 137.213C122.845 137.213 127.375 137.37 127.375 137.563Z" fill="#E0E0E0"/>
<path d="M127.375 134.53C127.375 134.724 122.845 134.88 117.259 134.88C111.671 134.88 107.143 134.723 107.143 134.53C107.143 134.336 111.671 134.18 117.259 134.18C122.845 134.18 127.375 134.337 127.375 134.53Z" fill="#E0E0E0"/>
<path d="M117.585 127.911C117.39 127.911 117.234 120.624 117.234 111.64C117.234 102.651 117.392 95.3672 117.585 95.3672C117.779 95.3672 117.935 102.651 117.935 111.64C117.935 120.624 117.777 127.911 117.585 127.911Z" fill="#E0E0E0"/>
<path d="M149.62 93.9473H127.596V148.456H149.62V93.9473Z" fill="#EBEBEB"/>
<path d="M104.207 74.84C104.207 76.9073 102.532 78.5824 100.465 78.5824C98.3977 78.5824 96.7227 76.9073 96.7227 74.84C96.7227 72.7727 98.3977 71.0977 100.465 71.0977C102.531 71.0977 104.207 72.7727 104.207 74.84Z" fill="#E0E0E0"/>
<path d="M101.62 85.1328H99.3066V138.145H101.62V85.1328Z" fill="#E0E0E0"/>
<path d="M274.411 223.197H45.1602V231.036H274.411V223.197Z" fill="#E0E0E0"/>
<path d="M274.411 148.807H45.1602V156.646H274.411V148.807Z" fill="#E0E0E0"/>
<path d="M274.41 287.57H91.9473V294.97H274.41V287.57Z" fill="#E0E0E0"/>
<path d="M159.784 155.115H151.041V229.115H159.784V155.115Z" fill="#E0E0E0"/>
<path d="M100.741 223.197H91.998V294.941H100.741V223.197Z" fill="#E0E0E0"/>
<path d="M203.556 189.555L198.182 197.28C198.182 197.28 210.274 200.638 210.274 211.387C210.274 222.135 202.884 224.149 194.824 224.149C186.764 224.149 179.037 221.798 179.374 211.05C179.711 200.303 189.786 196.272 189.786 196.272L184.748 189.555H203.556Z" fill="#F5F5F5"/>
<path d="M568.029 466.104H325.352V578.022H568.029V466.104Z" fill="#F5F5F5"/>
<path d="M562.251 572.748H330.904V471.992H562.251V572.748ZM332.415 571.238H560.742V473.502H332.415V571.238Z" fill="#E0E0E0"/>
<path d="M627.312 466.104H568.027V578.022H627.312V466.104Z" fill="#E0E0E0"/>
<path d="M331.66 503.174C357.658 503.174 383.655 503.174 409.653 503.174C450.73 503.174 491.805 503.174 532.88 503.174C542.418 503.174 551.958 503.174 561.496 503.174C561.889 503.174 561.889 502.564 561.496 502.564C535.498 502.564 509.501 502.564 483.503 502.564C442.428 502.564 401.352 502.564 360.277 502.564C350.738 502.564 341.198 502.564 331.66 502.564C331.268 502.564 331.266 503.174 331.66 503.174Z" fill="#E0E0E0"/>
<path d="M447.33 502.868C448.019 492.934 447.945 482.411 447.408 472.467C447.387 472.069 446.811 472.068 446.789 472.467C446.253 482.411 446.179 492.934 446.868 502.868C446.889 503.166 447.309 503.166 447.33 502.868Z" fill="#E0E0E0"/>
<path d="M509.195 487.669C509.195 489.398 507.792 490.8 506.063 490.8C504.334 490.8 502.932 489.398 502.932 487.669C502.932 485.939 504.334 484.537 506.063 484.537C507.792 484.537 509.195 485.939 509.195 487.669Z" fill="#E0E0E0"/>
<path d="M388.574 487.669C388.574 489.398 387.171 490.8 385.442 490.8C383.713 490.8 382.311 489.398 382.311 487.669C382.311 485.939 383.713 484.537 385.442 484.537C387.173 484.537 388.574 485.939 388.574 487.669Z" fill="#E0E0E0"/>
<path d="M449.71 522.37C449.71 524.099 448.308 525.501 446.579 525.501C444.849 525.501 443.447 524.099 443.447 522.37C443.447 520.64 444.849 519.238 446.579 519.238C448.308 519.238 449.71 520.64 449.71 522.37Z" fill="#E0E0E0"/>
<path d="M354.366 578.023L341.871 648.289H348.898L371.935 578.023H354.366Z" fill="#E0E0E0"/>
<path d="M550.858 578.023L561.307 648.411H554.28L533.289 578.023H550.858Z" fill="#E0E0E0"/>
<path d="M597.771 578.023L609.609 648.411H602.582L580.201 578.023H597.771Z" fill="#E0E0E0"/>
<path d="M449.499 554.046C449.499 555.775 448.097 557.177 446.368 557.177C444.639 557.177 443.236 555.775 443.236 554.046C443.236 552.316 444.639 550.914 446.368 550.914C448.099 550.914 449.499 552.316 449.499 554.046Z" fill="#E0E0E0"/>
<path d="M331.66 537.832C357.658 537.832 383.655 537.832 409.653 537.832C450.73 537.832 491.805 537.832 532.88 537.832C542.418 537.832 551.958 537.832 561.496 537.832C561.889 537.832 561.889 537.223 561.496 537.223C535.498 537.223 509.501 537.223 483.503 537.223C442.428 537.223 401.352 537.223 360.277 537.223C350.738 537.223 341.198 537.223 331.66 537.223C331.268 537.223 331.266 537.832 331.66 537.832Z" fill="#E0E0E0"/>
<path d="M494.79 428.134L494.711 413.197L421.337 413.586L421.416 428.523L494.79 428.134Z" fill="#E0E0E0"/>
<path d="M503.602 465.805L503.479 442.596L421.698 443.029L421.821 466.238L503.602 465.805Z" fill="#F5F5F5"/>
<path d="M487.845 465.63C487.625 465.63 487.447 460.434 487.447 454.026C487.447 447.615 487.625 442.42 487.845 442.42C488.064 442.42 488.241 447.615 488.241 454.026C488.243 460.435 488.065 465.63 487.845 465.63Z" fill="#E0E0E0"/>
<path d="M491.281 465.63C491.063 465.63 490.885 460.434 490.885 454.026C490.885 447.615 491.063 442.42 491.281 442.42C491.5 442.42 491.677 447.615 491.677 454.026C491.679 460.435 491.501 465.63 491.281 465.63Z" fill="#E0E0E0"/>
<path d="M434.125 465.63C433.906 465.63 433.729 460.434 433.729 454.026C433.729 447.615 433.906 442.42 434.125 442.42C434.343 442.42 434.523 447.615 434.523 454.026C434.523 460.435 434.345 465.63 434.125 465.63Z" fill="#E0E0E0"/>
<path d="M437.562 465.63C437.342 465.63 437.164 460.434 437.164 454.026C437.164 447.615 437.342 442.42 437.562 442.42C437.78 442.42 437.958 447.615 437.958 454.026C437.958 460.435 437.78 465.63 437.562 465.63Z" fill="#E0E0E0"/>
<path d="M445.057 454.4C445.057 454.177 453.307 453.998 463.483 453.998C473.663 453.998 481.911 454.177 481.911 454.4C481.911 454.621 473.663 454.802 463.483 454.802C453.307 454.802 445.057 454.621 445.057 454.4Z" fill="#E0E0E0"/>
<path d="M534.319 442.47L534.24 427.533L433.324 428.068L433.403 443.005L534.319 442.47Z" fill="#EBEBEB"/>
<path d="M519.86 440.598C517.227 440.598 515.092 438.435 515.092 435.767C515.092 433.099 517.227 430.936 519.86 430.936C522.495 430.936 524.629 433.098 524.629 435.767C524.63 438.435 522.495 440.598 519.86 440.598Z" fill="#E0E0E0"/>
<path d="M506.744 437.262V434.275H439.193V437.262H506.744Z" fill="#E0E0E0"/>
<path d="M570.595 211.1H455.615V330.957H570.595V211.1Z" fill="#E0E0E0"/>
<path d="M562.808 211.1H447.828V330.957H562.808V211.1Z" fill="#FAFAFA"/>
<path d="M562.843 330.993H447.793V211.064H562.843V330.993ZM447.864 330.922H562.772V211.135H447.864V330.922Z" fill="#E0E0E0"/>
<path d="M547.35 227.213H463.283V314.845H547.35V227.213Z" fill="white"/>
<path d="M463.284 315.427C463.35 315.506 462.552 316.422 461.21 317.839C459.867 319.257 457.981 321.173 455.866 323.257C453.75 325.34 451.807 327.196 450.374 328.514C448.94 329.831 448.016 330.611 447.944 330.538C447.872 330.465 448.665 329.552 450.007 328.135C451.35 326.718 453.242 324.796 455.362 322.707C457.484 320.618 459.43 318.757 460.864 317.44C462.3 316.124 463.219 315.349 463.284 315.427Z" fill="#E0E0E0"/>
<path d="M547.351 315.213C547.43 315.146 548.346 315.944 549.763 317.287C551.18 318.629 553.097 320.516 555.181 322.631C557.264 324.746 559.12 326.69 560.438 328.123C561.755 329.556 562.534 330.48 562.462 330.553C562.388 330.625 561.476 329.832 560.059 328.49C558.643 327.147 556.72 325.255 554.631 323.133C552.542 321.012 550.682 319.064 549.364 317.63C548.048 316.198 547.272 315.279 547.351 315.213Z" fill="#E0E0E0"/>
<path d="M547.121 227.446C547.055 227.367 547.853 226.451 549.196 225.034C550.539 223.617 552.426 221.699 554.541 219.617C556.655 217.533 558.599 215.677 560.033 214.359C561.466 213.043 562.389 212.263 562.462 212.337C562.534 212.41 561.742 213.321 560.399 214.738C559.057 216.155 557.164 218.077 555.043 220.166C552.923 222.255 550.975 224.115 549.54 225.433C548.106 226.75 547.188 227.525 547.121 227.446Z" fill="#E0E0E0"/>
<path d="M463.055 227.661C462.976 227.728 462.06 226.929 460.643 225.587C459.226 224.244 457.309 222.358 455.225 220.243C453.142 218.127 451.286 216.184 449.968 214.751C448.65 213.317 447.871 212.394 447.944 212.321C448.018 212.248 448.928 213.042 450.345 214.384C451.763 215.727 453.685 217.619 455.774 219.741C457.863 221.862 459.722 223.81 461.04 225.244C462.358 226.676 463.133 227.595 463.055 227.661Z" fill="#E0E0E0"/>
<path d="M547.12 314.845C547.113 314.839 547.108 314.696 547.102 314.419C547.098 314.12 547.091 313.717 547.083 313.196C547.074 312.098 547.061 310.518 547.045 308.465C547.026 304.314 546.996 298.274 546.96 290.604C546.92 275.256 546.863 253.391 546.795 227.211L547.12 227.536C522.647 227.549 493.907 227.565 463.291 227.584H463.283L463.655 227.213C463.636 259.377 463.617 289.468 463.602 314.845L463.281 314.526C488.403 314.594 509.32 314.649 523.984 314.689C531.31 314.724 537.075 314.753 541.035 314.772C542.991 314.788 544.497 314.8 545.545 314.808C546.041 314.816 546.425 314.822 546.711 314.826C546.977 314.833 547.114 314.838 547.12 314.845C547.127 314.852 547.002 314.857 546.749 314.863C546.471 314.867 546.099 314.872 545.619 314.88C544.584 314.888 543.098 314.901 541.169 314.917C537.226 314.936 531.487 314.964 524.191 315C509.476 315.039 488.49 315.095 463.284 315.163L462.965 315.164V314.842C462.95 289.466 462.931 259.375 462.912 227.21V226.838H463.284H463.292C493.907 226.856 522.649 226.872 547.121 226.885H547.447V227.21C547.379 253.476 547.322 275.412 547.283 290.811C547.246 298.449 547.218 304.464 547.197 308.598C547.181 310.623 547.169 312.182 547.159 313.266C547.151 313.773 547.146 314.163 547.142 314.454C547.132 314.72 547.127 314.85 547.12 314.845Z" fill="#E0E0E0"/>
<path d="M519.345 257.004H491.293V285.056H519.345V257.004Z" fill="#EBEBEB"/>
<path d="M234.877 578.502H152.574V589.81H234.877V578.502Z" fill="black"/>
<path d="M235.018 589.952H152.434V578.361H235.018V589.952ZM152.715 589.671H234.735V578.644H152.715V589.671Z" fill="black"/>
<path d="M160.205 586.049L172.052 644.493H215.886L227.338 589.813L160.205 586.049Z" fill="black"/>
<path d="M160.205 638.965L166.524 647.652H219.803L227.338 638.965H160.205Z" fill="#EC8305"/>
<path d="M190.636 587.755C190.474 587.755 190.266 560.679 190.173 527.287C190.079 493.883 190.133 466.812 190.296 466.812C190.458 466.812 190.665 493.882 190.759 527.286C190.853 560.678 190.797 587.755 190.636 587.755Z" fill="black"/>
<path d="M208.969 519.998C208.987 520.008 208.911 520.224 208.748 520.628C208.555 521.088 208.312 521.668 208.013 522.381C207.849 522.766 207.67 523.187 207.477 523.643C207.308 524.119 207.124 524.633 206.929 525.18C206.729 525.733 206.518 526.321 206.295 526.943C206.075 527.569 205.901 528.25 205.686 528.953C204.787 531.759 204.072 535.2 203.383 539.03C202.785 542.879 202.334 547.141 202.109 551.631C201.708 560.624 202.216 568.778 202.759 574.65C203.024 577.589 203.29 579.963 203.487 581.603C203.571 582.371 203.64 582.998 203.694 583.493C203.735 583.926 203.747 584.156 203.727 584.159C203.706 584.161 203.656 583.939 203.577 583.51C203.495 583.017 203.39 582.397 203.261 581.632C202.997 580.001 202.667 577.631 202.348 574.691C201.697 568.816 201.122 560.638 201.524 551.603C201.75 547.091 202.219 542.805 202.851 538.94C203.572 535.091 204.335 531.638 205.289 528.83C205.519 528.125 205.706 527.445 205.941 526.821C206.181 526.202 206.408 525.615 206.621 525.063C206.833 524.519 207.032 524.01 207.217 523.536C207.42 523.074 207.627 522.663 207.803 522.288C208.144 521.592 208.421 521.026 208.641 520.577C208.839 520.187 208.951 519.989 208.969 519.998Z" fill="black"/>
<path d="M206.865 498.1C206.884 498.107 206.793 498.415 206.603 498.993C206.389 499.619 206.104 500.458 205.746 501.511C205.555 502.061 205.346 502.666 205.116 503.324C204.911 504 204.69 504.729 204.454 505.511C203.973 507.078 203.414 508.859 202.919 510.862C202.655 511.861 202.38 512.905 202.093 513.992C201.846 515.092 201.588 516.233 201.322 517.416C200.747 519.772 200.333 522.332 199.802 525.006C198.895 530.384 198.096 536.328 197.545 542.599C197.025 548.875 196.798 554.872 196.718 560.327C196.702 565.782 196.771 570.699 196.995 574.82C197.068 576.883 197.2 578.746 197.306 580.381C197.399 582.018 197.503 583.427 197.607 584.577C197.691 585.686 197.759 586.57 197.808 587.229C197.847 587.836 197.858 588.156 197.839 588.159C197.819 588.162 197.769 587.846 197.691 587.242C197.614 586.585 197.511 585.704 197.38 584.599C197.241 583.452 197.105 582.044 196.979 580.407C196.841 578.77 196.68 576.908 196.581 574.843C196.304 570.717 196.191 565.792 196.178 560.324C196.228 554.857 196.438 548.843 196.96 542.551C197.512 536.263 198.331 530.301 199.269 524.912C199.816 522.233 200.249 519.669 200.847 517.308C201.125 516.126 201.394 514.982 201.653 513.882C201.953 512.795 202.243 511.751 202.518 510.752C203.041 508.75 203.628 506.973 204.14 505.412C204.394 504.634 204.632 503.908 204.85 503.236C205.097 502.582 205.323 501.981 205.529 501.435C205.931 500.396 206.251 499.57 206.49 498.952C206.718 498.385 206.846 498.092 206.865 498.1Z" fill="black"/>
<path d="M185.43 592.546C185.42 592.548 185.405 592.44 185.384 592.23C185.364 591.987 185.338 591.68 185.307 591.299C185.249 590.435 185.167 589.237 185.065 587.714C184.869 584.555 184.586 580.061 184.24 574.525C183.526 563.392 182.492 548.01 180.618 531.095C179.662 522.637 178.551 514.606 177.397 507.323C176.784 503.688 176.227 500.229 175.596 497.011C175.018 493.783 174.393 490.794 173.819 488.066C173.279 485.329 172.675 482.881 172.19 480.72C171.714 478.556 171.252 476.704 170.867 475.194C170.504 473.711 170.218 472.544 170.012 471.705C169.926 471.332 169.858 471.032 169.804 470.793C169.761 470.587 169.743 470.479 169.753 470.477C169.762 470.474 169.8 470.576 169.862 470.777C169.932 471.01 170.019 471.306 170.127 471.674C170.359 472.507 170.681 473.665 171.09 475.137C171.509 476.641 172.003 478.485 172.511 480.644C173.027 482.8 173.659 485.245 174.226 487.979C174.826 490.705 175.475 493.694 176.075 496.921C176.728 500.14 177.304 503.6 177.932 507.236C179.117 514.523 180.245 522.564 181.204 531.03C183.079 547.962 184.047 563.359 184.655 574.501C184.958 580.073 185.168 584.584 185.295 587.702C185.35 589.227 185.395 590.429 185.426 591.293C185.435 591.676 185.441 591.984 185.445 592.229C185.445 592.438 185.44 592.545 185.43 592.546Z" fill="black"/>
<path d="M189.964 479.828C189.607 475.992 185.73 473.098 181.878 473.059C178.025 473.02 174.435 475.33 172.079 478.377C169.722 481.425 168.423 485.147 167.36 488.85C164.766 497.887 163.348 507.381 164.457 516.717C165.566 526.053 169.354 535.246 176.053 541.841C177.142 542.914 178.553 543.986 180.048 543.667C180.865 543.492 181.536 542.924 182.156 542.365C195.317 530.476 202.916 512.669 202.395 494.942C202.29 491.392 201.825 487.697 199.858 484.74C197.891 481.782 193.311 478.641 189.964 479.828Z" fill="#EC8305"/>
<path d="M190.295 466.812C173.984 457.188 157.674 447.563 141.363 437.939C140.864 437.644 140.324 437.297 140.172 436.738C139.976 436.014 140.52 435.315 141.042 434.776C147.772 427.833 157.548 423.808 167.191 424.503C176.835 425.197 186.109 430.769 190.831 439.207C195.555 447.643 195.711 458.802 190.295 466.812Z" fill="#EC8305"/>
<path d="M148.416 428.721C148.415 428.7 148.636 428.673 149.057 428.641C149.479 428.619 150.102 428.543 150.905 428.552C152.513 428.513 154.851 428.619 157.695 429.091C160.538 429.558 163.877 430.473 167.364 432.029C170.85 433.576 174.456 435.819 177.743 438.763C181.002 441.74 183.592 445.106 185.48 448.421C187.375 451.737 188.618 454.967 189.366 457.749C190.121 460.531 190.457 462.847 190.58 464.45C190.668 465.25 190.634 465.455 190.654 465.877C190.664 466.3 190.297 466.944 190.277 466.945C190.225 466.948 190.547 466.061 190.353 464.475C190.163 462.888 189.765 460.602 188.968 457.863C187.421 452.414 183.829 445.067 177.35 439.197C170.866 433.337 163.199 430.495 157.623 429.499C154.818 428.979 152.503 428.81 150.905 428.779C149.306 428.745 148.417 428.774 148.416 428.721Z" fill="black"/>
<path d="M183.672 446.883C183.7 446.958 182.757 447.394 181.199 448.007C179.64 448.622 177.462 449.407 175.024 450.182C172.586 450.955 170.353 451.57 168.726 451.969C167.098 452.367 166.077 452.554 166.057 452.478C166.037 452.398 167.019 452.07 168.614 451.57C170.418 451.007 172.522 450.35 174.846 449.624C177.163 448.876 179.26 448.199 181.058 447.618C182.65 447.104 183.643 446.806 183.672 446.883Z" fill="black"/>
<path d="M175.967 426.186C176.124 426.171 176.472 428.611 176.545 431.644C176.624 434.678 176.401 437.132 176.242 437.125C176.077 437.12 176.037 434.672 175.959 431.659C175.885 428.647 175.801 426.199 175.967 426.186Z" fill="black"/>
<path d="M140.936 437.389C140.913 437.315 142.267 436.823 144.491 436.139C146.714 435.454 149.811 434.586 153.261 433.754C156.714 432.924 159.866 432.286 162.156 431.884C164.447 431.481 165.877 431.302 165.89 431.379C165.905 431.462 164.504 431.785 162.238 432.291C159.971 432.796 156.842 433.496 153.398 434.326C149.956 435.157 146.851 435.957 144.604 436.54C142.356 437.119 140.96 437.47 140.936 437.389Z" fill="black"/>
<path d="M169.656 471.506C165.448 468.315 160.997 467.687 155.721 467.896C150.443 468.105 145.307 469.713 140.469 471.832C132.219 475.446 124.462 480.772 119.532 488.311C114.602 495.85 112.886 505.83 116.577 514.047C116.945 514.866 117.424 515.721 118.248 516.075C119.117 516.447 120.112 516.157 121.01 515.863C130.394 512.803 139.846 509.712 148.473 504.917C157.102 500.123 164.956 493.46 169.586 484.741C170.697 482.649 171.627 480.407 171.808 478.046C171.989 475.684 171.337 473.173 169.656 471.506Z" fill="#EC8305"/>
<path d="M169.738 470.518C169.743 470.537 169.51 470.63 169.062 470.792C168.554 470.967 167.902 471.191 167.095 471.468C166.66 471.613 166.185 471.771 165.671 471.943C165.155 472.129 164.604 472.36 164.007 472.59C162.819 473.071 161.441 473.55 159.99 474.255C159.256 474.589 158.488 474.939 157.689 475.303C156.891 475.67 156.094 476.124 155.251 476.554C153.551 477.39 151.829 478.457 149.997 479.539C146.4 481.814 142.592 484.552 138.885 487.78C135.211 491.046 132.009 494.475 129.294 497.753C127.987 499.433 126.709 501.004 125.663 502.585C125.129 503.367 124.578 504.1 124.111 504.844C123.649 505.589 123.205 506.307 122.778 506.992C121.895 508.343 121.243 509.649 120.616 510.765C120.311 511.328 120.012 511.844 119.761 512.332C119.525 512.821 119.308 513.272 119.109 513.684C118.732 514.449 118.427 515.068 118.189 515.548C117.972 515.972 117.85 516.192 117.831 516.183C117.812 516.175 117.899 515.94 118.08 515.501C118.294 515.007 118.566 514.373 118.903 513.587C119.089 513.166 119.291 512.707 119.511 512.209C119.747 511.712 120.034 511.185 120.326 510.614C120.928 509.478 121.558 508.152 122.423 506.781C122.841 506.084 123.277 505.357 123.73 504.599C124.19 503.845 124.734 503.101 125.262 502.308C126.297 500.706 127.569 499.113 128.873 497.412C131.583 494.092 134.795 490.628 138.497 487.339C142.23 484.088 146.075 481.343 149.712 479.079C151.565 478.002 153.306 476.944 155.028 476.122C155.881 475.699 156.688 475.254 157.495 474.894C158.303 474.541 159.081 474.2 159.825 473.875C161.295 473.19 162.69 472.736 163.893 472.282C164.498 472.065 165.056 471.848 165.579 471.678C166.101 471.524 166.583 471.381 167.023 471.251C167.844 471.016 168.509 470.826 169.026 470.678C169.488 470.553 169.732 470.497 169.738 470.518Z" fill="black"/>
<path d="M136.861 488.318C136.906 488.474 132.323 489.951 126.625 491.616C120.925 493.283 116.268 494.508 116.223 494.353C116.177 494.197 120.761 492.721 126.461 491.054C132.158 489.387 136.815 488.163 136.861 488.318Z" fill="black"/>
<path d="M136.438 510.909C136.36 510.91 136.267 509.691 136.213 507.719C136.159 505.746 136.151 503.021 136.235 500.013C136.319 497.003 136.48 494.282 136.645 492.315C136.809 490.349 136.968 489.137 137.048 489.143C137.131 489.148 137.117 490.368 137.059 492.338C136.992 494.499 136.911 497.124 136.821 500.029C136.748 502.932 136.683 505.558 136.628 507.719C136.577 509.688 136.521 510.907 136.438 510.909Z" fill="black"/>
<path d="M155.791 501.05C155.629 501.06 155.115 495.522 154.641 488.68C154.167 481.834 153.915 476.278 154.076 476.268C154.238 476.257 154.752 481.794 155.226 488.639C155.698 495.482 155.952 501.039 155.791 501.05Z" fill="black"/>
<path d="M131.703 475.731C131.707 475.65 132.961 475.618 134.985 475.632C137.009 475.646 139.801 475.705 142.884 475.807C145.968 475.909 148.759 476.034 150.779 476.155C152.798 476.274 154.047 476.389 154.046 476.469C154.045 476.551 152.793 476.582 150.769 476.569C148.745 476.555 145.95 476.495 142.864 476.393C139.778 476.292 136.985 476.167 134.965 476.046C132.947 475.927 131.699 475.811 131.703 475.731Z" fill="black"/>
<path d="M178.152 543.13C178.132 543.13 178.109 542.904 178.082 542.475C178.058 541.983 178.03 541.36 177.996 540.593C177.923 538.958 177.905 536.588 177.969 533.663C178.022 530.737 178.221 527.255 178.573 523.4C178.954 519.547 179.505 515.323 180.295 510.921C181.107 506.523 182.079 502.371 183.081 498.626C184.11 494.888 185.152 491.552 186.134 488.789C187.107 486.021 187.958 483.804 188.604 482.295C188.907 481.588 189.154 481.012 189.349 480.558C189.526 480.163 189.628 479.959 189.645 479.967C189.664 479.974 189.599 480.192 189.459 480.601C189.291 481.065 189.079 481.653 188.817 482.375C188.238 483.906 187.448 486.141 186.527 488.916C185.597 491.69 184.601 495.027 183.603 498.76C182.634 502.5 181.681 506.64 180.874 511.023C180.086 515.407 179.52 519.614 179.112 523.451C178.732 527.291 178.491 530.76 178.384 533.677C178.269 536.592 178.223 538.957 178.225 540.591C178.216 541.358 178.208 541.981 178.201 542.474C178.189 542.903 178.172 543.13 178.152 543.13Z" fill="black"/>
<path d="M180.734 511.091C180.788 511.148 180.048 511.971 178.782 513.233C177.515 514.496 175.718 516.19 173.667 517.988C171.615 519.787 169.699 521.347 168.282 522.436C166.865 523.526 165.952 524.152 165.903 524.091C165.851 524.026 166.672 523.286 168.019 522.116C169.523 520.81 171.308 519.262 173.28 517.547C175.236 515.816 177.006 514.25 178.497 512.931C179.835 511.75 180.677 511.032 180.734 511.091Z" fill="black"/>
<path d="M196.222 523.567C196.152 523.612 195.375 522.499 194.143 520.688C192.806 518.736 191.144 516.312 189.308 513.632C187.432 510.977 185.737 508.578 184.371 506.645C183.102 504.86 182.328 503.745 182.395 503.695C182.457 503.647 183.346 504.672 184.704 506.398C186.061 508.121 187.876 510.55 189.79 513.299C191.701 516.047 193.347 518.594 194.492 520.464C195.636 522.335 196.289 523.527 196.222 523.567Z" fill="black"/>
<path d="M188.11 484.33C188.197 484.466 183.052 487.93 176.62 492.066C170.186 496.203 164.9 499.445 164.812 499.309C164.723 499.173 169.868 495.711 176.302 491.573C182.735 487.437 188.022 484.195 188.11 484.33Z" fill="black"/>
<path d="M202.616 499.988C202.503 500.103 199.019 496.883 194.834 492.798C190.648 488.709 187.348 485.302 187.462 485.187C187.575 485.071 191.059 488.29 195.244 492.378C199.427 496.465 202.729 499.872 202.616 499.988Z" fill="black"/>
<path d="M206.266 499.674L210.683 499.309C213.817 499.05 216.86 498.121 219.602 496.579C220.957 495.817 222.318 495.07 223.758 494.492C229.219 492.3 235.311 492.692 241.187 492.397C250.779 491.915 260.27 489.491 268.915 485.308C269.415 485.066 269.856 484.698 270.123 484.211C271.03 482.559 269.345 481.086 267.896 480.193C260.454 475.608 252.881 470.965 244.442 468.689C236.004 466.413 226.426 466.798 219.226 471.753C210.772 477.568 207.694 489.514 206.266 499.674Z" fill="#EC8305"/>
<path d="M270.221 483.667C270.212 483.684 269.954 483.563 269.472 483.318C268.943 483.041 268.246 482.676 267.379 482.221C265.564 481.267 262.95 479.856 259.647 478.274C256.342 476.707 252.338 474.939 247.679 473.661C243.039 472.372 237.686 471.697 232.167 472.404C226.669 473.129 221.609 475.267 218.025 478.477C214.42 481.677 212.217 485.538 210.661 488.819C209.11 492.13 208.153 494.945 207.458 496.873C207.132 497.797 206.87 498.537 206.672 499.1C206.489 499.608 206.383 499.873 206.363 499.866C206.343 499.86 206.411 499.583 206.559 499.064C206.732 498.491 206.958 497.739 207.242 496.799C207.873 494.848 208.771 492.005 210.287 488.644C211.807 485.314 213.998 481.37 217.668 478.07C221.318 474.759 226.498 472.556 232.091 471.821C237.705 471.1 243.144 471.807 247.823 473.139C252.524 474.459 256.535 476.28 259.829 477.899C263.121 479.536 265.707 481.003 267.489 482.02C268.336 482.516 269.013 482.912 269.529 483.213C269.992 483.494 270.231 483.649 270.221 483.667Z" fill="black"/>
<path d="M259.616 489.365C259.525 489.499 253.749 485.762 246.715 481.02C239.68 476.276 234.051 472.321 234.142 472.187C234.233 472.053 240.008 475.788 247.044 480.532C254.076 485.277 259.706 489.231 259.616 489.365Z" fill="black"/>
<path d="M253.454 471.885C253.482 472.014 251.613 472.449 249.248 472.641C246.884 472.84 244.958 472.717 244.959 472.586C244.959 472.446 246.863 472.348 249.198 472.153C251.532 471.963 253.424 471.748 253.454 471.885Z" fill="black"/>
<path d="M228.167 468.588C228.307 468.652 227.459 469.978 226.272 471.549C225.086 473.119 224.012 474.341 223.872 474.277C223.733 474.213 224.581 472.887 225.767 471.317C226.952 469.746 228.027 468.525 228.167 468.588Z" fill="black"/>
<path d="M233.342 492.768C233.302 492.835 232.231 492.274 230.562 491.262C228.894 490.249 226.638 488.765 224.229 487.016C221.819 485.265 219.695 483.611 218.168 482.401C216.644 481.187 215.721 480.409 215.769 480.344C215.817 480.28 216.828 480.941 218.418 482.069C220.15 483.328 222.251 484.855 224.574 486.542C226.975 488.285 229.182 489.816 230.788 490.914C232.393 492.011 233.387 492.696 233.342 492.768Z" fill="black"/>
<path d="M212.766 518.44C208.552 517.327 203.531 521.425 202.663 525.694C201.794 529.964 203.396 534.331 205.27 538.263C209.42 546.97 215.148 555.045 222.691 561.057C230.234 567.067 239.683 570.912 249.327 570.863C247.546 562.591 249.8 553.948 248.806 545.546C247.94 538.212 244.519 531.204 239.272 526.007C234.024 520.811 226.982 517.461 219.64 516.669C216.951 516.378 213.839 515.956 212.766 518.44Z" fill="#EC8305"/>
<path d="M249.328 570.862C249.319 570.88 249.114 570.784 248.728 570.583C248.348 570.375 247.8 570.041 247.152 569.525C245.83 568.521 244.315 566.587 242.993 563.963C242.321 562.658 241.571 561.243 240.838 559.675C240.126 558.102 239.368 556.425 238.571 554.665C237.767 552.909 236.884 551.088 235.785 549.31C234.693 547.529 233.394 545.79 231.952 544.097C229.068 540.709 225.974 537.779 223.291 534.978C220.593 532.189 218.325 529.502 216.687 527.055C215.032 524.617 214.029 522.432 213.46 520.893C213.189 520.116 212.993 519.508 212.897 519.086C212.791 518.666 212.745 518.444 212.764 518.44C212.818 518.423 213.057 519.3 213.672 520.81C214.302 522.311 215.347 524.439 217.028 526.822C218.693 529.213 220.971 531.847 223.677 534.604C226.372 537.373 229.483 540.297 232.399 543.719C233.854 545.427 235.169 547.195 236.274 549.011C237.384 550.825 238.267 552.673 239.061 554.442C239.84 556.209 240.581 557.893 241.276 559.471C241.983 561.032 242.714 562.463 243.36 563.773C244.629 566.403 246.045 568.309 247.298 569.35C248.53 570.413 249.364 570.807 249.328 570.862Z" fill="black"/>
<path d="M227.544 563.988C227.468 563.973 227.6 562.888 227.931 561.153C228.261 559.418 228.803 557.037 229.532 554.442C230.263 551.846 231.045 549.532 231.669 547.881C232.294 546.229 232.747 545.233 232.819 545.26C232.898 545.289 232.583 546.334 232.062 548.016C231.541 549.696 230.825 552.019 230.096 554.601C229.37 557.182 228.767 559.536 228.336 561.242C227.903 562.949 227.626 564.005 227.544 563.988Z" fill="black"/>
<path d="M248.531 543.685C248.506 543.765 247.379 543.477 245.564 543.002C243.749 542.527 241.242 541.88 238.454 541.25C235.665 540.623 233.122 540.134 231.279 539.784C229.435 539.435 228.294 539.211 228.305 539.128C228.316 539.051 229.478 539.13 231.344 539.374C233.209 539.62 235.779 540.046 238.583 540.677C241.386 541.31 243.889 542.025 245.681 542.603C247.471 543.183 248.554 543.61 248.531 543.685Z" fill="black"/>
<path d="M211.911 549.584C211.834 549.569 211.997 548.314 212.367 546.302C212.738 544.292 213.327 541.527 214.116 538.507C214.904 535.485 215.742 532.785 216.402 530.849C217.061 528.914 217.534 527.74 217.608 527.764C217.687 527.79 217.356 529.01 216.798 530.973C216.242 532.936 215.471 535.645 214.683 538.654C213.899 541.664 213.247 544.404 212.773 546.389C212.3 548.372 211.994 549.599 211.911 549.584Z" fill="black"/>
<path d="M238.866 525.989C238.849 526.149 233.59 525.724 227.122 525.039C220.651 524.353 215.421 523.666 215.438 523.505C215.455 523.343 220.712 523.77 227.183 524.455C233.652 525.141 238.884 525.827 238.866 525.989Z" fill="black"/>
<path d="M235.014 589.766C235.014 589.927 216.528 590.059 193.729 590.059C170.922 590.059 152.439 589.927 152.439 589.766C152.439 589.604 170.922 589.473 193.729 589.473C216.528 589.473 235.014 589.603 235.014 589.766Z" fill="#EC8305"/>
<path d="M222.153 613.555C222.153 613.716 209.697 613.848 194.336 613.848C178.968 613.848 166.516 613.716 166.516 613.555C166.516 613.393 178.968 613.262 194.336 613.262C209.696 613.262 222.153 613.392 222.153 613.555Z" fill="#EC8305"/>
<path d="M221.668 616.955C221.668 617.117 209.43 617.249 194.335 617.249C179.237 617.249 167 617.117 167 616.955C167 616.794 179.237 616.662 194.335 616.662C209.43 616.662 221.668 616.794 221.668 616.955Z" fill="#EC8305"/>
<path d="M222.638 610.75C222.638 610.912 209.754 611.043 193.865 611.043C177.97 611.043 165.09 610.912 165.09 610.75C165.09 610.589 177.97 610.457 193.865 610.457C209.754 610.457 222.638 610.589 222.638 610.75Z" fill="#EC8305"/>
<path d="M429.391 145.084L439.638 127.025C435.105 119.667 432.484 111.005 432.484 101.729C432.484 75.0519 454.11 53.4258 480.787 53.4258C507.464 53.4258 529.09 75.0519 529.09 101.729C529.09 128.406 507.464 150.031 480.787 150.031C469.648 150.031 459.397 146.25 451.227 139.915L451.243 139.937L429.391 145.084Z" fill="white"/>
<path d="M429.391 145.085C430.496 144.816 437.348 143.152 451.207 139.784L451.117 140.035L451.101 140.013C451.048 139.944 451.06 139.844 451.131 139.791C451.189 139.746 451.269 139.749 451.325 139.791C454.078 141.893 457.367 143.963 461.226 145.683C465.089 147.373 469.507 148.748 474.38 149.378C476.813 149.68 479.354 149.871 481.961 149.734C483.264 149.655 484.592 149.62 485.929 149.503C487.258 149.298 488.604 149.09 489.969 148.88C495.381 147.795 500.909 145.725 506.063 142.512C511.213 139.31 515.979 134.969 519.795 129.644C523.605 124.327 526.492 118.03 527.839 111.192C529.173 104.361 529.055 97.0422 527.259 89.9634C525.45 82.909 522.078 76.0161 517.028 70.3463L515.081 68.2029C514.441 67.4821 513.676 66.8876 512.982 66.2265C512.256 65.6021 511.602 64.8922 510.82 64.3398L508.53 62.6281C507.789 62.0281 506.971 61.5449 506.16 61.0589L503.739 59.5875C502.892 59.1762 502.048 58.7663 501.207 58.3563C500.357 57.9641 499.541 57.4985 498.649 57.2175C491.721 54.4633 484.33 53.41 477.261 53.9149C470.19 54.4158 463.422 56.4343 457.611 59.6934C451.781 62.9267 446.859 67.2473 443.054 72.0783C439.237 76.912 436.541 82.2452 434.862 87.5622C433.195 92.9049 432.731 98.2082 432.728 103.123C432.969 113.024 436.243 121.181 439.767 126.947C439.796 126.996 439.795 127.056 439.769 127.103C433.155 138.565 429.935 144.143 429.391 145.085C429.92 144.136 433.057 138.511 439.505 126.951L439.507 127.107C435.92 121.332 432.571 113.127 432.289 103.136C432.27 98.1757 432.72 92.818 434.387 87.4142C436.065 82.0362 438.777 76.6351 442.625 71.7389C446.461 66.8442 451.433 62.4625 457.329 59.1803C463.205 55.8709 470.057 53.8172 477.217 53.3014C484.375 52.7815 491.864 53.843 498.887 56.6297C499.789 56.9148 500.617 57.3844 501.479 57.7822C502.333 58.1962 503.188 58.6129 504.046 59.0296C504.862 59.5251 505.679 60.0205 506.499 60.5187C507.322 61.0114 508.15 61.5001 508.902 62.1082L511.221 63.843C512.013 64.4036 512.677 65.1203 513.412 65.7542C514.115 66.4247 514.889 67.0274 515.538 67.7577L517.513 69.9295C522.628 75.6754 526.046 82.6606 527.874 89.81C529.69 96.9852 529.803 104.398 528.444 111.314C527.072 118.239 524.14 124.614 520.274 129.988C516.401 135.373 511.572 139.754 506.354 142.982C501.135 146.221 495.538 148.298 490.065 149.377C488.686 149.584 487.323 149.791 485.981 149.993C484.629 150.106 483.289 150.138 481.972 150.213C479.338 150.341 476.773 150.138 474.319 149.825C469.404 149.17 464.952 147.761 461.067 146.039C457.186 144.285 453.885 142.181 451.129 140.045L451.353 139.822L451.37 139.844C451.423 139.913 451.41 140.012 451.341 140.066C451.323 140.08 451.3 140.091 451.279 140.095C437.373 143.264 430.498 144.832 429.391 145.085Z" fill="#263238"/>
<path d="M472.516 95.8403H475.661L482.524 86.276V79.9994C482.524 79.9994 487.385 79.7008 486.813 87.9198C486.24 96.1403 486.859 94.0471 486.859 94.0471C486.859 94.0471 497.18 94.0865 498.037 94.9838C498.662 95.6353 498.943 105.886 499.051 111.448C499.106 114.247 497.389 116.85 494.787 117.511C494.417 117.606 494.043 117.66 493.676 117.66C491.102 117.66 477.949 115.567 477.949 115.567H472.517V95.8403H472.516Z" fill="#EC8305"/>
<path d="M463.514 94.1172L465.448 115.625H470.833V94.5502L463.514 94.1172Z" fill="#EC8305"/>
<path d="M611.259 647.652C611.259 647.847 489.512 648.005 339.361 648.005C189.16 648.005 67.4375 647.846 67.4375 647.652C67.4375 647.456 189.16 647.299 339.361 647.299C489.512 647.299 611.259 647.456 611.259 647.652Z" fill="#263238"/>
</svg>
